<?xml version="1.0" encoding="UTF-8" standalone="no"?>
<!DOCTYPE svg PUBLIC "-//W3C//DTD SVG 1.1//EN"
 "http://www.w3.org/Graphics/SVG/1.1/DTD/svg11.dtd">
<!-- Generated by graphviz version 2.43.0 (0)
 -->
<!-- Title: %3 Pages: 1 -->
<svg width="4069pt" height="2175pt"
 viewBox="0.00 0.00 4069.00 2175.00" xmlns="http://www.w3.org/2000/svg" xmlns:xlink="http://www.w3.org/1999/xlink">
<g id="graph0" class="graph" transform="scale(1 1) rotate(0) translate(4 2171)">
<title>%3</title>
<g id="clust1" class="cluster">
<title>cluster_0</title>
<polygon fill="BurlyWood" stroke="black" points="339,-8 339,-158 3280,-158 3280,-8 339,-8"/>
<text text-anchor="middle" x="1809.5" y="-142.8" font-family="Times,serif" font-size="14.00">Bartlett\UmlWriter\Generator</text>
</g>
<g id="clust2" class="cluster">
<title>cluster_1</title>
<polygon fill="BurlyWood" stroke="black" points="48.5,-166 48.5,-631 1162.5,-631 1162.5,-166 48.5,-166"/>
<text text-anchor="middle" x="605.5" y="-615.8" font-family="Times,serif" font-size="14.00">Bartlett\UmlWriter\Service</text>
</g>
<g id="clust3" class="cluster">
<title>cluster_2</title>
<polygon fill="LightSkyBlue" stroke="black" points="1692.5,-185 1692.5,-316 1980.5,-316 1980.5,-185 1692.5,-185"/>
<text text-anchor="middle" x="1836.5" y="-300.8" font-family="Times,serif" font-size="14.00">Psr\Container</text>
</g>
<g id="clust4" class="cluster">
<title>cluster_3</title>
<polygon fill="BurlyWood" stroke="black" points="8,-639 8,-852 1203,-852 1203,-639 8,-639"/>
<text text-anchor="middle" x="605.5" y="-836.8" font-family="Times,serif" font-size="14.00">Bartlett\UmlWriter\Console</text>
</g>
<g id="clust5" class="cluster">
<title>cluster_4</title>
<polygon fill="LightSkyBlue" stroke="black" points="1223,-338 1223,-1153 2450,-1153 2450,-338 1223,-338"/>
<text text-anchor="middle" x="1836.5" y="-1137.8" font-family="Times,serif" font-size="14.00">Symfony\Component\Console</text>
</g>
<g id="clust6" class="cluster">
<title>cluster_5</title>
<polygon fill="LightSkyBlue" stroke="black" points="2776.5,-689 2776.5,-802 2987.5,-802 2987.5,-689 2776.5,-689"/>
<text text-anchor="middle" x="2882" y="-786.8" font-family="Times,serif" font-size="14.00">Symfony\Contracts\Service</text>
</g>
<g id="clust7" class="cluster">
<title>cluster_6</title>
<polygon fill="BurlyWood" stroke="black" points="32,-1494 32,-1631 1179,-1631 1179,-1494 32,-1494"/>
<text text-anchor="middle" x="605.5" y="-1615.8" font-family="Times,serif" font-size="14.00">Bartlett\UmlWriter\Console\Command</text>
</g>
<g id="clust8" class="cluster">
<title>cluster_7</title>
<polygon fill="LightSkyBlue" stroke="black" points="1223,-1161 1223,-1964 2450,-1964 2450,-1161 1223,-1161"/>
<text text-anchor="middle" x="1836.5" y="-1948.8" font-family="Times,serif" font-size="14.00">Symfony\Component\Console\Command</text>
</g>
<g id="clust9" class="cluster">
<title>cluster_8</title>
<polygon fill="BurlyWood" stroke="black" points="364.5,-2000 364.5,-2131 846.5,-2131 846.5,-2000 364.5,-2000"/>
<text text-anchor="middle" x="605.5" y="-2115.8" font-family="Times,serif" font-size="14.00">Bartlett\UmlWriter\Config\Loader</text>
</g>
<g id="clust10" class="cluster">
<title>cluster_9</title>
<polygon fill="LightSkyBlue" stroke="black" points="1267.5,-1972 1267.5,-2159 4053,-2159 4053,-1972 1267.5,-1972"/>
<text text-anchor="middle" x="2660.25" y="-2143.8" font-family="Times,serif" font-size="14.00">Symfony\Component\Config\Loader</text>
</g>
<!-- Bartlett\\UmlWriter\\Generator\\GeneratorFactory -->
<g id="node1" class="node">
<title>Bartlett\\UmlWriter\\Generator\\GeneratorFactory</title>
<polygon fill="#fefece" stroke="transparent" points="864,-107.5 347,-107.5 347,-34.5 864,-34.5 864,-107.5"/>
<polygon fill="#eeeeee" stroke="transparent" points="355.5,-69 355.5,-103 856.5,-103 856.5,-69 355.5,-69"/>
<polygon fill="none" stroke="black" points="355.5,-69 355.5,-103 856.5,-103 856.5,-69 355.5,-69"/>
<text text-anchor="start" x="536.5" y="-75.8" font-family="Times,serif" font-weight="bold" font-size="14.00">GeneratorFactory</text>
<polygon fill="none" stroke="black" points="355.5,-63 355.5,-69 856.5,-69 856.5,-63 355.5,-63"/>
<polygon fill="none" stroke="black" points="355.5,-38 355.5,-63 856.5,-63 856.5,-38 355.5,-38"/>
<text text-anchor="start" x="360.5" y="-46.8" font-family="Times,serif" font-size="14.00">+ getGenerator() : Bartlett\GraphUml\Generator\GeneratorInterface</text>
</g>
<!-- Bartlett\\UmlWriter\\Generator\\AbstractGeneratorFactory -->
<g id="node2" class="node">
<title>Bartlett\\UmlWriter\\Generator\\AbstractGeneratorFactory</title>
<polygon fill="#fefece" stroke="transparent" points="2186,-126.5 1487,-126.5 1487,-15.5 2186,-15.5 2186,-126.5"/>
<polygon fill="#eeeeee" stroke="transparent" points="1495.5,-88 1495.5,-122 2178.5,-122 2178.5,-88 1495.5,-88"/>
<polygon fill="none" stroke="black" points="1495.5,-88 1495.5,-122 2178.5,-122 2178.5,-88 1495.5,-88"/>
<text text-anchor="start" x="1795" y="-108.8" font-family="Times,serif" font-weight="bold" font-size="14.00">«abstract»</text>
<text text-anchor="start" x="1734.5" y="-94.8" font-family="Times,serif" font-weight="bold" font-size="14.00">AbstractGeneratorFactory</text>
<polygon fill="none" stroke="black" points="1495.5,-82 1495.5,-88 2178.5,-88 2178.5,-82 1495.5,-82"/>
<polygon fill="none" stroke="black" points="1495.5,-19 1495.5,-82 2178.5,-82 2178.5,-19 1495.5,-19"/>
<text text-anchor="start" x="1500.5" y="-65.8" font-family="Times,serif" font-size="14.00">+ __construct(generator : string = &#39;&#39;)</text>
<text text-anchor="start" x="1500.5" y="-46.8" font-family="Times,serif" font-size="14.00">+ createInstance(provider : string) : Bartlett\UmlWriter\Generator\GeneratorFactoryInterface</text>
<text text-anchor="start" x="1500.5" y="-27.8" font-family="Times,serif" font-size="14.00">+ «abstract» getGenerator() : Bartlett\GraphUml\Generator\GeneratorInterface</text>
</g>
<!-- Bartlett\\UmlWriter\\Generator\\GeneratorFactory&#45;&gt;Bartlett\\UmlWriter\\Generator\\AbstractGeneratorFactory -->
<g id="edge2" class="edge">
<title>Bartlett\\UmlWriter\\Generator\\GeneratorFactory&#45;&gt;Bartlett\\UmlWriter\\Generator\\AbstractGeneratorFactory</title>
<path fill="none" stroke="black" d="M864.14,-71C1041.86,-71 1280.51,-71 1476.79,-71"/>
<polygon fill="none" stroke="black" points="1476.99,-74.5 1486.99,-71 1476.99,-67.5 1476.99,-74.5"/>
</g>
<!-- Bartlett\\UmlWriter\\Generator\\GeneratorFactoryInterface -->
<g id="node3" class="node">
<title>Bartlett\\UmlWriter\\Generator\\GeneratorFactoryInterface</title>
<polygon fill="#fefece" stroke="transparent" points="3272,-117 2492,-117 2492,-25 3272,-25 3272,-117"/>
<polygon fill="#eeeeee" stroke="transparent" points="2500,-79 2500,-113 3264,-113 3264,-79 2500,-79"/>
<polygon fill="none" stroke="black" points="2500,-79 2500,-113 3264,-113 3264,-79 2500,-79"/>
<text text-anchor="start" x="2837" y="-99.8" font-family="Times,serif" font-weight="bold" font-size="14.00">«interface»</text>
<text text-anchor="start" x="2776.5" y="-85.8" font-family="Times,serif" font-weight="bold" font-size="14.00">GeneratorFactoryInterface</text>
<polygon fill="none" stroke="black" points="2500,-73 2500,-79 3264,-79 3264,-73 2500,-73"/>
<polygon fill="none" stroke="black" points="2500,-29 2500,-73 3264,-73 3264,-29 2500,-29"/>
<text text-anchor="start" x="2505" y="-56.8" font-family="Times,serif" font-size="14.00">+ «abstract» createInstance(provider : string) : Bartlett\UmlWriter\Generator\GeneratorFactoryInterface</text>
<text text-anchor="start" x="2505" y="-37.8" font-family="Times,serif" font-size="14.00">+ «abstract» getGenerator() : Bartlett\GraphUml\Generator\GeneratorInterface</text>
</g>
<!-- Bartlett\\UmlWriter\\Generator\\AbstractGeneratorFactory&#45;&gt;Bartlett\\UmlWriter\\Generator\\GeneratorFactoryInterface -->
<g id="edge1" class="edge">
<title>Bartlett\\UmlWriter\\Generator\\AbstractGeneratorFactory&#45;&gt;Bartlett\\UmlWriter\\Generator\\GeneratorFactoryInterface</title>
<path fill="none" stroke="black" stroke-dasharray="5,2" d="M2186.06,-71C2280.87,-71 2384.3,-71 2481.69,-71"/>
<polygon fill="none" stroke="black" points="2481.7,-74.5 2491.7,-71 2481.7,-67.5 2481.7,-74.5"/>
</g>
<!-- Bartlett\\UmlWriter\\Service\\ConfigurationHandler -->
<g id="node4" class="node">
<title>Bartlett\\UmlWriter\\Service\\ConfigurationHandler</title>
<polygon fill="#fefece" stroke="transparent" points="868,-600.5 343,-600.5 343,-451.5 868,-451.5 868,-600.5"/>
<polygon fill="#eeeeee" stroke="transparent" points="351.5,-562 351.5,-596 860.5,-596 860.5,-562 351.5,-562"/>
<polygon fill="none" stroke="black" points="351.5,-562 351.5,-596 860.5,-596 860.5,-562 351.5,-562"/>
<text text-anchor="start" x="518.5" y="-568.8" font-family="Times,serif" font-weight="bold" font-size="14.00">ConfigurationHandler</text>
<polygon fill="none" stroke="black" points="351.5,-556 351.5,-562 860.5,-562 860.5,-556 351.5,-556"/>
<polygon fill="none" stroke="black" points="351.5,-455 351.5,-556 860.5,-556 860.5,-455 351.5,-455"/>
<text text-anchor="start" x="356.5" y="-539.8" font-family="Times,serif" font-size="14.00">+ __construct(filename : string)</text>
<text text-anchor="start" x="356.5" y="-520.8" font-family="Times,serif" font-size="14.00">+ filename() : ?string</text>
<text text-anchor="start" x="356.5" y="-501.8" font-family="Times,serif" font-size="14.00">+ toArray() : array</text>
<text text-anchor="start" x="356.5" y="-482.8" font-family="Times,serif" font-size="14.00">+ toFlat() : array</text>
<text text-anchor="start" x="356.5" y="-463.8" font-family="Times,serif" font-size="14.00">+ getValueByKey(key : string, default : mixed = «unknown») : ?mixed</text>
</g>
<!-- Bartlett\\UmlWriter\\Service\\ClassDiagramRenderer -->
<g id="node5" class="node">
<title>Bartlett\\UmlWriter\\Service\\ClassDiagramRenderer</title>
<polygon fill="#fefece" stroke="transparent" points="1154.5,-433.5 56.5,-433.5 56.5,-322.5 1154.5,-322.5 1154.5,-433.5"/>
<polygon fill="#eeeeee" stroke="transparent" points="64.5,-395 64.5,-429 1146.5,-429 1146.5,-395 64.5,-395"/>
<polygon fill="none" stroke="black" points="64.5,-395 64.5,-429 1146.5,-429 1146.5,-395 64.5,-395"/>
<text text-anchor="start" x="513.5" y="-401.8" font-family="Times,serif" font-weight="bold" font-size="14.00">ClassDiagramRenderer</text>
<polygon fill="none" stroke="black" points="64.5,-389 64.5,-395 1146.5,-395 1146.5,-389 64.5,-389"/>
<polygon fill="none" stroke="black" points="64.5,-326 64.5,-389 1146.5,-389 1146.5,-326 64.5,-326"/>
<text text-anchor="start" x="69.5" y="-372.8" font-family="Times,serif" font-size="14.00">+ __invoke(finder : Symfony\Component\Finder\Finder, generator : Bartlett\GraphUml\Generator\GeneratorInterface, parameters : array = []) : string</text>
<text text-anchor="start" x="69.5" y="-353.8" font-family="Times,serif" font-size="14.00">+ getMetadata() : array</text>
<text text-anchor="start" x="69.5" y="-334.8" font-family="Times,serif" font-size="14.00">+ getGraph() : Graphp\Graph\Graph</text>
</g>
<!-- Bartlett\\UmlWriter\\Service\\ContainerService -->
<g id="node6" class="node">
<title>Bartlett\\UmlWriter\\Service\\ContainerService</title>
<polygon fill="#fefece" stroke="transparent" points="758.5,-304 452.5,-304 452.5,-174 758.5,-174 758.5,-304"/>
<polygon fill="#eeeeee" stroke="transparent" points="460.5,-266 460.5,-300 750.5,-300 750.5,-266 460.5,-266"/>
<polygon fill="none" stroke="black" points="460.5,-266 460.5,-300 750.5,-300 750.5,-266 460.5,-266"/>
<text text-anchor="start" x="537.5" y="-272.8" font-family="Times,serif" font-weight="bold" font-size="14.00">ContainerService</text>
<polygon fill="none" stroke="black" points="460.5,-260 460.5,-266 750.5,-266 750.5,-260 460.5,-260"/>
<polygon fill="none" stroke="black" points="460.5,-178 460.5,-260 750.5,-260 750.5,-178 460.5,-178"/>
<text text-anchor="start" x="465.5" y="-243.8" font-family="Times,serif" font-size="14.00">+ __construct()</text>
<text text-anchor="start" x="465.5" y="-224.8" font-family="Times,serif" font-size="14.00">+ set(id : string, service : mixed) : void</text>
<text text-anchor="start" x="465.5" y="-205.8" font-family="Times,serif" font-size="14.00">+ get(id : string) : ?mixed</text>
<text text-anchor="start" x="465.5" y="-186.8" font-family="Times,serif" font-size="14.00">+ has(id : string) : bool</text>
</g>
<!-- Psr\\Container\\ContainerInterface -->
<g id="node7" class="node">
<title>Psr\\Container\\ContainerInterface</title>
<polygon fill="#fefece" stroke="transparent" points="1972.5,-285 1700.5,-285 1700.5,-193 1972.5,-193 1972.5,-285"/>
<polygon fill="#eeeeee" stroke="transparent" points="1708.5,-247 1708.5,-281 1964.5,-281 1964.5,-247 1708.5,-247"/>
<polygon fill="none" stroke="black" points="1708.5,-247 1708.5,-281 1964.5,-281 1964.5,-247 1708.5,-247"/>
<text text-anchor="start" x="1791.5" y="-267.8" font-family="Times,serif" font-weight="bold" font-size="14.00">«interface»</text>
<text text-anchor="start" x="1760.5" y="-253.8" font-family="Times,serif" font-weight="bold" font-size="14.00">ContainerInterface</text>
<polygon fill="none" stroke="black" points="1708.5,-241 1708.5,-247 1964.5,-247 1964.5,-241 1708.5,-241"/>
<polygon fill="none" stroke="black" points="1708.5,-197 1708.5,-241 1964.5,-241 1964.5,-197 1708.5,-197"/>
<text text-anchor="start" x="1713.5" y="-224.8" font-family="Times,serif" font-size="14.00">+ «abstract» get(id : string)</text>
<text text-anchor="start" x="1713.5" y="-205.8" font-family="Times,serif" font-size="14.00">+ «abstract» has(id : string) : bool</text>
</g>
<!-- Bartlett\\UmlWriter\\Service\\ContainerService&#45;&gt;Psr\\Container\\ContainerInterface -->
<g id="edge3" class="edge">
<title>Bartlett\\UmlWriter\\Service\\ContainerService&#45;&gt;Psr\\Container\\ContainerInterface</title>
<path fill="none" stroke="black" stroke-dasharray="5,2" d="M758.74,-239C997.27,-239 1455.97,-239 1690.17,-239"/>
<polygon fill="none" stroke="black" points="1690.46,-242.5 1700.46,-239 1690.46,-235.5 1690.46,-242.5"/>
</g>
<!-- Bartlett\\UmlWriter\\Console\\Application -->
<g id="node8" class="node">
<title>Bartlett\\UmlWriter\\Console\\Application</title>
<polygon fill="#fefece" stroke="transparent" points="1195,-821 16,-821 16,-647 1195,-647 1195,-821"/>
<polygon fill="#eeeeee" stroke="transparent" points="24.5,-783 24.5,-817 1187.5,-817 1187.5,-783 24.5,-783"/>
<polygon fill="none" stroke="black" points="24.5,-783 24.5,-817 1187.5,-817 1187.5,-783 24.5,-783"/>
<text text-anchor="start" x="561" y="-789.8" font-family="Times,serif" font-weight="bold" font-size="14.00">Application</text>
<polygon fill="none" stroke="black" points="24.5,-758 24.5,-783 1187.5,-783 1187.5,-758 24.5,-758"/>
<text text-anchor="start" x="29.5" y="-766.8" font-family="Times,serif" font-size="14.00">+ «static» NAME : string = &quot;umlWriter&quot; {readOnly}</text>
<polygon fill="none" stroke="black" points="24.5,-752 24.5,-758 1187.5,-758 1187.5,-752 24.5,-752"/>
<polygon fill="none" stroke="black" points="24.5,-651 24.5,-752 1187.5,-752 1187.5,-651 24.5,-651"/>
<text text-anchor="start" x="29.5" y="-735.8" font-family="Times,serif" font-size="14.00">+ __construct(container : Psr\Container\ContainerInterface)</text>
<text text-anchor="start" x="29.5" y="-716.8" font-family="Times,serif" font-size="14.00">+ getHelp() : string</text>
<text text-anchor="start" x="29.5" y="-697.8" font-family="Times,serif" font-size="14.00">+ getLongVersion() : string</text>
<text text-anchor="start" x="29.5" y="-678.8" font-family="Times,serif" font-size="14.00">+ doRun(input : Symfony\Component\Console\Input\InputInterface, output : Symfony\Component\Console\Output\OutputInterface) : int</text>
<text text-anchor="start" x="29.5" y="-659.8" font-family="Times,serif" font-size="14.00">+ run(input : Symfony\Component\Console\Input\InputInterface = «unknown», output : Symfony\Component\Console\Output\OutputInterface = «unknown») : int</text>
</g>
<!-- Symfony\\Component\\Console\\Application -->
<g id="node9" class="node">
<title>Symfony\\Component\\Console\\Application</title>
<polygon fill="#fefece" stroke="transparent" points="2442,-1122 1231,-1122 1231,-346 2442,-346 2442,-1122"/>
<polygon fill="#eeeeee" stroke="transparent" points="1239.5,-1084 1239.5,-1118 2434.5,-1118 2434.5,-1084 1239.5,-1084"/>
<polygon fill="none" stroke="black" points="1239.5,-1084 1239.5,-1118 2434.5,-1118 2434.5,-1084 1239.5,-1084"/>
<text text-anchor="start" x="1792" y="-1090.8" font-family="Times,serif" font-weight="bold" font-size="14.00">Application</text>
<polygon fill="none" stroke="black" points="1239.5,-1078 1239.5,-1084 2434.5,-1084 2434.5,-1078 1239.5,-1078"/>
<polygon fill="none" stroke="black" points="1239.5,-350 1239.5,-1078 2434.5,-1078 2434.5,-350 1239.5,-350"/>
<text text-anchor="start" x="1244.5" y="-1061.8" font-family="Times,serif" font-size="14.00">+ __construct(name : string = &#39;UNKNOWN&#39;, version : string = &#39;UNKNOWN&#39;)</text>
<text text-anchor="start" x="1244.5" y="-1042.8" font-family="Times,serif" font-size="14.00">+ setDispatcher(dispatcher : Symfony\Contracts\EventDispatcher\EventDispatcherInterface) : void</text>
<text text-anchor="start" x="1244.5" y="-1023.8" font-family="Times,serif" font-size="14.00">+ setCommandLoader(commandLoader : Symfony\Component\Console\CommandLoader\CommandLoaderInterface)</text>
<text text-anchor="start" x="1244.5" y="-1004.8" font-family="Times,serif" font-size="14.00">+ getSignalRegistry() : Symfony\Component\Console\SignalRegistry\SignalRegistry</text>
<text text-anchor="start" x="1244.5" y="-985.8" font-family="Times,serif" font-size="14.00">+ setSignalsToDispatchEvent(signalsToDispatchEvent : int = «unknown»)</text>
<text text-anchor="start" x="1244.5" y="-966.8" font-family="Times,serif" font-size="14.00">+ run(input : Symfony\Component\Console\Input\InputInterface = «unknown», output : Symfony\Component\Console\Output\OutputInterface = «unknown») : int</text>
<text text-anchor="start" x="1244.5" y="-947.8" font-family="Times,serif" font-size="14.00">+ doRun(input : Symfony\Component\Console\Input\InputInterface, output : Symfony\Component\Console\Output\OutputInterface)</text>
<text text-anchor="start" x="1244.5" y="-928.8" font-family="Times,serif" font-size="14.00">+ reset()</text>
<text text-anchor="start" x="1244.5" y="-909.8" font-family="Times,serif" font-size="14.00">+ setHelperSet(helperSet : Symfony\Component\Console\Helper\HelperSet)</text>
<text text-anchor="start" x="1244.5" y="-890.8" font-family="Times,serif" font-size="14.00">+ getHelperSet() : Symfony\Component\Console\Helper\HelperSet</text>
<text text-anchor="start" x="1244.5" y="-871.8" font-family="Times,serif" font-size="14.00">+ setDefinition(definition : Symfony\Component\Console\Input\InputDefinition)</text>
<text text-anchor="start" x="1244.5" y="-852.8" font-family="Times,serif" font-size="14.00">+ getDefinition() : Symfony\Component\Console\Input\InputDefinition</text>
<text text-anchor="start" x="1244.5" y="-833.8" font-family="Times,serif" font-size="14.00">+ complete(input : Symfony\Component\Console\Completion\CompletionInput, suggestions : Symfony\Component\Console\Completion\CompletionSuggestions) : void</text>
<text text-anchor="start" x="1244.5" y="-814.8" font-family="Times,serif" font-size="14.00">+ getHelp() : string</text>
<text text-anchor="start" x="1244.5" y="-795.8" font-family="Times,serif" font-size="14.00">+ areExceptionsCaught() : bool</text>
<text text-anchor="start" x="1244.5" y="-776.8" font-family="Times,serif" font-size="14.00">+ setCatchExceptions(boolean : bool)</text>
<text text-anchor="start" x="1244.5" y="-757.8" font-family="Times,serif" font-size="14.00">+ setCatchErrors(catchErrors : bool = true) : void</text>
<text text-anchor="start" x="1244.5" y="-738.8" font-family="Times,serif" font-size="14.00">+ isAutoExitEnabled() : bool</text>
<text text-anchor="start" x="1244.5" y="-719.8" font-family="Times,serif" font-size="14.00">+ setAutoExit(boolean : bool)</text>
<text text-anchor="start" x="1244.5" y="-700.8" font-family="Times,serif" font-size="14.00">+ getName() : string</text>
<text text-anchor="start" x="1244.5" y="-681.8" font-family="Times,serif" font-size="14.00">+ setName(name : string)</text>
<text text-anchor="start" x="1244.5" y="-662.8" font-family="Times,serif" font-size="14.00">+ getVersion() : string</text>
<text text-anchor="start" x="1244.5" y="-643.8" font-family="Times,serif" font-size="14.00">+ setVersion(version : string)</text>
<text text-anchor="start" x="1244.5" y="-624.8" font-family="Times,serif" font-size="14.00">+ getLongVersion()</text>
<text text-anchor="start" x="1244.5" y="-605.8" font-family="Times,serif" font-size="14.00">+ register(name : string) : Symfony\Component\Console\Command\Command</text>
<text text-anchor="start" x="1244.5" y="-586.8" font-family="Times,serif" font-size="14.00">+ addCommands(commands : array)</text>
<text text-anchor="start" x="1244.5" y="-567.8" font-family="Times,serif" font-size="14.00">+ add(command : Symfony\Component\Console\Command\Command)</text>
<text text-anchor="start" x="1244.5" y="-548.8" font-family="Times,serif" font-size="14.00">+ get(name : string)</text>
<text text-anchor="start" x="1244.5" y="-529.8" font-family="Times,serif" font-size="14.00">+ has(name : string) : bool</text>
<text text-anchor="start" x="1244.5" y="-510.8" font-family="Times,serif" font-size="14.00">+ getNamespaces() : array</text>
<text text-anchor="start" x="1244.5" y="-491.8" font-family="Times,serif" font-size="14.00">+ findNamespace(namespace : string) : string</text>
<text text-anchor="start" x="1244.5" y="-472.8" font-family="Times,serif" font-size="14.00">+ find(name : string)</text>
<text text-anchor="start" x="1244.5" y="-453.8" font-family="Times,serif" font-size="14.00">+ all(namespace : string = «unknown»)</text>
<text text-anchor="start" x="1244.5" y="-434.8" font-family="Times,serif" font-size="14.00">+ «static» getAbbreviations(names : array) : array</text>
<text text-anchor="start" x="1244.5" y="-415.8" font-family="Times,serif" font-size="14.00">+ renderThrowable(e : Throwable, output : Symfony\Component\Console\Output\OutputInterface) : void</text>
<text text-anchor="start" x="1244.5" y="-396.8" font-family="Times,serif" font-size="14.00">+ extractNamespace(name : string, limit : int = «unknown») : string</text>
<text text-anchor="start" x="1244.5" y="-377.8" font-family="Times,serif" font-size="14.00">+ setDefaultCommand(commandName : string, isSingleCommand : bool = false) : static</text>
<text text-anchor="start" x="1244.5" y="-358.8" font-family="Times,serif" font-size="14.00">+ isSingleCommand() : bool</text>
</g>
<!-- Bartlett\\UmlWriter\\Console\\Application&#45;&gt;Symfony\\Component\\Console\\Application -->
<g id="edge5" class="edge">
<title>Bartlett\\UmlWriter\\Console\\Application&#45;&gt;Symfony\\Component\\Console\\Application</title>
<path fill="none" stroke="black" d="M1195.35,-734C1203.88,-734 1212.41,-734 1220.95,-734"/>
<polygon fill="none" stroke="black" points="1220.97,-737.5 1230.97,-734 1220.97,-730.5 1220.97,-737.5"/>
</g>
<!-- Symfony\\Contracts\\Service\\ResetInterface -->
<g id="node10" class="node">
<title>Symfony\\Contracts\\Service\\ResetInterface</title>
<polygon fill="#fefece" stroke="transparent" points="2967.5,-770.5 2796.5,-770.5 2796.5,-697.5 2967.5,-697.5 2967.5,-770.5"/>
<polygon fill="#eeeeee" stroke="transparent" points="2805,-732 2805,-766 2960,-766 2960,-732 2805,-732"/>
<polygon fill="none" stroke="black" points="2805,-732 2805,-766 2960,-766 2960,-732 2805,-732"/>
<text text-anchor="start" x="2837.5" y="-752.8" font-family="Times,serif" font-weight="bold" font-size="14.00">«interface»</text>
<text text-anchor="start" x="2823.5" y="-738.8" font-family="Times,serif" font-weight="bold" font-size="14.00">ResetInterface</text>
<polygon fill="none" stroke="black" points="2805,-726 2805,-732 2960,-732 2960,-726 2805,-726"/>
<polygon fill="none" stroke="black" points="2805,-701 2805,-726 2960,-726 2960,-701 2805,-701"/>
<text text-anchor="start" x="2810" y="-709.8" font-family="Times,serif" font-size="14.00">+ «abstract» reset()</text>
</g>
<!-- Symfony\\Component\\Console\\Application&#45;&gt;Symfony\\Contracts\\Service\\ResetInterface -->
<g id="edge4" class="edge">
<title>Symfony\\Component\\Console\\Application&#45;&gt;Symfony\\Contracts\\Service\\ResetInterface</title>
<path fill="none" stroke="black" stroke-dasharray="5,2" d="M2442.24,-734C2576.84,-734 2703.88,-734 2786.28,-734"/>
<polygon fill="none" stroke="black" points="2786.35,-737.5 2796.35,-734 2786.35,-730.5 2786.35,-737.5"/>
</g>
<!-- Bartlett\\UmlWriter\\Console\\Command\\ClassDiagramCommand -->
<g id="node11" class="node">
<title>Bartlett\\UmlWriter\\Console\\Command\\ClassDiagramCommand</title>
<polygon fill="#fefece" stroke="transparent" points="1171,-1600 40,-1600 40,-1502 1171,-1502 1171,-1600"/>
<polygon fill="#eeeeee" stroke="transparent" points="48.5,-1562 48.5,-1596 1163.5,-1596 1163.5,-1562 48.5,-1562"/>
<polygon fill="none" stroke="black" points="48.5,-1562 48.5,-1596 1163.5,-1596 1163.5,-1562 48.5,-1562"/>
<text text-anchor="start" x="511" y="-1568.8" font-family="Times,serif" font-weight="bold" font-size="14.00">ClassDiagramCommand</text>
<polygon fill="none" stroke="black" points="48.5,-1537 48.5,-1562 1163.5,-1562 1163.5,-1537 48.5,-1537"/>
<text text-anchor="start" x="53.5" y="-1545.8" font-family="Times,serif" font-size="14.00">+ «static» NAME : string = &quot;diagram\:class&quot; {readOnly}</text>
<polygon fill="none" stroke="black" points="48.5,-1531 48.5,-1537 1163.5,-1537 1163.5,-1531 48.5,-1531"/>
<polygon fill="none" stroke="black" points="48.5,-1506 48.5,-1531 1163.5,-1531 1163.5,-1506 48.5,-1506"/>
<text text-anchor="start" x="53.5" y="-1514.8" font-family="Times,serif" font-size="14.00">+ __construct(renderer : Bartlett\UmlWriter\Service\ClassDiagramRenderer, generatorFactory : Bartlett\UmlWriter\Generator\GeneratorFactoryInterface)</text>
</g>
<!-- Symfony\\Component\\Console\\Command\\Command -->
<g id="node12" class="node">
<title>Symfony\\Component\\Console\\Command\\Command</title>
<polygon fill="#fefece" stroke="transparent" points="2442,-1932.5 1231,-1932.5 1231,-1169.5 2442,-1169.5 2442,-1932.5"/>
<polygon fill="#eeeeee" stroke="transparent" points="1239.5,-1894 1239.5,-1928 2434.5,-1928 2434.5,-1894 1239.5,-1894"/>
<polygon fill="none" stroke="black" points="1239.5,-1894 1239.5,-1928 2434.5,-1928 2434.5,-1894 1239.5,-1894"/>
<text text-anchor="start" x="1797" y="-1900.8" font-family="Times,serif" font-weight="bold" font-size="14.00">Command</text>
<polygon fill="none" stroke="black" points="1239.5,-1831 1239.5,-1894 2434.5,-1894 2434.5,-1831 1239.5,-1831"/>
<text text-anchor="start" x="1244.5" y="-1877.8" font-family="Times,serif" font-size="14.00">+ «static» SUCCESS : int = 0 {readOnly}</text>
<text text-anchor="start" x="1244.5" y="-1858.8" font-family="Times,serif" font-size="14.00">+ «static» FAILURE : int = 1 {readOnly}</text>
<text text-anchor="start" x="1244.5" y="-1839.8" font-family="Times,serif" font-size="14.00">+ «static» INVALID : int = 2 {readOnly}</text>
<polygon fill="none" stroke="black" points="1239.5,-1825 1239.5,-1831 2434.5,-1831 2434.5,-1825 1239.5,-1825"/>
<polygon fill="none" stroke="black" points="1239.5,-1173 1239.5,-1825 2434.5,-1825 2434.5,-1173 1239.5,-1173"/>
<text text-anchor="start" x="1244.5" y="-1808.8" font-family="Times,serif" font-size="14.00">+ «static» getDefaultName() : ?string</text>
<text text-anchor="start" x="1244.5" y="-1789.8" font-family="Times,serif" font-size="14.00">+ «static» getDefaultDescription() : ?string</text>
<text text-anchor="start" x="1244.5" y="-1770.8" font-family="Times,serif" font-size="14.00">+ __construct(name : string = «unknown»)</text>
<text text-anchor="start" x="1244.5" y="-1751.8" font-family="Times,serif" font-size="14.00">+ ignoreValidationErrors()</text>
<text text-anchor="start" x="1244.5" y="-1732.8" font-family="Times,serif" font-size="14.00">+ setApplication(application : Symfony\Component\Console\Application = «unknown»)</text>
<text text-anchor="start" x="1244.5" y="-1713.8" font-family="Times,serif" font-size="14.00">+ setHelperSet(helperSet : Symfony\Component\Console\Helper\HelperSet)</text>
<text text-anchor="start" x="1244.5" y="-1694.8" font-family="Times,serif" font-size="14.00">+ getHelperSet() : ?Symfony\Component\Console\Helper\HelperSet</text>
<text text-anchor="start" x="1244.5" y="-1675.8" font-family="Times,serif" font-size="14.00">+ getApplication() : ?Symfony\Component\Console\Application</text>
<text text-anchor="start" x="1244.5" y="-1656.8" font-family="Times,serif" font-size="14.00">+ isEnabled()</text>
<text text-anchor="start" x="1244.5" y="-1637.8" font-family="Times,serif" font-size="14.00">+ run(input : Symfony\Component\Console\Input\InputInterface, output : Symfony\Component\Console\Output\OutputInterface) : int</text>
<text text-anchor="start" x="1244.5" y="-1618.8" font-family="Times,serif" font-size="14.00">+ complete(input : Symfony\Component\Console\Completion\CompletionInput, suggestions : Symfony\Component\Console\Completion\CompletionSuggestions) : void</text>
<text text-anchor="start" x="1244.5" y="-1599.8" font-family="Times,serif" font-size="14.00">+ setCode(code : callable) : static</text>
<text text-anchor="start" x="1244.5" y="-1580.8" font-family="Times,serif" font-size="14.00">+ mergeApplicationDefinition(mergeArgs : bool = true) : void</text>
<text text-anchor="start" x="1244.5" y="-1561.8" font-family="Times,serif" font-size="14.00">+ setDefinition(definition) : static</text>
<text text-anchor="start" x="1244.5" y="-1542.8" font-family="Times,serif" font-size="14.00">+ getDefinition() : Symfony\Component\Console\Input\InputDefinition</text>
<text text-anchor="start" x="1244.5" y="-1523.8" font-family="Times,serif" font-size="14.00">+ getNativeDefinition() : Symfony\Component\Console\Input\InputDefinition</text>
<text text-anchor="start" x="1244.5" y="-1504.8" font-family="Times,serif" font-size="14.00">+ addArgument(name : string, mode : int = «unknown», description : string = &#39;&#39;, default : mixed = «unknown») : static</text>
<text text-anchor="start" x="1244.5" y="-1485.8" font-family="Times,serif" font-size="14.00">+ addOption(name : string, shortcut = «unknown», mode : int = «unknown», description : string = &#39;&#39;, default : mixed = «unknown») : static</text>
<text text-anchor="start" x="1244.5" y="-1466.8" font-family="Times,serif" font-size="14.00">+ setName(name : string) : static</text>
<text text-anchor="start" x="1244.5" y="-1447.8" font-family="Times,serif" font-size="14.00">+ setProcessTitle(title : string) : static</text>
<text text-anchor="start" x="1244.5" y="-1428.8" font-family="Times,serif" font-size="14.00">+ getName() : ?string</text>
<text text-anchor="start" x="1244.5" y="-1409.8" font-family="Times,serif" font-size="14.00">+ setHidden(hidden : bool = true) : static</text>
<text text-anchor="start" x="1244.5" y="-1390.8" font-family="Times,serif" font-size="14.00">+ isHidden() : bool</text>
<text text-anchor="start" x="1244.5" y="-1371.8" font-family="Times,serif" font-size="14.00">+ setDescription(description : string) : static</text>
<text text-anchor="start" x="1244.5" y="-1352.8" font-family="Times,serif" font-size="14.00">+ getDescription() : string</text>
<text text-anchor="start" x="1244.5" y="-1333.8" font-family="Times,serif" font-size="14.00">+ setHelp(help : string) : static</text>
<text text-anchor="start" x="1244.5" y="-1314.8" font-family="Times,serif" font-size="14.00">+ getHelp() : string</text>
<text text-anchor="start" x="1244.5" y="-1295.8" font-family="Times,serif" font-size="14.00">+ getProcessedHelp() : string</text>
<text text-anchor="start" x="1244.5" y="-1276.8" font-family="Times,serif" font-size="14.00">+ setAliases(aliases : iterable) : static</text>
<text text-anchor="start" x="1244.5" y="-1257.8" font-family="Times,serif" font-size="14.00">+ getAliases() : array</text>
<text text-anchor="start" x="1244.5" y="-1238.8" font-family="Times,serif" font-size="14.00">+ getSynopsis(short : bool = false) : string</text>
<text text-anchor="start" x="1244.5" y="-1219.8" font-family="Times,serif" font-size="14.00">+ addUsage(usage : string) : static</text>
<text text-anchor="start" x="1244.5" y="-1200.8" font-family="Times,serif" font-size="14.00">+ getUsages() : array</text>
<text text-anchor="start" x="1244.5" y="-1181.8" font-family="Times,serif" font-size="14.00">+ getHelper(name : string) : ?mixed</text>
</g>
<!-- Bartlett\\UmlWriter\\Console\\Command\\ClassDiagramCommand&#45;&gt;Symfony\\Component\\Console\\Command\\Command -->
<g id="edge6" class="edge">
<title>Bartlett\\UmlWriter\\Console\\Command\\ClassDiagramCommand&#45;&gt;Symfony\\Component\\Console\\Command\\Command</title>
<path fill="none" stroke="black" d="M1171.09,-1551C1187.54,-1551 1204.05,-1551 1220.55,-1551"/>
<polygon fill="none" stroke="black" points="1220.82,-1554.5 1230.82,-1551 1220.82,-1547.5 1220.82,-1554.5"/>
</g>
<!-- Bartlett\\UmlWriter\\Config\\Loader\\YamlFileLoader -->
<g id="node13" class="node">
<title>Bartlett\\UmlWriter\\Config\\Loader\\YamlFileLoader</title>
<polygon fill="#fefece" stroke="transparent" points="838.5,-2100 372.5,-2100 372.5,-2008 838.5,-2008 838.5,-2100"/>
<polygon fill="#eeeeee" stroke="transparent" points="380.5,-2062 380.5,-2096 830.5,-2096 830.5,-2062 380.5,-2062"/>
<polygon fill="none" stroke="black" points="380.5,-2062 380.5,-2096 830.5,-2096 830.5,-2062 380.5,-2062"/>
<text text-anchor="start" x="544.5" y="-2068.8" font-family="Times,serif" font-weight="bold" font-size="14.00">YamlFileLoader</text>
<polygon fill="none" stroke="black" points="380.5,-2056 380.5,-2062 830.5,-2062 830.5,-2056 380.5,-2056"/>
<polygon fill="none" stroke="black" points="380.5,-2012 380.5,-2056 830.5,-2056 830.5,-2012 380.5,-2012"/>
<text text-anchor="start" x="385.5" y="-2039.8" font-family="Times,serif" font-size="14.00">+ load(resource : mixed, type : string = «unknown») : ?mixed</text>
<text text-anchor="start" x="385.5" y="-2020.8" font-family="Times,serif" font-size="14.00">+ supports(resource, type : string = «unknown») : bool</text>
</g>
<!-- Symfony\\Component\\Config\\Loader\\FileLoader -->
<g id="node14" class="node">
<title>Symfony\\Component\\Config\\Loader\\FileLoader</title>
<polygon fill="#fefece" stroke="transparent" points="2397.5,-2119 1275.5,-2119 1275.5,-1989 2397.5,-1989 2397.5,-2119"/>
<polygon fill="#eeeeee" stroke="transparent" points="1283.5,-2081 1283.5,-2115 2389.5,-2115 2389.5,-2081 1283.5,-2081"/>
<polygon fill="none" stroke="black" points="1283.5,-2081 1283.5,-2115 2389.5,-2115 2389.5,-2081 1283.5,-2081"/>
<text text-anchor="start" x="1794.5" y="-2101.8" font-family="Times,serif" font-weight="bold" font-size="14.00">«abstract»</text>
<text text-anchor="start" x="1794.5" y="-2087.8" font-family="Times,serif" font-weight="bold" font-size="14.00">FileLoader</text>
<polygon fill="none" stroke="black" points="1283.5,-2075 1283.5,-2081 2389.5,-2081 2389.5,-2075 1283.5,-2075"/>
<polygon fill="none" stroke="black" points="1283.5,-1993 1283.5,-2075 2389.5,-2075 2389.5,-1993 1283.5,-1993"/>
<text text-anchor="start" x="1288.5" y="-2058.8" font-family="Times,serif" font-size="14.00">+ __construct(locator : Symfony\Component\Config\FileLocatorInterface, env : string = «unknown»)</text>
<text text-anchor="start" x="1288.5" y="-2039.8" font-family="Times,serif" font-size="14.00">+ setCurrentDir(dir : string)</text>
<text text-anchor="start" x="1288.5" y="-2020.8" font-family="Times,serif" font-size="14.00">+ getLocator() : Symfony\Component\Config\FileLocatorInterface</text>
<text text-anchor="start" x="1288.5" y="-2001.8" font-family="Times,serif" font-size="14.00">+ import(resource : mixed, type : string = «unknown», ignoreErrors : bool = false, sourceResource : string = «unknown», exclude : mixed = «unknown»)</text>
</g>
<!-- Bartlett\\UmlWriter\\Config\\Loader\\YamlFileLoader&#45;&gt;Symfony\\Component\\Config\\Loader\\FileLoader -->
<g id="edge9" class="edge">
<title>Bartlett\\UmlWriter\\Config\\Loader\\YamlFileLoader&#45;&gt;Symfony\\Component\\Config\\Loader\\FileLoader</title>
<path fill="none" stroke="black" d="M838.75,-2054C960.07,-2054 1114.36,-2054 1265.09,-2054"/>
<polygon fill="none" stroke="black" points="1265.48,-2057.5 1275.48,-2054 1265.48,-2050.5 1265.48,-2057.5"/>
</g>
<!-- Symfony\\Component\\Config\\Loader\\Loader -->
<g id="node15" class="node">
<title>Symfony\\Component\\Config\\Loader\\Loader</title>
<polygon fill="#fefece" stroke="transparent" points="3286,-2128.5 2478,-2128.5 2478,-1979.5 3286,-1979.5 3286,-2128.5"/>
<polygon fill="#eeeeee" stroke="transparent" points="2486,-2090 2486,-2124 3278,-2124 3278,-2090 2486,-2090"/>
<polygon fill="none" stroke="black" points="2486,-2090 2486,-2124 3278,-2124 3278,-2090 2486,-2090"/>
<text text-anchor="start" x="2840" y="-2110.8" font-family="Times,serif" font-weight="bold" font-size="14.00">«abstract»</text>
<text text-anchor="start" x="2854.5" y="-2096.8" font-family="Times,serif" font-weight="bold" font-size="14.00">Loader</text>
<polygon fill="none" stroke="black" points="2486,-2084 2486,-2090 3278,-2090 3278,-2084 2486,-2084"/>
<polygon fill="none" stroke="black" points="2486,-1983 2486,-2084 3278,-2084 3278,-1983 2486,-1983"/>
<text text-anchor="start" x="2491" y="-2067.8" font-family="Times,serif" font-size="14.00">+ __construct(env : string = «unknown»)</text>
<text text-anchor="start" x="2491" y="-2048.8" font-family="Times,serif" font-size="14.00">+ getResolver() : Symfony\Component\Config\Loader\LoaderResolverInterface</text>
<text text-anchor="start" x="2491" y="-2029.8" font-family="Times,serif" font-size="14.00">+ setResolver(resolver : Symfony\Component\Config\Loader\LoaderResolverInterface)</text>
<text text-anchor="start" x="2491" y="-2010.8" font-family="Times,serif" font-size="14.00">+ import(resource : mixed, type : string = «unknown»)</text>
<text text-anchor="start" x="2491" y="-1991.8" font-family="Times,serif" font-size="14.00">+ resolve(resource : mixed, type : string = «unknown») : Symfony\Component\Config\Loader\LoaderInterface</text>
</g>
<!-- Symfony\\Component\\Config\\Loader\\FileLoader&#45;&gt;Symfony\\Component\\Config\\Loader\\Loader -->
<g id="edge8" class="edge">
<title>Symfony\\Component\\Config\\Loader\\FileLoader&#45;&gt;Symfony\\Component\\Config\\Loader\\Loader</title>
<path fill="none" stroke="black" d="M2397.81,-2054C2421.28,-2054 2444.64,-2054 2467.71,-2054"/>
<polygon fill="none" stroke="black" points="2467.93,-2057.5 2477.93,-2054 2467.93,-2050.5 2467.93,-2057.5"/>
</g>
<!-- Symfony\\Component\\Config\\Loader\\LoaderInterface -->
<g id="node16" class="node">
<title>Symfony\\Component\\Config\\Loader\\LoaderInterface</title>
<polygon fill="#fefece" stroke="transparent" points="4045,-2119 3322,-2119 3322,-1989 4045,-1989 4045,-2119"/>
<polygon fill="#eeeeee" stroke="transparent" points="3330.5,-2081 3330.5,-2115 4037.5,-2115 4037.5,-2081 3330.5,-2081"/>
<polygon fill="none" stroke="black" points="3330.5,-2081 3330.5,-2115 4037.5,-2115 4037.5,-2081 3330.5,-2081"/>
<text text-anchor="start" x="3639" y="-2101.8" font-family="Times,serif" font-weight="bold" font-size="14.00">«interface»</text>
<text text-anchor="start" x="3620.5" y="-2087.8" font-family="Times,serif" font-weight="bold" font-size="14.00">LoaderInterface</text>
<polygon fill="none" stroke="black" points="3330.5,-2075 3330.5,-2081 4037.5,-2081 4037.5,-2075 3330.5,-2075"/>
<polygon fill="none" stroke="black" points="3330.5,-1993 3330.5,-2075 4037.5,-2075 4037.5,-1993 3330.5,-1993"/>
<text text-anchor="start" x="3335.5" y="-2058.8" font-family="Times,serif" font-size="14.00">+ «abstract» load(resource : mixed, type : string = «unknown»)</text>
<text text-anchor="start" x="3335.5" y="-2039.8" font-family="Times,serif" font-size="14.00">+ «abstract» supports(resource : mixed, type : string = «unknown»)</text>
<text text-anchor="start" x="3335.5" y="-2020.8" font-family="Times,serif" font-size="14.00">+ «abstract» getResolver()</text>
<text text-anchor="start" x="3335.5" y="-2001.8" font-family="Times,serif" font-size="14.00">+ «abstract» setResolver(resolver : Symfony\Component\Config\Loader\LoaderResolverInterface)</text>
</g>
<!-- Symfony\\Component\\Config\\Loader\\Loader&#45;&gt;Symfony\\Component\\Config\\Loader\\LoaderInterface -->
<g id="edge7" class="edge">
<title>Symfony\\Component\\Config\\Loader\\Loader&#45;&gt;Symfony\\Component\\Config\\Loader\\LoaderInterface</title>
<path fill="none" stroke="black" stroke-dasharray="5,2" d="M3286.26,-2054C3294.68,-2054 3303.09,-2054 3311.49,-2054"/>
<polygon fill="none" stroke="black" points="3311.72,-2057.5 3321.72,-2054 3311.72,-2050.5 3311.72,-2057.5"/>
</g>
</g>
</svg>
