<?xml version="1.0" encoding="UTF-8" standalone="no"?>
<!DOCTYPE svg PUBLIC "-//W3C//DTD SVG 1.1//EN"
 "http://www.w3.org/Graphics/SVG/1.1/DTD/svg11.dtd">
<!-- Generated by graphviz version 2.43.0 (0)
 -->
<!-- Title: %3 Pages: 1 -->
<svg width="6412pt" height="1411pt"
 viewBox="0.00 0.00 6412.00 1411.00" xmlns="http://www.w3.org/2000/svg" xmlns:xlink="http://www.w3.org/1999/xlink">
<g id="graph0" class="graph" transform="scale(1 1) rotate(0) translate(4 1407)">
<title>%3</title>
<g id="clust1" class="cluster">
<title>cluster_0</title>
<polygon fill="transparent" stroke="black" points="8,-202.5 8,-1344.5 804,-1344.5 804,-202.5 8,-202.5"/>
<text text-anchor="middle" x="406" y="-1329.3" font-family="Times,serif" font-size="14.00">Bartlett\UmlWriter\Generator</text>
</g>
<g id="clust2" class="cluster">
<title>cluster_1</title>
<polygon fill="transparent" stroke="black" points="812,-1194.5 812,-1382.5 2794,-1382.5 2794,-1194.5 812,-1194.5"/>
<text text-anchor="middle" x="1803" y="-1367.3" font-family="Times,serif" font-size="14.00">Bartlett\UmlWriter\Service</text>
</g>
<g id="clust3" class="cluster">
<title>cluster_2</title>
<polygon fill="transparent" stroke="black" points="829,-701 829,-832 1117,-832 1117,-701 829,-701"/>
<text text-anchor="middle" x="973" y="-816.8" font-family="Times,serif" font-size="14.00">Psr\Container</text>
</g>
<g id="clust4" class="cluster">
<title>cluster_3</title>
<polygon fill="transparent" stroke="black" points="2802,-1182 2802,-1395 3998,-1395 3998,-1182 2802,-1182"/>
<text text-anchor="middle" x="3400" y="-1379.8" font-family="Times,serif" font-size="14.00">Bartlett\UmlWriter\Console</text>
</g>
<g id="clust5" class="cluster">
<title>cluster_4</title>
<polygon fill="transparent" stroke="black" points="2786,-359 2786,-1174 4014,-1174 4014,-359 2786,-359"/>
<text text-anchor="middle" x="3400" y="-1158.8" font-family="Times,serif" font-size="14.00">Symfony\Component\Console</text>
</g>
<g id="clust6" class="cluster">
<title>cluster_5</title>
<polygon fill="transparent" stroke="black" points="3295,-212 3295,-324 3506,-324 3506,-212 3295,-212"/>
<text text-anchor="middle" x="3400.5" y="-308.8" font-family="Times,serif" font-size="14.00">Symfony\Contracts\Service</text>
</g>
<g id="clust7" class="cluster">
<title>cluster_6</title>
<polygon fill="transparent" stroke="black" points="4062,-1220 4062,-1357 5210,-1357 5210,-1220 4062,-1220"/>
<text text-anchor="middle" x="4636" y="-1341.8" font-family="Times,serif" font-size="14.00">Bartlett\UmlWriter\Console\Command</text>
</g>
<g id="clust8" class="cluster">
<title>cluster_7</title>
<polygon fill="transparent" stroke="black" points="4022,-365.5 4022,-1167.5 5250,-1167.5 5250,-365.5 4022,-365.5"/>
<text text-anchor="middle" x="4636" y="-1152.3" font-family="Times,serif" font-size="14.00">Symfony\Component\Console\Command</text>
</g>
<g id="clust9" class="cluster">
<title>cluster_8</title>
<polygon fill="transparent" stroke="black" points="5586,-1223 5586,-1354 6068,-1354 6068,-1223 5586,-1223"/>
<text text-anchor="middle" x="5827" y="-1338.8" font-family="Times,serif" font-size="14.00">Bartlett\UmlWriter\Config\Loader</text>
</g>
<g id="clust10" class="cluster">
<title>cluster_9</title>
<polygon fill="transparent" stroke="black" points="5258,-8 5258,-851 6396,-851 6396,-8 5258,-8"/>
<text text-anchor="middle" x="5827" y="-835.8" font-family="Times,serif" font-size="14.00">Symfony\Component\Config\Loader</text>
</g>
<!-- Bartlett\\UmlWriter\\Generator\\GeneratorFactory -->
<g id="node1" class="node">
<title>Bartlett\\UmlWriter\\Generator\\GeneratorFactory</title>
<polygon fill="#fefece" stroke="transparent" points="664.5,-1313.5 147.5,-1313.5 147.5,-1240.5 664.5,-1240.5 664.5,-1313.5"/>
<polygon fill="#eeeeee" stroke="transparent" points="156,-1275 156,-1309 657,-1309 657,-1275 156,-1275"/>
<polygon fill="none" stroke="black" points="156,-1275 156,-1309 657,-1309 657,-1275 156,-1275"/>
<text text-anchor="start" x="337" y="-1281.8" font-family="Times,serif" font-weight="bold" font-size="14.00">GeneratorFactory</text>
<polygon fill="none" stroke="black" points="156,-1269 156,-1275 657,-1275 657,-1269 156,-1269"/>
<polygon fill="none" stroke="black" points="156,-1244 156,-1269 657,-1269 657,-1244 156,-1244"/>
<text text-anchor="start" x="161" y="-1252.8" font-family="Times,serif" font-size="14.00">+ getGenerator() : Bartlett\GraphUml\Generator\GeneratorInterface</text>
</g>
<!-- Bartlett\\UmlWriter\\Generator\\AbstractGeneratorFactory -->
<g id="node2" class="node">
<title>Bartlett\\UmlWriter\\Generator\\AbstractGeneratorFactory</title>
<polygon fill="#fefece" stroke="transparent" points="755.5,-810.5 56.5,-810.5 56.5,-699.5 755.5,-699.5 755.5,-810.5"/>
<polygon fill="#eeeeee" stroke="transparent" points="65,-772 65,-806 748,-806 748,-772 65,-772"/>
<polygon fill="none" stroke="black" points="65,-772 65,-806 748,-806 748,-772 65,-772"/>
<text text-anchor="start" x="364.5" y="-792.8" font-family="Times,serif" font-weight="bold" font-size="14.00">«abstract»</text>
<text text-anchor="start" x="304" y="-778.8" font-family="Times,serif" font-weight="bold" font-size="14.00">AbstractGeneratorFactory</text>
<polygon fill="none" stroke="black" points="65,-766 65,-772 748,-772 748,-766 65,-766"/>
<polygon fill="none" stroke="black" points="65,-703 65,-766 748,-766 748,-703 65,-703"/>
<text text-anchor="start" x="70" y="-749.8" font-family="Times,serif" font-size="14.00">+ __construct(generator : string = &#39;&#39;)</text>
<text text-anchor="start" x="70" y="-730.8" font-family="Times,serif" font-size="14.00">+ createInstance(provider : string) : Bartlett\UmlWriter\Generator\GeneratorFactoryInterface</text>
<text text-anchor="start" x="70" y="-711.8" font-family="Times,serif" font-size="14.00">+ «abstract» getGenerator() : Bartlett\GraphUml\Generator\GeneratorInterface</text>
</g>
<!-- Bartlett\\UmlWriter\\Generator\\GeneratorFactory&#45;&gt;Bartlett\\UmlWriter\\Generator\\AbstractGeneratorFactory -->
<g id="edge2" class="edge">
<title>Bartlett\\UmlWriter\\Generator\\GeneratorFactory&#45;&gt;Bartlett\\UmlWriter\\Generator\\AbstractGeneratorFactory</title>
<path fill="none" stroke="black" d="M406,-1240.26C406,-1153.59 406,-931.25 406,-820.58"/>
<polygon fill="none" stroke="black" points="409.5,-820.55 406,-810.55 402.5,-820.55 409.5,-820.55"/>
</g>
<!-- Bartlett\\UmlWriter\\Generator\\GeneratorFactoryInterface -->
<g id="node3" class="node">
<title>Bartlett\\UmlWriter\\Generator\\GeneratorFactoryInterface</title>
<polygon fill="#fefece" stroke="transparent" points="796,-302.5 16,-302.5 16,-210.5 796,-210.5 796,-302.5"/>
<polygon fill="#eeeeee" stroke="transparent" points="24,-264.5 24,-298.5 788,-298.5 788,-264.5 24,-264.5"/>
<polygon fill="none" stroke="black" points="24,-264.5 24,-298.5 788,-298.5 788,-264.5 24,-264.5"/>
<text text-anchor="start" x="361" y="-285.3" font-family="Times,serif" font-weight="bold" font-size="14.00">«interface»</text>
<text text-anchor="start" x="300.5" y="-271.3" font-family="Times,serif" font-weight="bold" font-size="14.00">GeneratorFactoryInterface</text>
<polygon fill="none" stroke="black" points="24,-258.5 24,-264.5 788,-264.5 788,-258.5 24,-258.5"/>
<polygon fill="none" stroke="black" points="24,-214.5 24,-258.5 788,-258.5 788,-214.5 24,-214.5"/>
<text text-anchor="start" x="29" y="-242.3" font-family="Times,serif" font-size="14.00">+ «abstract» createInstance(provider : string) : Bartlett\UmlWriter\Generator\GeneratorFactoryInterface</text>
<text text-anchor="start" x="29" y="-223.3" font-family="Times,serif" font-size="14.00">+ «abstract» getGenerator() : Bartlett\GraphUml\Generator\GeneratorInterface</text>
</g>
<!-- Bartlett\\UmlWriter\\Generator\\AbstractGeneratorFactory&#45;&gt;Bartlett\\UmlWriter\\Generator\\GeneratorFactoryInterface -->
<g id="edge1" class="edge">
<title>Bartlett\\UmlWriter\\Generator\\AbstractGeneratorFactory&#45;&gt;Bartlett\\UmlWriter\\Generator\\GeneratorFactoryInterface</title>
<path fill="none" stroke="black" stroke-dasharray="5,2" d="M406,-699.45C406,-604.17 406,-408.49 406,-312.74"/>
<polygon fill="none" stroke="black" points="409.5,-312.68 406,-302.68 402.5,-312.68 409.5,-312.68"/>
</g>
<!-- Bartlett\\UmlWriter\\Service\\ConfigurationHandler -->
<g id="node4" class="node">
<title>Bartlett\\UmlWriter\\Service\\ConfigurationHandler</title>
<polygon fill="#fefece" stroke="transparent" points="2785.5,-1351.5 2260.5,-1351.5 2260.5,-1202.5 2785.5,-1202.5 2785.5,-1351.5"/>
<polygon fill="#eeeeee" stroke="transparent" points="2269,-1313 2269,-1347 2778,-1347 2778,-1313 2269,-1313"/>
<polygon fill="none" stroke="black" points="2269,-1313 2269,-1347 2778,-1347 2778,-1313 2269,-1313"/>
<text text-anchor="start" x="2436" y="-1319.8" font-family="Times,serif" font-weight="bold" font-size="14.00">ConfigurationHandler</text>
<polygon fill="none" stroke="black" points="2269,-1307 2269,-1313 2778,-1313 2778,-1307 2269,-1307"/>
<polygon fill="none" stroke="black" points="2269,-1206 2269,-1307 2778,-1307 2778,-1206 2269,-1206"/>
<text text-anchor="start" x="2274" y="-1290.8" font-family="Times,serif" font-size="14.00">+ __construct(filename : string)</text>
<text text-anchor="start" x="2274" y="-1271.8" font-family="Times,serif" font-size="14.00">+ filename() : ?string</text>
<text text-anchor="start" x="2274" y="-1252.8" font-family="Times,serif" font-size="14.00">+ toArray() : array</text>
<text text-anchor="start" x="2274" y="-1233.8" font-family="Times,serif" font-size="14.00">+ toFlat() : array</text>
<text text-anchor="start" x="2274" y="-1214.8" font-family="Times,serif" font-size="14.00">+ getValueByKey(key : string, default : mixed = «unknown») : ?mixed</text>
</g>
<!-- Bartlett\\UmlWriter\\Service\\ClassDiagramRenderer -->
<g id="node5" class="node">
<title>Bartlett\\UmlWriter\\Service\\ClassDiagramRenderer</title>
<polygon fill="#fefece" stroke="transparent" points="2242,-1332.5 1144,-1332.5 1144,-1221.5 2242,-1221.5 2242,-1332.5"/>
<polygon fill="#eeeeee" stroke="transparent" points="1152,-1294 1152,-1328 2234,-1328 2234,-1294 1152,-1294"/>
<polygon fill="none" stroke="black" points="1152,-1294 1152,-1328 2234,-1328 2234,-1294 1152,-1294"/>
<text text-anchor="start" x="1601" y="-1300.8" font-family="Times,serif" font-weight="bold" font-size="14.00">ClassDiagramRenderer</text>
<polygon fill="none" stroke="black" points="1152,-1288 1152,-1294 2234,-1294 2234,-1288 1152,-1288"/>
<polygon fill="none" stroke="black" points="1152,-1225 1152,-1288 2234,-1288 2234,-1225 1152,-1225"/>
<text text-anchor="start" x="1157" y="-1271.8" font-family="Times,serif" font-size="14.00">+ __invoke(finder : Symfony\Component\Finder\Finder, generator : Bartlett\GraphUml\Generator\GeneratorInterface, parameters : array = []) : string</text>
<text text-anchor="start" x="1157" y="-1252.8" font-family="Times,serif" font-size="14.00">+ getMetadata() : array</text>
<text text-anchor="start" x="1157" y="-1233.8" font-family="Times,serif" font-size="14.00">+ getGraph() : Graphp\Graph\Graph</text>
</g>
<!-- Bartlett\\UmlWriter\\Service\\ContainerService -->
<g id="node6" class="node">
<title>Bartlett\\UmlWriter\\Service\\ContainerService</title>
<polygon fill="#fefece" stroke="transparent" points="1126,-1342 820,-1342 820,-1212 1126,-1212 1126,-1342"/>
<polygon fill="#eeeeee" stroke="transparent" points="828,-1304 828,-1338 1118,-1338 1118,-1304 828,-1304"/>
<polygon fill="none" stroke="black" points="828,-1304 828,-1338 1118,-1338 1118,-1304 828,-1304"/>
<text text-anchor="start" x="905" y="-1310.8" font-family="Times,serif" font-weight="bold" font-size="14.00">ContainerService</text>
<polygon fill="none" stroke="black" points="828,-1298 828,-1304 1118,-1304 1118,-1298 828,-1298"/>
<polygon fill="none" stroke="black" points="828,-1216 828,-1298 1118,-1298 1118,-1216 828,-1216"/>
<text text-anchor="start" x="833" y="-1281.8" font-family="Times,serif" font-size="14.00">+ __construct()</text>
<text text-anchor="start" x="833" y="-1262.8" font-family="Times,serif" font-size="14.00">+ set(id : string, service : mixed) : void</text>
<text text-anchor="start" x="833" y="-1243.8" font-family="Times,serif" font-size="14.00">+ get(id : string) : ?mixed</text>
<text text-anchor="start" x="833" y="-1224.8" font-family="Times,serif" font-size="14.00">+ has(id : string) : bool</text>
</g>
<!-- Psr\\Container\\ContainerInterface -->
<g id="node7" class="node">
<title>Psr\\Container\\ContainerInterface</title>
<polygon fill="#fefece" stroke="transparent" points="1109,-801 837,-801 837,-709 1109,-709 1109,-801"/>
<polygon fill="#eeeeee" stroke="transparent" points="845,-763 845,-797 1101,-797 1101,-763 845,-763"/>
<polygon fill="none" stroke="black" points="845,-763 845,-797 1101,-797 1101,-763 845,-763"/>
<text text-anchor="start" x="928" y="-783.8" font-family="Times,serif" font-weight="bold" font-size="14.00">«interface»</text>
<text text-anchor="start" x="897" y="-769.8" font-family="Times,serif" font-weight="bold" font-size="14.00">ContainerInterface</text>
<polygon fill="none" stroke="black" points="845,-757 845,-763 1101,-763 1101,-757 845,-757"/>
<polygon fill="none" stroke="black" points="845,-713 845,-757 1101,-757 1101,-713 845,-713"/>
<text text-anchor="start" x="850" y="-740.8" font-family="Times,serif" font-size="14.00">+ «abstract» get(id : string)</text>
<text text-anchor="start" x="850" y="-721.8" font-family="Times,serif" font-size="14.00">+ «abstract» has(id : string) : bool</text>
</g>
<!-- Bartlett\\UmlWriter\\Service\\ContainerService&#45;&gt;Psr\\Container\\ContainerInterface -->
<g id="edge3" class="edge">
<title>Bartlett\\UmlWriter\\Service\\ContainerService&#45;&gt;Psr\\Container\\ContainerInterface</title>
<path fill="none" stroke="black" stroke-dasharray="5,2" d="M973,-1211.98C973,-1109.04 973,-908.48 973,-811.35"/>
<polygon fill="none" stroke="black" points="976.5,-811.16 973,-801.16 969.5,-811.16 976.5,-811.16"/>
</g>
<!-- Bartlett\\UmlWriter\\Console\\Application -->
<g id="node8" class="node">
<title>Bartlett\\UmlWriter\\Console\\Application</title>
<polygon fill="#fefece" stroke="transparent" points="3989.5,-1364 2810.5,-1364 2810.5,-1190 3989.5,-1190 3989.5,-1364"/>
<polygon fill="#eeeeee" stroke="transparent" points="2819,-1326 2819,-1360 3982,-1360 3982,-1326 2819,-1326"/>
<polygon fill="none" stroke="black" points="2819,-1326 2819,-1360 3982,-1360 3982,-1326 2819,-1326"/>
<text text-anchor="start" x="3355.5" y="-1332.8" font-family="Times,serif" font-weight="bold" font-size="14.00">Application</text>
<polygon fill="none" stroke="black" points="2819,-1301 2819,-1326 3982,-1326 3982,-1301 2819,-1301"/>
<text text-anchor="start" x="2824" y="-1309.8" font-family="Times,serif" font-size="14.00">+ «static» NAME : string = &quot;umlWriter&quot; {readOnly}</text>
<polygon fill="none" stroke="black" points="2819,-1295 2819,-1301 3982,-1301 3982,-1295 2819,-1295"/>
<polygon fill="none" stroke="black" points="2819,-1194 2819,-1295 3982,-1295 3982,-1194 2819,-1194"/>
<text text-anchor="start" x="2824" y="-1278.8" font-family="Times,serif" font-size="14.00">+ __construct(container : Psr\Container\ContainerInterface)</text>
<text text-anchor="start" x="2824" y="-1259.8" font-family="Times,serif" font-size="14.00">+ getHelp() : string</text>
<text text-anchor="start" x="2824" y="-1240.8" font-family="Times,serif" font-size="14.00">+ getLongVersion() : string</text>
<text text-anchor="start" x="2824" y="-1221.8" font-family="Times,serif" font-size="14.00">+ doRun(input : Symfony\Component\Console\Input\InputInterface, output : Symfony\Component\Console\Output\OutputInterface) : int</text>
<text text-anchor="start" x="2824" y="-1202.8" font-family="Times,serif" font-size="14.00">+ run(input : Symfony\Component\Console\Input\InputInterface = «unknown», output : Symfony\Component\Console\Output\OutputInterface = «unknown») : int</text>
</g>
<!-- Symfony\\Component\\Console\\Application -->
<g id="node9" class="node">
<title>Symfony\\Component\\Console\\Application</title>
<polygon fill="#fefece" stroke="transparent" points="4005.5,-1143 2794.5,-1143 2794.5,-367 4005.5,-367 4005.5,-1143"/>
<polygon fill="#eeeeee" stroke="transparent" points="2803,-1105 2803,-1139 3998,-1139 3998,-1105 2803,-1105"/>
<polygon fill="none" stroke="black" points="2803,-1105 2803,-1139 3998,-1139 3998,-1105 2803,-1105"/>
<text text-anchor="start" x="3355.5" y="-1111.8" font-family="Times,serif" font-weight="bold" font-size="14.00">Application</text>
<polygon fill="none" stroke="black" points="2803,-1099 2803,-1105 3998,-1105 3998,-1099 2803,-1099"/>
<polygon fill="none" stroke="black" points="2803,-371 2803,-1099 3998,-1099 3998,-371 2803,-371"/>
<text text-anchor="start" x="2808" y="-1082.8" font-family="Times,serif" font-size="14.00">+ __construct(name : string = &#39;UNKNOWN&#39;, version : string = &#39;UNKNOWN&#39;)</text>
<text text-anchor="start" x="2808" y="-1063.8" font-family="Times,serif" font-size="14.00">+ setDispatcher(dispatcher : Symfony\Contracts\EventDispatcher\EventDispatcherInterface) : void</text>
<text text-anchor="start" x="2808" y="-1044.8" font-family="Times,serif" font-size="14.00">+ setCommandLoader(commandLoader : Symfony\Component\Console\CommandLoader\CommandLoaderInterface)</text>
<text text-anchor="start" x="2808" y="-1025.8" font-family="Times,serif" font-size="14.00">+ getSignalRegistry() : Symfony\Component\Console\SignalRegistry\SignalRegistry</text>
<text text-anchor="start" x="2808" y="-1006.8" font-family="Times,serif" font-size="14.00">+ setSignalsToDispatchEvent(signalsToDispatchEvent : int = «unknown»)</text>
<text text-anchor="start" x="2808" y="-987.8" font-family="Times,serif" font-size="14.00">+ run(input : Symfony\Component\Console\Input\InputInterface = «unknown», output : Symfony\Component\Console\Output\OutputInterface = «unknown») : int</text>
<text text-anchor="start" x="2808" y="-968.8" font-family="Times,serif" font-size="14.00">+ doRun(input : Symfony\Component\Console\Input\InputInterface, output : Symfony\Component\Console\Output\OutputInterface)</text>
<text text-anchor="start" x="2808" y="-949.8" font-family="Times,serif" font-size="14.00">+ reset()</text>
<text text-anchor="start" x="2808" y="-930.8" font-family="Times,serif" font-size="14.00">+ setHelperSet(helperSet : Symfony\Component\Console\Helper\HelperSet)</text>
<text text-anchor="start" x="2808" y="-911.8" font-family="Times,serif" font-size="14.00">+ getHelperSet() : Symfony\Component\Console\Helper\HelperSet</text>
<text text-anchor="start" x="2808" y="-892.8" font-family="Times,serif" font-size="14.00">+ setDefinition(definition : Symfony\Component\Console\Input\InputDefinition)</text>
<text text-anchor="start" x="2808" y="-873.8" font-family="Times,serif" font-size="14.00">+ getDefinition() : Symfony\Component\Console\Input\InputDefinition</text>
<text text-anchor="start" x="2808" y="-854.8" font-family="Times,serif" font-size="14.00">+ complete(input : Symfony\Component\Console\Completion\CompletionInput, suggestions : Symfony\Component\Console\Completion\CompletionSuggestions) : void</text>
<text text-anchor="start" x="2808" y="-835.8" font-family="Times,serif" font-size="14.00">+ getHelp() : string</text>
<text text-anchor="start" x="2808" y="-816.8" font-family="Times,serif" font-size="14.00">+ areExceptionsCaught() : bool</text>
<text text-anchor="start" x="2808" y="-797.8" font-family="Times,serif" font-size="14.00">+ setCatchExceptions(boolean : bool)</text>
<text text-anchor="start" x="2808" y="-778.8" font-family="Times,serif" font-size="14.00">+ setCatchErrors(catchErrors : bool = true) : void</text>
<text text-anchor="start" x="2808" y="-759.8" font-family="Times,serif" font-size="14.00">+ isAutoExitEnabled() : bool</text>
<text text-anchor="start" x="2808" y="-740.8" font-family="Times,serif" font-size="14.00">+ setAutoExit(boolean : bool)</text>
<text text-anchor="start" x="2808" y="-721.8" font-family="Times,serif" font-size="14.00">+ getName() : string</text>
<text text-anchor="start" x="2808" y="-702.8" font-family="Times,serif" font-size="14.00">+ setName(name : string)</text>
<text text-anchor="start" x="2808" y="-683.8" font-family="Times,serif" font-size="14.00">+ getVersion() : string</text>
<text text-anchor="start" x="2808" y="-664.8" font-family="Times,serif" font-size="14.00">+ setVersion(version : string)</text>
<text text-anchor="start" x="2808" y="-645.8" font-family="Times,serif" font-size="14.00">+ getLongVersion()</text>
<text text-anchor="start" x="2808" y="-626.8" font-family="Times,serif" font-size="14.00">+ register(name : string) : Symfony\Component\Console\Command\Command</text>
<text text-anchor="start" x="2808" y="-607.8" font-family="Times,serif" font-size="14.00">+ addCommands(commands : array)</text>
<text text-anchor="start" x="2808" y="-588.8" font-family="Times,serif" font-size="14.00">+ add(command : Symfony\Component\Console\Command\Command)</text>
<text text-anchor="start" x="2808" y="-569.8" font-family="Times,serif" font-size="14.00">+ get(name : string)</text>
<text text-anchor="start" x="2808" y="-550.8" font-family="Times,serif" font-size="14.00">+ has(name : string) : bool</text>
<text text-anchor="start" x="2808" y="-531.8" font-family="Times,serif" font-size="14.00">+ getNamespaces() : array</text>
<text text-anchor="start" x="2808" y="-512.8" font-family="Times,serif" font-size="14.00">+ findNamespace(namespace : string) : string</text>
<text text-anchor="start" x="2808" y="-493.8" font-family="Times,serif" font-size="14.00">+ find(name : string)</text>
<text text-anchor="start" x="2808" y="-474.8" font-family="Times,serif" font-size="14.00">+ all(namespace : string = «unknown»)</text>
<text text-anchor="start" x="2808" y="-455.8" font-family="Times,serif" font-size="14.00">+ «static» getAbbreviations(names : array) : array</text>
<text text-anchor="start" x="2808" y="-436.8" font-family="Times,serif" font-size="14.00">+ renderThrowable(e : Throwable, output : Symfony\Component\Console\Output\OutputInterface) : void</text>
<text text-anchor="start" x="2808" y="-417.8" font-family="Times,serif" font-size="14.00">+ extractNamespace(name : string, limit : int = «unknown») : string</text>
<text text-anchor="start" x="2808" y="-398.8" font-family="Times,serif" font-size="14.00">+ setDefaultCommand(commandName : string, isSingleCommand : bool = false) : static</text>
<text text-anchor="start" x="2808" y="-379.8" font-family="Times,serif" font-size="14.00">+ isSingleCommand() : bool</text>
</g>
<!-- Bartlett\\UmlWriter\\Console\\Application&#45;&gt;Symfony\\Component\\Console\\Application -->
<g id="edge5" class="edge">
<title>Bartlett\\UmlWriter\\Console\\Application&#45;&gt;Symfony\\Component\\Console\\Application</title>
<path fill="none" stroke="black" d="M3400,-1189.84C3400,-1178.57 3400,-1166.49 3400,-1153.79"/>
<polygon fill="none" stroke="black" points="3403.5,-1153.48 3400,-1143.48 3396.5,-1153.48 3403.5,-1153.48"/>
</g>
<!-- Symfony\\Contracts\\Service\\ResetInterface -->
<g id="node10" class="node">
<title>Symfony\\Contracts\\Service\\ResetInterface</title>
<polygon fill="#fefece" stroke="transparent" points="3485.5,-293 3314.5,-293 3314.5,-220 3485.5,-220 3485.5,-293"/>
<polygon fill="#eeeeee" stroke="transparent" points="3323,-254.5 3323,-288.5 3478,-288.5 3478,-254.5 3323,-254.5"/>
<polygon fill="none" stroke="black" points="3323,-254.5 3323,-288.5 3478,-288.5 3478,-254.5 3323,-254.5"/>
<text text-anchor="start" x="3355.5" y="-275.3" font-family="Times,serif" font-weight="bold" font-size="14.00">«interface»</text>
<text text-anchor="start" x="3341.5" y="-261.3" font-family="Times,serif" font-weight="bold" font-size="14.00">ResetInterface</text>
<polygon fill="none" stroke="black" points="3323,-248.5 3323,-254.5 3478,-254.5 3478,-248.5 3323,-248.5"/>
<polygon fill="none" stroke="black" points="3323,-223.5 3323,-248.5 3478,-248.5 3478,-223.5 3323,-223.5"/>
<text text-anchor="start" x="3328" y="-232.3" font-family="Times,serif" font-size="14.00">+ «abstract» reset()</text>
</g>
<!-- Symfony\\Component\\Console\\Application&#45;&gt;Symfony\\Contracts\\Service\\ResetInterface -->
<g id="edge4" class="edge">
<title>Symfony\\Component\\Console\\Application&#45;&gt;Symfony\\Contracts\\Service\\ResetInterface</title>
<path fill="none" stroke="black" stroke-dasharray="5,2" d="M3400,-366.77C3400,-342.69 3400,-321.19 3400,-303.76"/>
<polygon fill="none" stroke="black" points="3403.5,-303.44 3400,-293.44 3396.5,-303.44 3403.5,-303.44"/>
</g>
<!-- Bartlett\\UmlWriter\\Console\\Command\\ClassDiagramCommand -->
<g id="node11" class="node">
<title>Bartlett\\UmlWriter\\Console\\Command\\ClassDiagramCommand</title>
<polygon fill="#fefece" stroke="transparent" points="5201.5,-1326 4070.5,-1326 4070.5,-1228 5201.5,-1228 5201.5,-1326"/>
<polygon fill="#eeeeee" stroke="transparent" points="4079,-1288 4079,-1322 5194,-1322 5194,-1288 4079,-1288"/>
<polygon fill="none" stroke="black" points="4079,-1288 4079,-1322 5194,-1322 5194,-1288 4079,-1288"/>
<text text-anchor="start" x="4541.5" y="-1294.8" font-family="Times,serif" font-weight="bold" font-size="14.00">ClassDiagramCommand</text>
<polygon fill="none" stroke="black" points="4079,-1263 4079,-1288 5194,-1288 5194,-1263 4079,-1263"/>
<text text-anchor="start" x="4084" y="-1271.8" font-family="Times,serif" font-size="14.00">+ «static» NAME : string = &quot;diagram\:class&quot; {readOnly}</text>
<polygon fill="none" stroke="black" points="4079,-1257 4079,-1263 5194,-1263 5194,-1257 4079,-1257"/>
<polygon fill="none" stroke="black" points="4079,-1232 4079,-1257 5194,-1257 5194,-1232 4079,-1232"/>
<text text-anchor="start" x="4084" y="-1240.8" font-family="Times,serif" font-size="14.00">+ __construct(renderer : Bartlett\UmlWriter\Service\ClassDiagramRenderer, generatorFactory : Bartlett\UmlWriter\Generator\GeneratorFactoryInterface)</text>
</g>
<!-- Symfony\\Component\\Console\\Command\\Command -->
<g id="node12" class="node">
<title>Symfony\\Component\\Console\\Command\\Command</title>
<polygon fill="#fefece" stroke="transparent" points="5241.5,-1136.5 4030.5,-1136.5 4030.5,-373.5 5241.5,-373.5 5241.5,-1136.5"/>
<polygon fill="#eeeeee" stroke="transparent" points="4039,-1098 4039,-1132 5234,-1132 5234,-1098 4039,-1098"/>
<polygon fill="none" stroke="black" points="4039,-1098 4039,-1132 5234,-1132 5234,-1098 4039,-1098"/>
<text text-anchor="start" x="4596.5" y="-1104.8" font-family="Times,serif" font-weight="bold" font-size="14.00">Command</text>
<polygon fill="none" stroke="black" points="4039,-1035 4039,-1098 5234,-1098 5234,-1035 4039,-1035"/>
<text text-anchor="start" x="4044" y="-1081.8" font-family="Times,serif" font-size="14.00">+ «static» SUCCESS : int = 0 {readOnly}</text>
<text text-anchor="start" x="4044" y="-1062.8" font-family="Times,serif" font-size="14.00">+ «static» FAILURE : int = 1 {readOnly}</text>
<text text-anchor="start" x="4044" y="-1043.8" font-family="Times,serif" font-size="14.00">+ «static» INVALID : int = 2 {readOnly}</text>
<polygon fill="none" stroke="black" points="4039,-1029 4039,-1035 5234,-1035 5234,-1029 4039,-1029"/>
<polygon fill="none" stroke="black" points="4039,-377 4039,-1029 5234,-1029 5234,-377 4039,-377"/>
<text text-anchor="start" x="4044" y="-1012.8" font-family="Times,serif" font-size="14.00">+ «static» getDefaultName() : ?string</text>
<text text-anchor="start" x="4044" y="-993.8" font-family="Times,serif" font-size="14.00">+ «static» getDefaultDescription() : ?string</text>
<text text-anchor="start" x="4044" y="-974.8" font-family="Times,serif" font-size="14.00">+ __construct(name : string = «unknown»)</text>
<text text-anchor="start" x="4044" y="-955.8" font-family="Times,serif" font-size="14.00">+ ignoreValidationErrors()</text>
<text text-anchor="start" x="4044" y="-936.8" font-family="Times,serif" font-size="14.00">+ setApplication(application : Symfony\Component\Console\Application = «unknown»)</text>
<text text-anchor="start" x="4044" y="-917.8" font-family="Times,serif" font-size="14.00">+ setHelperSet(helperSet : Symfony\Component\Console\Helper\HelperSet)</text>
<text text-anchor="start" x="4044" y="-898.8" font-family="Times,serif" font-size="14.00">+ getHelperSet() : ?Symfony\Component\Console\Helper\HelperSet</text>
<text text-anchor="start" x="4044" y="-879.8" font-family="Times,serif" font-size="14.00">+ getApplication() : ?Symfony\Component\Console\Application</text>
<text text-anchor="start" x="4044" y="-860.8" font-family="Times,serif" font-size="14.00">+ isEnabled()</text>
<text text-anchor="start" x="4044" y="-841.8" font-family="Times,serif" font-size="14.00">+ run(input : Symfony\Component\Console\Input\InputInterface, output : Symfony\Component\Console\Output\OutputInterface) : int</text>
<text text-anchor="start" x="4044" y="-822.8" font-family="Times,serif" font-size="14.00">+ complete(input : Symfony\Component\Console\Completion\CompletionInput, suggestions : Symfony\Component\Console\Completion\CompletionSuggestions) : void</text>
<text text-anchor="start" x="4044" y="-803.8" font-family="Times,serif" font-size="14.00">+ setCode(code : callable) : static</text>
<text text-anchor="start" x="4044" y="-784.8" font-family="Times,serif" font-size="14.00">+ mergeApplicationDefinition(mergeArgs : bool = true) : void</text>
<text text-anchor="start" x="4044" y="-765.8" font-family="Times,serif" font-size="14.00">+ setDefinition(definition) : static</text>
<text text-anchor="start" x="4044" y="-746.8" font-family="Times,serif" font-size="14.00">+ getDefinition() : Symfony\Component\Console\Input\InputDefinition</text>
<text text-anchor="start" x="4044" y="-727.8" font-family="Times,serif" font-size="14.00">+ getNativeDefinition() : Symfony\Component\Console\Input\InputDefinition</text>
<text text-anchor="start" x="4044" y="-708.8" font-family="Times,serif" font-size="14.00">+ addArgument(name : string, mode : int = «unknown», description : string = &#39;&#39;, default : mixed = «unknown») : static</text>
<text text-anchor="start" x="4044" y="-689.8" font-family="Times,serif" font-size="14.00">+ addOption(name : string, shortcut = «unknown», mode : int = «unknown», description : string = &#39;&#39;, default : mixed = «unknown») : static</text>
<text text-anchor="start" x="4044" y="-670.8" font-family="Times,serif" font-size="14.00">+ setName(name : string) : static</text>
<text text-anchor="start" x="4044" y="-651.8" font-family="Times,serif" font-size="14.00">+ setProcessTitle(title : string) : static</text>
<text text-anchor="start" x="4044" y="-632.8" font-family="Times,serif" font-size="14.00">+ getName() : ?string</text>
<text text-anchor="start" x="4044" y="-613.8" font-family="Times,serif" font-size="14.00">+ setHidden(hidden : bool = true) : static</text>
<text text-anchor="start" x="4044" y="-594.8" font-family="Times,serif" font-size="14.00">+ isHidden() : bool</text>
<text text-anchor="start" x="4044" y="-575.8" font-family="Times,serif" font-size="14.00">+ setDescription(description : string) : static</text>
<text text-anchor="start" x="4044" y="-556.8" font-family="Times,serif" font-size="14.00">+ getDescription() : string</text>
<text text-anchor="start" x="4044" y="-537.8" font-family="Times,serif" font-size="14.00">+ setHelp(help : string) : static</text>
<text text-anchor="start" x="4044" y="-518.8" font-family="Times,serif" font-size="14.00">+ getHelp() : string</text>
<text text-anchor="start" x="4044" y="-499.8" font-family="Times,serif" font-size="14.00">+ getProcessedHelp() : string</text>
<text text-anchor="start" x="4044" y="-480.8" font-family="Times,serif" font-size="14.00">+ setAliases(aliases : iterable) : static</text>
<text text-anchor="start" x="4044" y="-461.8" font-family="Times,serif" font-size="14.00">+ getAliases() : array</text>
<text text-anchor="start" x="4044" y="-442.8" font-family="Times,serif" font-size="14.00">+ getSynopsis(short : bool = false) : string</text>
<text text-anchor="start" x="4044" y="-423.8" font-family="Times,serif" font-size="14.00">+ addUsage(usage : string) : static</text>
<text text-anchor="start" x="4044" y="-404.8" font-family="Times,serif" font-size="14.00">+ getUsages() : array</text>
<text text-anchor="start" x="4044" y="-385.8" font-family="Times,serif" font-size="14.00">+ getHelper(name : string) : ?mixed</text>
</g>
<!-- Bartlett\\UmlWriter\\Console\\Command\\ClassDiagramCommand&#45;&gt;Symfony\\Component\\Console\\Command\\Command -->
<g id="edge6" class="edge">
<title>Bartlett\\UmlWriter\\Console\\Command\\ClassDiagramCommand&#45;&gt;Symfony\\Component\\Console\\Command\\Command</title>
<path fill="none" stroke="black" d="M4636,-1227.55C4636,-1205.82 4636,-1178.05 4636,-1146.88"/>
<polygon fill="none" stroke="black" points="4639.5,-1146.65 4636,-1136.65 4632.5,-1146.65 4639.5,-1146.65"/>
</g>
<!-- Bartlett\\UmlWriter\\Config\\Loader\\YamlFileLoader -->
<g id="node13" class="node">
<title>Bartlett\\UmlWriter\\Config\\Loader\\YamlFileLoader</title>
<polygon fill="#fefece" stroke="transparent" points="6060,-1323 5594,-1323 5594,-1231 6060,-1231 6060,-1323"/>
<polygon fill="#eeeeee" stroke="transparent" points="5602,-1285 5602,-1319 6052,-1319 6052,-1285 5602,-1285"/>
<polygon fill="none" stroke="black" points="5602,-1285 5602,-1319 6052,-1319 6052,-1285 5602,-1285"/>
<text text-anchor="start" x="5766" y="-1291.8" font-family="Times,serif" font-weight="bold" font-size="14.00">YamlFileLoader</text>
<polygon fill="none" stroke="black" points="5602,-1279 5602,-1285 6052,-1285 6052,-1279 5602,-1279"/>
<polygon fill="none" stroke="black" points="5602,-1235 5602,-1279 6052,-1279 6052,-1235 5602,-1235"/>
<text text-anchor="start" x="5607" y="-1262.8" font-family="Times,serif" font-size="14.00">+ load(resource : mixed, type : string = «unknown») : ?mixed</text>
<text text-anchor="start" x="5607" y="-1243.8" font-family="Times,serif" font-size="14.00">+ supports(resource, type : string = «unknown») : bool</text>
</g>
<!-- Symfony\\Component\\Config\\Loader\\FileLoader -->
<g id="node14" class="node">
<title>Symfony\\Component\\Config\\Loader\\FileLoader</title>
<polygon fill="#fefece" stroke="transparent" points="6388,-820 5266,-820 5266,-690 6388,-690 6388,-820"/>
<polygon fill="#eeeeee" stroke="transparent" points="5274,-782 5274,-816 6380,-816 6380,-782 5274,-782"/>
<polygon fill="none" stroke="black" points="5274,-782 5274,-816 6380,-816 6380,-782 5274,-782"/>
<text text-anchor="start" x="5785" y="-802.8" font-family="Times,serif" font-weight="bold" font-size="14.00">«abstract»</text>
<text text-anchor="start" x="5785" y="-788.8" font-family="Times,serif" font-weight="bold" font-size="14.00">FileLoader</text>
<polygon fill="none" stroke="black" points="5274,-776 5274,-782 6380,-782 6380,-776 5274,-776"/>
<polygon fill="none" stroke="black" points="5274,-694 5274,-776 6380,-776 6380,-694 5274,-694"/>
<text text-anchor="start" x="5279" y="-759.8" font-family="Times,serif" font-size="14.00">+ __construct(locator : Symfony\Component\Config\FileLocatorInterface, env : string = «unknown»)</text>
<text text-anchor="start" x="5279" y="-740.8" font-family="Times,serif" font-size="14.00">+ setCurrentDir(dir : string)</text>
<text text-anchor="start" x="5279" y="-721.8" font-family="Times,serif" font-size="14.00">+ getLocator() : Symfony\Component\Config\FileLocatorInterface</text>
<text text-anchor="start" x="5279" y="-702.8" font-family="Times,serif" font-size="14.00">+ import(resource : mixed, type : string = «unknown», ignoreErrors : bool = false, sourceResource : string = «unknown», exclude : mixed = «unknown»)</text>
</g>
<!-- Bartlett\\UmlWriter\\Config\\Loader\\YamlFileLoader&#45;&gt;Symfony\\Component\\Config\\Loader\\FileLoader -->
<g id="edge9" class="edge">
<title>Bartlett\\UmlWriter\\Config\\Loader\\YamlFileLoader&#45;&gt;Symfony\\Component\\Config\\Loader\\FileLoader</title>
<path fill="none" stroke="black" d="M5827,-1230.76C5827,-1141.12 5827,-940.14 5827,-830.62"/>
<polygon fill="none" stroke="black" points="5830.5,-830.31 5827,-820.31 5823.5,-830.31 5830.5,-830.31"/>
</g>
<!-- Symfony\\Component\\Config\\Loader\\Loader -->
<g id="node15" class="node">
<title>Symfony\\Component\\Config\\Loader\\Loader</title>
<polygon fill="#fefece" stroke="transparent" points="6231,-331 5423,-331 5423,-182 6231,-182 6231,-331"/>
<polygon fill="#eeeeee" stroke="transparent" points="5431,-292.5 5431,-326.5 6223,-326.5 6223,-292.5 5431,-292.5"/>
<polygon fill="none" stroke="black" points="5431,-292.5 5431,-326.5 6223,-326.5 6223,-292.5 5431,-292.5"/>
<text text-anchor="start" x="5785" y="-313.3" font-family="Times,serif" font-weight="bold" font-size="14.00">«abstract»</text>
<text text-anchor="start" x="5799.5" y="-299.3" font-family="Times,serif" font-weight="bold" font-size="14.00">Loader</text>
<polygon fill="none" stroke="black" points="5431,-286.5 5431,-292.5 6223,-292.5 6223,-286.5 5431,-286.5"/>
<polygon fill="none" stroke="black" points="5431,-185.5 5431,-286.5 6223,-286.5 6223,-185.5 5431,-185.5"/>
<text text-anchor="start" x="5436" y="-270.3" font-family="Times,serif" font-size="14.00">+ __construct(env : string = «unknown»)</text>
<text text-anchor="start" x="5436" y="-251.3" font-family="Times,serif" font-size="14.00">+ getResolver() : Symfony\Component\Config\Loader\LoaderResolverInterface</text>
<text text-anchor="start" x="5436" y="-232.3" font-family="Times,serif" font-size="14.00">+ setResolver(resolver : Symfony\Component\Config\Loader\LoaderResolverInterface)</text>
<text text-anchor="start" x="5436" y="-213.3" font-family="Times,serif" font-size="14.00">+ import(resource : mixed, type : string = «unknown»)</text>
<text text-anchor="start" x="5436" y="-194.3" font-family="Times,serif" font-size="14.00">+ resolve(resource : mixed, type : string = «unknown») : Symfony\Component\Config\Loader\LoaderInterface</text>
</g>
<!-- Symfony\\Component\\Config\\Loader\\FileLoader&#45;&gt;Symfony\\Component\\Config\\Loader\\Loader -->
<g id="edge8" class="edge">
<title>Symfony\\Component\\Config\\Loader\\FileLoader&#45;&gt;Symfony\\Component\\Config\\Loader\\Loader</title>
<path fill="none" stroke="black" d="M5827,-689.85C5827,-600.86 5827,-439.8 5827,-341.37"/>
<polygon fill="none" stroke="black" points="5830.5,-341.16 5827,-331.16 5823.5,-341.16 5830.5,-341.16"/>
</g>
<!-- Symfony\\Component\\Config\\Loader\\LoaderInterface -->
<g id="node16" class="node">
<title>Symfony\\Component\\Config\\Loader\\LoaderInterface</title>
<polygon fill="#fefece" stroke="transparent" points="6188.5,-146 5465.5,-146 5465.5,-16 6188.5,-16 6188.5,-146"/>
<polygon fill="#eeeeee" stroke="transparent" points="5474,-108 5474,-142 6181,-142 6181,-108 5474,-108"/>
<polygon fill="none" stroke="black" points="5474,-108 5474,-142 6181,-142 6181,-108 5474,-108"/>
<text text-anchor="start" x="5782.5" y="-128.8" font-family="Times,serif" font-weight="bold" font-size="14.00">«interface»</text>
<text text-anchor="start" x="5764" y="-114.8" font-family="Times,serif" font-weight="bold" font-size="14.00">LoaderInterface</text>
<polygon fill="none" stroke="black" points="5474,-102 5474,-108 6181,-108 6181,-102 5474,-102"/>
<polygon fill="none" stroke="black" points="5474,-20 5474,-102 6181,-102 6181,-20 5474,-20"/>
<text text-anchor="start" x="5479" y="-85.8" font-family="Times,serif" font-size="14.00">+ «abstract» load(resource : mixed, type : string = «unknown»)</text>
<text text-anchor="start" x="5479" y="-66.8" font-family="Times,serif" font-size="14.00">+ «abstract» supports(resource : mixed, type : string = «unknown»)</text>
<text text-anchor="start" x="5479" y="-47.8" font-family="Times,serif" font-size="14.00">+ «abstract» getResolver()</text>
<text text-anchor="start" x="5479" y="-28.8" font-family="Times,serif" font-size="14.00">+ «abstract» setResolver(resolver : Symfony\Component\Config\Loader\LoaderResolverInterface)</text>
</g>
<!-- Symfony\\Component\\Config\\Loader\\Loader&#45;&gt;Symfony\\Component\\Config\\Loader\\LoaderInterface -->
<g id="edge7" class="edge">
<title>Symfony\\Component\\Config\\Loader\\Loader&#45;&gt;Symfony\\Component\\Config\\Loader\\LoaderInterface</title>
<path fill="none" stroke="black" stroke-dasharray="5,2" d="M5827,-181.92C5827,-173.45 5827,-164.81 5827,-156.33"/>
<polygon fill="none" stroke="black" points="5830.5,-156.09 5827,-146.09 5823.5,-156.09 5830.5,-156.09"/>
</g>
</g>
</svg>
