<?xml version="1.0" encoding="UTF-8" standalone="no"?>
<!DOCTYPE svg PUBLIC "-//W3C//DTD SVG 1.1//EN"
 "http://www.w3.org/Graphics/SVG/1.1/DTD/svg11.dtd">
<!-- Generated by graphviz version 2.43.0 (0)
 -->
<!-- Title: %3 Pages: 1 -->
<svg width="1462pt" height="332pt"
 viewBox="0.00 0.00 1462.00 332.00" xmlns="http://www.w3.org/2000/svg" xmlns:xlink="http://www.w3.org/1999/xlink">
<g id="graph0" class="graph" transform="scale(1 1) rotate(0) translate(4 328)">
<title>%3</title>
<g id="clust1" class="cluster">
<title>cluster_0</title>
<polygon fill="transparent" stroke="black" points="8,-147 8,-316 1446,-316 1446,-147 8,-147"/>
<text text-anchor="middle" x="727" y="-300.8" font-family="Times,serif" font-size="14.00">Bartlett\UmlWriter\Service</text>
</g>
<g id="clust2" class="cluster">
<title>cluster_1</title>
<polygon fill="transparent" stroke="black" points="25,-8 25,-139 313,-139 313,-8 25,-8"/>
<text text-anchor="middle" x="169" y="-123.8" font-family="Times,serif" font-size="14.00">Psr\Container</text>
</g>
<!-- Bartlett\\UmlWriter\\Service\\ClassDiagramRenderer -->
<g id="node1" class="node">
<title>Bartlett\\UmlWriter\\Service\\ClassDiagramRenderer</title>
<polygon fill="#fefece" stroke="transparent" points="1438,-275.5 340,-275.5 340,-164.5 1438,-164.5 1438,-275.5"/>
<polygon fill="#eeeeee" stroke="transparent" points="348,-237 348,-271 1430,-271 1430,-237 348,-237"/>
<polygon fill="none" stroke="black" points="348,-237 348,-271 1430,-271 1430,-237 348,-237"/>
<text text-anchor="start" x="797" y="-243.8" font-family="Times,serif" font-weight="bold" font-size="14.00">ClassDiagramRenderer</text>
<polygon fill="none" stroke="black" points="348,-231 348,-237 1430,-237 1430,-231 348,-231"/>
<polygon fill="none" stroke="black" points="348,-168 348,-231 1430,-231 1430,-168 348,-168"/>
<text text-anchor="start" x="353" y="-214.8" font-family="Times,serif" font-size="14.00">+ __invoke(finder : Symfony\Component\Finder\Finder, generator : Bartlett\GraphUml\Generator\GeneratorInterface, parameters : array = []) : string</text>
<text text-anchor="start" x="353" y="-195.8" font-family="Times,serif" font-size="14.00">+ getMetadata() : array</text>
<text text-anchor="start" x="353" y="-176.8" font-family="Times,serif" font-size="14.00">+ getGraph() : Graphp\Graph\Graph</text>
</g>
<!-- Bartlett\\UmlWriter\\Service\\ContainerService -->
<g id="node2" class="node">
<title>Bartlett\\UmlWriter\\Service\\ContainerService</title>
<polygon fill="#fefece" stroke="transparent" points="322,-285 16,-285 16,-155 322,-155 322,-285"/>
<polygon fill="#eeeeee" stroke="transparent" points="24,-247 24,-281 314,-281 314,-247 24,-247"/>
<polygon fill="none" stroke="black" points="24,-247 24,-281 314,-281 314,-247 24,-247"/>
<text text-anchor="start" x="101" y="-253.8" font-family="Times,serif" font-weight="bold" font-size="14.00">ContainerService</text>
<polygon fill="none" stroke="black" points="24,-241 24,-247 314,-247 314,-241 24,-241"/>
<polygon fill="none" stroke="black" points="24,-159 24,-241 314,-241 314,-159 24,-159"/>
<text text-anchor="start" x="29" y="-224.8" font-family="Times,serif" font-size="14.00">+ __construct()</text>
<text text-anchor="start" x="29" y="-205.8" font-family="Times,serif" font-size="14.00">+ set(id : string, service : mixed) : void</text>
<text text-anchor="start" x="29" y="-186.8" font-family="Times,serif" font-size="14.00">+ get(id : string) : ?mixed</text>
<text text-anchor="start" x="29" y="-167.8" font-family="Times,serif" font-size="14.00">+ has(id : string) : bool</text>
</g>
<!-- Psr\\Container\\ContainerInterface -->
<g id="node3" class="node">
<title>Psr\\Container\\ContainerInterface</title>
<polygon fill="#fefece" stroke="transparent" points="305,-108 33,-108 33,-16 305,-16 305,-108"/>
<polygon fill="#eeeeee" stroke="transparent" points="41,-70 41,-104 297,-104 297,-70 41,-70"/>
<polygon fill="none" stroke="black" points="41,-70 41,-104 297,-104 297,-70 41,-70"/>
<text text-anchor="start" x="124" y="-90.8" font-family="Times,serif" font-weight="bold" font-size="14.00">«interface»</text>
<text text-anchor="start" x="93" y="-76.8" font-family="Times,serif" font-weight="bold" font-size="14.00">ContainerInterface</text>
<polygon fill="none" stroke="black" points="41,-64 41,-70 297,-70 297,-64 41,-64"/>
<polygon fill="none" stroke="black" points="41,-20 41,-64 297,-64 297,-20 41,-20"/>
<text text-anchor="start" x="46" y="-47.8" font-family="Times,serif" font-size="14.00">+ «abstract» get(id : string)</text>
<text text-anchor="start" x="46" y="-28.8" font-family="Times,serif" font-size="14.00">+ «abstract» has(id : string) : bool</text>
</g>
<!-- Bartlett\\UmlWriter\\Service\\ContainerService&#45;&gt;Psr\\Container\\ContainerInterface -->
<g id="edge1" class="edge">
<title>Bartlett\\UmlWriter\\Service\\ContainerService&#45;&gt;Psr\\Container\\ContainerInterface</title>
<path fill="none" stroke="black" stroke-dasharray="5,2" d="M169,-154.65C169,-142.57 169,-130.05 169,-118.28"/>
<polygon fill="none" stroke="black" points="172.5,-118.16 169,-108.16 165.5,-118.16 172.5,-118.16"/>
</g>
</g>
</svg>
