<?xml version="1.0" encoding="UTF-8" standalone="no"?>
<!DOCTYPE svg PUBLIC "-//W3C//DTD SVG 1.1//EN"
 "http://www.w3.org/Graphics/SVG/1.1/DTD/svg11.dtd">
<!-- Generated by graphviz version 2.43.0 (0)
 -->
<!-- Title: %3 Pages: 1 -->
<svg width="2120pt" height="822pt"
 viewBox="0.00 0.00 2120.00 822.00" xmlns="http://www.w3.org/2000/svg" xmlns:xlink="http://www.w3.org/1999/xlink">
<g id="graph0" class="graph" transform="scale(1 1) rotate(0) translate(4 818)">
<title>%3</title>
<g id="clust1" class="cluster">
<title>cluster_0</title>
<polygon fill="transparent" stroke="black" points="348,-656 348,-806 1417,-806 1417,-656 348,-656"/>
<text text-anchor="middle" x="882.5" y="-790.8" font-family="Times,serif" font-size="14.00">Name\Space</text>
</g>
<g id="clust2" class="cluster">
<title>cluster_1</title>
<polygon fill="transparent" stroke="black" points="8,-8 8,-521.5 804,-521.5 804,-8 8,-8"/>
<text text-anchor="middle" x="406" y="-506.3" font-family="Times,serif" font-size="14.00">Bartlett\UmlWriter\Generator</text>
</g>
<g id="clust3" class="cluster">
<title>cluster_2</title>
<polygon fill="transparent" stroke="black" points="812,-283 812,-648 2104,-648 2104,-283 812,-283"/>
<text text-anchor="middle" x="1458" y="-632.8" font-family="Times,serif" font-size="14.00">Bartlett\GraphUml\Generator</text>
</g>
<!-- Name\\Space\\MyGeneratorFactory -->
<g id="node1" class="node">
<title>Name\\Space\\MyGeneratorFactory</title>
<polygon fill="#fefece" stroke="transparent" points="873.5,-756 356.5,-756 356.5,-683 873.5,-683 873.5,-756"/>
<polygon fill="#eeeeee" stroke="transparent" points="365,-717.5 365,-751.5 866,-751.5 866,-717.5 365,-717.5"/>
<polygon fill="none" stroke="black" points="365,-717.5 365,-751.5 866,-751.5 866,-717.5 365,-717.5"/>
<text text-anchor="start" x="534" y="-724.3" font-family="Times,serif" font-weight="bold" font-size="14.00">MyGeneratorFactory</text>
<polygon fill="none" stroke="black" points="365,-711.5 365,-717.5 866,-717.5 866,-711.5 365,-711.5"/>
<polygon fill="none" stroke="black" points="365,-686.5 365,-711.5 866,-711.5 866,-686.5 365,-686.5"/>
<text text-anchor="start" x="370" y="-695.3" font-family="Times,serif" font-size="14.00">+ getGenerator() : Bartlett\GraphUml\Generator\GeneratorInterface</text>
</g>
<!-- Bartlett\\UmlWriter\\Generator\\GeneratorFactory -->
<g id="node3" class="node">
<title>Bartlett\\UmlWriter\\Generator\\GeneratorFactory</title>
<polygon fill="#fefece" stroke="transparent" points="749.5,-490.5 232.5,-490.5 232.5,-417.5 749.5,-417.5 749.5,-490.5"/>
<polygon fill="#eeeeee" stroke="transparent" points="241,-452 241,-486 742,-486 742,-452 241,-452"/>
<polygon fill="none" stroke="black" points="241,-452 241,-486 742,-486 742,-452 241,-452"/>
<text text-anchor="start" x="422" y="-458.8" font-family="Times,serif" font-weight="bold" font-size="14.00">GeneratorFactory</text>
<polygon fill="none" stroke="black" points="241,-446 241,-452 742,-452 742,-446 241,-446"/>
<polygon fill="none" stroke="black" points="241,-421 241,-446 742,-446 742,-421 241,-421"/>
<text text-anchor="start" x="246" y="-429.8" font-family="Times,serif" font-size="14.00">+ getGenerator() : Bartlett\GraphUml\Generator\GeneratorInterface</text>
</g>
<!-- Name\\Space\\MyGeneratorFactory&#45;&gt;Bartlett\\UmlWriter\\Generator\\GeneratorFactory -->
<g id="edge3" class="edge">
<title>Name\\Space\\MyGeneratorFactory&#45;&gt;Bartlett\\UmlWriter\\Generator\\GeneratorFactory</title>
<path fill="none" stroke="black" d="M598.28,-682.96C576,-635.62 536.57,-551.83 512.22,-500.09"/>
<polygon fill="none" stroke="black" points="515.28,-498.37 507.85,-490.82 508.95,-501.35 515.28,-498.37"/>
</g>
<!-- Name\\Space\\MyGenerator -->
<g id="node2" class="node">
<title>Name\\Space\\MyGenerator</title>
<polygon fill="#fefece" stroke="transparent" points="1408.5,-775 891.5,-775 891.5,-664 1408.5,-664 1408.5,-775"/>
<polygon fill="#eeeeee" stroke="transparent" points="900,-736.5 900,-770.5 1401,-770.5 1401,-736.5 900,-736.5"/>
<polygon fill="none" stroke="black" points="900,-736.5 900,-770.5 1401,-770.5 1401,-736.5 900,-736.5"/>
<text text-anchor="start" x="1098" y="-743.3" font-family="Times,serif" font-weight="bold" font-size="14.00">MyGenerator</text>
<polygon fill="none" stroke="black" points="900,-730.5 900,-736.5 1401,-736.5 1401,-730.5 900,-730.5"/>
<polygon fill="none" stroke="black" points="900,-667.5 900,-730.5 1401,-730.5 1401,-667.5 900,-667.5"/>
<text text-anchor="start" x="905" y="-714.3" font-family="Times,serif" font-size="14.00">+ getFormatter() : Bartlett\GraphUml\Formatter\FormatterInterface</text>
<text text-anchor="start" x="905" y="-695.3" font-family="Times,serif" font-size="14.00">+ getName() : string</text>
<text text-anchor="start" x="905" y="-676.3" font-family="Times,serif" font-size="14.00">+ createScript(graph : Graphp\Graph\Graph) : string</text>
</g>
<!-- Bartlett\\GraphUml\\Generator\\AbstractGenerator -->
<g id="node6" class="node">
<title>Bartlett\\GraphUml\\Generator\\AbstractGenerator</title>
<polygon fill="#fefece" stroke="transparent" points="2095.5,-617 1498.5,-617 1498.5,-291 2095.5,-291 2095.5,-617"/>
<polygon fill="#eeeeee" stroke="transparent" points="1507,-579 1507,-613 2088,-613 2088,-579 1507,-579"/>
<polygon fill="none" stroke="black" points="1507,-579 1507,-613 2088,-613 2088,-579 1507,-579"/>
<text text-anchor="start" x="1755.5" y="-599.8" font-family="Times,serif" font-weight="bold" font-size="14.00">«abstract»</text>
<text text-anchor="start" x="1723.5" y="-585.8" font-family="Times,serif" font-weight="bold" font-size="14.00">AbstractGenerator</text>
<polygon fill="none" stroke="black" points="1507,-497 1507,-579 2088,-579 2088,-497 1507,-497"/>
<text text-anchor="start" x="1512" y="-562.8" font-family="Times,serif" font-size="14.00">+ «static» CMD_EXECUTABLE : string = &quot;\%E&quot; {readOnly}</text>
<text text-anchor="start" x="1512" y="-543.8" font-family="Times,serif" font-size="14.00">+ «static» CMD_FORMAT : string = &quot;\%F&quot; {readOnly}</text>
<text text-anchor="start" x="1512" y="-524.8" font-family="Times,serif" font-size="14.00">+ «static» CMD_OUTPUT_FILE : string = &quot;\%o&quot; {readOnly}</text>
<text text-anchor="start" x="1512" y="-505.8" font-family="Times,serif" font-size="14.00">+ «static» CMD_TEMP_FILE : string = &quot;\%t&quot; {readOnly}</text>
<polygon fill="none" stroke="black" points="1507,-491 1507,-497 2088,-497 2088,-491 1507,-491"/>
<polygon fill="none" stroke="black" points="1507,-295 1507,-491 2088,-491 2088,-295 1507,-295"/>
<text text-anchor="start" x="1512" y="-474.8" font-family="Times,serif" font-size="14.00">+ setOptions(values : array) : void</text>
<text text-anchor="start" x="1512" y="-455.8" font-family="Times,serif" font-size="14.00">+ «abstract» getFormatter() : Bartlett\GraphUml\Formatter\FormatterInterface</text>
<text text-anchor="start" x="1512" y="-436.8" font-family="Times,serif" font-size="14.00">+ «abstract» getName() : string</text>
<text text-anchor="start" x="1512" y="-417.8" font-family="Times,serif" font-size="14.00">+ getPrefix() : string</text>
<text text-anchor="start" x="1512" y="-398.8" font-family="Times,serif" font-size="14.00">+ getLabelClass(reflection : ReflectionClass) : string</text>
<text text-anchor="start" x="1512" y="-379.8" font-family="Times,serif" font-size="14.00">+ getLabelExtension(reflection : ReflectionExtension) : string</text>
<text text-anchor="start" x="1512" y="-360.8" font-family="Times,serif" font-size="14.00">+ setExecutable(executable : string) : void</text>
<text text-anchor="start" x="1512" y="-341.8" font-family="Times,serif" font-size="14.00">+ setFormat(format : string) : void</text>
<text text-anchor="start" x="1512" y="-322.8" font-family="Times,serif" font-size="14.00">+ «abstract» createScript(graph : Graphp\Graph\Graph) : string</text>
<text text-anchor="start" x="1512" y="-303.8" font-family="Times,serif" font-size="14.00">+ createImageFile(graph : Graphp\Graph\Graph, cmdFormat : string) : string</text>
</g>
<!-- Name\\Space\\MyGenerator&#45;&gt;Bartlett\\GraphUml\\Generator\\AbstractGenerator -->
<g id="edge4" class="edge">
<title>Name\\Space\\MyGenerator&#45;&gt;Bartlett\\GraphUml\\Generator\\AbstractGenerator</title>
<path fill="none" stroke="black" d="M1408.76,-674.72C1436.26,-667.11 1463.48,-658.26 1489,-648 1508.21,-640.28 1527.55,-631.36 1546.67,-621.69"/>
<polygon fill="none" stroke="black" points="1548.44,-624.72 1555.74,-617.04 1545.25,-618.49 1548.44,-624.72"/>
</g>
<!-- Bartlett\\GraphUml\\Generator\\GeneratorInterface -->
<g id="node7" class="node">
<title>Bartlett\\GraphUml\\Generator\\GeneratorInterface</title>
<polygon fill="#fefece" stroke="transparent" points="1480,-576 820,-576 820,-332 1480,-332 1480,-576"/>
<polygon fill="#eeeeee" stroke="transparent" points="828,-538 828,-572 1472,-572 1472,-538 828,-538"/>
<polygon fill="none" stroke="black" points="828,-538 828,-572 1472,-572 1472,-538 828,-538"/>
<text text-anchor="start" x="1105" y="-558.8" font-family="Times,serif" font-weight="bold" font-size="14.00">«interface»</text>
<text text-anchor="start" x="1073" y="-544.8" font-family="Times,serif" font-weight="bold" font-size="14.00">GeneratorInterface</text>
<polygon fill="none" stroke="black" points="828,-532 828,-538 1472,-538 1472,-532 828,-532"/>
<polygon fill="none" stroke="black" points="828,-336 828,-532 1472,-532 1472,-336 828,-336"/>
<text text-anchor="start" x="833" y="-515.8" font-family="Times,serif" font-size="14.00">+ «abstract» setOptions(values : array) : void</text>
<text text-anchor="start" x="833" y="-496.8" font-family="Times,serif" font-size="14.00">+ «abstract» getFormatter() : Bartlett\GraphUml\Formatter\FormatterInterface</text>
<text text-anchor="start" x="833" y="-477.8" font-family="Times,serif" font-size="14.00">+ «abstract» getName() : string</text>
<text text-anchor="start" x="833" y="-458.8" font-family="Times,serif" font-size="14.00">+ «abstract» getPrefix() : string</text>
<text text-anchor="start" x="833" y="-439.8" font-family="Times,serif" font-size="14.00">+ «abstract» getLabelClass(reflection : ReflectionClass) : string</text>
<text text-anchor="start" x="833" y="-420.8" font-family="Times,serif" font-size="14.00">+ «abstract» getLabelExtension(reflection : ReflectionExtension) : string</text>
<text text-anchor="start" x="833" y="-401.8" font-family="Times,serif" font-size="14.00">+ «abstract» setExecutable(executable : string) : void</text>
<text text-anchor="start" x="833" y="-382.8" font-family="Times,serif" font-size="14.00">+ «abstract» setFormat(format : string) : void</text>
<text text-anchor="start" x="833" y="-363.8" font-family="Times,serif" font-size="14.00">+ «abstract» createScript(graph : Graphp\Graph\Graph) : string</text>
<text text-anchor="start" x="833" y="-344.8" font-family="Times,serif" font-size="14.00">+ «abstract» createImageFile(graph : Graphp\Graph\Graph, cmdFormat : string) : string</text>
</g>
<!-- Name\\Space\\MyGenerator&#45;&gt;Bartlett\\GraphUml\\Generator\\GeneratorInterface -->
<g id="edge5" class="edge">
<title>Name\\Space\\MyGenerator&#45;&gt;Bartlett\\GraphUml\\Generator\\GeneratorInterface</title>
<path fill="none" stroke="black" stroke-dasharray="5,2" d="M1150,-663.9C1150,-641.15 1150,-613.65 1150,-586.18"/>
<polygon fill="none" stroke="black" points="1153.5,-586.07 1150,-576.07 1146.5,-586.07 1153.5,-586.07"/>
</g>
<!-- Bartlett\\UmlWriter\\Generator\\AbstractGeneratorFactory -->
<g id="node4" class="node">
<title>Bartlett\\UmlWriter\\Generator\\AbstractGeneratorFactory</title>
<polygon fill="#fefece" stroke="transparent" points="775.5,-255 76.5,-255 76.5,-144 775.5,-144 775.5,-255"/>
<polygon fill="#eeeeee" stroke="transparent" points="85,-216.5 85,-250.5 768,-250.5 768,-216.5 85,-216.5"/>
<polygon fill="none" stroke="black" points="85,-216.5 85,-250.5 768,-250.5 768,-216.5 85,-216.5"/>
<text text-anchor="start" x="384.5" y="-237.3" font-family="Times,serif" font-weight="bold" font-size="14.00">«abstract»</text>
<text text-anchor="start" x="324" y="-223.3" font-family="Times,serif" font-weight="bold" font-size="14.00">AbstractGeneratorFactory</text>
<polygon fill="none" stroke="black" points="85,-210.5 85,-216.5 768,-216.5 768,-210.5 85,-210.5"/>
<polygon fill="none" stroke="black" points="85,-147.5 85,-210.5 768,-210.5 768,-147.5 85,-147.5"/>
<text text-anchor="start" x="90" y="-194.3" font-family="Times,serif" font-size="14.00">+ __construct(generator : string = &#39;&#39;)</text>
<text text-anchor="start" x="90" y="-175.3" font-family="Times,serif" font-size="14.00">+ createInstance(provider : string) : Bartlett\UmlWriter\Generator\GeneratorFactoryInterface</text>
<text text-anchor="start" x="90" y="-156.3" font-family="Times,serif" font-size="14.00">+ «abstract» getGenerator() : Bartlett\GraphUml\Generator\GeneratorInterface</text>
</g>
<!-- Bartlett\\UmlWriter\\Generator\\GeneratorFactory&#45;&gt;Bartlett\\UmlWriter\\Generator\\AbstractGeneratorFactory -->
<g id="edge2" class="edge">
<title>Bartlett\\UmlWriter\\Generator\\GeneratorFactory&#45;&gt;Bartlett\\UmlWriter\\Generator\\AbstractGeneratorFactory</title>
<path fill="none" stroke="black" d="M481.82,-417.36C471.68,-377.93 455.11,-313.59 442.66,-265.21"/>
<polygon fill="none" stroke="black" points="446.03,-264.26 440.15,-255.45 439.25,-266.01 446.03,-264.26"/>
</g>
<!-- Bartlett\\UmlWriter\\Generator\\GeneratorFactoryInterface -->
<g id="node5" class="node">
<title>Bartlett\\UmlWriter\\Generator\\GeneratorFactoryInterface</title>
<polygon fill="#fefece" stroke="transparent" points="796,-108 16,-108 16,-16 796,-16 796,-108"/>
<polygon fill="#eeeeee" stroke="transparent" points="24,-70 24,-104 788,-104 788,-70 24,-70"/>
<polygon fill="none" stroke="black" points="24,-70 24,-104 788,-104 788,-70 24,-70"/>
<text text-anchor="start" x="361" y="-90.8" font-family="Times,serif" font-weight="bold" font-size="14.00">«interface»</text>
<text text-anchor="start" x="300.5" y="-76.8" font-family="Times,serif" font-weight="bold" font-size="14.00">GeneratorFactoryInterface</text>
<polygon fill="none" stroke="black" points="24,-64 24,-70 788,-70 788,-64 24,-64"/>
<polygon fill="none" stroke="black" points="24,-20 24,-64 788,-64 788,-20 24,-20"/>
<text text-anchor="start" x="29" y="-47.8" font-family="Times,serif" font-size="14.00">+ «abstract» createInstance(provider : string) : Bartlett\UmlWriter\Generator\GeneratorFactoryInterface</text>
<text text-anchor="start" x="29" y="-28.8" font-family="Times,serif" font-size="14.00">+ «abstract» getGenerator() : Bartlett\GraphUml\Generator\GeneratorInterface</text>
</g>
<!-- Bartlett\\UmlWriter\\Generator\\AbstractGeneratorFactory&#45;&gt;Bartlett\\UmlWriter\\Generator\\GeneratorFactoryInterface -->
<g id="edge1" class="edge">
<title>Bartlett\\UmlWriter\\Generator\\AbstractGeneratorFactory&#45;&gt;Bartlett\\UmlWriter\\Generator\\GeneratorFactoryInterface</title>
<path fill="none" stroke="black" stroke-dasharray="5,2" d="M417.92,-143.78C416.69,-135.42 415.42,-126.79 414.18,-118.42"/>
<polygon fill="none" stroke="black" points="417.62,-117.76 412.7,-108.38 410.7,-118.78 417.62,-117.76"/>
</g>
</g>
</svg>
