<?xml version="1.0" encoding="UTF-8" standalone="no"?>
<!DOCTYPE svg PUBLIC "-//W3C//DTD SVG 1.1//EN"
 "http://www.w3.org/Graphics/SVG/1.1/DTD/svg11.dtd">
<!-- Generated by graphviz version 2.43.0 (0)
 -->
<!-- Title: %3 Pages: 1 -->
<svg width="4008pt" height="2165pt"
 viewBox="0.00 0.00 4008.00 2165.00" xmlns="http://www.w3.org/2000/svg" xmlns:xlink="http://www.w3.org/1999/xlink">
<g id="graph0" class="graph" transform="scale(1 1) rotate(0) translate(4 2161)">
<title>%3</title>
<g id="clust1" class="cluster">
<title>cluster_0</title>
<polygon fill="BurlyWood" stroke="black" points="322.5,-8 322.5,-158 3233,-158 3233,-8 322.5,-8"/>
<text text-anchor="middle" x="1777.75" y="-142.8" font-family="Times,serif" font-size="14.00">Bartlett\UmlWriter\Generator</text>
</g>
<g id="clust2" class="cluster">
<title>cluster_1</title>
<polygon fill="BurlyWood" stroke="black" points="32,-166 32,-631 1146,-631 1146,-166 32,-166"/>
<text text-anchor="middle" x="589" y="-615.8" font-family="Times,serif" font-size="14.00">Bartlett\UmlWriter\Service</text>
</g>
<g id="clust3" class="cluster">
<title>cluster_2</title>
<polygon fill="LightSkyBlue" stroke="black" points="1681.5,-185 1681.5,-316 1925.5,-316 1925.5,-185 1681.5,-185"/>
<text text-anchor="middle" x="1803.5" y="-300.8" font-family="Times,serif" font-size="14.00">Psr\Container</text>
</g>
<g id="clust4" class="cluster">
<title>cluster_3</title>
<polygon fill="BurlyWood" stroke="black" points="8,-639 8,-852 1170,-852 1170,-639 8,-639"/>
<text text-anchor="middle" x="589" y="-836.8" font-family="Times,serif" font-size="14.00">Bartlett\UmlWriter\Console</text>
</g>
<g id="clust5" class="cluster">
<title>cluster_4</title>
<polygon fill="LightSkyBlue" stroke="black" points="1190,-348 1190,-1143 2417,-1143 2417,-348 1190,-348"/>
<text text-anchor="middle" x="1803.5" y="-1127.8" font-family="Times,serif" font-size="14.00">Symfony\Component\Console</text>
</g>
<g id="clust6" class="cluster">
<title>cluster_5</title>
<polygon fill="LightSkyBlue" stroke="black" points="2729.5,-689 2729.5,-802 2940.5,-802 2940.5,-689 2729.5,-689"/>
<text text-anchor="middle" x="2835" y="-786.8" font-family="Times,serif" font-size="14.00">Symfony\Contracts\Service</text>
</g>
<g id="clust7" class="cluster">
<title>cluster_6</title>
<polygon fill="BurlyWood" stroke="black" points="15.5,-1484 15.5,-1621 1162.5,-1621 1162.5,-1484 15.5,-1484"/>
<text text-anchor="middle" x="589" y="-1605.8" font-family="Times,serif" font-size="14.00">Bartlett\UmlWriter\Console\Command</text>
</g>
<g id="clust8" class="cluster">
<title>cluster_7</title>
<polygon fill="LightSkyBlue" stroke="black" points="1190,-1151 1190,-1954 2417,-1954 2417,-1151 1190,-1151"/>
<text text-anchor="middle" x="1803.5" y="-1938.8" font-family="Times,serif" font-size="14.00">Symfony\Component\Console\Command</text>
</g>
<g id="clust9" class="cluster">
<title>cluster_8</title>
<polygon fill="BurlyWood" stroke="black" points="370.5,-1990 370.5,-2121 807.5,-2121 807.5,-1990 370.5,-1990"/>
<text text-anchor="middle" x="589" y="-2105.8" font-family="Times,serif" font-size="14.00">Bartlett\UmlWriter\Config\Loader</text>
</g>
<g id="clust10" class="cluster">
<title>cluster_9</title>
<polygon fill="LightSkyBlue" stroke="black" points="1234.5,-1962 1234.5,-2149 3992,-2149 3992,-1962 1234.5,-1962"/>
<text text-anchor="middle" x="2613.25" y="-2133.8" font-family="Times,serif" font-size="14.00">Symfony\Component\Config\Loader</text>
</g>
<!-- Bartlett\\UmlWriter\\Generator\\GeneratorFactory -->
<g id="node1" class="node">
<title>Bartlett\\UmlWriter\\Generator\\GeneratorFactory</title>
<polygon fill="#fefece" stroke="transparent" points="847.5,-107.5 330.5,-107.5 330.5,-34.5 847.5,-34.5 847.5,-107.5"/>
<polygon fill="#eeeeee" stroke="transparent" points="339,-69 339,-103 840,-103 840,-69 339,-69"/>
<polygon fill="none" stroke="black" points="339,-69 339,-103 840,-103 840,-69 339,-69"/>
<text text-anchor="start" x="520" y="-75.8" font-family="Times,serif" font-weight="bold" font-size="14.00">GeneratorFactory</text>
<polygon fill="none" stroke="black" points="339,-63 339,-69 840,-69 840,-63 339,-63"/>
<polygon fill="none" stroke="black" points="339,-38 339,-63 840,-63 840,-38 339,-38"/>
<text text-anchor="start" x="344" y="-46.8" font-family="Times,serif" font-size="14.00">+ getGenerator() : Bartlett\GraphUml\Generator\GeneratorInterface</text>
</g>
<!-- Bartlett\\UmlWriter\\Generator\\AbstractGeneratorFactory -->
<g id="node2" class="node">
<title>Bartlett\\UmlWriter\\Generator\\AbstractGeneratorFactory</title>
<polygon fill="#fefece" stroke="transparent" points="2153,-126.5 1454,-126.5 1454,-15.5 2153,-15.5 2153,-126.5"/>
<polygon fill="#eeeeee" stroke="transparent" points="1462.5,-88 1462.5,-122 2145.5,-122 2145.5,-88 1462.5,-88"/>
<polygon fill="none" stroke="black" points="1462.5,-88 1462.5,-122 2145.5,-122 2145.5,-88 1462.5,-88"/>
<text text-anchor="start" x="1762" y="-108.8" font-family="Times,serif" font-weight="bold" font-size="14.00">«abstract»</text>
<text text-anchor="start" x="1701.5" y="-94.8" font-family="Times,serif" font-weight="bold" font-size="14.00">AbstractGeneratorFactory</text>
<polygon fill="none" stroke="black" points="1462.5,-82 1462.5,-88 2145.5,-88 2145.5,-82 1462.5,-82"/>
<polygon fill="none" stroke="black" points="1462.5,-19 1462.5,-82 2145.5,-82 2145.5,-19 1462.5,-19"/>
<text text-anchor="start" x="1467.5" y="-65.8" font-family="Times,serif" font-size="14.00">+ __construct(generator : string = &#39;&#39;)</text>
<text text-anchor="start" x="1467.5" y="-46.8" font-family="Times,serif" font-size="14.00">+ createInstance(provider : string) : Bartlett\UmlWriter\Generator\GeneratorFactoryInterface</text>
<text text-anchor="start" x="1467.5" y="-27.8" font-family="Times,serif" font-size="14.00">+ «abstract» getGenerator() : Bartlett\GraphUml\Generator\GeneratorInterface</text>
</g>
<!-- Bartlett\\UmlWriter\\Generator\\GeneratorFactory&#45;&gt;Bartlett\\UmlWriter\\Generator\\AbstractGeneratorFactory -->
<g id="edge2" class="edge">
<title>Bartlett\\UmlWriter\\Generator\\GeneratorFactory&#45;&gt;Bartlett\\UmlWriter\\Generator\\AbstractGeneratorFactory</title>
<path fill="none" stroke="black" d="M847.51,-71C1021,-71 1252.22,-71 1443.69,-71"/>
<polygon fill="none" stroke="black" points="1443.93,-74.5 1453.93,-71 1443.93,-67.5 1443.93,-74.5"/>
</g>
<!-- Bartlett\\UmlWriter\\Generator\\GeneratorFactoryInterface -->
<g id="node3" class="node">
<title>Bartlett\\UmlWriter\\Generator\\GeneratorFactoryInterface</title>
<polygon fill="#fefece" stroke="transparent" points="3225,-117 2445,-117 2445,-25 3225,-25 3225,-117"/>
<polygon fill="#eeeeee" stroke="transparent" points="2453,-79 2453,-113 3217,-113 3217,-79 2453,-79"/>
<polygon fill="none" stroke="black" points="2453,-79 2453,-113 3217,-113 3217,-79 2453,-79"/>
<text text-anchor="start" x="2790" y="-99.8" font-family="Times,serif" font-weight="bold" font-size="14.00">«interface»</text>
<text text-anchor="start" x="2729.5" y="-85.8" font-family="Times,serif" font-weight="bold" font-size="14.00">GeneratorFactoryInterface</text>
<polygon fill="none" stroke="black" points="2453,-73 2453,-79 3217,-79 3217,-73 2453,-73"/>
<polygon fill="none" stroke="black" points="2453,-29 2453,-73 3217,-73 3217,-29 2453,-29"/>
<text text-anchor="start" x="2458" y="-56.8" font-family="Times,serif" font-size="14.00">+ «abstract» createInstance(provider : string) : Bartlett\UmlWriter\Generator\GeneratorFactoryInterface</text>
<text text-anchor="start" x="2458" y="-37.8" font-family="Times,serif" font-size="14.00">+ «abstract» getGenerator() : Bartlett\GraphUml\Generator\GeneratorInterface</text>
</g>
<!-- Bartlett\\UmlWriter\\Generator\\AbstractGeneratorFactory&#45;&gt;Bartlett\\UmlWriter\\Generator\\GeneratorFactoryInterface -->
<g id="edge1" class="edge">
<title>Bartlett\\UmlWriter\\Generator\\AbstractGeneratorFactory&#45;&gt;Bartlett\\UmlWriter\\Generator\\GeneratorFactoryInterface</title>
<path fill="none" stroke="black" stroke-dasharray="5,2" d="M2153.04,-71C2243.52,-71 2341.66,-71 2434.53,-71"/>
<polygon fill="none" stroke="black" points="2434.66,-74.5 2444.66,-71 2434.66,-67.5 2434.66,-74.5"/>
</g>
<!-- Bartlett\\UmlWriter\\Service\\ConfigurationHandler -->
<g id="node4" class="node">
<title>Bartlett\\UmlWriter\\Service\\ConfigurationHandler</title>
<polygon fill="#fefece" stroke="transparent" points="851.5,-600.5 326.5,-600.5 326.5,-451.5 851.5,-451.5 851.5,-600.5"/>
<polygon fill="#eeeeee" stroke="transparent" points="335,-562 335,-596 844,-596 844,-562 335,-562"/>
<polygon fill="none" stroke="black" points="335,-562 335,-596 844,-596 844,-562 335,-562"/>
<text text-anchor="start" x="502" y="-568.8" font-family="Times,serif" font-weight="bold" font-size="14.00">ConfigurationHandler</text>
<polygon fill="none" stroke="black" points="335,-556 335,-562 844,-562 844,-556 335,-556"/>
<polygon fill="none" stroke="black" points="335,-455 335,-556 844,-556 844,-455 335,-455"/>
<text text-anchor="start" x="340" y="-539.8" font-family="Times,serif" font-size="14.00">+ __construct(filename : string)</text>
<text text-anchor="start" x="340" y="-520.8" font-family="Times,serif" font-size="14.00">+ filename() : ?string</text>
<text text-anchor="start" x="340" y="-501.8" font-family="Times,serif" font-size="14.00">+ toArray() : array</text>
<text text-anchor="start" x="340" y="-482.8" font-family="Times,serif" font-size="14.00">+ toFlat() : array</text>
<text text-anchor="start" x="340" y="-463.8" font-family="Times,serif" font-size="14.00">+ getValueByKey(key : string, default : mixed = «unknown») : ?mixed</text>
</g>
<!-- Bartlett\\UmlWriter\\Service\\ClassDiagramRenderer -->
<g id="node5" class="node">
<title>Bartlett\\UmlWriter\\Service\\ClassDiagramRenderer</title>
<polygon fill="#fefece" stroke="transparent" points="1138,-433.5 40,-433.5 40,-322.5 1138,-322.5 1138,-433.5"/>
<polygon fill="#eeeeee" stroke="transparent" points="48,-395 48,-429 1130,-429 1130,-395 48,-395"/>
<polygon fill="none" stroke="black" points="48,-395 48,-429 1130,-429 1130,-395 48,-395"/>
<text text-anchor="start" x="497" y="-401.8" font-family="Times,serif" font-weight="bold" font-size="14.00">ClassDiagramRenderer</text>
<polygon fill="none" stroke="black" points="48,-389 48,-395 1130,-395 1130,-389 48,-389"/>
<polygon fill="none" stroke="black" points="48,-326 48,-389 1130,-389 1130,-326 48,-326"/>
<text text-anchor="start" x="53" y="-372.8" font-family="Times,serif" font-size="14.00">+ __invoke(finder : Symfony\Component\Finder\Finder, generator : Bartlett\GraphUml\Generator\GeneratorInterface, parameters : array = []) : string</text>
<text text-anchor="start" x="53" y="-353.8" font-family="Times,serif" font-size="14.00">+ getMetadata() : array</text>
<text text-anchor="start" x="53" y="-334.8" font-family="Times,serif" font-size="14.00">+ getGraph() : Graphp\Graph\Graph</text>
</g>
<!-- Bartlett\\UmlWriter\\Service\\ContainerService -->
<g id="node6" class="node">
<title>Bartlett\\UmlWriter\\Service\\ContainerService</title>
<polygon fill="#fefece" stroke="transparent" points="742,-304 436,-304 436,-174 742,-174 742,-304"/>
<polygon fill="#eeeeee" stroke="transparent" points="444,-266 444,-300 734,-300 734,-266 444,-266"/>
<polygon fill="none" stroke="black" points="444,-266 444,-300 734,-300 734,-266 444,-266"/>
<text text-anchor="start" x="521" y="-272.8" font-family="Times,serif" font-weight="bold" font-size="14.00">ContainerService</text>
<polygon fill="none" stroke="black" points="444,-260 444,-266 734,-266 734,-260 444,-260"/>
<polygon fill="none" stroke="black" points="444,-178 444,-260 734,-260 734,-178 444,-178"/>
<text text-anchor="start" x="449" y="-243.8" font-family="Times,serif" font-size="14.00">+ __construct()</text>
<text text-anchor="start" x="449" y="-224.8" font-family="Times,serif" font-size="14.00">+ set(id : string, service : mixed) : void</text>
<text text-anchor="start" x="449" y="-205.8" font-family="Times,serif" font-size="14.00">+ get(id : string) : ?mixed</text>
<text text-anchor="start" x="449" y="-186.8" font-family="Times,serif" font-size="14.00">+ has(id : string) : bool</text>
</g>
<!-- Psr\\Container\\ContainerInterface -->
<g id="node7" class="node">
<title>Psr\\Container\\ContainerInterface</title>
<polygon fill="#fefece" stroke="transparent" points="1917.5,-285 1689.5,-285 1689.5,-193 1917.5,-193 1917.5,-285"/>
<polygon fill="#eeeeee" stroke="transparent" points="1697.5,-247 1697.5,-281 1909.5,-281 1909.5,-247 1697.5,-247"/>
<polygon fill="none" stroke="black" points="1697.5,-247 1697.5,-281 1909.5,-281 1909.5,-247 1697.5,-247"/>
<text text-anchor="start" x="1758.5" y="-267.8" font-family="Times,serif" font-weight="bold" font-size="14.00">«interface»</text>
<text text-anchor="start" x="1727.5" y="-253.8" font-family="Times,serif" font-weight="bold" font-size="14.00">ContainerInterface</text>
<polygon fill="none" stroke="black" points="1697.5,-241 1697.5,-247 1909.5,-247 1909.5,-241 1697.5,-241"/>
<polygon fill="none" stroke="black" points="1697.5,-197 1697.5,-241 1909.5,-241 1909.5,-197 1697.5,-197"/>
<text text-anchor="start" x="1702.5" y="-224.8" font-family="Times,serif" font-size="14.00">+ «abstract» get(id : string)</text>
<text text-anchor="start" x="1702.5" y="-205.8" font-family="Times,serif" font-size="14.00">+ «abstract» has(id : string)</text>
</g>
<!-- Bartlett\\UmlWriter\\Service\\ContainerService&#45;&gt;Psr\\Container\\ContainerInterface -->
<g id="edge3" class="edge">
<title>Bartlett\\UmlWriter\\Service\\ContainerService&#45;&gt;Psr\\Container\\ContainerInterface</title>
<path fill="none" stroke="black" stroke-dasharray="5,2" d="M742.03,-239C984.96,-239 1455.98,-239 1679.31,-239"/>
<polygon fill="none" stroke="black" points="1679.43,-242.5 1689.43,-239 1679.43,-235.5 1679.43,-242.5"/>
</g>
<!-- Bartlett\\UmlWriter\\Console\\Application -->
<g id="node8" class="node">
<title>Bartlett\\UmlWriter\\Console\\Application</title>
<polygon fill="#fefece" stroke="transparent" points="1162,-821 16,-821 16,-647 1162,-647 1162,-821"/>
<polygon fill="#eeeeee" stroke="transparent" points="24,-783 24,-817 1154,-817 1154,-783 24,-783"/>
<polygon fill="none" stroke="black" points="24,-783 24,-817 1154,-817 1154,-783 24,-783"/>
<text text-anchor="start" x="544" y="-789.8" font-family="Times,serif" font-weight="bold" font-size="14.00">Application</text>
<polygon fill="none" stroke="black" points="24,-739 24,-783 1154,-783 1154,-739 24,-739"/>
<text text-anchor="start" x="29" y="-766.8" font-family="Times,serif" font-size="14.00">+ «static» NAME : string = &quot;umlWriter&quot; {readOnly}</text>
<text text-anchor="start" x="29" y="-747.8" font-family="Times,serif" font-size="14.00">+ «static» VERSION : string = &quot;3\.1\.1&quot; {readOnly}</text>
<polygon fill="none" stroke="black" points="24,-733 24,-739 1154,-739 1154,-733 24,-733"/>
<polygon fill="none" stroke="black" points="24,-651 24,-733 1154,-733 1154,-651 24,-651"/>
<text text-anchor="start" x="29" y="-716.8" font-family="Times,serif" font-size="14.00">+ __construct(container : Psr\Container\ContainerInterface, version : string = VERSION)</text>
<text text-anchor="start" x="29" y="-697.8" font-family="Times,serif" font-size="14.00">+ getHelp() : string</text>
<text text-anchor="start" x="29" y="-678.8" font-family="Times,serif" font-size="14.00">+ doRun(input : Symfony\Component\Console\Input\InputInterface, output : Symfony\Component\Console\Output\OutputInterface) : int</text>
<text text-anchor="start" x="29" y="-659.8" font-family="Times,serif" font-size="14.00">+ run(input : Symfony\Component\Console\Input\InputInterface = «unknown», output : Symfony\Component\Console\Output\OutputInterface = «unknown»)</text>
</g>
<!-- Symfony\\Component\\Console\\Application -->
<g id="node9" class="node">
<title>Symfony\\Component\\Console\\Application</title>
<polygon fill="#fefece" stroke="transparent" points="2409,-1112.5 1198,-1112.5 1198,-355.5 2409,-355.5 2409,-1112.5"/>
<polygon fill="#eeeeee" stroke="transparent" points="1206.5,-1074 1206.5,-1108 2401.5,-1108 2401.5,-1074 1206.5,-1074"/>
<polygon fill="none" stroke="black" points="1206.5,-1074 1206.5,-1108 2401.5,-1108 2401.5,-1074 1206.5,-1074"/>
<text text-anchor="start" x="1759" y="-1080.8" font-family="Times,serif" font-weight="bold" font-size="14.00">Application</text>
<polygon fill="none" stroke="black" points="1206.5,-1068 1206.5,-1074 2401.5,-1074 2401.5,-1068 1206.5,-1068"/>
<polygon fill="none" stroke="black" points="1206.5,-359 1206.5,-1068 2401.5,-1068 2401.5,-359 1206.5,-359"/>
<text text-anchor="start" x="1211.5" y="-1051.8" font-family="Times,serif" font-size="14.00">+ __construct(name : string = &#39;UNKNOWN&#39;, version : string = &#39;UNKNOWN&#39;)</text>
<text text-anchor="start" x="1211.5" y="-1032.8" font-family="Times,serif" font-size="14.00">+ setDispatcher(dispatcher : Symfony\Contracts\EventDispatcher\EventDispatcherInterface)</text>
<text text-anchor="start" x="1211.5" y="-1013.8" font-family="Times,serif" font-size="14.00">+ setCommandLoader(commandLoader : Symfony\Component\Console\CommandLoader\CommandLoaderInterface)</text>
<text text-anchor="start" x="1211.5" y="-994.8" font-family="Times,serif" font-size="14.00">+ getSignalRegistry() : Symfony\Component\Console\SignalRegistry\SignalRegistry</text>
<text text-anchor="start" x="1211.5" y="-975.8" font-family="Times,serif" font-size="14.00">+ setSignalsToDispatchEvent(signalsToDispatchEvent : int = «unknown»)</text>
<text text-anchor="start" x="1211.5" y="-956.8" font-family="Times,serif" font-size="14.00">+ run(input : Symfony\Component\Console\Input\InputInterface = «unknown», output : Symfony\Component\Console\Output\OutputInterface = «unknown»)</text>
<text text-anchor="start" x="1211.5" y="-937.8" font-family="Times,serif" font-size="14.00">+ doRun(input : Symfony\Component\Console\Input\InputInterface, output : Symfony\Component\Console\Output\OutputInterface)</text>
<text text-anchor="start" x="1211.5" y="-918.8" font-family="Times,serif" font-size="14.00">+ reset()</text>
<text text-anchor="start" x="1211.5" y="-899.8" font-family="Times,serif" font-size="14.00">+ setHelperSet(helperSet : Symfony\Component\Console\Helper\HelperSet)</text>
<text text-anchor="start" x="1211.5" y="-880.8" font-family="Times,serif" font-size="14.00">+ getHelperSet()</text>
<text text-anchor="start" x="1211.5" y="-861.8" font-family="Times,serif" font-size="14.00">+ setDefinition(definition : Symfony\Component\Console\Input\InputDefinition)</text>
<text text-anchor="start" x="1211.5" y="-842.8" font-family="Times,serif" font-size="14.00">+ getDefinition()</text>
<text text-anchor="start" x="1211.5" y="-823.8" font-family="Times,serif" font-size="14.00">+ complete(input : Symfony\Component\Console\Completion\CompletionInput, suggestions : Symfony\Component\Console\Completion\CompletionSuggestions) : void</text>
<text text-anchor="start" x="1211.5" y="-804.8" font-family="Times,serif" font-size="14.00">+ getHelp()</text>
<text text-anchor="start" x="1211.5" y="-785.8" font-family="Times,serif" font-size="14.00">+ areExceptionsCaught()</text>
<text text-anchor="start" x="1211.5" y="-766.8" font-family="Times,serif" font-size="14.00">+ setCatchExceptions(boolean : bool)</text>
<text text-anchor="start" x="1211.5" y="-747.8" font-family="Times,serif" font-size="14.00">+ isAutoExitEnabled()</text>
<text text-anchor="start" x="1211.5" y="-728.8" font-family="Times,serif" font-size="14.00">+ setAutoExit(boolean : bool)</text>
<text text-anchor="start" x="1211.5" y="-709.8" font-family="Times,serif" font-size="14.00">+ getName()</text>
<text text-anchor="start" x="1211.5" y="-690.8" font-family="Times,serif" font-size="14.00">+ setName(name : string)</text>
<text text-anchor="start" x="1211.5" y="-671.8" font-family="Times,serif" font-size="14.00">+ getVersion()</text>
<text text-anchor="start" x="1211.5" y="-652.8" font-family="Times,serif" font-size="14.00">+ setVersion(version : string)</text>
<text text-anchor="start" x="1211.5" y="-633.8" font-family="Times,serif" font-size="14.00">+ getLongVersion()</text>
<text text-anchor="start" x="1211.5" y="-614.8" font-family="Times,serif" font-size="14.00">+ register(name : string)</text>
<text text-anchor="start" x="1211.5" y="-595.8" font-family="Times,serif" font-size="14.00">+ addCommands(commands : array)</text>
<text text-anchor="start" x="1211.5" y="-576.8" font-family="Times,serif" font-size="14.00">+ add(command : Symfony\Component\Console\Command\Command)</text>
<text text-anchor="start" x="1211.5" y="-557.8" font-family="Times,serif" font-size="14.00">+ get(name : string)</text>
<text text-anchor="start" x="1211.5" y="-538.8" font-family="Times,serif" font-size="14.00">+ has(name : string)</text>
<text text-anchor="start" x="1211.5" y="-519.8" font-family="Times,serif" font-size="14.00">+ getNamespaces()</text>
<text text-anchor="start" x="1211.5" y="-500.8" font-family="Times,serif" font-size="14.00">+ findNamespace(namespace : string)</text>
<text text-anchor="start" x="1211.5" y="-481.8" font-family="Times,serif" font-size="14.00">+ find(name : string)</text>
<text text-anchor="start" x="1211.5" y="-462.8" font-family="Times,serif" font-size="14.00">+ all(namespace : string = «unknown»)</text>
<text text-anchor="start" x="1211.5" y="-443.8" font-family="Times,serif" font-size="14.00">+ «static» getAbbreviations(names : array)</text>
<text text-anchor="start" x="1211.5" y="-424.8" font-family="Times,serif" font-size="14.00">+ renderThrowable(e : Throwable, output : Symfony\Component\Console\Output\OutputInterface) : void</text>
<text text-anchor="start" x="1211.5" y="-405.8" font-family="Times,serif" font-size="14.00">+ extractNamespace(name : string, limit : int = «unknown»)</text>
<text text-anchor="start" x="1211.5" y="-386.8" font-family="Times,serif" font-size="14.00">+ setDefaultCommand(commandName : string, isSingleCommand : bool = false)</text>
<text text-anchor="start" x="1211.5" y="-367.8" font-family="Times,serif" font-size="14.00">+ isSingleCommand() : bool</text>
</g>
<!-- Bartlett\\UmlWriter\\Console\\Application&#45;&gt;Symfony\\Component\\Console\\Application -->
<g id="edge5" class="edge">
<title>Bartlett\\UmlWriter\\Console\\Application&#45;&gt;Symfony\\Component\\Console\\Application</title>
<path fill="none" stroke="black" d="M1162.08,-734C1170.67,-734 1179.28,-734 1187.89,-734"/>
<polygon fill="none" stroke="black" points="1188,-737.5 1198,-734 1188,-730.5 1188,-737.5"/>
</g>
<!-- Symfony\\Contracts\\Service\\ResetInterface -->
<g id="node10" class="node">
<title>Symfony\\Contracts\\Service\\ResetInterface</title>
<polygon fill="#fefece" stroke="transparent" points="2920.5,-770.5 2749.5,-770.5 2749.5,-697.5 2920.5,-697.5 2920.5,-770.5"/>
<polygon fill="#eeeeee" stroke="transparent" points="2758,-732 2758,-766 2913,-766 2913,-732 2758,-732"/>
<polygon fill="none" stroke="black" points="2758,-732 2758,-766 2913,-766 2913,-732 2758,-732"/>
<text text-anchor="start" x="2790.5" y="-752.8" font-family="Times,serif" font-weight="bold" font-size="14.00">«interface»</text>
<text text-anchor="start" x="2776.5" y="-738.8" font-family="Times,serif" font-weight="bold" font-size="14.00">ResetInterface</text>
<polygon fill="none" stroke="black" points="2758,-726 2758,-732 2913,-732 2913,-726 2758,-726"/>
<polygon fill="none" stroke="black" points="2758,-701 2758,-726 2913,-726 2913,-701 2758,-701"/>
<text text-anchor="start" x="2763" y="-709.8" font-family="Times,serif" font-size="14.00">+ «abstract» reset()</text>
</g>
<!-- Symfony\\Component\\Console\\Application&#45;&gt;Symfony\\Contracts\\Service\\ResetInterface -->
<g id="edge4" class="edge">
<title>Symfony\\Component\\Console\\Application&#45;&gt;Symfony\\Contracts\\Service\\ResetInterface</title>
<path fill="none" stroke="black" stroke-dasharray="5,2" d="M2409.32,-734C2538.12,-734 2659.16,-734 2738.81,-734"/>
<polygon fill="none" stroke="black" points="2739.28,-737.5 2749.28,-734 2739.28,-730.5 2739.28,-737.5"/>
</g>
<!-- Bartlett\\UmlWriter\\Console\\Command\\ClassDiagramCommand -->
<g id="node11" class="node">
<title>Bartlett\\UmlWriter\\Console\\Command\\ClassDiagramCommand</title>
<polygon fill="#fefece" stroke="transparent" points="1154.5,-1590 23.5,-1590 23.5,-1492 1154.5,-1492 1154.5,-1590"/>
<polygon fill="#eeeeee" stroke="transparent" points="32,-1552 32,-1586 1147,-1586 1147,-1552 32,-1552"/>
<polygon fill="none" stroke="black" points="32,-1552 32,-1586 1147,-1586 1147,-1552 32,-1552"/>
<text text-anchor="start" x="494.5" y="-1558.8" font-family="Times,serif" font-weight="bold" font-size="14.00">ClassDiagramCommand</text>
<polygon fill="none" stroke="black" points="32,-1527 32,-1552 1147,-1552 1147,-1527 32,-1527"/>
<text text-anchor="start" x="37" y="-1535.8" font-family="Times,serif" font-size="14.00">+ «static» NAME : string = &quot;diagram\:class&quot; {readOnly}</text>
<polygon fill="none" stroke="black" points="32,-1521 32,-1527 1147,-1527 1147,-1521 32,-1521"/>
<polygon fill="none" stroke="black" points="32,-1496 32,-1521 1147,-1521 1147,-1496 32,-1496"/>
<text text-anchor="start" x="37" y="-1504.8" font-family="Times,serif" font-size="14.00">+ __construct(renderer : Bartlett\UmlWriter\Service\ClassDiagramRenderer, generatorFactory : Bartlett\UmlWriter\Generator\GeneratorFactoryInterface)</text>
</g>
<!-- Symfony\\Component\\Console\\Command\\Command -->
<g id="node12" class="node">
<title>Symfony\\Component\\Console\\Command\\Command</title>
<polygon fill="#fefece" stroke="transparent" points="2409,-1922.5 1198,-1922.5 1198,-1159.5 2409,-1159.5 2409,-1922.5"/>
<polygon fill="#eeeeee" stroke="transparent" points="1206.5,-1884 1206.5,-1918 2401.5,-1918 2401.5,-1884 1206.5,-1884"/>
<polygon fill="none" stroke="black" points="1206.5,-1884 1206.5,-1918 2401.5,-1918 2401.5,-1884 1206.5,-1884"/>
<text text-anchor="start" x="1764" y="-1890.8" font-family="Times,serif" font-weight="bold" font-size="14.00">Command</text>
<polygon fill="none" stroke="black" points="1206.5,-1821 1206.5,-1884 2401.5,-1884 2401.5,-1821 1206.5,-1821"/>
<text text-anchor="start" x="1211.5" y="-1867.8" font-family="Times,serif" font-size="14.00">+ «static» SUCCESS : int = 0 {readOnly}</text>
<text text-anchor="start" x="1211.5" y="-1848.8" font-family="Times,serif" font-size="14.00">+ «static» FAILURE : int = 1 {readOnly}</text>
<text text-anchor="start" x="1211.5" y="-1829.8" font-family="Times,serif" font-size="14.00">+ «static» INVALID : int = 2 {readOnly}</text>
<polygon fill="none" stroke="black" points="1206.5,-1815 1206.5,-1821 2401.5,-1821 2401.5,-1815 1206.5,-1815"/>
<polygon fill="none" stroke="black" points="1206.5,-1163 1206.5,-1815 2401.5,-1815 2401.5,-1163 1206.5,-1163"/>
<text text-anchor="start" x="1211.5" y="-1798.8" font-family="Times,serif" font-size="14.00">+ «static» getDefaultName()</text>
<text text-anchor="start" x="1211.5" y="-1779.8" font-family="Times,serif" font-size="14.00">+ «static» getDefaultDescription() : ?string</text>
<text text-anchor="start" x="1211.5" y="-1760.8" font-family="Times,serif" font-size="14.00">+ __construct(name : string = «unknown»)</text>
<text text-anchor="start" x="1211.5" y="-1741.8" font-family="Times,serif" font-size="14.00">+ ignoreValidationErrors()</text>
<text text-anchor="start" x="1211.5" y="-1722.8" font-family="Times,serif" font-size="14.00">+ setApplication(application : Symfony\Component\Console\Application = «unknown»)</text>
<text text-anchor="start" x="1211.5" y="-1703.8" font-family="Times,serif" font-size="14.00">+ setHelperSet(helperSet : Symfony\Component\Console\Helper\HelperSet)</text>
<text text-anchor="start" x="1211.5" y="-1684.8" font-family="Times,serif" font-size="14.00">+ getHelperSet()</text>
<text text-anchor="start" x="1211.5" y="-1665.8" font-family="Times,serif" font-size="14.00">+ getApplication()</text>
<text text-anchor="start" x="1211.5" y="-1646.8" font-family="Times,serif" font-size="14.00">+ isEnabled()</text>
<text text-anchor="start" x="1211.5" y="-1627.8" font-family="Times,serif" font-size="14.00">+ run(input : Symfony\Component\Console\Input\InputInterface, output : Symfony\Component\Console\Output\OutputInterface)</text>
<text text-anchor="start" x="1211.5" y="-1608.8" font-family="Times,serif" font-size="14.00">+ complete(input : Symfony\Component\Console\Completion\CompletionInput, suggestions : Symfony\Component\Console\Completion\CompletionSuggestions) : void</text>
<text text-anchor="start" x="1211.5" y="-1589.8" font-family="Times,serif" font-size="14.00">+ setCode(code : callable)</text>
<text text-anchor="start" x="1211.5" y="-1570.8" font-family="Times,serif" font-size="14.00">+ mergeApplicationDefinition(mergeArgs : bool = true)</text>
<text text-anchor="start" x="1211.5" y="-1551.8" font-family="Times,serif" font-size="14.00">+ setDefinition(definition : mixed)</text>
<text text-anchor="start" x="1211.5" y="-1532.8" font-family="Times,serif" font-size="14.00">+ getDefinition()</text>
<text text-anchor="start" x="1211.5" y="-1513.8" font-family="Times,serif" font-size="14.00">+ getNativeDefinition()</text>
<text text-anchor="start" x="1211.5" y="-1494.8" font-family="Times,serif" font-size="14.00">+ addArgument(name : string, mode : int = «unknown», description : string = &#39;&#39;, default = «unknown»)</text>
<text text-anchor="start" x="1211.5" y="-1475.8" font-family="Times,serif" font-size="14.00">+ addOption(name : string, shortcut = «unknown», mode : int = «unknown», description : string = &#39;&#39;, default = «unknown»)</text>
<text text-anchor="start" x="1211.5" y="-1456.8" font-family="Times,serif" font-size="14.00">+ setName(name : string)</text>
<text text-anchor="start" x="1211.5" y="-1437.8" font-family="Times,serif" font-size="14.00">+ setProcessTitle(title : string)</text>
<text text-anchor="start" x="1211.5" y="-1418.8" font-family="Times,serif" font-size="14.00">+ getName()</text>
<text text-anchor="start" x="1211.5" y="-1399.8" font-family="Times,serif" font-size="14.00">+ setHidden(hidden : bool)</text>
<text text-anchor="start" x="1211.5" y="-1380.8" font-family="Times,serif" font-size="14.00">+ isHidden()</text>
<text text-anchor="start" x="1211.5" y="-1361.8" font-family="Times,serif" font-size="14.00">+ setDescription(description : string)</text>
<text text-anchor="start" x="1211.5" y="-1342.8" font-family="Times,serif" font-size="14.00">+ getDescription()</text>
<text text-anchor="start" x="1211.5" y="-1323.8" font-family="Times,serif" font-size="14.00">+ setHelp(help : string)</text>
<text text-anchor="start" x="1211.5" y="-1304.8" font-family="Times,serif" font-size="14.00">+ getHelp()</text>
<text text-anchor="start" x="1211.5" y="-1285.8" font-family="Times,serif" font-size="14.00">+ getProcessedHelp()</text>
<text text-anchor="start" x="1211.5" y="-1266.8" font-family="Times,serif" font-size="14.00">+ setAliases(aliases : iterable)</text>
<text text-anchor="start" x="1211.5" y="-1247.8" font-family="Times,serif" font-size="14.00">+ getAliases()</text>
<text text-anchor="start" x="1211.5" y="-1228.8" font-family="Times,serif" font-size="14.00">+ getSynopsis(short : bool = false)</text>
<text text-anchor="start" x="1211.5" y="-1209.8" font-family="Times,serif" font-size="14.00">+ addUsage(usage : string)</text>
<text text-anchor="start" x="1211.5" y="-1190.8" font-family="Times,serif" font-size="14.00">+ getUsages()</text>
<text text-anchor="start" x="1211.5" y="-1171.8" font-family="Times,serif" font-size="14.00">+ getHelper(name : string)</text>
</g>
<!-- Bartlett\\UmlWriter\\Console\\Command\\ClassDiagramCommand&#45;&gt;Symfony\\Component\\Console\\Command\\Command -->
<g id="edge6" class="edge">
<title>Bartlett\\UmlWriter\\Console\\Command\\ClassDiagramCommand&#45;&gt;Symfony\\Component\\Console\\Command\\Command</title>
<path fill="none" stroke="black" d="M1154.54,-1541C1165.54,-1541 1176.56,-1541 1187.58,-1541"/>
<polygon fill="none" stroke="black" points="1187.7,-1544.5 1197.7,-1541 1187.7,-1537.5 1187.7,-1544.5"/>
</g>
<!-- Bartlett\\UmlWriter\\Config\\Loader\\YamlFileLoader -->
<g id="node13" class="node">
<title>Bartlett\\UmlWriter\\Config\\Loader\\YamlFileLoader</title>
<polygon fill="#fefece" stroke="transparent" points="799.5,-2090 378.5,-2090 378.5,-1998 799.5,-1998 799.5,-2090"/>
<polygon fill="#eeeeee" stroke="transparent" points="387,-2052 387,-2086 792,-2086 792,-2052 387,-2052"/>
<polygon fill="none" stroke="black" points="387,-2052 387,-2086 792,-2086 792,-2052 387,-2052"/>
<text text-anchor="start" x="528.5" y="-2058.8" font-family="Times,serif" font-weight="bold" font-size="14.00">YamlFileLoader</text>
<polygon fill="none" stroke="black" points="387,-2046 387,-2052 792,-2052 792,-2046 387,-2046"/>
<polygon fill="none" stroke="black" points="387,-2002 387,-2046 792,-2046 792,-2002 387,-2002"/>
<text text-anchor="start" x="392" y="-2029.8" font-family="Times,serif" font-size="14.00">+ load(resource, type : string = «unknown») : ?mixed</text>
<text text-anchor="start" x="392" y="-2010.8" font-family="Times,serif" font-size="14.00">+ supports(resource, type : string = «unknown») : bool</text>
</g>
<!-- Symfony\\Component\\Config\\Loader\\FileLoader -->
<g id="node14" class="node">
<title>Symfony\\Component\\Config\\Loader\\FileLoader</title>
<polygon fill="#fefece" stroke="transparent" points="2364.5,-2109 1242.5,-2109 1242.5,-1979 2364.5,-1979 2364.5,-2109"/>
<polygon fill="#eeeeee" stroke="transparent" points="1250.5,-2071 1250.5,-2105 2356.5,-2105 2356.5,-2071 1250.5,-2071"/>
<polygon fill="none" stroke="black" points="1250.5,-2071 1250.5,-2105 2356.5,-2105 2356.5,-2071 1250.5,-2071"/>
<text text-anchor="start" x="1761.5" y="-2091.8" font-family="Times,serif" font-weight="bold" font-size="14.00">«abstract»</text>
<text text-anchor="start" x="1761.5" y="-2077.8" font-family="Times,serif" font-weight="bold" font-size="14.00">FileLoader</text>
<polygon fill="none" stroke="black" points="1250.5,-2065 1250.5,-2071 2356.5,-2071 2356.5,-2065 1250.5,-2065"/>
<polygon fill="none" stroke="black" points="1250.5,-1983 1250.5,-2065 2356.5,-2065 2356.5,-1983 1250.5,-1983"/>
<text text-anchor="start" x="1255.5" y="-2048.8" font-family="Times,serif" font-size="14.00">+ __construct(locator : Symfony\Component\Config\FileLocatorInterface, env : string = «unknown»)</text>
<text text-anchor="start" x="1255.5" y="-2029.8" font-family="Times,serif" font-size="14.00">+ setCurrentDir(dir : string)</text>
<text text-anchor="start" x="1255.5" y="-2010.8" font-family="Times,serif" font-size="14.00">+ getLocator()</text>
<text text-anchor="start" x="1255.5" y="-1991.8" font-family="Times,serif" font-size="14.00">+ import(resource : mixed, type : string = «unknown», ignoreErrors : bool = false, sourceResource : string = «unknown», exclude : mixed = «unknown»)</text>
</g>
<!-- Bartlett\\UmlWriter\\Config\\Loader\\YamlFileLoader&#45;&gt;Symfony\\Component\\Config\\Loader\\FileLoader -->
<g id="edge9" class="edge">
<title>Bartlett\\UmlWriter\\Config\\Loader\\YamlFileLoader&#45;&gt;Symfony\\Component\\Config\\Loader\\FileLoader</title>
<path fill="none" stroke="black" d="M799.82,-2044C920.19,-2044 1077.71,-2044 1232.11,-2044"/>
<polygon fill="none" stroke="black" points="1232.27,-2047.5 1242.27,-2044 1232.27,-2040.5 1232.27,-2047.5"/>
</g>
<!-- Symfony\\Component\\Config\\Loader\\Loader -->
<g id="node15" class="node">
<title>Symfony\\Component\\Config\\Loader\\Loader</title>
<polygon fill="#fefece" stroke="transparent" points="3156.5,-2118.5 2513.5,-2118.5 2513.5,-1969.5 3156.5,-1969.5 3156.5,-2118.5"/>
<polygon fill="#eeeeee" stroke="transparent" points="2522,-2080 2522,-2114 3149,-2114 3149,-2080 2522,-2080"/>
<polygon fill="none" stroke="black" points="2522,-2080 2522,-2114 3149,-2114 3149,-2080 2522,-2080"/>
<text text-anchor="start" x="2793.5" y="-2100.8" font-family="Times,serif" font-weight="bold" font-size="14.00">«abstract»</text>
<text text-anchor="start" x="2808" y="-2086.8" font-family="Times,serif" font-weight="bold" font-size="14.00">Loader</text>
<polygon fill="none" stroke="black" points="2522,-2074 2522,-2080 3149,-2080 3149,-2074 2522,-2074"/>
<polygon fill="none" stroke="black" points="2522,-1973 2522,-2074 3149,-2074 3149,-1973 2522,-1973"/>
<text text-anchor="start" x="2527" y="-2057.8" font-family="Times,serif" font-size="14.00">+ __construct(env : string = «unknown»)</text>
<text text-anchor="start" x="2527" y="-2038.8" font-family="Times,serif" font-size="14.00">+ getResolver()</text>
<text text-anchor="start" x="2527" y="-2019.8" font-family="Times,serif" font-size="14.00">+ setResolver(resolver : Symfony\Component\Config\Loader\LoaderResolverInterface)</text>
<text text-anchor="start" x="2527" y="-2000.8" font-family="Times,serif" font-size="14.00">+ import(resource : mixed, type : string = «unknown»)</text>
<text text-anchor="start" x="2527" y="-1981.8" font-family="Times,serif" font-size="14.00">+ resolve(resource : mixed, type : string = «unknown»)</text>
</g>
<!-- Symfony\\Component\\Config\\Loader\\FileLoader&#45;&gt;Symfony\\Component\\Config\\Loader\\Loader -->
<g id="edge8" class="edge">
<title>Symfony\\Component\\Config\\Loader\\FileLoader&#45;&gt;Symfony\\Component\\Config\\Loader\\Loader</title>
<path fill="none" stroke="black" d="M2364.82,-2044C2412.03,-2044 2458.73,-2044 2503.31,-2044"/>
<polygon fill="none" stroke="black" points="2503.39,-2047.5 2513.39,-2044 2503.39,-2040.5 2503.39,-2047.5"/>
</g>
<!-- Symfony\\Component\\Config\\Loader\\LoaderInterface -->
<g id="node16" class="node">
<title>Symfony\\Component\\Config\\Loader\\LoaderInterface</title>
<polygon fill="#fefece" stroke="transparent" points="3984,-2109 3261,-2109 3261,-1979 3984,-1979 3984,-2109"/>
<polygon fill="#eeeeee" stroke="transparent" points="3269.5,-2071 3269.5,-2105 3976.5,-2105 3976.5,-2071 3269.5,-2071"/>
<polygon fill="none" stroke="black" points="3269.5,-2071 3269.5,-2105 3976.5,-2105 3976.5,-2071 3269.5,-2071"/>
<text text-anchor="start" x="3578" y="-2091.8" font-family="Times,serif" font-weight="bold" font-size="14.00">«interface»</text>
<text text-anchor="start" x="3559.5" y="-2077.8" font-family="Times,serif" font-weight="bold" font-size="14.00">LoaderInterface</text>
<polygon fill="none" stroke="black" points="3269.5,-2065 3269.5,-2071 3976.5,-2071 3976.5,-2065 3269.5,-2065"/>
<polygon fill="none" stroke="black" points="3269.5,-1983 3269.5,-2065 3976.5,-2065 3976.5,-1983 3269.5,-1983"/>
<text text-anchor="start" x="3274.5" y="-2048.8" font-family="Times,serif" font-size="14.00">+ «abstract» load(resource, type : string = «unknown»)</text>
<text text-anchor="start" x="3274.5" y="-2029.8" font-family="Times,serif" font-size="14.00">+ «abstract» supports(resource, type : string = «unknown»)</text>
<text text-anchor="start" x="3274.5" y="-2010.8" font-family="Times,serif" font-size="14.00">+ «abstract» getResolver()</text>
<text text-anchor="start" x="3274.5" y="-1991.8" font-family="Times,serif" font-size="14.00">+ «abstract» setResolver(resolver : Symfony\Component\Config\Loader\LoaderResolverInterface)</text>
</g>
<!-- Symfony\\Component\\Config\\Loader\\Loader&#45;&gt;Symfony\\Component\\Config\\Loader\\LoaderInterface -->
<g id="edge7" class="edge">
<title>Symfony\\Component\\Config\\Loader\\Loader&#45;&gt;Symfony\\Component\\Config\\Loader\\LoaderInterface</title>
<path fill="none" stroke="black" stroke-dasharray="5,2" d="M3156.63,-2044C3187.63,-2044 3219.26,-2044 3250.7,-2044"/>
<polygon fill="none" stroke="black" points="3250.9,-2047.5 3260.9,-2044 3250.9,-2040.5 3250.9,-2047.5"/>
</g>
</g>
</svg>
