<?xml version="1.0" encoding="UTF-8" standalone="no"?>
<!DOCTYPE svg PUBLIC "-//W3C//DTD SVG 1.1//EN"
 "http://www.w3.org/Graphics/SVG/1.1/DTD/svg11.dtd">
<!-- Generated by graphviz version 2.43.0 (0)
 -->
<!-- Title: %3 Pages: 1 -->
<svg width="1362pt" height="740pt"
 viewBox="0.00 0.00 1362.00 740.00" xmlns="http://www.w3.org/2000/svg" xmlns:xlink="http://www.w3.org/1999/xlink">
<g id="graph0" class="graph" transform="scale(1 1) rotate(0) translate(4 736)">
<title>%3</title>
<g id="clust1" class="cluster">
<title>cluster_0</title>
<polygon fill="transparent" stroke="black" points="358,-564.5 358,-695.5 796,-695.5 796,-564.5 358,-564.5"/>
<text text-anchor="middle" x="577" y="-680.3" font-family="Times,serif" font-size="14.00">Bartlett\UmlWriter\Config\Loader</text>
</g>
<g id="clust2" class="cluster">
<title>cluster_1</title>
<polygon fill="transparent" stroke="black" points="8,-8 8,-528 1146,-528 1146,-8 8,-8"/>
<text text-anchor="middle" x="577" y="-512.8" font-family="Times,serif" font-size="14.00">Symfony\Component\Config\Loader</text>
</g>
<g id="clust3" class="cluster">
<title>cluster_2</title>
<polygon fill="transparent" stroke="black" points="804,-536 804,-724 1346,-724 1346,-536 804,-536"/>
<text text-anchor="middle" x="1075" y="-708.8" font-family="Times,serif" font-size="14.00">Bartlett\UmlWriter\Service</text>
</g>
<!-- Bartlett\\UmlWriter\\Config\\Loader\\YamlFileLoader -->
<g id="node1" class="node">
<title>Bartlett\\UmlWriter\\Config\\Loader\\YamlFileLoader</title>
<polygon fill="#fefece" stroke="transparent" points="787.5,-664.5 366.5,-664.5 366.5,-572.5 787.5,-572.5 787.5,-664.5"/>
<polygon fill="#eeeeee" stroke="transparent" points="375,-626.5 375,-660.5 780,-660.5 780,-626.5 375,-626.5"/>
<polygon fill="none" stroke="black" points="375,-626.5 375,-660.5 780,-660.5 780,-626.5 375,-626.5"/>
<text text-anchor="start" x="516.5" y="-633.3" font-family="Times,serif" font-weight="bold" font-size="14.00">YamlFileLoader</text>
<polygon fill="none" stroke="black" points="375,-620.5 375,-626.5 780,-626.5 780,-620.5 375,-620.5"/>
<polygon fill="none" stroke="black" points="375,-576.5 375,-620.5 780,-620.5 780,-576.5 375,-576.5"/>
<text text-anchor="start" x="380" y="-604.3" font-family="Times,serif" font-size="14.00">+ load(resource, type : string = «unknown») : ?mixed</text>
<text text-anchor="start" x="380" y="-585.3" font-family="Times,serif" font-size="14.00">+ supports(resource, type : string = «unknown») : bool</text>
</g>
<!-- Symfony\\Component\\Config\\Loader\\FileLoader -->
<g id="node2" class="node">
<title>Symfony\\Component\\Config\\Loader\\FileLoader</title>
<polygon fill="#fefece" stroke="transparent" points="1138,-497 16,-497 16,-367 1138,-367 1138,-497"/>
<polygon fill="#eeeeee" stroke="transparent" points="24,-459 24,-493 1130,-493 1130,-459 24,-459"/>
<polygon fill="none" stroke="black" points="24,-459 24,-493 1130,-493 1130,-459 24,-459"/>
<text text-anchor="start" x="535" y="-479.8" font-family="Times,serif" font-weight="bold" font-size="14.00">«abstract»</text>
<text text-anchor="start" x="535" y="-465.8" font-family="Times,serif" font-weight="bold" font-size="14.00">FileLoader</text>
<polygon fill="none" stroke="black" points="24,-453 24,-459 1130,-459 1130,-453 24,-453"/>
<polygon fill="none" stroke="black" points="24,-371 24,-453 1130,-453 1130,-371 24,-371"/>
<text text-anchor="start" x="29" y="-436.8" font-family="Times,serif" font-size="14.00">+ __construct(locator : Symfony\Component\Config\FileLocatorInterface, env : string = «unknown»)</text>
<text text-anchor="start" x="29" y="-417.8" font-family="Times,serif" font-size="14.00">+ setCurrentDir(dir : string)</text>
<text text-anchor="start" x="29" y="-398.8" font-family="Times,serif" font-size="14.00">+ getLocator()</text>
<text text-anchor="start" x="29" y="-379.8" font-family="Times,serif" font-size="14.00">+ import(resource : mixed, type : string = «unknown», ignoreErrors : bool = false, sourceResource : string = «unknown», exclude : mixed = «unknown»)</text>
</g>
<!-- Bartlett\\UmlWriter\\Config\\Loader\\YamlFileLoader&#45;&gt;Symfony\\Component\\Config\\Loader\\FileLoader -->
<g id="edge3" class="edge">
<title>Bartlett\\UmlWriter\\Config\\Loader\\YamlFileLoader&#45;&gt;Symfony\\Component\\Config\\Loader\\FileLoader</title>
<path fill="none" stroke="black" d="M577,-572.37C577,-552.75 577,-529.26 577,-507.19"/>
<polygon fill="none" stroke="black" points="580.5,-507.18 577,-497.18 573.5,-507.18 580.5,-507.18"/>
</g>
<!-- Symfony\\Component\\Config\\Loader\\Loader -->
<g id="node3" class="node">
<title>Symfony\\Component\\Config\\Loader\\Loader</title>
<polygon fill="#fefece" stroke="transparent" points="898.5,-331 255.5,-331 255.5,-182 898.5,-182 898.5,-331"/>
<polygon fill="#eeeeee" stroke="transparent" points="264,-292.5 264,-326.5 891,-326.5 891,-292.5 264,-292.5"/>
<polygon fill="none" stroke="black" points="264,-292.5 264,-326.5 891,-326.5 891,-292.5 264,-292.5"/>
<text text-anchor="start" x="535.5" y="-313.3" font-family="Times,serif" font-weight="bold" font-size="14.00">«abstract»</text>
<text text-anchor="start" x="550" y="-299.3" font-family="Times,serif" font-weight="bold" font-size="14.00">Loader</text>
<polygon fill="none" stroke="black" points="264,-286.5 264,-292.5 891,-292.5 891,-286.5 264,-286.5"/>
<polygon fill="none" stroke="black" points="264,-185.5 264,-286.5 891,-286.5 891,-185.5 264,-185.5"/>
<text text-anchor="start" x="269" y="-270.3" font-family="Times,serif" font-size="14.00">+ __construct(env : string = «unknown»)</text>
<text text-anchor="start" x="269" y="-251.3" font-family="Times,serif" font-size="14.00">+ getResolver()</text>
<text text-anchor="start" x="269" y="-232.3" font-family="Times,serif" font-size="14.00">+ setResolver(resolver : Symfony\Component\Config\Loader\LoaderResolverInterface)</text>
<text text-anchor="start" x="269" y="-213.3" font-family="Times,serif" font-size="14.00">+ import(resource : mixed, type : string = «unknown»)</text>
<text text-anchor="start" x="269" y="-194.3" font-family="Times,serif" font-size="14.00">+ resolve(resource : mixed, type : string = «unknown»)</text>
</g>
<!-- Symfony\\Component\\Config\\Loader\\FileLoader&#45;&gt;Symfony\\Component\\Config\\Loader\\Loader -->
<g id="edge2" class="edge">
<title>Symfony\\Component\\Config\\Loader\\FileLoader&#45;&gt;Symfony\\Component\\Config\\Loader\\Loader</title>
<path fill="none" stroke="black" d="M577,-366.89C577,-358.49 577,-349.79 577,-341.14"/>
<polygon fill="none" stroke="black" points="580.5,-341.01 577,-331.01 573.5,-341.01 580.5,-341.01"/>
</g>
<!-- Symfony\\Component\\Config\\Loader\\LoaderInterface -->
<g id="node4" class="node">
<title>Symfony\\Component\\Config\\Loader\\LoaderInterface</title>
<polygon fill="#fefece" stroke="transparent" points="938.5,-146 215.5,-146 215.5,-16 938.5,-16 938.5,-146"/>
<polygon fill="#eeeeee" stroke="transparent" points="224,-108 224,-142 931,-142 931,-108 224,-108"/>
<polygon fill="none" stroke="black" points="224,-108 224,-142 931,-142 931,-108 224,-108"/>
<text text-anchor="start" x="532.5" y="-128.8" font-family="Times,serif" font-weight="bold" font-size="14.00">«interface»</text>
<text text-anchor="start" x="514" y="-114.8" font-family="Times,serif" font-weight="bold" font-size="14.00">LoaderInterface</text>
<polygon fill="none" stroke="black" points="224,-102 224,-108 931,-108 931,-102 224,-102"/>
<polygon fill="none" stroke="black" points="224,-20 224,-102 931,-102 931,-20 224,-20"/>
<text text-anchor="start" x="229" y="-85.8" font-family="Times,serif" font-size="14.00">+ «abstract» load(resource, type : string = «unknown»)</text>
<text text-anchor="start" x="229" y="-66.8" font-family="Times,serif" font-size="14.00">+ «abstract» supports(resource, type : string = «unknown»)</text>
<text text-anchor="start" x="229" y="-47.8" font-family="Times,serif" font-size="14.00">+ «abstract» getResolver()</text>
<text text-anchor="start" x="229" y="-28.8" font-family="Times,serif" font-size="14.00">+ «abstract» setResolver(resolver : Symfony\Component\Config\Loader\LoaderResolverInterface)</text>
</g>
<!-- Symfony\\Component\\Config\\Loader\\Loader&#45;&gt;Symfony\\Component\\Config\\Loader\\LoaderInterface -->
<g id="edge1" class="edge">
<title>Symfony\\Component\\Config\\Loader\\Loader&#45;&gt;Symfony\\Component\\Config\\Loader\\LoaderInterface</title>
<path fill="none" stroke="black" stroke-dasharray="5,2" d="M577,-181.92C577,-173.45 577,-164.81 577,-156.33"/>
<polygon fill="none" stroke="black" points="580.5,-156.09 577,-146.09 573.5,-156.09 580.5,-156.09"/>
</g>
<!-- Bartlett\\UmlWriter\\Service\\ConfigurationHandler -->
<g id="node5" class="node">
<title>Bartlett\\UmlWriter\\Service\\ConfigurationHandler</title>
<polygon fill="#fefece" stroke="transparent" points="1337.5,-693 812.5,-693 812.5,-544 1337.5,-544 1337.5,-693"/>
<polygon fill="#eeeeee" stroke="transparent" points="821,-654.5 821,-688.5 1330,-688.5 1330,-654.5 821,-654.5"/>
<polygon fill="none" stroke="black" points="821,-654.5 821,-688.5 1330,-688.5 1330,-654.5 821,-654.5"/>
<text text-anchor="start" x="988" y="-661.3" font-family="Times,serif" font-weight="bold" font-size="14.00">ConfigurationHandler</text>
<polygon fill="none" stroke="black" points="821,-648.5 821,-654.5 1330,-654.5 1330,-648.5 821,-648.5"/>
<polygon fill="none" stroke="black" points="821,-547.5 821,-648.5 1330,-648.5 1330,-547.5 821,-547.5"/>
<text text-anchor="start" x="826" y="-632.3" font-family="Times,serif" font-size="14.00">+ __construct(filename : string)</text>
<text text-anchor="start" x="826" y="-613.3" font-family="Times,serif" font-size="14.00">+ filename() : ?string</text>
<text text-anchor="start" x="826" y="-594.3" font-family="Times,serif" font-size="14.00">+ toArray() : array</text>
<text text-anchor="start" x="826" y="-575.3" font-family="Times,serif" font-size="14.00">+ toFlat() : array</text>
<text text-anchor="start" x="826" y="-556.3" font-family="Times,serif" font-size="14.00">+ getValueByKey(key : string, default : mixed = «unknown») : ?mixed</text>
</g>
</g>
</svg>
