<?xml version="1.0" encoding="UTF-8" standalone="no"?>
<!DOCTYPE svg PUBLIC "-//W3C//DTD SVG 1.1//EN"
 "http://www.w3.org/Graphics/SVG/1.1/DTD/svg11.dtd">
<!-- Generated by graphviz version 2.43.0 (0)
 -->
<!-- Title: %3 Pages: 1 -->
<svg width="2488pt" height="1167pt"
 viewBox="0.00 0.00 2488.00 1167.00" xmlns="http://www.w3.org/2000/svg" xmlns:xlink="http://www.w3.org/1999/xlink">
<g id="graph0" class="graph" transform="scale(1 1) rotate(0) translate(4 1163)">
<title>%3</title>
<g id="clust1" class="cluster">
<title>cluster_0</title>
<polygon fill="transparent" stroke="black" points="41,-938 41,-1151 1203,-1151 1203,-938 41,-938"/>
<text text-anchor="middle" x="622" y="-1135.8" font-family="Times,serif" font-size="14.00">Bartlett\UmlWriter\Console</text>
</g>
<g id="clust2" class="cluster">
<title>cluster_1</title>
<polygon fill="transparent" stroke="black" points="8,-131 8,-927 1236,-927 1236,-131 8,-131"/>
<text text-anchor="middle" x="622" y="-911.8" font-family="Times,serif" font-size="14.00">Symfony\Component\Console</text>
</g>
<g id="clust3" class="cluster">
<title>cluster_2</title>
<polygon fill="transparent" stroke="black" points="517,-8 517,-120 728,-120 728,-8 517,-8"/>
<text text-anchor="middle" x="622.5" y="-104.8" font-family="Times,serif" font-size="14.00">Symfony\Contracts\Service</text>
</g>
<g id="clust4" class="cluster">
<title>cluster_3</title>
<polygon fill="transparent" stroke="black" points="1284,-976 1284,-1113 2432,-1113 2432,-976 1284,-976"/>
<text text-anchor="middle" x="1858" y="-1097.8" font-family="Times,serif" font-size="14.00">Bartlett\UmlWriter\Console\Command</text>
</g>
<g id="clust5" class="cluster">
<title>cluster_4</title>
<polygon fill="transparent" stroke="black" points="1244,-128 1244,-930 2472,-930 2472,-128 1244,-128"/>
<text text-anchor="middle" x="1858" y="-914.8" font-family="Times,serif" font-size="14.00">Symfony\Component\Console\Command</text>
</g>
<!-- Bartlett\\UmlWriter\\Console\\Application -->
<g id="node1" class="node">
<title>Bartlett\\UmlWriter\\Console\\Application</title>
<polygon fill="#fefece" stroke="transparent" points="1195,-1120 49,-1120 49,-946 1195,-946 1195,-1120"/>
<polygon fill="#eeeeee" stroke="transparent" points="57,-1082 57,-1116 1187,-1116 1187,-1082 57,-1082"/>
<polygon fill="none" stroke="black" points="57,-1082 57,-1116 1187,-1116 1187,-1082 57,-1082"/>
<text text-anchor="start" x="577" y="-1088.8" font-family="Times,serif" font-weight="bold" font-size="14.00">Application</text>
<polygon fill="none" stroke="black" points="57,-1038 57,-1082 1187,-1082 1187,-1038 57,-1038"/>
<text text-anchor="start" x="62" y="-1065.8" font-family="Times,serif" font-size="14.00">+ «static» NAME : string = &quot;umlWriter&quot; {readOnly}</text>
<text text-anchor="start" x="62" y="-1046.8" font-family="Times,serif" font-size="14.00">+ «static» VERSION : string = &quot;3\.1\.1&quot; {readOnly}</text>
<polygon fill="none" stroke="black" points="57,-1032 57,-1038 1187,-1038 1187,-1032 57,-1032"/>
<polygon fill="none" stroke="black" points="57,-950 57,-1032 1187,-1032 1187,-950 57,-950"/>
<text text-anchor="start" x="62" y="-1015.8" font-family="Times,serif" font-size="14.00">+ __construct(container : Psr\Container\ContainerInterface, version : string = VERSION)</text>
<text text-anchor="start" x="62" y="-996.8" font-family="Times,serif" font-size="14.00">+ getHelp() : string</text>
<text text-anchor="start" x="62" y="-977.8" font-family="Times,serif" font-size="14.00">+ doRun(input : Symfony\Component\Console\Input\InputInterface, output : Symfony\Component\Console\Output\OutputInterface) : int</text>
<text text-anchor="start" x="62" y="-958.8" font-family="Times,serif" font-size="14.00">+ run(input : Symfony\Component\Console\Input\InputInterface = «unknown», output : Symfony\Component\Console\Output\OutputInterface = «unknown»)</text>
</g>
<!-- Symfony\\Component\\Console\\Application -->
<g id="node2" class="node">
<title>Symfony\\Component\\Console\\Application</title>
<polygon fill="#fefece" stroke="transparent" points="1227.5,-896 16.5,-896 16.5,-139 1227.5,-139 1227.5,-896"/>
<polygon fill="#eeeeee" stroke="transparent" points="25,-857.5 25,-891.5 1220,-891.5 1220,-857.5 25,-857.5"/>
<polygon fill="none" stroke="black" points="25,-857.5 25,-891.5 1220,-891.5 1220,-857.5 25,-857.5"/>
<text text-anchor="start" x="577.5" y="-864.3" font-family="Times,serif" font-weight="bold" font-size="14.00">Application</text>
<polygon fill="none" stroke="black" points="25,-851.5 25,-857.5 1220,-857.5 1220,-851.5 25,-851.5"/>
<polygon fill="none" stroke="black" points="25,-142.5 25,-851.5 1220,-851.5 1220,-142.5 25,-142.5"/>
<text text-anchor="start" x="30" y="-835.3" font-family="Times,serif" font-size="14.00">+ __construct(name : string = &#39;UNKNOWN&#39;, version : string = &#39;UNKNOWN&#39;)</text>
<text text-anchor="start" x="30" y="-816.3" font-family="Times,serif" font-size="14.00">+ setDispatcher(dispatcher : Symfony\Contracts\EventDispatcher\EventDispatcherInterface)</text>
<text text-anchor="start" x="30" y="-797.3" font-family="Times,serif" font-size="14.00">+ setCommandLoader(commandLoader : Symfony\Component\Console\CommandLoader\CommandLoaderInterface)</text>
<text text-anchor="start" x="30" y="-778.3" font-family="Times,serif" font-size="14.00">+ getSignalRegistry() : Symfony\Component\Console\SignalRegistry\SignalRegistry</text>
<text text-anchor="start" x="30" y="-759.3" font-family="Times,serif" font-size="14.00">+ setSignalsToDispatchEvent(signalsToDispatchEvent : int = «unknown»)</text>
<text text-anchor="start" x="30" y="-740.3" font-family="Times,serif" font-size="14.00">+ run(input : Symfony\Component\Console\Input\InputInterface = «unknown», output : Symfony\Component\Console\Output\OutputInterface = «unknown»)</text>
<text text-anchor="start" x="30" y="-721.3" font-family="Times,serif" font-size="14.00">+ doRun(input : Symfony\Component\Console\Input\InputInterface, output : Symfony\Component\Console\Output\OutputInterface)</text>
<text text-anchor="start" x="30" y="-702.3" font-family="Times,serif" font-size="14.00">+ reset()</text>
<text text-anchor="start" x="30" y="-683.3" font-family="Times,serif" font-size="14.00">+ setHelperSet(helperSet : Symfony\Component\Console\Helper\HelperSet)</text>
<text text-anchor="start" x="30" y="-664.3" font-family="Times,serif" font-size="14.00">+ getHelperSet()</text>
<text text-anchor="start" x="30" y="-645.3" font-family="Times,serif" font-size="14.00">+ setDefinition(definition : Symfony\Component\Console\Input\InputDefinition)</text>
<text text-anchor="start" x="30" y="-626.3" font-family="Times,serif" font-size="14.00">+ getDefinition()</text>
<text text-anchor="start" x="30" y="-607.3" font-family="Times,serif" font-size="14.00">+ complete(input : Symfony\Component\Console\Completion\CompletionInput, suggestions : Symfony\Component\Console\Completion\CompletionSuggestions) : void</text>
<text text-anchor="start" x="30" y="-588.3" font-family="Times,serif" font-size="14.00">+ getHelp()</text>
<text text-anchor="start" x="30" y="-569.3" font-family="Times,serif" font-size="14.00">+ areExceptionsCaught()</text>
<text text-anchor="start" x="30" y="-550.3" font-family="Times,serif" font-size="14.00">+ setCatchExceptions(boolean : bool)</text>
<text text-anchor="start" x="30" y="-531.3" font-family="Times,serif" font-size="14.00">+ isAutoExitEnabled()</text>
<text text-anchor="start" x="30" y="-512.3" font-family="Times,serif" font-size="14.00">+ setAutoExit(boolean : bool)</text>
<text text-anchor="start" x="30" y="-493.3" font-family="Times,serif" font-size="14.00">+ getName()</text>
<text text-anchor="start" x="30" y="-474.3" font-family="Times,serif" font-size="14.00">+ setName(name : string)</text>
<text text-anchor="start" x="30" y="-455.3" font-family="Times,serif" font-size="14.00">+ getVersion()</text>
<text text-anchor="start" x="30" y="-436.3" font-family="Times,serif" font-size="14.00">+ setVersion(version : string)</text>
<text text-anchor="start" x="30" y="-417.3" font-family="Times,serif" font-size="14.00">+ getLongVersion()</text>
<text text-anchor="start" x="30" y="-398.3" font-family="Times,serif" font-size="14.00">+ register(name : string)</text>
<text text-anchor="start" x="30" y="-379.3" font-family="Times,serif" font-size="14.00">+ addCommands(commands : array)</text>
<text text-anchor="start" x="30" y="-360.3" font-family="Times,serif" font-size="14.00">+ add(command : Symfony\Component\Console\Command\Command)</text>
<text text-anchor="start" x="30" y="-341.3" font-family="Times,serif" font-size="14.00">+ get(name : string)</text>
<text text-anchor="start" x="30" y="-322.3" font-family="Times,serif" font-size="14.00">+ has(name : string)</text>
<text text-anchor="start" x="30" y="-303.3" font-family="Times,serif" font-size="14.00">+ getNamespaces()</text>
<text text-anchor="start" x="30" y="-284.3" font-family="Times,serif" font-size="14.00">+ findNamespace(namespace : string)</text>
<text text-anchor="start" x="30" y="-265.3" font-family="Times,serif" font-size="14.00">+ find(name : string)</text>
<text text-anchor="start" x="30" y="-246.3" font-family="Times,serif" font-size="14.00">+ all(namespace : string = «unknown»)</text>
<text text-anchor="start" x="30" y="-227.3" font-family="Times,serif" font-size="14.00">+ «static» getAbbreviations(names : array)</text>
<text text-anchor="start" x="30" y="-208.3" font-family="Times,serif" font-size="14.00">+ renderThrowable(e : Throwable, output : Symfony\Component\Console\Output\OutputInterface) : void</text>
<text text-anchor="start" x="30" y="-189.3" font-family="Times,serif" font-size="14.00">+ extractNamespace(name : string, limit : int = «unknown»)</text>
<text text-anchor="start" x="30" y="-170.3" font-family="Times,serif" font-size="14.00">+ setDefaultCommand(commandName : string, isSingleCommand : bool = false)</text>
<text text-anchor="start" x="30" y="-151.3" font-family="Times,serif" font-size="14.00">+ isSingleCommand() : bool</text>
</g>
<!-- Bartlett\\UmlWriter\\Console\\Application&#45;&gt;Symfony\\Component\\Console\\Application -->
<g id="edge2" class="edge">
<title>Bartlett\\UmlWriter\\Console\\Application&#45;&gt;Symfony\\Component\\Console\\Application</title>
<path fill="none" stroke="black" d="M622,-945.76C622,-933.58 622,-920.46 622,-906.65"/>
<polygon fill="none" stroke="black" points="625.5,-906.47 622,-896.47 618.5,-906.47 625.5,-906.47"/>
</g>
<!-- Symfony\\Contracts\\Service\\ResetInterface -->
<g id="node3" class="node">
<title>Symfony\\Contracts\\Service\\ResetInterface</title>
<polygon fill="#fefece" stroke="transparent" points="707.5,-89 536.5,-89 536.5,-16 707.5,-16 707.5,-89"/>
<polygon fill="#eeeeee" stroke="transparent" points="545,-50.5 545,-84.5 700,-84.5 700,-50.5 545,-50.5"/>
<polygon fill="none" stroke="black" points="545,-50.5 545,-84.5 700,-84.5 700,-50.5 545,-50.5"/>
<text text-anchor="start" x="577.5" y="-71.3" font-family="Times,serif" font-weight="bold" font-size="14.00">«interface»</text>
<text text-anchor="start" x="563.5" y="-57.3" font-family="Times,serif" font-weight="bold" font-size="14.00">ResetInterface</text>
<polygon fill="none" stroke="black" points="545,-44.5 545,-50.5 700,-50.5 700,-44.5 545,-44.5"/>
<polygon fill="none" stroke="black" points="545,-19.5 545,-44.5 700,-44.5 700,-19.5 545,-19.5"/>
<text text-anchor="start" x="550" y="-28.3" font-family="Times,serif" font-size="14.00">+ «abstract» reset()</text>
</g>
<!-- Symfony\\Component\\Console\\Application&#45;&gt;Symfony\\Contracts\\Service\\ResetInterface -->
<g id="edge1" class="edge">
<title>Symfony\\Component\\Console\\Application&#45;&gt;Symfony\\Contracts\\Service\\ResetInterface</title>
<path fill="none" stroke="black" stroke-dasharray="5,2" d="M622,-138.96C622,-124.28 622,-110.93 622,-99.37"/>
<polygon fill="none" stroke="black" points="625.5,-99.26 622,-89.26 618.5,-99.26 625.5,-99.26"/>
</g>
<!-- Bartlett\\UmlWriter\\Console\\Command\\ClassDiagramCommand -->
<g id="node4" class="node">
<title>Bartlett\\UmlWriter\\Console\\Command\\ClassDiagramCommand</title>
<polygon fill="#fefece" stroke="transparent" points="2423.5,-1082 1292.5,-1082 1292.5,-984 2423.5,-984 2423.5,-1082"/>
<polygon fill="#eeeeee" stroke="transparent" points="1301,-1044 1301,-1078 2416,-1078 2416,-1044 1301,-1044"/>
<polygon fill="none" stroke="black" points="1301,-1044 1301,-1078 2416,-1078 2416,-1044 1301,-1044"/>
<text text-anchor="start" x="1763.5" y="-1050.8" font-family="Times,serif" font-weight="bold" font-size="14.00">ClassDiagramCommand</text>
<polygon fill="none" stroke="black" points="1301,-1019 1301,-1044 2416,-1044 2416,-1019 1301,-1019"/>
<text text-anchor="start" x="1306" y="-1027.8" font-family="Times,serif" font-size="14.00">+ «static» NAME : string = &quot;diagram\:class&quot; {readOnly}</text>
<polygon fill="none" stroke="black" points="1301,-1013 1301,-1019 2416,-1019 2416,-1013 1301,-1013"/>
<polygon fill="none" stroke="black" points="1301,-988 1301,-1013 2416,-1013 2416,-988 1301,-988"/>
<text text-anchor="start" x="1306" y="-996.8" font-family="Times,serif" font-size="14.00">+ __construct(renderer : Bartlett\UmlWriter\Service\ClassDiagramRenderer, generatorFactory : Bartlett\UmlWriter\Generator\GeneratorFactoryInterface)</text>
</g>
<!-- Symfony\\Component\\Console\\Command\\Command -->
<g id="node5" class="node">
<title>Symfony\\Component\\Console\\Command\\Command</title>
<polygon fill="#fefece" stroke="transparent" points="2463.5,-899 1252.5,-899 1252.5,-136 2463.5,-136 2463.5,-899"/>
<polygon fill="#eeeeee" stroke="transparent" points="1261,-860.5 1261,-894.5 2456,-894.5 2456,-860.5 1261,-860.5"/>
<polygon fill="none" stroke="black" points="1261,-860.5 1261,-894.5 2456,-894.5 2456,-860.5 1261,-860.5"/>
<text text-anchor="start" x="1818.5" y="-867.3" font-family="Times,serif" font-weight="bold" font-size="14.00">Command</text>
<polygon fill="none" stroke="black" points="1261,-797.5 1261,-860.5 2456,-860.5 2456,-797.5 1261,-797.5"/>
<text text-anchor="start" x="1266" y="-844.3" font-family="Times,serif" font-size="14.00">+ «static» SUCCESS : int = 0 {readOnly}</text>
<text text-anchor="start" x="1266" y="-825.3" font-family="Times,serif" font-size="14.00">+ «static» FAILURE : int = 1 {readOnly}</text>
<text text-anchor="start" x="1266" y="-806.3" font-family="Times,serif" font-size="14.00">+ «static» INVALID : int = 2 {readOnly}</text>
<polygon fill="none" stroke="black" points="1261,-791.5 1261,-797.5 2456,-797.5 2456,-791.5 1261,-791.5"/>
<polygon fill="none" stroke="black" points="1261,-139.5 1261,-791.5 2456,-791.5 2456,-139.5 1261,-139.5"/>
<text text-anchor="start" x="1266" y="-775.3" font-family="Times,serif" font-size="14.00">+ «static» getDefaultName()</text>
<text text-anchor="start" x="1266" y="-756.3" font-family="Times,serif" font-size="14.00">+ «static» getDefaultDescription() : ?string</text>
<text text-anchor="start" x="1266" y="-737.3" font-family="Times,serif" font-size="14.00">+ __construct(name : string = «unknown»)</text>
<text text-anchor="start" x="1266" y="-718.3" font-family="Times,serif" font-size="14.00">+ ignoreValidationErrors()</text>
<text text-anchor="start" x="1266" y="-699.3" font-family="Times,serif" font-size="14.00">+ setApplication(application : Symfony\Component\Console\Application = «unknown»)</text>
<text text-anchor="start" x="1266" y="-680.3" font-family="Times,serif" font-size="14.00">+ setHelperSet(helperSet : Symfony\Component\Console\Helper\HelperSet)</text>
<text text-anchor="start" x="1266" y="-661.3" font-family="Times,serif" font-size="14.00">+ getHelperSet()</text>
<text text-anchor="start" x="1266" y="-642.3" font-family="Times,serif" font-size="14.00">+ getApplication()</text>
<text text-anchor="start" x="1266" y="-623.3" font-family="Times,serif" font-size="14.00">+ isEnabled()</text>
<text text-anchor="start" x="1266" y="-604.3" font-family="Times,serif" font-size="14.00">+ run(input : Symfony\Component\Console\Input\InputInterface, output : Symfony\Component\Console\Output\OutputInterface)</text>
<text text-anchor="start" x="1266" y="-585.3" font-family="Times,serif" font-size="14.00">+ complete(input : Symfony\Component\Console\Completion\CompletionInput, suggestions : Symfony\Component\Console\Completion\CompletionSuggestions) : void</text>
<text text-anchor="start" x="1266" y="-566.3" font-family="Times,serif" font-size="14.00">+ setCode(code : callable)</text>
<text text-anchor="start" x="1266" y="-547.3" font-family="Times,serif" font-size="14.00">+ mergeApplicationDefinition(mergeArgs : bool = true)</text>
<text text-anchor="start" x="1266" y="-528.3" font-family="Times,serif" font-size="14.00">+ setDefinition(definition : mixed)</text>
<text text-anchor="start" x="1266" y="-509.3" font-family="Times,serif" font-size="14.00">+ getDefinition()</text>
<text text-anchor="start" x="1266" y="-490.3" font-family="Times,serif" font-size="14.00">+ getNativeDefinition()</text>
<text text-anchor="start" x="1266" y="-471.3" font-family="Times,serif" font-size="14.00">+ addArgument(name : string, mode : int = «unknown», description : string = &#39;&#39;, default = «unknown»)</text>
<text text-anchor="start" x="1266" y="-452.3" font-family="Times,serif" font-size="14.00">+ addOption(name : string, shortcut = «unknown», mode : int = «unknown», description : string = &#39;&#39;, default = «unknown»)</text>
<text text-anchor="start" x="1266" y="-433.3" font-family="Times,serif" font-size="14.00">+ setName(name : string)</text>
<text text-anchor="start" x="1266" y="-414.3" font-family="Times,serif" font-size="14.00">+ setProcessTitle(title : string)</text>
<text text-anchor="start" x="1266" y="-395.3" font-family="Times,serif" font-size="14.00">+ getName()</text>
<text text-anchor="start" x="1266" y="-376.3" font-family="Times,serif" font-size="14.00">+ setHidden(hidden : bool)</text>
<text text-anchor="start" x="1266" y="-357.3" font-family="Times,serif" font-size="14.00">+ isHidden()</text>
<text text-anchor="start" x="1266" y="-338.3" font-family="Times,serif" font-size="14.00">+ setDescription(description : string)</text>
<text text-anchor="start" x="1266" y="-319.3" font-family="Times,serif" font-size="14.00">+ getDescription()</text>
<text text-anchor="start" x="1266" y="-300.3" font-family="Times,serif" font-size="14.00">+ setHelp(help : string)</text>
<text text-anchor="start" x="1266" y="-281.3" font-family="Times,serif" font-size="14.00">+ getHelp()</text>
<text text-anchor="start" x="1266" y="-262.3" font-family="Times,serif" font-size="14.00">+ getProcessedHelp()</text>
<text text-anchor="start" x="1266" y="-243.3" font-family="Times,serif" font-size="14.00">+ setAliases(aliases : iterable)</text>
<text text-anchor="start" x="1266" y="-224.3" font-family="Times,serif" font-size="14.00">+ getAliases()</text>
<text text-anchor="start" x="1266" y="-205.3" font-family="Times,serif" font-size="14.00">+ getSynopsis(short : bool = false)</text>
<text text-anchor="start" x="1266" y="-186.3" font-family="Times,serif" font-size="14.00">+ addUsage(usage : string)</text>
<text text-anchor="start" x="1266" y="-167.3" font-family="Times,serif" font-size="14.00">+ getUsages()</text>
<text text-anchor="start" x="1266" y="-148.3" font-family="Times,serif" font-size="14.00">+ getHelper(name : string)</text>
</g>
<!-- Bartlett\\UmlWriter\\Console\\Command\\ClassDiagramCommand&#45;&gt;Symfony\\Component\\Console\\Command\\Command -->
<g id="edge3" class="edge">
<title>Bartlett\\UmlWriter\\Console\\Command\\ClassDiagramCommand&#45;&gt;Symfony\\Component\\Console\\Command\\Command</title>
<path fill="none" stroke="black" d="M1858,-983.69C1858,-963.42 1858,-937.89 1858,-909.27"/>
<polygon fill="none" stroke="black" points="1861.5,-909.02 1858,-899.02 1854.5,-909.02 1861.5,-909.02"/>
</g>
</g>
</svg>
