<?xml version="1.0" encoding="UTF-8" standalone="no"?>
<!DOCTYPE svg PUBLIC "-//W3C//DTD SVG 1.1//EN"
 "http://www.w3.org/Graphics/SVG/1.1/DTD/svg11.dtd">
<!-- Generated by graphviz version 2.43.0 (0)
 -->
<!-- Title: %3 Pages: 1 -->
<svg width="6412pt" height="1367pt"
 viewBox="0.00 0.00 6412.00 1367.00" xmlns="http://www.w3.org/2000/svg" xmlns:xlink="http://www.w3.org/1999/xlink">
<g id="graph0" class="graph" transform="scale(1 1) rotate(0) translate(4 1363)">
<title>%3</title>
<g id="clust1" class="cluster">
<title>cluster_0</title>
<polygon fill="transparent" stroke="black" points="8,-202.5 8,-1313 804,-1313 804,-202.5 8,-202.5"/>
<text text-anchor="middle" x="406" y="-1297.8" font-family="Times,serif" font-size="14.00">Bartlett\UmlWriter\Generator</text>
</g>
<g id="clust2" class="cluster">
<title>cluster_1</title>
<polygon fill="transparent" stroke="black" points="812,-1163 812,-1351 2794,-1351 2794,-1163 812,-1163"/>
<text text-anchor="middle" x="1803" y="-1335.8" font-family="Times,serif" font-size="14.00">Bartlett\UmlWriter\Service</text>
</g>
<g id="clust3" class="cluster">
<title>cluster_2</title>
<polygon fill="transparent" stroke="black" points="851,-691.5 851,-822.5 1095,-822.5 1095,-691.5 851,-691.5"/>
<text text-anchor="middle" x="973" y="-807.3" font-family="Times,serif" font-size="14.00">Psr\Container</text>
</g>
<g id="clust4" class="cluster">
<title>cluster_3</title>
<polygon fill="transparent" stroke="black" points="2802,-1163 2802,-1351 3998,-1351 3998,-1163 2802,-1163"/>
<text text-anchor="middle" x="3400" y="-1335.8" font-family="Times,serif" font-size="14.00">Bartlett\UmlWriter\Console</text>
</g>
<g id="clust5" class="cluster">
<title>cluster_4</title>
<polygon fill="transparent" stroke="black" points="2786,-359 2786,-1155 4014,-1155 4014,-359 2786,-359"/>
<text text-anchor="middle" x="3400" y="-1139.8" font-family="Times,serif" font-size="14.00">Symfony\Component\Console</text>
</g>
<g id="clust6" class="cluster">
<title>cluster_5</title>
<polygon fill="transparent" stroke="black" points="3295,-212 3295,-324 3506,-324 3506,-212 3295,-212"/>
<text text-anchor="middle" x="3400.5" y="-308.8" font-family="Times,serif" font-size="14.00">Symfony\Contracts\Service</text>
</g>
<g id="clust7" class="cluster">
<title>cluster_6</title>
<polygon fill="transparent" stroke="black" points="4062,-1201 4062,-1313 5210,-1313 5210,-1201 4062,-1201"/>
<text text-anchor="middle" x="4636" y="-1297.8" font-family="Times,serif" font-size="14.00">Bartlett\UmlWriter\Console\Command</text>
</g>
<g id="clust8" class="cluster">
<title>cluster_7</title>
<polygon fill="transparent" stroke="black" points="4022,-387.5 4022,-1126.5 5250,-1126.5 5250,-387.5 4022,-387.5"/>
<text text-anchor="middle" x="4636" y="-1111.3" font-family="Times,serif" font-size="14.00">Symfony\Component\Console\Command</text>
</g>
<g id="clust9" class="cluster">
<title>cluster_8</title>
<polygon fill="transparent" stroke="black" points="5586,-1191.5 5586,-1322.5 6068,-1322.5 6068,-1191.5 5586,-1191.5"/>
<text text-anchor="middle" x="5827" y="-1307.3" font-family="Times,serif" font-size="14.00">Bartlett\UmlWriter\Config\Loader</text>
</g>
<g id="clust10" class="cluster">
<title>cluster_9</title>
<polygon fill="transparent" stroke="black" points="5258,-8 5258,-841.5 6396,-841.5 6396,-8 5258,-8"/>
<text text-anchor="middle" x="5827" y="-826.3" font-family="Times,serif" font-size="14.00">Symfony\Component\Config\Loader</text>
</g>
<!-- Bartlett\\UmlWriter\\Generator\\GeneratorFactory -->
<g id="node1" class="node">
<title>Bartlett\\UmlWriter\\Generator\\GeneratorFactory</title>
<polygon fill="#fefece" stroke="transparent" points="664.5,-1282 147.5,-1282 147.5,-1209 664.5,-1209 664.5,-1282"/>
<polygon fill="#eeeeee" stroke="transparent" points="156,-1243.5 156,-1277.5 657,-1277.5 657,-1243.5 156,-1243.5"/>
<polygon fill="none" stroke="black" points="156,-1243.5 156,-1277.5 657,-1277.5 657,-1243.5 156,-1243.5"/>
<text text-anchor="start" x="337" y="-1250.3" font-family="Times,serif" font-weight="bold" font-size="14.00">GeneratorFactory</text>
<polygon fill="none" stroke="black" points="156,-1237.5 156,-1243.5 657,-1243.5 657,-1237.5 156,-1237.5"/>
<polygon fill="none" stroke="black" points="156,-1212.5 156,-1237.5 657,-1237.5 657,-1212.5 156,-1212.5"/>
<text text-anchor="start" x="161" y="-1221.3" font-family="Times,serif" font-size="14.00">+ getGenerator() : Bartlett\GraphUml\Generator\GeneratorInterface</text>
</g>
<!-- Bartlett\\UmlWriter\\Generator\\AbstractGeneratorFactory -->
<g id="node2" class="node">
<title>Bartlett\\UmlWriter\\Generator\\AbstractGeneratorFactory</title>
<polygon fill="#fefece" stroke="transparent" points="755.5,-801 56.5,-801 56.5,-690 755.5,-690 755.5,-801"/>
<polygon fill="#eeeeee" stroke="transparent" points="65,-762.5 65,-796.5 748,-796.5 748,-762.5 65,-762.5"/>
<polygon fill="none" stroke="black" points="65,-762.5 65,-796.5 748,-796.5 748,-762.5 65,-762.5"/>
<text text-anchor="start" x="364.5" y="-783.3" font-family="Times,serif" font-weight="bold" font-size="14.00">«abstract»</text>
<text text-anchor="start" x="304" y="-769.3" font-family="Times,serif" font-weight="bold" font-size="14.00">AbstractGeneratorFactory</text>
<polygon fill="none" stroke="black" points="65,-756.5 65,-762.5 748,-762.5 748,-756.5 65,-756.5"/>
<polygon fill="none" stroke="black" points="65,-693.5 65,-756.5 748,-756.5 748,-693.5 65,-693.5"/>
<text text-anchor="start" x="70" y="-740.3" font-family="Times,serif" font-size="14.00">+ __construct(generator : string = &#39;&#39;)</text>
<text text-anchor="start" x="70" y="-721.3" font-family="Times,serif" font-size="14.00">+ createInstance(provider : string) : Bartlett\UmlWriter\Generator\GeneratorFactoryInterface</text>
<text text-anchor="start" x="70" y="-702.3" font-family="Times,serif" font-size="14.00">+ «abstract» getGenerator() : Bartlett\GraphUml\Generator\GeneratorInterface</text>
</g>
<!-- Bartlett\\UmlWriter\\Generator\\GeneratorFactory&#45;&gt;Bartlett\\UmlWriter\\Generator\\AbstractGeneratorFactory -->
<g id="edge2" class="edge">
<title>Bartlett\\UmlWriter\\Generator\\GeneratorFactory&#45;&gt;Bartlett\\UmlWriter\\Generator\\AbstractGeneratorFactory</title>
<path fill="none" stroke="black" d="M406,-1208.69C406,-1125.37 406,-917.6 406,-811.33"/>
<polygon fill="none" stroke="black" points="409.5,-811.06 406,-801.06 402.5,-811.06 409.5,-811.06"/>
</g>
<!-- Bartlett\\UmlWriter\\Generator\\GeneratorFactoryInterface -->
<g id="node3" class="node">
<title>Bartlett\\UmlWriter\\Generator\\GeneratorFactoryInterface</title>
<polygon fill="#fefece" stroke="transparent" points="796,-302.5 16,-302.5 16,-210.5 796,-210.5 796,-302.5"/>
<polygon fill="#eeeeee" stroke="transparent" points="24,-264.5 24,-298.5 788,-298.5 788,-264.5 24,-264.5"/>
<polygon fill="none" stroke="black" points="24,-264.5 24,-298.5 788,-298.5 788,-264.5 24,-264.5"/>
<text text-anchor="start" x="361" y="-285.3" font-family="Times,serif" font-weight="bold" font-size="14.00">«interface»</text>
<text text-anchor="start" x="300.5" y="-271.3" font-family="Times,serif" font-weight="bold" font-size="14.00">GeneratorFactoryInterface</text>
<polygon fill="none" stroke="black" points="24,-258.5 24,-264.5 788,-264.5 788,-258.5 24,-258.5"/>
<polygon fill="none" stroke="black" points="24,-214.5 24,-258.5 788,-258.5 788,-214.5 24,-214.5"/>
<text text-anchor="start" x="29" y="-242.3" font-family="Times,serif" font-size="14.00">+ «abstract» createInstance(provider : string) : Bartlett\UmlWriter\Generator\GeneratorFactoryInterface</text>
<text text-anchor="start" x="29" y="-223.3" font-family="Times,serif" font-size="14.00">+ «abstract» getGenerator() : Bartlett\GraphUml\Generator\GeneratorInterface</text>
</g>
<!-- Bartlett\\UmlWriter\\Generator\\AbstractGeneratorFactory&#45;&gt;Bartlett\\UmlWriter\\Generator\\GeneratorFactoryInterface -->
<g id="edge1" class="edge">
<title>Bartlett\\UmlWriter\\Generator\\AbstractGeneratorFactory&#45;&gt;Bartlett\\UmlWriter\\Generator\\GeneratorFactoryInterface</title>
<path fill="none" stroke="black" stroke-dasharray="5,2" d="M406,-689.58C406,-595.95 406,-406.48 406,-312.67"/>
<polygon fill="none" stroke="black" points="409.5,-312.54 406,-302.54 402.5,-312.54 409.5,-312.54"/>
</g>
<!-- Bartlett\\UmlWriter\\Service\\ConfigurationHandler -->
<g id="node4" class="node">
<title>Bartlett\\UmlWriter\\Service\\ConfigurationHandler</title>
<polygon fill="#fefece" stroke="transparent" points="2785.5,-1320 2260.5,-1320 2260.5,-1171 2785.5,-1171 2785.5,-1320"/>
<polygon fill="#eeeeee" stroke="transparent" points="2269,-1281.5 2269,-1315.5 2778,-1315.5 2778,-1281.5 2269,-1281.5"/>
<polygon fill="none" stroke="black" points="2269,-1281.5 2269,-1315.5 2778,-1315.5 2778,-1281.5 2269,-1281.5"/>
<text text-anchor="start" x="2436" y="-1288.3" font-family="Times,serif" font-weight="bold" font-size="14.00">ConfigurationHandler</text>
<polygon fill="none" stroke="black" points="2269,-1275.5 2269,-1281.5 2778,-1281.5 2778,-1275.5 2269,-1275.5"/>
<polygon fill="none" stroke="black" points="2269,-1174.5 2269,-1275.5 2778,-1275.5 2778,-1174.5 2269,-1174.5"/>
<text text-anchor="start" x="2274" y="-1259.3" font-family="Times,serif" font-size="14.00">+ __construct(filename : string)</text>
<text text-anchor="start" x="2274" y="-1240.3" font-family="Times,serif" font-size="14.00">+ filename() : ?string</text>
<text text-anchor="start" x="2274" y="-1221.3" font-family="Times,serif" font-size="14.00">+ toArray() : array</text>
<text text-anchor="start" x="2274" y="-1202.3" font-family="Times,serif" font-size="14.00">+ toFlat() : array</text>
<text text-anchor="start" x="2274" y="-1183.3" font-family="Times,serif" font-size="14.00">+ getValueByKey(key : string, default : mixed = «unknown») : ?mixed</text>
</g>
<!-- Bartlett\\UmlWriter\\Service\\ClassDiagramRenderer -->
<g id="node5" class="node">
<title>Bartlett\\UmlWriter\\Service\\ClassDiagramRenderer</title>
<polygon fill="#fefece" stroke="transparent" points="2242,-1301 1144,-1301 1144,-1190 2242,-1190 2242,-1301"/>
<polygon fill="#eeeeee" stroke="transparent" points="1152,-1262.5 1152,-1296.5 2234,-1296.5 2234,-1262.5 1152,-1262.5"/>
<polygon fill="none" stroke="black" points="1152,-1262.5 1152,-1296.5 2234,-1296.5 2234,-1262.5 1152,-1262.5"/>
<text text-anchor="start" x="1601" y="-1269.3" font-family="Times,serif" font-weight="bold" font-size="14.00">ClassDiagramRenderer</text>
<polygon fill="none" stroke="black" points="1152,-1256.5 1152,-1262.5 2234,-1262.5 2234,-1256.5 1152,-1256.5"/>
<polygon fill="none" stroke="black" points="1152,-1193.5 1152,-1256.5 2234,-1256.5 2234,-1193.5 1152,-1193.5"/>
<text text-anchor="start" x="1157" y="-1240.3" font-family="Times,serif" font-size="14.00">+ __invoke(finder : Symfony\Component\Finder\Finder, generator : Bartlett\GraphUml\Generator\GeneratorInterface, parameters : array = []) : string</text>
<text text-anchor="start" x="1157" y="-1221.3" font-family="Times,serif" font-size="14.00">+ getMetadata() : array</text>
<text text-anchor="start" x="1157" y="-1202.3" font-family="Times,serif" font-size="14.00">+ getGraph() : Graphp\Graph\Graph</text>
</g>
<!-- Bartlett\\UmlWriter\\Service\\ContainerService -->
<g id="node6" class="node">
<title>Bartlett\\UmlWriter\\Service\\ContainerService</title>
<polygon fill="#fefece" stroke="transparent" points="1126,-1310.5 820,-1310.5 820,-1180.5 1126,-1180.5 1126,-1310.5"/>
<polygon fill="#eeeeee" stroke="transparent" points="828,-1272.5 828,-1306.5 1118,-1306.5 1118,-1272.5 828,-1272.5"/>
<polygon fill="none" stroke="black" points="828,-1272.5 828,-1306.5 1118,-1306.5 1118,-1272.5 828,-1272.5"/>
<text text-anchor="start" x="905" y="-1279.3" font-family="Times,serif" font-weight="bold" font-size="14.00">ContainerService</text>
<polygon fill="none" stroke="black" points="828,-1266.5 828,-1272.5 1118,-1272.5 1118,-1266.5 828,-1266.5"/>
<polygon fill="none" stroke="black" points="828,-1184.5 828,-1266.5 1118,-1266.5 1118,-1184.5 828,-1184.5"/>
<text text-anchor="start" x="833" y="-1250.3" font-family="Times,serif" font-size="14.00">+ __construct()</text>
<text text-anchor="start" x="833" y="-1231.3" font-family="Times,serif" font-size="14.00">+ set(id : string, service : mixed) : void</text>
<text text-anchor="start" x="833" y="-1212.3" font-family="Times,serif" font-size="14.00">+ get(id : string) : ?mixed</text>
<text text-anchor="start" x="833" y="-1193.3" font-family="Times,serif" font-size="14.00">+ has(id : string) : bool</text>
</g>
<!-- Psr\\Container\\ContainerInterface -->
<g id="node7" class="node">
<title>Psr\\Container\\ContainerInterface</title>
<polygon fill="#fefece" stroke="transparent" points="1087,-791.5 859,-791.5 859,-699.5 1087,-699.5 1087,-791.5"/>
<polygon fill="#eeeeee" stroke="transparent" points="867,-753.5 867,-787.5 1079,-787.5 1079,-753.5 867,-753.5"/>
<polygon fill="none" stroke="black" points="867,-753.5 867,-787.5 1079,-787.5 1079,-753.5 867,-753.5"/>
<text text-anchor="start" x="928" y="-774.3" font-family="Times,serif" font-weight="bold" font-size="14.00">«interface»</text>
<text text-anchor="start" x="897" y="-760.3" font-family="Times,serif" font-weight="bold" font-size="14.00">ContainerInterface</text>
<polygon fill="none" stroke="black" points="867,-747.5 867,-753.5 1079,-753.5 1079,-747.5 867,-747.5"/>
<polygon fill="none" stroke="black" points="867,-703.5 867,-747.5 1079,-747.5 1079,-703.5 867,-703.5"/>
<text text-anchor="start" x="872" y="-731.3" font-family="Times,serif" font-size="14.00">+ «abstract» get(id : string)</text>
<text text-anchor="start" x="872" y="-712.3" font-family="Times,serif" font-size="14.00">+ «abstract» has(id : string)</text>
</g>
<!-- Bartlett\\UmlWriter\\Service\\ContainerService&#45;&gt;Psr\\Container\\ContainerInterface -->
<g id="edge3" class="edge">
<title>Bartlett\\UmlWriter\\Service\\ContainerService&#45;&gt;Psr\\Container\\ContainerInterface</title>
<path fill="none" stroke="black" stroke-dasharray="5,2" d="M973,-1180.41C973,-1081.79 973,-894.5 973,-801.6"/>
<polygon fill="none" stroke="black" points="976.5,-801.56 973,-791.56 969.5,-801.56 976.5,-801.56"/>
</g>
<!-- Bartlett\\UmlWriter\\Console\\Application -->
<g id="node8" class="node">
<title>Bartlett\\UmlWriter\\Console\\Application</title>
<polygon fill="#fefece" stroke="transparent" points="3989.5,-1320 2810.5,-1320 2810.5,-1171 3989.5,-1171 3989.5,-1320"/>
<polygon fill="#eeeeee" stroke="transparent" points="2819,-1281.5 2819,-1315.5 3982,-1315.5 3982,-1281.5 2819,-1281.5"/>
<polygon fill="none" stroke="black" points="2819,-1281.5 2819,-1315.5 3982,-1315.5 3982,-1281.5 2819,-1281.5"/>
<text text-anchor="start" x="3355.5" y="-1288.3" font-family="Times,serif" font-weight="bold" font-size="14.00">Application</text>
<polygon fill="none" stroke="black" points="2819,-1275.5 2819,-1281.5 3982,-1281.5 3982,-1275.5 2819,-1275.5"/>
<polygon fill="none" stroke="black" points="2819,-1174.5 2819,-1275.5 3982,-1275.5 3982,-1174.5 2819,-1174.5"/>
<text text-anchor="start" x="2824" y="-1259.3" font-family="Times,serif" font-size="14.00">+ __construct(container : Psr\Container\ContainerInterface)</text>
<text text-anchor="start" x="2824" y="-1240.3" font-family="Times,serif" font-size="14.00">+ getHelp() : string</text>
<text text-anchor="start" x="2824" y="-1221.3" font-family="Times,serif" font-size="14.00">+ getLongVersion() : string</text>
<text text-anchor="start" x="2824" y="-1202.3" font-family="Times,serif" font-size="14.00">+ doRun(input : Symfony\Component\Console\Input\InputInterface, output : Symfony\Component\Console\Output\OutputInterface) : int</text>
<text text-anchor="start" x="2824" y="-1183.3" font-family="Times,serif" font-size="14.00">+ run(input : Symfony\Component\Console\Input\InputInterface = «unknown», output : Symfony\Component\Console\Output\OutputInterface = «unknown») : int</text>
</g>
<!-- Symfony\\Component\\Console\\Application -->
<g id="node9" class="node">
<title>Symfony\\Component\\Console\\Application</title>
<polygon fill="#fefece" stroke="transparent" points="4005.5,-1124 2794.5,-1124 2794.5,-367 4005.5,-367 4005.5,-1124"/>
<polygon fill="#eeeeee" stroke="transparent" points="2803,-1085.5 2803,-1119.5 3998,-1119.5 3998,-1085.5 2803,-1085.5"/>
<polygon fill="none" stroke="black" points="2803,-1085.5 2803,-1119.5 3998,-1119.5 3998,-1085.5 2803,-1085.5"/>
<text text-anchor="start" x="3355.5" y="-1092.3" font-family="Times,serif" font-weight="bold" font-size="14.00">Application</text>
<polygon fill="none" stroke="black" points="2803,-1079.5 2803,-1085.5 3998,-1085.5 3998,-1079.5 2803,-1079.5"/>
<polygon fill="none" stroke="black" points="2803,-370.5 2803,-1079.5 3998,-1079.5 3998,-370.5 2803,-370.5"/>
<text text-anchor="start" x="2808" y="-1063.3" font-family="Times,serif" font-size="14.00">+ __construct(name : string = &#39;UNKNOWN&#39;, version : string = &#39;UNKNOWN&#39;)</text>
<text text-anchor="start" x="2808" y="-1044.3" font-family="Times,serif" font-size="14.00">+ setDispatcher(dispatcher : Symfony\Contracts\EventDispatcher\EventDispatcherInterface)</text>
<text text-anchor="start" x="2808" y="-1025.3" font-family="Times,serif" font-size="14.00">+ setCommandLoader(commandLoader : Symfony\Component\Console\CommandLoader\CommandLoaderInterface)</text>
<text text-anchor="start" x="2808" y="-1006.3" font-family="Times,serif" font-size="14.00">+ getSignalRegistry() : Symfony\Component\Console\SignalRegistry\SignalRegistry</text>
<text text-anchor="start" x="2808" y="-987.3" font-family="Times,serif" font-size="14.00">+ setSignalsToDispatchEvent(signalsToDispatchEvent : int = «unknown»)</text>
<text text-anchor="start" x="2808" y="-968.3" font-family="Times,serif" font-size="14.00">+ run(input : Symfony\Component\Console\Input\InputInterface = «unknown», output : Symfony\Component\Console\Output\OutputInterface = «unknown») : int</text>
<text text-anchor="start" x="2808" y="-949.3" font-family="Times,serif" font-size="14.00">+ doRun(input : Symfony\Component\Console\Input\InputInterface, output : Symfony\Component\Console\Output\OutputInterface)</text>
<text text-anchor="start" x="2808" y="-930.3" font-family="Times,serif" font-size="14.00">+ reset()</text>
<text text-anchor="start" x="2808" y="-911.3" font-family="Times,serif" font-size="14.00">+ setHelperSet(helperSet : Symfony\Component\Console\Helper\HelperSet)</text>
<text text-anchor="start" x="2808" y="-892.3" font-family="Times,serif" font-size="14.00">+ getHelperSet() : Symfony\Component\Console\Helper\HelperSet</text>
<text text-anchor="start" x="2808" y="-873.3" font-family="Times,serif" font-size="14.00">+ setDefinition(definition : Symfony\Component\Console\Input\InputDefinition)</text>
<text text-anchor="start" x="2808" y="-854.3" font-family="Times,serif" font-size="14.00">+ getDefinition() : Symfony\Component\Console\Input\InputDefinition</text>
<text text-anchor="start" x="2808" y="-835.3" font-family="Times,serif" font-size="14.00">+ complete(input : Symfony\Component\Console\Completion\CompletionInput, suggestions : Symfony\Component\Console\Completion\CompletionSuggestions) : void</text>
<text text-anchor="start" x="2808" y="-816.3" font-family="Times,serif" font-size="14.00">+ getHelp() : string</text>
<text text-anchor="start" x="2808" y="-797.3" font-family="Times,serif" font-size="14.00">+ areExceptionsCaught() : bool</text>
<text text-anchor="start" x="2808" y="-778.3" font-family="Times,serif" font-size="14.00">+ setCatchExceptions(boolean : bool)</text>
<text text-anchor="start" x="2808" y="-759.3" font-family="Times,serif" font-size="14.00">+ isAutoExitEnabled() : bool</text>
<text text-anchor="start" x="2808" y="-740.3" font-family="Times,serif" font-size="14.00">+ setAutoExit(boolean : bool)</text>
<text text-anchor="start" x="2808" y="-721.3" font-family="Times,serif" font-size="14.00">+ getName() : string</text>
<text text-anchor="start" x="2808" y="-702.3" font-family="Times,serif" font-size="14.00">+ setName(name : string)</text>
<text text-anchor="start" x="2808" y="-683.3" font-family="Times,serif" font-size="14.00">+ getVersion() : string</text>
<text text-anchor="start" x="2808" y="-664.3" font-family="Times,serif" font-size="14.00">+ setVersion(version : string)</text>
<text text-anchor="start" x="2808" y="-645.3" font-family="Times,serif" font-size="14.00">+ getLongVersion()</text>
<text text-anchor="start" x="2808" y="-626.3" font-family="Times,serif" font-size="14.00">+ register(name : string) : Symfony\Component\Console\Command\Command</text>
<text text-anchor="start" x="2808" y="-607.3" font-family="Times,serif" font-size="14.00">+ addCommands(commands : array)</text>
<text text-anchor="start" x="2808" y="-588.3" font-family="Times,serif" font-size="14.00">+ add(command : Symfony\Component\Console\Command\Command)</text>
<text text-anchor="start" x="2808" y="-569.3" font-family="Times,serif" font-size="14.00">+ get(name : string)</text>
<text text-anchor="start" x="2808" y="-550.3" font-family="Times,serif" font-size="14.00">+ has(name : string) : bool</text>
<text text-anchor="start" x="2808" y="-531.3" font-family="Times,serif" font-size="14.00">+ getNamespaces() : array</text>
<text text-anchor="start" x="2808" y="-512.3" font-family="Times,serif" font-size="14.00">+ findNamespace(namespace : string) : string</text>
<text text-anchor="start" x="2808" y="-493.3" font-family="Times,serif" font-size="14.00">+ find(name : string)</text>
<text text-anchor="start" x="2808" y="-474.3" font-family="Times,serif" font-size="14.00">+ all(namespace : string = «unknown»)</text>
<text text-anchor="start" x="2808" y="-455.3" font-family="Times,serif" font-size="14.00">+ «static» getAbbreviations(names : array) : array</text>
<text text-anchor="start" x="2808" y="-436.3" font-family="Times,serif" font-size="14.00">+ renderThrowable(e : Throwable, output : Symfony\Component\Console\Output\OutputInterface) : void</text>
<text text-anchor="start" x="2808" y="-417.3" font-family="Times,serif" font-size="14.00">+ extractNamespace(name : string, limit : int = «unknown») : string</text>
<text text-anchor="start" x="2808" y="-398.3" font-family="Times,serif" font-size="14.00">+ setDefaultCommand(commandName : string, isSingleCommand : bool = false) : static</text>
<text text-anchor="start" x="2808" y="-379.3" font-family="Times,serif" font-size="14.00">+ isSingleCommand() : bool</text>
</g>
<!-- Bartlett\\UmlWriter\\Console\\Application&#45;&gt;Symfony\\Component\\Console\\Application -->
<g id="edge5" class="edge">
<title>Bartlett\\UmlWriter\\Console\\Application&#45;&gt;Symfony\\Component\\Console\\Application</title>
<path fill="none" stroke="black" d="M3400,-1170.75C3400,-1159.53 3400,-1147.35 3400,-1134.43"/>
<polygon fill="none" stroke="black" points="3403.5,-1134.42 3400,-1124.42 3396.5,-1134.42 3403.5,-1134.42"/>
</g>
<!-- Symfony\\Contracts\\Service\\ResetInterface -->
<g id="node10" class="node">
<title>Symfony\\Contracts\\Service\\ResetInterface</title>
<polygon fill="#fefece" stroke="transparent" points="3485.5,-293 3314.5,-293 3314.5,-220 3485.5,-220 3485.5,-293"/>
<polygon fill="#eeeeee" stroke="transparent" points="3323,-254.5 3323,-288.5 3478,-288.5 3478,-254.5 3323,-254.5"/>
<polygon fill="none" stroke="black" points="3323,-254.5 3323,-288.5 3478,-288.5 3478,-254.5 3323,-254.5"/>
<text text-anchor="start" x="3355.5" y="-275.3" font-family="Times,serif" font-weight="bold" font-size="14.00">«interface»</text>
<text text-anchor="start" x="3341.5" y="-261.3" font-family="Times,serif" font-weight="bold" font-size="14.00">ResetInterface</text>
<polygon fill="none" stroke="black" points="3323,-248.5 3323,-254.5 3478,-254.5 3478,-248.5 3323,-248.5"/>
<polygon fill="none" stroke="black" points="3323,-223.5 3323,-248.5 3478,-248.5 3478,-223.5 3323,-223.5"/>
<text text-anchor="start" x="3328" y="-232.3" font-family="Times,serif" font-size="14.00">+ «abstract» reset()</text>
</g>
<!-- Symfony\\Component\\Console\\Application&#45;&gt;Symfony\\Contracts\\Service\\ResetInterface -->
<g id="edge4" class="edge">
<title>Symfony\\Component\\Console\\Application&#45;&gt;Symfony\\Contracts\\Service\\ResetInterface</title>
<path fill="none" stroke="black" stroke-dasharray="5,2" d="M3400,-366.79C3400,-342.55 3400,-320.89 3400,-303.38"/>
<polygon fill="none" stroke="black" points="3403.5,-303.02 3400,-293.02 3396.5,-303.02 3403.5,-303.02"/>
</g>
<!-- Bartlett\\UmlWriter\\Console\\Command\\ClassDiagramCommand -->
<g id="node11" class="node">
<title>Bartlett\\UmlWriter\\Console\\Command\\ClassDiagramCommand</title>
<polygon fill="#fefece" stroke="transparent" points="5201.5,-1282 4070.5,-1282 4070.5,-1209 5201.5,-1209 5201.5,-1282"/>
<polygon fill="#eeeeee" stroke="transparent" points="4079,-1243.5 4079,-1277.5 5194,-1277.5 5194,-1243.5 4079,-1243.5"/>
<polygon fill="none" stroke="black" points="4079,-1243.5 4079,-1277.5 5194,-1277.5 5194,-1243.5 4079,-1243.5"/>
<text text-anchor="start" x="4541.5" y="-1250.3" font-family="Times,serif" font-weight="bold" font-size="14.00">ClassDiagramCommand</text>
<polygon fill="none" stroke="black" points="4079,-1237.5 4079,-1243.5 5194,-1243.5 5194,-1237.5 4079,-1237.5"/>
<polygon fill="none" stroke="black" points="4079,-1212.5 4079,-1237.5 5194,-1237.5 5194,-1212.5 4079,-1212.5"/>
<text text-anchor="start" x="4084" y="-1221.3" font-family="Times,serif" font-size="14.00">+ __construct(renderer : Bartlett\UmlWriter\Service\ClassDiagramRenderer, generatorFactory : Bartlett\UmlWriter\Generator\GeneratorFactoryInterface)</text>
</g>
<!-- Symfony\\Component\\Console\\Command\\Command -->
<g id="node12" class="node">
<title>Symfony\\Component\\Console\\Command\\Command</title>
<polygon fill="#fefece" stroke="transparent" points="5241.5,-1095.5 4030.5,-1095.5 4030.5,-395.5 5241.5,-395.5 5241.5,-1095.5"/>
<polygon fill="#eeeeee" stroke="transparent" points="4039,-1057.5 4039,-1091.5 5234,-1091.5 5234,-1057.5 4039,-1057.5"/>
<polygon fill="none" stroke="black" points="4039,-1057.5 4039,-1091.5 5234,-1091.5 5234,-1057.5 4039,-1057.5"/>
<text text-anchor="start" x="4596.5" y="-1064.3" font-family="Times,serif" font-weight="bold" font-size="14.00">Command</text>
<polygon fill="none" stroke="black" points="4039,-1051.5 4039,-1057.5 5234,-1057.5 5234,-1051.5 4039,-1051.5"/>
<polygon fill="none" stroke="black" points="4039,-399.5 4039,-1051.5 5234,-1051.5 5234,-399.5 4039,-399.5"/>
<text text-anchor="start" x="4044" y="-1035.3" font-family="Times,serif" font-size="14.00">+ «static» getDefaultName() : ?string</text>
<text text-anchor="start" x="4044" y="-1016.3" font-family="Times,serif" font-size="14.00">+ «static» getDefaultDescription() : ?string</text>
<text text-anchor="start" x="4044" y="-997.3" font-family="Times,serif" font-size="14.00">+ __construct(name : string = «unknown»)</text>
<text text-anchor="start" x="4044" y="-978.3" font-family="Times,serif" font-size="14.00">+ ignoreValidationErrors()</text>
<text text-anchor="start" x="4044" y="-959.3" font-family="Times,serif" font-size="14.00">+ setApplication(application : Symfony\Component\Console\Application = «unknown»)</text>
<text text-anchor="start" x="4044" y="-940.3" font-family="Times,serif" font-size="14.00">+ setHelperSet(helperSet : Symfony\Component\Console\Helper\HelperSet)</text>
<text text-anchor="start" x="4044" y="-921.3" font-family="Times,serif" font-size="14.00">+ getHelperSet() : ?Symfony\Component\Console\Helper\HelperSet</text>
<text text-anchor="start" x="4044" y="-902.3" font-family="Times,serif" font-size="14.00">+ getApplication() : ?Symfony\Component\Console\Application</text>
<text text-anchor="start" x="4044" y="-883.3" font-family="Times,serif" font-size="14.00">+ isEnabled()</text>
<text text-anchor="start" x="4044" y="-864.3" font-family="Times,serif" font-size="14.00">+ run(input : Symfony\Component\Console\Input\InputInterface, output : Symfony\Component\Console\Output\OutputInterface) : int</text>
<text text-anchor="start" x="4044" y="-845.3" font-family="Times,serif" font-size="14.00">+ complete(input : Symfony\Component\Console\Completion\CompletionInput, suggestions : Symfony\Component\Console\Completion\CompletionSuggestions) : void</text>
<text text-anchor="start" x="4044" y="-826.3" font-family="Times,serif" font-size="14.00">+ setCode(code : callable) : static</text>
<text text-anchor="start" x="4044" y="-807.3" font-family="Times,serif" font-size="14.00">+ mergeApplicationDefinition(mergeArgs : bool = true)</text>
<text text-anchor="start" x="4044" y="-788.3" font-family="Times,serif" font-size="14.00">+ setDefinition(definition) : static</text>
<text text-anchor="start" x="4044" y="-769.3" font-family="Times,serif" font-size="14.00">+ getDefinition() : Symfony\Component\Console\Input\InputDefinition</text>
<text text-anchor="start" x="4044" y="-750.3" font-family="Times,serif" font-size="14.00">+ getNativeDefinition() : Symfony\Component\Console\Input\InputDefinition</text>
<text text-anchor="start" x="4044" y="-731.3" font-family="Times,serif" font-size="14.00">+ addArgument(name : string, mode : int = «unknown», description : string = &#39;&#39;, default : mixed = «unknown») : static</text>
<text text-anchor="start" x="4044" y="-712.3" font-family="Times,serif" font-size="14.00">+ addOption(name : string, shortcut = «unknown», mode : int = «unknown», description : string = &#39;&#39;, default : mixed = «unknown») : static</text>
<text text-anchor="start" x="4044" y="-693.3" font-family="Times,serif" font-size="14.00">+ setName(name : string) : static</text>
<text text-anchor="start" x="4044" y="-674.3" font-family="Times,serif" font-size="14.00">+ setProcessTitle(title : string) : static</text>
<text text-anchor="start" x="4044" y="-655.3" font-family="Times,serif" font-size="14.00">+ getName() : ?string</text>
<text text-anchor="start" x="4044" y="-636.3" font-family="Times,serif" font-size="14.00">+ setHidden(hidden : bool = true) : static</text>
<text text-anchor="start" x="4044" y="-617.3" font-family="Times,serif" font-size="14.00">+ isHidden() : bool</text>
<text text-anchor="start" x="4044" y="-598.3" font-family="Times,serif" font-size="14.00">+ setDescription(description : string) : static</text>
<text text-anchor="start" x="4044" y="-579.3" font-family="Times,serif" font-size="14.00">+ getDescription() : string</text>
<text text-anchor="start" x="4044" y="-560.3" font-family="Times,serif" font-size="14.00">+ setHelp(help : string) : static</text>
<text text-anchor="start" x="4044" y="-541.3" font-family="Times,serif" font-size="14.00">+ getHelp() : string</text>
<text text-anchor="start" x="4044" y="-522.3" font-family="Times,serif" font-size="14.00">+ getProcessedHelp() : string</text>
<text text-anchor="start" x="4044" y="-503.3" font-family="Times,serif" font-size="14.00">+ setAliases(aliases : iterable) : static</text>
<text text-anchor="start" x="4044" y="-484.3" font-family="Times,serif" font-size="14.00">+ getAliases() : array</text>
<text text-anchor="start" x="4044" y="-465.3" font-family="Times,serif" font-size="14.00">+ getSynopsis(short : bool = false) : string</text>
<text text-anchor="start" x="4044" y="-446.3" font-family="Times,serif" font-size="14.00">+ addUsage(usage : string) : static</text>
<text text-anchor="start" x="4044" y="-427.3" font-family="Times,serif" font-size="14.00">+ getUsages() : array</text>
<text text-anchor="start" x="4044" y="-408.3" font-family="Times,serif" font-size="14.00">+ getHelper(name : string) : ?mixed</text>
</g>
<!-- Bartlett\\UmlWriter\\Console\\Command\\ClassDiagramCommand&#45;&gt;Symfony\\Component\\Console\\Command\\Command -->
<g id="edge6" class="edge">
<title>Bartlett\\UmlWriter\\Console\\Command\\ClassDiagramCommand&#45;&gt;Symfony\\Component\\Console\\Command\\Command</title>
<path fill="none" stroke="black" d="M4636,-1208.69C4636,-1183.6 4636,-1147.23 4636,-1105.74"/>
<polygon fill="none" stroke="black" points="4639.5,-1105.67 4636,-1095.67 4632.5,-1105.67 4639.5,-1105.67"/>
</g>
<!-- Bartlett\\UmlWriter\\Config\\Loader\\YamlFileLoader -->
<g id="node13" class="node">
<title>Bartlett\\UmlWriter\\Config\\Loader\\YamlFileLoader</title>
<polygon fill="#fefece" stroke="transparent" points="6060,-1291.5 5594,-1291.5 5594,-1199.5 6060,-1199.5 6060,-1291.5"/>
<polygon fill="#eeeeee" stroke="transparent" points="5602,-1253.5 5602,-1287.5 6052,-1287.5 6052,-1253.5 5602,-1253.5"/>
<polygon fill="none" stroke="black" points="5602,-1253.5 5602,-1287.5 6052,-1287.5 6052,-1253.5 5602,-1253.5"/>
<text text-anchor="start" x="5766" y="-1260.3" font-family="Times,serif" font-weight="bold" font-size="14.00">YamlFileLoader</text>
<polygon fill="none" stroke="black" points="5602,-1247.5 5602,-1253.5 6052,-1253.5 6052,-1247.5 5602,-1247.5"/>
<polygon fill="none" stroke="black" points="5602,-1203.5 5602,-1247.5 6052,-1247.5 6052,-1203.5 5602,-1203.5"/>
<text text-anchor="start" x="5607" y="-1231.3" font-family="Times,serif" font-size="14.00">+ load(resource : mixed, type : string = «unknown») : ?mixed</text>
<text text-anchor="start" x="5607" y="-1212.3" font-family="Times,serif" font-size="14.00">+ supports(resource, type : string = «unknown») : bool</text>
</g>
<!-- Symfony\\Component\\Config\\Loader\\FileLoader -->
<g id="node14" class="node">
<title>Symfony\\Component\\Config\\Loader\\FileLoader</title>
<polygon fill="#fefece" stroke="transparent" points="6388,-810.5 5266,-810.5 5266,-680.5 6388,-680.5 6388,-810.5"/>
<polygon fill="#eeeeee" stroke="transparent" points="5274,-772.5 5274,-806.5 6380,-806.5 6380,-772.5 5274,-772.5"/>
<polygon fill="none" stroke="black" points="5274,-772.5 5274,-806.5 6380,-806.5 6380,-772.5 5274,-772.5"/>
<text text-anchor="start" x="5785" y="-793.3" font-family="Times,serif" font-weight="bold" font-size="14.00">«abstract»</text>
<text text-anchor="start" x="5785" y="-779.3" font-family="Times,serif" font-weight="bold" font-size="14.00">FileLoader</text>
<polygon fill="none" stroke="black" points="5274,-766.5 5274,-772.5 6380,-772.5 6380,-766.5 5274,-766.5"/>
<polygon fill="none" stroke="black" points="5274,-684.5 5274,-766.5 6380,-766.5 6380,-684.5 5274,-684.5"/>
<text text-anchor="start" x="5279" y="-750.3" font-family="Times,serif" font-size="14.00">+ __construct(locator : Symfony\Component\Config\FileLocatorInterface, env : string = «unknown»)</text>
<text text-anchor="start" x="5279" y="-731.3" font-family="Times,serif" font-size="14.00">+ setCurrentDir(dir : string)</text>
<text text-anchor="start" x="5279" y="-712.3" font-family="Times,serif" font-size="14.00">+ getLocator() : Symfony\Component\Config\FileLocatorInterface</text>
<text text-anchor="start" x="5279" y="-693.3" font-family="Times,serif" font-size="14.00">+ import(resource : mixed, type : string = «unknown», ignoreErrors : bool = false, sourceResource : string = «unknown», exclude : mixed = «unknown»)</text>
</g>
<!-- Bartlett\\UmlWriter\\Config\\Loader\\YamlFileLoader&#45;&gt;Symfony\\Component\\Config\\Loader\\FileLoader -->
<g id="edge9" class="edge">
<title>Bartlett\\UmlWriter\\Config\\Loader\\YamlFileLoader&#45;&gt;Symfony\\Component\\Config\\Loader\\FileLoader</title>
<path fill="none" stroke="black" d="M5827,-1199.43C5827,-1113.58 5827,-925.84 5827,-821.02"/>
<polygon fill="none" stroke="black" points="5830.5,-820.83 5827,-810.83 5823.5,-820.83 5830.5,-820.83"/>
</g>
<!-- Symfony\\Component\\Config\\Loader\\Loader -->
<g id="node15" class="node">
<title>Symfony\\Component\\Config\\Loader\\Loader</title>
<polygon fill="#fefece" stroke="transparent" points="6231,-331 5423,-331 5423,-182 6231,-182 6231,-331"/>
<polygon fill="#eeeeee" stroke="transparent" points="5431,-292.5 5431,-326.5 6223,-326.5 6223,-292.5 5431,-292.5"/>
<polygon fill="none" stroke="black" points="5431,-292.5 5431,-326.5 6223,-326.5 6223,-292.5 5431,-292.5"/>
<text text-anchor="start" x="5785" y="-313.3" font-family="Times,serif" font-weight="bold" font-size="14.00">«abstract»</text>
<text text-anchor="start" x="5799.5" y="-299.3" font-family="Times,serif" font-weight="bold" font-size="14.00">Loader</text>
<polygon fill="none" stroke="black" points="5431,-286.5 5431,-292.5 6223,-292.5 6223,-286.5 5431,-286.5"/>
<polygon fill="none" stroke="black" points="5431,-185.5 5431,-286.5 6223,-286.5 6223,-185.5 5431,-185.5"/>
<text text-anchor="start" x="5436" y="-270.3" font-family="Times,serif" font-size="14.00">+ __construct(env : string = «unknown»)</text>
<text text-anchor="start" x="5436" y="-251.3" font-family="Times,serif" font-size="14.00">+ getResolver() : Symfony\Component\Config\Loader\LoaderResolverInterface</text>
<text text-anchor="start" x="5436" y="-232.3" font-family="Times,serif" font-size="14.00">+ setResolver(resolver : Symfony\Component\Config\Loader\LoaderResolverInterface)</text>
<text text-anchor="start" x="5436" y="-213.3" font-family="Times,serif" font-size="14.00">+ import(resource : mixed, type : string = «unknown»)</text>
<text text-anchor="start" x="5436" y="-194.3" font-family="Times,serif" font-size="14.00">+ resolve(resource : mixed, type : string = «unknown») : Symfony\Component\Config\Loader\LoaderInterface</text>
</g>
<!-- Symfony\\Component\\Config\\Loader\\FileLoader&#45;&gt;Symfony\\Component\\Config\\Loader\\Loader -->
<g id="edge8" class="edge">
<title>Symfony\\Component\\Config\\Loader\\FileLoader&#45;&gt;Symfony\\Component\\Config\\Loader\\Loader</title>
<path fill="none" stroke="black" d="M5827,-680.33C5827,-593.36 5827,-437.9 5827,-341.65"/>
<polygon fill="none" stroke="black" points="5830.5,-341.37 5827,-331.37 5823.5,-341.37 5830.5,-341.37"/>
</g>
<!-- Symfony\\Component\\Config\\Loader\\LoaderInterface -->
<g id="node16" class="node">
<title>Symfony\\Component\\Config\\Loader\\LoaderInterface</title>
<polygon fill="#fefece" stroke="transparent" points="6188.5,-146 5465.5,-146 5465.5,-16 6188.5,-16 6188.5,-146"/>
<polygon fill="#eeeeee" stroke="transparent" points="5474,-108 5474,-142 6181,-142 6181,-108 5474,-108"/>
<polygon fill="none" stroke="black" points="5474,-108 5474,-142 6181,-142 6181,-108 5474,-108"/>
<text text-anchor="start" x="5782.5" y="-128.8" font-family="Times,serif" font-weight="bold" font-size="14.00">«interface»</text>
<text text-anchor="start" x="5764" y="-114.8" font-family="Times,serif" font-weight="bold" font-size="14.00">LoaderInterface</text>
<polygon fill="none" stroke="black" points="5474,-102 5474,-108 6181,-108 6181,-102 5474,-102"/>
<polygon fill="none" stroke="black" points="5474,-20 5474,-102 6181,-102 6181,-20 5474,-20"/>
<text text-anchor="start" x="5479" y="-85.8" font-family="Times,serif" font-size="14.00">+ «abstract» load(resource : mixed, type : string = «unknown»)</text>
<text text-anchor="start" x="5479" y="-66.8" font-family="Times,serif" font-size="14.00">+ «abstract» supports(resource : mixed, type : string = «unknown»)</text>
<text text-anchor="start" x="5479" y="-47.8" font-family="Times,serif" font-size="14.00">+ «abstract» getResolver()</text>
<text text-anchor="start" x="5479" y="-28.8" font-family="Times,serif" font-size="14.00">+ «abstract» setResolver(resolver : Symfony\Component\Config\Loader\LoaderResolverInterface)</text>
</g>
<!-- Symfony\\Component\\Config\\Loader\\Loader&#45;&gt;Symfony\\Component\\Config\\Loader\\LoaderInterface -->
<g id="edge7" class="edge">
<title>Symfony\\Component\\Config\\Loader\\Loader&#45;&gt;Symfony\\Component\\Config\\Loader\\LoaderInterface</title>
<path fill="none" stroke="black" stroke-dasharray="5,2" d="M5827,-181.92C5827,-173.45 5827,-164.81 5827,-156.33"/>
<polygon fill="none" stroke="black" points="5830.5,-156.09 5827,-146.09 5823.5,-156.09 5830.5,-156.09"/>
</g>
</g>
</svg>
