<?xml version="1.0" encoding="UTF-8" standalone="no"?>
<!DOCTYPE svg PUBLIC "-//W3C//DTD SVG 1.1//EN"
 "http://www.w3.org/Graphics/SVG/1.1/DTD/svg11.dtd">
<!-- Generated by graphviz version 2.43.0 (0)
 -->
<!-- Title: %3 Pages: 1 -->
<svg width="6395pt" height="1367pt"
 viewBox="0.00 0.00 6395.00 1367.00" xmlns="http://www.w3.org/2000/svg" xmlns:xlink="http://www.w3.org/1999/xlink">
<g id="graph0" class="graph" transform="scale(1 1) rotate(0) translate(4 1363)">
<title>%3</title>
<g id="clust1" class="cluster">
<title>cluster_0</title>
<polygon fill="transparent" stroke="black" points="8,-202.5 8,-1313 804,-1313 804,-202.5 8,-202.5"/>
<text text-anchor="middle" x="406" y="-1297.8" font-family="Times,serif" font-size="14.00">Bartlett\UmlWriter\Generator</text>
</g>
<g id="clust2" class="cluster">
<title>cluster_1</title>
<polygon fill="transparent" stroke="black" points="812,-1163 812,-1351 2794,-1351 2794,-1163 812,-1163"/>
<text text-anchor="middle" x="1803" y="-1335.8" font-family="Times,serif" font-size="14.00">Bartlett\UmlWriter\Service</text>
</g>
<g id="clust3" class="cluster">
<title>cluster_2</title>
<polygon fill="transparent" stroke="black" points="851,-691.5 851,-822.5 1095,-822.5 1095,-691.5 851,-691.5"/>
<text text-anchor="middle" x="973" y="-807.3" font-family="Times,serif" font-size="14.00">Psr\Container</text>
</g>
<g id="clust4" class="cluster">
<title>cluster_3</title>
<polygon fill="transparent" stroke="black" points="2802,-1172.5 2802,-1341.5 3964,-1341.5 3964,-1172.5 2802,-1172.5"/>
<text text-anchor="middle" x="3383" y="-1326.3" font-family="Times,serif" font-size="14.00">Bartlett\UmlWriter\Console</text>
</g>
<g id="clust5" class="cluster">
<title>cluster_4</title>
<polygon fill="transparent" stroke="black" points="2769,-359 2769,-1155 3997,-1155 3997,-359 2769,-359"/>
<text text-anchor="middle" x="3383" y="-1139.8" font-family="Times,serif" font-size="14.00">Symfony\Component\Console</text>
</g>
<g id="clust6" class="cluster">
<title>cluster_5</title>
<polygon fill="transparent" stroke="black" points="3278,-212 3278,-324 3489,-324 3489,-212 3278,-212"/>
<text text-anchor="middle" x="3383.5" y="-308.8" font-family="Times,serif" font-size="14.00">Symfony\Contracts\Service</text>
</g>
<g id="clust7" class="cluster">
<title>cluster_6</title>
<polygon fill="transparent" stroke="black" points="4045,-1201 4045,-1313 5193,-1313 5193,-1201 4045,-1201"/>
<text text-anchor="middle" x="4619" y="-1297.8" font-family="Times,serif" font-size="14.00">Bartlett\UmlWriter\Console\Command</text>
</g>
<g id="clust8" class="cluster">
<title>cluster_7</title>
<polygon fill="transparent" stroke="black" points="4005,-387.5 4005,-1126.5 5233,-1126.5 5233,-387.5 4005,-387.5"/>
<text text-anchor="middle" x="4619" y="-1111.3" font-family="Times,serif" font-size="14.00">Symfony\Component\Console\Command</text>
</g>
<g id="clust9" class="cluster">
<title>cluster_8</title>
<polygon fill="transparent" stroke="black" points="5591,-1191.5 5591,-1322.5 6029,-1322.5 6029,-1191.5 5591,-1191.5"/>
<text text-anchor="middle" x="5810" y="-1307.3" font-family="Times,serif" font-size="14.00">Bartlett\UmlWriter\Config\Loader</text>
</g>
<g id="clust10" class="cluster">
<title>cluster_9</title>
<polygon fill="transparent" stroke="black" points="5241,-8 5241,-841.5 6379,-841.5 6379,-8 5241,-8"/>
<text text-anchor="middle" x="5810" y="-826.3" font-family="Times,serif" font-size="14.00">Symfony\Component\Config\Loader</text>
</g>
<!-- Bartlett\\UmlWriter\\Generator\\GeneratorFactory -->
<g id="node1" class="node">
<title>Bartlett\\UmlWriter\\Generator\\GeneratorFactory</title>
<polygon fill="#fefece" stroke="transparent" points="664.5,-1282 147.5,-1282 147.5,-1209 664.5,-1209 664.5,-1282"/>
<polygon fill="#eeeeee" stroke="transparent" points="156,-1243.5 156,-1277.5 657,-1277.5 657,-1243.5 156,-1243.5"/>
<polygon fill="none" stroke="black" points="156,-1243.5 156,-1277.5 657,-1277.5 657,-1243.5 156,-1243.5"/>
<text text-anchor="start" x="337" y="-1250.3" font-family="Times,serif" font-weight="bold" font-size="14.00">GeneratorFactory</text>
<polygon fill="none" stroke="black" points="156,-1237.5 156,-1243.5 657,-1243.5 657,-1237.5 156,-1237.5"/>
<polygon fill="none" stroke="black" points="156,-1212.5 156,-1237.5 657,-1237.5 657,-1212.5 156,-1212.5"/>
<text text-anchor="start" x="161" y="-1221.3" font-family="Times,serif" font-size="14.00">+ getGenerator() : Bartlett\GraphUml\Generator\GeneratorInterface</text>
</g>
<!-- Bartlett\\UmlWriter\\Generator\\AbstractGeneratorFactory -->
<g id="node2" class="node">
<title>Bartlett\\UmlWriter\\Generator\\AbstractGeneratorFactory</title>
<polygon fill="#fefece" stroke="transparent" points="755.5,-801 56.5,-801 56.5,-690 755.5,-690 755.5,-801"/>
<polygon fill="#eeeeee" stroke="transparent" points="65,-762.5 65,-796.5 748,-796.5 748,-762.5 65,-762.5"/>
<polygon fill="none" stroke="black" points="65,-762.5 65,-796.5 748,-796.5 748,-762.5 65,-762.5"/>
<text text-anchor="start" x="364.5" y="-783.3" font-family="Times,serif" font-weight="bold" font-size="14.00">«abstract»</text>
<text text-anchor="start" x="304" y="-769.3" font-family="Times,serif" font-weight="bold" font-size="14.00">AbstractGeneratorFactory</text>
<polygon fill="none" stroke="black" points="65,-756.5 65,-762.5 748,-762.5 748,-756.5 65,-756.5"/>
<polygon fill="none" stroke="black" points="65,-693.5 65,-756.5 748,-756.5 748,-693.5 65,-693.5"/>
<text text-anchor="start" x="70" y="-740.3" font-family="Times,serif" font-size="14.00">+ __construct(generator : string = &#39;&#39;)</text>
<text text-anchor="start" x="70" y="-721.3" font-family="Times,serif" font-size="14.00">+ createInstance(provider : string) : Bartlett\UmlWriter\Generator\GeneratorFactoryInterface</text>
<text text-anchor="start" x="70" y="-702.3" font-family="Times,serif" font-size="14.00">+ «abstract» getGenerator() : Bartlett\GraphUml\Generator\GeneratorInterface</text>
</g>
<!-- Bartlett\\UmlWriter\\Generator\\GeneratorFactory&#45;&gt;Bartlett\\UmlWriter\\Generator\\AbstractGeneratorFactory -->
<g id="edge2" class="edge">
<title>Bartlett\\UmlWriter\\Generator\\GeneratorFactory&#45;&gt;Bartlett\\UmlWriter\\Generator\\AbstractGeneratorFactory</title>
<path fill="none" stroke="black" d="M406,-1208.69C406,-1125.37 406,-917.6 406,-811.33"/>
<polygon fill="none" stroke="black" points="409.5,-811.06 406,-801.06 402.5,-811.06 409.5,-811.06"/>
</g>
<!-- Bartlett\\UmlWriter\\Generator\\GeneratorFactoryInterface -->
<g id="node3" class="node">
<title>Bartlett\\UmlWriter\\Generator\\GeneratorFactoryInterface</title>
<polygon fill="#fefece" stroke="transparent" points="796,-302.5 16,-302.5 16,-210.5 796,-210.5 796,-302.5"/>
<polygon fill="#eeeeee" stroke="transparent" points="24,-264.5 24,-298.5 788,-298.5 788,-264.5 24,-264.5"/>
<polygon fill="none" stroke="black" points="24,-264.5 24,-298.5 788,-298.5 788,-264.5 24,-264.5"/>
<text text-anchor="start" x="361" y="-285.3" font-family="Times,serif" font-weight="bold" font-size="14.00">«interface»</text>
<text text-anchor="start" x="300.5" y="-271.3" font-family="Times,serif" font-weight="bold" font-size="14.00">GeneratorFactoryInterface</text>
<polygon fill="none" stroke="black" points="24,-258.5 24,-264.5 788,-264.5 788,-258.5 24,-258.5"/>
<polygon fill="none" stroke="black" points="24,-214.5 24,-258.5 788,-258.5 788,-214.5 24,-214.5"/>
<text text-anchor="start" x="29" y="-242.3" font-family="Times,serif" font-size="14.00">+ «abstract» createInstance(provider : string) : Bartlett\UmlWriter\Generator\GeneratorFactoryInterface</text>
<text text-anchor="start" x="29" y="-223.3" font-family="Times,serif" font-size="14.00">+ «abstract» getGenerator() : Bartlett\GraphUml\Generator\GeneratorInterface</text>
</g>
<!-- Bartlett\\UmlWriter\\Generator\\AbstractGeneratorFactory&#45;&gt;Bartlett\\UmlWriter\\Generator\\GeneratorFactoryInterface -->
<g id="edge1" class="edge">
<title>Bartlett\\UmlWriter\\Generator\\AbstractGeneratorFactory&#45;&gt;Bartlett\\UmlWriter\\Generator\\GeneratorFactoryInterface</title>
<path fill="none" stroke="black" stroke-dasharray="5,2" d="M406,-689.58C406,-595.95 406,-406.48 406,-312.67"/>
<polygon fill="none" stroke="black" points="409.5,-312.54 406,-302.54 402.5,-312.54 409.5,-312.54"/>
</g>
<!-- Bartlett\\UmlWriter\\Service\\ConfigurationHandler -->
<g id="node4" class="node">
<title>Bartlett\\UmlWriter\\Service\\ConfigurationHandler</title>
<polygon fill="#fefece" stroke="transparent" points="2785.5,-1320 2260.5,-1320 2260.5,-1171 2785.5,-1171 2785.5,-1320"/>
<polygon fill="#eeeeee" stroke="transparent" points="2269,-1281.5 2269,-1315.5 2778,-1315.5 2778,-1281.5 2269,-1281.5"/>
<polygon fill="none" stroke="black" points="2269,-1281.5 2269,-1315.5 2778,-1315.5 2778,-1281.5 2269,-1281.5"/>
<text text-anchor="start" x="2436" y="-1288.3" font-family="Times,serif" font-weight="bold" font-size="14.00">ConfigurationHandler</text>
<polygon fill="none" stroke="black" points="2269,-1275.5 2269,-1281.5 2778,-1281.5 2778,-1275.5 2269,-1275.5"/>
<polygon fill="none" stroke="black" points="2269,-1174.5 2269,-1275.5 2778,-1275.5 2778,-1174.5 2269,-1174.5"/>
<text text-anchor="start" x="2274" y="-1259.3" font-family="Times,serif" font-size="14.00">+ __construct(filename : string)</text>
<text text-anchor="start" x="2274" y="-1240.3" font-family="Times,serif" font-size="14.00">+ filename() : ?string</text>
<text text-anchor="start" x="2274" y="-1221.3" font-family="Times,serif" font-size="14.00">+ toArray() : array</text>
<text text-anchor="start" x="2274" y="-1202.3" font-family="Times,serif" font-size="14.00">+ toFlat() : array</text>
<text text-anchor="start" x="2274" y="-1183.3" font-family="Times,serif" font-size="14.00">+ getValueByKey(key : string, default : mixed = «unknown») : ?mixed</text>
</g>
<!-- Bartlett\\UmlWriter\\Service\\ClassDiagramRenderer -->
<g id="node5" class="node">
<title>Bartlett\\UmlWriter\\Service\\ClassDiagramRenderer</title>
<polygon fill="#fefece" stroke="transparent" points="2242,-1301 1144,-1301 1144,-1190 2242,-1190 2242,-1301"/>
<polygon fill="#eeeeee" stroke="transparent" points="1152,-1262.5 1152,-1296.5 2234,-1296.5 2234,-1262.5 1152,-1262.5"/>
<polygon fill="none" stroke="black" points="1152,-1262.5 1152,-1296.5 2234,-1296.5 2234,-1262.5 1152,-1262.5"/>
<text text-anchor="start" x="1601" y="-1269.3" font-family="Times,serif" font-weight="bold" font-size="14.00">ClassDiagramRenderer</text>
<polygon fill="none" stroke="black" points="1152,-1256.5 1152,-1262.5 2234,-1262.5 2234,-1256.5 1152,-1256.5"/>
<polygon fill="none" stroke="black" points="1152,-1193.5 1152,-1256.5 2234,-1256.5 2234,-1193.5 1152,-1193.5"/>
<text text-anchor="start" x="1157" y="-1240.3" font-family="Times,serif" font-size="14.00">+ __invoke(finder : Symfony\Component\Finder\Finder, generator : Bartlett\GraphUml\Generator\GeneratorInterface, parameters : array = []) : string</text>
<text text-anchor="start" x="1157" y="-1221.3" font-family="Times,serif" font-size="14.00">+ getMetadata() : array</text>
<text text-anchor="start" x="1157" y="-1202.3" font-family="Times,serif" font-size="14.00">+ getGraph() : Graphp\Graph\Graph</text>
</g>
<!-- Bartlett\\UmlWriter\\Service\\ContainerService -->
<g id="node6" class="node">
<title>Bartlett\\UmlWriter\\Service\\ContainerService</title>
<polygon fill="#fefece" stroke="transparent" points="1126,-1310.5 820,-1310.5 820,-1180.5 1126,-1180.5 1126,-1310.5"/>
<polygon fill="#eeeeee" stroke="transparent" points="828,-1272.5 828,-1306.5 1118,-1306.5 1118,-1272.5 828,-1272.5"/>
<polygon fill="none" stroke="black" points="828,-1272.5 828,-1306.5 1118,-1306.5 1118,-1272.5 828,-1272.5"/>
<text text-anchor="start" x="905" y="-1279.3" font-family="Times,serif" font-weight="bold" font-size="14.00">ContainerService</text>
<polygon fill="none" stroke="black" points="828,-1266.5 828,-1272.5 1118,-1272.5 1118,-1266.5 828,-1266.5"/>
<polygon fill="none" stroke="black" points="828,-1184.5 828,-1266.5 1118,-1266.5 1118,-1184.5 828,-1184.5"/>
<text text-anchor="start" x="833" y="-1250.3" font-family="Times,serif" font-size="14.00">+ __construct()</text>
<text text-anchor="start" x="833" y="-1231.3" font-family="Times,serif" font-size="14.00">+ set(id : string, service : mixed) : void</text>
<text text-anchor="start" x="833" y="-1212.3" font-family="Times,serif" font-size="14.00">+ get(id : string) : ?mixed</text>
<text text-anchor="start" x="833" y="-1193.3" font-family="Times,serif" font-size="14.00">+ has(id : string) : bool</text>
</g>
<!-- Psr\\Container\\ContainerInterface -->
<g id="node7" class="node">
<title>Psr\\Container\\ContainerInterface</title>
<polygon fill="#fefece" stroke="transparent" points="1087,-791.5 859,-791.5 859,-699.5 1087,-699.5 1087,-791.5"/>
<polygon fill="#eeeeee" stroke="transparent" points="867,-753.5 867,-787.5 1079,-787.5 1079,-753.5 867,-753.5"/>
<polygon fill="none" stroke="black" points="867,-753.5 867,-787.5 1079,-787.5 1079,-753.5 867,-753.5"/>
<text text-anchor="start" x="928" y="-774.3" font-family="Times,serif" font-weight="bold" font-size="14.00">«interface»</text>
<text text-anchor="start" x="897" y="-760.3" font-family="Times,serif" font-weight="bold" font-size="14.00">ContainerInterface</text>
<polygon fill="none" stroke="black" points="867,-747.5 867,-753.5 1079,-753.5 1079,-747.5 867,-747.5"/>
<polygon fill="none" stroke="black" points="867,-703.5 867,-747.5 1079,-747.5 1079,-703.5 867,-703.5"/>
<text text-anchor="start" x="872" y="-731.3" font-family="Times,serif" font-size="14.00">+ «abstract» get(id : string)</text>
<text text-anchor="start" x="872" y="-712.3" font-family="Times,serif" font-size="14.00">+ «abstract» has(id : string)</text>
</g>
<!-- Bartlett\\UmlWriter\\Service\\ContainerService&#45;&gt;Psr\\Container\\ContainerInterface -->
<g id="edge3" class="edge">
<title>Bartlett\\UmlWriter\\Service\\ContainerService&#45;&gt;Psr\\Container\\ContainerInterface</title>
<path fill="none" stroke="black" stroke-dasharray="5,2" d="M973,-1180.41C973,-1081.79 973,-894.5 973,-801.6"/>
<polygon fill="none" stroke="black" points="976.5,-801.56 973,-791.56 969.5,-801.56 976.5,-801.56"/>
</g>
<!-- Bartlett\\UmlWriter\\Console\\Application -->
<g id="node8" class="node">
<title>Bartlett\\UmlWriter\\Console\\Application</title>
<polygon fill="#fefece" stroke="transparent" points="3956,-1310.5 2810,-1310.5 2810,-1180.5 3956,-1180.5 3956,-1310.5"/>
<polygon fill="#eeeeee" stroke="transparent" points="2818,-1272.5 2818,-1306.5 3948,-1306.5 3948,-1272.5 2818,-1272.5"/>
<polygon fill="none" stroke="black" points="2818,-1272.5 2818,-1306.5 3948,-1306.5 3948,-1272.5 2818,-1272.5"/>
<text text-anchor="start" x="3338" y="-1279.3" font-family="Times,serif" font-weight="bold" font-size="14.00">Application</text>
<polygon fill="none" stroke="black" points="2818,-1266.5 2818,-1272.5 3948,-1272.5 3948,-1266.5 2818,-1266.5"/>
<polygon fill="none" stroke="black" points="2818,-1184.5 2818,-1266.5 3948,-1266.5 3948,-1184.5 2818,-1184.5"/>
<text text-anchor="start" x="2823" y="-1250.3" font-family="Times,serif" font-size="14.00">+ __construct(container : Psr\Container\ContainerInterface, version : string = VERSION)</text>
<text text-anchor="start" x="2823" y="-1231.3" font-family="Times,serif" font-size="14.00">+ getHelp() : string</text>
<text text-anchor="start" x="2823" y="-1212.3" font-family="Times,serif" font-size="14.00">+ doRun(input : Symfony\Component\Console\Input\InputInterface, output : Symfony\Component\Console\Output\OutputInterface) : int</text>
<text text-anchor="start" x="2823" y="-1193.3" font-family="Times,serif" font-size="14.00">+ run(input : Symfony\Component\Console\Input\InputInterface = «unknown», output : Symfony\Component\Console\Output\OutputInterface = «unknown»)</text>
</g>
<!-- Symfony\\Component\\Console\\Application -->
<g id="node9" class="node">
<title>Symfony\\Component\\Console\\Application</title>
<polygon fill="#fefece" stroke="transparent" points="3988.5,-1124 2777.5,-1124 2777.5,-367 3988.5,-367 3988.5,-1124"/>
<polygon fill="#eeeeee" stroke="transparent" points="2786,-1085.5 2786,-1119.5 3981,-1119.5 3981,-1085.5 2786,-1085.5"/>
<polygon fill="none" stroke="black" points="2786,-1085.5 2786,-1119.5 3981,-1119.5 3981,-1085.5 2786,-1085.5"/>
<text text-anchor="start" x="3338.5" y="-1092.3" font-family="Times,serif" font-weight="bold" font-size="14.00">Application</text>
<polygon fill="none" stroke="black" points="2786,-1079.5 2786,-1085.5 3981,-1085.5 3981,-1079.5 2786,-1079.5"/>
<polygon fill="none" stroke="black" points="2786,-370.5 2786,-1079.5 3981,-1079.5 3981,-370.5 2786,-370.5"/>
<text text-anchor="start" x="2791" y="-1063.3" font-family="Times,serif" font-size="14.00">+ __construct(name : string = &#39;UNKNOWN&#39;, version : string = &#39;UNKNOWN&#39;)</text>
<text text-anchor="start" x="2791" y="-1044.3" font-family="Times,serif" font-size="14.00">+ setDispatcher(dispatcher : Symfony\Contracts\EventDispatcher\EventDispatcherInterface)</text>
<text text-anchor="start" x="2791" y="-1025.3" font-family="Times,serif" font-size="14.00">+ setCommandLoader(commandLoader : Symfony\Component\Console\CommandLoader\CommandLoaderInterface)</text>
<text text-anchor="start" x="2791" y="-1006.3" font-family="Times,serif" font-size="14.00">+ getSignalRegistry() : Symfony\Component\Console\SignalRegistry\SignalRegistry</text>
<text text-anchor="start" x="2791" y="-987.3" font-family="Times,serif" font-size="14.00">+ setSignalsToDispatchEvent(signalsToDispatchEvent : int = «unknown»)</text>
<text text-anchor="start" x="2791" y="-968.3" font-family="Times,serif" font-size="14.00">+ run(input : Symfony\Component\Console\Input\InputInterface = «unknown», output : Symfony\Component\Console\Output\OutputInterface = «unknown»)</text>
<text text-anchor="start" x="2791" y="-949.3" font-family="Times,serif" font-size="14.00">+ doRun(input : Symfony\Component\Console\Input\InputInterface, output : Symfony\Component\Console\Output\OutputInterface)</text>
<text text-anchor="start" x="2791" y="-930.3" font-family="Times,serif" font-size="14.00">+ reset()</text>
<text text-anchor="start" x="2791" y="-911.3" font-family="Times,serif" font-size="14.00">+ setHelperSet(helperSet : Symfony\Component\Console\Helper\HelperSet)</text>
<text text-anchor="start" x="2791" y="-892.3" font-family="Times,serif" font-size="14.00">+ getHelperSet()</text>
<text text-anchor="start" x="2791" y="-873.3" font-family="Times,serif" font-size="14.00">+ setDefinition(definition : Symfony\Component\Console\Input\InputDefinition)</text>
<text text-anchor="start" x="2791" y="-854.3" font-family="Times,serif" font-size="14.00">+ getDefinition()</text>
<text text-anchor="start" x="2791" y="-835.3" font-family="Times,serif" font-size="14.00">+ complete(input : Symfony\Component\Console\Completion\CompletionInput, suggestions : Symfony\Component\Console\Completion\CompletionSuggestions) : void</text>
<text text-anchor="start" x="2791" y="-816.3" font-family="Times,serif" font-size="14.00">+ getHelp()</text>
<text text-anchor="start" x="2791" y="-797.3" font-family="Times,serif" font-size="14.00">+ areExceptionsCaught()</text>
<text text-anchor="start" x="2791" y="-778.3" font-family="Times,serif" font-size="14.00">+ setCatchExceptions(boolean : bool)</text>
<text text-anchor="start" x="2791" y="-759.3" font-family="Times,serif" font-size="14.00">+ isAutoExitEnabled()</text>
<text text-anchor="start" x="2791" y="-740.3" font-family="Times,serif" font-size="14.00">+ setAutoExit(boolean : bool)</text>
<text text-anchor="start" x="2791" y="-721.3" font-family="Times,serif" font-size="14.00">+ getName()</text>
<text text-anchor="start" x="2791" y="-702.3" font-family="Times,serif" font-size="14.00">+ setName(name : string)</text>
<text text-anchor="start" x="2791" y="-683.3" font-family="Times,serif" font-size="14.00">+ getVersion()</text>
<text text-anchor="start" x="2791" y="-664.3" font-family="Times,serif" font-size="14.00">+ setVersion(version : string)</text>
<text text-anchor="start" x="2791" y="-645.3" font-family="Times,serif" font-size="14.00">+ getLongVersion()</text>
<text text-anchor="start" x="2791" y="-626.3" font-family="Times,serif" font-size="14.00">+ register(name : string)</text>
<text text-anchor="start" x="2791" y="-607.3" font-family="Times,serif" font-size="14.00">+ addCommands(commands : array)</text>
<text text-anchor="start" x="2791" y="-588.3" font-family="Times,serif" font-size="14.00">+ add(command : Symfony\Component\Console\Command\Command)</text>
<text text-anchor="start" x="2791" y="-569.3" font-family="Times,serif" font-size="14.00">+ get(name : string)</text>
<text text-anchor="start" x="2791" y="-550.3" font-family="Times,serif" font-size="14.00">+ has(name : string)</text>
<text text-anchor="start" x="2791" y="-531.3" font-family="Times,serif" font-size="14.00">+ getNamespaces()</text>
<text text-anchor="start" x="2791" y="-512.3" font-family="Times,serif" font-size="14.00">+ findNamespace(namespace : string)</text>
<text text-anchor="start" x="2791" y="-493.3" font-family="Times,serif" font-size="14.00">+ find(name : string)</text>
<text text-anchor="start" x="2791" y="-474.3" font-family="Times,serif" font-size="14.00">+ all(namespace : string = «unknown»)</text>
<text text-anchor="start" x="2791" y="-455.3" font-family="Times,serif" font-size="14.00">+ «static» getAbbreviations(names : array)</text>
<text text-anchor="start" x="2791" y="-436.3" font-family="Times,serif" font-size="14.00">+ renderThrowable(e : Throwable, output : Symfony\Component\Console\Output\OutputInterface) : void</text>
<text text-anchor="start" x="2791" y="-417.3" font-family="Times,serif" font-size="14.00">+ extractNamespace(name : string, limit : int = «unknown»)</text>
<text text-anchor="start" x="2791" y="-398.3" font-family="Times,serif" font-size="14.00">+ setDefaultCommand(commandName : string, isSingleCommand : bool = false)</text>
<text text-anchor="start" x="2791" y="-379.3" font-family="Times,serif" font-size="14.00">+ isSingleCommand() : bool</text>
</g>
<!-- Bartlett\\UmlWriter\\Console\\Application&#45;&gt;Symfony\\Component\\Console\\Application -->
<g id="edge5" class="edge">
<title>Bartlett\\UmlWriter\\Console\\Application&#45;&gt;Symfony\\Component\\Console\\Application</title>
<path fill="none" stroke="black" d="M3383,-1180.41C3383,-1166.58 3383,-1151 3383,-1134.18"/>
<polygon fill="none" stroke="black" points="3386.5,-1134.14 3383,-1124.14 3379.5,-1134.14 3386.5,-1134.14"/>
</g>
<!-- Symfony\\Contracts\\Service\\ResetInterface -->
<g id="node10" class="node">
<title>Symfony\\Contracts\\Service\\ResetInterface</title>
<polygon fill="#fefece" stroke="transparent" points="3468.5,-293 3297.5,-293 3297.5,-220 3468.5,-220 3468.5,-293"/>
<polygon fill="#eeeeee" stroke="transparent" points="3306,-254.5 3306,-288.5 3461,-288.5 3461,-254.5 3306,-254.5"/>
<polygon fill="none" stroke="black" points="3306,-254.5 3306,-288.5 3461,-288.5 3461,-254.5 3306,-254.5"/>
<text text-anchor="start" x="3338.5" y="-275.3" font-family="Times,serif" font-weight="bold" font-size="14.00">«interface»</text>
<text text-anchor="start" x="3324.5" y="-261.3" font-family="Times,serif" font-weight="bold" font-size="14.00">ResetInterface</text>
<polygon fill="none" stroke="black" points="3306,-248.5 3306,-254.5 3461,-254.5 3461,-248.5 3306,-248.5"/>
<polygon fill="none" stroke="black" points="3306,-223.5 3306,-248.5 3461,-248.5 3461,-223.5 3306,-223.5"/>
<text text-anchor="start" x="3311" y="-232.3" font-family="Times,serif" font-size="14.00">+ «abstract» reset()</text>
</g>
<!-- Symfony\\Component\\Console\\Application&#45;&gt;Symfony\\Contracts\\Service\\ResetInterface -->
<g id="edge4" class="edge">
<title>Symfony\\Component\\Console\\Application&#45;&gt;Symfony\\Contracts\\Service\\ResetInterface</title>
<path fill="none" stroke="black" stroke-dasharray="5,2" d="M3383,-366.79C3383,-342.55 3383,-320.89 3383,-303.38"/>
<polygon fill="none" stroke="black" points="3386.5,-303.02 3383,-293.02 3379.5,-303.02 3386.5,-303.02"/>
</g>
<!-- Bartlett\\UmlWriter\\Console\\Command\\ClassDiagramCommand -->
<g id="node11" class="node">
<title>Bartlett\\UmlWriter\\Console\\Command\\ClassDiagramCommand</title>
<polygon fill="#fefece" stroke="transparent" points="5184.5,-1282 4053.5,-1282 4053.5,-1209 5184.5,-1209 5184.5,-1282"/>
<polygon fill="#eeeeee" stroke="transparent" points="4062,-1243.5 4062,-1277.5 5177,-1277.5 5177,-1243.5 4062,-1243.5"/>
<polygon fill="none" stroke="black" points="4062,-1243.5 4062,-1277.5 5177,-1277.5 5177,-1243.5 4062,-1243.5"/>
<text text-anchor="start" x="4524.5" y="-1250.3" font-family="Times,serif" font-weight="bold" font-size="14.00">ClassDiagramCommand</text>
<polygon fill="none" stroke="black" points="4062,-1237.5 4062,-1243.5 5177,-1243.5 5177,-1237.5 4062,-1237.5"/>
<polygon fill="none" stroke="black" points="4062,-1212.5 4062,-1237.5 5177,-1237.5 5177,-1212.5 4062,-1212.5"/>
<text text-anchor="start" x="4067" y="-1221.3" font-family="Times,serif" font-size="14.00">+ __construct(renderer : Bartlett\UmlWriter\Service\ClassDiagramRenderer, generatorFactory : Bartlett\UmlWriter\Generator\GeneratorFactoryInterface)</text>
</g>
<!-- Symfony\\Component\\Console\\Command\\Command -->
<g id="node12" class="node">
<title>Symfony\\Component\\Console\\Command\\Command</title>
<polygon fill="#fefece" stroke="transparent" points="5224.5,-1095.5 4013.5,-1095.5 4013.5,-395.5 5224.5,-395.5 5224.5,-1095.5"/>
<polygon fill="#eeeeee" stroke="transparent" points="4022,-1057.5 4022,-1091.5 5217,-1091.5 5217,-1057.5 4022,-1057.5"/>
<polygon fill="none" stroke="black" points="4022,-1057.5 4022,-1091.5 5217,-1091.5 5217,-1057.5 4022,-1057.5"/>
<text text-anchor="start" x="4579.5" y="-1064.3" font-family="Times,serif" font-weight="bold" font-size="14.00">Command</text>
<polygon fill="none" stroke="black" points="4022,-1051.5 4022,-1057.5 5217,-1057.5 5217,-1051.5 4022,-1051.5"/>
<polygon fill="none" stroke="black" points="4022,-399.5 4022,-1051.5 5217,-1051.5 5217,-399.5 4022,-399.5"/>
<text text-anchor="start" x="4027" y="-1035.3" font-family="Times,serif" font-size="14.00">+ «static» getDefaultName()</text>
<text text-anchor="start" x="4027" y="-1016.3" font-family="Times,serif" font-size="14.00">+ «static» getDefaultDescription() : ?string</text>
<text text-anchor="start" x="4027" y="-997.3" font-family="Times,serif" font-size="14.00">+ __construct(name : string = «unknown»)</text>
<text text-anchor="start" x="4027" y="-978.3" font-family="Times,serif" font-size="14.00">+ ignoreValidationErrors()</text>
<text text-anchor="start" x="4027" y="-959.3" font-family="Times,serif" font-size="14.00">+ setApplication(application : Symfony\Component\Console\Application = «unknown»)</text>
<text text-anchor="start" x="4027" y="-940.3" font-family="Times,serif" font-size="14.00">+ setHelperSet(helperSet : Symfony\Component\Console\Helper\HelperSet)</text>
<text text-anchor="start" x="4027" y="-921.3" font-family="Times,serif" font-size="14.00">+ getHelperSet()</text>
<text text-anchor="start" x="4027" y="-902.3" font-family="Times,serif" font-size="14.00">+ getApplication()</text>
<text text-anchor="start" x="4027" y="-883.3" font-family="Times,serif" font-size="14.00">+ isEnabled()</text>
<text text-anchor="start" x="4027" y="-864.3" font-family="Times,serif" font-size="14.00">+ run(input : Symfony\Component\Console\Input\InputInterface, output : Symfony\Component\Console\Output\OutputInterface)</text>
<text text-anchor="start" x="4027" y="-845.3" font-family="Times,serif" font-size="14.00">+ complete(input : Symfony\Component\Console\Completion\CompletionInput, suggestions : Symfony\Component\Console\Completion\CompletionSuggestions) : void</text>
<text text-anchor="start" x="4027" y="-826.3" font-family="Times,serif" font-size="14.00">+ setCode(code : callable)</text>
<text text-anchor="start" x="4027" y="-807.3" font-family="Times,serif" font-size="14.00">+ mergeApplicationDefinition(mergeArgs : bool = true)</text>
<text text-anchor="start" x="4027" y="-788.3" font-family="Times,serif" font-size="14.00">+ setDefinition(definition : mixed)</text>
<text text-anchor="start" x="4027" y="-769.3" font-family="Times,serif" font-size="14.00">+ getDefinition()</text>
<text text-anchor="start" x="4027" y="-750.3" font-family="Times,serif" font-size="14.00">+ getNativeDefinition()</text>
<text text-anchor="start" x="4027" y="-731.3" font-family="Times,serif" font-size="14.00">+ addArgument(name : string, mode : int = «unknown», description : string = &#39;&#39;, default = «unknown»)</text>
<text text-anchor="start" x="4027" y="-712.3" font-family="Times,serif" font-size="14.00">+ addOption(name : string, shortcut = «unknown», mode : int = «unknown», description : string = &#39;&#39;, default = «unknown»)</text>
<text text-anchor="start" x="4027" y="-693.3" font-family="Times,serif" font-size="14.00">+ setName(name : string)</text>
<text text-anchor="start" x="4027" y="-674.3" font-family="Times,serif" font-size="14.00">+ setProcessTitle(title : string)</text>
<text text-anchor="start" x="4027" y="-655.3" font-family="Times,serif" font-size="14.00">+ getName()</text>
<text text-anchor="start" x="4027" y="-636.3" font-family="Times,serif" font-size="14.00">+ setHidden(hidden : bool)</text>
<text text-anchor="start" x="4027" y="-617.3" font-family="Times,serif" font-size="14.00">+ isHidden()</text>
<text text-anchor="start" x="4027" y="-598.3" font-family="Times,serif" font-size="14.00">+ setDescription(description : string)</text>
<text text-anchor="start" x="4027" y="-579.3" font-family="Times,serif" font-size="14.00">+ getDescription()</text>
<text text-anchor="start" x="4027" y="-560.3" font-family="Times,serif" font-size="14.00">+ setHelp(help : string)</text>
<text text-anchor="start" x="4027" y="-541.3" font-family="Times,serif" font-size="14.00">+ getHelp()</text>
<text text-anchor="start" x="4027" y="-522.3" font-family="Times,serif" font-size="14.00">+ getProcessedHelp()</text>
<text text-anchor="start" x="4027" y="-503.3" font-family="Times,serif" font-size="14.00">+ setAliases(aliases : iterable)</text>
<text text-anchor="start" x="4027" y="-484.3" font-family="Times,serif" font-size="14.00">+ getAliases()</text>
<text text-anchor="start" x="4027" y="-465.3" font-family="Times,serif" font-size="14.00">+ getSynopsis(short : bool = false)</text>
<text text-anchor="start" x="4027" y="-446.3" font-family="Times,serif" font-size="14.00">+ addUsage(usage : string)</text>
<text text-anchor="start" x="4027" y="-427.3" font-family="Times,serif" font-size="14.00">+ getUsages()</text>
<text text-anchor="start" x="4027" y="-408.3" font-family="Times,serif" font-size="14.00">+ getHelper(name : string)</text>
</g>
<!-- Bartlett\\UmlWriter\\Console\\Command\\ClassDiagramCommand&#45;&gt;Symfony\\Component\\Console\\Command\\Command -->
<g id="edge6" class="edge">
<title>Bartlett\\UmlWriter\\Console\\Command\\ClassDiagramCommand&#45;&gt;Symfony\\Component\\Console\\Command\\Command</title>
<path fill="none" stroke="black" d="M4619,-1208.69C4619,-1183.6 4619,-1147.23 4619,-1105.74"/>
<polygon fill="none" stroke="black" points="4622.5,-1105.67 4619,-1095.67 4615.5,-1105.67 4622.5,-1105.67"/>
</g>
<!-- Bartlett\\UmlWriter\\Config\\Loader\\YamlFileLoader -->
<g id="node13" class="node">
<title>Bartlett\\UmlWriter\\Config\\Loader\\YamlFileLoader</title>
<polygon fill="#fefece" stroke="transparent" points="6020.5,-1291.5 5599.5,-1291.5 5599.5,-1199.5 6020.5,-1199.5 6020.5,-1291.5"/>
<polygon fill="#eeeeee" stroke="transparent" points="5608,-1253.5 5608,-1287.5 6013,-1287.5 6013,-1253.5 5608,-1253.5"/>
<polygon fill="none" stroke="black" points="5608,-1253.5 5608,-1287.5 6013,-1287.5 6013,-1253.5 5608,-1253.5"/>
<text text-anchor="start" x="5749.5" y="-1260.3" font-family="Times,serif" font-weight="bold" font-size="14.00">YamlFileLoader</text>
<polygon fill="none" stroke="black" points="5608,-1247.5 5608,-1253.5 6013,-1253.5 6013,-1247.5 5608,-1247.5"/>
<polygon fill="none" stroke="black" points="5608,-1203.5 5608,-1247.5 6013,-1247.5 6013,-1203.5 5608,-1203.5"/>
<text text-anchor="start" x="5613" y="-1231.3" font-family="Times,serif" font-size="14.00">+ load(resource, type : string = «unknown») : ?mixed</text>
<text text-anchor="start" x="5613" y="-1212.3" font-family="Times,serif" font-size="14.00">+ supports(resource, type : string = «unknown») : bool</text>
</g>
<!-- Symfony\\Component\\Config\\Loader\\FileLoader -->
<g id="node14" class="node">
<title>Symfony\\Component\\Config\\Loader\\FileLoader</title>
<polygon fill="#fefece" stroke="transparent" points="6371,-810.5 5249,-810.5 5249,-680.5 6371,-680.5 6371,-810.5"/>
<polygon fill="#eeeeee" stroke="transparent" points="5257,-772.5 5257,-806.5 6363,-806.5 6363,-772.5 5257,-772.5"/>
<polygon fill="none" stroke="black" points="5257,-772.5 5257,-806.5 6363,-806.5 6363,-772.5 5257,-772.5"/>
<text text-anchor="start" x="5768" y="-793.3" font-family="Times,serif" font-weight="bold" font-size="14.00">«abstract»</text>
<text text-anchor="start" x="5768" y="-779.3" font-family="Times,serif" font-weight="bold" font-size="14.00">FileLoader</text>
<polygon fill="none" stroke="black" points="5257,-766.5 5257,-772.5 6363,-772.5 6363,-766.5 5257,-766.5"/>
<polygon fill="none" stroke="black" points="5257,-684.5 5257,-766.5 6363,-766.5 6363,-684.5 5257,-684.5"/>
<text text-anchor="start" x="5262" y="-750.3" font-family="Times,serif" font-size="14.00">+ __construct(locator : Symfony\Component\Config\FileLocatorInterface, env : string = «unknown»)</text>
<text text-anchor="start" x="5262" y="-731.3" font-family="Times,serif" font-size="14.00">+ setCurrentDir(dir : string)</text>
<text text-anchor="start" x="5262" y="-712.3" font-family="Times,serif" font-size="14.00">+ getLocator()</text>
<text text-anchor="start" x="5262" y="-693.3" font-family="Times,serif" font-size="14.00">+ import(resource : mixed, type : string = «unknown», ignoreErrors : bool = false, sourceResource : string = «unknown», exclude : mixed = «unknown»)</text>
</g>
<!-- Bartlett\\UmlWriter\\Config\\Loader\\YamlFileLoader&#45;&gt;Symfony\\Component\\Config\\Loader\\FileLoader -->
<g id="edge9" class="edge">
<title>Bartlett\\UmlWriter\\Config\\Loader\\YamlFileLoader&#45;&gt;Symfony\\Component\\Config\\Loader\\FileLoader</title>
<path fill="none" stroke="black" d="M5810,-1199.43C5810,-1113.58 5810,-925.84 5810,-821.02"/>
<polygon fill="none" stroke="black" points="5813.5,-820.83 5810,-810.83 5806.5,-820.83 5813.5,-820.83"/>
</g>
<!-- Symfony\\Component\\Config\\Loader\\Loader -->
<g id="node15" class="node">
<title>Symfony\\Component\\Config\\Loader\\Loader</title>
<polygon fill="#fefece" stroke="transparent" points="6131.5,-331 5488.5,-331 5488.5,-182 6131.5,-182 6131.5,-331"/>
<polygon fill="#eeeeee" stroke="transparent" points="5497,-292.5 5497,-326.5 6124,-326.5 6124,-292.5 5497,-292.5"/>
<polygon fill="none" stroke="black" points="5497,-292.5 5497,-326.5 6124,-326.5 6124,-292.5 5497,-292.5"/>
<text text-anchor="start" x="5768.5" y="-313.3" font-family="Times,serif" font-weight="bold" font-size="14.00">«abstract»</text>
<text text-anchor="start" x="5783" y="-299.3" font-family="Times,serif" font-weight="bold" font-size="14.00">Loader</text>
<polygon fill="none" stroke="black" points="5497,-286.5 5497,-292.5 6124,-292.5 6124,-286.5 5497,-286.5"/>
<polygon fill="none" stroke="black" points="5497,-185.5 5497,-286.5 6124,-286.5 6124,-185.5 5497,-185.5"/>
<text text-anchor="start" x="5502" y="-270.3" font-family="Times,serif" font-size="14.00">+ __construct(env : string = «unknown»)</text>
<text text-anchor="start" x="5502" y="-251.3" font-family="Times,serif" font-size="14.00">+ getResolver()</text>
<text text-anchor="start" x="5502" y="-232.3" font-family="Times,serif" font-size="14.00">+ setResolver(resolver : Symfony\Component\Config\Loader\LoaderResolverInterface)</text>
<text text-anchor="start" x="5502" y="-213.3" font-family="Times,serif" font-size="14.00">+ import(resource : mixed, type : string = «unknown»)</text>
<text text-anchor="start" x="5502" y="-194.3" font-family="Times,serif" font-size="14.00">+ resolve(resource : mixed, type : string = «unknown»)</text>
</g>
<!-- Symfony\\Component\\Config\\Loader\\FileLoader&#45;&gt;Symfony\\Component\\Config\\Loader\\Loader -->
<g id="edge8" class="edge">
<title>Symfony\\Component\\Config\\Loader\\FileLoader&#45;&gt;Symfony\\Component\\Config\\Loader\\Loader</title>
<path fill="none" stroke="black" d="M5810,-680.33C5810,-593.36 5810,-437.9 5810,-341.65"/>
<polygon fill="none" stroke="black" points="5813.5,-341.37 5810,-331.37 5806.5,-341.37 5813.5,-341.37"/>
</g>
<!-- Symfony\\Component\\Config\\Loader\\LoaderInterface -->
<g id="node16" class="node">
<title>Symfony\\Component\\Config\\Loader\\LoaderInterface</title>
<polygon fill="#fefece" stroke="transparent" points="6171.5,-146 5448.5,-146 5448.5,-16 6171.5,-16 6171.5,-146"/>
<polygon fill="#eeeeee" stroke="transparent" points="5457,-108 5457,-142 6164,-142 6164,-108 5457,-108"/>
<polygon fill="none" stroke="black" points="5457,-108 5457,-142 6164,-142 6164,-108 5457,-108"/>
<text text-anchor="start" x="5765.5" y="-128.8" font-family="Times,serif" font-weight="bold" font-size="14.00">«interface»</text>
<text text-anchor="start" x="5747" y="-114.8" font-family="Times,serif" font-weight="bold" font-size="14.00">LoaderInterface</text>
<polygon fill="none" stroke="black" points="5457,-102 5457,-108 6164,-108 6164,-102 5457,-102"/>
<polygon fill="none" stroke="black" points="5457,-20 5457,-102 6164,-102 6164,-20 5457,-20"/>
<text text-anchor="start" x="5462" y="-85.8" font-family="Times,serif" font-size="14.00">+ «abstract» load(resource, type : string = «unknown»)</text>
<text text-anchor="start" x="5462" y="-66.8" font-family="Times,serif" font-size="14.00">+ «abstract» supports(resource, type : string = «unknown»)</text>
<text text-anchor="start" x="5462" y="-47.8" font-family="Times,serif" font-size="14.00">+ «abstract» getResolver()</text>
<text text-anchor="start" x="5462" y="-28.8" font-family="Times,serif" font-size="14.00">+ «abstract» setResolver(resolver : Symfony\Component\Config\Loader\LoaderResolverInterface)</text>
</g>
<!-- Symfony\\Component\\Config\\Loader\\Loader&#45;&gt;Symfony\\Component\\Config\\Loader\\LoaderInterface -->
<g id="edge7" class="edge">
<title>Symfony\\Component\\Config\\Loader\\Loader&#45;&gt;Symfony\\Component\\Config\\Loader\\LoaderInterface</title>
<path fill="none" stroke="black" stroke-dasharray="5,2" d="M5810,-181.92C5810,-173.45 5810,-164.81 5810,-156.33"/>
<polygon fill="none" stroke="black" points="5813.5,-156.09 5810,-146.09 5806.5,-156.09 5813.5,-156.09"/>
</g>
</g>
</svg>
