<?xml version="1.0" encoding="UTF-8" standalone="no"?>
<!DOCTYPE svg PUBLIC "-//W3C//DTD SVG 1.1//EN"
 "http://www.w3.org/Graphics/SVG/1.1/DTD/svg11.dtd">
<!-- Generated by graphviz version 2.40.1 (20161225.0304)
 -->
<!-- Title: %3 Pages: 1 -->
<svg width="3262pt" height="484pt"
 viewBox="0.00 0.00 3261.60 484.00" xmlns="http://www.w3.org/2000/svg" xmlns:xlink="http://www.w3.org/1999/xlink">
<g id="graph0" class="graph" transform="scale(1 1) rotate(0) translate(4 480)">
<title>%3</title>
<polygon fill="#ffffff" stroke="transparent" points="-4,4 -4,-480 3257.6008,-480 3257.6008,4 -4,4"/>
<!-- bartlett/umlwriter -->
<g id="node1" class="node">
<title>bartlett/umlwriter</title>
<ellipse fill="#d3d3d3" stroke="#000000" stroke-width="2" cx="1583.6008" cy="-458" rx="73.387" ry="18"/>
<text text-anchor="middle" x="1583.6008" y="-454.3" font-family="Times,serif" font-size="14.00" fill="#000000">bartlett/umlwriter</text>
</g>
<!-- php -->
<g id="node2" class="node">
<title>php</title>
<path fill="#eeeeee" stroke="#000000" d="M1832.6008,-36C1832.6008,-36 1802.6008,-36 1802.6008,-36 1796.6008,-36 1790.6008,-30 1790.6008,-24 1790.6008,-24 1790.6008,-12 1790.6008,-12 1790.6008,-6 1796.6008,0 1802.6008,0 1802.6008,0 1832.6008,0 1832.6008,0 1838.6008,0 1844.6008,-6 1844.6008,-12 1844.6008,-12 1844.6008,-24 1844.6008,-24 1844.6008,-30 1838.6008,-36 1832.6008,-36"/>
<text text-anchor="middle" x="1817.6008" y="-14.3" font-family="Times,serif" font-size="14.00" fill="#314b5f">php</text>
</g>
<!-- bartlett/umlwriter&#45;&gt;php -->
<g id="edge1" class="edge">
<title>bartlett/umlwriter&#45;&gt;php</title>
<path fill="none" stroke="#1a2833" d="M1656.7168,-456.266C1976.4285,-448.4486 3235.6008,-415.1137 3235.6008,-375 3235.6008,-375 3235.6008,-375 3235.6008,-101 3235.6008,-10.1223 3126.7031,-65.8464 3036.6008,-54 2799.7712,-22.8623 2033.4114,-18.647 1854.9743,-18.0851"/>
<polygon fill="#1a2833" stroke="#1a2833" points="1854.7946,-14.5846 1844.7843,-18.055 1854.7739,-21.5846 1854.7946,-14.5846"/>
<text text-anchor="middle" x="3244.6008" y="-248" font-family="Times,serif" font-size="10.00" fill="#767676">^8.0</text>
</g>
<!-- bartlett/graph&#45;plantuml&#45;generator -->
<g id="node3" class="node">
<title>bartlett/graph&#45;plantuml&#45;generator</title>
<path fill="#eeeeee" stroke="#000000" d="M551.1008,-393C551.1008,-393 342.1008,-393 342.1008,-393 336.1008,-393 330.1008,-387 330.1008,-381 330.1008,-381 330.1008,-369 330.1008,-369 330.1008,-363 336.1008,-357 342.1008,-357 342.1008,-357 551.1008,-357 551.1008,-357 557.1008,-357 563.1008,-363 563.1008,-369 563.1008,-369 563.1008,-381 563.1008,-381 563.1008,-387 557.1008,-393 551.1008,-393"/>
<text text-anchor="middle" x="446.6008" y="-371.3" font-family="Times,serif" font-size="14.00" fill="#314b5f">bartlett/graph&#45;plantuml&#45;generator: 1.1.0</text>
</g>
<!-- bartlett/umlwriter&#45;&gt;bartlett/graph&#45;plantuml&#45;generator -->
<g id="edge16" class="edge">
<title>bartlett/umlwriter&#45;&gt;bartlett/graph&#45;plantuml&#45;generator</title>
<path fill="none" stroke="#1a2833" d="M1510.2526,-456.937C1291.2471,-453.5511 651.5546,-442.0469 559.6008,-422 535.8374,-416.8193 510.7324,-406.8746 490.2367,-397.4621"/>
<polygon fill="#1a2833" stroke="#1a2833" points="491.7041,-394.2845 481.1655,-393.1939 488.7238,-400.6184 491.7041,-394.2845"/>
<text text-anchor="middle" x="568.6008" y="-414" font-family="Times,serif" font-size="10.00" fill="#767676">^1.1</text>
</g>
<!-- bartlett/graph&#45;uml -->
<g id="node4" class="node">
<title>bartlett/graph&#45;uml</title>
<path fill="#eeeeee" stroke="#000000" d="M333.1008,-310C333.1008,-310 206.1008,-310 206.1008,-310 200.1008,-310 194.1008,-304 194.1008,-298 194.1008,-298 194.1008,-286 194.1008,-286 194.1008,-280 200.1008,-274 206.1008,-274 206.1008,-274 333.1008,-274 333.1008,-274 339.1008,-274 345.1008,-280 345.1008,-286 345.1008,-286 345.1008,-298 345.1008,-298 345.1008,-304 339.1008,-310 333.1008,-310"/>
<text text-anchor="middle" x="269.6008" y="-288.3" font-family="Times,serif" font-size="14.00" fill="#314b5f">bartlett/graph&#45;uml: 1.1.0</text>
</g>
<!-- bartlett/umlwriter&#45;&gt;bartlett/graph&#45;uml -->
<g id="edge17" class="edge">
<title>bartlett/umlwriter&#45;&gt;bartlett/graph&#45;uml</title>
<path fill="none" stroke="#1a2833" d="M1510.2053,-456.4564C1302.5304,-451.9388 713.3596,-438.046 520.6008,-422 423.1953,-413.8916 377.7582,-455.4895 302.6008,-393 281.1977,-375.2045 273.5607,-343.2983 270.8976,-320.098"/>
<polygon fill="#1a2833" stroke="#1a2833" points="274.3827,-319.7753 269.9924,-310.1329 267.4115,-320.4086 274.3827,-319.7753"/>
<text text-anchor="middle" x="311.6008" y="-372.5" font-family="Times,serif" font-size="10.00" fill="#767676">^1.1</text>
</g>
<!-- cweagans/composer&#45;patches -->
<g id="node5" class="node">
<title>cweagans/composer&#45;patches</title>
<path fill="#eeeeee" stroke="#000000" d="M221.6008,-227C221.6008,-227 39.6008,-227 39.6008,-227 33.6008,-227 27.6008,-221 27.6008,-215 27.6008,-215 27.6008,-203 27.6008,-203 27.6008,-197 33.6008,-191 39.6008,-191 39.6008,-191 221.6008,-191 221.6008,-191 227.6008,-191 233.6008,-197 233.6008,-203 233.6008,-203 233.6008,-215 233.6008,-215 233.6008,-221 227.6008,-227 221.6008,-227"/>
<text text-anchor="middle" x="130.6008" y="-205.3" font-family="Times,serif" font-size="14.00" fill="#314b5f">cweagans/composer&#45;patches: 1.7.1</text>
</g>
<!-- bartlett/umlwriter&#45;&gt;cweagans/composer&#45;patches -->
<g id="edge18" class="edge">
<title>bartlett/umlwriter&#45;&gt;cweagans/composer&#45;patches</title>
<path fill="none" stroke="#1a2833" d="M1510.2292,-456.8979C1249.8586,-452.8571 382.7045,-438.2411 325.6008,-422 248.6228,-400.1064 233.7426,-373.1666 184.6008,-310 166.8936,-287.2393 151.9181,-257.8513 142.2624,-236.6504"/>
<polygon fill="#1a2833" stroke="#1a2833" points="145.3452,-234.9689 138.0854,-227.2524 138.9486,-237.812 145.3452,-234.9689"/>
<text text-anchor="middle" x="215.6008" y="-331" font-family="Times,serif" font-size="10.00" fill="#767676">^1.7</text>
</g>
<!-- graphp/graph -->
<g id="node7" class="node">
<title>graphp/graph</title>
<path fill="#eeeeee" stroke="#000000" d="M549.1008,-119C549.1008,-119 416.1008,-119 416.1008,-119 410.1008,-119 404.1008,-113 404.1008,-107 404.1008,-107 404.1008,-95 404.1008,-95 404.1008,-89 410.1008,-83 416.1008,-83 416.1008,-83 549.1008,-83 549.1008,-83 555.1008,-83 561.1008,-89 561.1008,-95 561.1008,-95 561.1008,-107 561.1008,-107 561.1008,-113 555.1008,-119 549.1008,-119"/>
<text text-anchor="middle" x="482.6008" y="-97.3" font-family="Times,serif" font-size="14.00" fill="#314b5f">graphp/graph: dev&#45;master</text>
</g>
<!-- bartlett/umlwriter&#45;&gt;graphp/graph -->
<g id="edge19" class="edge">
<title>bartlett/umlwriter&#45;&gt;graphp/graph</title>
<path fill="none" stroke="#1a2833" d="M1516.7094,-450.5289C1364.9474,-431.477 985.978,-371.9513 705.6008,-227 683.46,-215.5535 682.283,-206.292 662.6008,-191 630.1654,-165.7996 624.0873,-155.8638 587.6008,-137 577.2362,-131.6414 565.9008,-126.8038 554.6337,-122.5405"/>
<polygon fill="#1a2833" stroke="#1a2833" points="555.8019,-119.2411 545.2081,-119.0956 553.3989,-125.8157 555.8019,-119.2411"/>
<text text-anchor="middle" x="932.6008" y="-289.5" font-family="Times,serif" font-size="10.00" fill="#767676">dev&#45;master as 1.0.0</text>
</g>
<!-- graphp/graphviz -->
<g id="node8" class="node">
<title>graphp/graphviz</title>
<path fill="#eeeeee" stroke="#000000" d="M565.1008,-227C565.1008,-227 416.1008,-227 416.1008,-227 410.1008,-227 404.1008,-221 404.1008,-215 404.1008,-215 404.1008,-203 404.1008,-203 404.1008,-197 410.1008,-191 416.1008,-191 416.1008,-191 565.1008,-191 565.1008,-191 571.1008,-191 577.1008,-197 577.1008,-203 577.1008,-203 577.1008,-215 577.1008,-215 577.1008,-221 571.1008,-227 565.1008,-227"/>
<text text-anchor="middle" x="490.6008" y="-205.3" font-family="Times,serif" font-size="14.00" fill="#314b5f">graphp/graphviz: dev&#45;master</text>
</g>
<!-- bartlett/umlwriter&#45;&gt;graphp/graphviz -->
<g id="edge20" class="edge">
<title>bartlett/umlwriter&#45;&gt;graphp/graphviz</title>
<path fill="none" stroke="#1a2833" d="M1510.0531,-457.7097C1317.0787,-456.5491 806.2237,-450.7646 735.6008,-422 644.3667,-384.8404 645.5178,-337.9682 570.6008,-274 554.6396,-260.3715 536.5124,-245.5878 521.5538,-233.5679"/>
<polygon fill="#1a2833" stroke="#1a2833" points="523.5962,-230.7195 513.6033,-227.1993 519.2199,-236.1828 523.5962,-230.7195"/>
<text text-anchor="middle" x="670.6008" y="-331" font-family="Times,serif" font-size="10.00" fill="#767676">dev&#45;master as 1.0.0</text>
</g>
<!-- psr/container -->
<g id="node11" class="node">
<title>psr/container</title>
<path fill="#eeeeee" stroke="#000000" d="M1691.6008,-119C1691.6008,-119 1593.6008,-119 1593.6008,-119 1587.6008,-119 1581.6008,-113 1581.6008,-107 1581.6008,-107 1581.6008,-95 1581.6008,-95 1581.6008,-89 1587.6008,-83 1593.6008,-83 1593.6008,-83 1691.6008,-83 1691.6008,-83 1697.6008,-83 1703.6008,-89 1703.6008,-95 1703.6008,-95 1703.6008,-107 1703.6008,-107 1703.6008,-113 1697.6008,-119 1691.6008,-119"/>
<text text-anchor="middle" x="1642.6008" y="-97.3" font-family="Times,serif" font-size="14.00" fill="#314b5f">psr/container: 1.1.2</text>
</g>
<!-- bartlett/umlwriter&#45;&gt;psr/container -->
<g id="edge22" class="edge">
<title>bartlett/umlwriter&#45;&gt;psr/container</title>
<path fill="none" stroke="#1a2833" d="M1583.6008,-439.8658C1583.6008,-423.0509 1583.6008,-397.3351 1583.6008,-375 1583.6008,-375 1583.6008,-375 1583.6008,-209 1583.6008,-178.2037 1602.3052,-147.8484 1618.6511,-127.2007"/>
<polygon fill="#1a2833" stroke="#1a2833" points="1621.5524,-129.1839 1625.218,-119.2434 1616.1534,-124.7284 1621.5524,-129.1839"/>
<text text-anchor="middle" x="1592.6008" y="-289.5" font-family="Times,serif" font-size="10.00" fill="#767676">^1.0</text>
</g>
<!-- roave/better&#45;reflection -->
<g id="node12" class="node">
<title>roave/better&#45;reflection</title>
<path fill="#eeeeee" stroke="#000000" d="M1172.1008,-227C1172.1008,-227 1023.1008,-227 1023.1008,-227 1017.1008,-227 1011.1008,-221 1011.1008,-215 1011.1008,-215 1011.1008,-203 1011.1008,-203 1011.1008,-197 1017.1008,-191 1023.1008,-191 1023.1008,-191 1172.1008,-191 1172.1008,-191 1178.1008,-191 1184.1008,-197 1184.1008,-203 1184.1008,-203 1184.1008,-215 1184.1008,-215 1184.1008,-221 1178.1008,-227 1172.1008,-227"/>
<text text-anchor="middle" x="1097.6008" y="-205.3" font-family="Times,serif" font-size="14.00" fill="#314b5f">roave/better&#45;reflection: 5.0.0</text>
</g>
<!-- bartlett/umlwriter&#45;&gt;roave/better&#45;reflection -->
<g id="edge31" class="edge">
<title>bartlett/umlwriter&#45;&gt;roave/better&#45;reflection</title>
<path fill="none" stroke="#1a2833" d="M1551.713,-441.6624C1467.4275,-398.4791 1238.5932,-281.2368 1141.7925,-231.6414"/>
<polygon fill="#1a2833" stroke="#1a2833" points="1143.342,-228.5027 1132.8461,-227.0578 1140.1501,-234.7326 1143.342,-228.5027"/>
<text text-anchor="middle" x="1354.6008" y="-331" font-family="Times,serif" font-size="10.00" fill="#767676">^5.0</text>
</g>
<!-- symfony/config -->
<g id="node18" class="node">
<title>symfony/config</title>
<path fill="#eeeeee" stroke="#000000" d="M1755.1008,-310C1755.1008,-310 1634.1008,-310 1634.1008,-310 1628.1008,-310 1622.1008,-304 1622.1008,-298 1622.1008,-298 1622.1008,-286 1622.1008,-286 1622.1008,-280 1628.1008,-274 1634.1008,-274 1634.1008,-274 1755.1008,-274 1755.1008,-274 1761.1008,-274 1767.1008,-280 1767.1008,-286 1767.1008,-286 1767.1008,-298 1767.1008,-298 1767.1008,-304 1761.1008,-310 1755.1008,-310"/>
<text text-anchor="middle" x="1694.6008" y="-288.3" font-family="Times,serif" font-size="14.00" fill="#314b5f">symfony/config: v5.4.0</text>
</g>
<!-- bartlett/umlwriter&#45;&gt;symfony/config -->
<g id="edge46" class="edge">
<title>bartlett/umlwriter&#45;&gt;symfony/config</title>
<path fill="none" stroke="#1a2833" d="M1595.4797,-440.2351C1614.9889,-411.0593 1653.9243,-352.8315 1676.7599,-318.6809"/>
<polygon fill="#1a2833" stroke="#1a2833" points="1679.8216,-320.3987 1682.4708,-310.1404 1674.0027,-316.5077 1679.8216,-320.3987"/>
<text text-anchor="middle" x="1668.1008" y="-372.5" font-family="Times,serif" font-size="10.00" fill="#767676">^4.4|^5.0</text>
</g>
<!-- symfony/console -->
<g id="node25" class="node">
<title>symfony/console</title>
<path fill="#eeeeee" stroke="#000000" d="M2360.6008,-310C2360.6008,-310 2232.6008,-310 2232.6008,-310 2226.6008,-310 2220.6008,-304 2220.6008,-298 2220.6008,-298 2220.6008,-286 2220.6008,-286 2220.6008,-280 2226.6008,-274 2232.6008,-274 2232.6008,-274 2360.6008,-274 2360.6008,-274 2366.6008,-274 2372.6008,-280 2372.6008,-286 2372.6008,-286 2372.6008,-298 2372.6008,-298 2372.6008,-304 2366.6008,-310 2360.6008,-310"/>
<text text-anchor="middle" x="2296.6008" y="-288.3" font-family="Times,serif" font-size="14.00" fill="#314b5f">symfony/console: v5.4.1</text>
</g>
<!-- bartlett/umlwriter&#45;&gt;symfony/console -->
<g id="edge64" class="edge">
<title>bartlett/umlwriter&#45;&gt;symfony/console</title>
<path fill="none" stroke="#1a2833" d="M1636.9001,-445.5909C1759.2851,-417.0973 2061.324,-346.7769 2210.4572,-312.0559"/>
<polygon fill="#1a2833" stroke="#1a2833" points="2211.545,-315.3963 2220.4909,-309.7198 2209.9577,-308.5786 2211.545,-315.3963"/>
<text text-anchor="middle" x="2029.1008" y="-372.5" font-family="Times,serif" font-size="10.00" fill="#767676">^4.4|^5.0</text>
</g>
<!-- symfony/finder -->
<g id="node31" class="node">
<title>symfony/finder</title>
<path fill="#eeeeee" stroke="#000000" d="M2572.1008,-310C2572.1008,-310 2453.1008,-310 2453.1008,-310 2447.1008,-310 2441.1008,-304 2441.1008,-298 2441.1008,-298 2441.1008,-286 2441.1008,-286 2441.1008,-280 2447.1008,-274 2453.1008,-274 2453.1008,-274 2572.1008,-274 2572.1008,-274 2578.1008,-274 2584.1008,-280 2584.1008,-286 2584.1008,-286 2584.1008,-298 2584.1008,-298 2584.1008,-304 2578.1008,-310 2572.1008,-310"/>
<text text-anchor="middle" x="2512.6008" y="-288.3" font-family="Times,serif" font-size="14.00" fill="#314b5f">symfony/finder: v5.4.0</text>
</g>
<!-- bartlett/umlwriter&#45;&gt;symfony/finder -->
<g id="edge68" class="edge">
<title>bartlett/umlwriter&#45;&gt;symfony/finder</title>
<path fill="none" stroke="#1a2833" d="M1650.5087,-450.3653C1741.572,-439.5967 1909.4798,-418.3985 2051.6008,-393 2185.4506,-369.0796 2339.4907,-333.7286 2431.296,-311.819"/>
<polygon fill="#1a2833" stroke="#1a2833" points="2432.1682,-315.2092 2441.0796,-309.4788 2430.5397,-308.4013 2432.1682,-315.2092"/>
<text text-anchor="middle" x="2246.1008" y="-372.5" font-family="Times,serif" font-size="10.00" fill="#767676">^4.4|^5.0</text>
</g>
<!-- symfony/options&#45;resolver -->
<g id="node32" class="node">
<title>symfony/options&#45;resolver</title>
<path fill="#eeeeee" stroke="#000000" d="M2825.6008,-310C2825.6008,-310 2651.6008,-310 2651.6008,-310 2645.6008,-310 2639.6008,-304 2639.6008,-298 2639.6008,-298 2639.6008,-286 2639.6008,-286 2639.6008,-280 2645.6008,-274 2651.6008,-274 2651.6008,-274 2825.6008,-274 2825.6008,-274 2831.6008,-274 2837.6008,-280 2837.6008,-286 2837.6008,-286 2837.6008,-298 2837.6008,-298 2837.6008,-304 2831.6008,-310 2825.6008,-310"/>
<text text-anchor="middle" x="2738.6008" y="-288.3" font-family="Times,serif" font-size="14.00" fill="#314b5f">symfony/options&#45;resolver: v5.4.0</text>
</g>
<!-- bartlett/umlwriter&#45;&gt;symfony/options&#45;resolver -->
<g id="edge73" class="edge">
<title>bartlett/umlwriter&#45;&gt;symfony/options&#45;resolver</title>
<path fill="none" stroke="#1a2833" d="M1655.4388,-453.9599C1780.5576,-446.3051 2046.3532,-427.3038 2268.6008,-393 2406.2802,-371.7493 2564.2324,-335.2719 2657.4885,-312.4586"/>
<polygon fill="#1a2833" stroke="#1a2833" points="2658.5433,-315.8036 2667.4207,-310.0206 2656.8746,-309.0054 2658.5433,-315.8036"/>
<text text-anchor="middle" x="2474.1008" y="-372.5" font-family="Times,serif" font-size="10.00" fill="#767676">^4.4|^5.0</text>
</g>
<!-- symfony/yaml -->
<g id="node33" class="node">
<title>symfony/yaml</title>
<path fill="#eeeeee" stroke="#000000" d="M3174.6008,-310C3174.6008,-310 3060.6008,-310 3060.6008,-310 3054.6008,-310 3048.6008,-304 3048.6008,-298 3048.6008,-298 3048.6008,-286 3048.6008,-286 3048.6008,-280 3054.6008,-274 3060.6008,-274 3060.6008,-274 3174.6008,-274 3174.6008,-274 3180.6008,-274 3186.6008,-280 3186.6008,-286 3186.6008,-286 3186.6008,-298 3186.6008,-298 3186.6008,-304 3180.6008,-310 3174.6008,-310"/>
<text text-anchor="middle" x="3117.6008" y="-288.3" font-family="Times,serif" font-size="14.00" fill="#314b5f">symfony/yaml: v5.4.0</text>
</g>
<!-- bartlett/umlwriter&#45;&gt;symfony/yaml -->
<g id="edge77" class="edge">
<title>bartlett/umlwriter&#45;&gt;symfony/yaml</title>
<path fill="none" stroke="#1a2833" d="M1654.5316,-453.2251C1754.953,-446.4383 1944.3176,-433.5425 2105.6008,-422 2279.4113,-409.561 2323.5499,-413.4506 2496.6008,-393 2692.3855,-369.8628 2920.7843,-329.146 3038.4887,-307.1391"/>
<polygon fill="#1a2833" stroke="#1a2833" points="3039.3109,-310.546 3048.4948,-305.2634 3038.0211,-303.6658 3039.3109,-310.546"/>
<text text-anchor="middle" x="2762.1008" y="-372.5" font-family="Times,serif" font-size="10.00" fill="#767676">^4.4|^5.0</text>
</g>
<!-- bartlett/graph&#45;plantuml&#45;generator&#45;&gt;php -->
<g id="edge15" class="edge">
<title>bartlett/graph&#45;plantuml&#45;generator&#45;&gt;php</title>
<path fill="none" stroke="#1a2833" d="M563.1296,-364.5611C621.1173,-358.1572 680.7728,-349.2322 689.6008,-339 764.0069,-252.7587 600.7104,-167.0339 677.6008,-83 715.6889,-41.3733 1587.8707,-22.3739 1780.271,-18.6815"/>
<polygon fill="#1a2833" stroke="#1a2833" points="1780.5124,-22.1776 1790.4441,-18.4884 1780.3795,-15.1789 1780.5124,-22.1776"/>
<text text-anchor="middle" x="714.1008" y="-206.5" font-family="Times,serif" font-size="10.00" fill="#767676">^7.1.3|^8.0</text>
</g>
<!-- bartlett/graph&#45;plantuml&#45;generator&#45;&gt;bartlett/graph&#45;uml -->
<g id="edge11" class="edge">
<title>bartlett/graph&#45;plantuml&#45;generator&#45;&gt;bartlett/graph&#45;uml</title>
<path fill="none" stroke="#1a2833" d="M408.1944,-356.9902C381.6122,-344.5251 346.0396,-327.8442 317.5894,-314.5031"/>
<polygon fill="#1a2833" stroke="#1a2833" points="318.7774,-311.1946 308.2374,-310.1177 315.8054,-317.5323 318.7774,-311.1946"/>
<text text-anchor="middle" x="378.6008" y="-331" font-family="Times,serif" font-size="10.00" fill="#767676">^1.1</text>
</g>
<!-- jawira/plantuml&#45;encoding -->
<g id="node9" class="node">
<title>jawira/plantuml&#45;encoding</title>
<path fill="#eeeeee" stroke="#000000" d="M550.1008,-310C550.1008,-310 375.1008,-310 375.1008,-310 369.1008,-310 363.1008,-304 363.1008,-298 363.1008,-298 363.1008,-286 363.1008,-286 363.1008,-280 369.1008,-274 375.1008,-274 375.1008,-274 550.1008,-274 550.1008,-274 556.1008,-274 562.1008,-280 562.1008,-286 562.1008,-286 562.1008,-298 562.1008,-298 562.1008,-304 556.1008,-310 550.1008,-310"/>
<text text-anchor="middle" x="462.6008" y="-288.3" font-family="Times,serif" font-size="14.00" fill="#314b5f">jawira/plantuml&#45;encoding: v1.0.9</text>
</g>
<!-- bartlett/graph&#45;plantuml&#45;generator&#45;&gt;jawira/plantuml&#45;encoding -->
<g id="edge14" class="edge">
<title>bartlett/graph&#45;plantuml&#45;generator&#45;&gt;jawira/plantuml&#45;encoding</title>
<path fill="none" stroke="#1a2833" d="M450.0726,-356.9902C452.134,-346.2963 454.7937,-332.4994 457.1318,-320.3706"/>
<polygon fill="#1a2833" stroke="#1a2833" points="460.6243,-320.743 459.0806,-310.2612 453.7509,-319.4179 460.6243,-320.743"/>
<text text-anchor="middle" x="464.6008" y="-331" font-family="Times,serif" font-size="10.00" fill="#767676">^1.0</text>
</g>
<!-- bartlett/graph&#45;uml&#45;&gt;php -->
<g id="edge10" class="edge">
<title>bartlett/graph&#45;uml&#45;&gt;php</title>
<path fill="none" stroke="#1a2833" d="M193.8274,-282.6087C128.0297,-272.7127 40.0228,-254.6762 18.6008,-227 -38.3673,-153.4 49.8678,-87.7595 136.6008,-54 176.2208,-38.5785 1536.6492,-21.4023 1780.4036,-18.4448"/>
<polygon fill="#1a2833" stroke="#1a2833" points="1780.5694,-21.9432 1790.5263,-18.3224 1780.4847,-14.9437 1780.5694,-21.9432"/>
<text text-anchor="middle" x="37.1008" y="-152.5" font-family="Times,serif" font-size="10.00" fill="#767676">^7.1.3|^8.0</text>
</g>
<!-- bartlett/graph&#45;uml&#45;&gt;cweagans/composer&#45;patches -->
<g id="edge4" class="edge">
<title>bartlett/graph&#45;uml&#45;&gt;cweagans/composer&#45;patches</title>
<path fill="none" stroke="#1a2833" d="M239.4399,-273.9902C219.0886,-261.838 192.0269,-245.6789 169.9796,-232.5139"/>
<polygon fill="#1a2833" stroke="#1a2833" points="171.5631,-229.383 161.1829,-227.2612 167.9743,-235.3931 171.5631,-229.383"/>
<text text-anchor="middle" x="217.6008" y="-248" font-family="Times,serif" font-size="10.00" fill="#767676">^1.7</text>
</g>
<!-- bartlett/graph&#45;uml&#45;&gt;graphp/graph -->
<g id="edge6" class="edge">
<title>bartlett/graph&#45;uml&#45;&gt;graphp/graph</title>
<path fill="none" stroke="#1a2833" d="M273.8333,-273.9356C282.5774,-240.9219 305.9349,-171.1093 353.6008,-137 365.6611,-128.3697 379.7194,-121.8052 394.0314,-116.8128"/>
<polygon fill="#1a2833" stroke="#1a2833" points="395.5214,-120.0094 403.9588,-113.6016 393.367,-113.3492 395.5214,-120.0094"/>
<text text-anchor="middle" x="345.6008" y="-206.5" font-family="Times,serif" font-size="10.00" fill="#767676">dev&#45;master as 1.0.0</text>
</g>
<!-- bartlett/graph&#45;uml&#45;&gt;graphp/graphviz -->
<g id="edge9" class="edge">
<title>bartlett/graph&#45;uml&#45;&gt;graphp/graphviz</title>
<path fill="none" stroke="#1a2833" d="M317.5545,-273.9902C351.4662,-261.2542 397.0967,-244.1169 432.9867,-230.6379"/>
<polygon fill="#1a2833" stroke="#1a2833" points="434.2286,-233.9102 442.3596,-227.1177 431.7674,-227.3571 434.2286,-233.9102"/>
<text text-anchor="middle" x="432.6008" y="-248" font-family="Times,serif" font-size="10.00" fill="#767676">dev&#45;master as 1.0.0</text>
</g>
<!-- cweagans/composer&#45;patches&#45;&gt;php -->
<g id="edge3" class="edge">
<title>cweagans/composer&#45;patches&#45;&gt;php</title>
<path fill="none" stroke="#1a2833" d="M122.1426,-190.9892C110.843,-163.9521 95.1243,-112.8683 121.6008,-83 192.8717,-2.5988 254.4404,-61.7812 361.6008,-54 649.4763,-33.0966 1581.8546,-20.8456 1780.2598,-18.4391"/>
<polygon fill="#1a2833" stroke="#1a2833" points="1780.5,-21.9365 1790.4571,-18.3162 1780.4156,-14.937 1780.5,-21.9365"/>
<text text-anchor="middle" x="138.1008" y="-98.5" font-family="Times,serif" font-size="10.00" fill="#767676">&gt;=5.3.0</text>
</g>
<!-- composer&#45;plugin&#45;api -->
<g id="node6" class="node">
<title>composer&#45;plugin&#45;api</title>
<path fill="#eeeeee" stroke="#000000" d="M281.6008,-119C281.6008,-119 175.6008,-119 175.6008,-119 169.6008,-119 163.6008,-113 163.6008,-107 163.6008,-107 163.6008,-95 163.6008,-95 163.6008,-89 169.6008,-83 175.6008,-83 175.6008,-83 281.6008,-83 281.6008,-83 287.6008,-83 293.6008,-89 293.6008,-95 293.6008,-95 293.6008,-107 293.6008,-107 293.6008,-113 287.6008,-119 281.6008,-119"/>
<text text-anchor="middle" x="228.6008" y="-97.3" font-family="Times,serif" font-size="14.00" fill="#314b5f">composer&#45;plugin&#45;api</text>
</g>
<!-- cweagans/composer&#45;patches&#45;&gt;composer&#45;plugin&#45;api -->
<g id="edge2" class="edge">
<title>cweagans/composer&#45;patches&#45;&gt;composer&#45;plugin&#45;api</title>
<path fill="none" stroke="#1a2833" d="M147.2252,-190.6793C163.2307,-173.0405 187.5782,-146.2086 205.4719,-126.489"/>
<polygon fill="#1a2833" stroke="#1a2833" points="208.094,-128.8078 212.2219,-119.0502 202.91,-124.1038 208.094,-128.8078"/>
<text text-anchor="middle" x="216.6008" y="-152.5" font-family="Times,serif" font-size="10.00" fill="#767676">^1.0 || ^2.0</text>
</g>
<!-- graphp/graph&#45;&gt;php -->
<g id="edge5" class="edge">
<title>graphp/graph&#45;&gt;php</title>
<path fill="none" stroke="#1a2833" d="M508.4892,-82.9689C526.1328,-71.0793 548.1242,-57.1403 558.6008,-54 618.5333,-36.0357 1577.8801,-21.4146 1780.2882,-18.5208"/>
<polygon fill="#1a2833" stroke="#1a2833" points="1780.4674,-22.0187 1790.4166,-18.3767 1780.3678,-15.0194 1780.4674,-22.0187"/>
<text text-anchor="middle" x="571.1008" y="-57" font-family="Times,serif" font-size="10.00" fill="#767676">&gt;=5.3</text>
</g>
<!-- graphp/graphviz&#45;&gt;php -->
<g id="edge8" class="edge">
<title>graphp/graphviz&#45;&gt;php</title>
<path fill="none" stroke="#1a2833" d="M559.1385,-190.8732C568.2215,-186.1971 576.7447,-180.3369 583.6008,-173 612.2026,-142.3928 588.7936,-118.1382 611.6008,-83 622.2311,-66.6222 626.4383,-61.1666 644.6008,-54 698.5713,-32.7043 1585.4374,-20.8012 1780.0464,-18.4385"/>
<polygon fill="#1a2833" stroke="#1a2833" points="1780.3742,-21.9349 1790.3313,-18.3148 1780.2899,-14.9355 1780.3742,-21.9349"/>
<text text-anchor="middle" x="628.1008" y="-98.5" font-family="Times,serif" font-size="10.00" fill="#767676">&gt;=5.3.0</text>
</g>
<!-- graphp/graphviz&#45;&gt;graphp/graph -->
<g id="edge7" class="edge">
<title>graphp/graphviz&#45;&gt;graphp/graph</title>
<path fill="none" stroke="#1a2833" d="M476.2505,-190.9312C472.721,-185.4764 469.4312,-179.2647 467.6008,-173 463.1136,-157.6421 464.4629,-152.6893 467.6008,-137 468.1423,-134.2924 468.892,-131.5339 469.7697,-128.8093"/>
<polygon fill="#1a2833" stroke="#1a2833" points="473.1233,-129.8347 473.3666,-119.2427 466.5711,-127.3712 473.1233,-129.8347"/>
<text text-anchor="middle" x="525.6008" y="-152.5" font-family="Times,serif" font-size="10.00" fill="#767676">dev&#45;master#81eef65 as 1.0.0</text>
</g>
<!-- jawira/plantuml&#45;encoding&#45;&gt;php -->
<g id="edge13" class="edge">
<title>jawira/plantuml&#45;encoding&#45;&gt;php</title>
<path fill="none" stroke="#1a2833" d="M407.9831,-273.8995C400.6801,-269.1956 394.1526,-263.32 389.6008,-256 386.3963,-250.8468 348.2377,-139.145 394.6008,-83 432.0182,-37.6881 465.2912,-61.2956 523.6008,-54 776.2621,-22.3874 1595.4925,-18.5329 1780.3205,-18.0645"/>
<polygon fill="#1a2833" stroke="#1a2833" points="1780.3667,-21.5645 1790.3584,-18.0409 1780.3502,-14.5646 1780.3667,-21.5645"/>
<text text-anchor="middle" x="386.1008" y="-152.5" font-family="Times,serif" font-size="10.00" fill="#767676">&gt;=5.3</text>
</g>
<!-- ext&#45;zlib -->
<g id="node10" class="node">
<title>ext&#45;zlib</title>
<path fill="#eeeeee" stroke="#000000" d="M641.6008,-227C641.6008,-227 607.6008,-227 607.6008,-227 601.6008,-227 595.6008,-221 595.6008,-215 595.6008,-215 595.6008,-203 595.6008,-203 595.6008,-197 601.6008,-191 607.6008,-191 607.6008,-191 641.6008,-191 641.6008,-191 647.6008,-191 653.6008,-197 653.6008,-203 653.6008,-203 653.6008,-215 653.6008,-215 653.6008,-221 647.6008,-227 641.6008,-227"/>
<text text-anchor="middle" x="624.6008" y="-205.3" font-family="Times,serif" font-size="14.00" fill="#314b5f">ext&#45;zlib</text>
</g>
<!-- jawira/plantuml&#45;encoding&#45;&gt;ext&#45;zlib -->
<g id="edge12" class="edge">
<title>jawira/plantuml&#45;encoding&#45;&gt;ext&#45;zlib</title>
<path fill="none" stroke="#1a2833" d="M497.7524,-273.9902C523.8907,-260.5984 559.5265,-242.3405 586.3726,-228.5861"/>
<polygon fill="#1a2833" stroke="#1a2833" points="588.1679,-231.5989 595.4718,-223.9241 584.976,-225.369 588.1679,-231.5989"/>
<text text-anchor="middle" x="556.6008" y="-248" font-family="Times,serif" font-size="10.00" fill="#767676">*</text>
</g>
<!-- psr/container&#45;&gt;php -->
<g id="edge21" class="edge">
<title>psr/container&#45;&gt;php</title>
<path fill="none" stroke="#1a2833" d="M1680.5732,-82.9902C1710.5069,-68.7931 1751.9714,-49.1271 1781.4293,-35.1556"/>
<polygon fill="#1a2833" stroke="#1a2833" points="1783.0065,-38.2814 1790.5419,-30.8337 1780.0067,-31.9567 1783.0065,-38.2814"/>
<text text-anchor="middle" x="1756.1008" y="-57" font-family="Times,serif" font-size="10.00" fill="#767676">&gt;=7.4.0</text>
</g>
<!-- roave/better&#45;reflection&#45;&gt;php -->
<g id="edge28" class="edge">
<title>roave/better&#45;reflection&#45;&gt;php</title>
<path fill="none" stroke="#1a2833" d="M1156.3744,-190.9557C1171.6413,-185.699 1187.917,-179.5811 1202.6008,-173 1232.3821,-159.6524 1237.8623,-152.4656 1266.6008,-137 1282.0041,-128.7107 1287.9504,-129.9381 1301.6008,-119 1317.8539,-105.9764 1313.9067,-93.9862 1331.6008,-83 1406.6987,-36.3717 1679.8063,-22.6195 1780.2236,-19.0893"/>
<polygon fill="#1a2833" stroke="#1a2833" points="1780.6183,-22.5781 1790.4947,-18.743 1780.3824,-15.5821 1780.6183,-22.5781"/>
<text text-anchor="middle" x="1364.6008" y="-98.5" font-family="Times,serif" font-size="10.00" fill="#767676">~8.0.12 || ~8.1.0</text>
</g>
<!-- ext&#45;json -->
<g id="node13" class="node">
<title>ext&#45;json</title>
<path fill="#eeeeee" stroke="#000000" d="M906.6008,-119C906.6008,-119 870.6008,-119 870.6008,-119 864.6008,-119 858.6008,-113 858.6008,-107 858.6008,-107 858.6008,-95 858.6008,-95 858.6008,-89 864.6008,-83 870.6008,-83 870.6008,-83 906.6008,-83 906.6008,-83 912.6008,-83 918.6008,-89 918.6008,-95 918.6008,-95 918.6008,-107 918.6008,-107 918.6008,-113 912.6008,-119 906.6008,-119"/>
<text text-anchor="middle" x="888.6008" y="-97.3" font-family="Times,serif" font-size="14.00" fill="#314b5f">ext&#45;json</text>
</g>
<!-- roave/better&#45;reflection&#45;&gt;ext&#45;json -->
<g id="edge23" class="edge">
<title>roave/better&#45;reflection&#45;&gt;ext&#45;json</title>
<path fill="none" stroke="#1a2833" d="M1062.6189,-190.9232C1025.2883,-171.6328 966.2964,-141.1489 927.5213,-121.1121"/>
<polygon fill="#1a2833" stroke="#1a2833" points="929.0978,-117.9871 918.6071,-116.5056 925.8843,-124.2058 929.0978,-117.9871"/>
<text text-anchor="middle" x="1027.6008" y="-152.5" font-family="Times,serif" font-size="10.00" fill="#767676">*</text>
</g>
<!-- jetbrains/phpstorm&#45;stubs -->
<g id="node14" class="node">
<title>jetbrains/phpstorm&#45;stubs</title>
<path fill="#eeeeee" stroke="#000000" d="M1128.1008,-119C1128.1008,-119 949.1008,-119 949.1008,-119 943.1008,-119 937.1008,-113 937.1008,-107 937.1008,-107 937.1008,-95 937.1008,-95 937.1008,-89 943.1008,-83 949.1008,-83 949.1008,-83 1128.1008,-83 1128.1008,-83 1134.1008,-83 1140.1008,-89 1140.1008,-95 1140.1008,-95 1140.1008,-107 1140.1008,-107 1140.1008,-113 1134.1008,-119 1128.1008,-119"/>
<text text-anchor="middle" x="1038.6008" y="-97.3" font-family="Times,serif" font-size="14.00" fill="#314b5f">jetbrains/phpstorm&#45;stubs: v2021.3</text>
</g>
<!-- roave/better&#45;reflection&#45;&gt;jetbrains/phpstorm&#45;stubs -->
<g id="edge24" class="edge">
<title>roave/better&#45;reflection&#45;&gt;jetbrains/phpstorm&#45;stubs</title>
<path fill="none" stroke="#1a2833" d="M1087.5922,-190.6793C1078.2121,-173.5088 1064.0729,-147.6268 1053.3914,-128.0743"/>
<polygon fill="#1a2833" stroke="#1a2833" points="1056.3273,-126.148 1048.4615,-119.0502 1050.1842,-129.504 1056.3273,-126.148"/>
<text text-anchor="middle" x="1092.1008" y="-152.5" font-family="Times,serif" font-size="10.00" fill="#767676">2021.3</text>
</g>
<!-- nikic/php&#45;parser -->
<g id="node15" class="node">
<title>nikic/php&#45;parser</title>
<path fill="#eeeeee" stroke="#000000" d="M828.6008,-119C828.6008,-119 698.6008,-119 698.6008,-119 692.6008,-119 686.6008,-113 686.6008,-107 686.6008,-107 686.6008,-95 686.6008,-95 686.6008,-89 692.6008,-83 698.6008,-83 698.6008,-83 828.6008,-83 828.6008,-83 834.6008,-83 840.6008,-89 840.6008,-95 840.6008,-95 840.6008,-107 840.6008,-107 840.6008,-113 834.6008,-119 828.6008,-119"/>
<text text-anchor="middle" x="763.6008" y="-97.3" font-family="Times,serif" font-size="14.00" fill="#314b5f">nikic/php&#45;parser: v4.13.2</text>
</g>
<!-- roave/better&#45;reflection&#45;&gt;nikic/php&#45;parser -->
<g id="edge27" class="edge">
<title>roave/better&#45;reflection&#45;&gt;nikic/php&#45;parser</title>
<path fill="none" stroke="#1a2833" d="M1011.0908,-194.2493C984.0486,-188.6906 954.3099,-181.5906 927.6008,-173 885.975,-159.6117 840.5961,-139.2075 808.1467,-123.5346"/>
<polygon fill="#1a2833" stroke="#1a2833" points="809.4538,-120.2781 798.9312,-119.0428 806.3868,-126.5705 809.4538,-120.2781"/>
<text text-anchor="middle" x="943.1008" y="-152.5" font-family="Times,serif" font-size="10.00" fill="#767676">^4.13.2</text>
</g>
<!-- roave/signature -->
<g id="node17" class="node">
<title>roave/signature</title>
<path fill="#eeeeee" stroke="#000000" d="M1281.1008,-119C1281.1008,-119 1170.1008,-119 1170.1008,-119 1164.1008,-119 1158.1008,-113 1158.1008,-107 1158.1008,-107 1158.1008,-95 1158.1008,-95 1158.1008,-89 1164.1008,-83 1170.1008,-83 1170.1008,-83 1281.1008,-83 1281.1008,-83 1287.1008,-83 1293.1008,-89 1293.1008,-95 1293.1008,-95 1293.1008,-107 1293.1008,-107 1293.1008,-113 1287.1008,-119 1281.1008,-119"/>
<text text-anchor="middle" x="1225.6008" y="-97.3" font-family="Times,serif" font-size="14.00" fill="#314b5f">roave/signature: 1.5.0</text>
</g>
<!-- roave/better&#45;reflection&#45;&gt;roave/signature -->
<g id="edge30" class="edge">
<title>roave/better&#45;reflection&#45;&gt;roave/signature</title>
<path fill="none" stroke="#1a2833" d="M1119.0251,-190.9232C1140.1612,-173.0897 1172.6353,-145.6896 1196.183,-125.8213"/>
<polygon fill="#1a2833" stroke="#1a2833" points="1198.7207,-128.2595 1204.1066,-119.1357 1194.2066,-122.9095 1198.7207,-128.2595"/>
<text text-anchor="middle" x="1189.6008" y="-152.5" font-family="Times,serif" font-size="10.00" fill="#767676">^1.5</text>
</g>
<!-- nikic/php&#45;parser&#45;&gt;php -->
<g id="edge26" class="edge">
<title>nikic/php&#45;parser&#45;&gt;php</title>
<path fill="none" stroke="#1a2833" d="M840.8742,-84.3465C843.8157,-83.8652 846.7322,-83.4137 849.6008,-83 1209.575,-31.081 1650.9747,-20.5025 1780.3352,-18.4629"/>
<polygon fill="#1a2833" stroke="#1a2833" points="1780.5503,-21.9602 1790.4966,-18.3104 1780.4451,-14.961 1780.5503,-21.9602"/>
<text text-anchor="middle" x="1100.1008" y="-57" font-family="Times,serif" font-size="10.00" fill="#767676">&gt;=7.0</text>
</g>
<!-- ext&#45;tokenizer -->
<g id="node16" class="node">
<title>ext&#45;tokenizer</title>
<path fill="#eeeeee" stroke="#000000" d="M560.6008,-36C560.6008,-36 496.6008,-36 496.6008,-36 490.6008,-36 484.6008,-30 484.6008,-24 484.6008,-24 484.6008,-12 484.6008,-12 484.6008,-6 490.6008,0 496.6008,0 496.6008,0 560.6008,0 560.6008,0 566.6008,0 572.6008,-6 572.6008,-12 572.6008,-12 572.6008,-24 572.6008,-24 572.6008,-30 566.6008,-36 560.6008,-36"/>
<text text-anchor="middle" x="528.6008" y="-14.3" font-family="Times,serif" font-size="14.00" fill="#314b5f">ext&#45;tokenizer</text>
</g>
<!-- nikic/php&#45;parser&#45;&gt;ext&#45;tokenizer -->
<g id="edge25" class="edge">
<title>nikic/php&#45;parser&#45;&gt;ext&#45;tokenizer</title>
<path fill="none" stroke="#1a2833" d="M686.3121,-90.0911C620.2157,-80.5884 535.2955,-67.8894 532.6008,-65 527.9824,-60.0479 525.9301,-53.3915 525.2682,-46.6483"/>
<polygon fill="#1a2833" stroke="#1a2833" points="528.7655,-46.191 525.2033,-36.213 521.7656,-46.2346 528.7655,-46.191"/>
<text text-anchor="middle" x="535.6008" y="-57" font-family="Times,serif" font-size="10.00" fill="#767676">*</text>
</g>
<!-- roave/signature&#45;&gt;php -->
<g id="edge29" class="edge">
<title>roave/signature&#45;&gt;php</title>
<path fill="none" stroke="#1a2833" d="M1230.0838,-82.8015C1233.6111,-72.555 1239.6445,-60.5371 1249.6008,-54 1293.7983,-24.981 1661.1514,-19.3213 1780.3868,-18.2456"/>
<polygon fill="#1a2833" stroke="#1a2833" points="1780.519,-21.7447 1790.4891,-18.1602 1780.4598,-14.7449 1780.519,-21.7447"/>
<text text-anchor="middle" x="1282.6008" y="-57" font-family="Times,serif" font-size="10.00" fill="#767676">7.4.*|8.0.*|8.1.*</text>
</g>
<!-- symfony/config&#45;&gt;php -->
<g id="edge32" class="edge">
<title>symfony/config&#45;&gt;php</title>
<path fill="none" stroke="#1a2833" d="M1640.7063,-273.9103C1596.6268,-255.924 1537.2264,-223.6173 1509.6008,-173 1490.1376,-137.3384 1503.2185,-116.9058 1525.6008,-83 1536.7302,-66.1407 1542.1186,-62.1551 1560.6008,-54 1599.1764,-36.9788 1718.7271,-25.603 1780.2234,-20.7164"/>
<polygon fill="#1a2833" stroke="#1a2833" points="1780.5881,-24.1987 1790.2865,-19.9336 1780.0452,-17.2198 1780.5881,-24.1987"/>
<text text-anchor="middle" x="1526.1008" y="-152.5" font-family="Times,serif" font-size="10.00" fill="#767676">&gt;=7.2.5</text>
</g>
<!-- symfony/deprecation&#45;contracts -->
<g id="node19" class="node">
<title>symfony/deprecation&#45;contracts</title>
<path fill="#eeeeee" stroke="#000000" d="M3055.1008,-227C3055.1008,-227 2852.1008,-227 2852.1008,-227 2846.1008,-227 2840.1008,-221 2840.1008,-215 2840.1008,-215 2840.1008,-203 2840.1008,-203 2840.1008,-197 2846.1008,-191 2852.1008,-191 2852.1008,-191 3055.1008,-191 3055.1008,-191 3061.1008,-191 3067.1008,-197 3067.1008,-203 3067.1008,-203 3067.1008,-215 3067.1008,-215 3067.1008,-221 3061.1008,-227 3055.1008,-227"/>
<text text-anchor="middle" x="2953.6008" y="-205.3" font-family="Times,serif" font-size="14.00" fill="#314b5f">symfony/deprecation&#45;contracts: v3.0.0</text>
</g>
<!-- symfony/config&#45;&gt;symfony/deprecation&#45;contracts -->
<g id="edge34" class="edge">
<title>symfony/config&#45;&gt;symfony/deprecation&#45;contracts</title>
<path fill="none" stroke="#1a2833" d="M1767.198,-290.9982C1883.5694,-288.6746 2118.8805,-281.0226 2316.6008,-256 2341.7646,-252.8154 2347.4084,-247.9502 2372.6008,-245 2572.1046,-221.6364 2626.5779,-245.1441 2829.8933,-227.0889"/>
<polygon fill="#1a2833" stroke="#1a2833" points="2830.3623,-230.5608 2840.0036,-226.168 2829.7273,-223.5896 2830.3623,-230.5608"/>
<text text-anchor="middle" x="2387.6008" y="-248" font-family="Times,serif" font-size="10.00" fill="#767676">^2.1|^3</text>
</g>
<!-- symfony/filesystem -->
<g id="node20" class="node">
<title>symfony/filesystem</title>
<path fill="#eeeeee" stroke="#000000" d="M1766.1008,-227C1766.1008,-227 1623.1008,-227 1623.1008,-227 1617.1008,-227 1611.1008,-221 1611.1008,-215 1611.1008,-215 1611.1008,-203 1611.1008,-203 1611.1008,-197 1617.1008,-191 1623.1008,-191 1623.1008,-191 1766.1008,-191 1766.1008,-191 1772.1008,-191 1778.1008,-197 1778.1008,-203 1778.1008,-203 1778.1008,-215 1778.1008,-215 1778.1008,-221 1772.1008,-227 1766.1008,-227"/>
<text text-anchor="middle" x="1694.6008" y="-205.3" font-family="Times,serif" font-size="14.00" fill="#314b5f">symfony/filesystem: v6.0.0</text>
</g>
<!-- symfony/config&#45;&gt;symfony/filesystem -->
<g id="edge40" class="edge">
<title>symfony/config&#45;&gt;symfony/filesystem</title>
<path fill="none" stroke="#1a2833" d="M1694.6008,-273.9902C1694.6008,-263.2963 1694.6008,-249.4994 1694.6008,-237.3706"/>
<polygon fill="#1a2833" stroke="#1a2833" points="1698.1009,-237.2612 1694.6008,-227.2612 1691.1009,-237.2613 1698.1009,-237.2612"/>
<text text-anchor="middle" x="1723.1008" y="-248" font-family="Times,serif" font-size="10.00" fill="#767676">^4.4|^5.0|^6.0</text>
</g>
<!-- symfony/polyfill&#45;ctype -->
<g id="node21" class="node">
<title>symfony/polyfill&#45;ctype</title>
<path fill="#eeeeee" stroke="#000000" d="M1901.1008,-119C1901.1008,-119 1734.1008,-119 1734.1008,-119 1728.1008,-119 1722.1008,-113 1722.1008,-107 1722.1008,-107 1722.1008,-95 1722.1008,-95 1722.1008,-89 1728.1008,-83 1734.1008,-83 1734.1008,-83 1901.1008,-83 1901.1008,-83 1907.1008,-83 1913.1008,-89 1913.1008,-95 1913.1008,-95 1913.1008,-107 1913.1008,-107 1913.1008,-113 1907.1008,-119 1901.1008,-119"/>
<text text-anchor="middle" x="1817.6008" y="-97.3" font-family="Times,serif" font-size="14.00" fill="#314b5f">symfony/polyfill&#45;ctype: v1.23.0</text>
</g>
<!-- symfony/config&#45;&gt;symfony/polyfill&#45;ctype -->
<g id="edge41" class="edge">
<title>symfony/config&#45;&gt;symfony/polyfill&#45;ctype</title>
<path fill="none" stroke="#1a2833" d="M1734.7879,-273.9519C1754.026,-263.1583 1775.4662,-247.5151 1787.6008,-227 1805.5105,-196.7212 1812.7343,-156.3939 1815.6442,-129.6077"/>
<polygon fill="#1a2833" stroke="#1a2833" points="1819.1554,-129.6554 1816.618,-119.3689 1812.1868,-128.9926 1819.1554,-129.6554"/>
<text text-anchor="middle" x="1812.1008" y="-206.5" font-family="Times,serif" font-size="10.00" fill="#767676">~1.8</text>
</g>
<!-- symfony/polyfill&#45;php80 -->
<g id="node23" class="node">
<title>symfony/polyfill&#45;php80</title>
<path fill="#eeeeee" stroke="#000000" d="M2560.1008,-227C2560.1008,-227 2389.1008,-227 2389.1008,-227 2383.1008,-227 2377.1008,-221 2377.1008,-215 2377.1008,-215 2377.1008,-203 2377.1008,-203 2377.1008,-197 2383.1008,-191 2389.1008,-191 2389.1008,-191 2560.1008,-191 2560.1008,-191 2566.1008,-191 2572.1008,-197 2572.1008,-203 2572.1008,-203 2572.1008,-215 2572.1008,-215 2572.1008,-221 2566.1008,-227 2560.1008,-227"/>
<text text-anchor="middle" x="2474.6008" y="-205.3" font-family="Times,serif" font-size="14.00" fill="#314b5f">symfony/polyfill&#45;php80: v1.23.1</text>
</g>
<!-- symfony/config&#45;&gt;symfony/polyfill&#45;php80 -->
<g id="edge43" class="edge">
<title>symfony/config&#45;&gt;symfony/polyfill&#45;php80</title>
<path fill="none" stroke="#1a2833" d="M1767.4691,-288.0683C1859.8244,-282.7037 2023.8379,-271.9032 2163.6008,-256 2183.7302,-253.7095 2285.0333,-238.2803 2366.6331,-225.715"/>
<polygon fill="#1a2833" stroke="#1a2833" points="2367.6367,-229.1017 2376.9871,-224.1197 2366.5707,-222.1834 2367.6367,-229.1017"/>
<text text-anchor="middle" x="2249.1008" y="-248" font-family="Times,serif" font-size="10.00" fill="#767676">^1.16</text>
</g>
<!-- symfony/polyfill&#45;php81 -->
<g id="node24" class="node">
<title>symfony/polyfill&#45;php81</title>
<path fill="#eeeeee" stroke="#000000" d="M1450.1008,-173C1450.1008,-173 1279.1008,-173 1279.1008,-173 1273.1008,-173 1267.1008,-167 1267.1008,-161 1267.1008,-161 1267.1008,-149 1267.1008,-149 1267.1008,-143 1273.1008,-137 1279.1008,-137 1279.1008,-137 1450.1008,-137 1450.1008,-137 1456.1008,-137 1462.1008,-143 1462.1008,-149 1462.1008,-149 1462.1008,-161 1462.1008,-161 1462.1008,-167 1456.1008,-173 1450.1008,-173"/>
<text text-anchor="middle" x="1364.6008" y="-151.3" font-family="Times,serif" font-size="14.00" fill="#314b5f">symfony/polyfill&#45;php81: v1.23.0</text>
</g>
<!-- symfony/config&#45;&gt;symfony/polyfill&#45;php81 -->
<g id="edge45" class="edge">
<title>symfony/config&#45;&gt;symfony/polyfill&#45;php81</title>
<path fill="none" stroke="#1a2833" d="M1621.8377,-276.7528C1616.353,-275.7663 1610.8951,-274.8354 1605.6008,-274 1535.788,-262.9846 1509.687,-289.7708 1447.6008,-256 1416.7991,-239.2459 1392.946,-205.9299 1378.8725,-182.1434"/>
<polygon fill="#1a2833" stroke="#1a2833" points="1381.7865,-180.1879 1373.7917,-173.2357 1375.7061,-183.6562 1381.7865,-180.1879"/>
<text text-anchor="middle" x="1459.1008" y="-248" font-family="Times,serif" font-size="10.00" fill="#767676">^1.22</text>
</g>
<!-- symfony/deprecation&#45;contracts&#45;&gt;php -->
<g id="edge33" class="edge">
<title>symfony/deprecation&#45;contracts&#45;&gt;php</title>
<path fill="none" stroke="#1a2833" d="M2962.1208,-190.8822C2970.0015,-173.0515 2981.1471,-144.8203 2985.6008,-119 2988.3204,-103.2328 2991.8488,-97.7297 2985.6008,-83 2978.3592,-65.9278 2972.6812,-61.2222 2955.6008,-54 2903.8105,-32.1011 2044.8033,-20.6878 1854.666,-18.423"/>
<polygon fill="#1a2833" stroke="#1a2833" points="1854.6499,-14.9227 1844.6093,-18.3044 1854.5673,-21.9222 1854.6499,-14.9227"/>
<text text-anchor="middle" x="3005.1008" y="-98.5" font-family="Times,serif" font-size="10.00" fill="#767676">&gt;=8.0.2</text>
</g>
<!-- symfony/filesystem&#45;&gt;php -->
<g id="edge35" class="edge">
<title>symfony/filesystem&#45;&gt;php</title>
<path fill="none" stroke="#1a2833" d="M1639.929,-190.9481C1581.9287,-168.8835 1503.2884,-128.7821 1539.6008,-83 1569.2641,-45.6009 1711.6645,-27.6833 1780.3649,-21.1031"/>
<polygon fill="#1a2833" stroke="#1a2833" points="1780.7031,-24.5869 1790.3372,-20.1783 1780.0567,-17.6168 1780.7031,-24.5869"/>
<text text-anchor="middle" x="1556.1008" y="-98.5" font-family="Times,serif" font-size="10.00" fill="#767676">&gt;=8.0.2</text>
</g>
<!-- symfony/filesystem&#45;&gt;symfony/polyfill&#45;ctype -->
<g id="edge37" class="edge">
<title>symfony/filesystem&#45;&gt;symfony/polyfill&#45;ctype</title>
<path fill="none" stroke="#1a2833" d="M1699.1225,-190.7806C1703.9657,-174.7052 1713.1262,-151.6196 1728.6008,-137 1733.9317,-131.9636 1740.0593,-127.595 1746.5521,-123.8134"/>
<polygon fill="#1a2833" stroke="#1a2833" points="1748.4016,-126.7943 1755.592,-119.013 1745.1185,-120.6119 1748.4016,-126.7943"/>
<text text-anchor="middle" x="1738.1008" y="-152.5" font-family="Times,serif" font-size="10.00" fill="#767676">~1.8</text>
</g>
<!-- symfony/polyfill&#45;mbstring -->
<g id="node22" class="node">
<title>symfony/polyfill&#45;mbstring</title>
<path fill="#eeeeee" stroke="#000000" d="M2129.6008,-119C2129.6008,-119 1943.6008,-119 1943.6008,-119 1937.6008,-119 1931.6008,-113 1931.6008,-107 1931.6008,-107 1931.6008,-95 1931.6008,-95 1931.6008,-89 1937.6008,-83 1943.6008,-83 1943.6008,-83 2129.6008,-83 2129.6008,-83 2135.6008,-83 2141.6008,-89 2141.6008,-95 2141.6008,-95 2141.6008,-107 2141.6008,-107 2141.6008,-113 2135.6008,-119 2129.6008,-119"/>
<text text-anchor="middle" x="2036.6008" y="-97.3" font-family="Times,serif" font-size="14.00" fill="#314b5f">symfony/polyfill&#45;mbstring: v1.23.1</text>
</g>
<!-- symfony/filesystem&#45;&gt;symfony/polyfill&#45;mbstring -->
<g id="edge39" class="edge">
<title>symfony/filesystem&#45;&gt;symfony/polyfill&#45;mbstring</title>
<path fill="none" stroke="#1a2833" d="M1749.6047,-190.9336C1763.5579,-185.7167 1778.3442,-179.6235 1791.6008,-173 1818.0691,-159.7755 1820.1209,-147.9688 1847.6008,-137 1861.9471,-131.2736 1890.5974,-124.9858 1921.3431,-119.2899"/>
<polygon fill="#1a2833" stroke="#1a2833" points="1922.1719,-122.6966 1931.3837,-117.4628 1920.9186,-115.8097 1922.1719,-122.6966"/>
<text text-anchor="middle" x="1857.1008" y="-152.5" font-family="Times,serif" font-size="10.00" fill="#767676">~1.8</text>
</g>
<!-- symfony/polyfill&#45;ctype&#45;&gt;php -->
<g id="edge36" class="edge">
<title>symfony/polyfill&#45;ctype&#45;&gt;php</title>
<path fill="none" stroke="#1a2833" d="M1817.6008,-82.9902C1817.6008,-72.2963 1817.6008,-58.4994 1817.6008,-46.3706"/>
<polygon fill="#1a2833" stroke="#1a2833" points="1821.1009,-46.2612 1817.6008,-36.2612 1814.1009,-46.2613 1821.1009,-46.2612"/>
<text text-anchor="middle" x="1830.1008" y="-57" font-family="Times,serif" font-size="10.00" fill="#767676">&gt;=7.1</text>
</g>
<!-- symfony/polyfill&#45;mbstring&#45;&gt;php -->
<g id="edge38" class="edge">
<title>symfony/polyfill&#45;mbstring&#45;&gt;php</title>
<path fill="none" stroke="#1a2833" d="M1989.0811,-82.9902C1948.5474,-67.6282 1891.1186,-45.8629 1854.1119,-31.8375"/>
<polygon fill="#1a2833" stroke="#1a2833" points="1855.2982,-28.5443 1844.7068,-28.2731 1852.8174,-35.0899 1855.2982,-28.5443"/>
<text text-anchor="middle" x="1952.1008" y="-57" font-family="Times,serif" font-size="10.00" fill="#767676">&gt;=7.1</text>
</g>
<!-- symfony/polyfill&#45;php80&#45;&gt;php -->
<g id="edge42" class="edge">
<title>symfony/polyfill&#45;php80&#45;&gt;php</title>
<path fill="none" stroke="#1a2833" d="M2572.3038,-192.7774C2576.7945,-192.1511 2581.2434,-191.5548 2585.6008,-191 2628.5503,-185.5316 2739.939,-190.3641 2779.6008,-173 2833.8599,-149.2451 2880.7398,-96.6137 2839.6008,-54 2822.155,-35.9288 2036.478,-21.6684 1854.8136,-18.6091"/>
<polygon fill="#1a2833" stroke="#1a2833" points="1854.7443,-15.1075 1844.6871,-18.4396 1854.6271,-22.1065 1854.7443,-15.1075"/>
<text text-anchor="middle" x="2867.1008" y="-98.5" font-family="Times,serif" font-size="10.00" fill="#767676">&gt;=7.1</text>
</g>
<!-- symfony/polyfill&#45;php81&#45;&gt;php -->
<g id="edge44" class="edge">
<title>symfony/polyfill&#45;php81&#45;&gt;php</title>
<path fill="none" stroke="#1a2833" d="M1382.5192,-136.6887C1409.8689,-108.9324 1459.9838,-58.8989 1470.6008,-54 1524.9629,-28.9161 1702.3118,-21.1048 1780.2678,-18.848"/>
<polygon fill="#1a2833" stroke="#1a2833" points="1780.6846,-22.338 1790.5849,-18.5652 1780.4927,-15.3406 1780.6846,-22.338"/>
<text text-anchor="middle" x="1447.1008" y="-98.5" font-family="Times,serif" font-size="10.00" fill="#767676">&gt;=7.1</text>
</g>
<!-- symfony/console&#45;&gt;php -->
<g id="edge47" class="edge">
<title>symfony/console&#45;&gt;php</title>
<path fill="none" stroke="#1a2833" d="M2307.1784,-273.5904C2322.7307,-247.2182 2351.7427,-200.7775 2368.6008,-191 2403.3748,-170.8314 2508.8709,-179.1264 2548.6008,-173 2563.0737,-170.7683 2797.3674,-130.3661 2806.6008,-119 2816.6893,-106.5814 2817.4468,-94.7628 2806.6008,-83 2773.7193,-47.3391 2031.2696,-24.0653 1854.9284,-19.0284"/>
<polygon fill="#1a2833" stroke="#1a2833" points="1854.936,-15.5273 1844.8409,-18.7426 1854.7377,-22.5245 1854.936,-15.5273"/>
<text text-anchor="middle" x="2756.1008" y="-152.5" font-family="Times,serif" font-size="10.00" fill="#767676">&gt;=7.2.5</text>
</g>
<!-- symfony/console&#45;&gt;symfony/deprecation&#45;contracts -->
<g id="edge48" class="edge">
<title>symfony/console&#45;&gt;symfony/deprecation&#45;contracts</title>
<path fill="none" stroke="#1a2833" d="M2372.7944,-281.495C2392.2776,-278.9244 2413.2025,-276.264 2432.6008,-274 2511.5793,-264.7824 2534.9443,-280.4677 2610.6008,-256 2619.8849,-252.9975 2620.299,-247.9472 2629.6008,-245 2712.5038,-218.7329 2740.1494,-236.2479 2829.9181,-227.0926"/>
<polygon fill="#1a2833" stroke="#1a2833" points="2830.4281,-230.5576 2839.984,-225.9822 2829.6605,-223.5999 2830.4281,-230.5576"/>
<text text-anchor="middle" x="2644.6008" y="-248" font-family="Times,serif" font-size="10.00" fill="#767676">^2.1|^3</text>
</g>
<!-- symfony/console&#45;&gt;symfony/polyfill&#45;mbstring -->
<g id="edge49" class="edge">
<title>symfony/console&#45;&gt;symfony/polyfill&#45;mbstring</title>
<path fill="none" stroke="#1a2833" d="M2220.5511,-289.5418C2124.6018,-284.654 1967.7138,-270.1123 1931.6008,-227 1901.7047,-191.3096 1952.8281,-149.8115 1993.6745,-124.4829"/>
<polygon fill="#1a2833" stroke="#1a2833" points="1995.7114,-127.3416 2002.4638,-119.1773 1992.0939,-121.3488 1995.7114,-127.3416"/>
<text text-anchor="middle" x="1941.1008" y="-206.5" font-family="Times,serif" font-size="10.00" fill="#767676">~1.0</text>
</g>
<!-- symfony/console&#45;&gt;symfony/polyfill&#45;php80 -->
<g id="edge52" class="edge">
<title>symfony/console&#45;&gt;symfony/polyfill&#45;php80</title>
<path fill="none" stroke="#1a2833" d="M2362.1137,-273.9948C2377.0653,-268.9508 2392.6504,-262.921 2406.6008,-256 2419.4065,-249.6469 2432.5419,-241.1221 2443.8116,-233.0774"/>
<polygon fill="#1a2833" stroke="#1a2833" points="2446.0269,-235.7934 2452.0297,-227.0631 2441.8928,-230.1445 2446.0269,-235.7934"/>
<text text-anchor="middle" x="2435.1008" y="-248" font-family="Times,serif" font-size="10.00" fill="#767676">^1.16</text>
</g>
<!-- symfony/polyfill&#45;php73 -->
<g id="node26" class="node">
<title>symfony/polyfill&#45;php73</title>
<path fill="#eeeeee" stroke="#000000" d="M2810.1008,-227C2810.1008,-227 2639.1008,-227 2639.1008,-227 2633.1008,-227 2627.1008,-221 2627.1008,-215 2627.1008,-215 2627.1008,-203 2627.1008,-203 2627.1008,-197 2633.1008,-191 2639.1008,-191 2639.1008,-191 2810.1008,-191 2810.1008,-191 2816.1008,-191 2822.1008,-197 2822.1008,-203 2822.1008,-203 2822.1008,-215 2822.1008,-215 2822.1008,-221 2816.1008,-227 2810.1008,-227"/>
<text text-anchor="middle" x="2724.6008" y="-205.3" font-family="Times,serif" font-size="14.00" fill="#314b5f">symfony/polyfill&#45;php73: v1.23.0</text>
</g>
<!-- symfony/console&#45;&gt;symfony/polyfill&#45;php73 -->
<g id="edge51" class="edge">
<title>symfony/console&#45;&gt;symfony/polyfill&#45;php73</title>
<path fill="none" stroke="#1a2833" d="M2372.7663,-280.3748C2410.7671,-274.0813 2457.3179,-265.6256 2498.6008,-256 2515.7238,-252.0076 2519.5038,-249.1022 2536.6008,-245 2562.3895,-238.8123 2590.3694,-232.984 2616.6683,-227.8924"/>
<polygon fill="#1a2833" stroke="#1a2833" points="2617.4949,-231.2977 2626.6572,-225.9778 2616.1771,-224.4229 2617.4949,-231.2977"/>
<text text-anchor="middle" x="2545.6008" y="-248" font-family="Times,serif" font-size="10.00" fill="#767676">^1.9</text>
</g>
<!-- symfony/service&#45;contracts -->
<g id="node27" class="node">
<title>symfony/service&#45;contracts</title>
<path fill="#eeeeee" stroke="#000000" d="M2149.6008,-227C2149.6008,-227 1971.6008,-227 1971.6008,-227 1965.6008,-227 1959.6008,-221 1959.6008,-215 1959.6008,-215 1959.6008,-203 1959.6008,-203 1959.6008,-197 1965.6008,-191 1971.6008,-191 1971.6008,-191 2149.6008,-191 2149.6008,-191 2155.6008,-191 2161.6008,-197 2161.6008,-203 2161.6008,-203 2161.6008,-215 2161.6008,-215 2161.6008,-221 2155.6008,-227 2149.6008,-227"/>
<text text-anchor="middle" x="2060.6008" y="-205.3" font-family="Times,serif" font-size="14.00" fill="#314b5f">symfony/service&#45;contracts: v2.4.1</text>
</g>
<!-- symfony/console&#45;&gt;symfony/service&#45;contracts -->
<g id="edge55" class="edge">
<title>symfony/console&#45;&gt;symfony/service&#45;contracts</title>
<path fill="none" stroke="#1a2833" d="M2220.599,-284.026C2188.9583,-278.7807 2152.4781,-270.1493 2121.6008,-256 2109.3254,-250.3749 2097.2411,-241.8726 2087.1078,-233.6389"/>
<polygon fill="#1a2833" stroke="#1a2833" points="2089.3302,-230.9346 2079.4331,-227.1534 2084.812,-236.2812 2089.3302,-230.9346"/>
<text text-anchor="middle" x="2142.6008" y="-248" font-family="Times,serif" font-size="10.00" fill="#767676">^1.1|^2|^3</text>
</g>
<!-- symfony/string -->
<g id="node28" class="node">
<title>symfony/string</title>
<path fill="#eeeeee" stroke="#000000" d="M2309.1008,-227C2309.1008,-227 2192.1008,-227 2192.1008,-227 2186.1008,-227 2180.1008,-221 2180.1008,-215 2180.1008,-215 2180.1008,-203 2180.1008,-203 2180.1008,-197 2186.1008,-191 2192.1008,-191 2192.1008,-191 2309.1008,-191 2309.1008,-191 2315.1008,-191 2321.1008,-197 2321.1008,-203 2321.1008,-203 2321.1008,-215 2321.1008,-215 2321.1008,-221 2315.1008,-227 2309.1008,-227"/>
<text text-anchor="middle" x="2250.6008" y="-205.3" font-family="Times,serif" font-size="14.00" fill="#314b5f">symfony/string: v6.0.1</text>
</g>
<!-- symfony/console&#45;&gt;symfony/string -->
<g id="edge63" class="edge">
<title>symfony/console&#45;&gt;symfony/string</title>
<path fill="none" stroke="#1a2833" d="M2286.6195,-273.9902C2280.5131,-262.9722 2272.5812,-248.6604 2265.7158,-236.2727"/>
<polygon fill="#1a2833" stroke="#1a2833" points="2268.6303,-234.3112 2260.7215,-227.2612 2262.5077,-237.7044 2268.6303,-234.3112"/>
<text text-anchor="middle" x="2294.1008" y="-248" font-family="Times,serif" font-size="10.00" fill="#767676">^5.1|^6.0</text>
</g>
<!-- symfony/polyfill&#45;php73&#45;&gt;php -->
<g id="edge50" class="edge">
<title>symfony/polyfill&#45;php73&#45;&gt;php</title>
<path fill="none" stroke="#1a2833" d="M2822.2734,-192.5506C2825.4191,-192.0268 2828.5345,-191.5088 2831.6008,-191 2856.0362,-186.9454 2925.5625,-191.876 2941.6008,-173 2956.3229,-155.673 2967.9877,-83.2688 2938.6008,-54 2918.9673,-34.4453 2047.4425,-21.1965 1854.9619,-18.5058"/>
<polygon fill="#1a2833" stroke="#1a2833" points="1854.8312,-15.0037 1844.7836,-18.3645 1854.734,-22.0031 1854.8312,-15.0037"/>
<text text-anchor="middle" x="2969.1008" y="-98.5" font-family="Times,serif" font-size="10.00" fill="#767676">&gt;=7.1</text>
</g>
<!-- symfony/service&#45;contracts&#45;&gt;php -->
<g id="edge53" class="edge">
<title>symfony/service&#45;contracts&#45;&gt;php</title>
<path fill="none" stroke="#1a2833" d="M2131.106,-190.9645C2146.172,-185.6665 2158.9683,-179.5263 2163.6008,-173 2186.9937,-140.0432 2179.793,-110.9499 2150.6008,-83 2108.5433,-42.7323 1932.8437,-25.8936 1855.0007,-20.3126"/>
<polygon fill="#1a2833" stroke="#1a2833" points="1854.9083,-16.7979 1844.6903,-19.5985 1854.4246,-23.7811 1854.9083,-16.7979"/>
<text text-anchor="middle" x="2191.1008" y="-98.5" font-family="Times,serif" font-size="10.00" fill="#767676">&gt;=7.2.5</text>
</g>
<!-- symfony/service&#45;contracts&#45;&gt;psr/container -->
<g id="edge54" class="edge">
<title>symfony/service&#45;contracts&#45;&gt;psr/container</title>
<path fill="none" stroke="#1a2833" d="M1959.3642,-192.848C1954.7152,-192.2027 1950.1101,-191.5831 1945.6008,-191 1906.6103,-185.9584 1802.8672,-193.953 1769.6008,-173 1753.7346,-163.0066 1762.225,-148.7361 1747.6008,-137 1741.3776,-132.0058 1728.1931,-126.4756 1713.2023,-121.2787"/>
<polygon fill="#1a2833" stroke="#1a2833" points="1714.2748,-117.9469 1703.681,-118.0937 1712.0542,-124.5853 1714.2748,-117.9469"/>
<text text-anchor="middle" x="1778.6008" y="-152.5" font-family="Times,serif" font-size="10.00" fill="#767676">^1.1</text>
</g>
<!-- symfony/string&#45;&gt;php -->
<g id="edge56" class="edge">
<title>symfony/string&#45;&gt;php</title>
<path fill="none" stroke="#1a2833" d="M2250.0991,-190.8857C2248.3575,-163.7136 2241.0838,-112.4558 2211.6008,-83 2161.8211,-33.2663 1943.2459,-21.5352 1854.8726,-18.8095"/>
<polygon fill="#1a2833" stroke="#1a2833" points="1854.8571,-15.3077 1844.7609,-18.5197 1854.6565,-22.3048 1854.8571,-15.3077"/>
<text text-anchor="middle" x="2250.1008" y="-98.5" font-family="Times,serif" font-size="10.00" fill="#767676">&gt;=8.0.2</text>
</g>
<!-- symfony/string&#45;&gt;symfony/polyfill&#45;ctype -->
<g id="edge57" class="edge">
<title>symfony/string&#45;&gt;symfony/polyfill&#45;ctype</title>
<path fill="none" stroke="#1a2833" d="M2179.935,-193.0792C2176.7808,-192.3752 2173.6581,-191.6795 2170.6008,-191 2134.1774,-182.9047 2124.8622,-181.7925 2088.6008,-173 2021.9054,-156.828 1946.4843,-136.633 1892.1735,-121.7501"/>
<polygon fill="#1a2833" stroke="#1a2833" points="1892.8549,-118.3077 1882.285,-119.0351 1891.0015,-125.0579 1892.8549,-118.3077"/>
<text text-anchor="middle" x="2098.1008" y="-152.5" font-family="Times,serif" font-size="10.00" fill="#767676">~1.8</text>
</g>
<!-- symfony/string&#45;&gt;symfony/polyfill&#45;mbstring -->
<g id="edge62" class="edge">
<title>symfony/string&#45;&gt;symfony/polyfill&#45;mbstring</title>
<path fill="none" stroke="#1a2833" d="M2214.782,-190.9232C2178.2107,-172.4667 2121.3359,-143.7635 2081.7138,-123.7673"/>
<polygon fill="#1a2833" stroke="#1a2833" points="2083.0409,-120.5166 2072.5364,-119.1357 2079.887,-126.7659 2083.0409,-120.5166"/>
<text text-anchor="middle" x="2184.1008" y="-152.5" font-family="Times,serif" font-size="10.00" fill="#767676">~1.0</text>
</g>
<!-- symfony/polyfill&#45;intl&#45;grapheme -->
<g id="node29" class="node">
<title>symfony/polyfill&#45;intl&#45;grapheme</title>
<path fill="#eeeeee" stroke="#000000" d="M2523.6008,-119C2523.6008,-119 2309.6008,-119 2309.6008,-119 2303.6008,-119 2297.6008,-113 2297.6008,-107 2297.6008,-107 2297.6008,-95 2297.6008,-95 2297.6008,-89 2303.6008,-83 2309.6008,-83 2309.6008,-83 2523.6008,-83 2523.6008,-83 2529.6008,-83 2535.6008,-89 2535.6008,-95 2535.6008,-95 2535.6008,-107 2535.6008,-107 2535.6008,-113 2529.6008,-119 2523.6008,-119"/>
<text text-anchor="middle" x="2416.6008" y="-97.3" font-family="Times,serif" font-size="14.00" fill="#314b5f">symfony/polyfill&#45;intl&#45;grapheme: v1.23.1</text>
</g>
<!-- symfony/string&#45;&gt;symfony/polyfill&#45;intl&#45;grapheme -->
<g id="edge59" class="edge">
<title>symfony/string&#45;&gt;symfony/polyfill&#45;intl&#45;grapheme</title>
<path fill="none" stroke="#1a2833" d="M2278.3855,-190.9232C2306.2751,-172.7782 2349.387,-144.7295 2380.0391,-124.7871"/>
<polygon fill="#1a2833" stroke="#1a2833" points="2382.2521,-127.523 2388.7255,-119.1357 2378.4346,-121.6555 2382.2521,-127.523"/>
<text text-anchor="middle" x="2367.1008" y="-152.5" font-family="Times,serif" font-size="10.00" fill="#767676">~1.0</text>
</g>
<!-- symfony/polyfill&#45;intl&#45;normalizer -->
<g id="node30" class="node">
<title>symfony/polyfill&#45;intl&#45;normalizer</title>
<path fill="#eeeeee" stroke="#000000" d="M2785.1008,-119C2785.1008,-119 2566.1008,-119 2566.1008,-119 2560.1008,-119 2554.1008,-113 2554.1008,-107 2554.1008,-107 2554.1008,-95 2554.1008,-95 2554.1008,-89 2560.1008,-83 2566.1008,-83 2566.1008,-83 2785.1008,-83 2785.1008,-83 2791.1008,-83 2797.1008,-89 2797.1008,-95 2797.1008,-95 2797.1008,-107 2797.1008,-107 2797.1008,-113 2791.1008,-119 2785.1008,-119"/>
<text text-anchor="middle" x="2675.6008" y="-97.3" font-family="Times,serif" font-size="14.00" fill="#314b5f">symfony/polyfill&#45;intl&#45;normalizer: v1.23.0</text>
</g>
<!-- symfony/string&#45;&gt;symfony/polyfill&#45;intl&#45;normalizer -->
<g id="edge61" class="edge">
<title>symfony/string&#45;&gt;symfony/polyfill&#45;intl&#45;normalizer</title>
<path fill="none" stroke="#1a2833" d="M2321.258,-191.0448C2396.521,-171.9191 2515.4724,-141.6914 2594.505,-121.6079"/>
<polygon fill="#1a2833" stroke="#1a2833" points="2595.5901,-124.9435 2604.42,-119.0883 2593.866,-118.1591 2595.5901,-124.9435"/>
<text text-anchor="middle" x="2535.1008" y="-152.5" font-family="Times,serif" font-size="10.00" fill="#767676">~1.0</text>
</g>
<!-- symfony/polyfill&#45;intl&#45;grapheme&#45;&gt;php -->
<g id="edge58" class="edge">
<title>symfony/polyfill&#45;intl&#45;grapheme&#45;&gt;php</title>
<path fill="none" stroke="#1a2833" d="M2366.3372,-82.8978C2336.0909,-72.7522 2296.5933,-60.8049 2260.6008,-54 2183.1102,-39.3492 1946.9343,-25.1431 1854.8857,-20.012"/>
<polygon fill="#1a2833" stroke="#1a2833" points="1854.8267,-16.5035 1844.6487,-19.4458 1854.44,-23.4928 1854.8267,-16.5035"/>
<text text-anchor="middle" x="2316.1008" y="-57" font-family="Times,serif" font-size="10.00" fill="#767676">&gt;=7.1</text>
</g>
<!-- symfony/polyfill&#45;intl&#45;normalizer&#45;&gt;php -->
<g id="edge60" class="edge">
<title>symfony/polyfill&#45;intl&#45;normalizer&#45;&gt;php</title>
<path fill="none" stroke="#1a2833" d="M2553.9207,-84.2781C2550.7821,-83.8476 2547.6712,-83.421 2544.6008,-83 2450.3824,-70.0828 2427.1977,-63.7656 2332.6008,-54 2154.125,-35.5753 1939.8575,-23.9523 1854.9133,-19.76"/>
<polygon fill="#1a2833" stroke="#1a2833" points="1854.8956,-16.2551 1844.7367,-19.2629 1854.554,-23.2467 1854.8956,-16.2551"/>
<text text-anchor="middle" x="2433.1008" y="-57" font-family="Times,serif" font-size="10.00" fill="#767676">&gt;=7.1</text>
</g>
<!-- symfony/finder&#45;&gt;php -->
<g id="edge65" class="edge">
<title>symfony/finder&#45;&gt;php</title>
<path fill="none" stroke="#1a2833" d="M2560.6909,-273.8212C2569.6726,-268.9629 2578.4653,-263.053 2585.6008,-256 2608.643,-233.2242 2591.7728,-209.1642 2618.6008,-191 2655.7353,-165.8577 2778.2101,-190.2604 2819.6008,-173 2853.9505,-158.6758 2867.9182,-152.7512 2883.6008,-119 2896.7119,-90.783 2885.7879,-67.1752 2857.6008,-54 2811.3402,-32.3769 2035.4045,-20.8656 1854.9059,-18.4731"/>
<polygon fill="#1a2833" stroke="#1a2833" points="1854.8835,-14.9726 1844.8384,-18.3409 1854.7916,-21.972 1854.8835,-14.9726"/>
<text text-anchor="middle" x="2889.1008" y="-152.5" font-family="Times,serif" font-size="10.00" fill="#767676">&gt;=7.2.5</text>
</g>
<!-- symfony/finder&#45;&gt;symfony/deprecation&#45;contracts -->
<g id="edge66" class="edge">
<title>symfony/finder&#45;&gt;symfony/deprecation&#45;contracts</title>
<path fill="none" stroke="#1a2833" d="M2584.3702,-276.2462C2609.5487,-270.3615 2637.9439,-263.3193 2663.6008,-256 2678.4677,-251.7588 2681.5379,-248.4816 2696.6008,-245 2752.582,-232.0605 2769.9141,-235.0521 2829.9486,-227.18"/>
<polygon fill="#1a2833" stroke="#1a2833" points="2830.5253,-230.6339 2839.9629,-225.8192 2829.5827,-223.6977 2830.5253,-230.6339"/>
<text text-anchor="middle" x="2711.6008" y="-248" font-family="Times,serif" font-size="10.00" fill="#767676">^2.1|^3</text>
</g>
<!-- symfony/finder&#45;&gt;symfony/polyfill&#45;php80 -->
<g id="edge67" class="edge">
<title>symfony/finder&#45;&gt;symfony/polyfill&#45;php80</title>
<path fill="none" stroke="#1a2833" d="M2488.2366,-273.673C2483.1455,-268.5565 2478.46,-262.5752 2475.6008,-256 2473.0988,-250.2463 2472.0093,-243.7099 2471.7095,-237.3797"/>
<polygon fill="#1a2833" stroke="#1a2833" points="2475.2128,-237.1397 2471.8408,-227.0958 2468.2134,-237.0503 2475.2128,-237.1397"/>
<text text-anchor="middle" x="2487.1008" y="-248" font-family="Times,serif" font-size="10.00" fill="#767676">^1.16</text>
</g>
<!-- symfony/options&#45;resolver&#45;&gt;php -->
<g id="edge69" class="edge">
<title>symfony/options&#45;resolver&#45;&gt;php</title>
<path fill="none" stroke="#1a2833" d="M2837.747,-286.5819C2926.369,-279.4194 3046.7273,-263.1658 3076.6008,-227 3110.3248,-186.1727 3062.6538,-124.4398 3025.6008,-83 3009.2402,-64.7024 3002.1076,-61.0639 2978.6008,-54 2923.6329,-37.4819 2047.9853,-21.868 1855.0249,-18.6172"/>
<polygon fill="#1a2833" stroke="#1a2833" points="1854.8804,-15.1143 1844.8231,-18.4461 1854.763,-22.1134 1854.8804,-15.1143"/>
<text text-anchor="middle" x="3101.1008" y="-152.5" font-family="Times,serif" font-size="10.00" fill="#767676">&gt;=7.2.5</text>
</g>
<!-- symfony/options&#45;resolver&#45;&gt;symfony/deprecation&#45;contracts -->
<g id="edge70" class="edge">
<title>symfony/options&#45;resolver&#45;&gt;symfony/deprecation&#45;contracts</title>
<path fill="none" stroke="#1a2833" d="M2785.2526,-273.9902C2818.1033,-261.3083 2862.2577,-244.2627 2897.1046,-230.8102"/>
<polygon fill="#1a2833" stroke="#1a2833" points="2898.6008,-233.9844 2906.6693,-227.1177 2896.0798,-227.4541 2898.6008,-233.9844"/>
<text text-anchor="middle" x="2873.6008" y="-248" font-family="Times,serif" font-size="10.00" fill="#767676">^2.1|^3</text>
</g>
<!-- symfony/options&#45;resolver&#45;&gt;symfony/polyfill&#45;php80 -->
<g id="edge72" class="edge">
<title>symfony/options&#45;resolver&#45;&gt;symfony/polyfill&#45;php80</title>
<path fill="none" stroke="#1a2833" d="M2652.4912,-273.9866C2631.1027,-268.8251 2608.3623,-262.7445 2587.6008,-256 2566.0669,-249.0046 2542.8806,-239.6892 2523.1488,-231.1973"/>
<polygon fill="#1a2833" stroke="#1a2833" points="2524.3279,-227.8934 2513.7622,-227.1086 2521.5324,-234.311 2524.3279,-227.8934"/>
<text text-anchor="middle" x="2599.1008" y="-248" font-family="Times,serif" font-size="10.00" fill="#767676">^1.16</text>
</g>
<!-- symfony/options&#45;resolver&#45;&gt;symfony/polyfill&#45;php73 -->
<g id="edge71" class="edge">
<title>symfony/options&#45;resolver&#45;&gt;symfony/polyfill&#45;php73</title>
<path fill="none" stroke="#1a2833" d="M2735.563,-273.9902C2733.7592,-263.2963 2731.432,-249.4994 2729.3862,-237.3706"/>
<polygon fill="#1a2833" stroke="#1a2833" points="2732.7956,-236.5398 2727.681,-227.2612 2725.8931,-237.7041 2732.7956,-236.5398"/>
<text text-anchor="middle" x="2741.1008" y="-248" font-family="Times,serif" font-size="10.00" fill="#767676">~1.0</text>
</g>
<!-- symfony/yaml&#45;&gt;php -->
<g id="edge74" class="edge">
<title>symfony/yaml&#45;&gt;php</title>
<path fill="none" stroke="#1a2833" d="M3123.2644,-273.6613C3131.5089,-243.4256 3143.5796,-181.9868 3121.6008,-137 3093.7726,-80.0407 3066.4036,-71.9383 3005.6008,-54 2949.1523,-37.3463 2049.5316,-21.78 1854.6491,-18.5931"/>
<polygon fill="#1a2833" stroke="#1a2833" points="1854.6732,-15.0932 1844.6176,-18.4299 1854.5593,-22.0922 1854.6732,-15.0932"/>
<text text-anchor="middle" x="3148.1008" y="-152.5" font-family="Times,serif" font-size="10.00" fill="#767676">&gt;=7.2.5</text>
</g>
<!-- symfony/yaml&#45;&gt;symfony/deprecation&#45;contracts -->
<g id="edge75" class="edge">
<title>symfony/yaml&#45;&gt;symfony/deprecation&#45;contracts</title>
<path fill="none" stroke="#1a2833" d="M3082.0152,-273.9902C3057.4925,-261.5793 3024.7119,-244.9891 2998.409,-231.6773"/>
<polygon fill="#1a2833" stroke="#1a2833" points="2999.9026,-228.5106 2989.3997,-227.1177 2996.7416,-234.7562 2999.9026,-228.5106"/>
<text text-anchor="middle" x="3059.6008" y="-248" font-family="Times,serif" font-size="10.00" fill="#767676">^2.1|^3</text>
</g>
<!-- symfony/yaml&#45;&gt;symfony/polyfill&#45;ctype -->
<g id="edge76" class="edge">
<title>symfony/yaml&#45;&gt;symfony/polyfill&#45;ctype</title>
<path fill="none" stroke="#1a2833" d="M3114.7358,-273.9006C3110.3084,-251.6018 3099.762,-213.8705 3076.6008,-191 3029.7363,-144.7237 3003.2099,-149.7845 2938.6008,-137 2830.5458,-115.6186 2073.3175,-128.8835 1923.4604,-118.8344"/>
<polygon fill="#1a2833" stroke="#1a2833" points="1923.6158,-115.3358 1913.3707,-118.0352 1923.0631,-122.314 1923.6158,-115.3358"/>
<text text-anchor="middle" x="3108.6008" y="-206.5" font-family="Times,serif" font-size="10.00" fill="#767676">^1.8</text>
</g>
</g>
</svg>
