<?xml version="1.0" encoding="UTF-8" standalone="no"?>
<!DOCTYPE svg PUBLIC "-//W3C//DTD SVG 1.1//EN"
 "http://www.w3.org/Graphics/SVG/1.1/DTD/svg11.dtd">
<!-- Generated by graphviz version 2.40.1 (20161225.0304)
 -->
<!-- Title: %3 Pages: 1 -->
<svg width="636pt" height="695pt"
 viewBox="0.00 0.00 636.00 695.00" xmlns="http://www.w3.org/2000/svg" xmlns:xlink="http://www.w3.org/1999/xlink">
<g id="graph0" class="graph" transform="scale(1 1) rotate(0) translate(4 691)">
<title>%3</title>
<polygon fill="#ffffff" stroke="transparent" points="-4,4 -4,-691 632,-691 632,4 -4,4"/>
<g id="clust1" class="cluster">
<title>cluster_0</title>
<polygon fill="none" stroke="#000000" points="140,-521.5 140,-620.5 400,-620.5 400,-521.5 140,-521.5"/>
<text text-anchor="middle" x="270" y="-605.3" font-family="Times,serif" font-size="14.00" fill="#000000">Bartlett\UmlWriter\Config\Loader</text>
</g>
<g id="clust2" class="cluster">
<title>cluster_1</title>
<polygon fill="none" stroke="#000000" points="8,-8 8,-455 532,-455 532,-8 8,-8"/>
<text text-anchor="middle" x="270" y="-439.8" font-family="Times,serif" font-size="14.00" fill="#000000">Symfony\Component\Config\Loader</text>
</g>
<g id="clust3" class="cluster">
<title>cluster_2</title>
<polygon fill="none" stroke="#000000" points="408,-463 408,-679 620,-679 620,-463 408,-463"/>
<text text-anchor="middle" x="514" y="-663.8" font-family="Times,serif" font-size="14.00" fill="#000000">Bartlett\UmlWriter\Service</text>
</g>
<!-- Bartlett\\UmlWriter\\Config\\Loader\\YamlFileLoader -->
<g id="node1" class="node">
<title>Bartlett\\UmlWriter\\Config\\Loader\\YamlFileLoader</title>
<polygon fill="#fefece" stroke="transparent" points="339,-589.5 201,-589.5 201,-529.5 339,-529.5 339,-589.5"/>
<polygon fill="#eeeeee" stroke="transparent" points="201,-567.5 201,-589.5 339,-589.5 339,-567.5 201,-567.5"/>
<polygon fill="none" stroke="#000000" points="201,-567.5 201,-589.5 339,-589.5 339,-567.5 201,-567.5"/>
<text text-anchor="start" x="234.5" y="-573.1" font-family="Verdana" font-weight="bold" font-size="8.00" fill="#000000">YamlFileLoader</text>
<polygon fill="none" stroke="#000000" points="201,-561.5 201,-567.5 339,-567.5 339,-561.5 201,-561.5"/>
<polygon fill="none" stroke="#000000" points="201,-529.5 201,-561.5 339,-561.5 339,-529.5 201,-529.5"/>
<text text-anchor="start" x="206" y="-550.1" font-family="Verdana" font-size="8.00" fill="#000000">+ load(resource, type = )</text>
<text text-anchor="start" x="206" y="-537.1" font-family="Verdana" font-size="8.00" fill="#000000">+ supports(resource, type = )</text>
</g>
<!-- Symfony\\Component\\Config\\Loader\\FileLoader -->
<g id="node2" class="node">
<title>Symfony\\Component\\Config\\Loader\\FileLoader</title>
<polygon fill="#fefece" stroke="transparent" points="524,-424 16,-424 16,-273 524,-273 524,-424"/>
<polygon fill="#eeeeee" stroke="transparent" points="16,-401.5 16,-423.5 524,-423.5 524,-401.5 16,-401.5"/>
<polygon fill="none" stroke="#000000" points="16,-401.5 16,-423.5 524,-423.5 524,-401.5 16,-401.5"/>
<text text-anchor="start" x="245.5" y="-415.1" font-family="Verdana" font-weight="bold" font-size="8.00" fill="#000000">«abstract»</text>
<text text-anchor="start" x="245.5" y="-407.1" font-family="Verdana" font-weight="bold" font-size="8.00" fill="#000000">FileLoader</text>
<polygon fill="none" stroke="#000000" points="16,-356.5 16,-401.5 524,-401.5 524,-356.5 16,-356.5"/>
<text text-anchor="start" x="21" y="-390.1" font-family="Verdana" font-size="8.00" fill="#000000"># «static» loading = []</text>
<text text-anchor="start" x="21" y="-377.1" font-family="Verdana" font-size="8.00" fill="#000000"># locator</text>
<text text-anchor="start" x="21" y="-364.1" font-family="Verdana" font-size="8.00" fill="#000000">– currentDir</text>
<polygon fill="none" stroke="#000000" points="16,-272.5 16,-356.5 524,-356.5 524,-272.5 16,-272.5"/>
<text text-anchor="start" x="21" y="-345.1" font-family="Verdana" font-size="8.00" fill="#000000">+ __construct(locator : Symfony\Component\Config\FileLocatorInterface)</text>
<text text-anchor="start" x="21" y="-332.1" font-family="Verdana" font-size="8.00" fill="#000000">+ setCurrentDir(dir)</text>
<text text-anchor="start" x="21" y="-319.1" font-family="Verdana" font-size="8.00" fill="#000000">+ getLocator()</text>
<text text-anchor="start" x="21" y="-306.1" font-family="Verdana" font-size="8.00" fill="#000000">+ import(resource : mixed, type : mixed = , ignoreErrors : bool = , sourceResource : mixed = , exclude : mixed = )</text>
<text text-anchor="start" x="21" y="-293.1" font-family="Verdana" font-size="8.00" fill="#000000"># glob(pattern, recursive, inout resource = , ignoreErrors = , forExclusion = , excluded = )</text>
<text text-anchor="start" x="21" y="-280.1" font-family="Verdana" font-size="8.00" fill="#000000">– doImport(resource, type = , ignoreErrors = , sourceResource = )</text>
</g>
<!-- Bartlett\\UmlWriter\\Config\\Loader\\YamlFileLoader&#45;&gt;Symfony\\Component\\Config\\Loader\\FileLoader -->
<g id="edge3" class="edge">
<title>Bartlett\\UmlWriter\\Config\\Loader\\YamlFileLoader&#45;&gt;Symfony\\Component\\Config\\Loader\\FileLoader</title>
<path fill="none" stroke="#000000" d="M270,-529.2688C270,-504.4843 270,-468.1356 270,-434.5203"/>
<polygon fill="none" stroke="#000000" points="273.5001,-434.1915 270,-424.1915 266.5001,-434.1916 273.5001,-434.1915"/>
</g>
<!-- Symfony\\Component\\Config\\Loader\\Loader -->
<g id="node3" class="node">
<title>Symfony\\Component\\Config\\Loader\\Loader</title>
<polygon fill="#fefece" stroke="transparent" points="460,-237 80,-237 80,-138 460,-138 460,-237"/>
<polygon fill="#eeeeee" stroke="transparent" points="80,-214.5 80,-236.5 460,-236.5 460,-214.5 80,-214.5"/>
<polygon fill="none" stroke="#000000" points="80,-214.5 80,-236.5 460,-236.5 460,-214.5 80,-214.5"/>
<text text-anchor="start" x="245.5" y="-228.1" font-family="Verdana" font-weight="bold" font-size="8.00" fill="#000000">«abstract»</text>
<text text-anchor="start" x="254" y="-220.1" font-family="Verdana" font-weight="bold" font-size="8.00" fill="#000000">Loader</text>
<polygon fill="none" stroke="#000000" points="80,-195.5 80,-214.5 460,-214.5 460,-195.5 80,-195.5"/>
<text text-anchor="start" x="85" y="-203.1" font-family="Verdana" font-size="8.00" fill="#000000"># resolver</text>
<polygon fill="none" stroke="#000000" points="80,-137.5 80,-195.5 460,-195.5 460,-137.5 80,-137.5"/>
<text text-anchor="start" x="85" y="-184.1" font-family="Verdana" font-size="8.00" fill="#000000">+ getResolver()</text>
<text text-anchor="start" x="85" y="-171.1" font-family="Verdana" font-size="8.00" fill="#000000">+ setResolver(resolver : Symfony\Component\Config\Loader\LoaderResolverInterface)</text>
<text text-anchor="start" x="85" y="-158.1" font-family="Verdana" font-size="8.00" fill="#000000">+ import(resource : mixed, type : mixed = )</text>
<text text-anchor="start" x="85" y="-145.1" font-family="Verdana" font-size="8.00" fill="#000000">+ resolve(resource : mixed, type : mixed = )</text>
</g>
<!-- Symfony\\Component\\Config\\Loader\\FileLoader&#45;&gt;Symfony\\Component\\Config\\Loader\\Loader -->
<g id="edge2" class="edge">
<title>Symfony\\Component\\Config\\Loader\\FileLoader&#45;&gt;Symfony\\Component\\Config\\Loader\\Loader</title>
<path fill="none" stroke="#000000" d="M270,-272.7144C270,-264.2271 270,-255.6697 270,-247.4213"/>
<polygon fill="none" stroke="#000000" points="273.5001,-247.167 270,-237.1671 266.5001,-247.1671 273.5001,-247.167"/>
</g>
<!-- Symfony\\Component\\Config\\Loader\\LoaderInterface -->
<g id="node4" class="node">
<title>Symfony\\Component\\Config\\Loader\\LoaderInterface</title>
<polygon fill="#fefece" stroke="transparent" points="484,-102 56,-102 56,-16 484,-16 484,-102"/>
<polygon fill="#eeeeee" stroke="transparent" points="56,-80 56,-102 484,-102 484,-80 56,-80"/>
<polygon fill="none" stroke="#000000" points="56,-80 56,-102 484,-102 484,-80 56,-80"/>
<text text-anchor="start" x="244" y="-93.6" font-family="Verdana" font-weight="bold" font-size="8.00" fill="#000000">«interface»</text>
<text text-anchor="start" x="233.5" y="-85.6" font-family="Verdana" font-weight="bold" font-size="8.00" fill="#000000">LoaderInterface</text>
<polygon fill="none" stroke="#000000" points="56,-74 56,-80 484,-80 484,-74 56,-74"/>
<polygon fill="none" stroke="#000000" points="56,-16 56,-74 484,-74 484,-16 56,-16"/>
<text text-anchor="start" x="61" y="-62.6" font-family="Verdana" font-size="8.00" fill="#000000">+ «abstract» load(resource, type = )</text>
<text text-anchor="start" x="61" y="-49.6" font-family="Verdana" font-size="8.00" fill="#000000">+ «abstract» supports(resource, type = )</text>
<text text-anchor="start" x="61" y="-36.6" font-family="Verdana" font-size="8.00" fill="#000000">+ «abstract» getResolver()</text>
<text text-anchor="start" x="61" y="-23.6" font-family="Verdana" font-size="8.00" fill="#000000">+ «abstract» setResolver(resolver : Symfony\Component\Config\Loader\LoaderResolverInterface)</text>
</g>
<!-- Symfony\\Component\\Config\\Loader\\Loader&#45;&gt;Symfony\\Component\\Config\\Loader\\LoaderInterface -->
<g id="edge1" class="edge">
<title>Symfony\\Component\\Config\\Loader\\Loader&#45;&gt;Symfony\\Component\\Config\\Loader\\LoaderInterface</title>
<path fill="none" stroke="#000000" stroke-dasharray="5,2" d="M270,-137.8185C270,-129.4837 270,-120.8036 270,-112.3802"/>
<polygon fill="none" stroke="#000000" points="273.5001,-112.2733 270,-102.2733 266.5001,-112.2734 273.5001,-112.2733"/>
</g>
<!-- Bartlett\\UmlWriter\\Service\\ConfigurationHandler -->
<g id="node5" class="node">
<title>Bartlett\\UmlWriter\\Service\\ConfigurationHandler</title>
<polygon fill="#fefece" stroke="transparent" points="596.5,-648 431.5,-648 431.5,-471 596.5,-471 596.5,-648"/>
<polygon fill="#eeeeee" stroke="transparent" points="432,-625.5 432,-647.5 597,-647.5 597,-625.5 432,-625.5"/>
<polygon fill="none" stroke="#000000" points="432,-625.5 432,-647.5 597,-647.5 597,-625.5 432,-625.5"/>
<text text-anchor="start" x="464.5" y="-631.1" font-family="Verdana" font-weight="bold" font-size="8.00" fill="#000000">ConfigurationHandler</text>
<polygon fill="none" stroke="#000000" points="432,-567.5 432,-625.5 597,-625.5 597,-567.5 432,-567.5"/>
<text text-anchor="start" x="437" y="-614.1" font-family="Verdana" font-size="8.00" fill="#000000">– filename : mixed</text>
<text text-anchor="start" x="437" y="-601.1" font-family="Verdana" font-size="8.00" fill="#000000">– configStore : array</text>
<text text-anchor="start" x="437" y="-588.1" font-family="Verdana" font-size="8.00" fill="#000000">– initialized : bool</text>
<text text-anchor="start" x="437" y="-575.1" font-family="Verdana" font-size="8.00" fill="#000000">– optionsResolver : OptionsResolver</text>
<polygon fill="none" stroke="#000000" points="432,-470.5 432,-567.5 597,-567.5 597,-470.5 432,-470.5"/>
<text text-anchor="start" x="437" y="-556.1" font-family="Verdana" font-size="8.00" fill="#000000">+ __construct(filename)</text>
<text text-anchor="start" x="437" y="-543.1" font-family="Verdana" font-size="8.00" fill="#000000">+ filename() : ?string</text>
<text text-anchor="start" x="437" y="-530.1" font-family="Verdana" font-size="8.00" fill="#000000">+ toArray() : array</text>
<text text-anchor="start" x="437" y="-517.1" font-family="Verdana" font-size="8.00" fill="#000000">+ toFlat() : array</text>
<text text-anchor="start" x="437" y="-504.1" font-family="Verdana" font-size="8.00" fill="#000000">+ getValueByKey(key, default = )</text>
<text text-anchor="start" x="437" y="-491.1" font-family="Verdana" font-size="8.00" fill="#000000">– initialize() : void</text>
<text text-anchor="start" x="437" y="-478.1" font-family="Verdana" font-size="8.00" fill="#000000">– flatten(configs : array) : array</text>
</g>
</g>
</svg>
