<?xml version="1.0" encoding="UTF-8" standalone="no"?>
<!DOCTYPE svg PUBLIC "-//W3C//DTD SVG 1.1//EN"
 "http://www.w3.org/Graphics/SVG/1.1/DTD/svg11.dtd">
<!-- Generated by graphviz version 2.40.1 (20161225.0304)
 -->
<!-- Title: %3 Pages: 1 -->
<svg width="780pt" height="282pt"
 viewBox="0.00 0.00 780.00 282.00" xmlns="http://www.w3.org/2000/svg" xmlns:xlink="http://www.w3.org/1999/xlink">
<g id="graph0" class="graph" transform="scale(1 1) rotate(0) translate(4 278)">
<title>%3</title>
<polygon fill="#ffffff" stroke="transparent" points="-4,4 -4,-278 776,-278 776,4 -4,4"/>
<g id="clust1" class="cluster">
<title>cluster_0</title>
<polygon fill="none" stroke="#000000" points="8,-115 8,-266 764,-266 764,-115 8,-115"/>
<text text-anchor="middle" x="386" y="-250.8" font-family="Times,serif" font-size="14.00" fill="#000000">Bartlett\UmlWriter\Service</text>
</g>
<g id="clust2" class="cluster">
<title>cluster_1</title>
<polygon fill="none" stroke="#000000" points="15,-8 15,-107 131,-107 131,-8 15,-8"/>
<text text-anchor="middle" x="73" y="-91.8" font-family="Times,serif" font-size="14.00" fill="#000000">Psr\Container</text>
</g>
<!-- Bartlett\\UmlWriter\\Service\\ClassDiagramRenderer -->
<g id="node1" class="node">
<title>Bartlett\\UmlWriter\\Service\\ClassDiagramRenderer</title>
<polygon fill="#fefece" stroke="transparent" points="756.5,-235 147.5,-235 147.5,-123 756.5,-123 756.5,-235"/>
<polygon fill="#eeeeee" stroke="transparent" points="148,-213 148,-235 757,-235 757,-213 148,-213"/>
<polygon fill="none" stroke="#000000" points="148,-213 148,-235 757,-235 757,-213 148,-213"/>
<text text-anchor="start" x="400" y="-218.6" font-family="Verdana" font-weight="bold" font-size="8.00" fill="#000000">ClassDiagramRenderer</text>
<polygon fill="none" stroke="#000000" points="148,-181 148,-213 757,-213 757,-181 148,-181"/>
<text text-anchor="start" x="153" y="-201.6" font-family="Verdana" font-size="8.00" fill="#000000">– graph : Graph</text>
<text text-anchor="start" x="153" y="-188.6" font-family="Verdana" font-size="8.00" fill="#000000">– metaData : array</text>
<polygon fill="none" stroke="#000000" points="148,-123 148,-181 757,-181 757,-123 148,-123"/>
<text text-anchor="start" x="153" y="-169.6" font-family="Verdana" font-size="8.00" fill="#000000">+ __invoke(finder : Symfony\Component\Finder\Finder, generator : Bartlett\GraphUml\Generator\GeneratorInterface, parameters = ) : string</text>
<text text-anchor="start" x="153" y="-156.6" font-family="Verdana" font-size="8.00" fill="#000000">+ getMetadata() : array</text>
<text text-anchor="start" x="153" y="-143.6" font-family="Verdana" font-size="8.00" fill="#000000">+ getGraph() : Graphp\Graph\Graph</text>
<text text-anchor="start" x="153" y="-130.6" font-family="Verdana" font-size="8.00" fill="#000000">– initGraph(parameters) : void</text>
</g>
<!-- Bartlett\\UmlWriter\\Service\\ContainerService -->
<g id="node2" class="node">
<title>Bartlett\\UmlWriter\\Service\\ContainerService</title>
<polygon fill="#fefece" stroke="transparent" points="130,-235 16,-235 16,-123 130,-123 130,-235"/>
<polygon fill="#eeeeee" stroke="transparent" points="16,-213 16,-235 130,-235 130,-213 16,-213"/>
<polygon fill="none" stroke="#000000" points="16,-213 16,-235 130,-235 130,-213 16,-213"/>
<text text-anchor="start" x="33.5" y="-218.6" font-family="Verdana" font-weight="bold" font-size="8.00" fill="#000000">ContainerService</text>
<polygon fill="none" stroke="#000000" points="16,-181 16,-213 130,-213 130,-181 16,-181"/>
<text text-anchor="start" x="21" y="-201.6" font-family="Verdana" font-size="8.00" fill="#000000">– internalServices = […]</text>
<text text-anchor="start" x="21" y="-188.6" font-family="Verdana" font-size="8.00" fill="#000000">– runtimeServices = […]</text>
<polygon fill="none" stroke="#000000" points="16,-123 16,-181 130,-181 130,-123 16,-123"/>
<text text-anchor="start" x="21" y="-169.6" font-family="Verdana" font-size="8.00" fill="#000000">+ __construct()</text>
<text text-anchor="start" x="21" y="-156.6" font-family="Verdana" font-size="8.00" fill="#000000">+ set(id, service) : void</text>
<text text-anchor="start" x="21" y="-143.6" font-family="Verdana" font-size="8.00" fill="#000000">+ get(id)</text>
<text text-anchor="start" x="21" y="-130.6" font-family="Verdana" font-size="8.00" fill="#000000">+ has(id)</text>
</g>
<!-- Psr\\Container\\ContainerInterface -->
<g id="node3" class="node">
<title>Psr\\Container\\ContainerInterface</title>
<polygon fill="#fefece" stroke="transparent" points="121.5,-76 24.5,-76 24.5,-16 121.5,-16 121.5,-76"/>
<polygon fill="#eeeeee" stroke="transparent" points="25,-54 25,-76 122,-76 122,-54 25,-54"/>
<polygon fill="none" stroke="#000000" points="25,-54 25,-76 122,-76 122,-54 25,-54"/>
<text text-anchor="start" x="47.5" y="-67.6" font-family="Verdana" font-weight="bold" font-size="8.00" fill="#000000">«interface»</text>
<text text-anchor="start" x="30" y="-59.6" font-family="Verdana" font-weight="bold" font-size="8.00" fill="#000000">ContainerInterface</text>
<polygon fill="none" stroke="#000000" points="25,-48 25,-54 122,-54 122,-48 25,-48"/>
<polygon fill="none" stroke="#000000" points="25,-16 25,-48 122,-48 122,-16 25,-16"/>
<text text-anchor="start" x="30" y="-36.6" font-family="Verdana" font-size="8.00" fill="#000000">+ «abstract» get(id)</text>
<text text-anchor="start" x="30" y="-23.6" font-family="Verdana" font-size="8.00" fill="#000000">+ «abstract» has(id)</text>
</g>
<!-- Bartlett\\UmlWriter\\Service\\ContainerService&#45;&gt;Psr\\Container\\ContainerInterface -->
<g id="edge1" class="edge">
<title>Bartlett\\UmlWriter\\Service\\ContainerService&#45;&gt;Psr\\Container\\ContainerInterface</title>
<path fill="none" stroke="#000000" stroke-dasharray="5,2" d="M73,-122.9815C73,-110.6976 73,-97.9243 73,-86.3953"/>
<polygon fill="none" stroke="#000000" points="76.5001,-86.207 73,-76.207 69.5001,-86.2071 76.5001,-86.207"/>
</g>
</g>
</svg>
