<?xml version="1.0" encoding="UTF-8" standalone="no"?>
<!DOCTYPE svg PUBLIC "-//W3C//DTD SVG 1.1//EN"
 "http://www.w3.org/Graphics/SVG/1.1/DTD/svg11.dtd">
<!-- Generated by graphviz version 2.40.1 (20161225.0304)
 -->
<!-- Title: %3 Pages: 1 -->
<svg width="3140pt" height="929pt"
 viewBox="0.00 0.00 3140.00 929.00" xmlns="http://www.w3.org/2000/svg" xmlns:xlink="http://www.w3.org/1999/xlink">
<g id="graph0" class="graph" transform="scale(1 1) rotate(0) translate(4 925)">
<title>%3</title>
<polygon fill="#ffffff" stroke="transparent" points="-4,4 -4,-925 3136,-925 3136,4 -4,4"/>
<g id="clust1" class="cluster">
<title>cluster_0</title>
<polygon fill="none" stroke="#000000" points="8,-143 8,-887 444,-887 444,-143 8,-143"/>
<text text-anchor="middle" x="226" y="-871.8" font-family="Times,serif" font-size="14.00" fill="#000000">Bartlett\UmlWriter\Generator</text>
</g>
<g id="clust2" class="cluster">
<title>cluster_1</title>
<polygon fill="none" stroke="#000000" points="452,-775 452,-913 1374,-913 1374,-775 452,-775"/>
<text text-anchor="middle" x="913" y="-897.8" font-family="Times,serif" font-size="14.00" fill="#000000">Bartlett\UmlWriter\Service</text>
</g>
<g id="clust3" class="cluster">
<title>cluster_2</title>
<polygon fill="none" stroke="#000000" points="457,-460 457,-559 573,-559 573,-460 457,-460"/>
<text text-anchor="middle" x="515" y="-543.8" font-family="Times,serif" font-size="14.00" fill="#000000">Psr\Container</text>
</g>
<g id="clust4" class="cluster">
<title>cluster_3</title>
<polygon fill="none" stroke="#000000" points="1382,-788 1382,-900 1962,-900 1962,-788 1382,-788"/>
<text text-anchor="middle" x="1672" y="-884.8" font-family="Times,serif" font-size="14.00" fill="#000000">Bartlett\UmlWriter\Console</text>
</g>
<g id="clust5" class="cluster">
<title>cluster_4</title>
<polygon fill="none" stroke="#000000" points="1376,-252 1376,-767 1968,-767 1968,-252 1376,-252"/>
<text text-anchor="middle" x="1672" y="-751.8" font-family="Times,serif" font-size="14.00" fill="#000000">Symfony\Component\Console</text>
</g>
<g id="clust6" class="cluster">
<title>cluster_5</title>
<polygon fill="none" stroke="#000000" points="1566,-149.5 1566,-235.5 1779,-235.5 1779,-149.5 1566,-149.5"/>
<text text-anchor="middle" x="1672.5" y="-220.3" font-family="Times,serif" font-size="14.00" fill="#000000">Symfony\Contracts\Service</text>
</g>
<g id="clust7" class="cluster">
<title>cluster_6</title>
<polygon fill="none" stroke="#000000" points="1970,-801 1970,-887 2646,-887 2646,-801 1970,-801"/>
<text text-anchor="middle" x="2308" y="-871.8" font-family="Times,serif" font-size="14.00" fill="#000000">Bartlett\UmlWriter\Console\Command</text>
</g>
<g id="clust8" class="cluster">
<title>cluster_7</title>
<polygon fill="none" stroke="#000000" points="2024,-265 2024,-754 2592,-754 2592,-265 2024,-265"/>
<text text-anchor="middle" x="2308" y="-738.8" font-family="Times,serif" font-size="14.00" fill="#000000">Symfony\Component\Console\Command</text>
</g>
<g id="clust9" class="cluster">
<title>cluster_8</title>
<polygon fill="none" stroke="#000000" points="2732,-794.5 2732,-893.5 2992,-893.5 2992,-794.5 2732,-794.5"/>
<text text-anchor="middle" x="2862" y="-878.3" font-family="Times,serif" font-size="14.00" fill="#000000">Bartlett\UmlWriter\Config\Loader</text>
</g>
<g id="clust10" class="cluster">
<title>cluster_9</title>
<polygon fill="none" stroke="#000000" points="2600,-8 2600,-572 3124,-572 3124,-8 2600,-8"/>
<text text-anchor="middle" x="2862" y="-556.8" font-family="Times,serif" font-size="14.00" fill="#000000">Symfony\Component\Config\Loader</text>
</g>
<!-- Bartlett\\UmlWriter\\Generator\\GeneratorFactoryInterface -->
<g id="node1" class="node">
<title>Bartlett\\UmlWriter\\Generator\\GeneratorFactoryInterface</title>
<polygon fill="#fefece" stroke="transparent" points="436,-211 16,-211 16,-151 436,-151 436,-211"/>
<polygon fill="#eeeeee" stroke="transparent" points="16,-189 16,-211 436,-211 436,-189 16,-189"/>
<polygon fill="none" stroke="#000000" points="16,-189 16,-211 436,-211 436,-189 16,-189"/>
<text text-anchor="start" x="200" y="-202.6" font-family="Verdana" font-weight="bold" font-size="8.00" fill="#000000">«interface»</text>
<text text-anchor="start" x="165" y="-194.6" font-family="Verdana" font-weight="bold" font-size="8.00" fill="#000000">GeneratorFactoryInterface</text>
<polygon fill="none" stroke="#000000" points="16,-183 16,-189 436,-189 436,-183 16,-183"/>
<polygon fill="none" stroke="#000000" points="16,-151 16,-183 436,-183 436,-151 16,-151"/>
<text text-anchor="start" x="21" y="-171.6" font-family="Verdana" font-size="8.00" fill="#000000">+ «abstract» createInstance(provider) : Bartlett\UmlWriter\Generator\GeneratorFactoryInterface</text>
<text text-anchor="start" x="21" y="-158.6" font-family="Verdana" font-size="8.00" fill="#000000">+ «abstract» getGenerator() : Bartlett\GraphUml\Generator\GeneratorInterface</text>
</g>
<!-- Bartlett\\UmlWriter\\Generator\\AbstractGeneratorFactory -->
<g id="node2" class="node">
<title>Bartlett\\UmlWriter\\Generator\\AbstractGeneratorFactory</title>
<polygon fill="#fefece" stroke="transparent" points="415,-534.5 37,-534.5 37,-461.5 415,-461.5 415,-534.5"/>
<polygon fill="#eeeeee" stroke="transparent" points="37,-512 37,-534 415,-534 415,-512 37,-512"/>
<polygon fill="none" stroke="#000000" points="37,-512 37,-534 415,-534 415,-512 37,-512"/>
<text text-anchor="start" x="201.5" y="-525.6" font-family="Verdana" font-weight="bold" font-size="8.00" fill="#000000">«abstract»</text>
<text text-anchor="start" x="165.5" y="-517.6" font-family="Verdana" font-weight="bold" font-size="8.00" fill="#000000">AbstractGeneratorFactory</text>
<polygon fill="none" stroke="#000000" points="37,-506 37,-512 415,-512 415,-506 37,-506"/>
<polygon fill="none" stroke="#000000" points="37,-461 37,-506 415,-506 415,-461 37,-461"/>
<text text-anchor="start" x="42" y="-494.6" font-family="Verdana" font-size="8.00" fill="#000000">+ __construct(generator = )</text>
<text text-anchor="start" x="42" y="-481.6" font-family="Verdana" font-size="8.00" fill="#000000">+ createInstance(generator) : Bartlett\UmlWriter\Generator\GeneratorFactoryInterface</text>
<text text-anchor="start" x="42" y="-468.6" font-family="Verdana" font-size="8.00" fill="#000000">+ «abstract» getGenerator() : Bartlett\GraphUml\Generator\GeneratorInterface</text>
</g>
<!-- Bartlett\\UmlWriter\\Generator\\AbstractGeneratorFactory&#45;&gt;Bartlett\\UmlWriter\\Generator\\GeneratorFactoryInterface -->
<g id="edge1" class="edge">
<title>Bartlett\\UmlWriter\\Generator\\AbstractGeneratorFactory&#45;&gt;Bartlett\\UmlWriter\\Generator\\GeneratorFactoryInterface</title>
<path fill="none" stroke="#000000" stroke-dasharray="5,2" d="M226,-461.3264C226,-401.5495 226,-283.5579 226,-221.4347"/>
<polygon fill="none" stroke="#000000" points="229.5001,-221.236 226,-211.236 222.5001,-221.236 229.5001,-221.236"/>
</g>
<!-- Bartlett\\UmlWriter\\Generator\\GeneratorFactory -->
<g id="node3" class="node">
<title>Bartlett\\UmlWriter\\Generator\\GeneratorFactory</title>
<polygon fill="#fefece" stroke="transparent" points="376,-856 76,-856 76,-809 376,-809 376,-856"/>
<polygon fill="#eeeeee" stroke="transparent" points="76,-833.5 76,-855.5 376,-855.5 376,-833.5 76,-833.5"/>
<polygon fill="none" stroke="#000000" points="76,-833.5 76,-855.5 376,-855.5 376,-833.5 76,-833.5"/>
<text text-anchor="start" x="185.5" y="-839.1" font-family="Verdana" font-weight="bold" font-size="8.00" fill="#000000">GeneratorFactory</text>
<polygon fill="none" stroke="#000000" points="76,-827.5 76,-833.5 376,-833.5 376,-827.5 76,-827.5"/>
<polygon fill="none" stroke="#000000" points="76,-808.5 76,-827.5 376,-827.5 376,-808.5 76,-808.5"/>
<text text-anchor="start" x="81" y="-816.1" font-family="Verdana" font-size="8.00" fill="#000000">+ getGenerator() : Bartlett\GraphUml\Generator\GeneratorInterface</text>
</g>
<!-- Bartlett\\UmlWriter\\Generator\\GeneratorFactory&#45;&gt;Bartlett\\UmlWriter\\Generator\\AbstractGeneratorFactory -->
<g id="edge2" class="edge">
<title>Bartlett\\UmlWriter\\Generator\\GeneratorFactory&#45;&gt;Bartlett\\UmlWriter\\Generator\\AbstractGeneratorFactory</title>
<path fill="none" stroke="#000000" d="M226,-808.9786C226,-754.1966 226,-617.2592 226,-544.747"/>
<polygon fill="none" stroke="#000000" points="229.5001,-544.5334 226,-534.5334 222.5001,-544.5334 229.5001,-544.5334"/>
</g>
<!-- Bartlett\\UmlWriter\\Service\\ConfigurationHandler -->
<g id="node4" class="node">
<title>Bartlett\\UmlWriter\\Service\\ConfigurationHandler</title>
<polygon fill="#fefece" stroke="transparent" points="1366,-882 1214,-882 1214,-783 1366,-783 1366,-882"/>
<polygon fill="#eeeeee" stroke="transparent" points="1214,-859.5 1214,-881.5 1366,-881.5 1366,-859.5 1214,-859.5"/>
<polygon fill="none" stroke="#000000" points="1214,-859.5 1214,-881.5 1366,-881.5 1366,-859.5 1214,-859.5"/>
<text text-anchor="start" x="1240" y="-865.1" font-family="Verdana" font-weight="bold" font-size="8.00" fill="#000000">ConfigurationHandler</text>
<polygon fill="none" stroke="#000000" points="1214,-853.5 1214,-859.5 1366,-859.5 1366,-853.5 1214,-853.5"/>
<polygon fill="none" stroke="#000000" points="1214,-782.5 1214,-853.5 1366,-853.5 1366,-782.5 1214,-782.5"/>
<text text-anchor="start" x="1219" y="-842.1" font-family="Verdana" font-size="8.00" fill="#000000">+ __construct(filename)</text>
<text text-anchor="start" x="1219" y="-829.1" font-family="Verdana" font-size="8.00" fill="#000000">+ filename() : ?string</text>
<text text-anchor="start" x="1219" y="-816.1" font-family="Verdana" font-size="8.00" fill="#000000">+ toArray() : array</text>
<text text-anchor="start" x="1219" y="-803.1" font-family="Verdana" font-size="8.00" fill="#000000">+ toFlat() : array</text>
<text text-anchor="start" x="1219" y="-790.1" font-family="Verdana" font-size="8.00" fill="#000000">+ getValueByKey(key, default = )</text>
</g>
<!-- Bartlett\\UmlWriter\\Service\\ClassDiagramRenderer -->
<g id="node5" class="node">
<title>Bartlett\\UmlWriter\\Service\\ClassDiagramRenderer</title>
<polygon fill="#fefece" stroke="transparent" points="1196.5,-869 587.5,-869 587.5,-796 1196.5,-796 1196.5,-869"/>
<polygon fill="#eeeeee" stroke="transparent" points="588,-846.5 588,-868.5 1197,-868.5 1197,-846.5 588,-846.5"/>
<polygon fill="none" stroke="#000000" points="588,-846.5 588,-868.5 1197,-868.5 1197,-846.5 588,-846.5"/>
<text text-anchor="start" x="840" y="-852.1" font-family="Verdana" font-weight="bold" font-size="8.00" fill="#000000">ClassDiagramRenderer</text>
<polygon fill="none" stroke="#000000" points="588,-840.5 588,-846.5 1197,-846.5 1197,-840.5 588,-840.5"/>
<polygon fill="none" stroke="#000000" points="588,-795.5 588,-840.5 1197,-840.5 1197,-795.5 588,-795.5"/>
<text text-anchor="start" x="593" y="-829.1" font-family="Verdana" font-size="8.00" fill="#000000">+ __invoke(finder : Symfony\Component\Finder\Finder, generator : Bartlett\GraphUml\Generator\GeneratorInterface, parameters = ) : string</text>
<text text-anchor="start" x="593" y="-816.1" font-family="Verdana" font-size="8.00" fill="#000000">+ getMetadata() : array</text>
<text text-anchor="start" x="593" y="-803.1" font-family="Verdana" font-size="8.00" fill="#000000">+ getGraph() : Graphp\Graph\Graph</text>
</g>
<!-- Bartlett\\UmlWriter\\Service\\ContainerService -->
<g id="node6" class="node">
<title>Bartlett\\UmlWriter\\Service\\ContainerService</title>
<polygon fill="#fefece" stroke="transparent" points="570,-875.5 460,-875.5 460,-789.5 570,-789.5 570,-875.5"/>
<polygon fill="#eeeeee" stroke="transparent" points="460,-853.5 460,-875.5 570,-875.5 570,-853.5 460,-853.5"/>
<polygon fill="none" stroke="#000000" points="460,-853.5 460,-875.5 570,-875.5 570,-853.5 460,-853.5"/>
<text text-anchor="start" x="475.5" y="-859.1" font-family="Verdana" font-weight="bold" font-size="8.00" fill="#000000">ContainerService</text>
<polygon fill="none" stroke="#000000" points="460,-847.5 460,-853.5 570,-853.5 570,-847.5 460,-847.5"/>
<polygon fill="none" stroke="#000000" points="460,-789.5 460,-847.5 570,-847.5 570,-789.5 460,-789.5"/>
<text text-anchor="start" x="465" y="-836.1" font-family="Verdana" font-size="8.00" fill="#000000">+ __construct()</text>
<text text-anchor="start" x="465" y="-823.1" font-family="Verdana" font-size="8.00" fill="#000000">+ set(id, service) : void</text>
<text text-anchor="start" x="465" y="-810.1" font-family="Verdana" font-size="8.00" fill="#000000">+ get(id)</text>
<text text-anchor="start" x="465" y="-797.1" font-family="Verdana" font-size="8.00" fill="#000000">+ has(id)</text>
</g>
<!-- Psr\\Container\\ContainerInterface -->
<g id="node7" class="node">
<title>Psr\\Container\\ContainerInterface</title>
<polygon fill="#fefece" stroke="transparent" points="563.5,-528 466.5,-528 466.5,-468 563.5,-468 563.5,-528"/>
<polygon fill="#eeeeee" stroke="transparent" points="467,-506 467,-528 564,-528 564,-506 467,-506"/>
<polygon fill="none" stroke="#000000" points="467,-506 467,-528 564,-528 564,-506 467,-506"/>
<text text-anchor="start" x="489.5" y="-519.6" font-family="Verdana" font-weight="bold" font-size="8.00" fill="#000000">«interface»</text>
<text text-anchor="start" x="472" y="-511.6" font-family="Verdana" font-weight="bold" font-size="8.00" fill="#000000">ContainerInterface</text>
<polygon fill="none" stroke="#000000" points="467,-500 467,-506 564,-506 564,-500 467,-500"/>
<polygon fill="none" stroke="#000000" points="467,-468 467,-500 564,-500 564,-468 467,-468"/>
<text text-anchor="start" x="472" y="-488.6" font-family="Verdana" font-size="8.00" fill="#000000">+ «abstract» get(id)</text>
<text text-anchor="start" x="472" y="-475.6" font-family="Verdana" font-size="8.00" fill="#000000">+ «abstract» has(id)</text>
</g>
<!-- Bartlett\\UmlWriter\\Service\\ContainerService&#45;&gt;Psr\\Container\\ContainerInterface -->
<g id="edge3" class="edge">
<title>Bartlett\\UmlWriter\\Service\\ContainerService&#45;&gt;Psr\\Container\\ContainerInterface</title>
<path fill="none" stroke="#000000" stroke-dasharray="5,2" d="M515,-789.4548C515,-724.2677 515,-601.4107 515,-538.0459"/>
<polygon fill="none" stroke="#000000" points="518.5001,-538.0366 515,-528.0367 511.5001,-538.0367 518.5001,-538.0366"/>
</g>
<!-- Bartlett\\UmlWriter\\Console\\Application -->
<g id="node8" class="node">
<title>Bartlett\\UmlWriter\\Console\\Application</title>
<polygon fill="#fefece" stroke="transparent" points="1953.5,-869 1390.5,-869 1390.5,-796 1953.5,-796 1953.5,-869"/>
<polygon fill="#eeeeee" stroke="transparent" points="1391,-846.5 1391,-868.5 1954,-868.5 1954,-846.5 1391,-846.5"/>
<polygon fill="none" stroke="#000000" points="1391,-846.5 1391,-868.5 1954,-868.5 1954,-846.5 1391,-846.5"/>
<text text-anchor="start" x="1645" y="-852.1" font-family="Verdana" font-weight="bold" font-size="8.00" fill="#000000">Application</text>
<polygon fill="none" stroke="#000000" points="1391,-840.5 1391,-846.5 1954,-846.5 1954,-840.5 1391,-840.5"/>
<polygon fill="none" stroke="#000000" points="1391,-795.5 1391,-840.5 1954,-840.5 1954,-795.5 1391,-795.5"/>
<text text-anchor="start" x="1396" y="-829.1" font-family="Verdana" font-size="8.00" fill="#000000">+ __construct(container : Psr\Container\ContainerInterface, version = VERSION)</text>
<text text-anchor="start" x="1396" y="-816.1" font-family="Verdana" font-size="8.00" fill="#000000">+ getHelp()</text>
<text text-anchor="start" x="1396" y="-803.1" font-family="Verdana" font-size="8.00" fill="#000000">+ doRun(input : Symfony\Component\Console\Input\InputInterface, output : Symfony\Component\Console\Output\OutputInterface)</text>
</g>
<!-- Symfony\\Component\\Console\\Application -->
<g id="node9" class="node">
<title>Symfony\\Component\\Console\\Application</title>
<polygon fill="#fefece" stroke="transparent" points="1960,-736 1384,-736 1384,-260 1960,-260 1960,-736"/>
<polygon fill="#eeeeee" stroke="transparent" points="1384,-714 1384,-736 1960,-736 1960,-714 1384,-714"/>
<polygon fill="none" stroke="#000000" points="1384,-714 1384,-736 1960,-736 1960,-714 1384,-714"/>
<text text-anchor="start" x="1644.5" y="-719.6" font-family="Verdana" font-weight="bold" font-size="8.00" fill="#000000">Application</text>
<polygon fill="none" stroke="#000000" points="1384,-708 1384,-714 1960,-714 1960,-708 1384,-708"/>
<polygon fill="none" stroke="#000000" points="1384,-260 1384,-708 1960,-708 1960,-260 1384,-260"/>
<text text-anchor="start" x="1389" y="-696.6" font-family="Verdana" font-size="8.00" fill="#000000">+ __construct(name = , version = )</text>
<text text-anchor="start" x="1389" y="-683.6" font-family="Verdana" font-size="8.00" fill="#000000">+ setDispatcher(dispatcher : \«invalidClass\»)</text>
<text text-anchor="start" x="1389" y="-670.6" font-family="Verdana" font-size="8.00" fill="#000000">+ setCommandLoader(commandLoader : Symfony\Component\Console\CommandLoader\CommandLoaderInterface)</text>
<text text-anchor="start" x="1389" y="-657.6" font-family="Verdana" font-size="8.00" fill="#000000">+ run(input : Symfony\Component\Console\Input\InputInterface = , output : Symfony\Component\Console\Output\OutputInterface = )</text>
<text text-anchor="start" x="1389" y="-644.6" font-family="Verdana" font-size="8.00" fill="#000000">+ doRun(input : Symfony\Component\Console\Input\InputInterface, output : Symfony\Component\Console\Output\OutputInterface)</text>
<text text-anchor="start" x="1389" y="-631.6" font-family="Verdana" font-size="8.00" fill="#000000">+ reset()</text>
<text text-anchor="start" x="1389" y="-618.6" font-family="Verdana" font-size="8.00" fill="#000000">+ setHelperSet(helperSet : Symfony\Component\Console\Helper\HelperSet)</text>
<text text-anchor="start" x="1389" y="-605.6" font-family="Verdana" font-size="8.00" fill="#000000">+ getHelperSet()</text>
<text text-anchor="start" x="1389" y="-592.6" font-family="Verdana" font-size="8.00" fill="#000000">+ setDefinition(definition : Symfony\Component\Console\Input\InputDefinition)</text>
<text text-anchor="start" x="1389" y="-579.6" font-family="Verdana" font-size="8.00" fill="#000000">+ getDefinition()</text>
<text text-anchor="start" x="1389" y="-566.6" font-family="Verdana" font-size="8.00" fill="#000000">+ getHelp()</text>
<text text-anchor="start" x="1389" y="-553.6" font-family="Verdana" font-size="8.00" fill="#000000">+ areExceptionsCaught()</text>
<text text-anchor="start" x="1389" y="-540.6" font-family="Verdana" font-size="8.00" fill="#000000">+ setCatchExceptions(boolean)</text>
<text text-anchor="start" x="1389" y="-527.6" font-family="Verdana" font-size="8.00" fill="#000000">+ isAutoExitEnabled()</text>
<text text-anchor="start" x="1389" y="-514.6" font-family="Verdana" font-size="8.00" fill="#000000">+ setAutoExit(boolean)</text>
<text text-anchor="start" x="1389" y="-501.6" font-family="Verdana" font-size="8.00" fill="#000000">+ getName()</text>
<text text-anchor="start" x="1389" y="-488.6" font-family="Verdana" font-size="8.00" fill="#000000">+ setName(name)</text>
<text text-anchor="start" x="1389" y="-475.6" font-family="Verdana" font-size="8.00" fill="#000000">+ getVersion()</text>
<text text-anchor="start" x="1389" y="-462.6" font-family="Verdana" font-size="8.00" fill="#000000">+ setVersion(version)</text>
<text text-anchor="start" x="1389" y="-449.6" font-family="Verdana" font-size="8.00" fill="#000000">+ getLongVersion()</text>
<text text-anchor="start" x="1389" y="-436.6" font-family="Verdana" font-size="8.00" fill="#000000">+ register(name)</text>
<text text-anchor="start" x="1389" y="-423.6" font-family="Verdana" font-size="8.00" fill="#000000">+ addCommands(commands : mixed)</text>
<text text-anchor="start" x="1389" y="-410.6" font-family="Verdana" font-size="8.00" fill="#000000">+ add(command : Symfony\Component\Console\Command\Command)</text>
<text text-anchor="start" x="1389" y="-397.6" font-family="Verdana" font-size="8.00" fill="#000000">+ get(name)</text>
<text text-anchor="start" x="1389" y="-384.6" font-family="Verdana" font-size="8.00" fill="#000000">+ has(name)</text>
<text text-anchor="start" x="1389" y="-371.6" font-family="Verdana" font-size="8.00" fill="#000000">+ getNamespaces()</text>
<text text-anchor="start" x="1389" y="-358.6" font-family="Verdana" font-size="8.00" fill="#000000">+ findNamespace(namespace)</text>
<text text-anchor="start" x="1389" y="-345.6" font-family="Verdana" font-size="8.00" fill="#000000">+ find(name)</text>
<text text-anchor="start" x="1389" y="-332.6" font-family="Verdana" font-size="8.00" fill="#000000">+ all(namespace = )</text>
<text text-anchor="start" x="1389" y="-319.6" font-family="Verdana" font-size="8.00" fill="#000000">+ «static» getAbbreviations(names)</text>
<text text-anchor="start" x="1389" y="-306.6" font-family="Verdana" font-size="8.00" fill="#000000">+ renderThrowable(e : Throwable, output : Symfony\Component\Console\Output\OutputInterface) : void</text>
<text text-anchor="start" x="1389" y="-293.6" font-family="Verdana" font-size="8.00" fill="#000000">+ extractNamespace(name, limit = )</text>
<text text-anchor="start" x="1389" y="-280.6" font-family="Verdana" font-size="8.00" fill="#000000">+ setDefaultCommand(commandName, isSingleCommand = )</text>
<text text-anchor="start" x="1389" y="-267.6" font-family="Verdana" font-size="8.00" fill="#000000">+ isSingleCommand() : bool</text>
</g>
<!-- Bartlett\\UmlWriter\\Console\\Application&#45;&gt;Symfony\\Component\\Console\\Application -->
<g id="edge5" class="edge">
<title>Bartlett\\UmlWriter\\Console\\Application&#45;&gt;Symfony\\Component\\Console\\Application</title>
<path fill="none" stroke="#000000" d="M1672,-795.7458C1672,-781.8716 1672,-764.8373 1672,-746.0056"/>
<polygon fill="none" stroke="#000000" points="1675.5001,-746.0012 1672,-736.0012 1668.5001,-746.0013 1675.5001,-746.0012"/>
</g>
<!-- Symfony\\Contracts\\Service\\ResetInterface -->
<g id="node10" class="node">
<title>Symfony\\Contracts\\Service\\ResetInterface</title>
<polygon fill="#fefece" stroke="transparent" points="1720,-204.5 1624,-204.5 1624,-157.5 1720,-157.5 1720,-204.5"/>
<polygon fill="#eeeeee" stroke="transparent" points="1624,-182 1624,-204 1720,-204 1720,-182 1624,-182"/>
<polygon fill="none" stroke="#000000" points="1624,-182 1624,-204 1720,-204 1720,-182 1624,-182"/>
<text text-anchor="start" x="1646" y="-195.6" font-family="Verdana" font-weight="bold" font-size="8.00" fill="#000000">«interface»</text>
<text text-anchor="start" x="1638.5" y="-187.6" font-family="Verdana" font-weight="bold" font-size="8.00" fill="#000000">ResetInterface</text>
<polygon fill="none" stroke="#000000" points="1624,-176 1624,-182 1720,-182 1720,-176 1624,-176"/>
<polygon fill="none" stroke="#000000" points="1624,-157 1624,-176 1720,-176 1720,-157 1624,-157"/>
<text text-anchor="start" x="1629" y="-164.6" font-family="Verdana" font-size="8.00" fill="#000000">+ «abstract» reset()</text>
</g>
<!-- Symfony\\Component\\Console\\Application&#45;&gt;Symfony\\Contracts\\Service\\ResetInterface -->
<g id="edge4" class="edge">
<title>Symfony\\Component\\Console\\Application&#45;&gt;Symfony\\Contracts\\Service\\ResetInterface</title>
<path fill="none" stroke="#000000" stroke-dasharray="5,2" d="M1672,-259.7669C1672,-242.8171 1672,-227.5123 1672,-214.9988"/>
<polygon fill="none" stroke="#000000" points="1675.5001,-214.7495 1672,-204.7495 1668.5001,-214.7495 1675.5001,-214.7495"/>
</g>
<!-- Bartlett\\UmlWriter\\Console\\Command\\ClassDiagramCommand -->
<g id="node11" class="node">
<title>Bartlett\\UmlWriter\\Console\\Command\\ClassDiagramCommand</title>
<polygon fill="#fefece" stroke="transparent" points="2638,-856 1978,-856 1978,-809 2638,-809 2638,-856"/>
<polygon fill="#eeeeee" stroke="transparent" points="1978,-833.5 1978,-855.5 2638,-855.5 2638,-833.5 1978,-833.5"/>
<polygon fill="none" stroke="#000000" points="1978,-833.5 1978,-855.5 2638,-855.5 2638,-833.5 1978,-833.5"/>
<text text-anchor="start" x="2253.5" y="-839.1" font-family="Verdana" font-weight="bold" font-size="8.00" fill="#000000">ClassDiagramCommand</text>
<polygon fill="none" stroke="#000000" points="1978,-827.5 1978,-833.5 2638,-833.5 2638,-827.5 1978,-827.5"/>
<polygon fill="none" stroke="#000000" points="1978,-808.5 1978,-827.5 2638,-827.5 2638,-808.5 1978,-808.5"/>
<text text-anchor="start" x="1983" y="-816.1" font-family="Verdana" font-size="8.00" fill="#000000">+ __construct(renderer : Bartlett\UmlWriter\Service\ClassDiagramRenderer, generatorFactory : Bartlett\UmlWriter\Generator\GeneratorFactoryInterface)</text>
</g>
<!-- Symfony\\Component\\Console\\Command\\Command -->
<g id="node12" class="node">
<title>Symfony\\Component\\Console\\Command\\Command</title>
<polygon fill="#fefece" stroke="transparent" points="2583.5,-723 2032.5,-723 2032.5,-273 2583.5,-273 2583.5,-723"/>
<polygon fill="#eeeeee" stroke="transparent" points="2033,-701 2033,-723 2584,-723 2584,-701 2033,-701"/>
<polygon fill="none" stroke="#000000" points="2033,-701 2033,-723 2584,-723 2584,-701 2033,-701"/>
<text text-anchor="start" x="2285.5" y="-706.6" font-family="Verdana" font-weight="bold" font-size="8.00" fill="#000000">Command</text>
<polygon fill="none" stroke="#000000" points="2033,-695 2033,-701 2584,-701 2584,-695 2033,-695"/>
<polygon fill="none" stroke="#000000" points="2033,-273 2033,-695 2584,-695 2584,-273 2033,-273"/>
<text text-anchor="start" x="2038" y="-683.6" font-family="Verdana" font-size="8.00" fill="#000000">+ «static» getDefaultName()</text>
<text text-anchor="start" x="2038" y="-670.6" font-family="Verdana" font-size="8.00" fill="#000000">+ __construct(name : mixed = )</text>
<text text-anchor="start" x="2038" y="-657.6" font-family="Verdana" font-size="8.00" fill="#000000">+ ignoreValidationErrors()</text>
<text text-anchor="start" x="2038" y="-644.6" font-family="Verdana" font-size="8.00" fill="#000000">+ setApplication(application : Symfony\Component\Console\Application = )</text>
<text text-anchor="start" x="2038" y="-631.6" font-family="Verdana" font-size="8.00" fill="#000000">+ setHelperSet(helperSet : Symfony\Component\Console\Helper\HelperSet)</text>
<text text-anchor="start" x="2038" y="-618.6" font-family="Verdana" font-size="8.00" fill="#000000">+ getHelperSet()</text>
<text text-anchor="start" x="2038" y="-605.6" font-family="Verdana" font-size="8.00" fill="#000000">+ getApplication()</text>
<text text-anchor="start" x="2038" y="-592.6" font-family="Verdana" font-size="8.00" fill="#000000">+ isEnabled()</text>
<text text-anchor="start" x="2038" y="-579.6" font-family="Verdana" font-size="8.00" fill="#000000">+ run(input : Symfony\Component\Console\Input\InputInterface, output : Symfony\Component\Console\Output\OutputInterface)</text>
<text text-anchor="start" x="2038" y="-566.6" font-family="Verdana" font-size="8.00" fill="#000000">+ setCode(code : callable)</text>
<text text-anchor="start" x="2038" y="-553.6" font-family="Verdana" font-size="8.00" fill="#000000">+ mergeApplicationDefinition(mergeArgs : bool = )</text>
<text text-anchor="start" x="2038" y="-540.6" font-family="Verdana" font-size="8.00" fill="#000000">+ setDefinition(definition : mixed)</text>
<text text-anchor="start" x="2038" y="-527.6" font-family="Verdana" font-size="8.00" fill="#000000">+ getDefinition()</text>
<text text-anchor="start" x="2038" y="-514.6" font-family="Verdana" font-size="8.00" fill="#000000">+ getNativeDefinition()</text>
<text text-anchor="start" x="2038" y="-501.6" font-family="Verdana" font-size="8.00" fill="#000000">+ addArgument(name, mode = , description = , default = )</text>
<text text-anchor="start" x="2038" y="-488.6" font-family="Verdana" font-size="8.00" fill="#000000">+ addOption(name, shortcut = , mode = , description = , default = )</text>
<text text-anchor="start" x="2038" y="-475.6" font-family="Verdana" font-size="8.00" fill="#000000">+ setName(name)</text>
<text text-anchor="start" x="2038" y="-462.6" font-family="Verdana" font-size="8.00" fill="#000000">+ setProcessTitle(title)</text>
<text text-anchor="start" x="2038" y="-449.6" font-family="Verdana" font-size="8.00" fill="#000000">+ getName()</text>
<text text-anchor="start" x="2038" y="-436.6" font-family="Verdana" font-size="8.00" fill="#000000">+ setHidden(hidden : bool)</text>
<text text-anchor="start" x="2038" y="-423.6" font-family="Verdana" font-size="8.00" fill="#000000">+ isHidden()</text>
<text text-anchor="start" x="2038" y="-410.6" font-family="Verdana" font-size="8.00" fill="#000000">+ setDescription(description)</text>
<text text-anchor="start" x="2038" y="-397.6" font-family="Verdana" font-size="8.00" fill="#000000">+ getDescription()</text>
<text text-anchor="start" x="2038" y="-384.6" font-family="Verdana" font-size="8.00" fill="#000000">+ setHelp(help)</text>
<text text-anchor="start" x="2038" y="-371.6" font-family="Verdana" font-size="8.00" fill="#000000">+ getHelp()</text>
<text text-anchor="start" x="2038" y="-358.6" font-family="Verdana" font-size="8.00" fill="#000000">+ getProcessedHelp()</text>
<text text-anchor="start" x="2038" y="-345.6" font-family="Verdana" font-size="8.00" fill="#000000">+ setAliases(aliases : mixed)</text>
<text text-anchor="start" x="2038" y="-332.6" font-family="Verdana" font-size="8.00" fill="#000000">+ getAliases()</text>
<text text-anchor="start" x="2038" y="-319.6" font-family="Verdana" font-size="8.00" fill="#000000">+ getSynopsis(short : bool = )</text>
<text text-anchor="start" x="2038" y="-306.6" font-family="Verdana" font-size="8.00" fill="#000000">+ addUsage(usage)</text>
<text text-anchor="start" x="2038" y="-293.6" font-family="Verdana" font-size="8.00" fill="#000000">+ getUsages()</text>
<text text-anchor="start" x="2038" y="-280.6" font-family="Verdana" font-size="8.00" fill="#000000">+ getHelper(name)</text>
</g>
<!-- Bartlett\\UmlWriter\\Console\\Command\\ClassDiagramCommand&#45;&gt;Symfony\\Component\\Console\\Command\\Command -->
<g id="edge6" class="edge">
<title>Bartlett\\UmlWriter\\Console\\Command\\ClassDiagramCommand&#45;&gt;Symfony\\Component\\Console\\Command\\Command</title>
<path fill="none" stroke="#000000" d="M2308,-808.9786C2308,-790.9304 2308,-763.9651 2308,-733.3242"/>
<polygon fill="none" stroke="#000000" points="2311.5001,-733.2534 2308,-723.2534 2304.5001,-733.2534 2311.5001,-733.2534"/>
</g>
<!-- Bartlett\\UmlWriter\\Config\\Loader\\YamlFileLoader -->
<g id="node13" class="node">
<title>Bartlett\\UmlWriter\\Config\\Loader\\YamlFileLoader</title>
<polygon fill="#fefece" stroke="transparent" points="2931,-862.5 2793,-862.5 2793,-802.5 2931,-802.5 2931,-862.5"/>
<polygon fill="#eeeeee" stroke="transparent" points="2793,-840.5 2793,-862.5 2931,-862.5 2931,-840.5 2793,-840.5"/>
<polygon fill="none" stroke="#000000" points="2793,-840.5 2793,-862.5 2931,-862.5 2931,-840.5 2793,-840.5"/>
<text text-anchor="start" x="2826.5" y="-846.1" font-family="Verdana" font-weight="bold" font-size="8.00" fill="#000000">YamlFileLoader</text>
<polygon fill="none" stroke="#000000" points="2793,-834.5 2793,-840.5 2931,-840.5 2931,-834.5 2793,-834.5"/>
<polygon fill="none" stroke="#000000" points="2793,-802.5 2793,-834.5 2931,-834.5 2931,-802.5 2793,-802.5"/>
<text text-anchor="start" x="2798" y="-823.1" font-family="Verdana" font-size="8.00" fill="#000000">+ load(resource, type = )</text>
<text text-anchor="start" x="2798" y="-810.1" font-family="Verdana" font-size="8.00" fill="#000000">+ supports(resource, type = )</text>
</g>
<!-- Symfony\\Component\\Config\\Loader\\FileLoader -->
<g id="node14" class="node">
<title>Symfony\\Component\\Config\\Loader\\FileLoader</title>
<polygon fill="#fefece" stroke="transparent" points="3116,-541 2608,-541 2608,-455 3116,-455 3116,-541"/>
<polygon fill="#eeeeee" stroke="transparent" points="2608,-519 2608,-541 3116,-541 3116,-519 2608,-519"/>
<polygon fill="none" stroke="#000000" points="2608,-519 2608,-541 3116,-541 3116,-519 2608,-519"/>
<text text-anchor="start" x="2837.5" y="-532.6" font-family="Verdana" font-weight="bold" font-size="8.00" fill="#000000">«abstract»</text>
<text text-anchor="start" x="2837.5" y="-524.6" font-family="Verdana" font-weight="bold" font-size="8.00" fill="#000000">FileLoader</text>
<polygon fill="none" stroke="#000000" points="2608,-513 2608,-519 3116,-519 3116,-513 2608,-513"/>
<polygon fill="none" stroke="#000000" points="2608,-455 2608,-513 3116,-513 3116,-455 2608,-455"/>
<text text-anchor="start" x="2613" y="-501.6" font-family="Verdana" font-size="8.00" fill="#000000">+ __construct(locator : Symfony\Component\Config\FileLocatorInterface)</text>
<text text-anchor="start" x="2613" y="-488.6" font-family="Verdana" font-size="8.00" fill="#000000">+ setCurrentDir(dir)</text>
<text text-anchor="start" x="2613" y="-475.6" font-family="Verdana" font-size="8.00" fill="#000000">+ getLocator()</text>
<text text-anchor="start" x="2613" y="-462.6" font-family="Verdana" font-size="8.00" fill="#000000">+ import(resource : mixed, type : mixed = , ignoreErrors : bool = , sourceResource : mixed = , exclude : mixed = )</text>
</g>
<!-- Bartlett\\UmlWriter\\Config\\Loader\\YamlFileLoader&#45;&gt;Symfony\\Component\\Config\\Loader\\FileLoader -->
<g id="edge9" class="edge">
<title>Bartlett\\UmlWriter\\Config\\Loader\\YamlFileLoader&#45;&gt;Symfony\\Component\\Config\\Loader\\FileLoader</title>
<path fill="none" stroke="#000000" d="M2862,-802.2254C2862,-745.4343 2862,-622.2612 2862,-551.2908"/>
<polygon fill="none" stroke="#000000" points="2865.5001,-551.2127 2862,-541.2127 2858.5001,-551.2127 2865.5001,-551.2127"/>
</g>
<!-- Symfony\\Component\\Config\\Loader\\Loader -->
<g id="node15" class="node">
<title>Symfony\\Component\\Config\\Loader\\Loader</title>
<polygon fill="#fefece" stroke="transparent" points="3052,-224 2672,-224 2672,-138 3052,-138 3052,-224"/>
<polygon fill="#eeeeee" stroke="transparent" points="2672,-202 2672,-224 3052,-224 3052,-202 2672,-202"/>
<polygon fill="none" stroke="#000000" points="2672,-202 2672,-224 3052,-224 3052,-202 2672,-202"/>
<text text-anchor="start" x="2837.5" y="-215.6" font-family="Verdana" font-weight="bold" font-size="8.00" fill="#000000">«abstract»</text>
<text text-anchor="start" x="2846" y="-207.6" font-family="Verdana" font-weight="bold" font-size="8.00" fill="#000000">Loader</text>
<polygon fill="none" stroke="#000000" points="2672,-196 2672,-202 3052,-202 3052,-196 2672,-196"/>
<polygon fill="none" stroke="#000000" points="2672,-138 2672,-196 3052,-196 3052,-138 2672,-138"/>
<text text-anchor="start" x="2677" y="-184.6" font-family="Verdana" font-size="8.00" fill="#000000">+ getResolver()</text>
<text text-anchor="start" x="2677" y="-171.6" font-family="Verdana" font-size="8.00" fill="#000000">+ setResolver(resolver : Symfony\Component\Config\Loader\LoaderResolverInterface)</text>
<text text-anchor="start" x="2677" y="-158.6" font-family="Verdana" font-size="8.00" fill="#000000">+ import(resource : mixed, type : mixed = )</text>
<text text-anchor="start" x="2677" y="-145.6" font-family="Verdana" font-size="8.00" fill="#000000">+ resolve(resource : mixed, type : mixed = )</text>
</g>
<!-- Symfony\\Component\\Config\\Loader\\FileLoader&#45;&gt;Symfony\\Component\\Config\\Loader\\Loader -->
<g id="edge8" class="edge">
<title>Symfony\\Component\\Config\\Loader\\FileLoader&#45;&gt;Symfony\\Component\\Config\\Loader\\Loader</title>
<path fill="none" stroke="#000000" d="M2862,-454.9181C2862,-397.7085 2862,-296.6827 2862,-234.608"/>
<polygon fill="none" stroke="#000000" points="2865.5001,-234.2417 2862,-224.2418 2858.5001,-234.2418 2865.5001,-234.2417"/>
</g>
<!-- Symfony\\Component\\Config\\Loader\\LoaderInterface -->
<g id="node16" class="node">
<title>Symfony\\Component\\Config\\Loader\\LoaderInterface</title>
<polygon fill="#fefece" stroke="transparent" points="3076,-102 2648,-102 2648,-16 3076,-16 3076,-102"/>
<polygon fill="#eeeeee" stroke="transparent" points="2648,-80 2648,-102 3076,-102 3076,-80 2648,-80"/>
<polygon fill="none" stroke="#000000" points="2648,-80 2648,-102 3076,-102 3076,-80 2648,-80"/>
<text text-anchor="start" x="2836" y="-93.6" font-family="Verdana" font-weight="bold" font-size="8.00" fill="#000000">«interface»</text>
<text text-anchor="start" x="2825.5" y="-85.6" font-family="Verdana" font-weight="bold" font-size="8.00" fill="#000000">LoaderInterface</text>
<polygon fill="none" stroke="#000000" points="2648,-74 2648,-80 3076,-80 3076,-74 2648,-74"/>
<polygon fill="none" stroke="#000000" points="2648,-16 2648,-74 3076,-74 3076,-16 2648,-16"/>
<text text-anchor="start" x="2653" y="-62.6" font-family="Verdana" font-size="8.00" fill="#000000">+ «abstract» load(resource, type = )</text>
<text text-anchor="start" x="2653" y="-49.6" font-family="Verdana" font-size="8.00" fill="#000000">+ «abstract» supports(resource, type = )</text>
<text text-anchor="start" x="2653" y="-36.6" font-family="Verdana" font-size="8.00" fill="#000000">+ «abstract» getResolver()</text>
<text text-anchor="start" x="2653" y="-23.6" font-family="Verdana" font-size="8.00" fill="#000000">+ «abstract» setResolver(resolver : Symfony\Component\Config\Loader\LoaderResolverInterface)</text>
</g>
<!-- Symfony\\Component\\Config\\Loader\\Loader&#45;&gt;Symfony\\Component\\Config\\Loader\\LoaderInterface -->
<g id="edge7" class="edge">
<title>Symfony\\Component\\Config\\Loader\\Loader&#45;&gt;Symfony\\Component\\Config\\Loader\\LoaderInterface</title>
<path fill="none" stroke="#000000" stroke-dasharray="5,2" d="M2862,-137.9874C2862,-129.605 2862,-120.7249 2862,-112.0621"/>
<polygon fill="none" stroke="#000000" points="2865.5001,-112.0354 2862,-102.0354 2858.5001,-112.0355 2865.5001,-112.0354"/>
</g>
</g>
</svg>
