<?xml version="1.0" encoding="UTF-8" standalone="no"?>
<!DOCTYPE svg PUBLIC "-//W3C//DTD SVG 1.1//EN"
 "http://www.w3.org/Graphics/SVG/1.1/DTD/svg11.dtd">
<!-- Generated by graphviz version 2.40.1 (20161225.0304)
 -->
<!-- Title: %3 Pages: 1 -->
<svg width="210pt" height="190pt"
 viewBox="0.00 0.00 210.00 190.00" xmlns="http://www.w3.org/2000/svg" xmlns:xlink="http://www.w3.org/1999/xlink">
<g id="graph0" class="graph" transform="scale(1 1) rotate(0) translate(4 186)">
<title>%3</title>
<polygon fill="#ffffff" stroke="transparent" points="-4,4 -4,-186 206,-186 206,4 -4,4"/>
<!-- Name\\Space\\Bar -->
<g id="node1" class="node">
<title>Name\\Space\\Bar</title>
<polygon fill="#fefece" stroke="transparent" points="192,-47 10,-47 10,0 192,0 192,-47"/>
<polygon fill="#eeeeee" stroke="transparent" points="10,-24.5 10,-46.5 192,-46.5 192,-24.5 10,-24.5"/>
<polygon fill="none" stroke="#000000" points="10,-24.5 10,-46.5 192,-46.5 192,-24.5 10,-24.5"/>
<text text-anchor="start" x="93" y="-30.1" font-family="Verdana" font-weight="bold" font-size="8.00" fill="#000000">Bar</text>
<polygon fill="none" stroke="#000000" points="10,-5.5 10,-24.5 192,-24.5 192,-5.5 10,-5.5"/>
<text text-anchor="start" x="15" y="-13.1" font-family="Verdana" font-size="8.00" fill="#000000"># inheritedProperty = &quot;inheritedDefault&quot;</text>
<polygon fill="none" stroke="#000000" points="10,.5 10,-5.5 192,-5.5 192,.5 10,.5"/>
</g>
<!-- Name\\Space\\Foo -->
<g id="node2" class="node">
<title>Name\\Space\\Foo</title>
<polygon fill="#fefece" stroke="transparent" points="202,-182 0,-182 0,-83 202,-83 202,-182"/>
<polygon fill="#eeeeee" stroke="transparent" points="0,-159.5 0,-181.5 202,-181.5 202,-159.5 0,-159.5"/>
<polygon fill="none" stroke="#000000" points="0,-159.5 0,-181.5 202,-181.5 202,-159.5 0,-159.5"/>
<text text-anchor="start" x="91.5" y="-165.1" font-family="Verdana" font-weight="bold" font-size="8.00" fill="#000000">Foo</text>
<polygon fill="none" stroke="#000000" points="0,-88.5 0,-159.5 202,-159.5 202,-88.5 0,-88.5"/>
<text text-anchor="start" x="5" y="-148.1" font-family="Verdana" font-size="8.00" fill="#000000">+ property = &quot;propertyDefault&quot;</text>
<text text-anchor="start" x="5" y="-135.1" font-family="Verdana" font-size="8.00" fill="#000000">– privateProperty = &quot;privatePropertyDefault&quot;</text>
<text text-anchor="start" x="5" y="-122.1" font-family="Verdana" font-size="8.00" fill="#000000">+ «static» staticProperty = &quot;staticProperty&quot;</text>
<text text-anchor="start" x="5" y="-109.1" font-family="Verdana" font-size="8.00" fill="#000000">+ defaultlessProperty</text>
<text text-anchor="start" x="5" y="-96.1" font-family="Verdana" font-size="8.00" fill="#000000"># «static» defaultName</text>
<polygon fill="none" stroke="#000000" points="0,-82.5 0,-88.5 202,-88.5 202,-82.5 0,-82.5"/>
</g>
<!-- Name\\Space\\Foo&#45;&gt;Name\\Space\\Bar -->
<g id="edge1" class="edge">
<title>Name\\Space\\Foo&#45;&gt;Name\\Space\\Bar</title>
<path fill="none" stroke="#000000" d="M101,-82.7846C101,-74.1176 101,-65.2881 101,-57.1817"/>
<polygon fill="none" stroke="#000000" points="104.5001,-57.0161 101,-47.0161 97.5001,-57.0162 104.5001,-57.0161"/>
</g>
</g>
</svg>
