<?xml version="1.0" encoding="UTF-8" standalone="no"?>
<!DOCTYPE svg PUBLIC "-//W3C//DTD SVG 1.1//EN"
 "http://www.w3.org/Graphics/SVG/1.1/DTD/svg11.dtd">
<!-- Generated by graphviz version 2.43.0 (0)
 -->
<!-- Title: %3 Pages: 1 -->
<svg width="829pt" height="1169pt"
 viewBox="0.00 0.00 829.49 1169.00" xmlns="http://www.w3.org/2000/svg" xmlns:xlink="http://www.w3.org/1999/xlink">
<g id="graph0" class="graph" transform="scale(1 1) rotate(0) translate(4 1165)">
<title>%3</title>
<polygon fill="white" stroke="transparent" points="-4,4 -4,-1165 825.49,-1165 825.49,4 -4,4"/>
<!-- bartlett/umlwriter -->
<g id="node1" class="node">
<title>bartlett/umlwriter</title>
<ellipse fill="lightgrey" stroke="black" stroke-width="2" cx="74.74" cy="-644" rx="74.99" ry="18"/>
<text text-anchor="middle" x="74.74" y="-640.3" font-family="Times,serif" font-size="14.00">bartlett/umlwriter</text>
</g>
<!-- php -->
<g id="node2" class="node">
<title>php</title>
<path fill="#eeeeee" stroke="black" d="M722.99,-578C722.99,-578 692.99,-578 692.99,-578 686.99,-578 680.99,-572 680.99,-566 680.99,-566 680.99,-554 680.99,-554 680.99,-548 686.99,-542 692.99,-542 692.99,-542 722.99,-542 722.99,-542 728.99,-542 734.99,-548 734.99,-554 734.99,-554 734.99,-566 734.99,-566 734.99,-572 728.99,-578 722.99,-578"/>
<text text-anchor="middle" x="707.99" y="-556.3" font-family="Times,serif" font-size="14.00" fill="#314b5f">php</text>
</g>
<!-- bartlett/umlwriter&#45;&gt;php -->
<g id="edge1" class="edge">
<title>bartlett/umlwriter&#45;&gt;php</title>
<path fill="none" stroke="#1a2833" d="M99.76,-626.99C127.21,-608.65 174.21,-580.55 219.49,-569 304.68,-547.28 572.56,-554.88 670.59,-558.52"/>
<polygon fill="#1a2833" stroke="#1a2833" points="670.75,-562.03 680.88,-558.91 671.02,-555.03 670.75,-562.03"/>
<text text-anchor="middle" x="336.99" y="-572" font-family="Times,serif" font-size="10.00" fill="#767676">^8.2</text>
</g>
<!-- bartlett/graph&#45;plantuml&#45;generator -->
<g id="node3" class="node">
<title>bartlett/graph&#45;plantuml&#45;generator</title>
<path fill="#eeeeee" stroke="black" d="M442.49,-993C442.49,-993 231.49,-993 231.49,-993 225.49,-993 219.49,-987 219.49,-981 219.49,-981 219.49,-969 219.49,-969 219.49,-963 225.49,-957 231.49,-957 231.49,-957 442.49,-957 442.49,-957 448.49,-957 454.49,-963 454.49,-969 454.49,-969 454.49,-981 454.49,-981 454.49,-987 448.49,-993 442.49,-993"/>
<text text-anchor="middle" x="336.99" y="-971.3" font-family="Times,serif" font-size="14.00" fill="#314b5f">bartlett/graph&#45;plantuml&#45;generator: 1.6.1</text>
</g>
<!-- bartlett/umlwriter&#45;&gt;bartlett/graph&#45;plantuml&#45;generator -->
<g id="edge7" class="edge">
<title>bartlett/umlwriter&#45;&gt;bartlett/graph&#45;plantuml&#45;generator</title>
<path fill="none" stroke="#1a2833" d="M77.13,-662.09C81.61,-708.52 99.66,-833.29 167.49,-905 188.7,-927.43 218.2,-942.93 246.58,-953.53"/>
<polygon fill="#1a2833" stroke="#1a2833" points="245.56,-956.88 256.15,-956.93 247.91,-950.28 245.56,-956.88"/>
<text text-anchor="middle" x="184.49" y="-932" font-family="Times,serif" font-size="10.00" fill="#767676">^1.6</text>
</g>
<!-- bartlett/graph&#45;uml -->
<g id="node4" class="node">
<title>bartlett/graph&#45;uml</title>
<path fill="#eeeeee" stroke="black" d="M771.99,-1081C771.99,-1081 643.99,-1081 643.99,-1081 637.99,-1081 631.99,-1075 631.99,-1069 631.99,-1069 631.99,-1057 631.99,-1057 631.99,-1051 637.99,-1045 643.99,-1045 643.99,-1045 771.99,-1045 771.99,-1045 777.99,-1045 783.99,-1051 783.99,-1057 783.99,-1057 783.99,-1069 783.99,-1069 783.99,-1075 777.99,-1081 771.99,-1081"/>
<text text-anchor="middle" x="707.99" y="-1059.3" font-family="Times,serif" font-size="14.00" fill="#314b5f">bartlett/graph&#45;uml: 1.6.0</text>
</g>
<!-- bartlett/umlwriter&#45;&gt;bartlett/graph&#45;uml -->
<g id="edge8" class="edge">
<title>bartlett/umlwriter&#45;&gt;bartlett/graph&#45;uml</title>
<path fill="none" stroke="#1a2833" d="M76.19,-662.34C78.81,-724.25 96.81,-925.96 219.49,-1002 343.14,-1078.65 518.44,-1080.24 621.67,-1072.76"/>
<polygon fill="#1a2833" stroke="#1a2833" points="622.03,-1076.25 631.73,-1071.99 621.49,-1069.27 622.03,-1076.25"/>
<text text-anchor="middle" x="336.99" y="-1074" font-family="Times,serif" font-size="10.00" fill="#767676">^1.6</text>
</g>
<!-- graphp/graph -->
<g id="node5" class="node">
<title>graphp/graph</title>
<path fill="#eeeeee" stroke="black" d="M764.99,-957C764.99,-957 650.99,-957 650.99,-957 644.99,-957 638.99,-951 638.99,-945 638.99,-945 638.99,-933 638.99,-933 638.99,-927 644.99,-921 650.99,-921 650.99,-921 764.99,-921 764.99,-921 770.99,-921 776.99,-927 776.99,-933 776.99,-933 776.99,-945 776.99,-945 776.99,-951 770.99,-957 764.99,-957"/>
<text text-anchor="middle" x="707.99" y="-935.3" font-family="Times,serif" font-size="14.00" fill="#314b5f">graphp/graph: 1.x&#45;dev</text>
</g>
<!-- bartlett/umlwriter&#45;&gt;graphp/graph -->
<g id="edge13" class="edge">
<title>bartlett/umlwriter&#45;&gt;graphp/graph</title>
<path fill="none" stroke="#1a2833" d="M81.61,-662.05C96.54,-704.58 140.52,-810.46 219.49,-850 363.03,-921.89 421.42,-863.44 576.49,-905 584.78,-907.22 586.29,-909.44 594.49,-912 605.57,-915.47 617.38,-918.75 629.03,-921.74"/>
<polygon fill="#1a2833" stroke="#1a2833" points="628.21,-925.15 638.76,-924.19 629.92,-918.36 628.21,-925.15"/>
<text text-anchor="middle" x="336.99" y="-891" font-family="Times,serif" font-size="10.00" fill="#767676">1.x&#45;dev#0adb04d as 1.0.0</text>
</g>
<!-- graphp/graphviz -->
<g id="node6" class="node">
<title>graphp/graphviz</title>
<path fill="#eeeeee" stroke="black" d="M773.49,-1143C773.49,-1143 642.49,-1143 642.49,-1143 636.49,-1143 630.49,-1137 630.49,-1131 630.49,-1131 630.49,-1119 630.49,-1119 630.49,-1113 636.49,-1107 642.49,-1107 642.49,-1107 773.49,-1107 773.49,-1107 779.49,-1107 785.49,-1113 785.49,-1119 785.49,-1119 785.49,-1131 785.49,-1131 785.49,-1137 779.49,-1143 773.49,-1143"/>
<text text-anchor="middle" x="707.99" y="-1121.3" font-family="Times,serif" font-size="14.00" fill="#314b5f">graphp/graphviz: 1.x&#45;dev</text>
</g>
<!-- bartlett/umlwriter&#45;&gt;graphp/graphviz -->
<g id="edge14" class="edge">
<title>bartlett/umlwriter&#45;&gt;graphp/graphviz</title>
<path fill="none" stroke="#1a2833" d="M78.63,-662.18C91.3,-739.17 144.57,-1036.54 219.49,-1086 340.18,-1165.68 516.07,-1156.59 620.29,-1141.59"/>
<polygon fill="#1a2833" stroke="#1a2833" points="621.08,-1145.01 630.46,-1140.07 620.05,-1138.09 621.08,-1145.01"/>
<text text-anchor="middle" x="336.99" y="-1153" font-family="Times,serif" font-size="10.00" fill="#767676">1.x&#45;dev#686f747 as 1.0.0</text>
</g>
<!-- composer&#45;runtime&#45;api -->
<g id="node8" class="node">
<title>composer&#45;runtime&#45;api</title>
<path fill="#eeeeee" stroke="black" d="M393.49,-787C393.49,-787 280.49,-787 280.49,-787 274.49,-787 268.49,-781 268.49,-775 268.49,-775 268.49,-763 268.49,-763 268.49,-757 274.49,-751 280.49,-751 280.49,-751 393.49,-751 393.49,-751 399.49,-751 405.49,-757 405.49,-763 405.49,-763 405.49,-775 405.49,-775 405.49,-781 399.49,-787 393.49,-787"/>
<text text-anchor="middle" x="336.99" y="-765.3" font-family="Times,serif" font-size="14.00" fill="#314b5f">composer&#45;runtime&#45;api</text>
</g>
<!-- bartlett/umlwriter&#45;&gt;composer&#45;runtime&#45;api -->
<g id="edge9" class="edge">
<title>bartlett/umlwriter&#45;&gt;composer&#45;runtime&#45;api</title>
<path fill="none" stroke="#1a2833" d="M96.18,-661.61C122.81,-683.64 171.63,-721.03 219.49,-742 231.68,-747.35 245.08,-751.71 258.32,-755.24"/>
<polygon fill="#1a2833" stroke="#1a2833" points="257.83,-758.73 268.38,-757.79 259.55,-751.94 257.83,-758.73"/>
<text text-anchor="middle" x="184.49" y="-734" font-family="Times,serif" font-size="10.00" fill="#767676">^2.0</text>
</g>
<!-- cweagans/composer&#45;patches -->
<g id="node9" class="node">
<title>cweagans/composer&#45;patches</title>
<path fill="#eeeeee" stroke="black" d="M427.49,-679C427.49,-679 246.49,-679 246.49,-679 240.49,-679 234.49,-673 234.49,-667 234.49,-667 234.49,-655 234.49,-655 234.49,-649 240.49,-643 246.49,-643 246.49,-643 427.49,-643 427.49,-643 433.49,-643 439.49,-649 439.49,-655 439.49,-655 439.49,-667 439.49,-667 439.49,-673 433.49,-679 427.49,-679"/>
<text text-anchor="middle" x="336.99" y="-657.3" font-family="Times,serif" font-size="14.00" fill="#314b5f">cweagans/composer&#45;patches: 1.7.3</text>
</g>
<!-- bartlett/umlwriter&#45;&gt;cweagans/composer&#45;patches -->
<g id="edge12" class="edge">
<title>bartlett/umlwriter&#45;&gt;cweagans/composer&#45;patches</title>
<path fill="none" stroke="#1a2833" d="M147.2,-648.67C170.98,-650.22 198.06,-651.99 224.15,-653.69"/>
<polygon fill="#1a2833" stroke="#1a2833" points="224.26,-657.21 234.47,-654.37 224.72,-650.22 224.26,-657.21"/>
<text text-anchor="middle" x="184.49" y="-654" font-family="Times,serif" font-size="10.00" fill="#767676">^1.7</text>
</g>
<!-- psr/container -->
<g id="node11" class="node">
<title>psr/container</title>
<path fill="#eeeeee" stroke="black" d="M385.99,-625C385.99,-625 287.99,-625 287.99,-625 281.99,-625 275.99,-619 275.99,-613 275.99,-613 275.99,-601 275.99,-601 275.99,-595 281.99,-589 287.99,-589 287.99,-589 385.99,-589 385.99,-589 391.99,-589 397.99,-595 397.99,-601 397.99,-601 397.99,-613 397.99,-613 397.99,-619 391.99,-625 385.99,-625"/>
<text text-anchor="middle" x="336.99" y="-603.3" font-family="Times,serif" font-size="14.00" fill="#314b5f">psr/container: 2.0.2</text>
</g>
<!-- bartlett/umlwriter&#45;&gt;psr/container -->
<g id="edge16" class="edge">
<title>bartlett/umlwriter&#45;&gt;psr/container</title>
<path fill="none" stroke="#1a2833" d="M139.41,-634.95C177.61,-629.52 226.27,-622.6 265.61,-617.01"/>
<polygon fill="#1a2833" stroke="#1a2833" points="266.26,-620.45 275.66,-615.58 265.27,-613.52 266.26,-620.45"/>
<text text-anchor="middle" x="184.49" y="-632" font-family="Times,serif" font-size="10.00" fill="#767676">^2.0</text>
</g>
<!-- roave/better&#45;reflection -->
<g id="node12" class="node">
<title>roave/better&#45;reflection</title>
<path fill="#eeeeee" stroke="black" d="M414.49,-841C414.49,-841 259.49,-841 259.49,-841 253.49,-841 247.49,-835 247.49,-829 247.49,-829 247.49,-817 247.49,-817 247.49,-811 253.49,-805 259.49,-805 259.49,-805 414.49,-805 414.49,-805 420.49,-805 426.49,-811 426.49,-817 426.49,-817 426.49,-829 426.49,-829 426.49,-835 420.49,-841 414.49,-841"/>
<text text-anchor="middle" x="336.99" y="-819.3" font-family="Times,serif" font-size="14.00" fill="#314b5f">roave/better&#45;reflection: 6.59.0</text>
</g>
<!-- bartlett/umlwriter&#45;&gt;roave/better&#45;reflection -->
<g id="edge21" class="edge">
<title>bartlett/umlwriter&#45;&gt;roave/better&#45;reflection</title>
<path fill="none" stroke="#1a2833" d="M86.88,-661.77C108.24,-694.24 158.34,-762.85 219.49,-796 225.31,-799.16 231.5,-801.95 237.86,-804.41"/>
<polygon fill="#1a2833" stroke="#1a2833" points="236.69,-807.71 247.28,-807.8 239.05,-801.12 236.69,-807.71"/>
<text text-anchor="middle" x="184.49" y="-787" font-family="Times,serif" font-size="10.00" fill="#767676">^6.0</text>
</g>
<!-- symfony/config -->
<g id="node16" class="node">
<title>symfony/config</title>
<path fill="#eeeeee" stroke="black" d="M396.99,-356C396.99,-356 276.99,-356 276.99,-356 270.99,-356 264.99,-350 264.99,-344 264.99,-344 264.99,-332 264.99,-332 264.99,-326 270.99,-320 276.99,-320 276.99,-320 396.99,-320 396.99,-320 402.99,-320 408.99,-326 408.99,-332 408.99,-332 408.99,-344 408.99,-344 408.99,-350 402.99,-356 396.99,-356"/>
<text text-anchor="middle" x="336.99" y="-334.3" font-family="Times,serif" font-size="14.00" fill="#314b5f">symfony/config: v7.3.0</text>
</g>
<!-- bartlett/umlwriter&#45;&gt;symfony/config -->
<g id="edge26" class="edge">
<title>bartlett/umlwriter&#45;&gt;symfony/config</title>
<path fill="none" stroke="#1a2833" d="M80.42,-625.95C91.27,-586.26 120.83,-489.4 167.49,-420 185.55,-393.14 191.36,-385.03 219.49,-369 230.39,-362.79 242.58,-357.78 254.85,-353.76"/>
<polygon fill="#1a2833" stroke="#1a2833" points="256.16,-357.03 264.69,-350.75 254.1,-350.33 256.16,-357.03"/>
<text text-anchor="middle" x="184.49" y="-423" font-family="Times,serif" font-size="10.00" fill="#767676">^7.0</text>
</g>
<!-- symfony/console -->
<g id="node20" class="node">
<title>symfony/console</title>
<path fill="#eeeeee" stroke="black" d="M400.99,-195C400.99,-195 272.99,-195 272.99,-195 266.99,-195 260.99,-189 260.99,-183 260.99,-183 260.99,-171 260.99,-171 260.99,-165 266.99,-159 272.99,-159 272.99,-159 400.99,-159 400.99,-159 406.99,-159 412.99,-165 412.99,-171 412.99,-171 412.99,-183 412.99,-183 412.99,-189 406.99,-195 400.99,-195"/>
<text text-anchor="middle" x="336.99" y="-173.3" font-family="Times,serif" font-size="14.00" fill="#314b5f">symfony/console: v7.3.1</text>
</g>
<!-- bartlett/umlwriter&#45;&gt;symfony/console -->
<g id="edge32" class="edge">
<title>bartlett/umlwriter&#45;&gt;symfony/console</title>
<path fill="none" stroke="#1a2833" d="M77.27,-625.88C82.4,-573.13 102.52,-416.52 167.49,-307 196.11,-258.75 250.05,-222.01 289.21,-200.09"/>
<polygon fill="#1a2833" stroke="#1a2833" points="291.23,-202.98 298.32,-195.11 287.87,-196.84 291.23,-202.98"/>
<text text-anchor="middle" x="184.49" y="-310" font-family="Times,serif" font-size="10.00" fill="#767676">^7.0</text>
</g>
<!-- symfony/finder -->
<g id="node24" class="node">
<title>symfony/finder</title>
<path fill="#eeeeee" stroke="black" d="M396.49,-524C396.49,-524 277.49,-524 277.49,-524 271.49,-524 265.49,-518 265.49,-512 265.49,-512 265.49,-500 265.49,-500 265.49,-494 271.49,-488 277.49,-488 277.49,-488 396.49,-488 396.49,-488 402.49,-488 408.49,-494 408.49,-500 408.49,-500 408.49,-512 408.49,-512 408.49,-518 402.49,-524 396.49,-524"/>
<text text-anchor="middle" x="336.99" y="-502.3" font-family="Times,serif" font-size="14.00" fill="#314b5f">symfony/finder: v7.3.0</text>
</g>
<!-- bartlett/umlwriter&#45;&gt;symfony/finder -->
<g id="edge34" class="edge">
<title>bartlett/umlwriter&#45;&gt;symfony/finder</title>
<path fill="none" stroke="#1a2833" d="M85.47,-625.91C99.86,-601.05 129.3,-556.91 167.49,-535 193.86,-519.87 226.1,-512.21 255.29,-508.46"/>
<polygon fill="#1a2833" stroke="#1a2833" points="255.94,-511.9 265.48,-507.29 255.14,-504.95 255.94,-511.9"/>
<text text-anchor="middle" x="184.49" y="-538" font-family="Times,serif" font-size="10.00" fill="#767676">^7.0</text>
</g>
<!-- symfony/options&#45;resolver -->
<g id="node25" class="node">
<title>symfony/options&#45;resolver</title>
<path fill="#eeeeee" stroke="black" d="M423.99,-470C423.99,-470 249.99,-470 249.99,-470 243.99,-470 237.99,-464 237.99,-458 237.99,-458 237.99,-446 237.99,-446 237.99,-440 243.99,-434 249.99,-434 249.99,-434 423.99,-434 423.99,-434 429.99,-434 435.99,-440 435.99,-446 435.99,-446 435.99,-458 435.99,-458 435.99,-464 429.99,-470 423.99,-470"/>
<text text-anchor="middle" x="336.99" y="-448.3" font-family="Times,serif" font-size="14.00" fill="#314b5f">symfony/options&#45;resolver: v7.3.0</text>
</g>
<!-- bartlett/umlwriter&#45;&gt;symfony/options&#45;resolver -->
<g id="edge37" class="edge">
<title>bartlett/umlwriter&#45;&gt;symfony/options&#45;resolver</title>
<path fill="none" stroke="#1a2833" d="M83.76,-626.05C97.38,-597.28 127.47,-540.49 167.49,-505 184.67,-489.76 206.23,-478.9 228.13,-471.16"/>
<polygon fill="#1a2833" stroke="#1a2833" points="229.48,-474.4 237.86,-467.92 227.27,-467.76 229.48,-474.4"/>
<text text-anchor="middle" x="184.49" y="-508" font-family="Times,serif" font-size="10.00" fill="#767676">^7.0</text>
</g>
<!-- symfony/yaml -->
<g id="node26" class="node">
<title>symfony/yaml</title>
<path fill="#eeeeee" stroke="black" d="M393.99,-414C393.99,-414 279.99,-414 279.99,-414 273.99,-414 267.99,-408 267.99,-402 267.99,-402 267.99,-390 267.99,-390 267.99,-384 273.99,-378 279.99,-378 279.99,-378 393.99,-378 393.99,-378 399.99,-378 405.99,-384 405.99,-390 405.99,-390 405.99,-402 405.99,-402 405.99,-408 399.99,-414 393.99,-414"/>
<text text-anchor="middle" x="336.99" y="-392.3" font-family="Times,serif" font-size="14.00" fill="#314b5f">symfony/yaml: v7.3.1</text>
</g>
<!-- bartlett/umlwriter&#45;&gt;symfony/yaml -->
<g id="edge41" class="edge">
<title>bartlett/umlwriter&#45;&gt;symfony/yaml</title>
<path fill="none" stroke="#1a2833" d="M82.38,-625.88C95.24,-592.34 125.99,-519.3 167.49,-468 186.35,-444.68 192.71,-438.51 219.49,-425 231.54,-418.92 244.95,-414.05 258.26,-410.19"/>
<polygon fill="#1a2833" stroke="#1a2833" points="259.2,-413.56 267.92,-407.54 257.35,-406.81 259.2,-413.56"/>
<text text-anchor="middle" x="184.49" y="-471" font-family="Times,serif" font-size="10.00" fill="#767676">^7.0</text>
</g>
<!-- jawira/plantuml -->
<g id="node27" class="node">
<title>jawira/plantuml</title>
<path fill="#eeeeee" stroke="black" d="M407.49,-302C407.49,-302 266.49,-302 266.49,-302 260.49,-302 254.49,-296 254.49,-290 254.49,-290 254.49,-278 254.49,-278 254.49,-272 260.49,-266 266.49,-266 266.49,-266 407.49,-266 407.49,-266 413.49,-266 419.49,-272 419.49,-278 419.49,-278 419.49,-290 419.49,-290 419.49,-296 413.49,-302 407.49,-302"/>
<text text-anchor="middle" x="336.99" y="-280.3" font-family="Times,serif" font-size="14.00" fill="#314b5f">jawira/plantuml: v1.2025.4</text>
</g>
<!-- bartlett/umlwriter&#45;&gt;jawira/plantuml -->
<g id="edge42" class="edge">
<title>bartlett/umlwriter&#45;&gt;jawira/plantuml</title>
<path fill="none" stroke="#1a2833" stroke-dasharray="5,2" d="M78.79,-625.85C87.17,-579.59 113.56,-454.54 167.49,-365 184.68,-336.46 190.51,-327.44 219.49,-311 227.38,-306.52 235.97,-302.79 244.79,-299.67"/>
<polygon fill="#1a2833" stroke="#1a2833" points="246.01,-302.96 254.43,-296.53 243.84,-296.3 246.01,-302.96"/>
<text text-anchor="middle" x="184.49" y="-368" font-family="Times,serif" font-size="10.00" fill="#767676">^1.2025</text>
</g>
<!-- bamarni/composer&#45;bin&#45;plugin -->
<g id="node28" class="node">
<title>bamarni/composer&#45;bin&#45;plugin</title>
<path fill="#eeeeee" stroke="black" d="M431.99,-733C431.99,-733 241.99,-733 241.99,-733 235.99,-733 229.99,-727 229.99,-721 229.99,-721 229.99,-709 229.99,-709 229.99,-703 235.99,-697 241.99,-697 241.99,-697 431.99,-697 431.99,-697 437.99,-697 443.99,-703 443.99,-709 443.99,-709 443.99,-721 443.99,-721 443.99,-727 437.99,-733 431.99,-733"/>
<text text-anchor="middle" x="336.99" y="-711.3" font-family="Times,serif" font-size="14.00" fill="#314b5f">bamarni/composer&#45;bin&#45;plugin: 1.8.2</text>
</g>
<!-- bartlett/umlwriter&#45;&gt;bamarni/composer&#45;bin&#45;plugin -->
<g id="edge45" class="edge">
<title>bartlett/umlwriter&#45;&gt;bamarni/composer&#45;bin&#45;plugin</title>
<path fill="none" stroke="#1a2833" stroke-dasharray="5,2" d="M119.87,-658.37C148.19,-667.39 185.84,-678.96 219.49,-688 227.79,-690.23 236.46,-692.45 245.15,-694.59"/>
<polygon fill="#1a2833" stroke="#1a2833" points="244.42,-698.02 254.96,-696.98 246.07,-691.21 244.42,-698.02"/>
<text text-anchor="middle" x="184.49" y="-685" font-family="Times,serif" font-size="10.00" fill="#767676">^1.8</text>
</g>
<!-- bartlett/graph&#45;plantuml&#45;generator&#45;&gt;php -->
<g id="edge6" class="edge">
<title>bartlett/graph&#45;plantuml&#45;generator&#45;&gt;php</title>
<path fill="none" stroke="#1a2833" d="M400.92,-956.91C463.97,-937.45 554.71,-905.34 576.49,-876 600.45,-843.72 579,-733.1 594.49,-696 613.07,-651.47 651.35,-610.27 678.07,-585.15"/>
<polygon fill="#1a2833" stroke="#1a2833" points="680.64,-587.54 685.62,-578.19 675.89,-582.4 680.64,-587.54"/>
<text text-anchor="middle" x="524.49" y="-933" font-family="Times,serif" font-size="10.00" fill="#767676">^8.1</text>
</g>
<!-- bartlett/graph&#45;plantuml&#45;generator&#45;&gt;bartlett/graph&#45;uml -->
<g id="edge2" class="edge">
<title>bartlett/graph&#45;plantuml&#45;generator&#45;&gt;bartlett/graph&#45;uml</title>
<path fill="none" stroke="#1a2833" d="M426.04,-993C471.16,-1002.53 526.91,-1014.77 576.49,-1027 595.33,-1031.65 615.61,-1037.05 634.42,-1042.23"/>
<polygon fill="#1a2833" stroke="#1a2833" points="633.54,-1045.61 644.11,-1044.91 635.41,-1038.87 633.54,-1045.61"/>
<text text-anchor="middle" x="524.49" y="-1030" font-family="Times,serif" font-size="10.00" fill="#767676">^1.6</text>
</g>
<!-- bartlett/graph&#45;plantuml&#45;generator&#45;&gt;graphp/graph -->
<g id="edge3" class="edge">
<title>bartlett/graph&#45;plantuml&#45;generator&#45;&gt;graphp/graph</title>
<path fill="none" stroke="#1a2833" d="M454.49,-963.63C511.29,-958.09 578.1,-951.57 628.72,-946.64"/>
<polygon fill="#1a2833" stroke="#1a2833" points="629.33,-950.09 638.94,-945.64 628.65,-943.13 629.33,-950.09"/>
<text text-anchor="middle" x="524.49" y="-964" font-family="Times,serif" font-size="10.00" fill="#767676">1.x&#45;dev#0adb04d as 1.0.0</text>
</g>
<!-- bartlett/graph&#45;plantuml&#45;generator&#45;&gt;graphp/graphviz -->
<g id="edge4" class="edge">
<title>bartlett/graph&#45;plantuml&#45;generator&#45;&gt;graphp/graphviz</title>
<path fill="none" stroke="#1a2833" d="M374.28,-993.2C423.38,-1017.37 514.1,-1060.45 594.49,-1090 607.54,-1094.8 621.6,-1099.52 635.2,-1103.86"/>
<polygon fill="#1a2833" stroke="#1a2833" points="634.42,-1107.28 645.01,-1106.95 636.52,-1100.61 634.42,-1107.28"/>
<text text-anchor="middle" x="524.49" y="-1084" font-family="Times,serif" font-size="10.00" fill="#767676">1.x&#45;dev#686f747 as 1.0.0</text>
</g>
<!-- jawira/plantuml&#45;encoding -->
<g id="node7" class="node">
<title>jawira/plantuml&#45;encoding</title>
<path fill="#eeeeee" stroke="black" d="M795.49,-1011C795.49,-1011 620.49,-1011 620.49,-1011 614.49,-1011 608.49,-1005 608.49,-999 608.49,-999 608.49,-987 608.49,-987 608.49,-981 614.49,-975 620.49,-975 620.49,-975 795.49,-975 795.49,-975 801.49,-975 807.49,-981 807.49,-987 807.49,-987 807.49,-999 807.49,-999 807.49,-1005 801.49,-1011 795.49,-1011"/>
<text text-anchor="middle" x="707.99" y="-989.3" font-family="Times,serif" font-size="14.00" fill="#314b5f">jawira/plantuml&#45;encoding: v1.1.1</text>
</g>
<!-- bartlett/graph&#45;plantuml&#45;generator&#45;&gt;jawira/plantuml&#45;encoding -->
<g id="edge5" class="edge">
<title>bartlett/graph&#45;plantuml&#45;generator&#45;&gt;jawira/plantuml&#45;encoding</title>
<path fill="none" stroke="#1a2833" d="M454.49,-980.68C500.43,-982.92 552.92,-985.48 598.09,-987.69"/>
<polygon fill="#1a2833" stroke="#1a2833" points="598.05,-991.19 608.21,-988.18 598.39,-984.2 598.05,-991.19"/>
<text text-anchor="middle" x="524.49" y="-989" font-family="Times,serif" font-size="10.00" fill="#767676">^1.0</text>
</g>
<!-- cweagans/composer&#45;patches&#45;&gt;php -->
<g id="edge11" class="edge">
<title>cweagans/composer&#45;patches&#45;&gt;php</title>
<path fill="none" stroke="#1a2833" d="M420.34,-642.93C431.85,-640.11 443.5,-637.1 454.49,-634 462.6,-631.71 464.37,-630.28 472.49,-628 518.15,-615.15 530.85,-616.93 576.49,-604 608.92,-594.81 645.21,-582.4 671.27,-573.1"/>
<polygon fill="#1a2833" stroke="#1a2833" points="672.5,-576.38 680.73,-569.7 670.14,-569.79 672.5,-576.38"/>
<text text-anchor="middle" x="524.49" y="-631" font-family="Times,serif" font-size="10.00" fill="#767676">&gt;=5.3.0</text>
</g>
<!-- composer&#45;plugin&#45;api -->
<g id="node10" class="node">
<title>composer&#45;plugin&#45;api</title>
<path fill="#eeeeee" stroke="black" d="M759.99,-741C759.99,-741 655.99,-741 655.99,-741 649.99,-741 643.99,-735 643.99,-729 643.99,-729 643.99,-717 643.99,-717 643.99,-711 649.99,-705 655.99,-705 655.99,-705 759.99,-705 759.99,-705 765.99,-705 771.99,-711 771.99,-717 771.99,-717 771.99,-729 771.99,-729 771.99,-735 765.99,-741 759.99,-741"/>
<text text-anchor="middle" x="707.99" y="-719.3" font-family="Times,serif" font-size="14.00" fill="#314b5f">composer&#45;plugin&#45;api</text>
</g>
<!-- cweagans/composer&#45;patches&#45;&gt;composer&#45;plugin&#45;api -->
<g id="edge10" class="edge">
<title>cweagans/composer&#45;patches&#45;&gt;composer&#45;plugin&#45;api</title>
<path fill="none" stroke="#1a2833" d="M435.64,-679.02C442.19,-681.62 448.54,-684.6 454.49,-688 464.58,-693.78 461.96,-702.04 472.49,-707 500.13,-720.02 575.68,-723.28 633.63,-723.75"/>
<polygon fill="#1a2833" stroke="#1a2833" points="633.84,-727.25 643.86,-723.8 633.88,-720.25 633.84,-727.25"/>
<text text-anchor="middle" x="524.49" y="-725" font-family="Times,serif" font-size="10.00" fill="#767676">^1.0 || ^2.0</text>
</g>
<!-- psr/container&#45;&gt;php -->
<g id="edge15" class="edge">
<title>psr/container&#45;&gt;php</title>
<path fill="none" stroke="#1a2833" d="M398.09,-599.34C475.47,-589.49 607.5,-572.67 670.91,-564.6"/>
<polygon fill="#1a2833" stroke="#1a2833" points="671.36,-568.07 680.84,-563.33 670.48,-561.12 671.36,-568.07"/>
<text text-anchor="middle" x="524.49" y="-592" font-family="Times,serif" font-size="10.00" fill="#767676">&gt;=7.4.0</text>
</g>
<!-- roave/better&#45;reflection&#45;&gt;php -->
<g id="edge20" class="edge">
<title>roave/better&#45;reflection&#45;&gt;php</title>
<path fill="none" stroke="#1a2833" d="M426.71,-814.29C437.13,-810.04 446.77,-804.14 454.49,-796 486.16,-762.6 440.34,-726.95 472.49,-694 505.42,-660.25 534.16,-693.78 576.49,-673 620.13,-651.57 660.86,-611.93 684.85,-585.76"/>
<polygon fill="#1a2833" stroke="#1a2833" points="687.65,-587.88 691.74,-578.1 682.45,-583.19 687.65,-587.88"/>
<text text-anchor="middle" x="524.49" y="-697" font-family="Times,serif" font-size="10.00" fill="#767676">~8.2.0 || ~8.3.2 || ~8.4.1</text>
</g>
<!-- ext&#45;json -->
<g id="node13" class="node">
<title>ext&#45;json</title>
<path fill="#eeeeee" stroke="black" d="M725.99,-849C725.99,-849 689.99,-849 689.99,-849 683.99,-849 677.99,-843 677.99,-837 677.99,-837 677.99,-825 677.99,-825 677.99,-819 683.99,-813 689.99,-813 689.99,-813 725.99,-813 725.99,-813 731.99,-813 737.99,-819 737.99,-825 737.99,-825 737.99,-837 737.99,-837 737.99,-843 731.99,-849 725.99,-849"/>
<text text-anchor="middle" x="707.99" y="-827.3" font-family="Times,serif" font-size="14.00" fill="#314b5f">ext&#45;json</text>
</g>
<!-- roave/better&#45;reflection&#45;&gt;ext&#45;json -->
<g id="edge17" class="edge">
<title>roave/better&#45;reflection&#45;&gt;ext&#45;json</title>
<path fill="none" stroke="#1a2833" d="M426.84,-824.93C503.53,-826.59 610.7,-828.91 667.69,-830.15"/>
<polygon fill="#1a2833" stroke="#1a2833" points="667.66,-833.65 677.73,-830.37 667.81,-826.65 667.66,-833.65"/>
<text text-anchor="middle" x="524.49" y="-830" font-family="Times,serif" font-size="10.00" fill="#767676">*</text>
</g>
<!-- jetbrains/phpstorm&#45;stubs -->
<g id="node14" class="node">
<title>jetbrains/phpstorm&#45;stubs</title>
<path fill="#eeeeee" stroke="black" d="M797.49,-795C797.49,-795 618.49,-795 618.49,-795 612.49,-795 606.49,-789 606.49,-783 606.49,-783 606.49,-771 606.49,-771 606.49,-765 612.49,-759 618.49,-759 618.49,-759 797.49,-759 797.49,-759 803.49,-759 809.49,-765 809.49,-771 809.49,-771 809.49,-783 809.49,-783 809.49,-789 803.49,-795 797.49,-795"/>
<text text-anchor="middle" x="707.99" y="-773.3" font-family="Times,serif" font-size="14.00" fill="#314b5f">jetbrains/phpstorm&#45;stubs: v2024.3</text>
</g>
<!-- roave/better&#45;reflection&#45;&gt;jetbrains/phpstorm&#45;stubs -->
<g id="edge18" class="edge">
<title>roave/better&#45;reflection&#45;&gt;jetbrains/phpstorm&#45;stubs</title>
<path fill="none" stroke="#1a2833" d="M426.84,-811.92C477.73,-805.58 542.05,-797.56 596.21,-790.81"/>
<polygon fill="#1a2833" stroke="#1a2833" points="596.71,-794.27 606.2,-789.56 595.85,-787.33 596.71,-794.27"/>
<text text-anchor="middle" x="524.49" y="-808" font-family="Times,serif" font-size="10.00" fill="#767676">2024.3</text>
</g>
<!-- nikic/php&#45;parser -->
<g id="node15" class="node">
<title>nikic/php&#45;parser</title>
<path fill="#eeeeee" stroke="black" d="M769.99,-903C769.99,-903 645.99,-903 645.99,-903 639.99,-903 633.99,-897 633.99,-891 633.99,-891 633.99,-879 633.99,-879 633.99,-873 639.99,-867 645.99,-867 645.99,-867 769.99,-867 769.99,-867 775.99,-867 781.99,-873 781.99,-879 781.99,-879 781.99,-891 781.99,-891 781.99,-897 775.99,-903 769.99,-903"/>
<text text-anchor="middle" x="707.99" y="-881.3" font-family="Times,serif" font-size="14.00" fill="#314b5f">nikic/php&#45;parser: v5.5.0</text>
</g>
<!-- roave/better&#45;reflection&#45;&gt;nikic/php&#45;parser -->
<g id="edge19" class="edge">
<title>roave/better&#45;reflection&#45;&gt;nikic/php&#45;parser</title>
<path fill="none" stroke="#1a2833" d="M426.84,-837.93C486.71,-847.99 565.16,-861.17 623.81,-871.02"/>
<polygon fill="#1a2833" stroke="#1a2833" points="623.34,-874.49 633.78,-872.7 624.5,-867.59 623.34,-874.49"/>
<text text-anchor="middle" x="524.49" y="-864" font-family="Times,serif" font-size="10.00" fill="#767676">^5.4.0</text>
</g>
<!-- symfony/config&#45;&gt;php -->
<g id="edge22" class="edge">
<title>symfony/config&#45;&gt;php</title>
<path fill="none" stroke="#1a2833" d="M409.2,-355.61C424.25,-359.7 439.96,-364.26 454.49,-369 462.65,-371.66 464.25,-373.59 472.49,-376 517.74,-389.26 536.22,-372.45 576.49,-397 631.32,-430.43 672.76,-495.66 693.08,-532.66"/>
<polygon fill="#1a2833" stroke="#1a2833" points="690.21,-534.7 698.02,-541.86 696.38,-531.39 690.21,-534.7"/>
<text text-anchor="middle" x="524.49" y="-400" font-family="Times,serif" font-size="10.00" fill="#767676">&gt;=8.2</text>
</g>
<!-- symfony/deprecation&#45;contracts -->
<g id="node17" class="node">
<title>symfony/deprecation&#45;contracts</title>
<path fill="#eeeeee" stroke="black" d="M809.49,-327C809.49,-327 606.49,-327 606.49,-327 600.49,-327 594.49,-321 594.49,-315 594.49,-315 594.49,-303 594.49,-303 594.49,-297 600.49,-291 606.49,-291 606.49,-291 809.49,-291 809.49,-291 815.49,-291 821.49,-297 821.49,-303 821.49,-303 821.49,-315 821.49,-315 821.49,-321 815.49,-327 809.49,-327"/>
<text text-anchor="middle" x="707.99" y="-305.3" font-family="Times,serif" font-size="14.00" fill="#314b5f">symfony/deprecation&#45;contracts: v3.6.0</text>
</g>
<!-- symfony/config&#45;&gt;symfony/deprecation&#45;contracts -->
<g id="edge23" class="edge">
<title>symfony/config&#45;&gt;symfony/deprecation&#45;contracts</title>
<path fill="none" stroke="#1a2833" d="M409.15,-332.94C425.54,-328.86 441.84,-322.09 454.49,-311 471.62,-295.98 453.76,-275.98 472.49,-263 510.48,-236.67 531.5,-252.38 576.49,-263 585.19,-265.05 586.22,-268.59 594.49,-272 608,-277.57 622.69,-282.9 636.85,-287.69"/>
<polygon fill="#1a2833" stroke="#1a2833" points="635.96,-291.08 646.55,-290.92 638.17,-284.44 635.96,-291.08"/>
<text text-anchor="middle" x="524.49" y="-266" font-family="Times,serif" font-size="10.00" fill="#767676">^2.5|^3</text>
</g>
<!-- symfony/filesystem -->
<g id="node18" class="node">
<title>symfony/filesystem</title>
<path fill="#eeeeee" stroke="black" d="M779.49,-198C779.49,-198 636.49,-198 636.49,-198 630.49,-198 624.49,-192 624.49,-186 624.49,-186 624.49,-174 624.49,-174 624.49,-168 630.49,-162 636.49,-162 636.49,-162 779.49,-162 779.49,-162 785.49,-162 791.49,-168 791.49,-174 791.49,-174 791.49,-186 791.49,-186 791.49,-192 785.49,-198 779.49,-198"/>
<text text-anchor="middle" x="707.99" y="-176.3" font-family="Times,serif" font-size="14.00" fill="#314b5f">symfony/filesystem: v7.3.0</text>
</g>
<!-- symfony/config&#45;&gt;symfony/filesystem -->
<g id="edge24" class="edge">
<title>symfony/config&#45;&gt;symfony/filesystem</title>
<path fill="none" stroke="#1a2833" d="M408.99,-335.45C426.08,-331.42 442.76,-324.04 454.49,-311 498.5,-262.06 423.2,-207.62 472.49,-164 493.24,-145.63 558,-151.26 614.22,-160.59"/>
<polygon fill="#1a2833" stroke="#1a2833" points="613.79,-164.07 624.24,-162.31 614.97,-157.17 613.79,-164.07"/>
<text text-anchor="middle" x="524.49" y="-167" font-family="Times,serif" font-size="10.00" fill="#767676">^7.1</text>
</g>
<!-- symfony/polyfill&#45;ctype -->
<g id="node19" class="node">
<title>symfony/polyfill&#45;ctype</title>
<path fill="#eeeeee" stroke="black" d="M790.99,-263C790.99,-263 624.99,-263 624.99,-263 618.99,-263 612.99,-257 612.99,-251 612.99,-251 612.99,-239 612.99,-239 612.99,-233 618.99,-227 624.99,-227 624.99,-227 790.99,-227 790.99,-227 796.99,-227 802.99,-233 802.99,-239 802.99,-239 802.99,-251 802.99,-251 802.99,-257 796.99,-263 790.99,-263"/>
<text text-anchor="middle" x="707.99" y="-241.3" font-family="Times,serif" font-size="14.00" fill="#314b5f">symfony/polyfill&#45;ctype: v1.32.0</text>
</g>
<!-- symfony/config&#45;&gt;symfony/polyfill&#45;ctype -->
<g id="edge25" class="edge">
<title>symfony/config&#45;&gt;symfony/polyfill&#45;ctype</title>
<path fill="none" stroke="#1a2833" d="M409.02,-335.12C426,-331.08 442.62,-323.78 454.49,-311 489.99,-272.77 432.87,-228.95 472.49,-195 507.59,-164.93 532.25,-181.61 576.49,-195 585.69,-197.79 585.86,-202.76 594.49,-207 606.99,-213.15 620.74,-218.7 634.19,-223.54"/>
<polygon fill="#1a2833" stroke="#1a2833" points="633.33,-226.94 643.92,-226.93 635.63,-220.33 633.33,-226.94"/>
<text text-anchor="middle" x="524.49" y="-198" font-family="Times,serif" font-size="10.00" fill="#767676">~1.8</text>
</g>
<!-- symfony/console&#45;&gt;php -->
<g id="edge27" class="edge">
<title>symfony/console&#45;&gt;php</title>
<path fill="none" stroke="#1a2833" d="M378.85,-195.11C404.47,-208.56 436.02,-229.35 454.49,-257 475.93,-289.11 445.05,-314.82 472.49,-342 505.99,-375.19 537.37,-336.67 576.49,-363 639.32,-405.29 679.4,-489.04 696.86,-532.46"/>
<polygon fill="#1a2833" stroke="#1a2833" points="693.63,-533.79 700.53,-541.83 700.14,-531.24 693.63,-533.79"/>
<text text-anchor="middle" x="524.49" y="-366" font-family="Times,serif" font-size="10.00" fill="#767676">&gt;=8.2</text>
</g>
<!-- symfony/console&#45;&gt;symfony/deprecation&#45;contracts -->
<g id="edge28" class="edge">
<title>symfony/console&#45;&gt;symfony/deprecation&#45;contracts</title>
<path fill="none" stroke="#1a2833" d="M413.21,-193.34C480.64,-208.23 569.96,-228.7 576.49,-234 591,-245.77 580.48,-259.63 594.49,-272 600.91,-277.67 608.23,-282.48 615.98,-286.55"/>
<polygon fill="#1a2833" stroke="#1a2833" points="614.71,-289.82 625.24,-291 617.74,-283.51 614.71,-289.82"/>
<text text-anchor="middle" x="524.49" y="-237" font-family="Times,serif" font-size="10.00" fill="#767676">^2.5|^3</text>
</g>
<!-- symfony/polyfill&#45;mbstring -->
<g id="node21" class="node">
<title>symfony/polyfill&#45;mbstring</title>
<path fill="#eeeeee" stroke="black" d="M800.99,-90C800.99,-90 614.99,-90 614.99,-90 608.99,-90 602.99,-84 602.99,-78 602.99,-78 602.99,-66 602.99,-66 602.99,-60 608.99,-54 614.99,-54 614.99,-54 800.99,-54 800.99,-54 806.99,-54 812.99,-60 812.99,-66 812.99,-66 812.99,-78 812.99,-78 812.99,-84 806.99,-90 800.99,-90"/>
<text text-anchor="middle" x="707.99" y="-68.3" font-family="Times,serif" font-size="14.00" fill="#314b5f">symfony/polyfill&#45;mbstring: v1.32.0</text>
</g>
<!-- symfony/console&#45;&gt;symfony/polyfill&#45;mbstring -->
<g id="edge29" class="edge">
<title>symfony/console&#45;&gt;symfony/polyfill&#45;mbstring</title>
<path fill="none" stroke="#1a2833" d="M364.49,-158.84C390.71,-141.81 432.59,-117.06 472.49,-104 510.57,-91.53 553.68,-83.92 592.45,-79.27"/>
<polygon fill="#1a2833" stroke="#1a2833" points="593.19,-82.71 602.73,-78.09 592.4,-75.75 593.19,-82.71"/>
<text text-anchor="middle" x="524.49" y="-107" font-family="Times,serif" font-size="10.00" fill="#767676">~1.0</text>
</g>
<!-- symfony/service&#45;contracts -->
<g id="node22" class="node">
<title>symfony/service&#45;contracts</title>
<path fill="#eeeeee" stroke="black" d="M797.49,-36C797.49,-36 618.49,-36 618.49,-36 612.49,-36 606.49,-30 606.49,-24 606.49,-24 606.49,-12 606.49,-12 606.49,-6 612.49,0 618.49,0 618.49,0 797.49,0 797.49,0 803.49,0 809.49,-6 809.49,-12 809.49,-12 809.49,-24 809.49,-24 809.49,-30 803.49,-36 797.49,-36"/>
<text text-anchor="middle" x="707.99" y="-14.3" font-family="Times,serif" font-size="14.00" fill="#314b5f">symfony/service&#45;contracts: v3.6.0</text>
</g>
<!-- symfony/console&#45;&gt;symfony/service&#45;contracts -->
<g id="edge30" class="edge">
<title>symfony/console&#45;&gt;symfony/service&#45;contracts</title>
<path fill="none" stroke="#1a2833" d="M354.74,-158.62C378.46,-133.79 424.31,-90.02 472.49,-67 510.88,-48.65 556.04,-37.14 596.43,-29.94"/>
<polygon fill="#1a2833" stroke="#1a2833" points="597.05,-33.38 606.32,-28.24 595.87,-26.48 597.05,-33.38"/>
<text text-anchor="middle" x="524.49" y="-70" font-family="Times,serif" font-size="10.00" fill="#767676">^2.5|^3</text>
</g>
<!-- symfony/string -->
<g id="node23" class="node">
<title>symfony/string</title>
<path fill="#eeeeee" stroke="black" d="M766.99,-144C766.99,-144 648.99,-144 648.99,-144 642.99,-144 636.99,-138 636.99,-132 636.99,-132 636.99,-120 636.99,-120 636.99,-114 642.99,-108 648.99,-108 648.99,-108 766.99,-108 766.99,-108 772.99,-108 778.99,-114 778.99,-120 778.99,-120 778.99,-132 778.99,-132 778.99,-138 772.99,-144 766.99,-144"/>
<text text-anchor="middle" x="707.99" y="-122.3" font-family="Times,serif" font-size="14.00" fill="#314b5f">symfony/string: v7.3.0</text>
</g>
<!-- symfony/console&#45;&gt;symfony/string -->
<g id="edge31" class="edge">
<title>symfony/console&#45;&gt;symfony/string</title>
<path fill="none" stroke="#1a2833" d="M375.53,-158.98C401.96,-147.31 438.54,-133.18 472.49,-127 523.22,-117.76 581.16,-117.42 626.76,-119.44"/>
<polygon fill="#1a2833" stroke="#1a2833" points="626.72,-122.94 636.88,-119.93 627.06,-115.95 626.72,-122.94"/>
<text text-anchor="middle" x="524.49" y="-130" font-family="Times,serif" font-size="10.00" fill="#767676">^7.2</text>
</g>
<!-- symfony/finder&#45;&gt;php -->
<g id="edge33" class="edge">
<title>symfony/finder&#45;&gt;php</title>
<path fill="none" stroke="#1a2833" d="M408.6,-513.31C456.16,-518.54 520.23,-526.2 576.49,-535 608.48,-540 644.62,-547.04 670.74,-552.37"/>
<polygon fill="#1a2833" stroke="#1a2833" points="670.09,-555.81 680.59,-554.39 671.5,-548.95 670.09,-555.81"/>
<text text-anchor="middle" x="524.49" y="-538" font-family="Times,serif" font-size="10.00" fill="#767676">&gt;=8.2</text>
</g>
<!-- symfony/options&#45;resolver&#45;&gt;php -->
<g id="edge35" class="edge">
<title>symfony/options&#45;resolver&#45;&gt;php</title>
<path fill="none" stroke="#1a2833" d="M434.72,-470.01C478.48,-479.15 530.56,-491.42 576.49,-506 609.43,-516.46 645.67,-531.78 671.58,-543.43"/>
<polygon fill="#1a2833" stroke="#1a2833" points="670.43,-546.75 680.98,-547.7 673.32,-540.38 670.43,-546.75"/>
<text text-anchor="middle" x="524.49" y="-509" font-family="Times,serif" font-size="10.00" fill="#767676">&gt;=8.2</text>
</g>
<!-- symfony/options&#45;resolver&#45;&gt;symfony/deprecation&#45;contracts -->
<g id="edge36" class="edge">
<title>symfony/options&#45;resolver&#45;&gt;symfony/deprecation&#45;contracts</title>
<path fill="none" stroke="#1a2833" d="M436.24,-456.03C490.52,-456.83 551.83,-454.95 576.49,-444 627.68,-421.26 668.95,-368.22 690.55,-335.8"/>
<polygon fill="#1a2833" stroke="#1a2833" points="693.59,-337.54 696.11,-327.25 687.73,-333.73 693.59,-337.54"/>
<text text-anchor="middle" x="524.49" y="-459" font-family="Times,serif" font-size="10.00" fill="#767676">^2.5|^3</text>
</g>
<!-- symfony/yaml&#45;&gt;php -->
<g id="edge38" class="edge">
<title>symfony/yaml&#45;&gt;php</title>
<path fill="none" stroke="#1a2833" d="M406.22,-403.81C471.25,-411.61 561.44,-423.49 576.49,-431 624.49,-454.94 665.8,-503.2 688.46,-533.42"/>
<polygon fill="#1a2833" stroke="#1a2833" points="685.87,-535.82 694.61,-541.81 691.52,-531.67 685.87,-535.82"/>
<text text-anchor="middle" x="524.49" y="-434" font-family="Times,serif" font-size="10.00" fill="#767676">&gt;=8.2</text>
</g>
<!-- symfony/yaml&#45;&gt;symfony/deprecation&#45;contracts -->
<g id="edge39" class="edge">
<title>symfony/yaml&#45;&gt;symfony/deprecation&#45;contracts</title>
<path fill="none" stroke="#1a2833" d="M406.15,-387.73C423.25,-383.13 440.65,-376.01 454.49,-365 467.87,-354.36 458.27,-340.49 472.49,-331 491.3,-318.44 537.65,-312.63 584.22,-310.08"/>
<polygon fill="#1a2833" stroke="#1a2833" points="584.65,-313.56 594.46,-309.56 584.3,-306.57 584.65,-313.56"/>
<text text-anchor="middle" x="524.49" y="-334" font-family="Times,serif" font-size="10.00" fill="#767676">^2.5|^3.0</text>
</g>
<!-- symfony/yaml&#45;&gt;symfony/polyfill&#45;ctype -->
<g id="edge40" class="edge">
<title>symfony/yaml&#45;&gt;symfony/polyfill&#45;ctype</title>
<path fill="none" stroke="#1a2833" d="M406.2,-390.29C423.9,-385.74 441.59,-378 454.49,-365 477.11,-342.19 449.18,-317.11 472.49,-295 506.69,-262.54 530.36,-283.78 576.49,-274 589.64,-271.21 603.53,-268.2 617.14,-265.21"/>
<polygon fill="#1a2833" stroke="#1a2833" points="617.97,-268.61 626.98,-263.04 616.46,-261.77 617.97,-268.61"/>
<text text-anchor="middle" x="524.49" y="-298" font-family="Times,serif" font-size="10.00" fill="#767676">^1.8</text>
</g>
<!-- bamarni/composer&#45;bin&#45;plugin&#45;&gt;php -->
<g id="edge44" class="edge">
<title>bamarni/composer&#45;bin&#45;plugin&#45;&gt;php</title>
<path fill="none" stroke="#1a2833" d="M438.59,-696.94C444.16,-694.34 449.51,-691.38 454.49,-688 466.11,-680.1 460.82,-669.84 472.49,-662 511.78,-635.61 532.54,-656.6 576.49,-639 611.89,-624.82 648.76,-601.59 674.25,-583.98"/>
<polygon fill="#1a2833" stroke="#1a2833" points="676.58,-586.62 682.76,-578.01 672.57,-580.89 676.58,-586.62"/>
<text text-anchor="middle" x="524.49" y="-665" font-family="Times,serif" font-size="10.00" fill="#767676">^7.2.5 || ^8.0</text>
</g>
<!-- bamarni/composer&#45;bin&#45;plugin&#45;&gt;composer&#45;plugin&#45;api -->
<g id="edge43" class="edge">
<title>bamarni/composer&#45;bin&#45;plugin&#45;&gt;composer&#45;plugin&#45;api</title>
<path fill="none" stroke="#1a2833" d="M417.99,-733.06C435.83,-736.36 454.73,-739.3 472.49,-741 518.5,-745.41 530.37,-744.17 576.49,-741 595.15,-739.72 615.21,-737.42 633.87,-734.88"/>
<polygon fill="#1a2833" stroke="#1a2833" points="634.36,-738.35 643.78,-733.5 633.39,-731.41 634.36,-738.35"/>
<text text-anchor="middle" x="524.49" y="-746" font-family="Times,serif" font-size="10.00" fill="#767676">^2.0</text>
</g>
</g>
</svg>
