<?xml version="1.0" encoding="UTF-8" standalone="no"?>
<!DOCTYPE svg PUBLIC "-//W3C//DTD SVG 1.1//EN"
 "http://www.w3.org/Graphics/SVG/1.1/DTD/svg11.dtd">
<!-- Generated by graphviz version 2.43.0 (0)
 -->
<!-- Title: %3 Pages: 1 -->
<svg width="230pt" height="245pt"
 viewBox="0.00 0.00 230.00 245.00" xmlns="http://www.w3.org/2000/svg" xmlns:xlink="http://www.w3.org/1999/xlink">
<g id="graph0" class="graph" transform="scale(1 1) rotate(0) translate(4 241)">
<title>%3</title>
<g id="clust1" class="cluster">
<title>cluster_0</title>
<polygon fill="transparent" stroke="black" points="8,-8 8,-229 214,-229 214,-8 8,-8"/>
<text text-anchor="middle" x="111" y="-213.8" font-family="Times,serif" font-size="14.00">Name\Space</text>
</g>
<!-- Name\\Space\\Bar -->
<g id="node1" class="node">
<title>Name\\Space\\Bar</title>
<polygon fill="white" stroke="transparent" points="199,-63 23,-63 23,-16 199,-16 199,-63"/>
<polygon fill="#eeeeee" stroke="transparent" points="23,-40.5 23,-62.5 199,-62.5 199,-40.5 23,-40.5"/>
<polygon fill="none" stroke="black" points="23,-40.5 23,-62.5 199,-62.5 199,-40.5 23,-40.5"/>
<text text-anchor="start" x="103" y="-46.1" font-family="Verdana" font-weight="bold" font-size="8.00">Bar</text>
<polygon fill="none" stroke="black" points="23,-21.5 23,-40.5 199,-40.5 199,-21.5 23,-21.5"/>
<text text-anchor="start" x="28" y="-29.1" font-family="Verdana" font-size="8.00"># inheritedProperty = &quot;inheritedDefault&quot;</text>
<polygon fill="none" stroke="black" points="23,-15.5 23,-21.5 199,-21.5 199,-15.5 23,-15.5"/>
</g>
<!-- Name\\Space\\Foo -->
<g id="node2" class="node">
<title>Name\\Space\\Foo</title>
<polygon fill="white" stroke="transparent" points="206,-198 16,-198 16,-99 206,-99 206,-198"/>
<polygon fill="#eeeeee" stroke="transparent" points="16,-175.5 16,-197.5 206,-197.5 206,-175.5 16,-175.5"/>
<polygon fill="none" stroke="black" points="16,-175.5 16,-197.5 206,-197.5 206,-175.5 16,-175.5"/>
<text text-anchor="start" x="103" y="-181.1" font-family="Verdana" font-weight="bold" font-size="8.00">Foo</text>
<polygon fill="none" stroke="black" points="16,-104.5 16,-175.5 206,-175.5 206,-104.5 16,-104.5"/>
<text text-anchor="start" x="21" y="-164.1" font-family="Verdana" font-size="8.00">+ property = &quot;propertyDefault&quot;</text>
<text text-anchor="start" x="21" y="-151.1" font-family="Verdana" font-size="8.00">– privateProperty = &quot;privatePropertyDefault&quot;</text>
<text text-anchor="start" x="21" y="-138.1" font-family="Verdana" font-size="8.00">+ «static» staticProperty = &quot;staticProperty&quot;</text>
<text text-anchor="start" x="21" y="-125.1" font-family="Verdana" font-size="8.00">+ defaultlessProperty</text>
<text text-anchor="start" x="21" y="-112.1" font-family="Verdana" font-size="8.00"># «static» defaultName</text>
<polygon fill="none" stroke="black" points="16,-98.5 16,-104.5 206,-104.5 206,-98.5 16,-98.5"/>
</g>
<!-- Name\\Space\\Foo&#45;&gt;Name\\Space\\Bar -->
<g id="edge1" class="edge">
<title>Name\\Space\\Foo&#45;&gt;Name\\Space\\Bar</title>
<path fill="none" stroke="black" d="M111,-98.7C111,-90.04 111,-81.21 111,-73.13"/>
<polygon fill="none" stroke="black" points="114.5,-73.03 111,-63.03 107.5,-73.03 114.5,-73.03"/>
</g>
</g>
</svg>
