<?xml version="1.0" encoding="UTF-8" standalone="no"?>
<!DOCTYPE svg PUBLIC "-//W3C//DTD SVG 1.1//EN"
 "http://www.w3.org/Graphics/SVG/1.1/DTD/svg11.dtd">
<!-- Generated by graphviz version 2.43.0 (0)
 -->
<!-- Title: %3 Pages: 1 -->
<svg width="1292pt" height="1310pt"
 viewBox="0.00 0.00 1292.08 1309.85" xmlns="http://www.w3.org/2000/svg" xmlns:xlink="http://www.w3.org/1999/xlink">
<g id="graph0" class="graph" transform="scale(1 1) rotate(0) translate(4 1305.85)">
<title>%3</title>
<polygon fill="white" stroke="transparent" points="-4,4 -4,-1305.85 1288.08,-1305.85 1288.08,4 -4,4"/>
<!-- bartlett/umlwriter -->
<g id="node1" class="node">
<title>bartlett/umlwriter</title>
<ellipse fill="lightgrey" stroke="black" stroke-width="2" cx="95.54" cy="-747.85" rx="95.58" ry="18"/>
<text text-anchor="middle" x="95.54" y="-744.15" font-family="Times,serif" font-size="14.00">bartlett/umlwriter</text>
</g>
<!-- php -->
<g id="node2" class="node">
<title>php</title>
<path fill="#eeeeee" stroke="black" d="M1272.08,-869.85C1272.08,-869.85 1242.08,-869.85 1242.08,-869.85 1236.08,-869.85 1230.08,-863.85 1230.08,-857.85 1230.08,-857.85 1230.08,-845.85 1230.08,-845.85 1230.08,-839.85 1236.08,-833.85 1242.08,-833.85 1242.08,-833.85 1272.08,-833.85 1272.08,-833.85 1278.08,-833.85 1284.08,-839.85 1284.08,-845.85 1284.08,-845.85 1284.08,-857.85 1284.08,-857.85 1284.08,-863.85 1278.08,-869.85 1272.08,-869.85"/>
<text text-anchor="middle" x="1257.08" y="-848.15" font-family="Times,serif" font-size="14.00" fill="#314b5f">php</text>
</g>
<!-- bartlett/umlwriter&#45;&gt;php -->
<g id="edge1" class="edge">
<title>bartlett/umlwriter&#45;&gt;php</title>
<path fill="none" stroke="#1a2833" d="M98.47,-766.1C106.82,-841.35 142.49,-1126.24 209.08,-1180.85 372.97,-1315.25 978.64,-1325.01 1162.08,-1218.85 1200.68,-1196.51 1197.26,-1173.91 1212.08,-1131.85 1243.23,-1043.46 1252.38,-931.61 1255.03,-880.14"/>
<polygon fill="#1a2833" stroke="#1a2833" points="1258.53,-880.25 1255.5,-870.1 1251.54,-879.92 1258.53,-880.25"/>
<text text-anchor="middle" x="766.08" y="-1293.85" font-family="Times,serif" font-size="10.00" fill="#767676">^8.2</text>
</g>
<!-- bartlett/graph&#45;plantuml&#45;generator -->
<g id="node3" class="node">
<title>bartlett/graph&#45;plantuml&#45;generator</title>
<path fill="#eeeeee" stroke="black" d="M648.08,-1170.85C648.08,-1170.85 366.08,-1170.85 366.08,-1170.85 360.08,-1170.85 354.08,-1164.85 354.08,-1158.85 354.08,-1158.85 354.08,-1146.85 354.08,-1146.85 354.08,-1140.85 360.08,-1134.85 366.08,-1134.85 366.08,-1134.85 648.08,-1134.85 648.08,-1134.85 654.08,-1134.85 660.08,-1140.85 660.08,-1146.85 660.08,-1146.85 660.08,-1158.85 660.08,-1158.85 660.08,-1164.85 654.08,-1170.85 648.08,-1170.85"/>
<text text-anchor="middle" x="507.08" y="-1149.15" font-family="Times,serif" font-size="14.00" fill="#314b5f">bartlett/graph&#45;plantuml&#45;generator: 1.5.0</text>
</g>
<!-- bartlett/umlwriter&#45;&gt;bartlett/graph&#45;plantuml&#45;generator -->
<g id="edge5" class="edge">
<title>bartlett/umlwriter&#45;&gt;bartlett/graph&#45;plantuml&#45;generator</title>
<path fill="none" stroke="#1a2833" d="M99.36,-765.96C110.3,-833.95 152.28,-1072.6 209.08,-1119.85 246.32,-1150.82 295.9,-1163.6 343.86,-1167.32"/>
<polygon fill="#1a2833" stroke="#1a2833" points="343.86,-1170.83 354.07,-1167.98 344.31,-1163.84 343.86,-1170.83"/>
<text text-anchor="middle" x="272.58" y="-1168.85" font-family="Times,serif" font-size="10.00" fill="#767676">^1.5</text>
</g>
<!-- bartlett/graph&#45;uml -->
<g id="node4" class="node">
<title>bartlett/graph&#45;uml</title>
<path fill="#eeeeee" stroke="black" d="M1102.08,-1057.85C1102.08,-1057.85 932.08,-1057.85 932.08,-1057.85 926.08,-1057.85 920.08,-1051.85 920.08,-1045.85 920.08,-1045.85 920.08,-1033.85 920.08,-1033.85 920.08,-1027.85 926.08,-1021.85 932.08,-1021.85 932.08,-1021.85 1102.08,-1021.85 1102.08,-1021.85 1108.08,-1021.85 1114.08,-1027.85 1114.08,-1033.85 1114.08,-1033.85 1114.08,-1045.85 1114.08,-1045.85 1114.08,-1051.85 1108.08,-1057.85 1102.08,-1057.85"/>
<text text-anchor="middle" x="1017.08" y="-1036.15" font-family="Times,serif" font-size="14.00" fill="#314b5f">bartlett/graph&#45;uml: 1.5.0</text>
</g>
<!-- bartlett/umlwriter&#45;&gt;bartlett/graph&#45;uml -->
<g id="edge6" class="edge">
<title>bartlett/umlwriter&#45;&gt;bartlett/graph&#45;uml</title>
<path fill="none" stroke="#1a2833" d="M107.99,-765.96C126.08,-793.03 163.9,-843.78 209.08,-870.85 326.47,-941.19 718.69,-1000.73 909.72,-1026.37"/>
<polygon fill="#1a2833" stroke="#1a2833" points="909.4,-1029.86 919.77,-1027.71 910.33,-1022.92 909.4,-1029.86"/>
<text text-anchor="middle" x="507.08" y="-990.85" font-family="Times,serif" font-size="10.00" fill="#767676">^1.5</text>
</g>
<!-- composer&#45;runtime&#45;api -->
<g id="node6" class="node">
<title>composer&#45;runtime&#45;api</title>
<path fill="#eeeeee" stroke="black" d="M581.58,-148.85C581.58,-148.85 432.58,-148.85 432.58,-148.85 426.58,-148.85 420.58,-142.85 420.58,-136.85 420.58,-136.85 420.58,-124.85 420.58,-124.85 420.58,-118.85 426.58,-112.85 432.58,-112.85 432.58,-112.85 581.58,-112.85 581.58,-112.85 587.58,-112.85 593.58,-118.85 593.58,-124.85 593.58,-124.85 593.58,-136.85 593.58,-136.85 593.58,-142.85 587.58,-148.85 581.58,-148.85"/>
<text text-anchor="middle" x="507.08" y="-127.15" font-family="Times,serif" font-size="14.00" fill="#314b5f">composer&#45;runtime&#45;api</text>
</g>
<!-- bartlett/umlwriter&#45;&gt;composer&#45;runtime&#45;api -->
<g id="edge7" class="edge">
<title>bartlett/umlwriter&#45;&gt;composer&#45;runtime&#45;api</title>
<path fill="none" stroke="#1a2833" d="M98.56,-729.84C107.87,-649.12 148.9,-321.18 209.08,-239.85 255.62,-176.96 342.32,-150.31 410.08,-139.04"/>
<polygon fill="#1a2833" stroke="#1a2833" points="411.02,-142.44 420.35,-137.43 409.93,-135.52 411.02,-142.44"/>
<text text-anchor="middle" x="272.58" y="-242.85" font-family="Times,serif" font-size="10.00" fill="#767676">^2.0</text>
</g>
<!-- cweagans/composer&#45;patches -->
<g id="node7" class="node">
<title>cweagans/composer&#45;patches</title>
<path fill="#eeeeee" stroke="black" d="M627.58,-782.85C627.58,-782.85 386.58,-782.85 386.58,-782.85 380.58,-782.85 374.58,-776.85 374.58,-770.85 374.58,-770.85 374.58,-758.85 374.58,-758.85 374.58,-752.85 380.58,-746.85 386.58,-746.85 386.58,-746.85 627.58,-746.85 627.58,-746.85 633.58,-746.85 639.58,-752.85 639.58,-758.85 639.58,-758.85 639.58,-770.85 639.58,-770.85 639.58,-776.85 633.58,-782.85 627.58,-782.85"/>
<text text-anchor="middle" x="507.08" y="-761.15" font-family="Times,serif" font-size="14.00" fill="#314b5f">cweagans/composer&#45;patches: 1.7.3</text>
</g>
<!-- bartlett/umlwriter&#45;&gt;cweagans/composer&#45;patches -->
<g id="edge10" class="edge">
<title>bartlett/umlwriter&#45;&gt;cweagans/composer&#45;patches</title>
<path fill="none" stroke="#1a2833" d="M188.96,-751.69C240.7,-753.84 306.3,-756.56 364.39,-758.97"/>
<polygon fill="#1a2833" stroke="#1a2833" points="364.26,-762.47 374.4,-759.39 364.55,-755.47 364.26,-762.47"/>
<text text-anchor="middle" x="272.58" y="-759.85" font-family="Times,serif" font-size="10.00" fill="#767676">^1.7</text>
</g>
<!-- graphp/graph -->
<g id="node9" class="node">
<title>graphp/graph</title>
<path fill="#eeeeee" stroke="black" d="M1092.08,-1111.85C1092.08,-1111.85 942.08,-1111.85 942.08,-1111.85 936.08,-1111.85 930.08,-1105.85 930.08,-1099.85 930.08,-1099.85 930.08,-1087.85 930.08,-1087.85 930.08,-1081.85 936.08,-1075.85 942.08,-1075.85 942.08,-1075.85 1092.08,-1075.85 1092.08,-1075.85 1098.08,-1075.85 1104.08,-1081.85 1104.08,-1087.85 1104.08,-1087.85 1104.08,-1099.85 1104.08,-1099.85 1104.08,-1105.85 1098.08,-1111.85 1092.08,-1111.85"/>
<text text-anchor="middle" x="1017.08" y="-1090.15" font-family="Times,serif" font-size="14.00" fill="#314b5f">graphp/graph: 1.x&#45;dev</text>
</g>
<!-- bartlett/umlwriter&#45;&gt;graphp/graph -->
<g id="edge12" class="edge">
<title>bartlett/umlwriter&#45;&gt;graphp/graph</title>
<path fill="none" stroke="#1a2833" d="M96.3,-765.98C96.66,-822.9 106.34,-998.71 209.08,-1074.85 264.9,-1116.21 718.36,-1104.9 920.01,-1097.7"/>
<polygon fill="#1a2833" stroke="#1a2833" points="920.14,-1101.2 930.01,-1097.34 919.89,-1094.2 920.14,-1101.2"/>
<text text-anchor="middle" x="507.08" y="-1106.85" font-family="Times,serif" font-size="10.00" fill="#767676">1.x&#45;dev#0adb04d as 1.0.0</text>
</g>
<!-- graphp/graphviz -->
<g id="node10" class="node">
<title>graphp/graphviz</title>
<path fill="#eeeeee" stroke="black" d="M592.08,-1066.85C592.08,-1066.85 422.08,-1066.85 422.08,-1066.85 416.08,-1066.85 410.08,-1060.85 410.08,-1054.85 410.08,-1054.85 410.08,-1042.85 410.08,-1042.85 410.08,-1036.85 416.08,-1030.85 422.08,-1030.85 422.08,-1030.85 592.08,-1030.85 592.08,-1030.85 598.08,-1030.85 604.08,-1036.85 604.08,-1042.85 604.08,-1042.85 604.08,-1054.85 604.08,-1054.85 604.08,-1060.85 598.08,-1066.85 592.08,-1066.85"/>
<text text-anchor="middle" x="507.08" y="-1045.15" font-family="Times,serif" font-size="14.00" fill="#314b5f">graphp/graphviz: 1.x&#45;dev</text>
</g>
<!-- bartlett/umlwriter&#45;&gt;graphp/graphviz -->
<g id="edge15" class="edge">
<title>bartlett/umlwriter&#45;&gt;graphp/graphviz</title>
<path fill="none" stroke="#1a2833" d="M98.06,-765.96C103.26,-815.36 125.01,-953 209.08,-1015.85 262.91,-1056.09 338.31,-1064.06 399.67,-1062.11"/>
<polygon fill="#1a2833" stroke="#1a2833" points="399.93,-1065.6 409.78,-1061.69 399.64,-1058.6 399.93,-1065.6"/>
<text text-anchor="middle" x="272.58" y="-1062.85" font-family="Times,serif" font-size="10.00" fill="#767676">1.x&#45;dev#686f747 as 1.0.0</text>
</g>
<!-- psr/container -->
<g id="node11" class="node">
<title>psr/container</title>
<path fill="#eeeeee" stroke="black" d="M832.58,-957.85C832.58,-957.85 699.58,-957.85 699.58,-957.85 693.58,-957.85 687.58,-951.85 687.58,-945.85 687.58,-945.85 687.58,-933.85 687.58,-933.85 687.58,-927.85 693.58,-921.85 699.58,-921.85 699.58,-921.85 832.58,-921.85 832.58,-921.85 838.58,-921.85 844.58,-927.85 844.58,-933.85 844.58,-933.85 844.58,-945.85 844.58,-945.85 844.58,-951.85 838.58,-957.85 832.58,-957.85"/>
<text text-anchor="middle" x="766.08" y="-936.15" font-family="Times,serif" font-size="14.00" fill="#314b5f">psr/container: 2.0.2</text>
</g>
<!-- bartlett/umlwriter&#45;&gt;psr/container -->
<g id="edge17" class="edge">
<title>bartlett/umlwriter&#45;&gt;psr/container</title>
<path fill="none" stroke="#1a2833" d="M121.88,-765.2C144.04,-779.69 177.53,-800 209.08,-812.85 367.37,-877.32 564.97,-912.59 676.92,-928.73"/>
<polygon fill="#1a2833" stroke="#1a2833" points="676.75,-932.24 687.15,-930.18 677.74,-925.31 676.75,-932.24"/>
<text text-anchor="middle" x="272.58" y="-858.85" font-family="Times,serif" font-size="10.00" fill="#767676">^2.0</text>
</g>
<!-- roave/better&#45;reflection -->
<g id="node12" class="node">
<title>roave/better&#45;reflection</title>
<path fill="#eeeeee" stroke="black" d="M610.58,-728.85C610.58,-728.85 403.58,-728.85 403.58,-728.85 397.58,-728.85 391.58,-722.85 391.58,-716.85 391.58,-716.85 391.58,-704.85 391.58,-704.85 391.58,-698.85 397.58,-692.85 403.58,-692.85 403.58,-692.85 610.58,-692.85 610.58,-692.85 616.58,-692.85 622.58,-698.85 622.58,-704.85 622.58,-704.85 622.58,-716.85 622.58,-716.85 622.58,-722.85 616.58,-728.85 610.58,-728.85"/>
<text text-anchor="middle" x="507.08" y="-707.15" font-family="Times,serif" font-size="14.00" fill="#314b5f">roave/better&#45;reflection: 6.36.0</text>
</g>
<!-- bartlett/umlwriter&#45;&gt;roave/better&#45;reflection -->
<g id="edge22" class="edge">
<title>bartlett/umlwriter&#45;&gt;roave/better&#45;reflection</title>
<path fill="none" stroke="#1a2833" d="M181.9,-740.14C239.53,-734.93 316.56,-727.97 381.07,-722.15"/>
<polygon fill="#1a2833" stroke="#1a2833" points="381.67,-725.61 391.31,-721.22 381.04,-718.63 381.67,-725.61"/>
<text text-anchor="middle" x="272.58" y="-739.85" font-family="Times,serif" font-size="10.00" fill="#767676">^6.0</text>
</g>
<!-- symfony/config -->
<g id="node16" class="node">
<title>symfony/config</title>
<path fill="#eeeeee" stroke="black" d="M583.58,-404.85C583.58,-404.85 430.58,-404.85 430.58,-404.85 424.58,-404.85 418.58,-398.85 418.58,-392.85 418.58,-392.85 418.58,-380.85 418.58,-380.85 418.58,-374.85 424.58,-368.85 430.58,-368.85 430.58,-368.85 583.58,-368.85 583.58,-368.85 589.58,-368.85 595.58,-374.85 595.58,-380.85 595.58,-380.85 595.58,-392.85 595.58,-392.85 595.58,-398.85 589.58,-404.85 583.58,-404.85"/>
<text text-anchor="middle" x="507.08" y="-383.15" font-family="Times,serif" font-size="14.00" fill="#314b5f">symfony/config: v7.0.7</text>
</g>
<!-- bartlett/umlwriter&#45;&gt;symfony/config -->
<g id="edge27" class="edge">
<title>bartlett/umlwriter&#45;&gt;symfony/config</title>
<path fill="none" stroke="#1a2833" d="M106.04,-729.83C123.6,-697.52 163.54,-628.58 209.08,-579.85 282.32,-501.49 393.63,-440.32 457.14,-409.29"/>
<polygon fill="#1a2833" stroke="#1a2833" points="458.67,-412.43 466.15,-404.93 455.62,-406.13 458.67,-412.43"/>
<text text-anchor="middle" x="272.58" y="-582.85" font-family="Times,serif" font-size="10.00" fill="#767676">^6.4 || ^7.0</text>
</g>
<!-- symfony/console -->
<g id="node20" class="node">
<title>symfony/console</title>
<path fill="#eeeeee" stroke="black" d="M589.08,-202.85C589.08,-202.85 425.08,-202.85 425.08,-202.85 419.08,-202.85 413.08,-196.85 413.08,-190.85 413.08,-190.85 413.08,-178.85 413.08,-178.85 413.08,-172.85 419.08,-166.85 425.08,-166.85 425.08,-166.85 589.08,-166.85 589.08,-166.85 595.08,-166.85 601.08,-172.85 601.08,-178.85 601.08,-178.85 601.08,-190.85 601.08,-190.85 601.08,-196.85 595.08,-202.85 589.08,-202.85"/>
<text text-anchor="middle" x="507.08" y="-181.15" font-family="Times,serif" font-size="14.00" fill="#314b5f">symfony/console: v7.0.7</text>
</g>
<!-- bartlett/umlwriter&#45;&gt;symfony/console -->
<g id="edge32" class="edge">
<title>bartlett/umlwriter&#45;&gt;symfony/console</title>
<path fill="none" stroke="#1a2833" d="M97.02,-729.61C99.51,-669.37 114.82,-473.85 209.08,-353.85 268.03,-278.81 370.14,-231.36 437.91,-206.44"/>
<polygon fill="#1a2833" stroke="#1a2833" points="439.43,-209.61 447.65,-202.93 437.06,-203.03 439.43,-209.61"/>
<text text-anchor="middle" x="272.58" y="-356.85" font-family="Times,serif" font-size="10.00" fill="#767676">^6.4 || ^7.0</text>
</g>
<!-- symfony/finder -->
<g id="node24" class="node">
<title>symfony/finder</title>
<path fill="#eeeeee" stroke="black" d="M842.08,-909.85C842.08,-909.85 690.08,-909.85 690.08,-909.85 684.08,-909.85 678.08,-903.85 678.08,-897.85 678.08,-897.85 678.08,-885.85 678.08,-885.85 678.08,-879.85 684.08,-873.85 690.08,-873.85 690.08,-873.85 842.08,-873.85 842.08,-873.85 848.08,-873.85 854.08,-879.85 854.08,-885.85 854.08,-885.85 854.08,-897.85 854.08,-897.85 854.08,-903.85 848.08,-909.85 842.08,-909.85"/>
<text text-anchor="middle" x="766.08" y="-888.15" font-family="Times,serif" font-size="14.00" fill="#314b5f">symfony/finder: v7.0.7</text>
</g>
<!-- bartlett/umlwriter&#45;&gt;symfony/finder -->
<g id="edge34" class="edge">
<title>bartlett/umlwriter&#45;&gt;symfony/finder</title>
<path fill="none" stroke="#1a2833" d="M159.14,-761.33C277.02,-786.72 532.53,-841.76 671.12,-871.61"/>
<polygon fill="#1a2833" stroke="#1a2833" points="670.79,-875.12 681.3,-873.81 672.26,-868.28 670.79,-875.12"/>
<text text-anchor="middle" x="272.58" y="-800.85" font-family="Times,serif" font-size="10.00" fill="#767676">^6.4 || ^7.0</text>
</g>
<!-- symfony/options&#45;resolver -->
<g id="node25" class="node">
<title>symfony/options&#45;resolver</title>
<path fill="#eeeeee" stroke="black" d="M620.08,-512.85C620.08,-512.85 394.08,-512.85 394.08,-512.85 388.08,-512.85 382.08,-506.85 382.08,-500.85 382.08,-500.85 382.08,-488.85 382.08,-488.85 382.08,-482.85 388.08,-476.85 394.08,-476.85 394.08,-476.85 620.08,-476.85 620.08,-476.85 626.08,-476.85 632.08,-482.85 632.08,-488.85 632.08,-488.85 632.08,-500.85 632.08,-500.85 632.08,-506.85 626.08,-512.85 620.08,-512.85"/>
<text text-anchor="middle" x="507.08" y="-491.15" font-family="Times,serif" font-size="14.00" fill="#314b5f">symfony/options&#45;resolver: v7.0.7</text>
</g>
<!-- bartlett/umlwriter&#45;&gt;symfony/options&#45;resolver -->
<g id="edge37" class="edge">
<title>bartlett/umlwriter&#45;&gt;symfony/options&#45;resolver</title>
<path fill="none" stroke="#1a2833" d="M120.78,-730.28C143.34,-714.12 178.05,-689.71 209.08,-669.85 298.56,-612.59 406.74,-550.6 464.67,-517.97"/>
<polygon fill="#1a2833" stroke="#1a2833" points="466.53,-520.94 473.53,-512.99 463.1,-514.84 466.53,-520.94"/>
<text text-anchor="middle" x="272.58" y="-672.85" font-family="Times,serif" font-size="10.00" fill="#767676">^6.4 || ^7.0</text>
</g>
<!-- symfony/yaml -->
<g id="node26" class="node">
<title>symfony/yaml</title>
<path fill="#eeeeee" stroke="black" d="M579.58,-336.85C579.58,-336.85 434.58,-336.85 434.58,-336.85 428.58,-336.85 422.58,-330.85 422.58,-324.85 422.58,-324.85 422.58,-312.85 422.58,-312.85 422.58,-306.85 428.58,-300.85 434.58,-300.85 434.58,-300.85 579.58,-300.85 579.58,-300.85 585.58,-300.85 591.58,-306.85 591.58,-312.85 591.58,-312.85 591.58,-324.85 591.58,-324.85 591.58,-330.85 585.58,-336.85 579.58,-336.85"/>
<text text-anchor="middle" x="507.08" y="-315.15" font-family="Times,serif" font-size="14.00" fill="#314b5f">symfony/yaml: v7.0.7</text>
</g>
<!-- bartlett/umlwriter&#45;&gt;symfony/yaml -->
<g id="edge40" class="edge">
<title>bartlett/umlwriter&#45;&gt;symfony/yaml</title>
<path fill="none" stroke="#1a2833" d="M100.17,-729.68C110.35,-682.26 142.88,-552.51 209.08,-466.85 258.06,-403.48 281.95,-394.66 354.08,-359.85 372.38,-351.02 392.87,-343.86 412.73,-338.15"/>
<polygon fill="#1a2833" stroke="#1a2833" points="413.72,-341.51 422.42,-335.46 411.85,-334.76 413.72,-341.51"/>
<text text-anchor="middle" x="272.58" y="-469.85" font-family="Times,serif" font-size="10.00" fill="#767676">^6.4 || ^7.0</text>
</g>
<!-- jawira/plantuml -->
<g id="node27" class="node">
<title>jawira/plantuml</title>
<path fill="#eeeeee" stroke="black" d="M599.58,-94.85C599.58,-94.85 414.58,-94.85 414.58,-94.85 408.58,-94.85 402.58,-88.85 402.58,-82.85 402.58,-82.85 402.58,-70.85 402.58,-70.85 402.58,-64.85 408.58,-58.85 414.58,-58.85 414.58,-58.85 599.58,-58.85 599.58,-58.85 605.58,-58.85 611.58,-64.85 611.58,-70.85 611.58,-70.85 611.58,-82.85 611.58,-82.85 611.58,-88.85 605.58,-94.85 599.58,-94.85"/>
<text text-anchor="middle" x="507.08" y="-73.15" font-family="Times,serif" font-size="14.00" fill="#314b5f">jawira/plantuml: v1.2024.4</text>
</g>
<!-- bartlett/umlwriter&#45;&gt;jawira/plantuml -->
<g id="edge41" class="edge">
<title>bartlett/umlwriter&#45;&gt;jawira/plantuml</title>
<path fill="none" stroke="#1a2833" stroke-dasharray="5,2" d="M97.36,-729.71C101.86,-638.48 126.38,-230.8 209.08,-141.85 255.05,-92.42 329.2,-76.15 391.91,-72.25"/>
<polygon fill="#1a2833" stroke="#1a2833" points="392.47,-75.73 402.27,-71.71 392.1,-68.74 392.47,-75.73"/>
<text text-anchor="middle" x="272.58" y="-144.85" font-family="Times,serif" font-size="10.00" fill="#767676">^1.2023</text>
</g>
<!-- bamarni/composer&#45;bin&#45;plugin -->
<g id="node28" class="node">
<title>bamarni/composer&#45;bin&#45;plugin</title>
<path fill="#eeeeee" stroke="black" d="M630.58,-674.85C630.58,-674.85 383.58,-674.85 383.58,-674.85 377.58,-674.85 371.58,-668.85 371.58,-662.85 371.58,-662.85 371.58,-650.85 371.58,-650.85 371.58,-644.85 377.58,-638.85 383.58,-638.85 383.58,-638.85 630.58,-638.85 630.58,-638.85 636.58,-638.85 642.58,-644.85 642.58,-650.85 642.58,-650.85 642.58,-662.85 642.58,-662.85 642.58,-668.85 636.58,-674.85 630.58,-674.85"/>
<text text-anchor="middle" x="507.08" y="-653.15" font-family="Times,serif" font-size="14.00" fill="#314b5f">bamarni/composer&#45;bin&#45;plugin: 1.8.2</text>
</g>
<!-- bartlett/umlwriter&#45;&gt;bamarni/composer&#45;bin&#45;plugin -->
<g id="edge44" class="edge">
<title>bartlett/umlwriter&#45;&gt;bamarni/composer&#45;bin&#45;plugin</title>
<path fill="none" stroke="#1a2833" stroke-dasharray="5,2" d="M141.64,-732.07C162.06,-725.28 186.62,-717.59 209.08,-711.85 264.09,-697.79 325.7,-685.79 378.48,-676.62"/>
<polygon fill="#1a2833" stroke="#1a2833" points="379.31,-680.02 388.57,-674.88 378.12,-673.13 379.31,-680.02"/>
<text text-anchor="middle" x="272.58" y="-714.85" font-family="Times,serif" font-size="10.00" fill="#767676">^1.8</text>
</g>
<!-- bartlett/graph&#45;plantuml&#45;generator&#45;&gt;php -->
<g id="edge4" class="edge">
<title>bartlett/graph&#45;plantuml&#45;generator&#45;&gt;php</title>
<path fill="none" stroke="#1a2833" d="M615.92,-1170.85C777.93,-1195.53 1074.49,-1230.82 1162.08,-1174.85 1212.76,-1142.47 1242.73,-953.18 1252.52,-880.37"/>
<polygon fill="#1a2833" stroke="#1a2833" points="1256.03,-880.49 1253.86,-870.12 1249.09,-879.58 1256.03,-880.49"/>
<text text-anchor="middle" x="1017.08" y="-1206.85" font-family="Times,serif" font-size="10.00" fill="#767676">^8.1</text>
</g>
<!-- bartlett/graph&#45;plantuml&#45;generator&#45;&gt;bartlett/graph&#45;uml -->
<g id="edge2" class="edge">
<title>bartlett/graph&#45;plantuml&#45;generator&#45;&gt;bartlett/graph&#45;uml</title>
<path fill="none" stroke="#1a2833" d="M597.04,-1134.78C617.76,-1130.38 639.73,-1125.58 660.08,-1120.85 754.79,-1098.83 777.14,-1087.82 872.08,-1066.85 884.23,-1064.17 897,-1061.52 909.7,-1059"/>
<polygon fill="#1a2833" stroke="#1a2833" points="910.72,-1062.37 919.86,-1057.01 909.37,-1055.5 910.72,-1062.37"/>
<text text-anchor="middle" x="766.08" y="-1117.85" font-family="Times,serif" font-size="10.00" fill="#767676">^1.5</text>
</g>
<!-- jawira/plantuml&#45;encoding -->
<g id="node5" class="node">
<title>jawira/plantuml&#45;encoding</title>
<path fill="#eeeeee" stroke="black" d="M1130.58,-1165.85C1130.58,-1165.85 903.58,-1165.85 903.58,-1165.85 897.58,-1165.85 891.58,-1159.85 891.58,-1153.85 891.58,-1153.85 891.58,-1141.85 891.58,-1141.85 891.58,-1135.85 897.58,-1129.85 903.58,-1129.85 903.58,-1129.85 1130.58,-1129.85 1130.58,-1129.85 1136.58,-1129.85 1142.58,-1135.85 1142.58,-1141.85 1142.58,-1141.85 1142.58,-1153.85 1142.58,-1153.85 1142.58,-1159.85 1136.58,-1165.85 1130.58,-1165.85"/>
<text text-anchor="middle" x="1017.08" y="-1144.15" font-family="Times,serif" font-size="14.00" fill="#314b5f">jawira/plantuml&#45;encoding: v1.1.0</text>
</g>
<!-- bartlett/graph&#45;plantuml&#45;generator&#45;&gt;jawira/plantuml&#45;encoding -->
<g id="edge3" class="edge">
<title>bartlett/graph&#45;plantuml&#45;generator&#45;&gt;jawira/plantuml&#45;encoding</title>
<path fill="none" stroke="#1a2833" d="M660.16,-1151.35C730.36,-1150.66 813.02,-1149.85 881,-1149.18"/>
<polygon fill="#1a2833" stroke="#1a2833" points="881.39,-1152.68 891.35,-1149.08 881.32,-1145.68 881.39,-1152.68"/>
<text text-anchor="middle" x="766.08" y="-1153.85" font-family="Times,serif" font-size="10.00" fill="#767676">^1.0</text>
</g>
<!-- cweagans/composer&#45;patches&#45;&gt;php -->
<g id="edge9" class="edge">
<title>cweagans/composer&#45;patches&#45;&gt;php</title>
<path fill="none" stroke="#1a2833" d="M620.93,-782.92C634.59,-787.38 647.98,-792.93 660.08,-799.85 670.18,-805.62 667.53,-813.95 678.08,-818.85 774.9,-863.81 1108.94,-856.88 1219.92,-853.22"/>
<polygon fill="#1a2833" stroke="#1a2833" points="1220.07,-856.71 1229.95,-852.88 1219.83,-849.72 1220.07,-856.71"/>
<text text-anchor="middle" x="1017.08" y="-858.85" font-family="Times,serif" font-size="10.00" fill="#767676">&gt;=5.3.0</text>
</g>
<!-- composer&#45;plugin&#45;api -->
<g id="node8" class="node">
<title>composer&#45;plugin&#45;api</title>
<path fill="#eeeeee" stroke="black" d="M1085.58,-768.85C1085.58,-768.85 948.58,-768.85 948.58,-768.85 942.58,-768.85 936.58,-762.85 936.58,-756.85 936.58,-756.85 936.58,-744.85 936.58,-744.85 936.58,-738.85 942.58,-732.85 948.58,-732.85 948.58,-732.85 1085.58,-732.85 1085.58,-732.85 1091.58,-732.85 1097.58,-738.85 1097.58,-744.85 1097.58,-744.85 1097.58,-756.85 1097.58,-756.85 1097.58,-762.85 1091.58,-768.85 1085.58,-768.85"/>
<text text-anchor="middle" x="1017.08" y="-747.15" font-family="Times,serif" font-size="14.00" fill="#314b5f">composer&#45;plugin&#45;api</text>
</g>
<!-- cweagans/composer&#45;patches&#45;&gt;composer&#45;plugin&#45;api -->
<g id="edge8" class="edge">
<title>cweagans/composer&#45;patches&#45;&gt;composer&#45;plugin&#45;api</title>
<path fill="none" stroke="#1a2833" d="M639.9,-761.22C729.79,-758.74 846.48,-755.53 925.9,-753.34"/>
<polygon fill="#1a2833" stroke="#1a2833" points="926.47,-756.82 936.37,-753.05 926.28,-749.83 926.47,-756.82"/>
<text text-anchor="middle" x="766.08" y="-762.85" font-family="Times,serif" font-size="10.00" fill="#767676">^1.0 || ^2.0</text>
</g>
<!-- graphp/graph&#45;&gt;php -->
<g id="edge11" class="edge">
<title>graphp/graph&#45;&gt;php</title>
<path fill="none" stroke="#1a2833" d="M1104.18,-1087.64C1124.15,-1083.57 1144.64,-1077.09 1162.08,-1066.85 1228.55,-1027.84 1248.12,-929.07 1253.8,-880.17"/>
<polygon fill="#1a2833" stroke="#1a2833" points="1257.31,-880.29 1254.87,-869.98 1250.34,-879.56 1257.31,-880.29"/>
<text text-anchor="middle" x="1196.08" y="-1054.85" font-family="Times,serif" font-size="10.00" fill="#767676">&gt;=5.3</text>
</g>
<!-- graphp/graphviz&#45;&gt;php -->
<g id="edge14" class="edge">
<title>graphp/graphviz&#45;&gt;php</title>
<path fill="none" stroke="#1a2833" d="M604.13,-1036.15C782.87,-1012.4 1149.71,-963.1 1162.08,-956.85 1196.51,-939.47 1224.18,-903.68 1240.36,-878.74"/>
<polygon fill="#1a2833" stroke="#1a2833" points="1243.44,-880.43 1245.8,-870.1 1237.51,-876.7 1243.44,-880.43"/>
<text text-anchor="middle" x="1017.08" y="-1000.85" font-family="Times,serif" font-size="10.00" fill="#767676">&gt;=5.3.0</text>
</g>
<!-- graphp/graphviz&#45;&gt;graphp/graph -->
<g id="edge13" class="edge">
<title>graphp/graphviz&#45;&gt;graphp/graph</title>
<path fill="none" stroke="#1a2833" d="M604.28,-1047.52C628.38,-1047.24 654.18,-1046.99 678.08,-1046.85 756.3,-1046.39 782.63,-1015.03 854.08,-1046.85 865.01,-1051.72 861.66,-1061 872.08,-1066.85 886.73,-1075.08 903.4,-1080.85 920.08,-1084.9"/>
<polygon fill="#1a2833" stroke="#1a2833" points="919.36,-1088.33 929.89,-1087.09 920.89,-1081.49 919.36,-1088.33"/>
<text text-anchor="middle" x="766.08" y="-1049.85" font-family="Times,serif" font-size="10.00" fill="#767676">^1@dev</text>
</g>
<!-- psr/container&#45;&gt;php -->
<g id="edge16" class="edge">
<title>psr/container&#45;&gt;php</title>
<path fill="none" stroke="#1a2833" d="M844.79,-942.55C925.64,-943.29 1055.14,-938.62 1162.08,-907.85 1184.62,-901.37 1207.29,-888.11 1224.71,-876.12"/>
<polygon fill="#1a2833" stroke="#1a2833" points="1227.19,-878.65 1233.32,-870.01 1223.14,-872.95 1227.19,-878.65"/>
<text text-anchor="middle" x="1017.08" y="-944.85" font-family="Times,serif" font-size="10.00" fill="#767676">&gt;=7.4.0</text>
</g>
<!-- roave/better&#45;reflection&#45;&gt;php -->
<g id="edge21" class="edge">
<title>roave/better&#45;reflection&#45;&gt;php</title>
<path fill="none" stroke="#1a2833" d="M622.63,-718.96C636.09,-723.35 648.96,-729.45 660.08,-737.85 674.68,-748.87 663.22,-764.2 678.08,-774.85 722.14,-806.42 1108.46,-827.91 1162.08,-835.85 1181.07,-838.66 1202.14,-842.21 1219.51,-845.25"/>
<polygon fill="#1a2833" stroke="#1a2833" points="1219.34,-848.77 1229.79,-847.06 1220.56,-841.88 1219.34,-848.77"/>
<text text-anchor="middle" x="1017.08" y="-838.85" font-family="Times,serif" font-size="10.00" fill="#767676">~8.2.0 || ~8.3.2</text>
</g>
<!-- ext&#45;json -->
<g id="node13" class="node">
<title>ext&#45;json</title>
<path fill="#eeeeee" stroke="black" d="M1041.58,-714.85C1041.58,-714.85 992.58,-714.85 992.58,-714.85 986.58,-714.85 980.58,-708.85 980.58,-702.85 980.58,-702.85 980.58,-690.85 980.58,-690.85 980.58,-684.85 986.58,-678.85 992.58,-678.85 992.58,-678.85 1041.58,-678.85 1041.58,-678.85 1047.58,-678.85 1053.58,-684.85 1053.58,-690.85 1053.58,-690.85 1053.58,-702.85 1053.58,-702.85 1053.58,-708.85 1047.58,-714.85 1041.58,-714.85"/>
<text text-anchor="middle" x="1017.08" y="-693.15" font-family="Times,serif" font-size="14.00" fill="#314b5f">ext&#45;json</text>
</g>
<!-- roave/better&#45;reflection&#45;&gt;ext&#45;json -->
<g id="edge18" class="edge">
<title>roave/better&#45;reflection&#45;&gt;ext&#45;json</title>
<path fill="none" stroke="#1a2833" d="M622.72,-707.69C732.42,-704.67 892.35,-700.26 970.15,-698.12"/>
<polygon fill="#1a2833" stroke="#1a2833" points="970.67,-701.6 980.57,-697.83 970.48,-694.61 970.67,-701.6"/>
<text text-anchor="middle" x="766.08" y="-708.85" font-family="Times,serif" font-size="10.00" fill="#767676">*</text>
</g>
<!-- jetbrains/phpstorm&#45;stubs -->
<g id="node14" class="node">
<title>jetbrains/phpstorm&#45;stubs</title>
<path fill="#eeeeee" stroke="black" d="M1137.08,-606.85C1137.08,-606.85 897.08,-606.85 897.08,-606.85 891.08,-606.85 885.08,-600.85 885.08,-594.85 885.08,-594.85 885.08,-582.85 885.08,-582.85 885.08,-576.85 891.08,-570.85 897.08,-570.85 897.08,-570.85 1137.08,-570.85 1137.08,-570.85 1143.08,-570.85 1149.08,-576.85 1149.08,-582.85 1149.08,-582.85 1149.08,-594.85 1149.08,-594.85 1149.08,-600.85 1143.08,-606.85 1137.08,-606.85"/>
<text text-anchor="middle" x="1017.08" y="-585.15" font-family="Times,serif" font-size="14.00" fill="#314b5f">jetbrains/phpstorm&#45;stubs: v2024.1</text>
</g>
<!-- roave/better&#45;reflection&#45;&gt;jetbrains/phpstorm&#45;stubs -->
<g id="edge19" class="edge">
<title>roave/better&#45;reflection&#45;&gt;jetbrains/phpstorm&#45;stubs</title>
<path fill="none" stroke="#1a2833" d="M622.94,-705.45C636.67,-700.69 649.53,-693.76 660.08,-683.85 684.76,-660.68 652.13,-631.58 678.08,-609.85 748.4,-550.97 858.53,-556.05 933.84,-569"/>
<polygon fill="#1a2833" stroke="#1a2833" points="933.3,-572.46 943.76,-570.79 934.54,-565.58 933.3,-572.46"/>
<text text-anchor="middle" x="766.08" y="-612.85" font-family="Times,serif" font-size="10.00" fill="#767676">2024.1</text>
</g>
<!-- nikic/php&#45;parser -->
<g id="node15" class="node">
<title>nikic/php&#45;parser</title>
<path fill="#eeeeee" stroke="black" d="M1098.08,-660.85C1098.08,-660.85 936.08,-660.85 936.08,-660.85 930.08,-660.85 924.08,-654.85 924.08,-648.85 924.08,-648.85 924.08,-636.85 924.08,-636.85 924.08,-630.85 930.08,-624.85 936.08,-624.85 936.08,-624.85 1098.08,-624.85 1098.08,-624.85 1104.08,-624.85 1110.08,-630.85 1110.08,-636.85 1110.08,-636.85 1110.08,-648.85 1110.08,-648.85 1110.08,-654.85 1104.08,-660.85 1098.08,-660.85"/>
<text text-anchor="middle" x="1017.08" y="-639.15" font-family="Times,serif" font-size="14.00" fill="#314b5f">nikic/php&#45;parser: v5.0.2</text>
</g>
<!-- roave/better&#45;reflection&#45;&gt;nikic/php&#45;parser -->
<g id="edge20" class="edge">
<title>roave/better&#45;reflection&#45;&gt;nikic/php&#45;parser</title>
<path fill="none" stroke="#1a2833" d="M622.87,-703.06C636.29,-698.62 649.09,-692.42 660.08,-683.85 675.46,-671.87 661.73,-654.46 678.08,-643.85 715.67,-619.47 828.68,-623.82 913.76,-631.3"/>
<polygon fill="#1a2833" stroke="#1a2833" points="913.45,-634.79 923.73,-632.2 914.08,-627.81 913.45,-634.79"/>
<text text-anchor="middle" x="766.08" y="-646.85" font-family="Times,serif" font-size="10.00" fill="#767676">^5.0.2</text>
</g>
<!-- symfony/config&#45;&gt;php -->
<g id="edge23" class="edge">
<title>symfony/config&#45;&gt;php</title>
<path fill="none" stroke="#1a2833" d="M595.84,-376.02C618.53,-369.95 641.71,-360.52 660.08,-345.85 673.45,-335.18 663.83,-321.3 678.08,-311.85 739.19,-271.32 1149.91,-285 1162.08,-294.85 1245.27,-362.2 1254.94,-719.63 1255.98,-823.52"/>
<polygon fill="#1a2833" stroke="#1a2833" points="1252.48,-823.6 1256.06,-833.57 1259.48,-823.54 1252.48,-823.6"/>
<text text-anchor="middle" x="1017.08" y="-297.85" font-family="Times,serif" font-size="10.00" fill="#767676">&gt;=8.2</text>
</g>
<!-- symfony/deprecation&#45;contracts -->
<g id="node17" class="node">
<title>symfony/deprecation&#45;contracts</title>
<path fill="#eeeeee" stroke="black" d="M1150.08,-458.85C1150.08,-458.85 884.08,-458.85 884.08,-458.85 878.08,-458.85 872.08,-452.85 872.08,-446.85 872.08,-446.85 872.08,-434.85 872.08,-434.85 872.08,-428.85 878.08,-422.85 884.08,-422.85 884.08,-422.85 1150.08,-422.85 1150.08,-422.85 1156.08,-422.85 1162.08,-428.85 1162.08,-434.85 1162.08,-434.85 1162.08,-446.85 1162.08,-446.85 1162.08,-452.85 1156.08,-458.85 1150.08,-458.85"/>
<text text-anchor="middle" x="1017.08" y="-437.15" font-family="Times,serif" font-size="14.00" fill="#314b5f">symfony/deprecation&#45;contracts: v3.5.0</text>
</g>
<!-- symfony/config&#45;&gt;symfony/deprecation&#45;contracts -->
<g id="edge24" class="edge">
<title>symfony/config&#45;&gt;symfony/deprecation&#45;contracts</title>
<path fill="none" stroke="#1a2833" d="M595.7,-396.16C668.81,-403.94 774.75,-415.2 861.99,-424.47"/>
<polygon fill="#1a2833" stroke="#1a2833" points="861.67,-427.96 871.99,-425.53 862.41,-421 861.67,-427.96"/>
<text text-anchor="middle" x="766.08" y="-425.85" font-family="Times,serif" font-size="10.00" fill="#767676">^2.5|^3</text>
</g>
<!-- symfony/filesystem -->
<g id="node18" class="node">
<title>symfony/filesystem</title>
<path fill="#eeeeee" stroke="black" d="M1108.58,-404.85C1108.58,-404.85 925.58,-404.85 925.58,-404.85 919.58,-404.85 913.58,-398.85 913.58,-392.85 913.58,-392.85 913.58,-380.85 913.58,-380.85 913.58,-374.85 919.58,-368.85 925.58,-368.85 925.58,-368.85 1108.58,-368.85 1108.58,-368.85 1114.58,-368.85 1120.58,-374.85 1120.58,-380.85 1120.58,-380.85 1120.58,-392.85 1120.58,-392.85 1120.58,-398.85 1114.58,-404.85 1108.58,-404.85"/>
<text text-anchor="middle" x="1017.08" y="-383.15" font-family="Times,serif" font-size="14.00" fill="#314b5f">symfony/filesystem: v7.0.7</text>
</g>
<!-- symfony/config&#45;&gt;symfony/filesystem -->
<g id="edge25" class="edge">
<title>symfony/config&#45;&gt;symfony/filesystem</title>
<path fill="none" stroke="#1a2833" d="M595.7,-386.85C680.78,-386.85 810.34,-386.85 903.12,-386.85"/>
<polygon fill="#1a2833" stroke="#1a2833" points="903.4,-390.35 913.4,-386.85 903.4,-383.35 903.4,-390.35"/>
<text text-anchor="middle" x="766.08" y="-389.85" font-family="Times,serif" font-size="10.00" fill="#767676">^6.4|^7.0</text>
</g>
<!-- symfony/polyfill&#45;ctype -->
<g id="node19" class="node">
<title>symfony/polyfill&#45;ctype</title>
<path fill="#eeeeee" stroke="black" d="M1122.58,-350.85C1122.58,-350.85 911.58,-350.85 911.58,-350.85 905.58,-350.85 899.58,-344.85 899.58,-338.85 899.58,-338.85 899.58,-326.85 899.58,-326.85 899.58,-320.85 905.58,-314.85 911.58,-314.85 911.58,-314.85 1122.58,-314.85 1122.58,-314.85 1128.58,-314.85 1134.58,-320.85 1134.58,-326.85 1134.58,-326.85 1134.58,-338.85 1134.58,-338.85 1134.58,-344.85 1128.58,-350.85 1122.58,-350.85"/>
<text text-anchor="middle" x="1017.08" y="-329.15" font-family="Times,serif" font-size="14.00" fill="#314b5f">symfony/polyfill&#45;ctype: v1.29.0</text>
</g>
<!-- symfony/config&#45;&gt;symfony/polyfill&#45;ctype -->
<g id="edge26" class="edge">
<title>symfony/config&#45;&gt;symfony/polyfill&#45;ctype</title>
<path fill="none" stroke="#1a2833" d="M595.7,-377.54C676.54,-368.94 797.53,-356.08 888.99,-346.36"/>
<polygon fill="#1a2833" stroke="#1a2833" points="889.57,-349.82 899.14,-345.28 888.83,-342.86 889.57,-349.82"/>
<text text-anchor="middle" x="766.08" y="-369.85" font-family="Times,serif" font-size="10.00" fill="#767676">~1.8</text>
</g>
<!-- symfony/console&#45;&gt;php -->
<g id="edge28" class="edge">
<title>symfony/console&#45;&gt;php</title>
<path fill="none" stroke="#1a2833" d="M601.37,-185.54C622.99,-181.37 644.27,-173.12 660.08,-157.85 687.55,-131.33 650.65,-100.41 678.08,-73.85 755.57,1.15 1078.21,28.93 1162.08,-38.85 1224.56,-89.34 1250,-684.96 1255.09,-823.28"/>
<polygon fill="#1a2833" stroke="#1a2833" points="1251.6,-823.63 1255.46,-833.5 1258.6,-823.38 1251.6,-823.63"/>
<text text-anchor="middle" x="1017.08" y="-41.85" font-family="Times,serif" font-size="10.00" fill="#767676">&gt;=8.2</text>
</g>
<!-- symfony/polyfill&#45;mbstring -->
<g id="node21" class="node">
<title>symfony/polyfill&#45;mbstring</title>
<path fill="#eeeeee" stroke="black" d="M1135.58,-94.85C1135.58,-94.85 898.58,-94.85 898.58,-94.85 892.58,-94.85 886.58,-88.85 886.58,-82.85 886.58,-82.85 886.58,-70.85 886.58,-70.85 886.58,-64.85 892.58,-58.85 898.58,-58.85 898.58,-58.85 1135.58,-58.85 1135.58,-58.85 1141.58,-58.85 1147.58,-64.85 1147.58,-70.85 1147.58,-70.85 1147.58,-82.85 1147.58,-82.85 1147.58,-88.85 1141.58,-94.85 1135.58,-94.85"/>
<text text-anchor="middle" x="1017.08" y="-73.15" font-family="Times,serif" font-size="14.00" fill="#314b5f">symfony/polyfill&#45;mbstring: v1.29.0</text>
</g>
<!-- symfony/console&#45;&gt;symfony/polyfill&#45;mbstring -->
<g id="edge29" class="edge">
<title>symfony/console&#45;&gt;symfony/polyfill&#45;mbstring</title>
<path fill="none" stroke="#1a2833" d="M601.48,-179.82C621.9,-175.66 642.61,-168.84 660.08,-157.85 671.67,-150.56 666.45,-140.07 678.08,-132.85 736.73,-96.45 811.66,-81.55 876.05,-76.13"/>
<polygon fill="#1a2833" stroke="#1a2833" points="876.6,-79.59 886.3,-75.34 876.06,-72.61 876.6,-79.59"/>
<text text-anchor="middle" x="766.08" y="-135.85" font-family="Times,serif" font-size="10.00" fill="#767676">~1.0</text>
</g>
<!-- symfony/service&#45;contracts -->
<g id="node22" class="node">
<title>symfony/service&#45;contracts</title>
<path fill="#eeeeee" stroke="black" d="M1133.58,-202.85C1133.58,-202.85 900.58,-202.85 900.58,-202.85 894.58,-202.85 888.58,-196.85 888.58,-190.85 888.58,-190.85 888.58,-178.85 888.58,-178.85 888.58,-172.85 894.58,-166.85 900.58,-166.85 900.58,-166.85 1133.58,-166.85 1133.58,-166.85 1139.58,-166.85 1145.58,-172.85 1145.58,-178.85 1145.58,-178.85 1145.58,-190.85 1145.58,-190.85 1145.58,-196.85 1139.58,-202.85 1133.58,-202.85"/>
<text text-anchor="middle" x="1017.08" y="-181.15" font-family="Times,serif" font-size="14.00" fill="#314b5f">symfony/service&#45;contracts: v3.5.0</text>
</g>
<!-- symfony/console&#45;&gt;symfony/service&#45;contracts -->
<g id="edge30" class="edge">
<title>symfony/console&#45;&gt;symfony/service&#45;contracts</title>
<path fill="none" stroke="#1a2833" d="M601.26,-184.85C678.76,-184.85 790.2,-184.85 878.06,-184.85"/>
<polygon fill="#1a2833" stroke="#1a2833" points="878.11,-188.35 888.11,-184.85 878.11,-181.35 878.11,-188.35"/>
<text text-anchor="middle" x="766.08" y="-187.85" font-family="Times,serif" font-size="10.00" fill="#767676">^2.5|^3</text>
</g>
<!-- symfony/string -->
<g id="node23" class="node">
<title>symfony/string</title>
<path fill="#eeeeee" stroke="black" d="M1093.58,-148.85C1093.58,-148.85 940.58,-148.85 940.58,-148.85 934.58,-148.85 928.58,-142.85 928.58,-136.85 928.58,-136.85 928.58,-124.85 928.58,-124.85 928.58,-118.85 934.58,-112.85 940.58,-112.85 940.58,-112.85 1093.58,-112.85 1093.58,-112.85 1099.58,-112.85 1105.58,-118.85 1105.58,-124.85 1105.58,-124.85 1105.58,-136.85 1105.58,-136.85 1105.58,-142.85 1099.58,-148.85 1093.58,-148.85"/>
<text text-anchor="middle" x="1017.08" y="-127.15" font-family="Times,serif" font-size="14.00" fill="#314b5f">symfony/string: v7.0.7</text>
</g>
<!-- symfony/console&#45;&gt;symfony/string -->
<g id="edge31" class="edge">
<title>symfony/console&#45;&gt;symfony/string</title>
<path fill="none" stroke="#1a2833" d="M601.26,-174.95C691.12,-165.39 826.62,-150.99 918.08,-141.27"/>
<polygon fill="#1a2833" stroke="#1a2833" points="918.6,-144.73 928.17,-140.2 917.86,-137.77 918.6,-144.73"/>
<text text-anchor="middle" x="766.08" y="-167.85" font-family="Times,serif" font-size="10.00" fill="#767676">^6.4|^7.0</text>
</g>
<!-- symfony/finder&#45;&gt;php -->
<g id="edge33" class="edge">
<title>symfony/finder&#45;&gt;php</title>
<path fill="none" stroke="#1a2833" d="M854.41,-893.15C944.7,-893 1089.38,-888.59 1212.08,-865.85 1214.73,-865.36 1217.43,-864.76 1220.14,-864.08"/>
<polygon fill="#1a2833" stroke="#1a2833" points="1221.14,-867.44 1229.83,-861.38 1219.26,-860.7 1221.14,-867.44"/>
<text text-anchor="middle" x="1017.08" y="-895.85" font-family="Times,serif" font-size="10.00" fill="#767676">&gt;=8.2</text>
</g>
<!-- symfony/options&#45;resolver&#45;&gt;php -->
<g id="edge35" class="edge">
<title>symfony/options&#45;resolver&#45;&gt;php</title>
<path fill="none" stroke="#1a2833" d="M632.42,-491.73C794.63,-489.24 1068.74,-490.88 1162.08,-526.85 1188.9,-537.19 1197.83,-542.9 1212.08,-567.85 1236.87,-611.27 1249.82,-760.75 1254.27,-823.63"/>
<polygon fill="#1a2833" stroke="#1a2833" points="1250.78,-823.9 1254.95,-833.64 1257.76,-823.42 1250.78,-823.9"/>
<text text-anchor="middle" x="1017.08" y="-529.85" font-family="Times,serif" font-size="10.00" fill="#767676">&gt;=8.2</text>
</g>
<!-- symfony/options&#45;resolver&#45;&gt;symfony/deprecation&#45;contracts -->
<g id="edge36" class="edge">
<title>symfony/options&#45;resolver&#45;&gt;symfony/deprecation&#45;contracts</title>
<path fill="none" stroke="#1a2833" d="M624.1,-476.84C642.15,-474.31 660.6,-471.88 678.08,-469.85 737.96,-462.89 803.99,-456.85 861.68,-452.12"/>
<polygon fill="#1a2833" stroke="#1a2833" points="862.3,-455.59 871.98,-451.29 861.73,-448.61 862.3,-455.59"/>
<text text-anchor="middle" x="766.08" y="-472.85" font-family="Times,serif" font-size="10.00" fill="#767676">^2.5|^3</text>
</g>
<!-- symfony/yaml&#45;&gt;php -->
<g id="edge38" class="edge">
<title>symfony/yaml&#45;&gt;php</title>
<path fill="none" stroke="#1a2833" d="M559.67,-300.85C672.77,-264.34 949.43,-191.39 1162.08,-268.85 1189.35,-278.78 1198.77,-285.06 1212.08,-310.85 1258.91,-401.54 1257.99,-726.14 1256.6,-823.83"/>
<polygon fill="#1a2833" stroke="#1a2833" points="1253.1,-823.79 1256.45,-833.84 1260.1,-823.9 1253.1,-823.79"/>
<text text-anchor="middle" x="1017.08" y="-271.85" font-family="Times,serif" font-size="10.00" fill="#767676">&gt;=8.2</text>
</g>
<!-- symfony/yaml&#45;&gt;symfony/polyfill&#45;ctype -->
<g id="edge39" class="edge">
<title>symfony/yaml&#45;&gt;symfony/polyfill&#45;ctype</title>
<path fill="none" stroke="#1a2833" d="M591.67,-317.29C661.77,-316.41 764.51,-316.13 854.08,-319.85 865.54,-320.33 877.43,-320.98 889.35,-321.74"/>
<polygon fill="#1a2833" stroke="#1a2833" points="889.14,-325.23 899.35,-322.4 889.6,-318.25 889.14,-325.23"/>
<text text-anchor="middle" x="766.08" y="-322.85" font-family="Times,serif" font-size="10.00" fill="#767676">^1.8</text>
</g>
<!-- bamarni/composer&#45;bin&#45;plugin&#45;&gt;php -->
<g id="edge43" class="edge">
<title>bamarni/composer&#45;bin&#45;plugin&#45;&gt;php</title>
<path fill="none" stroke="#1a2833" d="M529.98,-638.75C560.78,-614.53 619.7,-572.7 678.08,-555.85 738.86,-538.31 1146.74,-539.57 1162.08,-550.85 1207.09,-583.95 1240.08,-755.57 1251.61,-823.82"/>
<polygon fill="#1a2833" stroke="#1a2833" points="1248.18,-824.55 1253.27,-833.85 1255.09,-823.41 1248.18,-824.55"/>
<text text-anchor="middle" x="1017.08" y="-553.85" font-family="Times,serif" font-size="10.00" fill="#767676">^7.2.5 || ^8.0</text>
</g>
<!-- bamarni/composer&#45;bin&#45;plugin&#45;&gt;composer&#45;plugin&#45;api -->
<g id="edge42" class="edge">
<title>bamarni/composer&#45;bin&#45;plugin&#45;&gt;composer&#45;plugin&#45;api</title>
<path fill="none" stroke="#1a2833" d="M642.68,-654.6C724.85,-655.78 820.39,-662.5 854.08,-685.85 869.44,-696.5 857.28,-712.44 872.08,-723.85 887.76,-735.94 907.22,-743.18 926.71,-747.39"/>
<polygon fill="#1a2833" stroke="#1a2833" points="926.1,-750.84 936.58,-749.28 927.41,-743.96 926.1,-750.84"/>
<text text-anchor="middle" x="766.08" y="-688.85" font-family="Times,serif" font-size="10.00" fill="#767676">^2.0</text>
</g>
</g>
</svg>
