<?xml version="1.0" encoding="UTF-8" standalone="no"?>
<!DOCTYPE svg PUBLIC "-//W3C//DTD SVG 1.1//EN"
 "http://www.w3.org/Graphics/SVG/1.1/DTD/svg11.dtd">
<!-- Generated by graphviz version 2.43.0 (0)
 -->
<!-- Title: %3 Pages: 1 -->
<svg width="3691pt" height="994pt"
 viewBox="0.00 0.00 3691.00 994.00" xmlns="http://www.w3.org/2000/svg" xmlns:xlink="http://www.w3.org/1999/xlink">
<g id="graph0" class="graph" transform="scale(1 1) rotate(0) translate(4 990)">
<title>%3</title>
<g id="clust1" class="cluster">
<title>cluster_0</title>
<polygon fill="transparent" stroke="black" points="8,-846.5 8,-971.5 973,-971.5 973,-846.5 8,-846.5"/>
<text text-anchor="middle" x="490.5" y="-956.3" font-family="Times,serif" font-size="14.00">Bartlett\UmlWriter\Service</text>
</g>
<g id="clust2" class="cluster">
<title>cluster_1</title>
<polygon fill="transparent" stroke="black" points="582,-499 582,-598 750,-598 750,-499 582,-499"/>
<text text-anchor="middle" x="666" y="-582.8" font-family="Times,serif" font-size="14.00">Psr\Container</text>
</g>
<g id="clust3" class="cluster">
<title>cluster_2</title>
<polygon fill="transparent" stroke="black" points="981,-840 981,-978 1667,-978 1667,-840 981,-840"/>
<text text-anchor="middle" x="1324" y="-962.8" font-family="Times,serif" font-size="14.00">Bartlett\UmlWriter\Console</text>
</g>
<g id="clust4" class="cluster">
<title>cluster_3</title>
<polygon fill="transparent" stroke="black" points="970,-265 970,-832 1678,-832 1678,-265 970,-265"/>
<text text-anchor="middle" x="1324" y="-816.8" font-family="Times,serif" font-size="14.00">Symfony\Component\Console</text>
</g>
<g id="clust5" class="cluster">
<title>cluster_4</title>
<polygon fill="transparent" stroke="black" points="1219,-156 1219,-242 1430,-242 1430,-156 1219,-156"/>
<text text-anchor="middle" x="1324.5" y="-226.8" font-family="Times,serif" font-size="14.00">Symfony\Contracts\Service</text>
</g>
<g id="clust6" class="cluster">
<title>cluster_5</title>
<polygon fill="transparent" stroke="black" points="1675,-866 1675,-952 2435,-952 2435,-866 1675,-866"/>
<text text-anchor="middle" x="2055" y="-936.8" font-family="Times,serif" font-size="14.00">Bartlett\UmlWriter\Console\Command</text>
</g>
<g id="clust7" class="cluster">
<title>cluster_6</title>
<polygon fill="transparent" stroke="black" points="1701,-291 1701,-806 2409,-806 2409,-291 1701,-291"/>
<text text-anchor="middle" x="2055" y="-790.8" font-family="Times,serif" font-size="14.00">Symfony\Component\Console\Command</text>
</g>
<g id="clust8" class="cluster">
<title>cluster_7</title>
<polygon fill="transparent" stroke="black" points="2625,-859.5 2625,-958.5 2895,-958.5 2895,-859.5 2625,-859.5"/>
<text text-anchor="middle" x="2760" y="-943.3" font-family="Times,serif" font-size="14.00">Bartlett\UmlWriter\Config\Loader</text>
</g>
<g id="clust9" class="cluster">
<title>cluster_8</title>
<polygon fill="transparent" stroke="black" points="2417,-8 2417,-611 3103,-611 3103,-8 2417,-8"/>
<text text-anchor="middle" x="2760" y="-595.8" font-family="Times,serif" font-size="14.00">Symfony\Component\Config\Loader</text>
</g>
<g id="clust10" class="cluster">
<title>cluster_9</title>
<polygon fill="transparent" stroke="black" points="3111,-505.5 3111,-952 3675,-952 3675,-505.5 3111,-505.5"/>
<text text-anchor="middle" x="3393" y="-936.8" font-family="Times,serif" font-size="14.00">Bartlett\UmlWriter\Generator</text>
</g>
<!-- Bartlett\\UmlWriter\\Service\\ConfigurationHandler -->
<g id="node1" class="node">
<title>Bartlett\\UmlWriter\\Service\\ConfigurationHandler</title>
<polygon fill="#fefece" stroke="transparent" points="964.5,-940.5 767.5,-940.5 767.5,-854.5 964.5,-854.5 964.5,-940.5"/>
<polygon fill="#eeeeee" stroke="transparent" points="768,-918.5 768,-940.5 965,-940.5 965,-918.5 768,-918.5"/>
<polygon fill="none" stroke="black" points="768,-918.5 768,-940.5 965,-940.5 965,-918.5 768,-918.5"/>
<text text-anchor="start" x="817" y="-924.1" font-family="Verdana" font-weight="bold" font-size="8.00">ConfigurationHandler</text>
<polygon fill="none" stroke="black" points="768,-912.5 768,-918.5 965,-918.5 965,-912.5 768,-912.5"/>
<polygon fill="none" stroke="black" points="768,-854.5 768,-912.5 965,-912.5 965,-854.5 768,-854.5"/>
<text text-anchor="start" x="773" y="-901.1" font-family="Verdana" font-size="8.00">+ __construct(filename : string = «unknown»)</text>
<text text-anchor="start" x="773" y="-888.1" font-family="Verdana" font-size="8.00">+ «static» getDefaults() : array</text>
<text text-anchor="start" x="773" y="-875.1" font-family="Verdana" font-size="8.00">+ toArray() : array</text>
<text text-anchor="start" x="773" y="-862.1" font-family="Verdana" font-size="8.00">+ toFlat() : array</text>
</g>
<!-- Bartlett\\UmlWriter\\Service\\ContainerService -->
<g id="node2" class="node">
<title>Bartlett\\UmlWriter\\Service\\ContainerService</title>
<polygon fill="#fefece" stroke="transparent" points="749.5,-940.5 582.5,-940.5 582.5,-854.5 749.5,-854.5 749.5,-940.5"/>
<polygon fill="#eeeeee" stroke="transparent" points="583,-918.5 583,-940.5 750,-940.5 750,-918.5 583,-918.5"/>
<polygon fill="none" stroke="black" points="583,-918.5 583,-940.5 750,-940.5 750,-918.5 583,-918.5"/>
<text text-anchor="start" x="627.5" y="-924.1" font-family="Verdana" font-weight="bold" font-size="8.00">ContainerService</text>
<polygon fill="none" stroke="black" points="583,-912.5 583,-918.5 750,-918.5 750,-912.5 583,-912.5"/>
<polygon fill="none" stroke="black" points="583,-854.5 583,-912.5 750,-912.5 750,-854.5 583,-854.5"/>
<text text-anchor="start" x="588" y="-901.1" font-family="Verdana" font-size="8.00">+ __construct()</text>
<text text-anchor="start" x="588" y="-888.1" font-family="Verdana" font-size="8.00">+ set(id : string, service : mixed) : void</text>
<text text-anchor="start" x="588" y="-875.1" font-family="Verdana" font-size="8.00">+ get(id : string) : ?mixed</text>
<text text-anchor="start" x="588" y="-862.1" font-family="Verdana" font-size="8.00">+ has(id : string) : bool</text>
</g>
<!-- Psr\\Container\\ContainerInterface -->
<g id="node4" class="node">
<title>Psr\\Container\\ContainerInterface</title>
<polygon fill="#fefece" stroke="transparent" points="741.5,-567 590.5,-567 590.5,-507 741.5,-507 741.5,-567"/>
<polygon fill="#eeeeee" stroke="transparent" points="591,-545 591,-567 742,-567 742,-545 591,-545"/>
<polygon fill="none" stroke="black" points="591,-545 591,-567 742,-567 742,-545 591,-545"/>
<text text-anchor="start" x="640.5" y="-558.6" font-family="Verdana" font-weight="bold" font-size="8.00">«interface»</text>
<text text-anchor="start" x="624" y="-550.6" font-family="Verdana" font-weight="bold" font-size="8.00">ContainerInterface</text>
<polygon fill="none" stroke="black" points="591,-539 591,-545 742,-545 742,-539 591,-539"/>
<polygon fill="none" stroke="black" points="591,-507 591,-539 742,-539 742,-507 591,-507"/>
<text text-anchor="start" x="596" y="-527.6" font-family="Verdana" font-size="8.00">+ «abstract» get(id : string)</text>
<text text-anchor="start" x="596" y="-514.6" font-family="Verdana" font-size="8.00">+ «abstract» has(id : string) : bool</text>
</g>
<!-- Bartlett\\UmlWriter\\Service\\ContainerService&#45;&gt;Psr\\Container\\ContainerInterface -->
<g id="edge1" class="edge">
<title>Bartlett\\UmlWriter\\Service\\ContainerService&#45;&gt;Psr\\Container\\ContainerInterface</title>
<path fill="none" stroke="black" stroke-dasharray="5,2" d="M666,-854.32C666,-784.4 666,-645.44 666,-577.4"/>
<polygon fill="none" stroke="black" points="669.5,-577.11 666,-567.11 662.5,-577.11 669.5,-577.11"/>
</g>
<!-- Bartlett\\UmlWriter\\Service\\ClassDiagramRenderer -->
<g id="node3" class="node">
<title>Bartlett\\UmlWriter\\Service\\ClassDiagramRenderer</title>
<polygon fill="#fefece" stroke="transparent" points="564,-927.5 16,-927.5 16,-867.5 564,-867.5 564,-927.5"/>
<polygon fill="#eeeeee" stroke="transparent" points="16,-905.5 16,-927.5 564,-927.5 564,-905.5 16,-905.5"/>
<polygon fill="none" stroke="black" points="16,-905.5 16,-927.5 564,-927.5 564,-905.5 16,-905.5"/>
<text text-anchor="start" x="238.5" y="-911.1" font-family="Verdana" font-weight="bold" font-size="8.00">ClassDiagramRenderer</text>
<polygon fill="none" stroke="black" points="16,-899.5 16,-905.5 564,-905.5 564,-899.5 16,-899.5"/>
<polygon fill="none" stroke="black" points="16,-867.5 16,-899.5 564,-899.5 564,-867.5 16,-867.5"/>
<text text-anchor="start" x="21" y="-888.1" font-family="Verdana" font-size="8.00">+ __invoke(datasource, generator : Bartlett\GraphUml\Generator\GeneratorInterface, parameters : array = []) : Graphp\Graph\Graph</text>
<text text-anchor="start" x="21" y="-875.1" font-family="Verdana" font-size="8.00">+ getMetadata() : array</text>
</g>
<!-- Bartlett\\UmlWriter\\Console\\Application -->
<g id="node5" class="node">
<title>Bartlett\\UmlWriter\\Console\\Application</title>
<polygon fill="#fefece" stroke="transparent" points="1658.5,-947 989.5,-947 989.5,-848 1658.5,-848 1658.5,-947"/>
<polygon fill="#eeeeee" stroke="transparent" points="990,-924.5 990,-946.5 1659,-946.5 1659,-924.5 990,-924.5"/>
<polygon fill="none" stroke="black" points="990,-924.5 990,-946.5 1659,-946.5 1659,-924.5 990,-924.5"/>
<text text-anchor="start" x="1298.5" y="-930.1" font-family="Verdana" font-weight="bold" font-size="8.00">Application</text>
<polygon fill="none" stroke="black" points="990,-918.5 990,-924.5 1659,-924.5 1659,-918.5 990,-918.5"/>
<polygon fill="none" stroke="black" points="990,-847.5 990,-918.5 1659,-918.5 1659,-847.5 990,-847.5"/>
<text text-anchor="start" x="995" y="-907.1" font-family="Verdana" font-size="8.00">+ __construct(container : Psr\Container\ContainerInterface)</text>
<text text-anchor="start" x="995" y="-894.1" font-family="Verdana" font-size="8.00">+ getHelp() : string</text>
<text text-anchor="start" x="995" y="-881.1" font-family="Verdana" font-size="8.00">+ getLongVersion() : string</text>
<text text-anchor="start" x="995" y="-868.1" font-family="Verdana" font-size="8.00">+ doRun(input : Symfony\Component\Console\Input\InputInterface, output : Symfony\Component\Console\Output\OutputInterface) : int</text>
<text text-anchor="start" x="995" y="-855.1" font-family="Verdana" font-size="8.00">+ run(input : Symfony\Component\Console\Input\InputInterface = «unknown», output : Symfony\Component\Console\Output\OutputInterface = «unknown») : int</text>
</g>
<!-- Symfony\\Component\\Console\\Application -->
<g id="node6" class="node">
<title>Symfony\\Component\\Console\\Application</title>
<polygon fill="#fefece" stroke="transparent" points="1670,-801 978,-801 978,-273 1670,-273 1670,-801"/>
<polygon fill="#eeeeee" stroke="transparent" points="978,-779 978,-801 1670,-801 1670,-779 978,-779"/>
<polygon fill="none" stroke="black" points="978,-779 978,-801 1670,-801 1670,-779 978,-779"/>
<text text-anchor="start" x="1298" y="-784.6" font-family="Verdana" font-weight="bold" font-size="8.00">Application</text>
<polygon fill="none" stroke="black" points="978,-773 978,-779 1670,-779 1670,-773 978,-773"/>
<polygon fill="none" stroke="black" points="978,-273 978,-773 1670,-773 1670,-273 978,-273"/>
<text text-anchor="start" x="983" y="-761.6" font-family="Verdana" font-size="8.00">+ __construct(name : string = &#39;UNKNOWN&#39;, version : string = &#39;UNKNOWN&#39;)</text>
<text text-anchor="start" x="983" y="-748.6" font-family="Verdana" font-size="8.00">+ setDispatcher(dispatcher : Symfony\Contracts\EventDispatcher\EventDispatcherInterface) : void</text>
<text text-anchor="start" x="983" y="-735.6" font-family="Verdana" font-size="8.00">+ setCommandLoader(commandLoader : Symfony\Component\Console\CommandLoader\CommandLoaderInterface) : void</text>
<text text-anchor="start" x="983" y="-722.6" font-family="Verdana" font-size="8.00">+ getSignalRegistry() : Symfony\Component\Console\SignalRegistry\SignalRegistry</text>
<text text-anchor="start" x="983" y="-709.6" font-family="Verdana" font-size="8.00">+ setSignalsToDispatchEvent(signalsToDispatchEvent : int = «unknown») : void</text>
<text text-anchor="start" x="983" y="-696.6" font-family="Verdana" font-size="8.00">+ run(input : Symfony\Component\Console\Input\InputInterface = «unknown», output : Symfony\Component\Console\Output\OutputInterface = «unknown») : int</text>
<text text-anchor="start" x="983" y="-683.6" font-family="Verdana" font-size="8.00">+ doRun(input : Symfony\Component\Console\Input\InputInterface, output : Symfony\Component\Console\Output\OutputInterface) : int</text>
<text text-anchor="start" x="983" y="-670.6" font-family="Verdana" font-size="8.00">+ reset() : void</text>
<text text-anchor="start" x="983" y="-657.6" font-family="Verdana" font-size="8.00">+ setHelperSet(helperSet : Symfony\Component\Console\Helper\HelperSet) : void</text>
<text text-anchor="start" x="983" y="-644.6" font-family="Verdana" font-size="8.00">+ getHelperSet() : Symfony\Component\Console\Helper\HelperSet</text>
<text text-anchor="start" x="983" y="-631.6" font-family="Verdana" font-size="8.00">+ setDefinition(definition : Symfony\Component\Console\Input\InputDefinition) : void</text>
<text text-anchor="start" x="983" y="-618.6" font-family="Verdana" font-size="8.00">+ getDefinition() : Symfony\Component\Console\Input\InputDefinition</text>
<text text-anchor="start" x="983" y="-605.6" font-family="Verdana" font-size="8.00">+ complete(input : Symfony\Component\Console\Completion\CompletionInput, suggestions : Symfony\Component\Console\Completion\CompletionSuggestions) : void</text>
<text text-anchor="start" x="983" y="-592.6" font-family="Verdana" font-size="8.00">+ getHelp() : string</text>
<text text-anchor="start" x="983" y="-579.6" font-family="Verdana" font-size="8.00">+ areExceptionsCaught() : bool</text>
<text text-anchor="start" x="983" y="-566.6" font-family="Verdana" font-size="8.00">+ setCatchExceptions(boolean : bool) : void</text>
<text text-anchor="start" x="983" y="-553.6" font-family="Verdana" font-size="8.00">+ setCatchErrors(catchErrors : bool = true) : void</text>
<text text-anchor="start" x="983" y="-540.6" font-family="Verdana" font-size="8.00">+ isAutoExitEnabled() : bool</text>
<text text-anchor="start" x="983" y="-527.6" font-family="Verdana" font-size="8.00">+ setAutoExit(boolean : bool) : void</text>
<text text-anchor="start" x="983" y="-514.6" font-family="Verdana" font-size="8.00">+ getName() : string</text>
<text text-anchor="start" x="983" y="-501.6" font-family="Verdana" font-size="8.00">+ setName(name : string) : void</text>
<text text-anchor="start" x="983" y="-488.6" font-family="Verdana" font-size="8.00">+ getVersion() : string</text>
<text text-anchor="start" x="983" y="-475.6" font-family="Verdana" font-size="8.00">+ setVersion(version : string) : void</text>
<text text-anchor="start" x="983" y="-462.6" font-family="Verdana" font-size="8.00">+ getLongVersion() : string</text>
<text text-anchor="start" x="983" y="-449.6" font-family="Verdana" font-size="8.00">+ register(name : string) : Symfony\Component\Console\Command\Command</text>
<text text-anchor="start" x="983" y="-436.6" font-family="Verdana" font-size="8.00">+ addCommands(commands : array) : void</text>
<text text-anchor="start" x="983" y="-423.6" font-family="Verdana" font-size="8.00">+ add(command : Symfony\Component\Console\Command\Command) : ?Symfony\Component\Console\Command\Command</text>
<text text-anchor="start" x="983" y="-410.6" font-family="Verdana" font-size="8.00">+ get(name : string) : Symfony\Component\Console\Command\Command</text>
<text text-anchor="start" x="983" y="-397.6" font-family="Verdana" font-size="8.00">+ has(name : string) : bool</text>
<text text-anchor="start" x="983" y="-384.6" font-family="Verdana" font-size="8.00">+ getNamespaces() : array</text>
<text text-anchor="start" x="983" y="-371.6" font-family="Verdana" font-size="8.00">+ findNamespace(namespace : string) : string</text>
<text text-anchor="start" x="983" y="-358.6" font-family="Verdana" font-size="8.00">+ find(name : string) : Symfony\Component\Console\Command\Command</text>
<text text-anchor="start" x="983" y="-345.6" font-family="Verdana" font-size="8.00">+ all(namespace : string = «unknown») : array</text>
<text text-anchor="start" x="983" y="-332.6" font-family="Verdana" font-size="8.00">+ «static» getAbbreviations(names : array) : array</text>
<text text-anchor="start" x="983" y="-319.6" font-family="Verdana" font-size="8.00">+ renderThrowable(e : Throwable, output : Symfony\Component\Console\Output\OutputInterface) : void</text>
<text text-anchor="start" x="983" y="-306.6" font-family="Verdana" font-size="8.00">+ extractNamespace(name : string, limit : int = «unknown») : string</text>
<text text-anchor="start" x="983" y="-293.6" font-family="Verdana" font-size="8.00">+ setDefaultCommand(commandName : string, isSingleCommand : bool = false) : static</text>
<text text-anchor="start" x="983" y="-280.6" font-family="Verdana" font-size="8.00">+ isSingleCommand() : bool</text>
</g>
<!-- Bartlett\\UmlWriter\\Console\\Application&#45;&gt;Symfony\\Component\\Console\\Application -->
<g id="edge3" class="edge">
<title>Bartlett\\UmlWriter\\Console\\Application&#45;&gt;Symfony\\Component\\Console\\Application</title>
<path fill="none" stroke="black" d="M1324,-847.78C1324,-836.95 1324,-824.73 1324,-811.56"/>
<polygon fill="none" stroke="black" points="1327.5,-811.31 1324,-801.31 1320.5,-811.31 1327.5,-811.31"/>
</g>
<!-- Symfony\\Contracts\\Service\\ResetInterface -->
<g id="node7" class="node">
<title>Symfony\\Contracts\\Service\\ResetInterface</title>
<polygon fill="#fefece" stroke="transparent" points="1370.5,-211 1277.5,-211 1277.5,-164 1370.5,-164 1370.5,-211"/>
<polygon fill="#eeeeee" stroke="transparent" points="1278,-188.5 1278,-210.5 1371,-210.5 1371,-188.5 1278,-188.5"/>
<polygon fill="none" stroke="black" points="1278,-188.5 1278,-210.5 1371,-210.5 1371,-188.5 1278,-188.5"/>
<text text-anchor="start" x="1298.5" y="-202.1" font-family="Verdana" font-weight="bold" font-size="8.00">«interface»</text>
<text text-anchor="start" x="1291.5" y="-194.1" font-family="Verdana" font-weight="bold" font-size="8.00">ResetInterface</text>
<polygon fill="none" stroke="black" points="1278,-182.5 1278,-188.5 1371,-188.5 1371,-182.5 1278,-182.5"/>
<polygon fill="none" stroke="black" points="1278,-163.5 1278,-182.5 1371,-182.5 1371,-163.5 1278,-163.5"/>
<text text-anchor="start" x="1283" y="-171.1" font-family="Verdana" font-size="8.00">+ «abstract» reset()</text>
</g>
<!-- Symfony\\Component\\Console\\Application&#45;&gt;Symfony\\Contracts\\Service\\ResetInterface -->
<g id="edge2" class="edge">
<title>Symfony\\Component\\Console\\Application&#45;&gt;Symfony\\Contracts\\Service\\ResetInterface</title>
<path fill="none" stroke="black" stroke-dasharray="5,2" d="M1324,-272.62C1324,-253.05 1324,-235.57 1324,-221.68"/>
<polygon fill="none" stroke="black" points="1327.5,-221.34 1324,-211.34 1320.5,-221.34 1327.5,-221.34"/>
</g>
<!-- Bartlett\\UmlWriter\\Console\\Command\\ClassDiagramCommand -->
<g id="node8" class="node">
<title>Bartlett\\UmlWriter\\Console\\Command\\ClassDiagramCommand</title>
<polygon fill="#fefece" stroke="transparent" points="2426.5,-921 1683.5,-921 1683.5,-874 2426.5,-874 2426.5,-921"/>
<polygon fill="#eeeeee" stroke="transparent" points="1684,-898.5 1684,-920.5 2427,-920.5 2427,-898.5 1684,-898.5"/>
<polygon fill="none" stroke="black" points="1684,-898.5 1684,-920.5 2427,-920.5 2427,-898.5 1684,-898.5"/>
<text text-anchor="start" x="2002" y="-904.1" font-family="Verdana" font-weight="bold" font-size="8.00">ClassDiagramCommand</text>
<polygon fill="none" stroke="black" points="1684,-892.5 1684,-898.5 2427,-898.5 2427,-892.5 1684,-892.5"/>
<polygon fill="none" stroke="black" points="1684,-873.5 1684,-892.5 2427,-892.5 2427,-873.5 1684,-873.5"/>
<text text-anchor="start" x="1689" y="-881.1" font-family="Verdana" font-size="8.00">+ __construct(renderer : Bartlett\UmlWriter\Service\ClassDiagramRenderer, generatorFactory : Bartlett\UmlWriter\Generator\GeneratorFactoryInterface, name : string = «unknown»)</text>
</g>
<!-- Symfony\\Component\\Console\\Command\\Command -->
<g id="node9" class="node">
<title>Symfony\\Component\\Console\\Command\\Command</title>
<polygon fill="#fefece" stroke="transparent" points="2401,-775 1709,-775 1709,-299 2401,-299 2401,-775"/>
<polygon fill="#eeeeee" stroke="transparent" points="1709,-753 1709,-775 2401,-775 2401,-753 1709,-753"/>
<polygon fill="none" stroke="black" points="1709,-753 1709,-775 2401,-775 2401,-753 1709,-753"/>
<text text-anchor="start" x="2032" y="-758.6" font-family="Verdana" font-weight="bold" font-size="8.00">Command</text>
<polygon fill="none" stroke="black" points="1709,-747 1709,-753 2401,-753 2401,-747 1709,-747"/>
<polygon fill="none" stroke="black" points="1709,-299 1709,-747 2401,-747 2401,-299 1709,-299"/>
<text text-anchor="start" x="1714" y="-735.6" font-family="Verdana" font-size="8.00">+ «static» getDefaultName() : ?string</text>
<text text-anchor="start" x="1714" y="-722.6" font-family="Verdana" font-size="8.00">+ «static» getDefaultDescription() : ?string</text>
<text text-anchor="start" x="1714" y="-709.6" font-family="Verdana" font-size="8.00">+ __construct(name : string = «unknown»)</text>
<text text-anchor="start" x="1714" y="-696.6" font-family="Verdana" font-size="8.00">+ ignoreValidationErrors() : void</text>
<text text-anchor="start" x="1714" y="-683.6" font-family="Verdana" font-size="8.00">+ setApplication(application : Symfony\Component\Console\Application) : void</text>
<text text-anchor="start" x="1714" y="-670.6" font-family="Verdana" font-size="8.00">+ setHelperSet(helperSet : Symfony\Component\Console\Helper\HelperSet) : void</text>
<text text-anchor="start" x="1714" y="-657.6" font-family="Verdana" font-size="8.00">+ getHelperSet() : ?Symfony\Component\Console\Helper\HelperSet</text>
<text text-anchor="start" x="1714" y="-644.6" font-family="Verdana" font-size="8.00">+ getApplication() : ?Symfony\Component\Console\Application</text>
<text text-anchor="start" x="1714" y="-631.6" font-family="Verdana" font-size="8.00">+ isEnabled() : bool</text>
<text text-anchor="start" x="1714" y="-618.6" font-family="Verdana" font-size="8.00">+ run(input : Symfony\Component\Console\Input\InputInterface, output : Symfony\Component\Console\Output\OutputInterface) : int</text>
<text text-anchor="start" x="1714" y="-605.6" font-family="Verdana" font-size="8.00">+ complete(input : Symfony\Component\Console\Completion\CompletionInput, suggestions : Symfony\Component\Console\Completion\CompletionSuggestions) : void</text>
<text text-anchor="start" x="1714" y="-592.6" font-family="Verdana" font-size="8.00">+ setCode(code : callable) : static</text>
<text text-anchor="start" x="1714" y="-579.6" font-family="Verdana" font-size="8.00">+ mergeApplicationDefinition(mergeArgs : bool = true) : void</text>
<text text-anchor="start" x="1714" y="-566.6" font-family="Verdana" font-size="8.00">+ setDefinition(definition) : static</text>
<text text-anchor="start" x="1714" y="-553.6" font-family="Verdana" font-size="8.00">+ getDefinition() : Symfony\Component\Console\Input\InputDefinition</text>
<text text-anchor="start" x="1714" y="-540.6" font-family="Verdana" font-size="8.00">+ getNativeDefinition() : Symfony\Component\Console\Input\InputDefinition</text>
<text text-anchor="start" x="1714" y="-527.6" font-family="Verdana" font-size="8.00">+ addArgument(name : string, mode : int = «unknown», description : string = &#39;&#39;, default : mixed = «unknown», suggestedValues = []) : static</text>
<text text-anchor="start" x="1714" y="-514.6" font-family="Verdana" font-size="8.00">+ addOption(name : string, shortcut = «unknown», mode : int = «unknown», description : string = &#39;&#39;, default : mixed = «unknown», suggestedValues = []) : static</text>
<text text-anchor="start" x="1714" y="-501.6" font-family="Verdana" font-size="8.00">+ setName(name : string) : static</text>
<text text-anchor="start" x="1714" y="-488.6" font-family="Verdana" font-size="8.00">+ setProcessTitle(title : string) : static</text>
<text text-anchor="start" x="1714" y="-475.6" font-family="Verdana" font-size="8.00">+ getName() : ?string</text>
<text text-anchor="start" x="1714" y="-462.6" font-family="Verdana" font-size="8.00">+ setHidden(hidden : bool = true) : static</text>
<text text-anchor="start" x="1714" y="-449.6" font-family="Verdana" font-size="8.00">+ isHidden() : bool</text>
<text text-anchor="start" x="1714" y="-436.6" font-family="Verdana" font-size="8.00">+ setDescription(description : string) : static</text>
<text text-anchor="start" x="1714" y="-423.6" font-family="Verdana" font-size="8.00">+ getDescription() : string</text>
<text text-anchor="start" x="1714" y="-410.6" font-family="Verdana" font-size="8.00">+ setHelp(help : string) : static</text>
<text text-anchor="start" x="1714" y="-397.6" font-family="Verdana" font-size="8.00">+ getHelp() : string</text>
<text text-anchor="start" x="1714" y="-384.6" font-family="Verdana" font-size="8.00">+ getProcessedHelp() : string</text>
<text text-anchor="start" x="1714" y="-371.6" font-family="Verdana" font-size="8.00">+ setAliases(aliases : iterable) : static</text>
<text text-anchor="start" x="1714" y="-358.6" font-family="Verdana" font-size="8.00">+ getAliases() : array</text>
<text text-anchor="start" x="1714" y="-345.6" font-family="Verdana" font-size="8.00">+ getSynopsis(short : bool = false) : string</text>
<text text-anchor="start" x="1714" y="-332.6" font-family="Verdana" font-size="8.00">+ addUsage(usage : string) : static</text>
<text text-anchor="start" x="1714" y="-319.6" font-family="Verdana" font-size="8.00">+ getUsages() : array</text>
<text text-anchor="start" x="1714" y="-306.6" font-family="Verdana" font-size="8.00">+ getHelper(name : string) : Symfony\Component\Console\Helper\HelperInterface</text>
</g>
<!-- Bartlett\\UmlWriter\\Console\\Command\\ClassDiagramCommand&#45;&gt;Symfony\\Component\\Console\\Command\\Command -->
<g id="edge4" class="edge">
<title>Bartlett\\UmlWriter\\Console\\Command\\ClassDiagramCommand&#45;&gt;Symfony\\Component\\Console\\Command\\Command</title>
<path fill="none" stroke="black" d="M2055,-873.8C2055,-853.61 2055,-821.73 2055,-785.47"/>
<polygon fill="none" stroke="black" points="2058.5,-785.13 2055,-775.13 2051.5,-785.13 2058.5,-785.13"/>
</g>
<!-- Bartlett\\UmlWriter\\Config\\Loader\\YamlFileLoader -->
<g id="node10" class="node">
<title>Bartlett\\UmlWriter\\Config\\Loader\\YamlFileLoader</title>
<polygon fill="#fefece" stroke="transparent" points="2886.5,-927.5 2633.5,-927.5 2633.5,-867.5 2886.5,-867.5 2886.5,-927.5"/>
<polygon fill="#eeeeee" stroke="transparent" points="2634,-905.5 2634,-927.5 2887,-927.5 2887,-905.5 2634,-905.5"/>
<polygon fill="none" stroke="black" points="2634,-905.5 2634,-927.5 2887,-927.5 2887,-905.5 2634,-905.5"/>
<text text-anchor="start" x="2725.5" y="-911.1" font-family="Verdana" font-weight="bold" font-size="8.00">YamlFileLoader</text>
<polygon fill="none" stroke="black" points="2634,-899.5 2634,-905.5 2887,-905.5 2887,-899.5 2634,-899.5"/>
<polygon fill="none" stroke="black" points="2634,-867.5 2634,-899.5 2887,-899.5 2887,-867.5 2634,-867.5"/>
<text text-anchor="start" x="2639" y="-888.1" font-family="Verdana" font-size="8.00">+ load(resource : mixed, type : string = «unknown») : array</text>
<text text-anchor="start" x="2639" y="-875.1" font-family="Verdana" font-size="8.00">+ supports(resource, type : string = «unknown») : bool</text>
</g>
<!-- Symfony\\Component\\Config\\Loader\\FileLoader -->
<g id="node11" class="node">
<title>Symfony\\Component\\Config\\Loader\\FileLoader</title>
<polygon fill="#fefece" stroke="transparent" points="3094.5,-580 2425.5,-580 2425.5,-494 3094.5,-494 3094.5,-580"/>
<polygon fill="#eeeeee" stroke="transparent" points="2426,-558 2426,-580 3095,-580 3095,-558 2426,-558"/>
<polygon fill="none" stroke="black" points="2426,-558 2426,-580 3095,-580 3095,-558 2426,-558"/>
<text text-anchor="start" x="2736.5" y="-571.6" font-family="Verdana" font-weight="bold" font-size="8.00">«abstract»</text>
<text text-anchor="start" x="2736.5" y="-563.6" font-family="Verdana" font-weight="bold" font-size="8.00">FileLoader</text>
<polygon fill="none" stroke="black" points="2426,-552 2426,-558 3095,-558 3095,-552 2426,-552"/>
<polygon fill="none" stroke="black" points="2426,-494 2426,-552 3095,-552 3095,-494 2426,-494"/>
<text text-anchor="start" x="2431" y="-540.6" font-family="Verdana" font-size="8.00">+ __construct(locator : Symfony\Component\Config\FileLocatorInterface, env : string = «unknown»)</text>
<text text-anchor="start" x="2431" y="-527.6" font-family="Verdana" font-size="8.00">+ setCurrentDir(dir : string) : void</text>
<text text-anchor="start" x="2431" y="-514.6" font-family="Verdana" font-size="8.00">+ getLocator() : Symfony\Component\Config\FileLocatorInterface</text>
<text text-anchor="start" x="2431" y="-501.6" font-family="Verdana" font-size="8.00">+ import(resource : mixed, type : string = «unknown», ignoreErrors : bool = false, sourceResource : string = «unknown», exclude : mixed = «unknown») : ?mixed</text>
</g>
<!-- Bartlett\\UmlWriter\\Config\\Loader\\YamlFileLoader&#45;&gt;Symfony\\Component\\Config\\Loader\\FileLoader -->
<g id="edge7" class="edge">
<title>Bartlett\\UmlWriter\\Config\\Loader\\YamlFileLoader&#45;&gt;Symfony\\Component\\Config\\Loader\\FileLoader</title>
<path fill="none" stroke="black" d="M2760,-867.47C2760,-807.05 2760,-667.06 2760,-590.44"/>
<polygon fill="none" stroke="black" points="2763.5,-590.06 2760,-580.06 2756.5,-590.06 2763.5,-590.06"/>
</g>
<!-- Symfony\\Component\\Config\\Loader\\Loader -->
<g id="node12" class="node">
<title>Symfony\\Component\\Config\\Loader\\Loader</title>
<polygon fill="#fefece" stroke="transparent" points="2989,-237 2531,-237 2531,-138 2989,-138 2989,-237"/>
<polygon fill="#eeeeee" stroke="transparent" points="2531,-214.5 2531,-236.5 2989,-236.5 2989,-214.5 2531,-214.5"/>
<polygon fill="none" stroke="black" points="2531,-214.5 2531,-236.5 2989,-236.5 2989,-214.5 2531,-214.5"/>
<text text-anchor="start" x="2736" y="-228.1" font-family="Verdana" font-weight="bold" font-size="8.00">«abstract»</text>
<text text-anchor="start" x="2744.5" y="-220.1" font-family="Verdana" font-weight="bold" font-size="8.00">Loader</text>
<polygon fill="none" stroke="black" points="2531,-208.5 2531,-214.5 2989,-214.5 2989,-208.5 2531,-208.5"/>
<polygon fill="none" stroke="black" points="2531,-137.5 2531,-208.5 2989,-208.5 2989,-137.5 2531,-137.5"/>
<text text-anchor="start" x="2536" y="-197.1" font-family="Verdana" font-size="8.00">+ __construct(env : string = «unknown»)</text>
<text text-anchor="start" x="2536" y="-184.1" font-family="Verdana" font-size="8.00">+ getResolver() : Symfony\Component\Config\Loader\LoaderResolverInterface</text>
<text text-anchor="start" x="2536" y="-171.1" font-family="Verdana" font-size="8.00">+ setResolver(resolver : Symfony\Component\Config\Loader\LoaderResolverInterface) : void</text>
<text text-anchor="start" x="2536" y="-158.1" font-family="Verdana" font-size="8.00">+ import(resource : mixed, type : string = «unknown») : ?mixed</text>
<text text-anchor="start" x="2536" y="-145.1" font-family="Verdana" font-size="8.00">+ resolve(resource : mixed, type : string = «unknown») : Symfony\Component\Config\Loader\LoaderInterface</text>
</g>
<!-- Symfony\\Component\\Config\\Loader\\FileLoader&#45;&gt;Symfony\\Component\\Config\\Loader\\Loader -->
<g id="edge6" class="edge">
<title>Symfony\\Component\\Config\\Loader\\FileLoader&#45;&gt;Symfony\\Component\\Config\\Loader\\Loader</title>
<path fill="none" stroke="black" d="M2760,-493.74C2760,-432.14 2760,-317.46 2760,-247.56"/>
<polygon fill="none" stroke="black" points="2763.5,-247.16 2760,-237.16 2756.5,-247.16 2763.5,-247.16"/>
</g>
<!-- Symfony\\Component\\Config\\Loader\\LoaderInterface -->
<g id="node13" class="node">
<title>Symfony\\Component\\Config\\Loader\\LoaderInterface</title>
<polygon fill="#fefece" stroke="transparent" points="2977.5,-102 2542.5,-102 2542.5,-16 2977.5,-16 2977.5,-102"/>
<polygon fill="#eeeeee" stroke="transparent" points="2543,-80 2543,-102 2978,-102 2978,-80 2543,-80"/>
<polygon fill="none" stroke="black" points="2543,-80 2543,-102 2978,-102 2978,-80 2543,-80"/>
<text text-anchor="start" x="2734.5" y="-93.6" font-family="Verdana" font-weight="bold" font-size="8.00">«interface»</text>
<text text-anchor="start" x="2724.5" y="-85.6" font-family="Verdana" font-weight="bold" font-size="8.00">LoaderInterface</text>
<polygon fill="none" stroke="black" points="2543,-74 2543,-80 2978,-80 2978,-74 2543,-74"/>
<polygon fill="none" stroke="black" points="2543,-16 2543,-74 2978,-74 2978,-16 2543,-16"/>
<text text-anchor="start" x="2548" y="-62.6" font-family="Verdana" font-size="8.00">+ «abstract» load(resource : mixed, type : string = «unknown») : ?mixed</text>
<text text-anchor="start" x="2548" y="-49.6" font-family="Verdana" font-size="8.00">+ «abstract» supports(resource : mixed, type : string = «unknown») : bool</text>
<text text-anchor="start" x="2548" y="-36.6" font-family="Verdana" font-size="8.00">+ «abstract» getResolver() : Symfony\Component\Config\Loader\LoaderResolverInterface</text>
<text text-anchor="start" x="2548" y="-23.6" font-family="Verdana" font-size="8.00">+ «abstract» setResolver(resolver : Symfony\Component\Config\Loader\LoaderResolverInterface) : void</text>
</g>
<!-- Symfony\\Component\\Config\\Loader\\Loader&#45;&gt;Symfony\\Component\\Config\\Loader\\LoaderInterface -->
<g id="edge5" class="edge">
<title>Symfony\\Component\\Config\\Loader\\Loader&#45;&gt;Symfony\\Component\\Config\\Loader\\LoaderInterface</title>
<path fill="none" stroke="black" stroke-dasharray="5,2" d="M2760,-137.95C2760,-129.53 2760,-120.74 2760,-112.23"/>
<polygon fill="none" stroke="black" points="2763.5,-112.02 2760,-102.02 2756.5,-112.02 2763.5,-112.02"/>
</g>
<!-- Bartlett\\UmlWriter\\Generator\\GeneratorFactoryInterface -->
<g id="node14" class="node">
<title>Bartlett\\UmlWriter\\Generator\\GeneratorFactoryInterface</title>
<polygon fill="#fefece" stroke="transparent" points="3666.5,-560.5 3119.5,-560.5 3119.5,-513.5 3666.5,-513.5 3666.5,-560.5"/>
<polygon fill="#eeeeee" stroke="transparent" points="3120,-538 3120,-560 3667,-560 3667,-538 3120,-538"/>
<polygon fill="none" stroke="black" points="3120,-538 3120,-560 3667,-560 3667,-538 3120,-538"/>
<text text-anchor="start" x="3367.5" y="-551.6" font-family="Verdana" font-weight="bold" font-size="8.00">«interface»</text>
<text text-anchor="start" x="3334" y="-543.6" font-family="Verdana" font-weight="bold" font-size="8.00">GeneratorFactoryInterface</text>
<polygon fill="none" stroke="black" points="3120,-532 3120,-538 3667,-538 3667,-532 3120,-532"/>
<polygon fill="none" stroke="black" points="3120,-513 3120,-532 3667,-532 3667,-513 3120,-513"/>
<text text-anchor="start" x="3125" y="-520.6" font-family="Verdana" font-size="8.00">+ «abstract» createInstance(provider : string, format : string, executable : string) : Bartlett\GraphUml\Generator\GeneratorInterface</text>
</g>
<!-- Bartlett\\UmlWriter\\Generator\\GeneratorFactory -->
<g id="node15" class="node">
<title>Bartlett\\UmlWriter\\Generator\\GeneratorFactory</title>
<polygon fill="#fefece" stroke="transparent" points="3666,-921 3120,-921 3120,-874 3666,-874 3666,-921"/>
<polygon fill="#eeeeee" stroke="transparent" points="3120,-898.5 3120,-920.5 3666,-920.5 3666,-898.5 3120,-898.5"/>
<polygon fill="none" stroke="black" points="3120,-898.5 3120,-920.5 3666,-920.5 3666,-898.5 3120,-898.5"/>
<text text-anchor="start" x="3353.5" y="-904.1" font-family="Verdana" font-weight="bold" font-size="8.00">GeneratorFactory</text>
<polygon fill="none" stroke="black" points="3120,-892.5 3120,-898.5 3666,-898.5 3666,-892.5 3120,-892.5"/>
<polygon fill="none" stroke="black" points="3120,-873.5 3120,-892.5 3666,-892.5 3666,-873.5 3120,-873.5"/>
<text text-anchor="start" x="3125" y="-881.1" font-family="Verdana" font-size="8.00">+ createInstance(provider : string, format : string = &#39;svg&#39;, executable : string = &#39;&#39;) : Bartlett\GraphUml\Generator\GeneratorInterface</text>
</g>
<!-- Bartlett\\UmlWriter\\Generator\\GeneratorFactory&#45;&gt;Bartlett\\UmlWriter\\Generator\\GeneratorFactoryInterface -->
<g id="edge8" class="edge">
<title>Bartlett\\UmlWriter\\Generator\\GeneratorFactory&#45;&gt;Bartlett\\UmlWriter\\Generator\\GeneratorFactoryInterface</title>
<path fill="none" stroke="black" stroke-dasharray="5,2" d="M3393,-873.8C3393,-812.46 3393,-643.15 3393,-571.12"/>
<polygon fill="none" stroke="black" points="3396.5,-570.83 3393,-560.83 3389.5,-570.83 3396.5,-570.83"/>
</g>
</g>
</svg>
