<?xml version="1.0" encoding="UTF-8" standalone="no"?>
<!DOCTYPE svg PUBLIC "-//W3C//DTD SVG 1.1//EN"
 "http://www.w3.org/Graphics/SVG/1.1/DTD/svg11.dtd">
<!-- Generated by graphviz version 2.43.0 (0)
 -->
<!-- Title: %3 Pages: 1 -->
<svg width="3691pt" height="1013pt"
 viewBox="0.00 0.00 3691.00 1013.00" xmlns="http://www.w3.org/2000/svg" xmlns:xlink="http://www.w3.org/1999/xlink">
<g id="graph0" class="graph" transform="scale(1 1) rotate(0) translate(4 1009)">
<title>%3</title>
<g id="clust1" class="cluster">
<title>cluster_0</title>
<polygon fill="transparent" stroke="black" points="8,-856 8,-981 973,-981 973,-856 8,-856"/>
<text text-anchor="middle" x="490.5" y="-965.8" font-family="Times,serif" font-size="14.00">Bartlett\UmlWriter\Service</text>
</g>
<g id="clust2" class="cluster">
<title>cluster_1</title>
<polygon fill="transparent" stroke="black" points="582,-499 582,-598 750,-598 750,-499 582,-499"/>
<text text-anchor="middle" x="666" y="-582.8" font-family="Times,serif" font-size="14.00">Psr\Container</text>
</g>
<g id="clust3" class="cluster">
<title>cluster_2</title>
<polygon fill="transparent" stroke="black" points="981,-840 981,-997 1667,-997 1667,-840 981,-840"/>
<text text-anchor="middle" x="1324" y="-981.8" font-family="Times,serif" font-size="14.00">Bartlett\UmlWriter\Console</text>
</g>
<g id="clust4" class="cluster">
<title>cluster_3</title>
<polygon fill="transparent" stroke="black" points="970,-265 970,-832 1678,-832 1678,-265 970,-265"/>
<text text-anchor="middle" x="1324" y="-816.8" font-family="Times,serif" font-size="14.00">Symfony\Component\Console</text>
</g>
<g id="clust5" class="cluster">
<title>cluster_4</title>
<polygon fill="transparent" stroke="black" points="1219,-156 1219,-242 1430,-242 1430,-156 1219,-156"/>
<text text-anchor="middle" x="1324.5" y="-226.8" font-family="Times,serif" font-size="14.00">Symfony\Contracts\Service</text>
</g>
<g id="clust6" class="cluster">
<title>cluster_5</title>
<polygon fill="transparent" stroke="black" points="1675,-875.5 1675,-961.5 2435,-961.5 2435,-875.5 1675,-875.5"/>
<text text-anchor="middle" x="2055" y="-946.3" font-family="Times,serif" font-size="14.00">Bartlett\UmlWriter\Console\Command</text>
</g>
<g id="clust7" class="cluster">
<title>cluster_6</title>
<polygon fill="transparent" stroke="black" points="1701,-268.5 1701,-828.5 2409,-828.5 2409,-268.5 1701,-268.5"/>
<text text-anchor="middle" x="2055" y="-813.3" font-family="Times,serif" font-size="14.00">Symfony\Component\Console\Command</text>
</g>
<g id="clust8" class="cluster">
<title>cluster_7</title>
<polygon fill="transparent" stroke="black" points="2625,-869 2625,-968 2895,-968 2895,-869 2625,-869"/>
<text text-anchor="middle" x="2760" y="-952.8" font-family="Times,serif" font-size="14.00">Bartlett\UmlWriter\Config\Loader</text>
</g>
<g id="clust9" class="cluster">
<title>cluster_8</title>
<polygon fill="transparent" stroke="black" points="2417,-8 2417,-611 3103,-611 3103,-8 2417,-8"/>
<text text-anchor="middle" x="2760" y="-595.8" font-family="Times,serif" font-size="14.00">Symfony\Component\Config\Loader</text>
</g>
<g id="clust10" class="cluster">
<title>cluster_9</title>
<polygon fill="transparent" stroke="black" points="3111,-505.5 3111,-961.5 3675,-961.5 3675,-505.5 3111,-505.5"/>
<text text-anchor="middle" x="3393" y="-946.3" font-family="Times,serif" font-size="14.00">Bartlett\UmlWriter\Generator</text>
</g>
<!-- Bartlett\\UmlWriter\\Service\\ConfigurationHandler -->
<g id="node1" class="node">
<title>Bartlett\\UmlWriter\\Service\\ConfigurationHandler</title>
<polygon fill="#fefece" stroke="transparent" points="964.5,-950 767.5,-950 767.5,-864 964.5,-864 964.5,-950"/>
<polygon fill="#eeeeee" stroke="transparent" points="768,-928 768,-950 965,-950 965,-928 768,-928"/>
<polygon fill="none" stroke="black" points="768,-928 768,-950 965,-950 965,-928 768,-928"/>
<text text-anchor="start" x="817" y="-933.6" font-family="Verdana" font-weight="bold" font-size="8.00">ConfigurationHandler</text>
<polygon fill="none" stroke="black" points="768,-922 768,-928 965,-928 965,-922 768,-922"/>
<polygon fill="none" stroke="black" points="768,-864 768,-922 965,-922 965,-864 768,-864"/>
<text text-anchor="start" x="773" y="-910.6" font-family="Verdana" font-size="8.00">+ __construct(filename : string = «unknown»)</text>
<text text-anchor="start" x="773" y="-897.6" font-family="Verdana" font-size="8.00">+ «static» getDefaults() : array</text>
<text text-anchor="start" x="773" y="-884.6" font-family="Verdana" font-size="8.00">+ toArray() : array</text>
<text text-anchor="start" x="773" y="-871.6" font-family="Verdana" font-size="8.00">+ toFlat() : array</text>
</g>
<!-- Bartlett\\UmlWriter\\Service\\ContainerService -->
<g id="node2" class="node">
<title>Bartlett\\UmlWriter\\Service\\ContainerService</title>
<polygon fill="#fefece" stroke="transparent" points="749.5,-950 582.5,-950 582.5,-864 749.5,-864 749.5,-950"/>
<polygon fill="#eeeeee" stroke="transparent" points="583,-928 583,-950 750,-950 750,-928 583,-928"/>
<polygon fill="none" stroke="black" points="583,-928 583,-950 750,-950 750,-928 583,-928"/>
<text text-anchor="start" x="627.5" y="-933.6" font-family="Verdana" font-weight="bold" font-size="8.00">ContainerService</text>
<polygon fill="none" stroke="black" points="583,-922 583,-928 750,-928 750,-922 583,-922"/>
<polygon fill="none" stroke="black" points="583,-864 583,-922 750,-922 750,-864 583,-864"/>
<text text-anchor="start" x="588" y="-910.6" font-family="Verdana" font-size="8.00">+ __construct()</text>
<text text-anchor="start" x="588" y="-897.6" font-family="Verdana" font-size="8.00">+ set(id : string, service : mixed) : void</text>
<text text-anchor="start" x="588" y="-884.6" font-family="Verdana" font-size="8.00">+ get(id : string) : ?mixed</text>
<text text-anchor="start" x="588" y="-871.6" font-family="Verdana" font-size="8.00">+ has(id : string) : bool</text>
</g>
<!-- Psr\\Container\\ContainerInterface -->
<g id="node4" class="node">
<title>Psr\\Container\\ContainerInterface</title>
<polygon fill="#fefece" stroke="transparent" points="741.5,-567 590.5,-567 590.5,-507 741.5,-507 741.5,-567"/>
<polygon fill="#eeeeee" stroke="transparent" points="591,-545 591,-567 742,-567 742,-545 591,-545"/>
<polygon fill="none" stroke="black" points="591,-545 591,-567 742,-567 742,-545 591,-545"/>
<text text-anchor="start" x="640.5" y="-558.6" font-family="Verdana" font-weight="bold" font-size="8.00">«interface»</text>
<text text-anchor="start" x="624" y="-550.6" font-family="Verdana" font-weight="bold" font-size="8.00">ContainerInterface</text>
<polygon fill="none" stroke="black" points="591,-539 591,-545 742,-545 742,-539 591,-539"/>
<polygon fill="none" stroke="black" points="591,-507 591,-539 742,-539 742,-507 591,-507"/>
<text text-anchor="start" x="596" y="-527.6" font-family="Verdana" font-size="8.00">+ «abstract» get(id : string)</text>
<text text-anchor="start" x="596" y="-514.6" font-family="Verdana" font-size="8.00">+ «abstract» has(id : string) : bool</text>
</g>
<!-- Bartlett\\UmlWriter\\Service\\ContainerService&#45;&gt;Psr\\Container\\ContainerInterface -->
<g id="edge1" class="edge">
<title>Bartlett\\UmlWriter\\Service\\ContainerService&#45;&gt;Psr\\Container\\ContainerInterface</title>
<path fill="none" stroke="black" stroke-dasharray="5,2" d="M666,-863.79C666,-791.96 666,-646.98 666,-577.23"/>
<polygon fill="none" stroke="black" points="669.5,-577.11 666,-567.11 662.5,-577.11 669.5,-577.11"/>
</g>
<!-- Bartlett\\UmlWriter\\Service\\ClassDiagramRenderer -->
<g id="node3" class="node">
<title>Bartlett\\UmlWriter\\Service\\ClassDiagramRenderer</title>
<polygon fill="#fefece" stroke="transparent" points="564,-937 16,-937 16,-877 564,-877 564,-937"/>
<polygon fill="#eeeeee" stroke="transparent" points="16,-915 16,-937 564,-937 564,-915 16,-915"/>
<polygon fill="none" stroke="black" points="16,-915 16,-937 564,-937 564,-915 16,-915"/>
<text text-anchor="start" x="238.5" y="-920.6" font-family="Verdana" font-weight="bold" font-size="8.00">ClassDiagramRenderer</text>
<polygon fill="none" stroke="black" points="16,-909 16,-915 564,-915 564,-909 16,-909"/>
<polygon fill="none" stroke="black" points="16,-877 16,-909 564,-909 564,-877 16,-877"/>
<text text-anchor="start" x="21" y="-897.6" font-family="Verdana" font-size="8.00">+ __invoke(datasource, generator : Bartlett\GraphUml\Generator\GeneratorInterface, parameters : array = []) : Graphp\Graph\Graph</text>
<text text-anchor="start" x="21" y="-884.6" font-family="Verdana" font-size="8.00">+ getMetadata() : array</text>
</g>
<!-- Bartlett\\UmlWriter\\Console\\Application -->
<g id="node5" class="node">
<title>Bartlett\\UmlWriter\\Console\\Application</title>
<polygon fill="#fefece" stroke="transparent" points="1658.5,-966 989.5,-966 989.5,-848 1658.5,-848 1658.5,-966"/>
<polygon fill="#eeeeee" stroke="transparent" points="990,-944 990,-966 1659,-966 1659,-944 990,-944"/>
<polygon fill="none" stroke="black" points="990,-944 990,-966 1659,-966 1659,-944 990,-944"/>
<text text-anchor="start" x="1298.5" y="-949.6" font-family="Verdana" font-weight="bold" font-size="8.00">Application</text>
<polygon fill="none" stroke="black" points="990,-925 990,-944 1659,-944 1659,-925 990,-925"/>
<text text-anchor="start" x="995" y="-932.6" font-family="Verdana" font-size="8.00">+ «static» NAME : string = &quot;umlWriter&quot; {readOnly}</text>
<polygon fill="none" stroke="black" points="990,-919 990,-925 1659,-925 1659,-919 990,-919"/>
<polygon fill="none" stroke="black" points="990,-848 990,-919 1659,-919 1659,-848 990,-848"/>
<text text-anchor="start" x="995" y="-907.6" font-family="Verdana" font-size="8.00">+ __construct(container : Psr\Container\ContainerInterface)</text>
<text text-anchor="start" x="995" y="-894.6" font-family="Verdana" font-size="8.00">+ getHelp() : string</text>
<text text-anchor="start" x="995" y="-881.6" font-family="Verdana" font-size="8.00">+ getLongVersion() : string</text>
<text text-anchor="start" x="995" y="-868.6" font-family="Verdana" font-size="8.00">+ doRun(input : Symfony\Component\Console\Input\InputInterface, output : Symfony\Component\Console\Output\OutputInterface) : int</text>
<text text-anchor="start" x="995" y="-855.6" font-family="Verdana" font-size="8.00">+ run(input : Symfony\Component\Console\Input\InputInterface = «unknown», output : Symfony\Component\Console\Output\OutputInterface = «unknown») : int</text>
</g>
<!-- Symfony\\Component\\Console\\Application -->
<g id="node6" class="node">
<title>Symfony\\Component\\Console\\Application</title>
<polygon fill="#fefece" stroke="transparent" points="1670,-801 978,-801 978,-273 1670,-273 1670,-801"/>
<polygon fill="#eeeeee" stroke="transparent" points="978,-779 978,-801 1670,-801 1670,-779 978,-779"/>
<polygon fill="none" stroke="black" points="978,-779 978,-801 1670,-801 1670,-779 978,-779"/>
<text text-anchor="start" x="1298" y="-784.6" font-family="Verdana" font-weight="bold" font-size="8.00">Application</text>
<polygon fill="none" stroke="black" points="978,-773 978,-779 1670,-779 1670,-773 978,-773"/>
<polygon fill="none" stroke="black" points="978,-273 978,-773 1670,-773 1670,-273 978,-273"/>
<text text-anchor="start" x="983" y="-761.6" font-family="Verdana" font-size="8.00">+ __construct(name : string = &#39;UNKNOWN&#39;, version : string = &#39;UNKNOWN&#39;)</text>
<text text-anchor="start" x="983" y="-748.6" font-family="Verdana" font-size="8.00">+ setDispatcher(dispatcher : Symfony\Contracts\EventDispatcher\EventDispatcherInterface) : void</text>
<text text-anchor="start" x="983" y="-735.6" font-family="Verdana" font-size="8.00">+ setCommandLoader(commandLoader : Symfony\Component\Console\CommandLoader\CommandLoaderInterface) : void</text>
<text text-anchor="start" x="983" y="-722.6" font-family="Verdana" font-size="8.00">+ getSignalRegistry() : Symfony\Component\Console\SignalRegistry\SignalRegistry</text>
<text text-anchor="start" x="983" y="-709.6" font-family="Verdana" font-size="8.00">+ setSignalsToDispatchEvent(signalsToDispatchEvent : int = «unknown») : void</text>
<text text-anchor="start" x="983" y="-696.6" font-family="Verdana" font-size="8.00">+ run(input : Symfony\Component\Console\Input\InputInterface = «unknown», output : Symfony\Component\Console\Output\OutputInterface = «unknown») : int</text>
<text text-anchor="start" x="983" y="-683.6" font-family="Verdana" font-size="8.00">+ doRun(input : Symfony\Component\Console\Input\InputInterface, output : Symfony\Component\Console\Output\OutputInterface) : int</text>
<text text-anchor="start" x="983" y="-670.6" font-family="Verdana" font-size="8.00">+ reset() : void</text>
<text text-anchor="start" x="983" y="-657.6" font-family="Verdana" font-size="8.00">+ setHelperSet(helperSet : Symfony\Component\Console\Helper\HelperSet) : void</text>
<text text-anchor="start" x="983" y="-644.6" font-family="Verdana" font-size="8.00">+ getHelperSet() : Symfony\Component\Console\Helper\HelperSet</text>
<text text-anchor="start" x="983" y="-631.6" font-family="Verdana" font-size="8.00">+ setDefinition(definition : Symfony\Component\Console\Input\InputDefinition) : void</text>
<text text-anchor="start" x="983" y="-618.6" font-family="Verdana" font-size="8.00">+ getDefinition() : Symfony\Component\Console\Input\InputDefinition</text>
<text text-anchor="start" x="983" y="-605.6" font-family="Verdana" font-size="8.00">+ complete(input : Symfony\Component\Console\Completion\CompletionInput, suggestions : Symfony\Component\Console\Completion\CompletionSuggestions) : void</text>
<text text-anchor="start" x="983" y="-592.6" font-family="Verdana" font-size="8.00">+ getHelp() : string</text>
<text text-anchor="start" x="983" y="-579.6" font-family="Verdana" font-size="8.00">+ areExceptionsCaught() : bool</text>
<text text-anchor="start" x="983" y="-566.6" font-family="Verdana" font-size="8.00">+ setCatchExceptions(boolean : bool) : void</text>
<text text-anchor="start" x="983" y="-553.6" font-family="Verdana" font-size="8.00">+ setCatchErrors(catchErrors : bool = true) : void</text>
<text text-anchor="start" x="983" y="-540.6" font-family="Verdana" font-size="8.00">+ isAutoExitEnabled() : bool</text>
<text text-anchor="start" x="983" y="-527.6" font-family="Verdana" font-size="8.00">+ setAutoExit(boolean : bool) : void</text>
<text text-anchor="start" x="983" y="-514.6" font-family="Verdana" font-size="8.00">+ getName() : string</text>
<text text-anchor="start" x="983" y="-501.6" font-family="Verdana" font-size="8.00">+ setName(name : string) : void</text>
<text text-anchor="start" x="983" y="-488.6" font-family="Verdana" font-size="8.00">+ getVersion() : string</text>
<text text-anchor="start" x="983" y="-475.6" font-family="Verdana" font-size="8.00">+ setVersion(version : string) : void</text>
<text text-anchor="start" x="983" y="-462.6" font-family="Verdana" font-size="8.00">+ getLongVersion() : string</text>
<text text-anchor="start" x="983" y="-449.6" font-family="Verdana" font-size="8.00">+ register(name : string) : Symfony\Component\Console\Command\Command</text>
<text text-anchor="start" x="983" y="-436.6" font-family="Verdana" font-size="8.00">+ addCommands(commands : array) : void</text>
<text text-anchor="start" x="983" y="-423.6" font-family="Verdana" font-size="8.00">+ add(command : Symfony\Component\Console\Command\Command) : ?Symfony\Component\Console\Command\Command</text>
<text text-anchor="start" x="983" y="-410.6" font-family="Verdana" font-size="8.00">+ get(name : string) : Symfony\Component\Console\Command\Command</text>
<text text-anchor="start" x="983" y="-397.6" font-family="Verdana" font-size="8.00">+ has(name : string) : bool</text>
<text text-anchor="start" x="983" y="-384.6" font-family="Verdana" font-size="8.00">+ getNamespaces() : array</text>
<text text-anchor="start" x="983" y="-371.6" font-family="Verdana" font-size="8.00">+ findNamespace(namespace : string) : string</text>
<text text-anchor="start" x="983" y="-358.6" font-family="Verdana" font-size="8.00">+ find(name : string) : Symfony\Component\Console\Command\Command</text>
<text text-anchor="start" x="983" y="-345.6" font-family="Verdana" font-size="8.00">+ all(namespace : string = «unknown») : array</text>
<text text-anchor="start" x="983" y="-332.6" font-family="Verdana" font-size="8.00">+ «static» getAbbreviations(names : array) : array</text>
<text text-anchor="start" x="983" y="-319.6" font-family="Verdana" font-size="8.00">+ renderThrowable(e : Throwable, output : Symfony\Component\Console\Output\OutputInterface) : void</text>
<text text-anchor="start" x="983" y="-306.6" font-family="Verdana" font-size="8.00">+ extractNamespace(name : string, limit : int = «unknown») : string</text>
<text text-anchor="start" x="983" y="-293.6" font-family="Verdana" font-size="8.00">+ setDefaultCommand(commandName : string, isSingleCommand : bool = false) : static</text>
<text text-anchor="start" x="983" y="-280.6" font-family="Verdana" font-size="8.00">+ isSingleCommand() : bool</text>
</g>
<!-- Bartlett\\UmlWriter\\Console\\Application&#45;&gt;Symfony\\Component\\Console\\Application -->
<g id="edge3" class="edge">
<title>Bartlett\\UmlWriter\\Console\\Application&#45;&gt;Symfony\\Component\\Console\\Application</title>
<path fill="none" stroke="black" d="M1324,-847.69C1324,-836.63 1324,-824.4 1324,-811.39"/>
<polygon fill="none" stroke="black" points="1327.5,-811.29 1324,-801.29 1320.5,-811.29 1327.5,-811.29"/>
</g>
<!-- Symfony\\Contracts\\Service\\ResetInterface -->
<g id="node7" class="node">
<title>Symfony\\Contracts\\Service\\ResetInterface</title>
<polygon fill="#fefece" stroke="transparent" points="1370.5,-211 1277.5,-211 1277.5,-164 1370.5,-164 1370.5,-211"/>
<polygon fill="#eeeeee" stroke="transparent" points="1278,-188.5 1278,-210.5 1371,-210.5 1371,-188.5 1278,-188.5"/>
<polygon fill="none" stroke="black" points="1278,-188.5 1278,-210.5 1371,-210.5 1371,-188.5 1278,-188.5"/>
<text text-anchor="start" x="1298.5" y="-202.1" font-family="Verdana" font-weight="bold" font-size="8.00">«interface»</text>
<text text-anchor="start" x="1291.5" y="-194.1" font-family="Verdana" font-weight="bold" font-size="8.00">ResetInterface</text>
<polygon fill="none" stroke="black" points="1278,-182.5 1278,-188.5 1371,-188.5 1371,-182.5 1278,-182.5"/>
<polygon fill="none" stroke="black" points="1278,-163.5 1278,-182.5 1371,-182.5 1371,-163.5 1278,-163.5"/>
<text text-anchor="start" x="1283" y="-171.1" font-family="Verdana" font-size="8.00">+ «abstract» reset()</text>
</g>
<!-- Symfony\\Component\\Console\\Application&#45;&gt;Symfony\\Contracts\\Service\\ResetInterface -->
<g id="edge2" class="edge">
<title>Symfony\\Component\\Console\\Application&#45;&gt;Symfony\\Contracts\\Service\\ResetInterface</title>
<path fill="none" stroke="black" stroke-dasharray="5,2" d="M1324,-272.62C1324,-253.05 1324,-235.57 1324,-221.68"/>
<polygon fill="none" stroke="black" points="1327.5,-221.34 1324,-211.34 1320.5,-221.34 1327.5,-221.34"/>
</g>
<!-- Bartlett\\UmlWriter\\Console\\Command\\ClassDiagramCommand -->
<g id="node8" class="node">
<title>Bartlett\\UmlWriter\\Console\\Command\\ClassDiagramCommand</title>
<polygon fill="#fefece" stroke="transparent" points="2426.5,-930.5 1683.5,-930.5 1683.5,-883.5 2426.5,-883.5 2426.5,-930.5"/>
<polygon fill="#eeeeee" stroke="transparent" points="1684,-908 1684,-930 2427,-930 2427,-908 1684,-908"/>
<polygon fill="none" stroke="black" points="1684,-908 1684,-930 2427,-930 2427,-908 1684,-908"/>
<text text-anchor="start" x="2002" y="-913.6" font-family="Verdana" font-weight="bold" font-size="8.00">ClassDiagramCommand</text>
<polygon fill="none" stroke="black" points="1684,-902 1684,-908 2427,-908 2427,-902 1684,-902"/>
<polygon fill="none" stroke="black" points="1684,-883 1684,-902 2427,-902 2427,-883 1684,-883"/>
<text text-anchor="start" x="1689" y="-890.6" font-family="Verdana" font-size="8.00">+ __construct(renderer : Bartlett\UmlWriter\Service\ClassDiagramRenderer, generatorFactory : Bartlett\UmlWriter\Generator\GeneratorFactoryInterface, name : string = «unknown»)</text>
</g>
<!-- Symfony\\Component\\Console\\Command\\Command -->
<g id="node9" class="node">
<title>Symfony\\Component\\Console\\Command\\Command</title>
<polygon fill="#fefece" stroke="transparent" points="2401,-797.5 1709,-797.5 1709,-276.5 2401,-276.5 2401,-797.5"/>
<polygon fill="#eeeeee" stroke="transparent" points="1709,-775 1709,-797 2401,-797 2401,-775 1709,-775"/>
<polygon fill="none" stroke="black" points="1709,-775 1709,-797 2401,-797 2401,-775 1709,-775"/>
<text text-anchor="start" x="2032" y="-780.6" font-family="Verdana" font-weight="bold" font-size="8.00">Command</text>
<polygon fill="none" stroke="black" points="1709,-730 1709,-775 2401,-775 2401,-730 1709,-730"/>
<text text-anchor="start" x="1714" y="-763.6" font-family="Verdana" font-size="8.00">+ «static» SUCCESS : int = 0 {readOnly}</text>
<text text-anchor="start" x="1714" y="-750.6" font-family="Verdana" font-size="8.00">+ «static» FAILURE : int = 1 {readOnly}</text>
<text text-anchor="start" x="1714" y="-737.6" font-family="Verdana" font-size="8.00">+ «static» INVALID : int = 2 {readOnly}</text>
<polygon fill="none" stroke="black" points="1709,-724 1709,-730 2401,-730 2401,-724 1709,-724"/>
<polygon fill="none" stroke="black" points="1709,-276 1709,-724 2401,-724 2401,-276 1709,-276"/>
<text text-anchor="start" x="1714" y="-712.6" font-family="Verdana" font-size="8.00">+ «static» getDefaultName() : ?string</text>
<text text-anchor="start" x="1714" y="-699.6" font-family="Verdana" font-size="8.00">+ «static» getDefaultDescription() : ?string</text>
<text text-anchor="start" x="1714" y="-686.6" font-family="Verdana" font-size="8.00">+ __construct(name : string = «unknown»)</text>
<text text-anchor="start" x="1714" y="-673.6" font-family="Verdana" font-size="8.00">+ ignoreValidationErrors() : void</text>
<text text-anchor="start" x="1714" y="-660.6" font-family="Verdana" font-size="8.00">+ setApplication(application : Symfony\Component\Console\Application) : void</text>
<text text-anchor="start" x="1714" y="-647.6" font-family="Verdana" font-size="8.00">+ setHelperSet(helperSet : Symfony\Component\Console\Helper\HelperSet) : void</text>
<text text-anchor="start" x="1714" y="-634.6" font-family="Verdana" font-size="8.00">+ getHelperSet() : ?Symfony\Component\Console\Helper\HelperSet</text>
<text text-anchor="start" x="1714" y="-621.6" font-family="Verdana" font-size="8.00">+ getApplication() : ?Symfony\Component\Console\Application</text>
<text text-anchor="start" x="1714" y="-608.6" font-family="Verdana" font-size="8.00">+ isEnabled() : bool</text>
<text text-anchor="start" x="1714" y="-595.6" font-family="Verdana" font-size="8.00">+ run(input : Symfony\Component\Console\Input\InputInterface, output : Symfony\Component\Console\Output\OutputInterface) : int</text>
<text text-anchor="start" x="1714" y="-582.6" font-family="Verdana" font-size="8.00">+ complete(input : Symfony\Component\Console\Completion\CompletionInput, suggestions : Symfony\Component\Console\Completion\CompletionSuggestions) : void</text>
<text text-anchor="start" x="1714" y="-569.6" font-family="Verdana" font-size="8.00">+ setCode(code : callable) : static</text>
<text text-anchor="start" x="1714" y="-556.6" font-family="Verdana" font-size="8.00">+ mergeApplicationDefinition(mergeArgs : bool = true) : void</text>
<text text-anchor="start" x="1714" y="-543.6" font-family="Verdana" font-size="8.00">+ setDefinition(definition) : static</text>
<text text-anchor="start" x="1714" y="-530.6" font-family="Verdana" font-size="8.00">+ getDefinition() : Symfony\Component\Console\Input\InputDefinition</text>
<text text-anchor="start" x="1714" y="-517.6" font-family="Verdana" font-size="8.00">+ getNativeDefinition() : Symfony\Component\Console\Input\InputDefinition</text>
<text text-anchor="start" x="1714" y="-504.6" font-family="Verdana" font-size="8.00">+ addArgument(name : string, mode : int = «unknown», description : string = &#39;&#39;, default : mixed = «unknown», suggestedValues = []) : static</text>
<text text-anchor="start" x="1714" y="-491.6" font-family="Verdana" font-size="8.00">+ addOption(name : string, shortcut = «unknown», mode : int = «unknown», description : string = &#39;&#39;, default : mixed = «unknown», suggestedValues = []) : static</text>
<text text-anchor="start" x="1714" y="-478.6" font-family="Verdana" font-size="8.00">+ setName(name : string) : static</text>
<text text-anchor="start" x="1714" y="-465.6" font-family="Verdana" font-size="8.00">+ setProcessTitle(title : string) : static</text>
<text text-anchor="start" x="1714" y="-452.6" font-family="Verdana" font-size="8.00">+ getName() : ?string</text>
<text text-anchor="start" x="1714" y="-439.6" font-family="Verdana" font-size="8.00">+ setHidden(hidden : bool = true) : static</text>
<text text-anchor="start" x="1714" y="-426.6" font-family="Verdana" font-size="8.00">+ isHidden() : bool</text>
<text text-anchor="start" x="1714" y="-413.6" font-family="Verdana" font-size="8.00">+ setDescription(description : string) : static</text>
<text text-anchor="start" x="1714" y="-400.6" font-family="Verdana" font-size="8.00">+ getDescription() : string</text>
<text text-anchor="start" x="1714" y="-387.6" font-family="Verdana" font-size="8.00">+ setHelp(help : string) : static</text>
<text text-anchor="start" x="1714" y="-374.6" font-family="Verdana" font-size="8.00">+ getHelp() : string</text>
<text text-anchor="start" x="1714" y="-361.6" font-family="Verdana" font-size="8.00">+ getProcessedHelp() : string</text>
<text text-anchor="start" x="1714" y="-348.6" font-family="Verdana" font-size="8.00">+ setAliases(aliases : iterable) : static</text>
<text text-anchor="start" x="1714" y="-335.6" font-family="Verdana" font-size="8.00">+ getAliases() : array</text>
<text text-anchor="start" x="1714" y="-322.6" font-family="Verdana" font-size="8.00">+ getSynopsis(short : bool = false) : string</text>
<text text-anchor="start" x="1714" y="-309.6" font-family="Verdana" font-size="8.00">+ addUsage(usage : string) : static</text>
<text text-anchor="start" x="1714" y="-296.6" font-family="Verdana" font-size="8.00">+ getUsages() : array</text>
<text text-anchor="start" x="1714" y="-283.6" font-family="Verdana" font-size="8.00">+ getHelper(name : string) : Symfony\Component\Console\Helper\HelperInterface</text>
</g>
<!-- Bartlett\\UmlWriter\\Console\\Command\\ClassDiagramCommand&#45;&gt;Symfony\\Component\\Console\\Command\\Command -->
<g id="edge4" class="edge">
<title>Bartlett\\UmlWriter\\Console\\Command\\ClassDiagramCommand&#45;&gt;Symfony\\Component\\Console\\Command\\Command</title>
<path fill="none" stroke="black" d="M2055,-883.26C2055,-865.51 2055,-838.73 2055,-807.77"/>
<polygon fill="none" stroke="black" points="2058.5,-807.57 2055,-797.57 2051.5,-807.57 2058.5,-807.57"/>
</g>
<!-- Bartlett\\UmlWriter\\Config\\Loader\\YamlFileLoader -->
<g id="node10" class="node">
<title>Bartlett\\UmlWriter\\Config\\Loader\\YamlFileLoader</title>
<polygon fill="#fefece" stroke="transparent" points="2886.5,-937 2633.5,-937 2633.5,-877 2886.5,-877 2886.5,-937"/>
<polygon fill="#eeeeee" stroke="transparent" points="2634,-915 2634,-937 2887,-937 2887,-915 2634,-915"/>
<polygon fill="none" stroke="black" points="2634,-915 2634,-937 2887,-937 2887,-915 2634,-915"/>
<text text-anchor="start" x="2725.5" y="-920.6" font-family="Verdana" font-weight="bold" font-size="8.00">YamlFileLoader</text>
<polygon fill="none" stroke="black" points="2634,-909 2634,-915 2887,-915 2887,-909 2634,-909"/>
<polygon fill="none" stroke="black" points="2634,-877 2634,-909 2887,-909 2887,-877 2634,-877"/>
<text text-anchor="start" x="2639" y="-897.6" font-family="Verdana" font-size="8.00">+ load(resource : mixed, type : string = «unknown») : array</text>
<text text-anchor="start" x="2639" y="-884.6" font-family="Verdana" font-size="8.00">+ supports(resource, type : string = «unknown») : bool</text>
</g>
<!-- Symfony\\Component\\Config\\Loader\\FileLoader -->
<g id="node11" class="node">
<title>Symfony\\Component\\Config\\Loader\\FileLoader</title>
<polygon fill="#fefece" stroke="transparent" points="3094.5,-580 2425.5,-580 2425.5,-494 3094.5,-494 3094.5,-580"/>
<polygon fill="#eeeeee" stroke="transparent" points="2426,-558 2426,-580 3095,-580 3095,-558 2426,-558"/>
<polygon fill="none" stroke="black" points="2426,-558 2426,-580 3095,-580 3095,-558 2426,-558"/>
<text text-anchor="start" x="2736.5" y="-571.6" font-family="Verdana" font-weight="bold" font-size="8.00">«abstract»</text>
<text text-anchor="start" x="2736.5" y="-563.6" font-family="Verdana" font-weight="bold" font-size="8.00">FileLoader</text>
<polygon fill="none" stroke="black" points="2426,-552 2426,-558 3095,-558 3095,-552 2426,-552"/>
<polygon fill="none" stroke="black" points="2426,-494 2426,-552 3095,-552 3095,-494 2426,-494"/>
<text text-anchor="start" x="2431" y="-540.6" font-family="Verdana" font-size="8.00">+ __construct(locator : Symfony\Component\Config\FileLocatorInterface, env : string = «unknown»)</text>
<text text-anchor="start" x="2431" y="-527.6" font-family="Verdana" font-size="8.00">+ setCurrentDir(dir : string) : void</text>
<text text-anchor="start" x="2431" y="-514.6" font-family="Verdana" font-size="8.00">+ getLocator() : Symfony\Component\Config\FileLocatorInterface</text>
<text text-anchor="start" x="2431" y="-501.6" font-family="Verdana" font-size="8.00">+ import(resource : mixed, type : string = «unknown», ignoreErrors : bool = false, sourceResource : string = «unknown», exclude : mixed = «unknown») : ?mixed</text>
</g>
<!-- Bartlett\\UmlWriter\\Config\\Loader\\YamlFileLoader&#45;&gt;Symfony\\Component\\Config\\Loader\\FileLoader -->
<g id="edge7" class="edge">
<title>Bartlett\\UmlWriter\\Config\\Loader\\YamlFileLoader&#45;&gt;Symfony\\Component\\Config\\Loader\\FileLoader</title>
<path fill="none" stroke="black" d="M2760,-876.82C2760,-814.75 2760,-668.91 2760,-590.34"/>
<polygon fill="none" stroke="black" points="2763.5,-590.17 2760,-580.17 2756.5,-590.17 2763.5,-590.17"/>
</g>
<!-- Symfony\\Component\\Config\\Loader\\Loader -->
<g id="node12" class="node">
<title>Symfony\\Component\\Config\\Loader\\Loader</title>
<polygon fill="#fefece" stroke="transparent" points="2989,-237 2531,-237 2531,-138 2989,-138 2989,-237"/>
<polygon fill="#eeeeee" stroke="transparent" points="2531,-214.5 2531,-236.5 2989,-236.5 2989,-214.5 2531,-214.5"/>
<polygon fill="none" stroke="black" points="2531,-214.5 2531,-236.5 2989,-236.5 2989,-214.5 2531,-214.5"/>
<text text-anchor="start" x="2736" y="-228.1" font-family="Verdana" font-weight="bold" font-size="8.00">«abstract»</text>
<text text-anchor="start" x="2744.5" y="-220.1" font-family="Verdana" font-weight="bold" font-size="8.00">Loader</text>
<polygon fill="none" stroke="black" points="2531,-208.5 2531,-214.5 2989,-214.5 2989,-208.5 2531,-208.5"/>
<polygon fill="none" stroke="black" points="2531,-137.5 2531,-208.5 2989,-208.5 2989,-137.5 2531,-137.5"/>
<text text-anchor="start" x="2536" y="-197.1" font-family="Verdana" font-size="8.00">+ __construct(env : string = «unknown»)</text>
<text text-anchor="start" x="2536" y="-184.1" font-family="Verdana" font-size="8.00">+ getResolver() : Symfony\Component\Config\Loader\LoaderResolverInterface</text>
<text text-anchor="start" x="2536" y="-171.1" font-family="Verdana" font-size="8.00">+ setResolver(resolver : Symfony\Component\Config\Loader\LoaderResolverInterface) : void</text>
<text text-anchor="start" x="2536" y="-158.1" font-family="Verdana" font-size="8.00">+ import(resource : mixed, type : string = «unknown») : ?mixed</text>
<text text-anchor="start" x="2536" y="-145.1" font-family="Verdana" font-size="8.00">+ resolve(resource : mixed, type : string = «unknown») : Symfony\Component\Config\Loader\LoaderInterface</text>
</g>
<!-- Symfony\\Component\\Config\\Loader\\FileLoader&#45;&gt;Symfony\\Component\\Config\\Loader\\Loader -->
<g id="edge6" class="edge">
<title>Symfony\\Component\\Config\\Loader\\FileLoader&#45;&gt;Symfony\\Component\\Config\\Loader\\Loader</title>
<path fill="none" stroke="black" d="M2760,-493.74C2760,-432.14 2760,-317.46 2760,-247.56"/>
<polygon fill="none" stroke="black" points="2763.5,-247.16 2760,-237.16 2756.5,-247.16 2763.5,-247.16"/>
</g>
<!-- Symfony\\Component\\Config\\Loader\\LoaderInterface -->
<g id="node13" class="node">
<title>Symfony\\Component\\Config\\Loader\\LoaderInterface</title>
<polygon fill="#fefece" stroke="transparent" points="2977.5,-102 2542.5,-102 2542.5,-16 2977.5,-16 2977.5,-102"/>
<polygon fill="#eeeeee" stroke="transparent" points="2543,-80 2543,-102 2978,-102 2978,-80 2543,-80"/>
<polygon fill="none" stroke="black" points="2543,-80 2543,-102 2978,-102 2978,-80 2543,-80"/>
<text text-anchor="start" x="2734.5" y="-93.6" font-family="Verdana" font-weight="bold" font-size="8.00">«interface»</text>
<text text-anchor="start" x="2724.5" y="-85.6" font-family="Verdana" font-weight="bold" font-size="8.00">LoaderInterface</text>
<polygon fill="none" stroke="black" points="2543,-74 2543,-80 2978,-80 2978,-74 2543,-74"/>
<polygon fill="none" stroke="black" points="2543,-16 2543,-74 2978,-74 2978,-16 2543,-16"/>
<text text-anchor="start" x="2548" y="-62.6" font-family="Verdana" font-size="8.00">+ «abstract» load(resource : mixed, type : string = «unknown») : ?mixed</text>
<text text-anchor="start" x="2548" y="-49.6" font-family="Verdana" font-size="8.00">+ «abstract» supports(resource : mixed, type : string = «unknown») : bool</text>
<text text-anchor="start" x="2548" y="-36.6" font-family="Verdana" font-size="8.00">+ «abstract» getResolver() : Symfony\Component\Config\Loader\LoaderResolverInterface</text>
<text text-anchor="start" x="2548" y="-23.6" font-family="Verdana" font-size="8.00">+ «abstract» setResolver(resolver : Symfony\Component\Config\Loader\LoaderResolverInterface) : void</text>
</g>
<!-- Symfony\\Component\\Config\\Loader\\Loader&#45;&gt;Symfony\\Component\\Config\\Loader\\LoaderInterface -->
<g id="edge5" class="edge">
<title>Symfony\\Component\\Config\\Loader\\Loader&#45;&gt;Symfony\\Component\\Config\\Loader\\LoaderInterface</title>
<path fill="none" stroke="black" stroke-dasharray="5,2" d="M2760,-137.95C2760,-129.53 2760,-120.74 2760,-112.23"/>
<polygon fill="none" stroke="black" points="2763.5,-112.02 2760,-102.02 2756.5,-112.02 2763.5,-112.02"/>
</g>
<!-- Bartlett\\UmlWriter\\Generator\\GeneratorFactoryInterface -->
<g id="node14" class="node">
<title>Bartlett\\UmlWriter\\Generator\\GeneratorFactoryInterface</title>
<polygon fill="#fefece" stroke="transparent" points="3666.5,-560.5 3119.5,-560.5 3119.5,-513.5 3666.5,-513.5 3666.5,-560.5"/>
<polygon fill="#eeeeee" stroke="transparent" points="3120,-538 3120,-560 3667,-560 3667,-538 3120,-538"/>
<polygon fill="none" stroke="black" points="3120,-538 3120,-560 3667,-560 3667,-538 3120,-538"/>
<text text-anchor="start" x="3367.5" y="-551.6" font-family="Verdana" font-weight="bold" font-size="8.00">«interface»</text>
<text text-anchor="start" x="3334" y="-543.6" font-family="Verdana" font-weight="bold" font-size="8.00">GeneratorFactoryInterface</text>
<polygon fill="none" stroke="black" points="3120,-532 3120,-538 3667,-538 3667,-532 3120,-532"/>
<polygon fill="none" stroke="black" points="3120,-513 3120,-532 3667,-532 3667,-513 3120,-513"/>
<text text-anchor="start" x="3125" y="-520.6" font-family="Verdana" font-size="8.00">+ «abstract» createInstance(provider : string, format : string, executable : string) : Bartlett\GraphUml\Generator\GeneratorInterface</text>
</g>
<!-- Bartlett\\UmlWriter\\Generator\\GeneratorFactory -->
<g id="node15" class="node">
<title>Bartlett\\UmlWriter\\Generator\\GeneratorFactory</title>
<polygon fill="#fefece" stroke="transparent" points="3666,-930.5 3120,-930.5 3120,-883.5 3666,-883.5 3666,-930.5"/>
<polygon fill="#eeeeee" stroke="transparent" points="3120,-908 3120,-930 3666,-930 3666,-908 3120,-908"/>
<polygon fill="none" stroke="black" points="3120,-908 3120,-930 3666,-930 3666,-908 3120,-908"/>
<text text-anchor="start" x="3353.5" y="-913.6" font-family="Verdana" font-weight="bold" font-size="8.00">GeneratorFactory</text>
<polygon fill="none" stroke="black" points="3120,-902 3120,-908 3666,-908 3666,-902 3120,-902"/>
<polygon fill="none" stroke="black" points="3120,-883 3120,-902 3666,-902 3666,-883 3120,-883"/>
<text text-anchor="start" x="3125" y="-890.6" font-family="Verdana" font-size="8.00">+ createInstance(provider : string, format : string = &#39;svg&#39;, executable : string = &#39;&#39;) : Bartlett\GraphUml\Generator\GeneratorInterface</text>
</g>
<!-- Bartlett\\UmlWriter\\Generator\\GeneratorFactory&#45;&gt;Bartlett\\UmlWriter\\Generator\\GeneratorFactoryInterface -->
<g id="edge8" class="edge">
<title>Bartlett\\UmlWriter\\Generator\\GeneratorFactory&#45;&gt;Bartlett\\UmlWriter\\Generator\\GeneratorFactoryInterface</title>
<path fill="none" stroke="black" stroke-dasharray="5,2" d="M3393,-883.26C3393,-820.38 3393,-643.99 3393,-570.64"/>
<polygon fill="none" stroke="black" points="3396.5,-570.59 3393,-560.59 3389.5,-570.59 3396.5,-570.59"/>
</g>
</g>
</svg>
