<?xml version="1.0" encoding="UTF-8" standalone="no"?>
<!DOCTYPE svg PUBLIC "-//W3C//DTD SVG 1.1//EN"
 "http://www.w3.org/Graphics/SVG/1.1/DTD/svg11.dtd">
<!-- Generated by graphviz version 2.43.0 (0)
 -->
<!-- Title: %3 Pages: 1 -->
<svg width="2451pt" height="1580pt"
 viewBox="0.00 0.00 2451.00 1580.00" xmlns="http://www.w3.org/2000/svg" xmlns:xlink="http://www.w3.org/1999/xlink">
<g id="graph0" class="graph" transform="scale(1 1) rotate(0) translate(4 1576)">
<title>%3</title>
<g id="clust1" class="cluster">
<title>cluster_0</title>
<polygon fill="BurlyWood" stroke="black" points="84.5,-8 84.5,-95 1422.5,-95 1422.5,-8 84.5,-8"/>
<text text-anchor="middle" x="753.5" y="-79.8" font-family="Times,serif" font-size="14.00">Bartlett\UmlWriter\Generator</text>
</g>
<g id="clust2" class="cluster">
<title>cluster_1</title>
<polygon fill="BurlyWood" stroke="black" points="8,-340 8,-427 767,-427 767,-340 8,-340"/>
<text text-anchor="middle" x="387.5" y="-411.8" font-family="Times,serif" font-size="14.00">Bartlett\UmlWriter\Console\Command</text>
</g>
<g id="clust3" class="cluster">
<title>cluster_2</title>
<polygon fill="LightSkyBlue" stroke="black" points="787,-103 787,-664 1495,-664 1495,-103 787,-103"/>
<text text-anchor="middle" x="1141" y="-648.8" font-family="Times,serif" font-size="14.00">Symfony\Component\Console\Command</text>
</g>
<g id="clust4" class="cluster">
<title>cluster_3</title>
<polygon fill="BurlyWood" stroke="black" points="45,-877 45,-1034 730,-1034 730,-877 45,-877"/>
<text text-anchor="middle" x="387.5" y="-1018.8" font-family="Times,serif" font-size="14.00">Bartlett\UmlWriter\Console</text>
</g>
<g id="clust5" class="cluster">
<title>cluster_4</title>
<polygon fill="LightSkyBlue" stroke="black" points="787,-672 787,-1239 1495,-1239 1495,-672 787,-672"/>
<text text-anchor="middle" x="1141" y="-1223.8" font-family="Times,serif" font-size="14.00">Symfony\Component\Console</text>
</g>
<g id="clust6" class="cluster">
<title>cluster_5</title>
<polygon fill="LightSkyBlue" stroke="black" points="1646.5,-912 1646.5,-999 1857.5,-999 1857.5,-912 1646.5,-912"/>
<text text-anchor="middle" x="1752" y="-983.8" font-family="Times,serif" font-size="14.00">Symfony\Contracts\Service</text>
</g>
<g id="clust7" class="cluster">
<title>cluster_6</title>
<polygon fill="BurlyWood" stroke="black" points="105.5,-1130 105.5,-1437 669.5,-1437 669.5,-1130 105.5,-1130"/>
<text text-anchor="middle" x="387.5" y="-1421.8" font-family="Times,serif" font-size="14.00">Bartlett\UmlWriter\Service</text>
</g>
<g id="clust8" class="cluster">
<title>cluster_7</title>
<polygon fill="LightSkyBlue" stroke="black" points="1057.5,-1247 1057.5,-1346 1224.5,-1346 1224.5,-1247 1057.5,-1247"/>
<text text-anchor="middle" x="1141" y="-1330.8" font-family="Times,serif" font-size="14.00">Psr\Container</text>
</g>
<g id="clust9" class="cluster">
<title>cluster_8</title>
<polygon fill="BurlyWood" stroke="black" points="253,-1445 253,-1544 522,-1544 522,-1445 253,-1445"/>
<text text-anchor="middle" x="387.5" y="-1528.8" font-family="Times,serif" font-size="14.00">Bartlett\UmlWriter\Config\Loader</text>
</g>
<g id="clust10" class="cluster">
<title>cluster_9</title>
<polygon fill="LightSkyBlue" stroke="black" points="817,-1425 817,-1564 2435,-1564 2435,-1425 817,-1425"/>
<text text-anchor="middle" x="1626" y="-1548.8" font-family="Times,serif" font-size="14.00">Symfony\Component\Config\Loader</text>
</g>
<!-- Bartlett\\UmlWriter\\Generator\\GeneratorFactoryInterface -->
<g id="node1" class="node">
<title>Bartlett\\UmlWriter\\Generator\\GeneratorFactoryInterface</title>
<polygon fill="#fefece" stroke="transparent" points="1414.5,-63.5 867.5,-63.5 867.5,-16.5 1414.5,-16.5 1414.5,-63.5"/>
<polygon fill="#eeeeee" stroke="transparent" points="868,-41 868,-63 1415,-63 1415,-41 868,-41"/>
<polygon fill="none" stroke="black" points="868,-41 868,-63 1415,-63 1415,-41 868,-41"/>
<text text-anchor="start" x="1115.5" y="-54.6" font-family="Verdana" font-weight="bold" font-size="8.00">«interface»</text>
<text text-anchor="start" x="1082" y="-46.6" font-family="Verdana" font-weight="bold" font-size="8.00">GeneratorFactoryInterface</text>
<polygon fill="none" stroke="black" points="868,-35 868,-41 1415,-41 1415,-35 868,-35"/>
<polygon fill="none" stroke="black" points="868,-16 868,-35 1415,-35 1415,-16 868,-16"/>
<text text-anchor="start" x="873" y="-23.6" font-family="Verdana" font-size="8.00">+ «abstract» createInstance(provider : string, format : string, executable : string) : Bartlett\GraphUml\Generator\GeneratorInterface</text>
</g>
<!-- Bartlett\\UmlWriter\\Generator\\GeneratorFactory -->
<g id="node2" class="node">
<title>Bartlett\\UmlWriter\\Generator\\GeneratorFactory</title>
<polygon fill="#fefece" stroke="transparent" points="682.5,-63.5 92.5,-63.5 92.5,-16.5 682.5,-16.5 682.5,-63.5"/>
<polygon fill="#eeeeee" stroke="transparent" points="92.5,-41 92.5,-63 682.5,-63 682.5,-41 92.5,-41"/>
<polygon fill="none" stroke="black" points="92.5,-41 92.5,-63 682.5,-63 682.5,-41 92.5,-41"/>
<text text-anchor="start" x="348" y="-46.6" font-family="Verdana" font-weight="bold" font-size="8.00">GeneratorFactory</text>
<polygon fill="none" stroke="black" points="92.5,-35 92.5,-41 682.5,-41 682.5,-35 92.5,-35"/>
<polygon fill="none" stroke="black" points="92.5,-16 92.5,-35 682.5,-35 682.5,-16 92.5,-16"/>
<text text-anchor="start" x="97.5" y="-23.6" font-family="Verdana" font-size="8.00">+ createInstance(provider : string, format : string = &#39;svg&#39;, executable : string = «unknown») : Bartlett\GraphUml\Generator\GeneratorInterface</text>
</g>
<!-- Bartlett\\UmlWriter\\Generator\\GeneratorFactory&#45;&gt;Bartlett\\UmlWriter\\Generator\\GeneratorFactoryInterface -->
<g id="edge1" class="edge">
<title>Bartlett\\UmlWriter\\Generator\\GeneratorFactory&#45;&gt;Bartlett\\UmlWriter\\Generator\\GeneratorFactoryInterface</title>
<path fill="none" stroke="black" stroke-dasharray="5,2" d="M682.55,-40C740.01,-40 800.15,-40 857.23,-40"/>
<polygon fill="none" stroke="black" points="857.48,-43.5 867.48,-40 857.48,-36.5 857.48,-43.5"/>
</g>
<!-- Bartlett\\UmlWriter\\Console\\Command\\ClassDiagramCommand -->
<g id="node3" class="node">
<title>Bartlett\\UmlWriter\\Console\\Command\\ClassDiagramCommand</title>
<polygon fill="#fefece" stroke="transparent" points="759,-395.5 16,-395.5 16,-348.5 759,-348.5 759,-395.5"/>
<polygon fill="#eeeeee" stroke="transparent" points="16.5,-373 16.5,-395 759.5,-395 759.5,-373 16.5,-373"/>
<polygon fill="none" stroke="black" points="16.5,-373 16.5,-395 759.5,-395 759.5,-373 16.5,-373"/>
<text text-anchor="start" x="334.5" y="-378.6" font-family="Verdana" font-weight="bold" font-size="8.00">ClassDiagramCommand</text>
<polygon fill="none" stroke="black" points="16.5,-367 16.5,-373 759.5,-373 759.5,-367 16.5,-367"/>
<polygon fill="none" stroke="black" points="16.5,-348 16.5,-367 759.5,-367 759.5,-348 16.5,-348"/>
<text text-anchor="start" x="21.5" y="-355.6" font-family="Verdana" font-size="8.00">+ __construct(renderer : Bartlett\UmlWriter\Service\ClassDiagramRenderer, generatorFactory : Bartlett\UmlWriter\Generator\GeneratorFactoryInterface, name : string = «unknown»)</text>
</g>
<!-- Symfony\\Component\\Console\\Command\\Command -->
<g id="node4" class="node">
<title>Symfony\\Component\\Console\\Command\\Command</title>
<polygon fill="#fefece" stroke="transparent" points="1487,-632.5 795,-632.5 795,-111.5 1487,-111.5 1487,-632.5"/>
<polygon fill="#eeeeee" stroke="transparent" points="795,-610 795,-632 1487,-632 1487,-610 795,-610"/>
<polygon fill="none" stroke="black" points="795,-610 795,-632 1487,-632 1487,-610 795,-610"/>
<text text-anchor="start" x="1118" y="-615.6" font-family="Verdana" font-weight="bold" font-size="8.00">Command</text>
<polygon fill="none" stroke="black" points="795,-565 795,-610 1487,-610 1487,-565 795,-565"/>
<text text-anchor="start" x="800" y="-598.6" font-family="Verdana" font-size="8.00">+ «static» SUCCESS : int = 0 {readOnly}</text>
<text text-anchor="start" x="800" y="-585.6" font-family="Verdana" font-size="8.00">+ «static» FAILURE : int = 1 {readOnly}</text>
<text text-anchor="start" x="800" y="-572.6" font-family="Verdana" font-size="8.00">+ «static» INVALID : int = 2 {readOnly}</text>
<polygon fill="none" stroke="black" points="795,-559 795,-565 1487,-565 1487,-559 795,-559"/>
<polygon fill="none" stroke="black" points="795,-111 795,-559 1487,-559 1487,-111 795,-111"/>
<text text-anchor="start" x="800" y="-547.6" font-family="Verdana" font-size="8.00">+ «static» getDefaultName() : ?string</text>
<text text-anchor="start" x="800" y="-534.6" font-family="Verdana" font-size="8.00">+ «static» getDefaultDescription() : ?string</text>
<text text-anchor="start" x="800" y="-521.6" font-family="Verdana" font-size="8.00">+ __construct(name : string = «unknown»)</text>
<text text-anchor="start" x="800" y="-508.6" font-family="Verdana" font-size="8.00">+ ignoreValidationErrors()</text>
<text text-anchor="start" x="800" y="-495.6" font-family="Verdana" font-size="8.00">+ setApplication(application : Symfony\Component\Console\Application = «unknown»)</text>
<text text-anchor="start" x="800" y="-482.6" font-family="Verdana" font-size="8.00">+ setHelperSet(helperSet : Symfony\Component\Console\Helper\HelperSet)</text>
<text text-anchor="start" x="800" y="-469.6" font-family="Verdana" font-size="8.00">+ getHelperSet() : ?Symfony\Component\Console\Helper\HelperSet</text>
<text text-anchor="start" x="800" y="-456.6" font-family="Verdana" font-size="8.00">+ getApplication() : ?Symfony\Component\Console\Application</text>
<text text-anchor="start" x="800" y="-443.6" font-family="Verdana" font-size="8.00">+ isEnabled()</text>
<text text-anchor="start" x="800" y="-430.6" font-family="Verdana" font-size="8.00">+ run(input : Symfony\Component\Console\Input\InputInterface, output : Symfony\Component\Console\Output\OutputInterface) : int</text>
<text text-anchor="start" x="800" y="-417.6" font-family="Verdana" font-size="8.00">+ complete(input : Symfony\Component\Console\Completion\CompletionInput, suggestions : Symfony\Component\Console\Completion\CompletionSuggestions) : void</text>
<text text-anchor="start" x="800" y="-404.6" font-family="Verdana" font-size="8.00">+ setCode(code : callable) : static</text>
<text text-anchor="start" x="800" y="-391.6" font-family="Verdana" font-size="8.00">+ mergeApplicationDefinition(mergeArgs : bool = true) : void</text>
<text text-anchor="start" x="800" y="-378.6" font-family="Verdana" font-size="8.00">+ setDefinition(definition) : static</text>
<text text-anchor="start" x="800" y="-365.6" font-family="Verdana" font-size="8.00">+ getDefinition() : Symfony\Component\Console\Input\InputDefinition</text>
<text text-anchor="start" x="800" y="-352.6" font-family="Verdana" font-size="8.00">+ getNativeDefinition() : Symfony\Component\Console\Input\InputDefinition</text>
<text text-anchor="start" x="800" y="-339.6" font-family="Verdana" font-size="8.00">+ addArgument(name : string, mode : int = «unknown», description : string = &#39;&#39;, default : mixed = «unknown») : static</text>
<text text-anchor="start" x="800" y="-326.6" font-family="Verdana" font-size="8.00">+ addOption(name : string, shortcut = «unknown», mode : int = «unknown», description : string = &#39;&#39;, default : mixed = «unknown») : static</text>
<text text-anchor="start" x="800" y="-313.6" font-family="Verdana" font-size="8.00">+ setName(name : string) : static</text>
<text text-anchor="start" x="800" y="-300.6" font-family="Verdana" font-size="8.00">+ setProcessTitle(title : string) : static</text>
<text text-anchor="start" x="800" y="-287.6" font-family="Verdana" font-size="8.00">+ getName() : ?string</text>
<text text-anchor="start" x="800" y="-274.6" font-family="Verdana" font-size="8.00">+ setHidden(hidden : bool = true) : static</text>
<text text-anchor="start" x="800" y="-261.6" font-family="Verdana" font-size="8.00">+ isHidden() : bool</text>
<text text-anchor="start" x="800" y="-248.6" font-family="Verdana" font-size="8.00">+ setDescription(description : string) : static</text>
<text text-anchor="start" x="800" y="-235.6" font-family="Verdana" font-size="8.00">+ getDescription() : string</text>
<text text-anchor="start" x="800" y="-222.6" font-family="Verdana" font-size="8.00">+ setHelp(help : string) : static</text>
<text text-anchor="start" x="800" y="-209.6" font-family="Verdana" font-size="8.00">+ getHelp() : string</text>
<text text-anchor="start" x="800" y="-196.6" font-family="Verdana" font-size="8.00">+ getProcessedHelp() : string</text>
<text text-anchor="start" x="800" y="-183.6" font-family="Verdana" font-size="8.00">+ setAliases(aliases : iterable) : static</text>
<text text-anchor="start" x="800" y="-170.6" font-family="Verdana" font-size="8.00">+ getAliases() : array</text>
<text text-anchor="start" x="800" y="-157.6" font-family="Verdana" font-size="8.00">+ getSynopsis(short : bool = false) : string</text>
<text text-anchor="start" x="800" y="-144.6" font-family="Verdana" font-size="8.00">+ addUsage(usage : string) : static</text>
<text text-anchor="start" x="800" y="-131.6" font-family="Verdana" font-size="8.00">+ getUsages() : array</text>
<text text-anchor="start" x="800" y="-118.6" font-family="Verdana" font-size="8.00">+ getHelper(name : string) : ?mixed</text>
</g>
<!-- Bartlett\\UmlWriter\\Console\\Command\\ClassDiagramCommand&#45;&gt;Symfony\\Component\\Console\\Command\\Command -->
<g id="edge2" class="edge">
<title>Bartlett\\UmlWriter\\Console\\Command\\ClassDiagramCommand&#45;&gt;Symfony\\Component\\Console\\Command\\Command</title>
<path fill="none" stroke="black" d="M759.02,-372C767.61,-372 776.19,-372 784.77,-372"/>
<polygon fill="none" stroke="black" points="784.82,-375.5 794.82,-372 784.82,-368.5 784.82,-375.5"/>
</g>
<!-- Bartlett\\UmlWriter\\Console\\Application -->
<g id="node5" class="node">
<title>Bartlett\\UmlWriter\\Console\\Application</title>
<polygon fill="#fefece" stroke="transparent" points="722,-1003 53,-1003 53,-885 722,-885 722,-1003"/>
<polygon fill="#eeeeee" stroke="transparent" points="53.5,-981 53.5,-1003 722.5,-1003 722.5,-981 53.5,-981"/>
<polygon fill="none" stroke="black" points="53.5,-981 53.5,-1003 722.5,-1003 722.5,-981 53.5,-981"/>
<text text-anchor="start" x="362" y="-986.6" font-family="Verdana" font-weight="bold" font-size="8.00">Application</text>
<polygon fill="none" stroke="black" points="53.5,-962 53.5,-981 722.5,-981 722.5,-962 53.5,-962"/>
<text text-anchor="start" x="58.5" y="-969.6" font-family="Verdana" font-size="8.00">+ «static» NAME : string = &quot;umlWriter&quot; {readOnly}</text>
<polygon fill="none" stroke="black" points="53.5,-956 53.5,-962 722.5,-962 722.5,-956 53.5,-956"/>
<polygon fill="none" stroke="black" points="53.5,-885 53.5,-956 722.5,-956 722.5,-885 53.5,-885"/>
<text text-anchor="start" x="58.5" y="-944.6" font-family="Verdana" font-size="8.00">+ __construct(container : Psr\Container\ContainerInterface)</text>
<text text-anchor="start" x="58.5" y="-931.6" font-family="Verdana" font-size="8.00">+ getHelp() : string</text>
<text text-anchor="start" x="58.5" y="-918.6" font-family="Verdana" font-size="8.00">+ getLongVersion() : string</text>
<text text-anchor="start" x="58.5" y="-905.6" font-family="Verdana" font-size="8.00">+ doRun(input : Symfony\Component\Console\Input\InputInterface, output : Symfony\Component\Console\Output\OutputInterface) : int</text>
<text text-anchor="start" x="58.5" y="-892.6" font-family="Verdana" font-size="8.00">+ run(input : Symfony\Component\Console\Input\InputInterface = «unknown», output : Symfony\Component\Console\Output\OutputInterface = «unknown») : int</text>
</g>
<!-- Symfony\\Component\\Console\\Application -->
<g id="node6" class="node">
<title>Symfony\\Component\\Console\\Application</title>
<polygon fill="#fefece" stroke="transparent" points="1487,-1208 795,-1208 795,-680 1487,-680 1487,-1208"/>
<polygon fill="#eeeeee" stroke="transparent" points="795,-1186 795,-1208 1487,-1208 1487,-1186 795,-1186"/>
<polygon fill="none" stroke="black" points="795,-1186 795,-1208 1487,-1208 1487,-1186 795,-1186"/>
<text text-anchor="start" x="1115" y="-1191.6" font-family="Verdana" font-weight="bold" font-size="8.00">Application</text>
<polygon fill="none" stroke="black" points="795,-1180 795,-1186 1487,-1186 1487,-1180 795,-1180"/>
<polygon fill="none" stroke="black" points="795,-680 795,-1180 1487,-1180 1487,-680 795,-680"/>
<text text-anchor="start" x="800" y="-1168.6" font-family="Verdana" font-size="8.00">+ __construct(name : string = &#39;UNKNOWN&#39;, version : string = &#39;UNKNOWN&#39;)</text>
<text text-anchor="start" x="800" y="-1155.6" font-family="Verdana" font-size="8.00">+ setDispatcher(dispatcher : Symfony\Contracts\EventDispatcher\EventDispatcherInterface) : void</text>
<text text-anchor="start" x="800" y="-1142.6" font-family="Verdana" font-size="8.00">+ setCommandLoader(commandLoader : Symfony\Component\Console\CommandLoader\CommandLoaderInterface)</text>
<text text-anchor="start" x="800" y="-1129.6" font-family="Verdana" font-size="8.00">+ getSignalRegistry() : Symfony\Component\Console\SignalRegistry\SignalRegistry</text>
<text text-anchor="start" x="800" y="-1116.6" font-family="Verdana" font-size="8.00">+ setSignalsToDispatchEvent(signalsToDispatchEvent : int = «unknown»)</text>
<text text-anchor="start" x="800" y="-1103.6" font-family="Verdana" font-size="8.00">+ run(input : Symfony\Component\Console\Input\InputInterface = «unknown», output : Symfony\Component\Console\Output\OutputInterface = «unknown») : int</text>
<text text-anchor="start" x="800" y="-1090.6" font-family="Verdana" font-size="8.00">+ doRun(input : Symfony\Component\Console\Input\InputInterface, output : Symfony\Component\Console\Output\OutputInterface)</text>
<text text-anchor="start" x="800" y="-1077.6" font-family="Verdana" font-size="8.00">+ reset()</text>
<text text-anchor="start" x="800" y="-1064.6" font-family="Verdana" font-size="8.00">+ setHelperSet(helperSet : Symfony\Component\Console\Helper\HelperSet)</text>
<text text-anchor="start" x="800" y="-1051.6" font-family="Verdana" font-size="8.00">+ getHelperSet() : Symfony\Component\Console\Helper\HelperSet</text>
<text text-anchor="start" x="800" y="-1038.6" font-family="Verdana" font-size="8.00">+ setDefinition(definition : Symfony\Component\Console\Input\InputDefinition)</text>
<text text-anchor="start" x="800" y="-1025.6" font-family="Verdana" font-size="8.00">+ getDefinition() : Symfony\Component\Console\Input\InputDefinition</text>
<text text-anchor="start" x="800" y="-1012.6" font-family="Verdana" font-size="8.00">+ complete(input : Symfony\Component\Console\Completion\CompletionInput, suggestions : Symfony\Component\Console\Completion\CompletionSuggestions) : void</text>
<text text-anchor="start" x="800" y="-999.6" font-family="Verdana" font-size="8.00">+ getHelp() : string</text>
<text text-anchor="start" x="800" y="-986.6" font-family="Verdana" font-size="8.00">+ areExceptionsCaught() : bool</text>
<text text-anchor="start" x="800" y="-973.6" font-family="Verdana" font-size="8.00">+ setCatchExceptions(boolean : bool)</text>
<text text-anchor="start" x="800" y="-960.6" font-family="Verdana" font-size="8.00">+ setCatchErrors(catchErrors : bool = true) : void</text>
<text text-anchor="start" x="800" y="-947.6" font-family="Verdana" font-size="8.00">+ isAutoExitEnabled() : bool</text>
<text text-anchor="start" x="800" y="-934.6" font-family="Verdana" font-size="8.00">+ setAutoExit(boolean : bool)</text>
<text text-anchor="start" x="800" y="-921.6" font-family="Verdana" font-size="8.00">+ getName() : string</text>
<text text-anchor="start" x="800" y="-908.6" font-family="Verdana" font-size="8.00">+ setName(name : string)</text>
<text text-anchor="start" x="800" y="-895.6" font-family="Verdana" font-size="8.00">+ getVersion() : string</text>
<text text-anchor="start" x="800" y="-882.6" font-family="Verdana" font-size="8.00">+ setVersion(version : string)</text>
<text text-anchor="start" x="800" y="-869.6" font-family="Verdana" font-size="8.00">+ getLongVersion()</text>
<text text-anchor="start" x="800" y="-856.6" font-family="Verdana" font-size="8.00">+ register(name : string) : Symfony\Component\Console\Command\Command</text>
<text text-anchor="start" x="800" y="-843.6" font-family="Verdana" font-size="8.00">+ addCommands(commands : array)</text>
<text text-anchor="start" x="800" y="-830.6" font-family="Verdana" font-size="8.00">+ add(command : Symfony\Component\Console\Command\Command)</text>
<text text-anchor="start" x="800" y="-817.6" font-family="Verdana" font-size="8.00">+ get(name : string)</text>
<text text-anchor="start" x="800" y="-804.6" font-family="Verdana" font-size="8.00">+ has(name : string) : bool</text>
<text text-anchor="start" x="800" y="-791.6" font-family="Verdana" font-size="8.00">+ getNamespaces() : array</text>
<text text-anchor="start" x="800" y="-778.6" font-family="Verdana" font-size="8.00">+ findNamespace(namespace : string) : string</text>
<text text-anchor="start" x="800" y="-765.6" font-family="Verdana" font-size="8.00">+ find(name : string)</text>
<text text-anchor="start" x="800" y="-752.6" font-family="Verdana" font-size="8.00">+ all(namespace : string = «unknown»)</text>
<text text-anchor="start" x="800" y="-739.6" font-family="Verdana" font-size="8.00">+ «static» getAbbreviations(names : array) : array</text>
<text text-anchor="start" x="800" y="-726.6" font-family="Verdana" font-size="8.00">+ renderThrowable(e : Throwable, output : Symfony\Component\Console\Output\OutputInterface) : void</text>
<text text-anchor="start" x="800" y="-713.6" font-family="Verdana" font-size="8.00">+ extractNamespace(name : string, limit : int = «unknown») : string</text>
<text text-anchor="start" x="800" y="-700.6" font-family="Verdana" font-size="8.00">+ setDefaultCommand(commandName : string, isSingleCommand : bool = false) : static</text>
<text text-anchor="start" x="800" y="-687.6" font-family="Verdana" font-size="8.00">+ isSingleCommand() : bool</text>
</g>
<!-- Bartlett\\UmlWriter\\Console\\Application&#45;&gt;Symfony\\Component\\Console\\Application -->
<g id="edge4" class="edge">
<title>Bartlett\\UmlWriter\\Console\\Application&#45;&gt;Symfony\\Component\\Console\\Application</title>
<path fill="none" stroke="black" d="M722.22,-944C742.95,-944 763.85,-944 784.66,-944"/>
<polygon fill="none" stroke="black" points="784.87,-947.5 794.87,-944 784.87,-940.5 784.87,-947.5"/>
</g>
<!-- Symfony\\Contracts\\Service\\ResetInterface -->
<g id="node7" class="node">
<title>Symfony\\Contracts\\Service\\ResetInterface</title>
<polygon fill="#fefece" stroke="transparent" points="1798.5,-967.5 1705.5,-967.5 1705.5,-920.5 1798.5,-920.5 1798.5,-967.5"/>
<polygon fill="#eeeeee" stroke="transparent" points="1706,-945 1706,-967 1799,-967 1799,-945 1706,-945"/>
<polygon fill="none" stroke="black" points="1706,-945 1706,-967 1799,-967 1799,-945 1706,-945"/>
<text text-anchor="start" x="1726.5" y="-958.6" font-family="Verdana" font-weight="bold" font-size="8.00">«interface»</text>
<text text-anchor="start" x="1719.5" y="-950.6" font-family="Verdana" font-weight="bold" font-size="8.00">ResetInterface</text>
<polygon fill="none" stroke="black" points="1706,-939 1706,-945 1799,-945 1799,-939 1706,-939"/>
<polygon fill="none" stroke="black" points="1706,-920 1706,-939 1799,-939 1799,-920 1706,-920"/>
<text text-anchor="start" x="1711" y="-927.6" font-family="Verdana" font-size="8.00">+ «abstract» reset()</text>
</g>
<!-- Symfony\\Component\\Console\\Application&#45;&gt;Symfony\\Contracts\\Service\\ResetInterface -->
<g id="edge3" class="edge">
<title>Symfony\\Component\\Console\\Application&#45;&gt;Symfony\\Contracts\\Service\\ResetInterface</title>
<path fill="none" stroke="black" stroke-dasharray="5,2" d="M1487.43,-944C1568.38,-944 1645.41,-944 1695.05,-944"/>
<polygon fill="none" stroke="black" points="1695.22,-947.5 1705.22,-944 1695.22,-940.5 1695.22,-947.5"/>
</g>
<!-- Bartlett\\UmlWriter\\Service\\ClassDiagramRenderer -->
<g id="node8" class="node">
<title>Bartlett\\UmlWriter\\Service\\ClassDiagramRenderer</title>
<polygon fill="#fefece" stroke="transparent" points="661.5,-1406 113.5,-1406 113.5,-1346 661.5,-1346 661.5,-1406"/>
<polygon fill="#eeeeee" stroke="transparent" points="113.5,-1384 113.5,-1406 661.5,-1406 661.5,-1384 113.5,-1384"/>
<polygon fill="none" stroke="black" points="113.5,-1384 113.5,-1406 661.5,-1406 661.5,-1384 113.5,-1384"/>
<text text-anchor="start" x="336" y="-1389.6" font-family="Verdana" font-weight="bold" font-size="8.00">ClassDiagramRenderer</text>
<polygon fill="none" stroke="black" points="113.5,-1378 113.5,-1384 661.5,-1384 661.5,-1378 113.5,-1378"/>
<polygon fill="none" stroke="black" points="113.5,-1346 113.5,-1378 661.5,-1378 661.5,-1346 113.5,-1346"/>
<text text-anchor="start" x="118.5" y="-1366.6" font-family="Verdana" font-size="8.00">+ __invoke(datasource, generator : Bartlett\GraphUml\Generator\GeneratorInterface, parameters : array = []) : Graphp\Graph\Graph</text>
<text text-anchor="start" x="118.5" y="-1353.6" font-family="Verdana" font-size="8.00">+ getMetadata() : array</text>
</g>
<!-- Bartlett\\UmlWriter\\Service\\ContainerService -->
<g id="node9" class="node">
<title>Bartlett\\UmlWriter\\Service\\ContainerService</title>
<polygon fill="#fefece" stroke="transparent" points="471,-1328 304,-1328 304,-1242 471,-1242 471,-1328"/>
<polygon fill="#eeeeee" stroke="transparent" points="304.5,-1306 304.5,-1328 471.5,-1328 471.5,-1306 304.5,-1306"/>
<polygon fill="none" stroke="black" points="304.5,-1306 304.5,-1328 471.5,-1328 471.5,-1306 304.5,-1306"/>
<text text-anchor="start" x="349" y="-1311.6" font-family="Verdana" font-weight="bold" font-size="8.00">ContainerService</text>
<polygon fill="none" stroke="black" points="304.5,-1300 304.5,-1306 471.5,-1306 471.5,-1300 304.5,-1300"/>
<polygon fill="none" stroke="black" points="304.5,-1242 304.5,-1300 471.5,-1300 471.5,-1242 304.5,-1242"/>
<text text-anchor="start" x="309.5" y="-1288.6" font-family="Verdana" font-size="8.00">+ __construct()</text>
<text text-anchor="start" x="309.5" y="-1275.6" font-family="Verdana" font-size="8.00">+ set(id : string, service : mixed) : void</text>
<text text-anchor="start" x="309.5" y="-1262.6" font-family="Verdana" font-size="8.00">+ get(id : string) : ?mixed</text>
<text text-anchor="start" x="309.5" y="-1249.6" font-family="Verdana" font-size="8.00">+ has(id : string) : bool</text>
</g>
<!-- Psr\\Container\\ContainerInterface -->
<g id="node11" class="node">
<title>Psr\\Container\\ContainerInterface</title>
<polygon fill="#fefece" stroke="transparent" points="1216.5,-1315 1065.5,-1315 1065.5,-1255 1216.5,-1255 1216.5,-1315"/>
<polygon fill="#eeeeee" stroke="transparent" points="1066,-1293 1066,-1315 1217,-1315 1217,-1293 1066,-1293"/>
<polygon fill="none" stroke="black" points="1066,-1293 1066,-1315 1217,-1315 1217,-1293 1066,-1293"/>
<text text-anchor="start" x="1115.5" y="-1306.6" font-family="Verdana" font-weight="bold" font-size="8.00">«interface»</text>
<text text-anchor="start" x="1099" y="-1298.6" font-family="Verdana" font-weight="bold" font-size="8.00">ContainerInterface</text>
<polygon fill="none" stroke="black" points="1066,-1287 1066,-1293 1217,-1293 1217,-1287 1066,-1287"/>
<polygon fill="none" stroke="black" points="1066,-1255 1066,-1287 1217,-1287 1217,-1255 1066,-1255"/>
<text text-anchor="start" x="1071" y="-1275.6" font-family="Verdana" font-size="8.00">+ «abstract» get(id : string)</text>
<text text-anchor="start" x="1071" y="-1262.6" font-family="Verdana" font-size="8.00">+ «abstract» has(id : string) : bool</text>
</g>
<!-- Bartlett\\UmlWriter\\Service\\ContainerService&#45;&gt;Psr\\Container\\ContainerInterface -->
<g id="edge5" class="edge">
<title>Bartlett\\UmlWriter\\Service\\ContainerService&#45;&gt;Psr\\Container\\ContainerInterface</title>
<path fill="none" stroke="black" stroke-dasharray="5,2" d="M471.07,-1285C614.89,-1285 909.86,-1285 1055.22,-1285"/>
<polygon fill="none" stroke="black" points="1055.42,-1288.5 1065.42,-1285 1055.42,-1281.5 1055.42,-1288.5"/>
</g>
<!-- Bartlett\\UmlWriter\\Service\\ConfigurationHandler -->
<g id="node10" class="node">
<title>Bartlett\\UmlWriter\\Service\\ConfigurationHandler</title>
<polygon fill="#fefece" stroke="transparent" points="486,-1224 289,-1224 289,-1138 486,-1138 486,-1224"/>
<polygon fill="#eeeeee" stroke="transparent" points="289.5,-1202 289.5,-1224 486.5,-1224 486.5,-1202 289.5,-1202"/>
<polygon fill="none" stroke="black" points="289.5,-1202 289.5,-1224 486.5,-1224 486.5,-1202 289.5,-1202"/>
<text text-anchor="start" x="338.5" y="-1207.6" font-family="Verdana" font-weight="bold" font-size="8.00">ConfigurationHandler</text>
<polygon fill="none" stroke="black" points="289.5,-1196 289.5,-1202 486.5,-1202 486.5,-1196 289.5,-1196"/>
<polygon fill="none" stroke="black" points="289.5,-1138 289.5,-1196 486.5,-1196 486.5,-1138 289.5,-1138"/>
<text text-anchor="start" x="294.5" y="-1184.6" font-family="Verdana" font-size="8.00">+ __construct(filename : string = «unknown»)</text>
<text text-anchor="start" x="294.5" y="-1171.6" font-family="Verdana" font-size="8.00">+ «static» getDefaults() : array</text>
<text text-anchor="start" x="294.5" y="-1158.6" font-family="Verdana" font-size="8.00">+ toArray() : array</text>
<text text-anchor="start" x="294.5" y="-1145.6" font-family="Verdana" font-size="8.00">+ toFlat() : array</text>
</g>
<!-- Bartlett\\UmlWriter\\Config\\Loader\\YamlFileLoader -->
<g id="node12" class="node">
<title>Bartlett\\UmlWriter\\Config\\Loader\\YamlFileLoader</title>
<polygon fill="#fefece" stroke="transparent" points="514,-1513 261,-1513 261,-1453 514,-1453 514,-1513"/>
<polygon fill="#eeeeee" stroke="transparent" points="261.5,-1491 261.5,-1513 514.5,-1513 514.5,-1491 261.5,-1491"/>
<polygon fill="none" stroke="black" points="261.5,-1491 261.5,-1513 514.5,-1513 514.5,-1491 261.5,-1491"/>
<text text-anchor="start" x="353" y="-1496.6" font-family="Verdana" font-weight="bold" font-size="8.00">YamlFileLoader</text>
<polygon fill="none" stroke="black" points="261.5,-1485 261.5,-1491 514.5,-1491 514.5,-1485 261.5,-1485"/>
<polygon fill="none" stroke="black" points="261.5,-1453 261.5,-1485 514.5,-1485 514.5,-1453 261.5,-1453"/>
<text text-anchor="start" x="266.5" y="-1473.6" font-family="Verdana" font-size="8.00">+ load(resource : mixed, type : string = «unknown») : array</text>
<text text-anchor="start" x="266.5" y="-1460.6" font-family="Verdana" font-size="8.00">+ supports(resource, type : string = «unknown») : bool</text>
</g>
<!-- Symfony\\Component\\Config\\Loader\\FileLoader -->
<g id="node13" class="node">
<title>Symfony\\Component\\Config\\Loader\\FileLoader</title>
<polygon fill="#fefece" stroke="transparent" points="1457,-1526 825,-1526 825,-1440 1457,-1440 1457,-1526"/>
<polygon fill="#eeeeee" stroke="transparent" points="825,-1504 825,-1526 1457,-1526 1457,-1504 825,-1504"/>
<polygon fill="none" stroke="black" points="825,-1504 825,-1526 1457,-1526 1457,-1504 825,-1504"/>
<text text-anchor="start" x="1117" y="-1517.6" font-family="Verdana" font-weight="bold" font-size="8.00">«abstract»</text>
<text text-anchor="start" x="1117" y="-1509.6" font-family="Verdana" font-weight="bold" font-size="8.00">FileLoader</text>
<polygon fill="none" stroke="black" points="825,-1498 825,-1504 1457,-1504 1457,-1498 825,-1498"/>
<polygon fill="none" stroke="black" points="825,-1440 825,-1498 1457,-1498 1457,-1440 825,-1440"/>
<text text-anchor="start" x="830" y="-1486.6" font-family="Verdana" font-size="8.00">+ __construct(locator : Symfony\Component\Config\FileLocatorInterface, env : string = «unknown»)</text>
<text text-anchor="start" x="830" y="-1473.6" font-family="Verdana" font-size="8.00">+ setCurrentDir(dir : string)</text>
<text text-anchor="start" x="830" y="-1460.6" font-family="Verdana" font-size="8.00">+ getLocator() : Symfony\Component\Config\FileLocatorInterface</text>
<text text-anchor="start" x="830" y="-1447.6" font-family="Verdana" font-size="8.00">+ import(resource : mixed, type : string = «unknown», ignoreErrors : bool = false, sourceResource : string = «unknown», exclude : mixed = «unknown»)</text>
</g>
<!-- Bartlett\\UmlWriter\\Config\\Loader\\YamlFileLoader&#45;&gt;Symfony\\Component\\Config\\Loader\\FileLoader -->
<g id="edge8" class="edge">
<title>Bartlett\\UmlWriter\\Config\\Loader\\YamlFileLoader&#45;&gt;Symfony\\Component\\Config\\Loader\\FileLoader</title>
<path fill="none" stroke="black" d="M514.28,-1483C596.66,-1483 708.36,-1483 814.6,-1483"/>
<polygon fill="none" stroke="black" points="814.86,-1486.5 824.86,-1483 814.86,-1479.5 814.86,-1486.5"/>
</g>
<!-- Symfony\\Component\\Config\\Loader\\Loader -->
<g id="node14" class="node">
<title>Symfony\\Component\\Config\\Loader\\Loader</title>
<polygon fill="#fefece" stroke="transparent" points="1981,-1532.5 1523,-1532.5 1523,-1433.5 1981,-1433.5 1981,-1532.5"/>
<polygon fill="#eeeeee" stroke="transparent" points="1523,-1510 1523,-1532 1981,-1532 1981,-1510 1523,-1510"/>
<polygon fill="none" stroke="black" points="1523,-1510 1523,-1532 1981,-1532 1981,-1510 1523,-1510"/>
<text text-anchor="start" x="1728" y="-1523.6" font-family="Verdana" font-weight="bold" font-size="8.00">«abstract»</text>
<text text-anchor="start" x="1736.5" y="-1515.6" font-family="Verdana" font-weight="bold" font-size="8.00">Loader</text>
<polygon fill="none" stroke="black" points="1523,-1504 1523,-1510 1981,-1510 1981,-1504 1523,-1504"/>
<polygon fill="none" stroke="black" points="1523,-1433 1523,-1504 1981,-1504 1981,-1433 1523,-1433"/>
<text text-anchor="start" x="1528" y="-1492.6" font-family="Verdana" font-size="8.00">+ __construct(env : string = «unknown»)</text>
<text text-anchor="start" x="1528" y="-1479.6" font-family="Verdana" font-size="8.00">+ getResolver() : Symfony\Component\Config\Loader\LoaderResolverInterface</text>
<text text-anchor="start" x="1528" y="-1466.6" font-family="Verdana" font-size="8.00">+ setResolver(resolver : Symfony\Component\Config\Loader\LoaderResolverInterface)</text>
<text text-anchor="start" x="1528" y="-1453.6" font-family="Verdana" font-size="8.00">+ import(resource : mixed, type : string = «unknown»)</text>
<text text-anchor="start" x="1528" y="-1440.6" font-family="Verdana" font-size="8.00">+ resolve(resource : mixed, type : string = «unknown») : Symfony\Component\Config\Loader\LoaderInterface</text>
</g>
<!-- Symfony\\Component\\Config\\Loader\\FileLoader&#45;&gt;Symfony\\Component\\Config\\Loader\\Loader -->
<g id="edge7" class="edge">
<title>Symfony\\Component\\Config\\Loader\\FileLoader&#45;&gt;Symfony\\Component\\Config\\Loader\\Loader</title>
<path fill="none" stroke="black" d="M1457.2,-1483C1475.81,-1483 1494.37,-1483 1512.6,-1483"/>
<polygon fill="none" stroke="black" points="1512.69,-1486.5 1522.69,-1483 1512.69,-1479.5 1512.69,-1486.5"/>
</g>
<!-- Symfony\\Component\\Config\\Loader\\LoaderInterface -->
<g id="node15" class="node">
<title>Symfony\\Component\\Config\\Loader\\LoaderInterface</title>
<polygon fill="#fefece" stroke="transparent" points="2427,-1526 2017,-1526 2017,-1440 2427,-1440 2427,-1526"/>
<polygon fill="#eeeeee" stroke="transparent" points="2017,-1504 2017,-1526 2427,-1526 2427,-1504 2017,-1504"/>
<polygon fill="none" stroke="black" points="2017,-1504 2017,-1526 2427,-1526 2427,-1504 2017,-1504"/>
<text text-anchor="start" x="2196" y="-1517.6" font-family="Verdana" font-weight="bold" font-size="8.00">«interface»</text>
<text text-anchor="start" x="2186" y="-1509.6" font-family="Verdana" font-weight="bold" font-size="8.00">LoaderInterface</text>
<polygon fill="none" stroke="black" points="2017,-1498 2017,-1504 2427,-1504 2427,-1498 2017,-1498"/>
<polygon fill="none" stroke="black" points="2017,-1440 2017,-1498 2427,-1498 2427,-1440 2017,-1440"/>
<text text-anchor="start" x="2022" y="-1486.6" font-family="Verdana" font-size="8.00">+ «abstract» load(resource : mixed, type : string = «unknown»)</text>
<text text-anchor="start" x="2022" y="-1473.6" font-family="Verdana" font-size="8.00">+ «abstract» supports(resource : mixed, type : string = «unknown»)</text>
<text text-anchor="start" x="2022" y="-1460.6" font-family="Verdana" font-size="8.00">+ «abstract» getResolver()</text>
<text text-anchor="start" x="2022" y="-1447.6" font-family="Verdana" font-size="8.00">+ «abstract» setResolver(resolver : Symfony\Component\Config\Loader\LoaderResolverInterface)</text>
</g>
<!-- Symfony\\Component\\Config\\Loader\\Loader&#45;&gt;Symfony\\Component\\Config\\Loader\\LoaderInterface -->
<g id="edge6" class="edge">
<title>Symfony\\Component\\Config\\Loader\\Loader&#45;&gt;Symfony\\Component\\Config\\Loader\\LoaderInterface</title>
<path fill="none" stroke="black" stroke-dasharray="5,2" d="M1981.17,-1483C1989.77,-1483 1998.38,-1483 2006.95,-1483"/>
<polygon fill="none" stroke="black" points="2006.99,-1486.5 2016.99,-1483 2006.99,-1479.5 2006.99,-1486.5"/>
</g>
</g>
</svg>
