<?xml version="1.0" encoding="UTF-8" standalone="no"?>
<!DOCTYPE svg PUBLIC "-//W3C//DTD SVG 1.1//EN"
 "http://www.w3.org/Graphics/SVG/1.1/DTD/svg11.dtd">
<!-- Generated by graphviz version 2.43.0 (0)
 -->
<!-- Title: %3 Pages: 1 -->
<svg width="1489pt" height="850pt"
 viewBox="0.00 0.00 1489.00 850.00" xmlns="http://www.w3.org/2000/svg" xmlns:xlink="http://www.w3.org/1999/xlink">
<g id="graph0" class="graph" transform="scale(1 1) rotate(0) translate(4 846)">
<title>%3</title>
<g id="clust1" class="cluster">
<title>cluster_0</title>
<polygon fill="BurlyWood" stroke="black" points="19,-677 19,-834 705,-834 705,-677 19,-677"/>
<text text-anchor="middle" x="362" y="-818.8" font-family="Times,serif" font-size="14.00">Bartlett\UmlWriter\Console</text>
</g>
<g id="clust2" class="cluster">
<title>cluster_1</title>
<polygon fill="LightSteelBlue" stroke="black" points="8,-102 8,-669 716,-669 716,-102 8,-102"/>
<text text-anchor="middle" x="362" y="-653.8" font-family="Times,serif" font-size="14.00">Symfony\Component\Console</text>
</g>
<g id="clust3" class="cluster">
<title>cluster_2</title>
<polygon fill="transparent" stroke="black" points="257,-8 257,-94 468,-94 468,-8 257,-8"/>
<text text-anchor="middle" x="362.5" y="-78.8" font-family="Times,serif" font-size="14.00">Symfony\Contracts\Service</text>
</g>
<g id="clust4" class="cluster">
<title>cluster_3</title>
<polygon fill="BurlyWood" stroke="black" points="713,-712.5 713,-798.5 1473,-798.5 1473,-712.5 713,-712.5"/>
<text text-anchor="middle" x="1093" y="-783.3" font-family="Times,serif" font-size="14.00">Bartlett\UmlWriter\Console\Command</text>
</g>
<g id="clust5" class="cluster">
<title>cluster_4</title>
<polygon fill="LightSteelBlue" stroke="black" points="739,-105.5 739,-665.5 1447,-665.5 1447,-105.5 739,-105.5"/>
<text text-anchor="middle" x="1093" y="-650.3" font-family="Times,serif" font-size="14.00">Symfony\Component\Console\Command</text>
</g>
<!-- Bartlett\\UmlWriter\\Console\\Application -->
<g id="node1" class="node">
<title>Bartlett\\UmlWriter\\Console\\Application</title>
<polygon fill="#fefece" stroke="transparent" points="696.5,-803 27.5,-803 27.5,-685 696.5,-685 696.5,-803"/>
<polygon fill="#eeeeee" stroke="transparent" points="28,-781 28,-803 697,-803 697,-781 28,-781"/>
<polygon fill="none" stroke="black" points="28,-781 28,-803 697,-803 697,-781 28,-781"/>
<text text-anchor="start" x="336.5" y="-786.6" font-family="Verdana" font-weight="bold" font-size="8.00">Application</text>
<polygon fill="none" stroke="black" points="28,-762 28,-781 697,-781 697,-762 28,-762"/>
<text text-anchor="start" x="33" y="-769.6" font-family="Verdana" font-size="8.00">+ «static» NAME : string = &quot;umlWriter&quot; {readOnly}</text>
<polygon fill="none" stroke="black" points="28,-756 28,-762 697,-762 697,-756 28,-756"/>
<polygon fill="none" stroke="black" points="28,-685 28,-756 697,-756 697,-685 28,-685"/>
<text text-anchor="start" x="33" y="-744.6" font-family="Verdana" font-size="8.00">+ __construct(container : Psr\Container\ContainerInterface)</text>
<text text-anchor="start" x="33" y="-731.6" font-family="Verdana" font-size="8.00">+ getHelp() : string</text>
<text text-anchor="start" x="33" y="-718.6" font-family="Verdana" font-size="8.00">+ getLongVersion() : string</text>
<text text-anchor="start" x="33" y="-705.6" font-family="Verdana" font-size="8.00">+ doRun(input : Symfony\Component\Console\Input\InputInterface, output : Symfony\Component\Console\Output\OutputInterface) : int</text>
<text text-anchor="start" x="33" y="-692.6" font-family="Verdana" font-size="8.00">+ run(input : Symfony\Component\Console\Input\InputInterface = «unknown», output : Symfony\Component\Console\Output\OutputInterface = «unknown») : int</text>
</g>
<!-- Symfony\\Component\\Console\\Application -->
<g id="node2" class="node">
<title>Symfony\\Component\\Console\\Application</title>
<polygon fill="#fefece" stroke="transparent" points="708,-638 16,-638 16,-110 708,-110 708,-638"/>
<polygon fill="#eeeeee" stroke="transparent" points="16,-616 16,-638 708,-638 708,-616 16,-616"/>
<polygon fill="none" stroke="black" points="16,-616 16,-638 708,-638 708,-616 16,-616"/>
<text text-anchor="start" x="336" y="-621.6" font-family="Verdana" font-weight="bold" font-size="8.00">Application</text>
<polygon fill="none" stroke="black" points="16,-610 16,-616 708,-616 708,-610 16,-610"/>
<polygon fill="none" stroke="black" points="16,-110 16,-610 708,-610 708,-110 16,-110"/>
<text text-anchor="start" x="21" y="-598.6" font-family="Verdana" font-size="8.00">+ __construct(name : string = &#39;UNKNOWN&#39;, version : string = &#39;UNKNOWN&#39;)</text>
<text text-anchor="start" x="21" y="-585.6" font-family="Verdana" font-size="8.00">+ setDispatcher(dispatcher : Symfony\Contracts\EventDispatcher\EventDispatcherInterface) : void</text>
<text text-anchor="start" x="21" y="-572.6" font-family="Verdana" font-size="8.00">+ setCommandLoader(commandLoader : Symfony\Component\Console\CommandLoader\CommandLoaderInterface)</text>
<text text-anchor="start" x="21" y="-559.6" font-family="Verdana" font-size="8.00">+ getSignalRegistry() : Symfony\Component\Console\SignalRegistry\SignalRegistry</text>
<text text-anchor="start" x="21" y="-546.6" font-family="Verdana" font-size="8.00">+ setSignalsToDispatchEvent(signalsToDispatchEvent : int = «unknown»)</text>
<text text-anchor="start" x="21" y="-533.6" font-family="Verdana" font-size="8.00">+ run(input : Symfony\Component\Console\Input\InputInterface = «unknown», output : Symfony\Component\Console\Output\OutputInterface = «unknown») : int</text>
<text text-anchor="start" x="21" y="-520.6" font-family="Verdana" font-size="8.00">+ doRun(input : Symfony\Component\Console\Input\InputInterface, output : Symfony\Component\Console\Output\OutputInterface)</text>
<text text-anchor="start" x="21" y="-507.6" font-family="Verdana" font-size="8.00">+ reset()</text>
<text text-anchor="start" x="21" y="-494.6" font-family="Verdana" font-size="8.00">+ setHelperSet(helperSet : Symfony\Component\Console\Helper\HelperSet)</text>
<text text-anchor="start" x="21" y="-481.6" font-family="Verdana" font-size="8.00">+ getHelperSet() : Symfony\Component\Console\Helper\HelperSet</text>
<text text-anchor="start" x="21" y="-468.6" font-family="Verdana" font-size="8.00">+ setDefinition(definition : Symfony\Component\Console\Input\InputDefinition)</text>
<text text-anchor="start" x="21" y="-455.6" font-family="Verdana" font-size="8.00">+ getDefinition() : Symfony\Component\Console\Input\InputDefinition</text>
<text text-anchor="start" x="21" y="-442.6" font-family="Verdana" font-size="8.00">+ complete(input : Symfony\Component\Console\Completion\CompletionInput, suggestions : Symfony\Component\Console\Completion\CompletionSuggestions) : void</text>
<text text-anchor="start" x="21" y="-429.6" font-family="Verdana" font-size="8.00">+ getHelp() : string</text>
<text text-anchor="start" x="21" y="-416.6" font-family="Verdana" font-size="8.00">+ areExceptionsCaught() : bool</text>
<text text-anchor="start" x="21" y="-403.6" font-family="Verdana" font-size="8.00">+ setCatchExceptions(boolean : bool)</text>
<text text-anchor="start" x="21" y="-390.6" font-family="Verdana" font-size="8.00">+ setCatchErrors(catchErrors : bool = true) : void</text>
<text text-anchor="start" x="21" y="-377.6" font-family="Verdana" font-size="8.00">+ isAutoExitEnabled() : bool</text>
<text text-anchor="start" x="21" y="-364.6" font-family="Verdana" font-size="8.00">+ setAutoExit(boolean : bool)</text>
<text text-anchor="start" x="21" y="-351.6" font-family="Verdana" font-size="8.00">+ getName() : string</text>
<text text-anchor="start" x="21" y="-338.6" font-family="Verdana" font-size="8.00">+ setName(name : string)</text>
<text text-anchor="start" x="21" y="-325.6" font-family="Verdana" font-size="8.00">+ getVersion() : string</text>
<text text-anchor="start" x="21" y="-312.6" font-family="Verdana" font-size="8.00">+ setVersion(version : string)</text>
<text text-anchor="start" x="21" y="-299.6" font-family="Verdana" font-size="8.00">+ getLongVersion()</text>
<text text-anchor="start" x="21" y="-286.6" font-family="Verdana" font-size="8.00">+ register(name : string) : Symfony\Component\Console\Command\Command</text>
<text text-anchor="start" x="21" y="-273.6" font-family="Verdana" font-size="8.00">+ addCommands(commands : array)</text>
<text text-anchor="start" x="21" y="-260.6" font-family="Verdana" font-size="8.00">+ add(command : Symfony\Component\Console\Command\Command)</text>
<text text-anchor="start" x="21" y="-247.6" font-family="Verdana" font-size="8.00">+ get(name : string)</text>
<text text-anchor="start" x="21" y="-234.6" font-family="Verdana" font-size="8.00">+ has(name : string) : bool</text>
<text text-anchor="start" x="21" y="-221.6" font-family="Verdana" font-size="8.00">+ getNamespaces() : array</text>
<text text-anchor="start" x="21" y="-208.6" font-family="Verdana" font-size="8.00">+ findNamespace(namespace : string) : string</text>
<text text-anchor="start" x="21" y="-195.6" font-family="Verdana" font-size="8.00">+ find(name : string)</text>
<text text-anchor="start" x="21" y="-182.6" font-family="Verdana" font-size="8.00">+ all(namespace : string = «unknown»)</text>
<text text-anchor="start" x="21" y="-169.6" font-family="Verdana" font-size="8.00">+ «static» getAbbreviations(names : array) : array</text>
<text text-anchor="start" x="21" y="-156.6" font-family="Verdana" font-size="8.00">+ renderThrowable(e : Throwable, output : Symfony\Component\Console\Output\OutputInterface) : void</text>
<text text-anchor="start" x="21" y="-143.6" font-family="Verdana" font-size="8.00">+ extractNamespace(name : string, limit : int = «unknown») : string</text>
<text text-anchor="start" x="21" y="-130.6" font-family="Verdana" font-size="8.00">+ setDefaultCommand(commandName : string, isSingleCommand : bool = false) : static</text>
<text text-anchor="start" x="21" y="-117.6" font-family="Verdana" font-size="8.00">+ isSingleCommand() : bool</text>
</g>
<!-- Bartlett\\UmlWriter\\Console\\Application&#45;&gt;Symfony\\Component\\Console\\Application -->
<g id="edge2" class="edge">
<title>Bartlett\\UmlWriter\\Console\\Application&#45;&gt;Symfony\\Component\\Console\\Application</title>
<path fill="none" stroke="black" d="M362,-684.69C362,-673.63 362,-661.4 362,-648.39"/>
<polygon fill="none" stroke="black" points="365.5,-648.29 362,-638.29 358.5,-648.29 365.5,-648.29"/>
</g>
<!-- Symfony\\Contracts\\Service\\ResetInterface -->
<g id="node3" class="node">
<title>Symfony\\Contracts\\Service\\ResetInterface</title>
<polygon fill="white" stroke="transparent" points="408.5,-63 315.5,-63 315.5,-16 408.5,-16 408.5,-63"/>
<polygon fill="#eeeeee" stroke="transparent" points="316,-40.5 316,-62.5 409,-62.5 409,-40.5 316,-40.5"/>
<polygon fill="none" stroke="black" points="316,-40.5 316,-62.5 409,-62.5 409,-40.5 316,-40.5"/>
<text text-anchor="start" x="336.5" y="-54.1" font-family="Verdana" font-weight="bold" font-size="8.00">«interface»</text>
<text text-anchor="start" x="329.5" y="-46.1" font-family="Verdana" font-weight="bold" font-size="8.00">ResetInterface</text>
<polygon fill="none" stroke="black" points="316,-34.5 316,-40.5 409,-40.5 409,-34.5 316,-34.5"/>
<polygon fill="none" stroke="black" points="316,-15.5 316,-34.5 409,-34.5 409,-15.5 316,-15.5"/>
<text text-anchor="start" x="321" y="-23.1" font-family="Verdana" font-size="8.00">+ «abstract» reset()</text>
</g>
<!-- Symfony\\Component\\Console\\Application&#45;&gt;Symfony\\Contracts\\Service\\ResetInterface -->
<g id="edge1" class="edge">
<title>Symfony\\Component\\Console\\Application&#45;&gt;Symfony\\Contracts\\Service\\ResetInterface</title>
<path fill="none" stroke="black" stroke-dasharray="5,2" d="M362,-109.8C362,-96.04 362,-83.64 362,-73.26"/>
<polygon fill="none" stroke="black" points="365.5,-73.21 362,-63.21 358.5,-73.21 365.5,-73.21"/>
</g>
<!-- Bartlett\\UmlWriter\\Console\\Command\\ClassDiagramCommand -->
<g id="node4" class="node">
<title>Bartlett\\UmlWriter\\Console\\Command\\ClassDiagramCommand</title>
<polygon fill="#fefece" stroke="transparent" points="1464.5,-767.5 721.5,-767.5 721.5,-720.5 1464.5,-720.5 1464.5,-767.5"/>
<polygon fill="#eeeeee" stroke="transparent" points="722,-745 722,-767 1465,-767 1465,-745 722,-745"/>
<polygon fill="none" stroke="black" points="722,-745 722,-767 1465,-767 1465,-745 722,-745"/>
<text text-anchor="start" x="1040" y="-750.6" font-family="Verdana" font-weight="bold" font-size="8.00">ClassDiagramCommand</text>
<polygon fill="none" stroke="black" points="722,-739 722,-745 1465,-745 1465,-739 722,-739"/>
<polygon fill="none" stroke="black" points="722,-720 722,-739 1465,-739 1465,-720 722,-720"/>
<text text-anchor="start" x="727" y="-727.6" font-family="Verdana" font-size="8.00">+ __construct(renderer : Bartlett\UmlWriter\Service\ClassDiagramRenderer, generatorFactory : Bartlett\UmlWriter\Generator\GeneratorFactoryInterface, name : string = «unknown»)</text>
</g>
<!-- Symfony\\Component\\Console\\Command\\Command -->
<g id="node5" class="node">
<title>Symfony\\Component\\Console\\Command\\Command</title>
<polygon fill="#fefece" stroke="transparent" points="1439,-634.5 747,-634.5 747,-113.5 1439,-113.5 1439,-634.5"/>
<polygon fill="#eeeeee" stroke="transparent" points="747,-612 747,-634 1439,-634 1439,-612 747,-612"/>
<polygon fill="none" stroke="black" points="747,-612 747,-634 1439,-634 1439,-612 747,-612"/>
<text text-anchor="start" x="1070" y="-617.6" font-family="Verdana" font-weight="bold" font-size="8.00">Command</text>
<polygon fill="none" stroke="black" points="747,-567 747,-612 1439,-612 1439,-567 747,-567"/>
<text text-anchor="start" x="752" y="-600.6" font-family="Verdana" font-size="8.00">+ «static» SUCCESS : int = 0 {readOnly}</text>
<text text-anchor="start" x="752" y="-587.6" font-family="Verdana" font-size="8.00">+ «static» FAILURE : int = 1 {readOnly}</text>
<text text-anchor="start" x="752" y="-574.6" font-family="Verdana" font-size="8.00">+ «static» INVALID : int = 2 {readOnly}</text>
<polygon fill="none" stroke="black" points="747,-561 747,-567 1439,-567 1439,-561 747,-561"/>
<polygon fill="none" stroke="black" points="747,-113 747,-561 1439,-561 1439,-113 747,-113"/>
<text text-anchor="start" x="752" y="-549.6" font-family="Verdana" font-size="8.00">+ «static» getDefaultName() : ?string</text>
<text text-anchor="start" x="752" y="-536.6" font-family="Verdana" font-size="8.00">+ «static» getDefaultDescription() : ?string</text>
<text text-anchor="start" x="752" y="-523.6" font-family="Verdana" font-size="8.00">+ __construct(name : string = «unknown»)</text>
<text text-anchor="start" x="752" y="-510.6" font-family="Verdana" font-size="8.00">+ ignoreValidationErrors()</text>
<text text-anchor="start" x="752" y="-497.6" font-family="Verdana" font-size="8.00">+ setApplication(application : Symfony\Component\Console\Application = «unknown»)</text>
<text text-anchor="start" x="752" y="-484.6" font-family="Verdana" font-size="8.00">+ setHelperSet(helperSet : Symfony\Component\Console\Helper\HelperSet)</text>
<text text-anchor="start" x="752" y="-471.6" font-family="Verdana" font-size="8.00">+ getHelperSet() : ?Symfony\Component\Console\Helper\HelperSet</text>
<text text-anchor="start" x="752" y="-458.6" font-family="Verdana" font-size="8.00">+ getApplication() : ?Symfony\Component\Console\Application</text>
<text text-anchor="start" x="752" y="-445.6" font-family="Verdana" font-size="8.00">+ isEnabled()</text>
<text text-anchor="start" x="752" y="-432.6" font-family="Verdana" font-size="8.00">+ run(input : Symfony\Component\Console\Input\InputInterface, output : Symfony\Component\Console\Output\OutputInterface) : int</text>
<text text-anchor="start" x="752" y="-419.6" font-family="Verdana" font-size="8.00">+ complete(input : Symfony\Component\Console\Completion\CompletionInput, suggestions : Symfony\Component\Console\Completion\CompletionSuggestions) : void</text>
<text text-anchor="start" x="752" y="-406.6" font-family="Verdana" font-size="8.00">+ setCode(code : callable) : static</text>
<text text-anchor="start" x="752" y="-393.6" font-family="Verdana" font-size="8.00">+ mergeApplicationDefinition(mergeArgs : bool = true) : void</text>
<text text-anchor="start" x="752" y="-380.6" font-family="Verdana" font-size="8.00">+ setDefinition(definition) : static</text>
<text text-anchor="start" x="752" y="-367.6" font-family="Verdana" font-size="8.00">+ getDefinition() : Symfony\Component\Console\Input\InputDefinition</text>
<text text-anchor="start" x="752" y="-354.6" font-family="Verdana" font-size="8.00">+ getNativeDefinition() : Symfony\Component\Console\Input\InputDefinition</text>
<text text-anchor="start" x="752" y="-341.6" font-family="Verdana" font-size="8.00">+ addArgument(name : string, mode : int = «unknown», description : string = &#39;&#39;, default : mixed = «unknown») : static</text>
<text text-anchor="start" x="752" y="-328.6" font-family="Verdana" font-size="8.00">+ addOption(name : string, shortcut = «unknown», mode : int = «unknown», description : string = &#39;&#39;, default : mixed = «unknown») : static</text>
<text text-anchor="start" x="752" y="-315.6" font-family="Verdana" font-size="8.00">+ setName(name : string) : static</text>
<text text-anchor="start" x="752" y="-302.6" font-family="Verdana" font-size="8.00">+ setProcessTitle(title : string) : static</text>
<text text-anchor="start" x="752" y="-289.6" font-family="Verdana" font-size="8.00">+ getName() : ?string</text>
<text text-anchor="start" x="752" y="-276.6" font-family="Verdana" font-size="8.00">+ setHidden(hidden : bool = true) : static</text>
<text text-anchor="start" x="752" y="-263.6" font-family="Verdana" font-size="8.00">+ isHidden() : bool</text>
<text text-anchor="start" x="752" y="-250.6" font-family="Verdana" font-size="8.00">+ setDescription(description : string) : static</text>
<text text-anchor="start" x="752" y="-237.6" font-family="Verdana" font-size="8.00">+ getDescription() : string</text>
<text text-anchor="start" x="752" y="-224.6" font-family="Verdana" font-size="8.00">+ setHelp(help : string) : static</text>
<text text-anchor="start" x="752" y="-211.6" font-family="Verdana" font-size="8.00">+ getHelp() : string</text>
<text text-anchor="start" x="752" y="-198.6" font-family="Verdana" font-size="8.00">+ getProcessedHelp() : string</text>
<text text-anchor="start" x="752" y="-185.6" font-family="Verdana" font-size="8.00">+ setAliases(aliases : iterable) : static</text>
<text text-anchor="start" x="752" y="-172.6" font-family="Verdana" font-size="8.00">+ getAliases() : array</text>
<text text-anchor="start" x="752" y="-159.6" font-family="Verdana" font-size="8.00">+ getSynopsis(short : bool = false) : string</text>
<text text-anchor="start" x="752" y="-146.6" font-family="Verdana" font-size="8.00">+ addUsage(usage : string) : static</text>
<text text-anchor="start" x="752" y="-133.6" font-family="Verdana" font-size="8.00">+ getUsages() : array</text>
<text text-anchor="start" x="752" y="-120.6" font-family="Verdana" font-size="8.00">+ getHelper(name : string) : ?mixed</text>
</g>
<!-- Bartlett\\UmlWriter\\Console\\Command\\ClassDiagramCommand&#45;&gt;Symfony\\Component\\Console\\Command\\Command -->
<g id="edge3" class="edge">
<title>Bartlett\\UmlWriter\\Console\\Command\\ClassDiagramCommand&#45;&gt;Symfony\\Component\\Console\\Command\\Command</title>
<path fill="none" stroke="black" d="M1093,-720.26C1093,-702.51 1093,-675.73 1093,-644.77"/>
<polygon fill="none" stroke="black" points="1096.5,-644.57 1093,-634.57 1089.5,-644.57 1096.5,-644.57"/>
</g>
</g>
</svg>
