<?xml version="1.0" encoding="UTF-8" standalone="no"?>
<!DOCTYPE svg PUBLIC "-//W3C//DTD SVG 1.1//EN"
 "http://www.w3.org/Graphics/SVG/1.1/DTD/svg11.dtd">
<!-- Generated by graphviz version 2.43.0 (0)
 -->
<!-- Title: %3 Pages: 1 -->
<svg width="1489pt" height="850pt"
 viewBox="0.00 0.00 1489.00 850.00" xmlns="http://www.w3.org/2000/svg" xmlns:xlink="http://www.w3.org/1999/xlink">
<g id="graph0" class="graph" transform="scale(1 1) rotate(0) translate(4 846)">
<title>%3</title>
<g id="clust1" class="cluster">
<title>cluster_0</title>
<polygon fill="BurlyWood" stroke="black" points="8,-712.5 8,-798.5 768,-798.5 768,-712.5 8,-712.5"/>
<text text-anchor="middle" x="388" y="-783.3" font-family="Times,serif" font-size="14.00">Bartlett\UmlWriter\Console\Command</text>
</g>
<g id="clust2" class="cluster">
<title>cluster_1</title>
<polygon fill="transparent" stroke="black" points="34,-105.5 34,-665.5 742,-665.5 742,-105.5 34,-105.5"/>
<text text-anchor="middle" x="388" y="-650.3" font-family="Times,serif" font-size="14.00">Symfony\Component\Console\Command</text>
</g>
<g id="clust3" class="cluster">
<title>cluster_2</title>
<polygon fill="BurlyWood" stroke="black" points="776,-677 776,-834 1462,-834 1462,-677 776,-677"/>
<text text-anchor="middle" x="1119" y="-818.8" font-family="Times,serif" font-size="14.00">Bartlett\UmlWriter\Console</text>
</g>
<g id="clust4" class="cluster">
<title>cluster_3</title>
<polygon fill="transparent" stroke="black" points="765,-102 765,-669 1473,-669 1473,-102 765,-102"/>
<text text-anchor="middle" x="1119" y="-653.8" font-family="Times,serif" font-size="14.00">Symfony\Component\Console</text>
</g>
<g id="clust5" class="cluster">
<title>cluster_4</title>
<polygon fill="transparent" stroke="black" points="1014,-8 1014,-94 1225,-94 1225,-8 1014,-8"/>
<text text-anchor="middle" x="1119.5" y="-78.8" font-family="Times,serif" font-size="14.00">Symfony\Contracts\Service</text>
</g>
<!-- Bartlett\\UmlWriter\\Console\\Command\\ClassDiagramCommand -->
<g id="node1" class="node">
<title>Bartlett\\UmlWriter\\Console\\Command\\ClassDiagramCommand</title>
<polygon fill="#fefece" stroke="transparent" points="759.5,-767.5 16.5,-767.5 16.5,-720.5 759.5,-720.5 759.5,-767.5"/>
<polygon fill="#eeeeee" stroke="transparent" points="17,-745 17,-767 760,-767 760,-745 17,-745"/>
<polygon fill="none" stroke="black" points="17,-745 17,-767 760,-767 760,-745 17,-745"/>
<text text-anchor="start" x="335" y="-750.6" font-family="Verdana" font-weight="bold" font-size="8.00">ClassDiagramCommand</text>
<polygon fill="none" stroke="black" points="17,-739 17,-745 760,-745 760,-739 17,-739"/>
<polygon fill="none" stroke="black" points="17,-720 17,-739 760,-739 760,-720 17,-720"/>
<text text-anchor="start" x="22" y="-727.6" font-family="Verdana" font-size="8.00">+ __construct(renderer : Bartlett\UmlWriter\Service\ClassDiagramRenderer, generatorFactory : Bartlett\UmlWriter\Generator\GeneratorFactoryInterface, name : string = «unknown»)</text>
</g>
<!-- Symfony\\Component\\Console\\Command\\Command -->
<g id="node2" class="node">
<title>Symfony\\Component\\Console\\Command\\Command</title>
<polygon fill="#fefece" stroke="transparent" points="734,-634.5 42,-634.5 42,-113.5 734,-113.5 734,-634.5"/>
<polygon fill="#eeeeee" stroke="transparent" points="42,-612 42,-634 734,-634 734,-612 42,-612"/>
<polygon fill="none" stroke="black" points="42,-612 42,-634 734,-634 734,-612 42,-612"/>
<text text-anchor="start" x="365" y="-617.6" font-family="Verdana" font-weight="bold" font-size="8.00">Command</text>
<polygon fill="none" stroke="black" points="42,-567 42,-612 734,-612 734,-567 42,-567"/>
<text text-anchor="start" x="47" y="-600.6" font-family="Verdana" font-size="8.00">+ «static» SUCCESS : int = 0 {readOnly}</text>
<text text-anchor="start" x="47" y="-587.6" font-family="Verdana" font-size="8.00">+ «static» FAILURE : int = 1 {readOnly}</text>
<text text-anchor="start" x="47" y="-574.6" font-family="Verdana" font-size="8.00">+ «static» INVALID : int = 2 {readOnly}</text>
<polygon fill="none" stroke="black" points="42,-561 42,-567 734,-567 734,-561 42,-561"/>
<polygon fill="none" stroke="black" points="42,-113 42,-561 734,-561 734,-113 42,-113"/>
<text text-anchor="start" x="47" y="-549.6" font-family="Verdana" font-size="8.00">+ «static» getDefaultName() : ?string</text>
<text text-anchor="start" x="47" y="-536.6" font-family="Verdana" font-size="8.00">+ «static» getDefaultDescription() : ?string</text>
<text text-anchor="start" x="47" y="-523.6" font-family="Verdana" font-size="8.00">+ __construct(name : string = «unknown»)</text>
<text text-anchor="start" x="47" y="-510.6" font-family="Verdana" font-size="8.00">+ ignoreValidationErrors()</text>
<text text-anchor="start" x="47" y="-497.6" font-family="Verdana" font-size="8.00">+ setApplication(application : Symfony\Component\Console\Application = «unknown»)</text>
<text text-anchor="start" x="47" y="-484.6" font-family="Verdana" font-size="8.00">+ setHelperSet(helperSet : Symfony\Component\Console\Helper\HelperSet)</text>
<text text-anchor="start" x="47" y="-471.6" font-family="Verdana" font-size="8.00">+ getHelperSet() : ?Symfony\Component\Console\Helper\HelperSet</text>
<text text-anchor="start" x="47" y="-458.6" font-family="Verdana" font-size="8.00">+ getApplication() : ?Symfony\Component\Console\Application</text>
<text text-anchor="start" x="47" y="-445.6" font-family="Verdana" font-size="8.00">+ isEnabled()</text>
<text text-anchor="start" x="47" y="-432.6" font-family="Verdana" font-size="8.00">+ run(input : Symfony\Component\Console\Input\InputInterface, output : Symfony\Component\Console\Output\OutputInterface) : int</text>
<text text-anchor="start" x="47" y="-419.6" font-family="Verdana" font-size="8.00">+ complete(input : Symfony\Component\Console\Completion\CompletionInput, suggestions : Symfony\Component\Console\Completion\CompletionSuggestions) : void</text>
<text text-anchor="start" x="47" y="-406.6" font-family="Verdana" font-size="8.00">+ setCode(code : callable) : static</text>
<text text-anchor="start" x="47" y="-393.6" font-family="Verdana" font-size="8.00">+ mergeApplicationDefinition(mergeArgs : bool = true) : void</text>
<text text-anchor="start" x="47" y="-380.6" font-family="Verdana" font-size="8.00">+ setDefinition(definition) : static</text>
<text text-anchor="start" x="47" y="-367.6" font-family="Verdana" font-size="8.00">+ getDefinition() : Symfony\Component\Console\Input\InputDefinition</text>
<text text-anchor="start" x="47" y="-354.6" font-family="Verdana" font-size="8.00">+ getNativeDefinition() : Symfony\Component\Console\Input\InputDefinition</text>
<text text-anchor="start" x="47" y="-341.6" font-family="Verdana" font-size="8.00">+ addArgument(name : string, mode : int = «unknown», description : string = &#39;&#39;, default : mixed = «unknown») : static</text>
<text text-anchor="start" x="47" y="-328.6" font-family="Verdana" font-size="8.00">+ addOption(name : string, shortcut = «unknown», mode : int = «unknown», description : string = &#39;&#39;, default : mixed = «unknown») : static</text>
<text text-anchor="start" x="47" y="-315.6" font-family="Verdana" font-size="8.00">+ setName(name : string) : static</text>
<text text-anchor="start" x="47" y="-302.6" font-family="Verdana" font-size="8.00">+ setProcessTitle(title : string) : static</text>
<text text-anchor="start" x="47" y="-289.6" font-family="Verdana" font-size="8.00">+ getName() : ?string</text>
<text text-anchor="start" x="47" y="-276.6" font-family="Verdana" font-size="8.00">+ setHidden(hidden : bool = true) : static</text>
<text text-anchor="start" x="47" y="-263.6" font-family="Verdana" font-size="8.00">+ isHidden() : bool</text>
<text text-anchor="start" x="47" y="-250.6" font-family="Verdana" font-size="8.00">+ setDescription(description : string) : static</text>
<text text-anchor="start" x="47" y="-237.6" font-family="Verdana" font-size="8.00">+ getDescription() : string</text>
<text text-anchor="start" x="47" y="-224.6" font-family="Verdana" font-size="8.00">+ setHelp(help : string) : static</text>
<text text-anchor="start" x="47" y="-211.6" font-family="Verdana" font-size="8.00">+ getHelp() : string</text>
<text text-anchor="start" x="47" y="-198.6" font-family="Verdana" font-size="8.00">+ getProcessedHelp() : string</text>
<text text-anchor="start" x="47" y="-185.6" font-family="Verdana" font-size="8.00">+ setAliases(aliases : iterable) : static</text>
<text text-anchor="start" x="47" y="-172.6" font-family="Verdana" font-size="8.00">+ getAliases() : array</text>
<text text-anchor="start" x="47" y="-159.6" font-family="Verdana" font-size="8.00">+ getSynopsis(short : bool = false) : string</text>
<text text-anchor="start" x="47" y="-146.6" font-family="Verdana" font-size="8.00">+ addUsage(usage : string) : static</text>
<text text-anchor="start" x="47" y="-133.6" font-family="Verdana" font-size="8.00">+ getUsages() : array</text>
<text text-anchor="start" x="47" y="-120.6" font-family="Verdana" font-size="8.00">+ getHelper(name : string) : ?mixed</text>
</g>
<!-- Bartlett\\UmlWriter\\Console\\Command\\ClassDiagramCommand&#45;&gt;Symfony\\Component\\Console\\Command\\Command -->
<g id="edge1" class="edge">
<title>Bartlett\\UmlWriter\\Console\\Command\\ClassDiagramCommand&#45;&gt;Symfony\\Component\\Console\\Command\\Command</title>
<path fill="none" stroke="black" d="M388,-720.26C388,-702.51 388,-675.73 388,-644.77"/>
<polygon fill="none" stroke="black" points="391.5,-644.57 388,-634.57 384.5,-644.57 391.5,-644.57"/>
</g>
<!-- Bartlett\\UmlWriter\\Console\\Application -->
<g id="node3" class="node">
<title>Bartlett\\UmlWriter\\Console\\Application</title>
<polygon fill="#fefece" stroke="transparent" points="1453.5,-803 784.5,-803 784.5,-685 1453.5,-685 1453.5,-803"/>
<polygon fill="#eeeeee" stroke="transparent" points="785,-781 785,-803 1454,-803 1454,-781 785,-781"/>
<polygon fill="none" stroke="black" points="785,-781 785,-803 1454,-803 1454,-781 785,-781"/>
<text text-anchor="start" x="1093.5" y="-786.6" font-family="Verdana" font-weight="bold" font-size="8.00">Application</text>
<polygon fill="none" stroke="black" points="785,-762 785,-781 1454,-781 1454,-762 785,-762"/>
<text text-anchor="start" x="790" y="-769.6" font-family="Verdana" font-size="8.00">+ «static» NAME : string = &quot;umlWriter&quot; {readOnly}</text>
<polygon fill="none" stroke="black" points="785,-756 785,-762 1454,-762 1454,-756 785,-756"/>
<polygon fill="none" stroke="black" points="785,-685 785,-756 1454,-756 1454,-685 785,-685"/>
<text text-anchor="start" x="790" y="-744.6" font-family="Verdana" font-size="8.00">+ __construct(container : Psr\Container\ContainerInterface)</text>
<text text-anchor="start" x="790" y="-731.6" font-family="Verdana" font-size="8.00">+ getHelp() : string</text>
<text text-anchor="start" x="790" y="-718.6" font-family="Verdana" font-size="8.00">+ getLongVersion() : string</text>
<text text-anchor="start" x="790" y="-705.6" font-family="Verdana" font-size="8.00">+ doRun(input : Symfony\Component\Console\Input\InputInterface, output : Symfony\Component\Console\Output\OutputInterface) : int</text>
<text text-anchor="start" x="790" y="-692.6" font-family="Verdana" font-size="8.00">+ run(input : Symfony\Component\Console\Input\InputInterface = «unknown», output : Symfony\Component\Console\Output\OutputInterface = «unknown») : int</text>
</g>
<!-- Symfony\\Component\\Console\\Application -->
<g id="node4" class="node">
<title>Symfony\\Component\\Console\\Application</title>
<polygon fill="#fefece" stroke="transparent" points="1465,-638 773,-638 773,-110 1465,-110 1465,-638"/>
<polygon fill="#eeeeee" stroke="transparent" points="773,-616 773,-638 1465,-638 1465,-616 773,-616"/>
<polygon fill="none" stroke="black" points="773,-616 773,-638 1465,-638 1465,-616 773,-616"/>
<text text-anchor="start" x="1093" y="-621.6" font-family="Verdana" font-weight="bold" font-size="8.00">Application</text>
<polygon fill="none" stroke="black" points="773,-610 773,-616 1465,-616 1465,-610 773,-610"/>
<polygon fill="none" stroke="black" points="773,-110 773,-610 1465,-610 1465,-110 773,-110"/>
<text text-anchor="start" x="778" y="-598.6" font-family="Verdana" font-size="8.00">+ __construct(name : string = &#39;UNKNOWN&#39;, version : string = &#39;UNKNOWN&#39;)</text>
<text text-anchor="start" x="778" y="-585.6" font-family="Verdana" font-size="8.00">+ setDispatcher(dispatcher : Symfony\Contracts\EventDispatcher\EventDispatcherInterface) : void</text>
<text text-anchor="start" x="778" y="-572.6" font-family="Verdana" font-size="8.00">+ setCommandLoader(commandLoader : Symfony\Component\Console\CommandLoader\CommandLoaderInterface)</text>
<text text-anchor="start" x="778" y="-559.6" font-family="Verdana" font-size="8.00">+ getSignalRegistry() : Symfony\Component\Console\SignalRegistry\SignalRegistry</text>
<text text-anchor="start" x="778" y="-546.6" font-family="Verdana" font-size="8.00">+ setSignalsToDispatchEvent(signalsToDispatchEvent : int = «unknown»)</text>
<text text-anchor="start" x="778" y="-533.6" font-family="Verdana" font-size="8.00">+ run(input : Symfony\Component\Console\Input\InputInterface = «unknown», output : Symfony\Component\Console\Output\OutputInterface = «unknown») : int</text>
<text text-anchor="start" x="778" y="-520.6" font-family="Verdana" font-size="8.00">+ doRun(input : Symfony\Component\Console\Input\InputInterface, output : Symfony\Component\Console\Output\OutputInterface)</text>
<text text-anchor="start" x="778" y="-507.6" font-family="Verdana" font-size="8.00">+ reset()</text>
<text text-anchor="start" x="778" y="-494.6" font-family="Verdana" font-size="8.00">+ setHelperSet(helperSet : Symfony\Component\Console\Helper\HelperSet)</text>
<text text-anchor="start" x="778" y="-481.6" font-family="Verdana" font-size="8.00">+ getHelperSet() : Symfony\Component\Console\Helper\HelperSet</text>
<text text-anchor="start" x="778" y="-468.6" font-family="Verdana" font-size="8.00">+ setDefinition(definition : Symfony\Component\Console\Input\InputDefinition)</text>
<text text-anchor="start" x="778" y="-455.6" font-family="Verdana" font-size="8.00">+ getDefinition() : Symfony\Component\Console\Input\InputDefinition</text>
<text text-anchor="start" x="778" y="-442.6" font-family="Verdana" font-size="8.00">+ complete(input : Symfony\Component\Console\Completion\CompletionInput, suggestions : Symfony\Component\Console\Completion\CompletionSuggestions) : void</text>
<text text-anchor="start" x="778" y="-429.6" font-family="Verdana" font-size="8.00">+ getHelp() : string</text>
<text text-anchor="start" x="778" y="-416.6" font-family="Verdana" font-size="8.00">+ areExceptionsCaught() : bool</text>
<text text-anchor="start" x="778" y="-403.6" font-family="Verdana" font-size="8.00">+ setCatchExceptions(boolean : bool)</text>
<text text-anchor="start" x="778" y="-390.6" font-family="Verdana" font-size="8.00">+ setCatchErrors(catchErrors : bool = true) : void</text>
<text text-anchor="start" x="778" y="-377.6" font-family="Verdana" font-size="8.00">+ isAutoExitEnabled() : bool</text>
<text text-anchor="start" x="778" y="-364.6" font-family="Verdana" font-size="8.00">+ setAutoExit(boolean : bool)</text>
<text text-anchor="start" x="778" y="-351.6" font-family="Verdana" font-size="8.00">+ getName() : string</text>
<text text-anchor="start" x="778" y="-338.6" font-family="Verdana" font-size="8.00">+ setName(name : string)</text>
<text text-anchor="start" x="778" y="-325.6" font-family="Verdana" font-size="8.00">+ getVersion() : string</text>
<text text-anchor="start" x="778" y="-312.6" font-family="Verdana" font-size="8.00">+ setVersion(version : string)</text>
<text text-anchor="start" x="778" y="-299.6" font-family="Verdana" font-size="8.00">+ getLongVersion()</text>
<text text-anchor="start" x="778" y="-286.6" font-family="Verdana" font-size="8.00">+ register(name : string) : Symfony\Component\Console\Command\Command</text>
<text text-anchor="start" x="778" y="-273.6" font-family="Verdana" font-size="8.00">+ addCommands(commands : array)</text>
<text text-anchor="start" x="778" y="-260.6" font-family="Verdana" font-size="8.00">+ add(command : Symfony\Component\Console\Command\Command)</text>
<text text-anchor="start" x="778" y="-247.6" font-family="Verdana" font-size="8.00">+ get(name : string)</text>
<text text-anchor="start" x="778" y="-234.6" font-family="Verdana" font-size="8.00">+ has(name : string) : bool</text>
<text text-anchor="start" x="778" y="-221.6" font-family="Verdana" font-size="8.00">+ getNamespaces() : array</text>
<text text-anchor="start" x="778" y="-208.6" font-family="Verdana" font-size="8.00">+ findNamespace(namespace : string) : string</text>
<text text-anchor="start" x="778" y="-195.6" font-family="Verdana" font-size="8.00">+ find(name : string)</text>
<text text-anchor="start" x="778" y="-182.6" font-family="Verdana" font-size="8.00">+ all(namespace : string = «unknown»)</text>
<text text-anchor="start" x="778" y="-169.6" font-family="Verdana" font-size="8.00">+ «static» getAbbreviations(names : array) : array</text>
<text text-anchor="start" x="778" y="-156.6" font-family="Verdana" font-size="8.00">+ renderThrowable(e : Throwable, output : Symfony\Component\Console\Output\OutputInterface) : void</text>
<text text-anchor="start" x="778" y="-143.6" font-family="Verdana" font-size="8.00">+ extractNamespace(name : string, limit : int = «unknown») : string</text>
<text text-anchor="start" x="778" y="-130.6" font-family="Verdana" font-size="8.00">+ setDefaultCommand(commandName : string, isSingleCommand : bool = false) : static</text>
<text text-anchor="start" x="778" y="-117.6" font-family="Verdana" font-size="8.00">+ isSingleCommand() : bool</text>
</g>
<!-- Bartlett\\UmlWriter\\Console\\Application&#45;&gt;Symfony\\Component\\Console\\Application -->
<g id="edge3" class="edge">
<title>Bartlett\\UmlWriter\\Console\\Application&#45;&gt;Symfony\\Component\\Console\\Application</title>
<path fill="none" stroke="black" d="M1119,-684.69C1119,-673.63 1119,-661.4 1119,-648.39"/>
<polygon fill="none" stroke="black" points="1122.5,-648.29 1119,-638.29 1115.5,-648.29 1122.5,-648.29"/>
</g>
<!-- Symfony\\Contracts\\Service\\ResetInterface -->
<g id="node5" class="node">
<title>Symfony\\Contracts\\Service\\ResetInterface</title>
<polygon fill="#fefece" stroke="transparent" points="1165.5,-63 1072.5,-63 1072.5,-16 1165.5,-16 1165.5,-63"/>
<polygon fill="#eeeeee" stroke="transparent" points="1073,-40.5 1073,-62.5 1166,-62.5 1166,-40.5 1073,-40.5"/>
<polygon fill="none" stroke="black" points="1073,-40.5 1073,-62.5 1166,-62.5 1166,-40.5 1073,-40.5"/>
<text text-anchor="start" x="1093.5" y="-54.1" font-family="Verdana" font-weight="bold" font-size="8.00">«interface»</text>
<text text-anchor="start" x="1086.5" y="-46.1" font-family="Verdana" font-weight="bold" font-size="8.00">ResetInterface</text>
<polygon fill="none" stroke="black" points="1073,-34.5 1073,-40.5 1166,-40.5 1166,-34.5 1073,-34.5"/>
<polygon fill="none" stroke="black" points="1073,-15.5 1073,-34.5 1166,-34.5 1166,-15.5 1073,-15.5"/>
<text text-anchor="start" x="1078" y="-23.1" font-family="Verdana" font-size="8.00">+ «abstract» reset()</text>
</g>
<!-- Symfony\\Component\\Console\\Application&#45;&gt;Symfony\\Contracts\\Service\\ResetInterface -->
<g id="edge2" class="edge">
<title>Symfony\\Component\\Console\\Application&#45;&gt;Symfony\\Contracts\\Service\\ResetInterface</title>
<path fill="none" stroke="black" stroke-dasharray="5,2" d="M1119,-109.8C1119,-96.04 1119,-83.64 1119,-73.26"/>
<polygon fill="none" stroke="black" points="1122.5,-73.21 1119,-63.21 1115.5,-73.21 1122.5,-73.21"/>
</g>
</g>
</svg>
