<?xml version="1.0" encoding="UTF-8" standalone="no"?>
<!DOCTYPE svg PUBLIC "-//W3C//DTD SVG 1.1//EN"
 "http://www.w3.org/Graphics/SVG/1.1/DTD/svg11.dtd">
<!-- Generated by graphviz version 2.43.0 (0)
 -->
<!-- Title: %3 Pages: 1 -->
<svg width="1325pt" height="475pt"
 viewBox="0.00 0.00 1325.00 475.00" xmlns="http://www.w3.org/2000/svg" xmlns:xlink="http://www.w3.org/1999/xlink">
<g id="graph0" class="graph" transform="scale(1 1) rotate(0) translate(4 471)">
<title>%3</title>
<g id="clust1" class="cluster">
<title>cluster_0</title>
<polygon fill="LightSkyBlue" stroke="black" points="416,-347 416,-459 1020,-459 1020,-347 416,-347"/>
<text text-anchor="middle" x="718" y="-443.8" font-family="Times,serif" font-size="14.00">Name\Space</text>
</g>
<g id="clust2" class="cluster">
<title>cluster_1</title>
<polygon fill="transparent" stroke="black" points="8,-91 8,-339 737,-339 737,-91 8,-91"/>
<text text-anchor="middle" x="372.5" y="-323.8" font-family="Times,serif" font-size="14.00">Bartlett\GraphUml\Generator</text>
</g>
<g id="clust3" class="cluster">
<title>cluster_2</title>
<polygon fill="transparent" stroke="black" points="745,-8 745,-258 1309,-258 1309,-8 745,-8"/>
<text text-anchor="middle" x="1027" y="-242.8" font-family="Times,serif" font-size="14.00">Bartlett\UmlWriter\Generator</text>
</g>
<!-- Name\\Space\\MyGenerator -->
<g id="node1" class="node">
<title>Name\\Space\\MyGenerator</title>
<polygon fill="#fefece" stroke="transparent" points="706,-428 424,-428 424,-355 706,-355 706,-428"/>
<polygon fill="#eeeeee" stroke="transparent" points="424,-405.5 424,-427.5 706,-427.5 706,-405.5 424,-405.5"/>
<polygon fill="none" stroke="black" points="424,-405.5 424,-427.5 706,-427.5 706,-405.5 424,-405.5"/>
<text text-anchor="start" x="535.5" y="-411.1" font-family="Verdana" font-weight="bold" font-size="8.00">MyGenerator</text>
<polygon fill="none" stroke="black" points="424,-399.5 424,-405.5 706,-405.5 706,-399.5 424,-399.5"/>
<polygon fill="none" stroke="black" points="424,-354.5 424,-399.5 706,-399.5 706,-354.5 424,-354.5"/>
<text text-anchor="start" x="429" y="-388.1" font-family="Verdana" font-size="8.00">+ getFormatter() : Bartlett\GraphUml\Formatter\FormatterInterface</text>
<text text-anchor="start" x="429" y="-375.1" font-family="Verdana" font-size="8.00">+ getName() : string</text>
<text text-anchor="start" x="429" y="-362.1" font-family="Verdana" font-size="8.00">+ createScript(graph : Graphp\Graph\Graph) : string</text>
</g>
<!-- Bartlett\\GraphUml\\Generator\\AbstractGenerator -->
<g id="node3" class="node">
<title>Bartlett\\GraphUml\\Generator\\AbstractGenerator</title>
<polygon fill="#fefece" stroke="transparent" points="729.5,-308 400.5,-308 400.5,-99 729.5,-99 729.5,-308"/>
<polygon fill="#eeeeee" stroke="transparent" points="401,-285.5 401,-307.5 730,-307.5 730,-285.5 401,-285.5"/>
<polygon fill="none" stroke="black" points="401,-285.5 401,-307.5 730,-307.5 730,-285.5 401,-285.5"/>
<text text-anchor="start" x="541.5" y="-299.1" font-family="Verdana" font-weight="bold" font-size="8.00">«abstract»</text>
<text text-anchor="start" x="524" y="-291.1" font-family="Verdana" font-weight="bold" font-size="8.00">AbstractGenerator</text>
<polygon fill="none" stroke="black" points="401,-227.5 401,-285.5 730,-285.5 730,-227.5 401,-227.5"/>
<text text-anchor="start" x="406" y="-274.1" font-family="Verdana" font-size="8.00">+ «static» CMD_EXECUTABLE : string = &quot;\%E&quot; {readOnly}</text>
<text text-anchor="start" x="406" y="-261.1" font-family="Verdana" font-size="8.00">+ «static» CMD_FORMAT : string = &quot;\%F&quot; {readOnly}</text>
<text text-anchor="start" x="406" y="-248.1" font-family="Verdana" font-size="8.00">+ «static» CMD_OUTPUT_FILE : string = &quot;\%o&quot; {readOnly}</text>
<text text-anchor="start" x="406" y="-235.1" font-family="Verdana" font-size="8.00">+ «static» CMD_TEMP_FILE : string = &quot;\%t&quot; {readOnly}</text>
<polygon fill="none" stroke="black" points="401,-221.5 401,-227.5 730,-227.5 730,-221.5 401,-221.5"/>
<polygon fill="none" stroke="black" points="401,-98.5 401,-221.5 730,-221.5 730,-98.5 401,-98.5"/>
<text text-anchor="start" x="406" y="-210.1" font-family="Verdana" font-size="8.00">+ __construct(executable : string, format : string)</text>
<text text-anchor="start" x="406" y="-197.1" font-family="Verdana" font-size="8.00">+ setOptions(values : array) : void</text>
<text text-anchor="start" x="406" y="-184.1" font-family="Verdana" font-size="8.00">+ «abstract» getFormatter() : Bartlett\GraphUml\Formatter\FormatterInterface</text>
<text text-anchor="start" x="406" y="-171.1" font-family="Verdana" font-size="8.00">+ «abstract» getName() : string</text>
<text text-anchor="start" x="406" y="-158.1" font-family="Verdana" font-size="8.00">+ getPrefix() : string</text>
<text text-anchor="start" x="406" y="-145.1" font-family="Verdana" font-size="8.00">+ getLabelClass(reflection : ReflectionClass) : string</text>
<text text-anchor="start" x="406" y="-132.1" font-family="Verdana" font-size="8.00">+ getLabelExtension(reflection : ReflectionExtension) : string</text>
<text text-anchor="start" x="406" y="-119.1" font-family="Verdana" font-size="8.00">+ «abstract» createScript(graph : Graphp\Graph\Graph) : string</text>
<text text-anchor="start" x="406" y="-106.1" font-family="Verdana" font-size="8.00">+ createImageFile(graph : Graphp\Graph\Graph, cmdFormat : string) : string</text>
</g>
<!-- Name\\Space\\MyGenerator&#45;&gt;Bartlett\\GraphUml\\Generator\\AbstractGenerator -->
<g id="edge1" class="edge">
<title>Name\\Space\\MyGenerator&#45;&gt;Bartlett\\GraphUml\\Generator\\AbstractGenerator</title>
<path fill="none" stroke="black" d="M565,-354.64C565,-343.87 565,-331.43 565,-318.42"/>
<polygon fill="none" stroke="black" points="568.5,-318.38 565,-308.38 561.5,-318.38 568.5,-318.38"/>
</g>
<!-- Bartlett\\GraphUml\\Generator\\GeneratorInterface -->
<g id="node4" class="node">
<title>Bartlett\\GraphUml\\Generator\\GeneratorInterface</title>
<polygon fill="#fefece" stroke="transparent" points="382,-272.5 16,-272.5 16,-134.5 382,-134.5 382,-272.5"/>
<polygon fill="#eeeeee" stroke="transparent" points="16,-250.5 16,-272.5 382,-272.5 382,-250.5 16,-250.5"/>
<polygon fill="none" stroke="black" points="16,-250.5 16,-272.5 382,-272.5 382,-250.5 16,-250.5"/>
<text text-anchor="start" x="173" y="-264.1" font-family="Verdana" font-weight="bold" font-size="8.00">«interface»</text>
<text text-anchor="start" x="156" y="-256.1" font-family="Verdana" font-weight="bold" font-size="8.00">GeneratorInterface</text>
<polygon fill="none" stroke="black" points="16,-244.5 16,-250.5 382,-250.5 382,-244.5 16,-244.5"/>
<polygon fill="none" stroke="black" points="16,-134.5 16,-244.5 382,-244.5 382,-134.5 16,-134.5"/>
<text text-anchor="start" x="21" y="-233.1" font-family="Verdana" font-size="8.00">+ «abstract» setOptions(values : array) : void</text>
<text text-anchor="start" x="21" y="-220.1" font-family="Verdana" font-size="8.00">+ «abstract» getFormatter() : Bartlett\GraphUml\Formatter\FormatterInterface</text>
<text text-anchor="start" x="21" y="-207.1" font-family="Verdana" font-size="8.00">+ «abstract» getName() : string</text>
<text text-anchor="start" x="21" y="-194.1" font-family="Verdana" font-size="8.00">+ «abstract» getPrefix() : string</text>
<text text-anchor="start" x="21" y="-181.1" font-family="Verdana" font-size="8.00">+ «abstract» getLabelClass(reflection : ReflectionClass) : string</text>
<text text-anchor="start" x="21" y="-168.1" font-family="Verdana" font-size="8.00">+ «abstract» getLabelExtension(reflection : ReflectionExtension) : string</text>
<text text-anchor="start" x="21" y="-155.1" font-family="Verdana" font-size="8.00">+ «abstract» createScript(graph : Graphp\Graph\Graph) : string</text>
<text text-anchor="start" x="21" y="-142.1" font-family="Verdana" font-size="8.00">+ «abstract» createImageFile(graph : Graphp\Graph\Graph, cmdFormat : string) : string</text>
</g>
<!-- Name\\Space\\MyGenerator&#45;&gt;Bartlett\\GraphUml\\Generator\\GeneratorInterface -->
<g id="edge2" class="edge">
<title>Name\\Space\\MyGenerator&#45;&gt;Bartlett\\GraphUml\\Generator\\GeneratorInterface</title>
<path fill="none" stroke="black" stroke-dasharray="5,2" d="M429.76,-354.85C416.78,-350.06 404,-344.78 392,-339 357.86,-322.55 323.12,-300.36 292.7,-278.75"/>
<polygon fill="none" stroke="black" points="294.4,-275.66 284.23,-272.68 290.32,-281.35 294.4,-275.66"/>
</g>
<!-- Name\\Space\\MyGeneratorFactory -->
<g id="node2" class="node">
<title>Name\\Space\\MyGeneratorFactory</title>
<polygon fill="#fefece" stroke="transparent" points="1011.5,-415 724.5,-415 724.5,-368 1011.5,-368 1011.5,-415"/>
<polygon fill="#eeeeee" stroke="transparent" points="725,-392.5 725,-414.5 1012,-414.5 1012,-392.5 725,-392.5"/>
<polygon fill="none" stroke="black" points="725,-392.5 725,-414.5 1012,-414.5 1012,-392.5 725,-392.5"/>
<text text-anchor="start" x="822.5" y="-398.1" font-family="Verdana" font-weight="bold" font-size="8.00">MyGeneratorFactory</text>
<polygon fill="none" stroke="black" points="725,-386.5 725,-392.5 1012,-392.5 1012,-386.5 725,-386.5"/>
<polygon fill="none" stroke="black" points="725,-367.5 725,-386.5 1012,-386.5 1012,-367.5 725,-367.5"/>
<text text-anchor="start" x="730" y="-375.1" font-family="Verdana" font-size="8.00">+ getGenerator() : Bartlett\GraphUml\Generator\GeneratorInterface</text>
</g>
<!-- Bartlett\\UmlWriter\\Generator\\GeneratorFactory -->
<g id="node5" class="node">
<title>Bartlett\\UmlWriter\\Generator\\GeneratorFactory</title>
<polygon fill="#fefece" stroke="transparent" points="1299,-227 753,-227 753,-180 1299,-180 1299,-227"/>
<polygon fill="#eeeeee" stroke="transparent" points="753,-204.5 753,-226.5 1299,-226.5 1299,-204.5 753,-204.5"/>
<polygon fill="none" stroke="black" points="753,-204.5 753,-226.5 1299,-226.5 1299,-204.5 753,-204.5"/>
<text text-anchor="start" x="986.5" y="-210.1" font-family="Verdana" font-weight="bold" font-size="8.00">GeneratorFactory</text>
<polygon fill="none" stroke="black" points="753,-198.5 753,-204.5 1299,-204.5 1299,-198.5 753,-198.5"/>
<polygon fill="none" stroke="black" points="753,-179.5 753,-198.5 1299,-198.5 1299,-179.5 753,-179.5"/>
<text text-anchor="start" x="758" y="-187.1" font-family="Verdana" font-size="8.00">+ createInstance(provider : string, format : string = &#39;svg&#39;, executable : string = &#39;&#39;) : Bartlett\GraphUml\Generator\GeneratorInterface</text>
</g>
<!-- Name\\Space\\MyGeneratorFactory&#45;&gt;Bartlett\\UmlWriter\\Generator\\GeneratorFactory -->
<g id="edge4" class="edge">
<title>Name\\Space\\MyGeneratorFactory&#45;&gt;Bartlett\\UmlWriter\\Generator\\GeneratorFactory</title>
<path fill="none" stroke="black" d="M887.37,-367.69C915.64,-334.41 968.26,-272.47 999.91,-235.21"/>
<polygon fill="none" stroke="black" points="1002.91,-237.09 1006.72,-227.2 997.57,-232.56 1002.91,-237.09"/>
</g>
<!-- Bartlett\\UmlWriter\\Generator\\GeneratorFactoryInterface -->
<g id="node6" class="node">
<title>Bartlett\\UmlWriter\\Generator\\GeneratorFactoryInterface</title>
<polygon fill="#fefece" stroke="transparent" points="1300.5,-63 753.5,-63 753.5,-16 1300.5,-16 1300.5,-63"/>
<polygon fill="#eeeeee" stroke="transparent" points="754,-40.5 754,-62.5 1301,-62.5 1301,-40.5 754,-40.5"/>
<polygon fill="none" stroke="black" points="754,-40.5 754,-62.5 1301,-62.5 1301,-40.5 754,-40.5"/>
<text text-anchor="start" x="1001.5" y="-54.1" font-family="Verdana" font-weight="bold" font-size="8.00">«interface»</text>
<text text-anchor="start" x="968" y="-46.1" font-family="Verdana" font-weight="bold" font-size="8.00">GeneratorFactoryInterface</text>
<polygon fill="none" stroke="black" points="754,-34.5 754,-40.5 1301,-40.5 1301,-34.5 754,-34.5"/>
<polygon fill="none" stroke="black" points="754,-15.5 754,-34.5 1301,-34.5 1301,-15.5 754,-15.5"/>
<text text-anchor="start" x="759" y="-23.1" font-family="Verdana" font-size="8.00">+ «abstract» createInstance(provider : string, format : string, executable : string) : Bartlett\GraphUml\Generator\GeneratorInterface</text>
</g>
<!-- Bartlett\\UmlWriter\\Generator\\GeneratorFactory&#45;&gt;Bartlett\\UmlWriter\\Generator\\GeneratorFactoryInterface -->
<g id="edge3" class="edge">
<title>Bartlett\\UmlWriter\\Generator\\GeneratorFactory&#45;&gt;Bartlett\\UmlWriter\\Generator\\GeneratorFactoryInterface</title>
<path fill="none" stroke="black" stroke-dasharray="5,2" d="M1026.14,-179.97C1026.31,-152.25 1026.6,-104.94 1026.8,-73.21"/>
<polygon fill="none" stroke="black" points="1030.3,-73.12 1026.86,-63.09 1023.3,-73.07 1030.3,-73.12"/>
</g>
</g>
</svg>
