<?xml version="1.0" encoding="UTF-8" standalone="no"?>
<!DOCTYPE svg PUBLIC "-//W3C//DTD SVG 1.1//EN"
 "http://www.w3.org/Graphics/SVG/1.1/DTD/svg11.dtd">
<!-- Generated by graphviz version 2.43.0 (0)
 -->
<!-- Title: %3 Pages: 1 -->
<svg width="3532pt" height="994pt"
 viewBox="0.00 0.00 3532.00 994.00" xmlns="http://www.w3.org/2000/svg" xmlns:xlink="http://www.w3.org/1999/xlink">
<g id="graph0" class="graph" transform="scale(1 1) rotate(0) translate(4 990)">
<title>%3</title>
<g id="clust1" class="cluster">
<title>cluster_0</title>
<polygon fill="transparent" stroke="black" points="8,-505.5 8,-952 614,-952 614,-505.5 8,-505.5"/>
<text text-anchor="middle" x="311" y="-936.8" font-family="Times,serif" font-size="14.00">Bartlett\UmlWriter\Generator</text>
</g>
<g id="clust2" class="cluster">
<title>cluster_1</title>
<polygon fill="transparent" stroke="black" points="622,-866 622,-952 1382,-952 1382,-866 622,-866"/>
<text text-anchor="middle" x="1002" y="-936.8" font-family="Times,serif" font-size="14.00">Bartlett\UmlWriter\Console\Command</text>
</g>
<g id="clust3" class="cluster">
<title>cluster_2</title>
<polygon fill="transparent" stroke="black" points="648,-291 648,-806 1356,-806 1356,-291 648,-291"/>
<text text-anchor="middle" x="1002" y="-790.8" font-family="Times,serif" font-size="14.00">Symfony\Component\Console\Command</text>
</g>
<g id="clust4" class="cluster">
<title>cluster_3</title>
<polygon fill="transparent" stroke="black" points="1390,-840 1390,-978 2076,-978 2076,-840 1390,-840"/>
<text text-anchor="middle" x="1733" y="-962.8" font-family="Times,serif" font-size="14.00">Bartlett\UmlWriter\Console</text>
</g>
<g id="clust5" class="cluster">
<title>cluster_4</title>
<polygon fill="transparent" stroke="black" points="1379,-265 1379,-832 2087,-832 2087,-265 1379,-265"/>
<text text-anchor="middle" x="1733" y="-816.8" font-family="Times,serif" font-size="14.00">Symfony\Component\Console</text>
</g>
<g id="clust6" class="cluster">
<title>cluster_5</title>
<polygon fill="transparent" stroke="black" points="1628,-156 1628,-242 1839,-242 1839,-156 1628,-156"/>
<text text-anchor="middle" x="1733.5" y="-226.8" font-family="Times,serif" font-size="14.00">Symfony\Contracts\Service</text>
</g>
<g id="clust7" class="cluster">
<title>cluster_6</title>
<polygon fill="transparent" stroke="black" points="2084,-846.5 2084,-971.5 3049,-971.5 3049,-846.5 2084,-846.5"/>
<text text-anchor="middle" x="2566.5" y="-956.3" font-family="Times,serif" font-size="14.00">Bartlett\UmlWriter\Service</text>
</g>
<g id="clust8" class="cluster">
<title>cluster_7</title>
<polygon fill="transparent" stroke="black" points="2307,-499 2307,-598 2475,-598 2475,-499 2307,-499"/>
<text text-anchor="middle" x="2391" y="-582.8" font-family="Times,serif" font-size="14.00">Psr\Container</text>
</g>
<g id="clust9" class="cluster">
<title>cluster_8</title>
<polygon fill="transparent" stroke="black" points="3057,-859.5 3057,-958.5 3327,-958.5 3327,-859.5 3057,-859.5"/>
<text text-anchor="middle" x="3192" y="-943.3" font-family="Times,serif" font-size="14.00">Bartlett\UmlWriter\Config\Loader</text>
</g>
<g id="clust10" class="cluster">
<title>cluster_9</title>
<polygon fill="transparent" stroke="black" points="2868,-8 2868,-611 3516,-611 3516,-8 2868,-8"/>
<text text-anchor="middle" x="3192" y="-595.8" font-family="Times,serif" font-size="14.00">Symfony\Component\Config\Loader</text>
</g>
<!-- Bartlett\\UmlWriter\\Generator\\GeneratorFactoryInterface -->
<g id="node1" class="node">
<title>Bartlett\\UmlWriter\\Generator\\GeneratorFactoryInterface</title>
<polygon fill="#fefece" stroke="transparent" points="584.5,-560.5 37.5,-560.5 37.5,-513.5 584.5,-513.5 584.5,-560.5"/>
<polygon fill="#eeeeee" stroke="transparent" points="38,-538 38,-560 585,-560 585,-538 38,-538"/>
<polygon fill="none" stroke="black" points="38,-538 38,-560 585,-560 585,-538 38,-538"/>
<text text-anchor="start" x="285.5" y="-551.6" font-family="Verdana" font-weight="bold" font-size="8.00">«interface»</text>
<text text-anchor="start" x="252" y="-543.6" font-family="Verdana" font-weight="bold" font-size="8.00">GeneratorFactoryInterface</text>
<polygon fill="none" stroke="black" points="38,-532 38,-538 585,-538 585,-532 38,-532"/>
<polygon fill="none" stroke="black" points="38,-513 38,-532 585,-532 585,-513 38,-513"/>
<text text-anchor="start" x="43" y="-520.6" font-family="Verdana" font-size="8.00">+ «abstract» createInstance(provider : string, format : string, executable : string) : Bartlett\GraphUml\Generator\GeneratorInterface</text>
</g>
<!-- Bartlett\\UmlWriter\\Generator\\GeneratorFactory -->
<g id="node2" class="node">
<title>Bartlett\\UmlWriter\\Generator\\GeneratorFactory</title>
<polygon fill="#fefece" stroke="transparent" points="606,-921 16,-921 16,-874 606,-874 606,-921"/>
<polygon fill="#eeeeee" stroke="transparent" points="16,-898.5 16,-920.5 606,-920.5 606,-898.5 16,-898.5"/>
<polygon fill="none" stroke="black" points="16,-898.5 16,-920.5 606,-920.5 606,-898.5 16,-898.5"/>
<text text-anchor="start" x="271.5" y="-904.1" font-family="Verdana" font-weight="bold" font-size="8.00">GeneratorFactory</text>
<polygon fill="none" stroke="black" points="16,-892.5 16,-898.5 606,-898.5 606,-892.5 16,-892.5"/>
<polygon fill="none" stroke="black" points="16,-873.5 16,-892.5 606,-892.5 606,-873.5 16,-873.5"/>
<text text-anchor="start" x="21" y="-881.1" font-family="Verdana" font-size="8.00">+ createInstance(provider : string, format : string = &#39;svg&#39;, executable : string = «unknown») : Bartlett\GraphUml\Generator\GeneratorInterface</text>
</g>
<!-- Bartlett\\UmlWriter\\Generator\\GeneratorFactory&#45;&gt;Bartlett\\UmlWriter\\Generator\\GeneratorFactoryInterface -->
<g id="edge1" class="edge">
<title>Bartlett\\UmlWriter\\Generator\\GeneratorFactory&#45;&gt;Bartlett\\UmlWriter\\Generator\\GeneratorFactoryInterface</title>
<path fill="none" stroke="black" stroke-dasharray="5,2" d="M311,-873.8C311,-812.46 311,-643.15 311,-571.12"/>
<polygon fill="none" stroke="black" points="314.5,-570.83 311,-560.83 307.5,-570.83 314.5,-570.83"/>
</g>
<!-- Bartlett\\UmlWriter\\Console\\Command\\ClassDiagramCommand -->
<g id="node3" class="node">
<title>Bartlett\\UmlWriter\\Console\\Command\\ClassDiagramCommand</title>
<polygon fill="#fefece" stroke="transparent" points="1373.5,-921 630.5,-921 630.5,-874 1373.5,-874 1373.5,-921"/>
<polygon fill="#eeeeee" stroke="transparent" points="631,-898.5 631,-920.5 1374,-920.5 1374,-898.5 631,-898.5"/>
<polygon fill="none" stroke="black" points="631,-898.5 631,-920.5 1374,-920.5 1374,-898.5 631,-898.5"/>
<text text-anchor="start" x="949" y="-904.1" font-family="Verdana" font-weight="bold" font-size="8.00">ClassDiagramCommand</text>
<polygon fill="none" stroke="black" points="631,-892.5 631,-898.5 1374,-898.5 1374,-892.5 631,-892.5"/>
<polygon fill="none" stroke="black" points="631,-873.5 631,-892.5 1374,-892.5 1374,-873.5 631,-873.5"/>
<text text-anchor="start" x="636" y="-881.1" font-family="Verdana" font-size="8.00">+ __construct(renderer : Bartlett\UmlWriter\Service\ClassDiagramRenderer, generatorFactory : Bartlett\UmlWriter\Generator\GeneratorFactoryInterface, name : string = «unknown»)</text>
</g>
<!-- Symfony\\Component\\Console\\Command\\Command -->
<g id="node4" class="node">
<title>Symfony\\Component\\Console\\Command\\Command</title>
<polygon fill="#fefece" stroke="transparent" points="1348,-775 656,-775 656,-299 1348,-299 1348,-775"/>
<polygon fill="#eeeeee" stroke="transparent" points="656,-753 656,-775 1348,-775 1348,-753 656,-753"/>
<polygon fill="none" stroke="black" points="656,-753 656,-775 1348,-775 1348,-753 656,-753"/>
<text text-anchor="start" x="979" y="-758.6" font-family="Verdana" font-weight="bold" font-size="8.00">Command</text>
<polygon fill="none" stroke="black" points="656,-747 656,-753 1348,-753 1348,-747 656,-747"/>
<polygon fill="none" stroke="black" points="656,-299 656,-747 1348,-747 1348,-299 656,-299"/>
<text text-anchor="start" x="661" y="-735.6" font-family="Verdana" font-size="8.00">+ «static» getDefaultName() : ?string</text>
<text text-anchor="start" x="661" y="-722.6" font-family="Verdana" font-size="8.00">+ «static» getDefaultDescription() : ?string</text>
<text text-anchor="start" x="661" y="-709.6" font-family="Verdana" font-size="8.00">+ __construct(name : string = «unknown»)</text>
<text text-anchor="start" x="661" y="-696.6" font-family="Verdana" font-size="8.00">+ ignoreValidationErrors()</text>
<text text-anchor="start" x="661" y="-683.6" font-family="Verdana" font-size="8.00">+ setApplication(application : Symfony\Component\Console\Application = «unknown»)</text>
<text text-anchor="start" x="661" y="-670.6" font-family="Verdana" font-size="8.00">+ setHelperSet(helperSet : Symfony\Component\Console\Helper\HelperSet)</text>
<text text-anchor="start" x="661" y="-657.6" font-family="Verdana" font-size="8.00">+ getHelperSet() : ?Symfony\Component\Console\Helper\HelperSet</text>
<text text-anchor="start" x="661" y="-644.6" font-family="Verdana" font-size="8.00">+ getApplication() : ?Symfony\Component\Console\Application</text>
<text text-anchor="start" x="661" y="-631.6" font-family="Verdana" font-size="8.00">+ isEnabled()</text>
<text text-anchor="start" x="661" y="-618.6" font-family="Verdana" font-size="8.00">+ run(input : Symfony\Component\Console\Input\InputInterface, output : Symfony\Component\Console\Output\OutputInterface) : int</text>
<text text-anchor="start" x="661" y="-605.6" font-family="Verdana" font-size="8.00">+ complete(input : Symfony\Component\Console\Completion\CompletionInput, suggestions : Symfony\Component\Console\Completion\CompletionSuggestions) : void</text>
<text text-anchor="start" x="661" y="-592.6" font-family="Verdana" font-size="8.00">+ setCode(code : callable) : static</text>
<text text-anchor="start" x="661" y="-579.6" font-family="Verdana" font-size="8.00">+ mergeApplicationDefinition(mergeArgs : bool = true) : void</text>
<text text-anchor="start" x="661" y="-566.6" font-family="Verdana" font-size="8.00">+ setDefinition(definition) : static</text>
<text text-anchor="start" x="661" y="-553.6" font-family="Verdana" font-size="8.00">+ getDefinition() : Symfony\Component\Console\Input\InputDefinition</text>
<text text-anchor="start" x="661" y="-540.6" font-family="Verdana" font-size="8.00">+ getNativeDefinition() : Symfony\Component\Console\Input\InputDefinition</text>
<text text-anchor="start" x="661" y="-527.6" font-family="Verdana" font-size="8.00">+ addArgument(name : string, mode : int = «unknown», description : string = &#39;&#39;, default : mixed = «unknown») : static</text>
<text text-anchor="start" x="661" y="-514.6" font-family="Verdana" font-size="8.00">+ addOption(name : string, shortcut = «unknown», mode : int = «unknown», description : string = &#39;&#39;, default : mixed = «unknown») : static</text>
<text text-anchor="start" x="661" y="-501.6" font-family="Verdana" font-size="8.00">+ setName(name : string) : static</text>
<text text-anchor="start" x="661" y="-488.6" font-family="Verdana" font-size="8.00">+ setProcessTitle(title : string) : static</text>
<text text-anchor="start" x="661" y="-475.6" font-family="Verdana" font-size="8.00">+ getName() : ?string</text>
<text text-anchor="start" x="661" y="-462.6" font-family="Verdana" font-size="8.00">+ setHidden(hidden : bool = true) : static</text>
<text text-anchor="start" x="661" y="-449.6" font-family="Verdana" font-size="8.00">+ isHidden() : bool</text>
<text text-anchor="start" x="661" y="-436.6" font-family="Verdana" font-size="8.00">+ setDescription(description : string) : static</text>
<text text-anchor="start" x="661" y="-423.6" font-family="Verdana" font-size="8.00">+ getDescription() : string</text>
<text text-anchor="start" x="661" y="-410.6" font-family="Verdana" font-size="8.00">+ setHelp(help : string) : static</text>
<text text-anchor="start" x="661" y="-397.6" font-family="Verdana" font-size="8.00">+ getHelp() : string</text>
<text text-anchor="start" x="661" y="-384.6" font-family="Verdana" font-size="8.00">+ getProcessedHelp() : string</text>
<text text-anchor="start" x="661" y="-371.6" font-family="Verdana" font-size="8.00">+ setAliases(aliases : iterable) : static</text>
<text text-anchor="start" x="661" y="-358.6" font-family="Verdana" font-size="8.00">+ getAliases() : array</text>
<text text-anchor="start" x="661" y="-345.6" font-family="Verdana" font-size="8.00">+ getSynopsis(short : bool = false) : string</text>
<text text-anchor="start" x="661" y="-332.6" font-family="Verdana" font-size="8.00">+ addUsage(usage : string) : static</text>
<text text-anchor="start" x="661" y="-319.6" font-family="Verdana" font-size="8.00">+ getUsages() : array</text>
<text text-anchor="start" x="661" y="-306.6" font-family="Verdana" font-size="8.00">+ getHelper(name : string) : ?mixed</text>
</g>
<!-- Bartlett\\UmlWriter\\Console\\Command\\ClassDiagramCommand&#45;&gt;Symfony\\Component\\Console\\Command\\Command -->
<g id="edge2" class="edge">
<title>Bartlett\\UmlWriter\\Console\\Command\\ClassDiagramCommand&#45;&gt;Symfony\\Component\\Console\\Command\\Command</title>
<path fill="none" stroke="black" d="M1002,-873.8C1002,-853.61 1002,-821.73 1002,-785.47"/>
<polygon fill="none" stroke="black" points="1005.5,-785.13 1002,-775.13 998.5,-785.13 1005.5,-785.13"/>
</g>
<!-- Bartlett\\UmlWriter\\Console\\Application -->
<g id="node5" class="node">
<title>Bartlett\\UmlWriter\\Console\\Application</title>
<polygon fill="#fefece" stroke="transparent" points="2067.5,-947 1398.5,-947 1398.5,-848 2067.5,-848 2067.5,-947"/>
<polygon fill="#eeeeee" stroke="transparent" points="1399,-924.5 1399,-946.5 2068,-946.5 2068,-924.5 1399,-924.5"/>
<polygon fill="none" stroke="black" points="1399,-924.5 1399,-946.5 2068,-946.5 2068,-924.5 1399,-924.5"/>
<text text-anchor="start" x="1707.5" y="-930.1" font-family="Verdana" font-weight="bold" font-size="8.00">Application</text>
<polygon fill="none" stroke="black" points="1399,-918.5 1399,-924.5 2068,-924.5 2068,-918.5 1399,-918.5"/>
<polygon fill="none" stroke="black" points="1399,-847.5 1399,-918.5 2068,-918.5 2068,-847.5 1399,-847.5"/>
<text text-anchor="start" x="1404" y="-907.1" font-family="Verdana" font-size="8.00">+ __construct(container : Psr\Container\ContainerInterface)</text>
<text text-anchor="start" x="1404" y="-894.1" font-family="Verdana" font-size="8.00">+ getHelp() : string</text>
<text text-anchor="start" x="1404" y="-881.1" font-family="Verdana" font-size="8.00">+ getLongVersion() : string</text>
<text text-anchor="start" x="1404" y="-868.1" font-family="Verdana" font-size="8.00">+ doRun(input : Symfony\Component\Console\Input\InputInterface, output : Symfony\Component\Console\Output\OutputInterface) : int</text>
<text text-anchor="start" x="1404" y="-855.1" font-family="Verdana" font-size="8.00">+ run(input : Symfony\Component\Console\Input\InputInterface = «unknown», output : Symfony\Component\Console\Output\OutputInterface = «unknown») : int</text>
</g>
<!-- Symfony\\Component\\Console\\Application -->
<g id="node6" class="node">
<title>Symfony\\Component\\Console\\Application</title>
<polygon fill="#fefece" stroke="transparent" points="2079,-801 1387,-801 1387,-273 2079,-273 2079,-801"/>
<polygon fill="#eeeeee" stroke="transparent" points="1387,-779 1387,-801 2079,-801 2079,-779 1387,-779"/>
<polygon fill="none" stroke="black" points="1387,-779 1387,-801 2079,-801 2079,-779 1387,-779"/>
<text text-anchor="start" x="1707" y="-784.6" font-family="Verdana" font-weight="bold" font-size="8.00">Application</text>
<polygon fill="none" stroke="black" points="1387,-773 1387,-779 2079,-779 2079,-773 1387,-773"/>
<polygon fill="none" stroke="black" points="1387,-273 1387,-773 2079,-773 2079,-273 1387,-273"/>
<text text-anchor="start" x="1392" y="-761.6" font-family="Verdana" font-size="8.00">+ __construct(name : string = &#39;UNKNOWN&#39;, version : string = &#39;UNKNOWN&#39;)</text>
<text text-anchor="start" x="1392" y="-748.6" font-family="Verdana" font-size="8.00">+ setDispatcher(dispatcher : Symfony\Contracts\EventDispatcher\EventDispatcherInterface) : void</text>
<text text-anchor="start" x="1392" y="-735.6" font-family="Verdana" font-size="8.00">+ setCommandLoader(commandLoader : Symfony\Component\Console\CommandLoader\CommandLoaderInterface)</text>
<text text-anchor="start" x="1392" y="-722.6" font-family="Verdana" font-size="8.00">+ getSignalRegistry() : Symfony\Component\Console\SignalRegistry\SignalRegistry</text>
<text text-anchor="start" x="1392" y="-709.6" font-family="Verdana" font-size="8.00">+ setSignalsToDispatchEvent(signalsToDispatchEvent : int = «unknown»)</text>
<text text-anchor="start" x="1392" y="-696.6" font-family="Verdana" font-size="8.00">+ run(input : Symfony\Component\Console\Input\InputInterface = «unknown», output : Symfony\Component\Console\Output\OutputInterface = «unknown») : int</text>
<text text-anchor="start" x="1392" y="-683.6" font-family="Verdana" font-size="8.00">+ doRun(input : Symfony\Component\Console\Input\InputInterface, output : Symfony\Component\Console\Output\OutputInterface)</text>
<text text-anchor="start" x="1392" y="-670.6" font-family="Verdana" font-size="8.00">+ reset()</text>
<text text-anchor="start" x="1392" y="-657.6" font-family="Verdana" font-size="8.00">+ setHelperSet(helperSet : Symfony\Component\Console\Helper\HelperSet)</text>
<text text-anchor="start" x="1392" y="-644.6" font-family="Verdana" font-size="8.00">+ getHelperSet() : Symfony\Component\Console\Helper\HelperSet</text>
<text text-anchor="start" x="1392" y="-631.6" font-family="Verdana" font-size="8.00">+ setDefinition(definition : Symfony\Component\Console\Input\InputDefinition)</text>
<text text-anchor="start" x="1392" y="-618.6" font-family="Verdana" font-size="8.00">+ getDefinition() : Symfony\Component\Console\Input\InputDefinition</text>
<text text-anchor="start" x="1392" y="-605.6" font-family="Verdana" font-size="8.00">+ complete(input : Symfony\Component\Console\Completion\CompletionInput, suggestions : Symfony\Component\Console\Completion\CompletionSuggestions) : void</text>
<text text-anchor="start" x="1392" y="-592.6" font-family="Verdana" font-size="8.00">+ getHelp() : string</text>
<text text-anchor="start" x="1392" y="-579.6" font-family="Verdana" font-size="8.00">+ areExceptionsCaught() : bool</text>
<text text-anchor="start" x="1392" y="-566.6" font-family="Verdana" font-size="8.00">+ setCatchExceptions(boolean : bool)</text>
<text text-anchor="start" x="1392" y="-553.6" font-family="Verdana" font-size="8.00">+ setCatchErrors(catchErrors : bool = true) : void</text>
<text text-anchor="start" x="1392" y="-540.6" font-family="Verdana" font-size="8.00">+ isAutoExitEnabled() : bool</text>
<text text-anchor="start" x="1392" y="-527.6" font-family="Verdana" font-size="8.00">+ setAutoExit(boolean : bool)</text>
<text text-anchor="start" x="1392" y="-514.6" font-family="Verdana" font-size="8.00">+ getName() : string</text>
<text text-anchor="start" x="1392" y="-501.6" font-family="Verdana" font-size="8.00">+ setName(name : string)</text>
<text text-anchor="start" x="1392" y="-488.6" font-family="Verdana" font-size="8.00">+ getVersion() : string</text>
<text text-anchor="start" x="1392" y="-475.6" font-family="Verdana" font-size="8.00">+ setVersion(version : string)</text>
<text text-anchor="start" x="1392" y="-462.6" font-family="Verdana" font-size="8.00">+ getLongVersion()</text>
<text text-anchor="start" x="1392" y="-449.6" font-family="Verdana" font-size="8.00">+ register(name : string) : Symfony\Component\Console\Command\Command</text>
<text text-anchor="start" x="1392" y="-436.6" font-family="Verdana" font-size="8.00">+ addCommands(commands : array)</text>
<text text-anchor="start" x="1392" y="-423.6" font-family="Verdana" font-size="8.00">+ add(command : Symfony\Component\Console\Command\Command)</text>
<text text-anchor="start" x="1392" y="-410.6" font-family="Verdana" font-size="8.00">+ get(name : string)</text>
<text text-anchor="start" x="1392" y="-397.6" font-family="Verdana" font-size="8.00">+ has(name : string) : bool</text>
<text text-anchor="start" x="1392" y="-384.6" font-family="Verdana" font-size="8.00">+ getNamespaces() : array</text>
<text text-anchor="start" x="1392" y="-371.6" font-family="Verdana" font-size="8.00">+ findNamespace(namespace : string) : string</text>
<text text-anchor="start" x="1392" y="-358.6" font-family="Verdana" font-size="8.00">+ find(name : string)</text>
<text text-anchor="start" x="1392" y="-345.6" font-family="Verdana" font-size="8.00">+ all(namespace : string = «unknown»)</text>
<text text-anchor="start" x="1392" y="-332.6" font-family="Verdana" font-size="8.00">+ «static» getAbbreviations(names : array) : array</text>
<text text-anchor="start" x="1392" y="-319.6" font-family="Verdana" font-size="8.00">+ renderThrowable(e : Throwable, output : Symfony\Component\Console\Output\OutputInterface) : void</text>
<text text-anchor="start" x="1392" y="-306.6" font-family="Verdana" font-size="8.00">+ extractNamespace(name : string, limit : int = «unknown») : string</text>
<text text-anchor="start" x="1392" y="-293.6" font-family="Verdana" font-size="8.00">+ setDefaultCommand(commandName : string, isSingleCommand : bool = false) : static</text>
<text text-anchor="start" x="1392" y="-280.6" font-family="Verdana" font-size="8.00">+ isSingleCommand() : bool</text>
</g>
<!-- Bartlett\\UmlWriter\\Console\\Application&#45;&gt;Symfony\\Component\\Console\\Application -->
<g id="edge4" class="edge">
<title>Bartlett\\UmlWriter\\Console\\Application&#45;&gt;Symfony\\Component\\Console\\Application</title>
<path fill="none" stroke="black" d="M1733,-847.78C1733,-836.95 1733,-824.73 1733,-811.56"/>
<polygon fill="none" stroke="black" points="1736.5,-811.31 1733,-801.31 1729.5,-811.31 1736.5,-811.31"/>
</g>
<!-- Symfony\\Contracts\\Service\\ResetInterface -->
<g id="node7" class="node">
<title>Symfony\\Contracts\\Service\\ResetInterface</title>
<polygon fill="#fefece" stroke="transparent" points="1779.5,-211 1686.5,-211 1686.5,-164 1779.5,-164 1779.5,-211"/>
<polygon fill="#eeeeee" stroke="transparent" points="1687,-188.5 1687,-210.5 1780,-210.5 1780,-188.5 1687,-188.5"/>
<polygon fill="none" stroke="black" points="1687,-188.5 1687,-210.5 1780,-210.5 1780,-188.5 1687,-188.5"/>
<text text-anchor="start" x="1707.5" y="-202.1" font-family="Verdana" font-weight="bold" font-size="8.00">«interface»</text>
<text text-anchor="start" x="1700.5" y="-194.1" font-family="Verdana" font-weight="bold" font-size="8.00">ResetInterface</text>
<polygon fill="none" stroke="black" points="1687,-182.5 1687,-188.5 1780,-188.5 1780,-182.5 1687,-182.5"/>
<polygon fill="none" stroke="black" points="1687,-163.5 1687,-182.5 1780,-182.5 1780,-163.5 1687,-163.5"/>
<text text-anchor="start" x="1692" y="-171.1" font-family="Verdana" font-size="8.00">+ «abstract» reset()</text>
</g>
<!-- Symfony\\Component\\Console\\Application&#45;&gt;Symfony\\Contracts\\Service\\ResetInterface -->
<g id="edge3" class="edge">
<title>Symfony\\Component\\Console\\Application&#45;&gt;Symfony\\Contracts\\Service\\ResetInterface</title>
<path fill="none" stroke="black" stroke-dasharray="5,2" d="M1733,-272.62C1733,-253.05 1733,-235.57 1733,-221.68"/>
<polygon fill="none" stroke="black" points="1736.5,-221.34 1733,-211.34 1729.5,-221.34 1736.5,-221.34"/>
</g>
<!-- Bartlett\\UmlWriter\\Service\\ClassDiagramRenderer -->
<g id="node8" class="node">
<title>Bartlett\\UmlWriter\\Service\\ClassDiagramRenderer</title>
<polygon fill="#fefece" stroke="transparent" points="3041,-927.5 2493,-927.5 2493,-867.5 3041,-867.5 3041,-927.5"/>
<polygon fill="#eeeeee" stroke="transparent" points="2493,-905.5 2493,-927.5 3041,-927.5 3041,-905.5 2493,-905.5"/>
<polygon fill="none" stroke="black" points="2493,-905.5 2493,-927.5 3041,-927.5 3041,-905.5 2493,-905.5"/>
<text text-anchor="start" x="2715.5" y="-911.1" font-family="Verdana" font-weight="bold" font-size="8.00">ClassDiagramRenderer</text>
<polygon fill="none" stroke="black" points="2493,-899.5 2493,-905.5 3041,-905.5 3041,-899.5 2493,-899.5"/>
<polygon fill="none" stroke="black" points="2493,-867.5 2493,-899.5 3041,-899.5 3041,-867.5 2493,-867.5"/>
<text text-anchor="start" x="2498" y="-888.1" font-family="Verdana" font-size="8.00">+ __invoke(datasource, generator : Bartlett\GraphUml\Generator\GeneratorInterface, parameters : array = []) : Graphp\Graph\Graph</text>
<text text-anchor="start" x="2498" y="-875.1" font-family="Verdana" font-size="8.00">+ getMetadata() : array</text>
</g>
<!-- Bartlett\\UmlWriter\\Service\\ContainerService -->
<g id="node9" class="node">
<title>Bartlett\\UmlWriter\\Service\\ContainerService</title>
<polygon fill="#fefece" stroke="transparent" points="2474.5,-940.5 2307.5,-940.5 2307.5,-854.5 2474.5,-854.5 2474.5,-940.5"/>
<polygon fill="#eeeeee" stroke="transparent" points="2308,-918.5 2308,-940.5 2475,-940.5 2475,-918.5 2308,-918.5"/>
<polygon fill="none" stroke="black" points="2308,-918.5 2308,-940.5 2475,-940.5 2475,-918.5 2308,-918.5"/>
<text text-anchor="start" x="2352.5" y="-924.1" font-family="Verdana" font-weight="bold" font-size="8.00">ContainerService</text>
<polygon fill="none" stroke="black" points="2308,-912.5 2308,-918.5 2475,-918.5 2475,-912.5 2308,-912.5"/>
<polygon fill="none" stroke="black" points="2308,-854.5 2308,-912.5 2475,-912.5 2475,-854.5 2308,-854.5"/>
<text text-anchor="start" x="2313" y="-901.1" font-family="Verdana" font-size="8.00">+ __construct()</text>
<text text-anchor="start" x="2313" y="-888.1" font-family="Verdana" font-size="8.00">+ set(id : string, service : mixed) : void</text>
<text text-anchor="start" x="2313" y="-875.1" font-family="Verdana" font-size="8.00">+ get(id : string) : ?mixed</text>
<text text-anchor="start" x="2313" y="-862.1" font-family="Verdana" font-size="8.00">+ has(id : string) : bool</text>
</g>
<!-- Psr\\Container\\ContainerInterface -->
<g id="node11" class="node">
<title>Psr\\Container\\ContainerInterface</title>
<polygon fill="#fefece" stroke="transparent" points="2466.5,-567 2315.5,-567 2315.5,-507 2466.5,-507 2466.5,-567"/>
<polygon fill="#eeeeee" stroke="transparent" points="2316,-545 2316,-567 2467,-567 2467,-545 2316,-545"/>
<polygon fill="none" stroke="black" points="2316,-545 2316,-567 2467,-567 2467,-545 2316,-545"/>
<text text-anchor="start" x="2365.5" y="-558.6" font-family="Verdana" font-weight="bold" font-size="8.00">«interface»</text>
<text text-anchor="start" x="2349" y="-550.6" font-family="Verdana" font-weight="bold" font-size="8.00">ContainerInterface</text>
<polygon fill="none" stroke="black" points="2316,-539 2316,-545 2467,-545 2467,-539 2316,-539"/>
<polygon fill="none" stroke="black" points="2316,-507 2316,-539 2467,-539 2467,-507 2316,-507"/>
<text text-anchor="start" x="2321" y="-527.6" font-family="Verdana" font-size="8.00">+ «abstract» get(id : string)</text>
<text text-anchor="start" x="2321" y="-514.6" font-family="Verdana" font-size="8.00">+ «abstract» has(id : string) : bool</text>
</g>
<!-- Bartlett\\UmlWriter\\Service\\ContainerService&#45;&gt;Psr\\Container\\ContainerInterface -->
<g id="edge5" class="edge">
<title>Bartlett\\UmlWriter\\Service\\ContainerService&#45;&gt;Psr\\Container\\ContainerInterface</title>
<path fill="none" stroke="black" stroke-dasharray="5,2" d="M2391,-854.32C2391,-784.4 2391,-645.44 2391,-577.4"/>
<polygon fill="none" stroke="black" points="2394.5,-577.11 2391,-567.11 2387.5,-577.11 2394.5,-577.11"/>
</g>
<!-- Bartlett\\UmlWriter\\Service\\ConfigurationHandler -->
<g id="node10" class="node">
<title>Bartlett\\UmlWriter\\Service\\ConfigurationHandler</title>
<polygon fill="#fefece" stroke="transparent" points="2289.5,-940.5 2092.5,-940.5 2092.5,-854.5 2289.5,-854.5 2289.5,-940.5"/>
<polygon fill="#eeeeee" stroke="transparent" points="2093,-918.5 2093,-940.5 2290,-940.5 2290,-918.5 2093,-918.5"/>
<polygon fill="none" stroke="black" points="2093,-918.5 2093,-940.5 2290,-940.5 2290,-918.5 2093,-918.5"/>
<text text-anchor="start" x="2142" y="-924.1" font-family="Verdana" font-weight="bold" font-size="8.00">ConfigurationHandler</text>
<polygon fill="none" stroke="black" points="2093,-912.5 2093,-918.5 2290,-918.5 2290,-912.5 2093,-912.5"/>
<polygon fill="none" stroke="black" points="2093,-854.5 2093,-912.5 2290,-912.5 2290,-854.5 2093,-854.5"/>
<text text-anchor="start" x="2098" y="-901.1" font-family="Verdana" font-size="8.00">+ __construct(filename : string = «unknown»)</text>
<text text-anchor="start" x="2098" y="-888.1" font-family="Verdana" font-size="8.00">+ «static» getDefaults() : array</text>
<text text-anchor="start" x="2098" y="-875.1" font-family="Verdana" font-size="8.00">+ toArray() : array</text>
<text text-anchor="start" x="2098" y="-862.1" font-family="Verdana" font-size="8.00">+ toFlat() : array</text>
</g>
<!-- Bartlett\\UmlWriter\\Config\\Loader\\YamlFileLoader -->
<g id="node12" class="node">
<title>Bartlett\\UmlWriter\\Config\\Loader\\YamlFileLoader</title>
<polygon fill="#fefece" stroke="transparent" points="3318.5,-927.5 3065.5,-927.5 3065.5,-867.5 3318.5,-867.5 3318.5,-927.5"/>
<polygon fill="#eeeeee" stroke="transparent" points="3066,-905.5 3066,-927.5 3319,-927.5 3319,-905.5 3066,-905.5"/>
<polygon fill="none" stroke="black" points="3066,-905.5 3066,-927.5 3319,-927.5 3319,-905.5 3066,-905.5"/>
<text text-anchor="start" x="3157.5" y="-911.1" font-family="Verdana" font-weight="bold" font-size="8.00">YamlFileLoader</text>
<polygon fill="none" stroke="black" points="3066,-899.5 3066,-905.5 3319,-905.5 3319,-899.5 3066,-899.5"/>
<polygon fill="none" stroke="black" points="3066,-867.5 3066,-899.5 3319,-899.5 3319,-867.5 3066,-867.5"/>
<text text-anchor="start" x="3071" y="-888.1" font-family="Verdana" font-size="8.00">+ load(resource : mixed, type : string = «unknown») : array</text>
<text text-anchor="start" x="3071" y="-875.1" font-family="Verdana" font-size="8.00">+ supports(resource, type : string = «unknown») : bool</text>
</g>
<!-- Symfony\\Component\\Config\\Loader\\FileLoader -->
<g id="node13" class="node">
<title>Symfony\\Component\\Config\\Loader\\FileLoader</title>
<polygon fill="#fefece" stroke="transparent" points="3508,-580 2876,-580 2876,-494 3508,-494 3508,-580"/>
<polygon fill="#eeeeee" stroke="transparent" points="2876,-558 2876,-580 3508,-580 3508,-558 2876,-558"/>
<polygon fill="none" stroke="black" points="2876,-558 2876,-580 3508,-580 3508,-558 2876,-558"/>
<text text-anchor="start" x="3168" y="-571.6" font-family="Verdana" font-weight="bold" font-size="8.00">«abstract»</text>
<text text-anchor="start" x="3168" y="-563.6" font-family="Verdana" font-weight="bold" font-size="8.00">FileLoader</text>
<polygon fill="none" stroke="black" points="2876,-552 2876,-558 3508,-558 3508,-552 2876,-552"/>
<polygon fill="none" stroke="black" points="2876,-494 2876,-552 3508,-552 3508,-494 2876,-494"/>
<text text-anchor="start" x="2881" y="-540.6" font-family="Verdana" font-size="8.00">+ __construct(locator : Symfony\Component\Config\FileLocatorInterface, env : string = «unknown»)</text>
<text text-anchor="start" x="2881" y="-527.6" font-family="Verdana" font-size="8.00">+ setCurrentDir(dir : string)</text>
<text text-anchor="start" x="2881" y="-514.6" font-family="Verdana" font-size="8.00">+ getLocator() : Symfony\Component\Config\FileLocatorInterface</text>
<text text-anchor="start" x="2881" y="-501.6" font-family="Verdana" font-size="8.00">+ import(resource : mixed, type : string = «unknown», ignoreErrors : bool = false, sourceResource : string = «unknown», exclude : mixed = «unknown»)</text>
</g>
<!-- Bartlett\\UmlWriter\\Config\\Loader\\YamlFileLoader&#45;&gt;Symfony\\Component\\Config\\Loader\\FileLoader -->
<g id="edge8" class="edge">
<title>Bartlett\\UmlWriter\\Config\\Loader\\YamlFileLoader&#45;&gt;Symfony\\Component\\Config\\Loader\\FileLoader</title>
<path fill="none" stroke="black" d="M3192,-867.47C3192,-807.05 3192,-667.06 3192,-590.44"/>
<polygon fill="none" stroke="black" points="3195.5,-590.06 3192,-580.06 3188.5,-590.06 3195.5,-590.06"/>
</g>
<!-- Symfony\\Component\\Config\\Loader\\Loader -->
<g id="node14" class="node">
<title>Symfony\\Component\\Config\\Loader\\Loader</title>
<polygon fill="#fefece" stroke="transparent" points="3421,-237 2963,-237 2963,-138 3421,-138 3421,-237"/>
<polygon fill="#eeeeee" stroke="transparent" points="2963,-214.5 2963,-236.5 3421,-236.5 3421,-214.5 2963,-214.5"/>
<polygon fill="none" stroke="black" points="2963,-214.5 2963,-236.5 3421,-236.5 3421,-214.5 2963,-214.5"/>
<text text-anchor="start" x="3168" y="-228.1" font-family="Verdana" font-weight="bold" font-size="8.00">«abstract»</text>
<text text-anchor="start" x="3176.5" y="-220.1" font-family="Verdana" font-weight="bold" font-size="8.00">Loader</text>
<polygon fill="none" stroke="black" points="2963,-208.5 2963,-214.5 3421,-214.5 3421,-208.5 2963,-208.5"/>
<polygon fill="none" stroke="black" points="2963,-137.5 2963,-208.5 3421,-208.5 3421,-137.5 2963,-137.5"/>
<text text-anchor="start" x="2968" y="-197.1" font-family="Verdana" font-size="8.00">+ __construct(env : string = «unknown»)</text>
<text text-anchor="start" x="2968" y="-184.1" font-family="Verdana" font-size="8.00">+ getResolver() : Symfony\Component\Config\Loader\LoaderResolverInterface</text>
<text text-anchor="start" x="2968" y="-171.1" font-family="Verdana" font-size="8.00">+ setResolver(resolver : Symfony\Component\Config\Loader\LoaderResolverInterface)</text>
<text text-anchor="start" x="2968" y="-158.1" font-family="Verdana" font-size="8.00">+ import(resource : mixed, type : string = «unknown»)</text>
<text text-anchor="start" x="2968" y="-145.1" font-family="Verdana" font-size="8.00">+ resolve(resource : mixed, type : string = «unknown») : Symfony\Component\Config\Loader\LoaderInterface</text>
</g>
<!-- Symfony\\Component\\Config\\Loader\\FileLoader&#45;&gt;Symfony\\Component\\Config\\Loader\\Loader -->
<g id="edge7" class="edge">
<title>Symfony\\Component\\Config\\Loader\\FileLoader&#45;&gt;Symfony\\Component\\Config\\Loader\\Loader</title>
<path fill="none" stroke="black" d="M3192,-493.74C3192,-432.14 3192,-317.46 3192,-247.56"/>
<polygon fill="none" stroke="black" points="3195.5,-247.16 3192,-237.16 3188.5,-247.16 3195.5,-247.16"/>
</g>
<!-- Symfony\\Component\\Config\\Loader\\LoaderInterface -->
<g id="node15" class="node">
<title>Symfony\\Component\\Config\\Loader\\LoaderInterface</title>
<polygon fill="#fefece" stroke="transparent" points="3397,-102 2987,-102 2987,-16 3397,-16 3397,-102"/>
<polygon fill="#eeeeee" stroke="transparent" points="2987,-80 2987,-102 3397,-102 3397,-80 2987,-80"/>
<polygon fill="none" stroke="black" points="2987,-80 2987,-102 3397,-102 3397,-80 2987,-80"/>
<text text-anchor="start" x="3166" y="-93.6" font-family="Verdana" font-weight="bold" font-size="8.00">«interface»</text>
<text text-anchor="start" x="3156" y="-85.6" font-family="Verdana" font-weight="bold" font-size="8.00">LoaderInterface</text>
<polygon fill="none" stroke="black" points="2987,-74 2987,-80 3397,-80 3397,-74 2987,-74"/>
<polygon fill="none" stroke="black" points="2987,-16 2987,-74 3397,-74 3397,-16 2987,-16"/>
<text text-anchor="start" x="2992" y="-62.6" font-family="Verdana" font-size="8.00">+ «abstract» load(resource : mixed, type : string = «unknown»)</text>
<text text-anchor="start" x="2992" y="-49.6" font-family="Verdana" font-size="8.00">+ «abstract» supports(resource : mixed, type : string = «unknown»)</text>
<text text-anchor="start" x="2992" y="-36.6" font-family="Verdana" font-size="8.00">+ «abstract» getResolver()</text>
<text text-anchor="start" x="2992" y="-23.6" font-family="Verdana" font-size="8.00">+ «abstract» setResolver(resolver : Symfony\Component\Config\Loader\LoaderResolverInterface)</text>
</g>
<!-- Symfony\\Component\\Config\\Loader\\Loader&#45;&gt;Symfony\\Component\\Config\\Loader\\LoaderInterface -->
<g id="edge6" class="edge">
<title>Symfony\\Component\\Config\\Loader\\Loader&#45;&gt;Symfony\\Component\\Config\\Loader\\LoaderInterface</title>
<path fill="none" stroke="black" stroke-dasharray="5,2" d="M3192,-137.95C3192,-129.53 3192,-120.74 3192,-112.23"/>
<polygon fill="none" stroke="black" points="3195.5,-112.02 3192,-102.02 3188.5,-112.02 3195.5,-112.02"/>
</g>
</g>
</svg>
