<?xml version="1.0" encoding="UTF-8" standalone="no"?>
<!DOCTYPE svg PUBLIC "-//W3C//DTD SVG 1.1//EN"
 "http://www.w3.org/Graphics/SVG/1.1/DTD/svg11.dtd">
<!-- Generated by graphviz version 2.43.0 (0)
 -->
<!-- Title: %3 Pages: 1 -->
<svg width="3490pt" height="994pt"
 viewBox="0.00 0.00 3490.00 994.00" xmlns="http://www.w3.org/2000/svg" xmlns:xlink="http://www.w3.org/1999/xlink">
<g id="graph0" class="graph" transform="scale(1 1) rotate(0) translate(4 990)">
<title>%3</title>
<g id="clust1" class="cluster">
<title>cluster_0</title>
<polygon fill="transparent" stroke="black" points="8,-505.5 8,-952 572,-952 572,-505.5 8,-505.5"/>
<text text-anchor="middle" x="290" y="-936.8" font-family="Times,serif" font-size="14.00">Bartlett\UmlWriter\Generator</text>
</g>
<g id="clust2" class="cluster">
<title>cluster_1</title>
<polygon fill="transparent" stroke="black" points="580,-866 580,-952 1340,-952 1340,-866 580,-866"/>
<text text-anchor="middle" x="960" y="-936.8" font-family="Times,serif" font-size="14.00">Bartlett\UmlWriter\Console\Command</text>
</g>
<g id="clust3" class="cluster">
<title>cluster_2</title>
<polygon fill="transparent" stroke="black" points="606,-291 606,-806 1314,-806 1314,-291 606,-291"/>
<text text-anchor="middle" x="960" y="-790.8" font-family="Times,serif" font-size="14.00">Symfony\Component\Console\Command</text>
</g>
<g id="clust4" class="cluster">
<title>cluster_3</title>
<polygon fill="transparent" stroke="black" points="1348,-840 1348,-978 2034,-978 2034,-840 1348,-840"/>
<text text-anchor="middle" x="1691" y="-962.8" font-family="Times,serif" font-size="14.00">Bartlett\UmlWriter\Console</text>
</g>
<g id="clust5" class="cluster">
<title>cluster_4</title>
<polygon fill="transparent" stroke="black" points="1337,-265 1337,-832 2045,-832 2045,-265 1337,-265"/>
<text text-anchor="middle" x="1691" y="-816.8" font-family="Times,serif" font-size="14.00">Symfony\Component\Console</text>
</g>
<g id="clust6" class="cluster">
<title>cluster_5</title>
<polygon fill="transparent" stroke="black" points="1586,-156 1586,-242 1797,-242 1797,-156 1586,-156"/>
<text text-anchor="middle" x="1691.5" y="-226.8" font-family="Times,serif" font-size="14.00">Symfony\Contracts\Service</text>
</g>
<g id="clust7" class="cluster">
<title>cluster_6</title>
<polygon fill="transparent" stroke="black" points="2042,-846.5 2042,-971.5 3007,-971.5 3007,-846.5 2042,-846.5"/>
<text text-anchor="middle" x="2524.5" y="-956.3" font-family="Times,serif" font-size="14.00">Bartlett\UmlWriter\Service</text>
</g>
<g id="clust8" class="cluster">
<title>cluster_7</title>
<polygon fill="transparent" stroke="black" points="2265,-499 2265,-598 2433,-598 2433,-499 2265,-499"/>
<text text-anchor="middle" x="2349" y="-582.8" font-family="Times,serif" font-size="14.00">Psr\Container</text>
</g>
<g id="clust9" class="cluster">
<title>cluster_8</title>
<polygon fill="transparent" stroke="black" points="3015,-859.5 3015,-958.5 3285,-958.5 3285,-859.5 3015,-859.5"/>
<text text-anchor="middle" x="3150" y="-943.3" font-family="Times,serif" font-size="14.00">Bartlett\UmlWriter\Config\Loader</text>
</g>
<g id="clust10" class="cluster">
<title>cluster_9</title>
<polygon fill="transparent" stroke="black" points="2826,-8 2826,-611 3474,-611 3474,-8 2826,-8"/>
<text text-anchor="middle" x="3150" y="-595.8" font-family="Times,serif" font-size="14.00">Symfony\Component\Config\Loader</text>
</g>
<!-- Bartlett\\UmlWriter\\Generator\\GeneratorFactoryInterface -->
<g id="node1" class="node">
<title>Bartlett\\UmlWriter\\Generator\\GeneratorFactoryInterface</title>
<polygon fill="#fefece" stroke="transparent" points="563.5,-560.5 16.5,-560.5 16.5,-513.5 563.5,-513.5 563.5,-560.5"/>
<polygon fill="#eeeeee" stroke="transparent" points="17,-538 17,-560 564,-560 564,-538 17,-538"/>
<polygon fill="none" stroke="black" points="17,-538 17,-560 564,-560 564,-538 17,-538"/>
<text text-anchor="start" x="264.5" y="-551.6" font-family="Verdana" font-weight="bold" font-size="8.00">«interface»</text>
<text text-anchor="start" x="231" y="-543.6" font-family="Verdana" font-weight="bold" font-size="8.00">GeneratorFactoryInterface</text>
<polygon fill="none" stroke="black" points="17,-532 17,-538 564,-538 564,-532 17,-532"/>
<polygon fill="none" stroke="black" points="17,-513 17,-532 564,-532 564,-513 17,-513"/>
<text text-anchor="start" x="22" y="-520.6" font-family="Verdana" font-size="8.00">+ «abstract» createInstance(provider : string, format : string, executable : string) : Bartlett\GraphUml\Generator\GeneratorInterface</text>
</g>
<!-- Bartlett\\UmlWriter\\Generator\\GeneratorFactory -->
<g id="node2" class="node">
<title>Bartlett\\UmlWriter\\Generator\\GeneratorFactory</title>
<polygon fill="#fefece" stroke="transparent" points="563,-921 17,-921 17,-874 563,-874 563,-921"/>
<polygon fill="#eeeeee" stroke="transparent" points="17,-898.5 17,-920.5 563,-920.5 563,-898.5 17,-898.5"/>
<polygon fill="none" stroke="black" points="17,-898.5 17,-920.5 563,-920.5 563,-898.5 17,-898.5"/>
<text text-anchor="start" x="250.5" y="-904.1" font-family="Verdana" font-weight="bold" font-size="8.00">GeneratorFactory</text>
<polygon fill="none" stroke="black" points="17,-892.5 17,-898.5 563,-898.5 563,-892.5 17,-892.5"/>
<polygon fill="none" stroke="black" points="17,-873.5 17,-892.5 563,-892.5 563,-873.5 17,-873.5"/>
<text text-anchor="start" x="22" y="-881.1" font-family="Verdana" font-size="8.00">+ createInstance(provider : string, format : string = &#39;svg&#39;, executable : string = &#39;&#39;) : Bartlett\GraphUml\Generator\GeneratorInterface</text>
</g>
<!-- Bartlett\\UmlWriter\\Generator\\GeneratorFactory&#45;&gt;Bartlett\\UmlWriter\\Generator\\GeneratorFactoryInterface -->
<g id="edge1" class="edge">
<title>Bartlett\\UmlWriter\\Generator\\GeneratorFactory&#45;&gt;Bartlett\\UmlWriter\\Generator\\GeneratorFactoryInterface</title>
<path fill="none" stroke="black" stroke-dasharray="5,2" d="M290,-873.8C290,-812.46 290,-643.15 290,-571.12"/>
<polygon fill="none" stroke="black" points="293.5,-570.83 290,-560.83 286.5,-570.83 293.5,-570.83"/>
</g>
<!-- Bartlett\\UmlWriter\\Console\\Command\\ClassDiagramCommand -->
<g id="node3" class="node">
<title>Bartlett\\UmlWriter\\Console\\Command\\ClassDiagramCommand</title>
<polygon fill="#fefece" stroke="transparent" points="1331.5,-921 588.5,-921 588.5,-874 1331.5,-874 1331.5,-921"/>
<polygon fill="#eeeeee" stroke="transparent" points="589,-898.5 589,-920.5 1332,-920.5 1332,-898.5 589,-898.5"/>
<polygon fill="none" stroke="black" points="589,-898.5 589,-920.5 1332,-920.5 1332,-898.5 589,-898.5"/>
<text text-anchor="start" x="907" y="-904.1" font-family="Verdana" font-weight="bold" font-size="8.00">ClassDiagramCommand</text>
<polygon fill="none" stroke="black" points="589,-892.5 589,-898.5 1332,-898.5 1332,-892.5 589,-892.5"/>
<polygon fill="none" stroke="black" points="589,-873.5 589,-892.5 1332,-892.5 1332,-873.5 589,-873.5"/>
<text text-anchor="start" x="594" y="-881.1" font-family="Verdana" font-size="8.00">+ __construct(renderer : Bartlett\UmlWriter\Service\ClassDiagramRenderer, generatorFactory : Bartlett\UmlWriter\Generator\GeneratorFactoryInterface, name : string = «unknown»)</text>
</g>
<!-- Symfony\\Component\\Console\\Command\\Command -->
<g id="node4" class="node">
<title>Symfony\\Component\\Console\\Command\\Command</title>
<polygon fill="#fefece" stroke="transparent" points="1306,-775 614,-775 614,-299 1306,-299 1306,-775"/>
<polygon fill="#eeeeee" stroke="transparent" points="614,-753 614,-775 1306,-775 1306,-753 614,-753"/>
<polygon fill="none" stroke="black" points="614,-753 614,-775 1306,-775 1306,-753 614,-753"/>
<text text-anchor="start" x="937" y="-758.6" font-family="Verdana" font-weight="bold" font-size="8.00">Command</text>
<polygon fill="none" stroke="black" points="614,-747 614,-753 1306,-753 1306,-747 614,-747"/>
<polygon fill="none" stroke="black" points="614,-299 614,-747 1306,-747 1306,-299 614,-299"/>
<text text-anchor="start" x="619" y="-735.6" font-family="Verdana" font-size="8.00">+ «static» getDefaultName() : ?string</text>
<text text-anchor="start" x="619" y="-722.6" font-family="Verdana" font-size="8.00">+ «static» getDefaultDescription() : ?string</text>
<text text-anchor="start" x="619" y="-709.6" font-family="Verdana" font-size="8.00">+ __construct(name : string = «unknown»)</text>
<text text-anchor="start" x="619" y="-696.6" font-family="Verdana" font-size="8.00">+ ignoreValidationErrors()</text>
<text text-anchor="start" x="619" y="-683.6" font-family="Verdana" font-size="8.00">+ setApplication(application : Symfony\Component\Console\Application = «unknown»)</text>
<text text-anchor="start" x="619" y="-670.6" font-family="Verdana" font-size="8.00">+ setHelperSet(helperSet : Symfony\Component\Console\Helper\HelperSet)</text>
<text text-anchor="start" x="619" y="-657.6" font-family="Verdana" font-size="8.00">+ getHelperSet() : ?Symfony\Component\Console\Helper\HelperSet</text>
<text text-anchor="start" x="619" y="-644.6" font-family="Verdana" font-size="8.00">+ getApplication() : ?Symfony\Component\Console\Application</text>
<text text-anchor="start" x="619" y="-631.6" font-family="Verdana" font-size="8.00">+ isEnabled()</text>
<text text-anchor="start" x="619" y="-618.6" font-family="Verdana" font-size="8.00">+ run(input : Symfony\Component\Console\Input\InputInterface, output : Symfony\Component\Console\Output\OutputInterface) : int</text>
<text text-anchor="start" x="619" y="-605.6" font-family="Verdana" font-size="8.00">+ complete(input : Symfony\Component\Console\Completion\CompletionInput, suggestions : Symfony\Component\Console\Completion\CompletionSuggestions) : void</text>
<text text-anchor="start" x="619" y="-592.6" font-family="Verdana" font-size="8.00">+ setCode(code : callable) : static</text>
<text text-anchor="start" x="619" y="-579.6" font-family="Verdana" font-size="8.00">+ mergeApplicationDefinition(mergeArgs : bool = true) : void</text>
<text text-anchor="start" x="619" y="-566.6" font-family="Verdana" font-size="8.00">+ setDefinition(definition) : static</text>
<text text-anchor="start" x="619" y="-553.6" font-family="Verdana" font-size="8.00">+ getDefinition() : Symfony\Component\Console\Input\InputDefinition</text>
<text text-anchor="start" x="619" y="-540.6" font-family="Verdana" font-size="8.00">+ getNativeDefinition() : Symfony\Component\Console\Input\InputDefinition</text>
<text text-anchor="start" x="619" y="-527.6" font-family="Verdana" font-size="8.00">+ addArgument(name : string, mode : int = «unknown», description : string = &#39;&#39;, default : mixed = «unknown») : static</text>
<text text-anchor="start" x="619" y="-514.6" font-family="Verdana" font-size="8.00">+ addOption(name : string, shortcut = «unknown», mode : int = «unknown», description : string = &#39;&#39;, default : mixed = «unknown») : static</text>
<text text-anchor="start" x="619" y="-501.6" font-family="Verdana" font-size="8.00">+ setName(name : string) : static</text>
<text text-anchor="start" x="619" y="-488.6" font-family="Verdana" font-size="8.00">+ setProcessTitle(title : string) : static</text>
<text text-anchor="start" x="619" y="-475.6" font-family="Verdana" font-size="8.00">+ getName() : ?string</text>
<text text-anchor="start" x="619" y="-462.6" font-family="Verdana" font-size="8.00">+ setHidden(hidden : bool = true) : static</text>
<text text-anchor="start" x="619" y="-449.6" font-family="Verdana" font-size="8.00">+ isHidden() : bool</text>
<text text-anchor="start" x="619" y="-436.6" font-family="Verdana" font-size="8.00">+ setDescription(description : string) : static</text>
<text text-anchor="start" x="619" y="-423.6" font-family="Verdana" font-size="8.00">+ getDescription() : string</text>
<text text-anchor="start" x="619" y="-410.6" font-family="Verdana" font-size="8.00">+ setHelp(help : string) : static</text>
<text text-anchor="start" x="619" y="-397.6" font-family="Verdana" font-size="8.00">+ getHelp() : string</text>
<text text-anchor="start" x="619" y="-384.6" font-family="Verdana" font-size="8.00">+ getProcessedHelp() : string</text>
<text text-anchor="start" x="619" y="-371.6" font-family="Verdana" font-size="8.00">+ setAliases(aliases : iterable) : static</text>
<text text-anchor="start" x="619" y="-358.6" font-family="Verdana" font-size="8.00">+ getAliases() : array</text>
<text text-anchor="start" x="619" y="-345.6" font-family="Verdana" font-size="8.00">+ getSynopsis(short : bool = false) : string</text>
<text text-anchor="start" x="619" y="-332.6" font-family="Verdana" font-size="8.00">+ addUsage(usage : string) : static</text>
<text text-anchor="start" x="619" y="-319.6" font-family="Verdana" font-size="8.00">+ getUsages() : array</text>
<text text-anchor="start" x="619" y="-306.6" font-family="Verdana" font-size="8.00">+ getHelper(name : string) : ?mixed</text>
</g>
<!-- Bartlett\\UmlWriter\\Console\\Command\\ClassDiagramCommand&#45;&gt;Symfony\\Component\\Console\\Command\\Command -->
<g id="edge2" class="edge">
<title>Bartlett\\UmlWriter\\Console\\Command\\ClassDiagramCommand&#45;&gt;Symfony\\Component\\Console\\Command\\Command</title>
<path fill="none" stroke="black" d="M960,-873.8C960,-853.61 960,-821.73 960,-785.47"/>
<polygon fill="none" stroke="black" points="963.5,-785.13 960,-775.13 956.5,-785.13 963.5,-785.13"/>
</g>
<!-- Bartlett\\UmlWriter\\Console\\Application -->
<g id="node5" class="node">
<title>Bartlett\\UmlWriter\\Console\\Application</title>
<polygon fill="#fefece" stroke="transparent" points="2025.5,-947 1356.5,-947 1356.5,-848 2025.5,-848 2025.5,-947"/>
<polygon fill="#eeeeee" stroke="transparent" points="1357,-924.5 1357,-946.5 2026,-946.5 2026,-924.5 1357,-924.5"/>
<polygon fill="none" stroke="black" points="1357,-924.5 1357,-946.5 2026,-946.5 2026,-924.5 1357,-924.5"/>
<text text-anchor="start" x="1665.5" y="-930.1" font-family="Verdana" font-weight="bold" font-size="8.00">Application</text>
<polygon fill="none" stroke="black" points="1357,-918.5 1357,-924.5 2026,-924.5 2026,-918.5 1357,-918.5"/>
<polygon fill="none" stroke="black" points="1357,-847.5 1357,-918.5 2026,-918.5 2026,-847.5 1357,-847.5"/>
<text text-anchor="start" x="1362" y="-907.1" font-family="Verdana" font-size="8.00">+ __construct(container : Psr\Container\ContainerInterface)</text>
<text text-anchor="start" x="1362" y="-894.1" font-family="Verdana" font-size="8.00">+ getHelp() : string</text>
<text text-anchor="start" x="1362" y="-881.1" font-family="Verdana" font-size="8.00">+ getLongVersion() : string</text>
<text text-anchor="start" x="1362" y="-868.1" font-family="Verdana" font-size="8.00">+ doRun(input : Symfony\Component\Console\Input\InputInterface, output : Symfony\Component\Console\Output\OutputInterface) : int</text>
<text text-anchor="start" x="1362" y="-855.1" font-family="Verdana" font-size="8.00">+ run(input : Symfony\Component\Console\Input\InputInterface = «unknown», output : Symfony\Component\Console\Output\OutputInterface = «unknown») : int</text>
</g>
<!-- Symfony\\Component\\Console\\Application -->
<g id="node6" class="node">
<title>Symfony\\Component\\Console\\Application</title>
<polygon fill="#fefece" stroke="transparent" points="2037,-801 1345,-801 1345,-273 2037,-273 2037,-801"/>
<polygon fill="#eeeeee" stroke="transparent" points="1345,-779 1345,-801 2037,-801 2037,-779 1345,-779"/>
<polygon fill="none" stroke="black" points="1345,-779 1345,-801 2037,-801 2037,-779 1345,-779"/>
<text text-anchor="start" x="1665" y="-784.6" font-family="Verdana" font-weight="bold" font-size="8.00">Application</text>
<polygon fill="none" stroke="black" points="1345,-773 1345,-779 2037,-779 2037,-773 1345,-773"/>
<polygon fill="none" stroke="black" points="1345,-273 1345,-773 2037,-773 2037,-273 1345,-273"/>
<text text-anchor="start" x="1350" y="-761.6" font-family="Verdana" font-size="8.00">+ __construct(name : string = &#39;UNKNOWN&#39;, version : string = &#39;UNKNOWN&#39;)</text>
<text text-anchor="start" x="1350" y="-748.6" font-family="Verdana" font-size="8.00">+ setDispatcher(dispatcher : Symfony\Contracts\EventDispatcher\EventDispatcherInterface) : void</text>
<text text-anchor="start" x="1350" y="-735.6" font-family="Verdana" font-size="8.00">+ setCommandLoader(commandLoader : Symfony\Component\Console\CommandLoader\CommandLoaderInterface)</text>
<text text-anchor="start" x="1350" y="-722.6" font-family="Verdana" font-size="8.00">+ getSignalRegistry() : Symfony\Component\Console\SignalRegistry\SignalRegistry</text>
<text text-anchor="start" x="1350" y="-709.6" font-family="Verdana" font-size="8.00">+ setSignalsToDispatchEvent(signalsToDispatchEvent : int = «unknown»)</text>
<text text-anchor="start" x="1350" y="-696.6" font-family="Verdana" font-size="8.00">+ run(input : Symfony\Component\Console\Input\InputInterface = «unknown», output : Symfony\Component\Console\Output\OutputInterface = «unknown») : int</text>
<text text-anchor="start" x="1350" y="-683.6" font-family="Verdana" font-size="8.00">+ doRun(input : Symfony\Component\Console\Input\InputInterface, output : Symfony\Component\Console\Output\OutputInterface)</text>
<text text-anchor="start" x="1350" y="-670.6" font-family="Verdana" font-size="8.00">+ reset()</text>
<text text-anchor="start" x="1350" y="-657.6" font-family="Verdana" font-size="8.00">+ setHelperSet(helperSet : Symfony\Component\Console\Helper\HelperSet)</text>
<text text-anchor="start" x="1350" y="-644.6" font-family="Verdana" font-size="8.00">+ getHelperSet() : Symfony\Component\Console\Helper\HelperSet</text>
<text text-anchor="start" x="1350" y="-631.6" font-family="Verdana" font-size="8.00">+ setDefinition(definition : Symfony\Component\Console\Input\InputDefinition)</text>
<text text-anchor="start" x="1350" y="-618.6" font-family="Verdana" font-size="8.00">+ getDefinition() : Symfony\Component\Console\Input\InputDefinition</text>
<text text-anchor="start" x="1350" y="-605.6" font-family="Verdana" font-size="8.00">+ complete(input : Symfony\Component\Console\Completion\CompletionInput, suggestions : Symfony\Component\Console\Completion\CompletionSuggestions) : void</text>
<text text-anchor="start" x="1350" y="-592.6" font-family="Verdana" font-size="8.00">+ getHelp() : string</text>
<text text-anchor="start" x="1350" y="-579.6" font-family="Verdana" font-size="8.00">+ areExceptionsCaught() : bool</text>
<text text-anchor="start" x="1350" y="-566.6" font-family="Verdana" font-size="8.00">+ setCatchExceptions(boolean : bool)</text>
<text text-anchor="start" x="1350" y="-553.6" font-family="Verdana" font-size="8.00">+ setCatchErrors(catchErrors : bool = true) : void</text>
<text text-anchor="start" x="1350" y="-540.6" font-family="Verdana" font-size="8.00">+ isAutoExitEnabled() : bool</text>
<text text-anchor="start" x="1350" y="-527.6" font-family="Verdana" font-size="8.00">+ setAutoExit(boolean : bool)</text>
<text text-anchor="start" x="1350" y="-514.6" font-family="Verdana" font-size="8.00">+ getName() : string</text>
<text text-anchor="start" x="1350" y="-501.6" font-family="Verdana" font-size="8.00">+ setName(name : string)</text>
<text text-anchor="start" x="1350" y="-488.6" font-family="Verdana" font-size="8.00">+ getVersion() : string</text>
<text text-anchor="start" x="1350" y="-475.6" font-family="Verdana" font-size="8.00">+ setVersion(version : string)</text>
<text text-anchor="start" x="1350" y="-462.6" font-family="Verdana" font-size="8.00">+ getLongVersion()</text>
<text text-anchor="start" x="1350" y="-449.6" font-family="Verdana" font-size="8.00">+ register(name : string) : Symfony\Component\Console\Command\Command</text>
<text text-anchor="start" x="1350" y="-436.6" font-family="Verdana" font-size="8.00">+ addCommands(commands : array)</text>
<text text-anchor="start" x="1350" y="-423.6" font-family="Verdana" font-size="8.00">+ add(command : Symfony\Component\Console\Command\Command)</text>
<text text-anchor="start" x="1350" y="-410.6" font-family="Verdana" font-size="8.00">+ get(name : string)</text>
<text text-anchor="start" x="1350" y="-397.6" font-family="Verdana" font-size="8.00">+ has(name : string) : bool</text>
<text text-anchor="start" x="1350" y="-384.6" font-family="Verdana" font-size="8.00">+ getNamespaces() : array</text>
<text text-anchor="start" x="1350" y="-371.6" font-family="Verdana" font-size="8.00">+ findNamespace(namespace : string) : string</text>
<text text-anchor="start" x="1350" y="-358.6" font-family="Verdana" font-size="8.00">+ find(name : string)</text>
<text text-anchor="start" x="1350" y="-345.6" font-family="Verdana" font-size="8.00">+ all(namespace : string = «unknown»)</text>
<text text-anchor="start" x="1350" y="-332.6" font-family="Verdana" font-size="8.00">+ «static» getAbbreviations(names : array) : array</text>
<text text-anchor="start" x="1350" y="-319.6" font-family="Verdana" font-size="8.00">+ renderThrowable(e : Throwable, output : Symfony\Component\Console\Output\OutputInterface) : void</text>
<text text-anchor="start" x="1350" y="-306.6" font-family="Verdana" font-size="8.00">+ extractNamespace(name : string, limit : int = «unknown») : string</text>
<text text-anchor="start" x="1350" y="-293.6" font-family="Verdana" font-size="8.00">+ setDefaultCommand(commandName : string, isSingleCommand : bool = false) : static</text>
<text text-anchor="start" x="1350" y="-280.6" font-family="Verdana" font-size="8.00">+ isSingleCommand() : bool</text>
</g>
<!-- Bartlett\\UmlWriter\\Console\\Application&#45;&gt;Symfony\\Component\\Console\\Application -->
<g id="edge4" class="edge">
<title>Bartlett\\UmlWriter\\Console\\Application&#45;&gt;Symfony\\Component\\Console\\Application</title>
<path fill="none" stroke="black" d="M1691,-847.78C1691,-836.95 1691,-824.73 1691,-811.56"/>
<polygon fill="none" stroke="black" points="1694.5,-811.31 1691,-801.31 1687.5,-811.31 1694.5,-811.31"/>
</g>
<!-- Symfony\\Contracts\\Service\\ResetInterface -->
<g id="node7" class="node">
<title>Symfony\\Contracts\\Service\\ResetInterface</title>
<polygon fill="#fefece" stroke="transparent" points="1737.5,-211 1644.5,-211 1644.5,-164 1737.5,-164 1737.5,-211"/>
<polygon fill="#eeeeee" stroke="transparent" points="1645,-188.5 1645,-210.5 1738,-210.5 1738,-188.5 1645,-188.5"/>
<polygon fill="none" stroke="black" points="1645,-188.5 1645,-210.5 1738,-210.5 1738,-188.5 1645,-188.5"/>
<text text-anchor="start" x="1665.5" y="-202.1" font-family="Verdana" font-weight="bold" font-size="8.00">«interface»</text>
<text text-anchor="start" x="1658.5" y="-194.1" font-family="Verdana" font-weight="bold" font-size="8.00">ResetInterface</text>
<polygon fill="none" stroke="black" points="1645,-182.5 1645,-188.5 1738,-188.5 1738,-182.5 1645,-182.5"/>
<polygon fill="none" stroke="black" points="1645,-163.5 1645,-182.5 1738,-182.5 1738,-163.5 1645,-163.5"/>
<text text-anchor="start" x="1650" y="-171.1" font-family="Verdana" font-size="8.00">+ «abstract» reset()</text>
</g>
<!-- Symfony\\Component\\Console\\Application&#45;&gt;Symfony\\Contracts\\Service\\ResetInterface -->
<g id="edge3" class="edge">
<title>Symfony\\Component\\Console\\Application&#45;&gt;Symfony\\Contracts\\Service\\ResetInterface</title>
<path fill="none" stroke="black" stroke-dasharray="5,2" d="M1691,-272.62C1691,-253.05 1691,-235.57 1691,-221.68"/>
<polygon fill="none" stroke="black" points="1694.5,-221.34 1691,-211.34 1687.5,-221.34 1694.5,-221.34"/>
</g>
<!-- Bartlett\\UmlWriter\\Service\\ClassDiagramRenderer -->
<g id="node8" class="node">
<title>Bartlett\\UmlWriter\\Service\\ClassDiagramRenderer</title>
<polygon fill="#fefece" stroke="transparent" points="2999,-927.5 2451,-927.5 2451,-867.5 2999,-867.5 2999,-927.5"/>
<polygon fill="#eeeeee" stroke="transparent" points="2451,-905.5 2451,-927.5 2999,-927.5 2999,-905.5 2451,-905.5"/>
<polygon fill="none" stroke="black" points="2451,-905.5 2451,-927.5 2999,-927.5 2999,-905.5 2451,-905.5"/>
<text text-anchor="start" x="2673.5" y="-911.1" font-family="Verdana" font-weight="bold" font-size="8.00">ClassDiagramRenderer</text>
<polygon fill="none" stroke="black" points="2451,-899.5 2451,-905.5 2999,-905.5 2999,-899.5 2451,-899.5"/>
<polygon fill="none" stroke="black" points="2451,-867.5 2451,-899.5 2999,-899.5 2999,-867.5 2451,-867.5"/>
<text text-anchor="start" x="2456" y="-888.1" font-family="Verdana" font-size="8.00">+ __invoke(datasource, generator : Bartlett\GraphUml\Generator\GeneratorInterface, parameters : array = []) : Graphp\Graph\Graph</text>
<text text-anchor="start" x="2456" y="-875.1" font-family="Verdana" font-size="8.00">+ getMetadata() : array</text>
</g>
<!-- Bartlett\\UmlWriter\\Service\\ContainerService -->
<g id="node9" class="node">
<title>Bartlett\\UmlWriter\\Service\\ContainerService</title>
<polygon fill="#fefece" stroke="transparent" points="2432.5,-940.5 2265.5,-940.5 2265.5,-854.5 2432.5,-854.5 2432.5,-940.5"/>
<polygon fill="#eeeeee" stroke="transparent" points="2266,-918.5 2266,-940.5 2433,-940.5 2433,-918.5 2266,-918.5"/>
<polygon fill="none" stroke="black" points="2266,-918.5 2266,-940.5 2433,-940.5 2433,-918.5 2266,-918.5"/>
<text text-anchor="start" x="2310.5" y="-924.1" font-family="Verdana" font-weight="bold" font-size="8.00">ContainerService</text>
<polygon fill="none" stroke="black" points="2266,-912.5 2266,-918.5 2433,-918.5 2433,-912.5 2266,-912.5"/>
<polygon fill="none" stroke="black" points="2266,-854.5 2266,-912.5 2433,-912.5 2433,-854.5 2266,-854.5"/>
<text text-anchor="start" x="2271" y="-901.1" font-family="Verdana" font-size="8.00">+ __construct()</text>
<text text-anchor="start" x="2271" y="-888.1" font-family="Verdana" font-size="8.00">+ set(id : string, service : mixed) : void</text>
<text text-anchor="start" x="2271" y="-875.1" font-family="Verdana" font-size="8.00">+ get(id : string) : ?mixed</text>
<text text-anchor="start" x="2271" y="-862.1" font-family="Verdana" font-size="8.00">+ has(id : string) : bool</text>
</g>
<!-- Psr\\Container\\ContainerInterface -->
<g id="node11" class="node">
<title>Psr\\Container\\ContainerInterface</title>
<polygon fill="#fefece" stroke="transparent" points="2424.5,-567 2273.5,-567 2273.5,-507 2424.5,-507 2424.5,-567"/>
<polygon fill="#eeeeee" stroke="transparent" points="2274,-545 2274,-567 2425,-567 2425,-545 2274,-545"/>
<polygon fill="none" stroke="black" points="2274,-545 2274,-567 2425,-567 2425,-545 2274,-545"/>
<text text-anchor="start" x="2323.5" y="-558.6" font-family="Verdana" font-weight="bold" font-size="8.00">«interface»</text>
<text text-anchor="start" x="2307" y="-550.6" font-family="Verdana" font-weight="bold" font-size="8.00">ContainerInterface</text>
<polygon fill="none" stroke="black" points="2274,-539 2274,-545 2425,-545 2425,-539 2274,-539"/>
<polygon fill="none" stroke="black" points="2274,-507 2274,-539 2425,-539 2425,-507 2274,-507"/>
<text text-anchor="start" x="2279" y="-527.6" font-family="Verdana" font-size="8.00">+ «abstract» get(id : string)</text>
<text text-anchor="start" x="2279" y="-514.6" font-family="Verdana" font-size="8.00">+ «abstract» has(id : string) : bool</text>
</g>
<!-- Bartlett\\UmlWriter\\Service\\ContainerService&#45;&gt;Psr\\Container\\ContainerInterface -->
<g id="edge5" class="edge">
<title>Bartlett\\UmlWriter\\Service\\ContainerService&#45;&gt;Psr\\Container\\ContainerInterface</title>
<path fill="none" stroke="black" stroke-dasharray="5,2" d="M2349,-854.32C2349,-784.4 2349,-645.44 2349,-577.4"/>
<polygon fill="none" stroke="black" points="2352.5,-577.11 2349,-567.11 2345.5,-577.11 2352.5,-577.11"/>
</g>
<!-- Bartlett\\UmlWriter\\Service\\ConfigurationHandler -->
<g id="node10" class="node">
<title>Bartlett\\UmlWriter\\Service\\ConfigurationHandler</title>
<polygon fill="#fefece" stroke="transparent" points="2247.5,-940.5 2050.5,-940.5 2050.5,-854.5 2247.5,-854.5 2247.5,-940.5"/>
<polygon fill="#eeeeee" stroke="transparent" points="2051,-918.5 2051,-940.5 2248,-940.5 2248,-918.5 2051,-918.5"/>
<polygon fill="none" stroke="black" points="2051,-918.5 2051,-940.5 2248,-940.5 2248,-918.5 2051,-918.5"/>
<text text-anchor="start" x="2100" y="-924.1" font-family="Verdana" font-weight="bold" font-size="8.00">ConfigurationHandler</text>
<polygon fill="none" stroke="black" points="2051,-912.5 2051,-918.5 2248,-918.5 2248,-912.5 2051,-912.5"/>
<polygon fill="none" stroke="black" points="2051,-854.5 2051,-912.5 2248,-912.5 2248,-854.5 2051,-854.5"/>
<text text-anchor="start" x="2056" y="-901.1" font-family="Verdana" font-size="8.00">+ __construct(filename : string = «unknown»)</text>
<text text-anchor="start" x="2056" y="-888.1" font-family="Verdana" font-size="8.00">+ «static» getDefaults() : array</text>
<text text-anchor="start" x="2056" y="-875.1" font-family="Verdana" font-size="8.00">+ toArray() : array</text>
<text text-anchor="start" x="2056" y="-862.1" font-family="Verdana" font-size="8.00">+ toFlat() : array</text>
</g>
<!-- Bartlett\\UmlWriter\\Config\\Loader\\YamlFileLoader -->
<g id="node12" class="node">
<title>Bartlett\\UmlWriter\\Config\\Loader\\YamlFileLoader</title>
<polygon fill="#fefece" stroke="transparent" points="3276.5,-927.5 3023.5,-927.5 3023.5,-867.5 3276.5,-867.5 3276.5,-927.5"/>
<polygon fill="#eeeeee" stroke="transparent" points="3024,-905.5 3024,-927.5 3277,-927.5 3277,-905.5 3024,-905.5"/>
<polygon fill="none" stroke="black" points="3024,-905.5 3024,-927.5 3277,-927.5 3277,-905.5 3024,-905.5"/>
<text text-anchor="start" x="3115.5" y="-911.1" font-family="Verdana" font-weight="bold" font-size="8.00">YamlFileLoader</text>
<polygon fill="none" stroke="black" points="3024,-899.5 3024,-905.5 3277,-905.5 3277,-899.5 3024,-899.5"/>
<polygon fill="none" stroke="black" points="3024,-867.5 3024,-899.5 3277,-899.5 3277,-867.5 3024,-867.5"/>
<text text-anchor="start" x="3029" y="-888.1" font-family="Verdana" font-size="8.00">+ load(resource : mixed, type : string = «unknown») : array</text>
<text text-anchor="start" x="3029" y="-875.1" font-family="Verdana" font-size="8.00">+ supports(resource, type : string = «unknown») : bool</text>
</g>
<!-- Symfony\\Component\\Config\\Loader\\FileLoader -->
<g id="node13" class="node">
<title>Symfony\\Component\\Config\\Loader\\FileLoader</title>
<polygon fill="#fefece" stroke="transparent" points="3466,-580 2834,-580 2834,-494 3466,-494 3466,-580"/>
<polygon fill="#eeeeee" stroke="transparent" points="2834,-558 2834,-580 3466,-580 3466,-558 2834,-558"/>
<polygon fill="none" stroke="black" points="2834,-558 2834,-580 3466,-580 3466,-558 2834,-558"/>
<text text-anchor="start" x="3126" y="-571.6" font-family="Verdana" font-weight="bold" font-size="8.00">«abstract»</text>
<text text-anchor="start" x="3126" y="-563.6" font-family="Verdana" font-weight="bold" font-size="8.00">FileLoader</text>
<polygon fill="none" stroke="black" points="2834,-552 2834,-558 3466,-558 3466,-552 2834,-552"/>
<polygon fill="none" stroke="black" points="2834,-494 2834,-552 3466,-552 3466,-494 2834,-494"/>
<text text-anchor="start" x="2839" y="-540.6" font-family="Verdana" font-size="8.00">+ __construct(locator : Symfony\Component\Config\FileLocatorInterface, env : string = «unknown»)</text>
<text text-anchor="start" x="2839" y="-527.6" font-family="Verdana" font-size="8.00">+ setCurrentDir(dir : string)</text>
<text text-anchor="start" x="2839" y="-514.6" font-family="Verdana" font-size="8.00">+ getLocator() : Symfony\Component\Config\FileLocatorInterface</text>
<text text-anchor="start" x="2839" y="-501.6" font-family="Verdana" font-size="8.00">+ import(resource : mixed, type : string = «unknown», ignoreErrors : bool = false, sourceResource : string = «unknown», exclude : mixed = «unknown»)</text>
</g>
<!-- Bartlett\\UmlWriter\\Config\\Loader\\YamlFileLoader&#45;&gt;Symfony\\Component\\Config\\Loader\\FileLoader -->
<g id="edge8" class="edge">
<title>Bartlett\\UmlWriter\\Config\\Loader\\YamlFileLoader&#45;&gt;Symfony\\Component\\Config\\Loader\\FileLoader</title>
<path fill="none" stroke="black" d="M3150,-867.47C3150,-807.05 3150,-667.06 3150,-590.44"/>
<polygon fill="none" stroke="black" points="3153.5,-590.06 3150,-580.06 3146.5,-590.06 3153.5,-590.06"/>
</g>
<!-- Symfony\\Component\\Config\\Loader\\Loader -->
<g id="node14" class="node">
<title>Symfony\\Component\\Config\\Loader\\Loader</title>
<polygon fill="#fefece" stroke="transparent" points="3379,-237 2921,-237 2921,-138 3379,-138 3379,-237"/>
<polygon fill="#eeeeee" stroke="transparent" points="2921,-214.5 2921,-236.5 3379,-236.5 3379,-214.5 2921,-214.5"/>
<polygon fill="none" stroke="black" points="2921,-214.5 2921,-236.5 3379,-236.5 3379,-214.5 2921,-214.5"/>
<text text-anchor="start" x="3126" y="-228.1" font-family="Verdana" font-weight="bold" font-size="8.00">«abstract»</text>
<text text-anchor="start" x="3134.5" y="-220.1" font-family="Verdana" font-weight="bold" font-size="8.00">Loader</text>
<polygon fill="none" stroke="black" points="2921,-208.5 2921,-214.5 3379,-214.5 3379,-208.5 2921,-208.5"/>
<polygon fill="none" stroke="black" points="2921,-137.5 2921,-208.5 3379,-208.5 3379,-137.5 2921,-137.5"/>
<text text-anchor="start" x="2926" y="-197.1" font-family="Verdana" font-size="8.00">+ __construct(env : string = «unknown»)</text>
<text text-anchor="start" x="2926" y="-184.1" font-family="Verdana" font-size="8.00">+ getResolver() : Symfony\Component\Config\Loader\LoaderResolverInterface</text>
<text text-anchor="start" x="2926" y="-171.1" font-family="Verdana" font-size="8.00">+ setResolver(resolver : Symfony\Component\Config\Loader\LoaderResolverInterface)</text>
<text text-anchor="start" x="2926" y="-158.1" font-family="Verdana" font-size="8.00">+ import(resource : mixed, type : string = «unknown»)</text>
<text text-anchor="start" x="2926" y="-145.1" font-family="Verdana" font-size="8.00">+ resolve(resource : mixed, type : string = «unknown») : Symfony\Component\Config\Loader\LoaderInterface</text>
</g>
<!-- Symfony\\Component\\Config\\Loader\\FileLoader&#45;&gt;Symfony\\Component\\Config\\Loader\\Loader -->
<g id="edge7" class="edge">
<title>Symfony\\Component\\Config\\Loader\\FileLoader&#45;&gt;Symfony\\Component\\Config\\Loader\\Loader</title>
<path fill="none" stroke="black" d="M3150,-493.74C3150,-432.14 3150,-317.46 3150,-247.56"/>
<polygon fill="none" stroke="black" points="3153.5,-247.16 3150,-237.16 3146.5,-247.16 3153.5,-247.16"/>
</g>
<!-- Symfony\\Component\\Config\\Loader\\LoaderInterface -->
<g id="node15" class="node">
<title>Symfony\\Component\\Config\\Loader\\LoaderInterface</title>
<polygon fill="#fefece" stroke="transparent" points="3355,-102 2945,-102 2945,-16 3355,-16 3355,-102"/>
<polygon fill="#eeeeee" stroke="transparent" points="2945,-80 2945,-102 3355,-102 3355,-80 2945,-80"/>
<polygon fill="none" stroke="black" points="2945,-80 2945,-102 3355,-102 3355,-80 2945,-80"/>
<text text-anchor="start" x="3124" y="-93.6" font-family="Verdana" font-weight="bold" font-size="8.00">«interface»</text>
<text text-anchor="start" x="3114" y="-85.6" font-family="Verdana" font-weight="bold" font-size="8.00">LoaderInterface</text>
<polygon fill="none" stroke="black" points="2945,-74 2945,-80 3355,-80 3355,-74 2945,-74"/>
<polygon fill="none" stroke="black" points="2945,-16 2945,-74 3355,-74 3355,-16 2945,-16"/>
<text text-anchor="start" x="2950" y="-62.6" font-family="Verdana" font-size="8.00">+ «abstract» load(resource : mixed, type : string = «unknown»)</text>
<text text-anchor="start" x="2950" y="-49.6" font-family="Verdana" font-size="8.00">+ «abstract» supports(resource : mixed, type : string = «unknown»)</text>
<text text-anchor="start" x="2950" y="-36.6" font-family="Verdana" font-size="8.00">+ «abstract» getResolver()</text>
<text text-anchor="start" x="2950" y="-23.6" font-family="Verdana" font-size="8.00">+ «abstract» setResolver(resolver : Symfony\Component\Config\Loader\LoaderResolverInterface)</text>
</g>
<!-- Symfony\\Component\\Config\\Loader\\Loader&#45;&gt;Symfony\\Component\\Config\\Loader\\LoaderInterface -->
<g id="edge6" class="edge">
<title>Symfony\\Component\\Config\\Loader\\Loader&#45;&gt;Symfony\\Component\\Config\\Loader\\LoaderInterface</title>
<path fill="none" stroke="black" stroke-dasharray="5,2" d="M3150,-137.95C3150,-129.53 3150,-120.74 3150,-112.23"/>
<polygon fill="none" stroke="black" points="3153.5,-112.02 3150,-102.02 3146.5,-112.02 3153.5,-112.02"/>
</g>
</g>
</svg>
