<?xml version="1.0" encoding="UTF-8" standalone="no"?>
<!DOCTYPE svg PUBLIC "-//W3C//DTD SVG 1.1//EN"
 "http://www.w3.org/Graphics/SVG/1.1/DTD/svg11.dtd">
<!-- Generated by graphviz version 2.43.0 (0)
 -->
<!-- Title: %3 Pages: 1 -->
<svg width="414pt" height="149pt"
 viewBox="0.00 0.00 414.00 149.00" xmlns="http://www.w3.org/2000/svg" xmlns:xlink="http://www.w3.org/1999/xlink">
<g id="graph0" class="graph" transform="scale(1 1) rotate(0) translate(4 145)">
<title>%3</title>
<g id="clust1" class="cluster">
<title>cluster_0</title>
<polygon fill="BurlyWood" stroke="black" points="0,-8 0,-133 211,-133 211,-8 0,-8"/>
<text text-anchor="middle" x="105.5" y="-117.8" font-family="Times,serif" font-size="14.00">Bartlett\UmlWriter\Service</text>
</g>
<g id="clust2" class="cluster">
<title>cluster_1</title>
<polygon fill="transparent" stroke="black" points="231,-21 231,-120 398,-120 398,-21 231,-21"/>
<text text-anchor="middle" x="314.5" y="-104.8" font-family="Times,serif" font-size="14.00">Psr\Container</text>
</g>
<!-- Bartlett\\UmlWriter\\Service\\ContainerService -->
<g id="node1" class="node">
<title>Bartlett\\UmlWriter\\Service\\ContainerService</title>
<polygon fill="#fefece" stroke="transparent" points="189,-102 22,-102 22,-16 189,-16 189,-102"/>
<polygon fill="#eeeeee" stroke="transparent" points="22.5,-80 22.5,-102 189.5,-102 189.5,-80 22.5,-80"/>
<polygon fill="none" stroke="black" points="22.5,-80 22.5,-102 189.5,-102 189.5,-80 22.5,-80"/>
<text text-anchor="start" x="67" y="-85.6" font-family="Verdana" font-weight="bold" font-size="8.00">ContainerService</text>
<polygon fill="none" stroke="black" points="22.5,-74 22.5,-80 189.5,-80 189.5,-74 22.5,-74"/>
<polygon fill="none" stroke="black" points="22.5,-16 22.5,-74 189.5,-74 189.5,-16 22.5,-16"/>
<text text-anchor="start" x="27.5" y="-62.6" font-family="Verdana" font-size="8.00">+ __construct()</text>
<text text-anchor="start" x="27.5" y="-49.6" font-family="Verdana" font-size="8.00">+ set(id : string, service : mixed) : void</text>
<text text-anchor="start" x="27.5" y="-36.6" font-family="Verdana" font-size="8.00">+ get(id : string) : ?mixed</text>
<text text-anchor="start" x="27.5" y="-23.6" font-family="Verdana" font-size="8.00">+ has(id : string) : bool</text>
</g>
<!-- Psr\\Container\\ContainerInterface -->
<g id="node2" class="node">
<title>Psr\\Container\\ContainerInterface</title>
<polygon fill="white" stroke="transparent" points="390,-89 239,-89 239,-29 390,-29 390,-89"/>
<polygon fill="#eeeeee" stroke="transparent" points="239.5,-67 239.5,-89 390.5,-89 390.5,-67 239.5,-67"/>
<polygon fill="none" stroke="black" points="239.5,-67 239.5,-89 390.5,-89 390.5,-67 239.5,-67"/>
<text text-anchor="start" x="289" y="-80.6" font-family="Verdana" font-weight="bold" font-size="8.00">«interface»</text>
<text text-anchor="start" x="272.5" y="-72.6" font-family="Verdana" font-weight="bold" font-size="8.00">ContainerInterface</text>
<polygon fill="none" stroke="black" points="239.5,-61 239.5,-67 390.5,-67 390.5,-61 239.5,-61"/>
<polygon fill="none" stroke="black" points="239.5,-29 239.5,-61 390.5,-61 390.5,-29 239.5,-29"/>
<text text-anchor="start" x="244.5" y="-49.6" font-family="Verdana" font-size="8.00">+ «abstract» get(id : string)</text>
<text text-anchor="start" x="244.5" y="-36.6" font-family="Verdana" font-size="8.00">+ «abstract» has(id : string) : bool</text>
</g>
<!-- Bartlett\\UmlWriter\\Service\\ContainerService&#45;&gt;Psr\\Container\\ContainerInterface -->
<g id="edge1" class="edge">
<title>Bartlett\\UmlWriter\\Service\\ContainerService&#45;&gt;Psr\\Container\\ContainerInterface</title>
<path fill="none" stroke="black" stroke-dasharray="5,2" d="M189.2,-59C202.18,-59 215.61,-59 228.63,-59"/>
<polygon fill="none" stroke="black" points="228.97,-62.5 238.97,-59 228.97,-55.5 228.97,-62.5"/>
</g>
</g>
</svg>
