<?xml version="1.0" encoding="UTF-8" standalone="no"?>
<!DOCTYPE svg PUBLIC "-//W3C//DTD SVG 1.1//EN"
 "http://www.w3.org/Graphics/SVG/1.1/DTD/svg11.dtd">
<!-- Generated by graphviz version 2.43.0 (0)
 -->
<!-- Title: %3 Pages: 1 -->
<svg width="724pt" height="539pt"
 viewBox="0.00 0.00 724.00 539.00" xmlns="http://www.w3.org/2000/svg" xmlns:xlink="http://www.w3.org/1999/xlink">
<g id="graph0" class="graph" transform="scale(1 1) rotate(0) translate(4 535)">
<title>%3</title>
<g id="clust1" class="cluster">
<title>cluster_0</title>
<polygon fill="BurlyWood" stroke="black" points="216,-411 216,-510 486,-510 486,-411 216,-411"/>
<text text-anchor="middle" x="351" y="-494.8" font-family="Times,serif" font-size="14.00">Bartlett\UmlWriter\Config\Loader</text>
</g>
<g id="clust2" class="cluster">
<title>cluster_1</title>
<polygon fill="LightSkyBlue" stroke="black" points="8,-8 8,-390 694,-390 694,-8 8,-8"/>
<text text-anchor="middle" x="351" y="-374.8" font-family="Times,serif" font-size="14.00">Symfony\Component\Config\Loader</text>
</g>
<g id="clust3" class="cluster">
<title>cluster_2</title>
<polygon fill="BurlyWood" stroke="black" points="494,-398 494,-523 708,-523 708,-398 494,-398"/>
<text text-anchor="middle" x="601" y="-507.8" font-family="Times,serif" font-size="14.00">Bartlett\UmlWriter\Service</text>
</g>
<!-- Bartlett\\UmlWriter\\Config\\Loader\\YamlFileLoader -->
<g id="node1" class="node">
<title>Bartlett\\UmlWriter\\Config\\Loader\\YamlFileLoader</title>
<polygon fill="#fefece" stroke="transparent" points="477.5,-479 224.5,-479 224.5,-419 477.5,-419 477.5,-479"/>
<polygon fill="#eeeeee" stroke="transparent" points="225,-457 225,-479 478,-479 478,-457 225,-457"/>
<polygon fill="none" stroke="black" points="225,-457 225,-479 478,-479 478,-457 225,-457"/>
<text text-anchor="start" x="316.5" y="-462.6" font-family="Verdana" font-weight="bold" font-size="8.00">YamlFileLoader</text>
<polygon fill="none" stroke="black" points="225,-451 225,-457 478,-457 478,-451 225,-451"/>
<polygon fill="none" stroke="black" points="225,-419 225,-451 478,-451 478,-419 225,-419"/>
<text text-anchor="start" x="230" y="-439.6" font-family="Verdana" font-size="8.00">+ load(resource : mixed, type : string = «unknown») : array</text>
<text text-anchor="start" x="230" y="-426.6" font-family="Verdana" font-size="8.00">+ supports(resource, type : string = «unknown») : bool</text>
</g>
<!-- Symfony\\Component\\Config\\Loader\\FileLoader -->
<g id="node2" class="node">
<title>Symfony\\Component\\Config\\Loader\\FileLoader</title>
<polygon fill="#fefece" stroke="transparent" points="685.5,-359 16.5,-359 16.5,-273 685.5,-273 685.5,-359"/>
<polygon fill="#eeeeee" stroke="transparent" points="17,-337 17,-359 686,-359 686,-337 17,-337"/>
<polygon fill="none" stroke="black" points="17,-337 17,-359 686,-359 686,-337 17,-337"/>
<text text-anchor="start" x="327.5" y="-350.6" font-family="Verdana" font-weight="bold" font-size="8.00">«abstract»</text>
<text text-anchor="start" x="327.5" y="-342.6" font-family="Verdana" font-weight="bold" font-size="8.00">FileLoader</text>
<polygon fill="none" stroke="black" points="17,-331 17,-337 686,-337 686,-331 17,-331"/>
<polygon fill="none" stroke="black" points="17,-273 17,-331 686,-331 686,-273 17,-273"/>
<text text-anchor="start" x="22" y="-319.6" font-family="Verdana" font-size="8.00">+ __construct(locator : Symfony\Component\Config\FileLocatorInterface, env : string = «unknown»)</text>
<text text-anchor="start" x="22" y="-306.6" font-family="Verdana" font-size="8.00">+ setCurrentDir(dir : string) : void</text>
<text text-anchor="start" x="22" y="-293.6" font-family="Verdana" font-size="8.00">+ getLocator() : Symfony\Component\Config\FileLocatorInterface</text>
<text text-anchor="start" x="22" y="-280.6" font-family="Verdana" font-size="8.00">+ import(resource : mixed, type : string = «unknown», ignoreErrors : bool = false, sourceResource : string = «unknown», exclude : mixed = «unknown») : ?mixed</text>
</g>
<!-- Bartlett\\UmlWriter\\Config\\Loader\\YamlFileLoader&#45;&gt;Symfony\\Component\\Config\\Loader\\FileLoader -->
<g id="edge3" class="edge">
<title>Bartlett\\UmlWriter\\Config\\Loader\\YamlFileLoader&#45;&gt;Symfony\\Component\\Config\\Loader\\FileLoader</title>
<path fill="none" stroke="black" d="M351,-418.93C351,-404.38 351,-386.32 351,-369.47"/>
<polygon fill="none" stroke="black" points="354.5,-369.17 351,-359.17 347.5,-369.17 354.5,-369.17"/>
</g>
<!-- Symfony\\Component\\Config\\Loader\\Loader -->
<g id="node3" class="node">
<title>Symfony\\Component\\Config\\Loader\\Loader</title>
<polygon fill="#fefece" stroke="transparent" points="580,-237 122,-237 122,-138 580,-138 580,-237"/>
<polygon fill="#eeeeee" stroke="transparent" points="122,-214.5 122,-236.5 580,-236.5 580,-214.5 122,-214.5"/>
<polygon fill="none" stroke="black" points="122,-214.5 122,-236.5 580,-236.5 580,-214.5 122,-214.5"/>
<text text-anchor="start" x="327" y="-228.1" font-family="Verdana" font-weight="bold" font-size="8.00">«abstract»</text>
<text text-anchor="start" x="335.5" y="-220.1" font-family="Verdana" font-weight="bold" font-size="8.00">Loader</text>
<polygon fill="none" stroke="black" points="122,-208.5 122,-214.5 580,-214.5 580,-208.5 122,-208.5"/>
<polygon fill="none" stroke="black" points="122,-137.5 122,-208.5 580,-208.5 580,-137.5 122,-137.5"/>
<text text-anchor="start" x="127" y="-197.1" font-family="Verdana" font-size="8.00">+ __construct(env : string = «unknown»)</text>
<text text-anchor="start" x="127" y="-184.1" font-family="Verdana" font-size="8.00">+ getResolver() : Symfony\Component\Config\Loader\LoaderResolverInterface</text>
<text text-anchor="start" x="127" y="-171.1" font-family="Verdana" font-size="8.00">+ setResolver(resolver : Symfony\Component\Config\Loader\LoaderResolverInterface) : void</text>
<text text-anchor="start" x="127" y="-158.1" font-family="Verdana" font-size="8.00">+ import(resource : mixed, type : string = «unknown») : ?mixed</text>
<text text-anchor="start" x="127" y="-145.1" font-family="Verdana" font-size="8.00">+ resolve(resource : mixed, type : string = «unknown») : Symfony\Component\Config\Loader\LoaderInterface</text>
</g>
<!-- Symfony\\Component\\Config\\Loader\\FileLoader&#45;&gt;Symfony\\Component\\Config\\Loader\\Loader -->
<g id="edge2" class="edge">
<title>Symfony\\Component\\Config\\Loader\\FileLoader&#45;&gt;Symfony\\Component\\Config\\Loader\\Loader</title>
<path fill="none" stroke="black" d="M351,-272.88C351,-264.61 351,-255.8 351,-247.11"/>
<polygon fill="none" stroke="black" points="354.5,-247 351,-237 347.5,-247 354.5,-247"/>
</g>
<!-- Symfony\\Component\\Config\\Loader\\LoaderInterface -->
<g id="node4" class="node">
<title>Symfony\\Component\\Config\\Loader\\LoaderInterface</title>
<polygon fill="#fefece" stroke="transparent" points="568.5,-102 133.5,-102 133.5,-16 568.5,-16 568.5,-102"/>
<polygon fill="#eeeeee" stroke="transparent" points="134,-80 134,-102 569,-102 569,-80 134,-80"/>
<polygon fill="none" stroke="black" points="134,-80 134,-102 569,-102 569,-80 134,-80"/>
<text text-anchor="start" x="325.5" y="-93.6" font-family="Verdana" font-weight="bold" font-size="8.00">«interface»</text>
<text text-anchor="start" x="315.5" y="-85.6" font-family="Verdana" font-weight="bold" font-size="8.00">LoaderInterface</text>
<polygon fill="none" stroke="black" points="134,-74 134,-80 569,-80 569,-74 134,-74"/>
<polygon fill="none" stroke="black" points="134,-16 134,-74 569,-74 569,-16 134,-16"/>
<text text-anchor="start" x="139" y="-62.6" font-family="Verdana" font-size="8.00">+ «abstract» load(resource : mixed, type : string = «unknown») : ?mixed</text>
<text text-anchor="start" x="139" y="-49.6" font-family="Verdana" font-size="8.00">+ «abstract» supports(resource : mixed, type : string = «unknown») : bool</text>
<text text-anchor="start" x="139" y="-36.6" font-family="Verdana" font-size="8.00">+ «abstract» getResolver() : Symfony\Component\Config\Loader\LoaderResolverInterface</text>
<text text-anchor="start" x="139" y="-23.6" font-family="Verdana" font-size="8.00">+ «abstract» setResolver(resolver : Symfony\Component\Config\Loader\LoaderResolverInterface) : void</text>
</g>
<!-- Symfony\\Component\\Config\\Loader\\Loader&#45;&gt;Symfony\\Component\\Config\\Loader\\LoaderInterface -->
<g id="edge1" class="edge">
<title>Symfony\\Component\\Config\\Loader\\Loader&#45;&gt;Symfony\\Component\\Config\\Loader\\LoaderInterface</title>
<path fill="none" stroke="black" stroke-dasharray="5,2" d="M351,-137.95C351,-129.53 351,-120.74 351,-112.23"/>
<polygon fill="none" stroke="black" points="354.5,-112.02 351,-102.02 347.5,-112.02 354.5,-112.02"/>
</g>
<!-- Bartlett\\UmlWriter\\Service\\ConfigurationHandler -->
<g id="node5" class="node">
<title>Bartlett\\UmlWriter\\Service\\ConfigurationHandler</title>
<polygon fill="#fefece" stroke="transparent" points="699.5,-492 502.5,-492 502.5,-406 699.5,-406 699.5,-492"/>
<polygon fill="#eeeeee" stroke="transparent" points="503,-470 503,-492 700,-492 700,-470 503,-470"/>
<polygon fill="none" stroke="black" points="503,-470 503,-492 700,-492 700,-470 503,-470"/>
<text text-anchor="start" x="552" y="-475.6" font-family="Verdana" font-weight="bold" font-size="8.00">ConfigurationHandler</text>
<polygon fill="none" stroke="black" points="503,-464 503,-470 700,-470 700,-464 503,-464"/>
<polygon fill="none" stroke="black" points="503,-406 503,-464 700,-464 700,-406 503,-406"/>
<text text-anchor="start" x="508" y="-452.6" font-family="Verdana" font-size="8.00">+ __construct(filename : string = «unknown»)</text>
<text text-anchor="start" x="508" y="-439.6" font-family="Verdana" font-size="8.00">+ «static» getDefaults() : array</text>
<text text-anchor="start" x="508" y="-426.6" font-family="Verdana" font-size="8.00">+ toArray() : array</text>
<text text-anchor="start" x="508" y="-413.6" font-family="Verdana" font-size="8.00">+ toFlat() : array</text>
</g>
</g>
</svg>
