<?xml version="1.0" encoding="UTF-8" standalone="no"?>
<!DOCTYPE svg PUBLIC "-//W3C//DTD SVG 1.1//EN"
 "http://www.w3.org/Graphics/SVG/1.1/DTD/svg11.dtd">
<!-- Generated by graphviz version 2.43.0 (0)
 -->
<!-- Title: %3 Pages: 1 -->
<svg width="987pt" height="1071pt"
 viewBox="0.00 0.00 987.08 1071.02" xmlns="http://www.w3.org/2000/svg" xmlns:xlink="http://www.w3.org/1999/xlink">
<g id="graph0" class="graph" transform="scale(1 1) rotate(0) translate(4 1067.02)">
<title>%3</title>
<polygon fill="white" stroke="transparent" points="-4,4 -4,-1067.02 983.08,-1067.02 983.08,4 -4,4"/>
<!-- bartlett/umlwriter -->
<g id="node1" class="node">
<title>bartlett/umlwriter</title>
<ellipse fill="lightgrey" stroke="black" stroke-width="2" cx="95.54" cy="-488.02" rx="95.58" ry="18"/>
<text text-anchor="middle" x="95.54" y="-484.32" font-family="Times,serif" font-size="14.00">bartlett/umlwriter</text>
</g>
<!-- php -->
<g id="node2" class="node">
<title>php</title>
<path fill="#eeeeee" stroke="black" d="M849.08,-571.02C849.08,-571.02 819.08,-571.02 819.08,-571.02 813.08,-571.02 807.08,-565.02 807.08,-559.02 807.08,-559.02 807.08,-547.02 807.08,-547.02 807.08,-541.02 813.08,-535.02 819.08,-535.02 819.08,-535.02 849.08,-535.02 849.08,-535.02 855.08,-535.02 861.08,-541.02 861.08,-547.02 861.08,-547.02 861.08,-559.02 861.08,-559.02 861.08,-565.02 855.08,-571.02 849.08,-571.02"/>
<text text-anchor="middle" x="834.08" y="-549.32" font-family="Times,serif" font-size="14.00" fill="#314b5f">php</text>
</g>
<!-- bartlett/umlwriter&#45;&gt;php -->
<g id="edge1" class="edge">
<title>bartlett/umlwriter&#45;&gt;php</title>
<path fill="none" stroke="#1a2833" d="M120.73,-505.48C149.95,-525.4 201.37,-556.78 251.08,-569.02 452.38,-618.57 704.69,-578.45 797.08,-560.54"/>
<polygon fill="#1a2833" stroke="#1a2833" points="797.9,-563.95 807.03,-558.58 796.54,-557.08 797.9,-563.95"/>
<text text-anchor="middle" x="386.58" y="-595.02" font-family="Times,serif" font-size="10.00" fill="#767676">^8.2</text>
</g>
<!-- bartlett/graph&#45;uml -->
<g id="node3" class="node">
<title>bartlett/graph&#45;uml</title>
<path fill="#eeeeee" stroke="black" d="M471.58,-928.02C471.58,-928.02 301.58,-928.02 301.58,-928.02 295.58,-928.02 289.58,-922.02 289.58,-916.02 289.58,-916.02 289.58,-904.02 289.58,-904.02 289.58,-898.02 295.58,-892.02 301.58,-892.02 301.58,-892.02 471.58,-892.02 471.58,-892.02 477.58,-892.02 483.58,-898.02 483.58,-904.02 483.58,-904.02 483.58,-916.02 483.58,-916.02 483.58,-922.02 477.58,-928.02 471.58,-928.02"/>
<text text-anchor="middle" x="386.58" y="-906.32" font-family="Times,serif" font-size="14.00" fill="#314b5f">bartlett/graph&#45;uml: 1.7.1</text>
</g>
<!-- bartlett/umlwriter&#45;&gt;bartlett/graph&#45;uml -->
<g id="edge7" class="edge">
<title>bartlett/umlwriter&#45;&gt;bartlett/graph&#45;uml</title>
<path fill="none" stroke="#1a2833" d="M105.29,-506.16C127.16,-550.77 187.03,-668.7 251.08,-758.02 285.2,-805.59 331.69,-855.44 360.12,-884.57"/>
<polygon fill="#1a2833" stroke="#1a2833" points="357.78,-887.19 367.28,-891.87 362.77,-882.28 357.78,-887.19"/>
<text text-anchor="middle" x="221.08" y="-733.02" font-family="Times,serif" font-size="10.00" fill="#767676">^1.6</text>
</g>
<!-- composer&#45;runtime&#45;api -->
<g id="node8" class="node">
<title>composer&#45;runtime&#45;api</title>
<path fill="#eeeeee" stroke="black" d="M461.08,-184.02C461.08,-184.02 312.08,-184.02 312.08,-184.02 306.08,-184.02 300.08,-178.02 300.08,-172.02 300.08,-172.02 300.08,-160.02 300.08,-160.02 300.08,-154.02 306.08,-148.02 312.08,-148.02 312.08,-148.02 461.08,-148.02 461.08,-148.02 467.08,-148.02 473.08,-154.02 473.08,-160.02 473.08,-160.02 473.08,-172.02 473.08,-172.02 473.08,-178.02 467.08,-184.02 461.08,-184.02"/>
<text text-anchor="middle" x="386.58" y="-162.32" font-family="Times,serif" font-size="14.00" fill="#314b5f">composer&#45;runtime&#45;api</text>
</g>
<!-- bartlett/umlwriter&#45;&gt;composer&#45;runtime&#45;api -->
<g id="edge8" class="edge">
<title>bartlett/umlwriter&#45;&gt;composer&#45;runtime&#45;api</title>
<path fill="none" stroke="#1a2833" d="M99.52,-469.74C109.42,-415.65 146.75,-256.23 251.08,-193.02 262.88,-185.87 276.23,-180.57 289.82,-176.65"/>
<polygon fill="#1a2833" stroke="#1a2833" points="290.97,-179.97 299.75,-174.04 289.18,-173.2 290.97,-179.97"/>
<text text-anchor="middle" x="221.08" y="-229.02" font-family="Times,serif" font-size="10.00" fill="#767676">^2.0</text>
</g>
<!-- psr/container -->
<g id="node9" class="node">
<title>psr/container</title>
<path fill="#eeeeee" stroke="black" d="M453.08,-560.02C453.08,-560.02 320.08,-560.02 320.08,-560.02 314.08,-560.02 308.08,-554.02 308.08,-548.02 308.08,-548.02 308.08,-536.02 308.08,-536.02 308.08,-530.02 314.08,-524.02 320.08,-524.02 320.08,-524.02 453.08,-524.02 453.08,-524.02 459.08,-524.02 465.08,-530.02 465.08,-536.02 465.08,-536.02 465.08,-548.02 465.08,-548.02 465.08,-554.02 459.08,-560.02 453.08,-560.02"/>
<text text-anchor="middle" x="386.58" y="-538.32" font-family="Times,serif" font-size="14.00" fill="#314b5f">psr/container: 2.0.2</text>
</g>
<!-- bartlett/umlwriter&#45;&gt;psr/container -->
<g id="edge10" class="edge">
<title>bartlett/umlwriter&#45;&gt;psr/container</title>
<path fill="none" stroke="#1a2833" d="M163.94,-500.61C203.87,-508.07 254.91,-517.6 297.94,-525.64"/>
<polygon fill="#1a2833" stroke="#1a2833" points="297.37,-529.1 307.84,-527.49 298.65,-522.21 297.37,-529.1"/>
<text text-anchor="middle" x="221.08" y="-516.02" font-family="Times,serif" font-size="10.00" fill="#767676">^2.0</text>
</g>
<!-- roave/better&#45;reflection -->
<g id="node10" class="node">
<title>roave/better&#45;reflection</title>
<path fill="#eeeeee" stroke="black" d="M490.08,-749.02C490.08,-749.02 283.08,-749.02 283.08,-749.02 277.08,-749.02 271.08,-743.02 271.08,-737.02 271.08,-737.02 271.08,-725.02 271.08,-725.02 271.08,-719.02 277.08,-713.02 283.08,-713.02 283.08,-713.02 490.08,-713.02 490.08,-713.02 496.08,-713.02 502.08,-719.02 502.08,-725.02 502.08,-725.02 502.08,-737.02 502.08,-737.02 502.08,-743.02 496.08,-749.02 490.08,-749.02"/>
<text text-anchor="middle" x="386.58" y="-727.32" font-family="Times,serif" font-size="14.00" fill="#314b5f">roave/better&#45;reflection: 6.59.0</text>
</g>
<!-- bartlett/umlwriter&#45;&gt;roave/better&#45;reflection -->
<g id="edge15" class="edge">
<title>bartlett/umlwriter&#45;&gt;roave/better&#45;reflection</title>
<path fill="none" stroke="#1a2833" d="M106.52,-505.93C127.96,-542.67 182.08,-626.73 251.08,-670.02 275.15,-685.11 303.57,-698.57 328.08,-708.97"/>
<polygon fill="#1a2833" stroke="#1a2833" points="327.04,-712.33 337.61,-712.95 329.73,-705.87 327.04,-712.33"/>
<text text-anchor="middle" x="221.08" y="-658.02" font-family="Times,serif" font-size="10.00" fill="#767676">^6.0</text>
</g>
<!-- symfony/config -->
<g id="node14" class="node">
<title>symfony/config</title>
<path fill="#eeeeee" stroke="black" d="M463.08,-292.02C463.08,-292.02 310.08,-292.02 310.08,-292.02 304.08,-292.02 298.08,-286.02 298.08,-280.02 298.08,-280.02 298.08,-268.02 298.08,-268.02 298.08,-262.02 304.08,-256.02 310.08,-256.02 310.08,-256.02 463.08,-256.02 463.08,-256.02 469.08,-256.02 475.08,-262.02 475.08,-268.02 475.08,-268.02 475.08,-280.02 475.08,-280.02 475.08,-286.02 469.08,-292.02 463.08,-292.02"/>
<text text-anchor="middle" x="386.58" y="-270.32" font-family="Times,serif" font-size="14.00" fill="#314b5f">symfony/config: v7.3.2</text>
</g>
<!-- bartlett/umlwriter&#45;&gt;symfony/config -->
<g id="edge20" class="edge">
<title>bartlett/umlwriter&#45;&gt;symfony/config</title>
<path fill="none" stroke="#1a2833" d="M109.78,-470.18C134.41,-438.06 190.31,-370.05 251.08,-329.02 271.12,-315.49 295,-304.38 317.04,-295.78"/>
<polygon fill="#1a2833" stroke="#1a2833" points="318.57,-298.94 326.68,-292.13 316.09,-292.4 318.57,-298.94"/>
<text text-anchor="middle" x="221.08" y="-361.02" font-family="Times,serif" font-size="10.00" fill="#767676">^7.0</text>
</g>
<!-- symfony/console -->
<g id="node18" class="node">
<title>symfony/console</title>
<path fill="#eeeeee" stroke="black" d="M468.58,-238.02C468.58,-238.02 304.58,-238.02 304.58,-238.02 298.58,-238.02 292.58,-232.02 292.58,-226.02 292.58,-226.02 292.58,-214.02 292.58,-214.02 292.58,-208.02 298.58,-202.02 304.58,-202.02 304.58,-202.02 468.58,-202.02 468.58,-202.02 474.58,-202.02 480.58,-208.02 480.58,-214.02 480.58,-214.02 480.58,-226.02 480.58,-226.02 480.58,-232.02 474.58,-238.02 468.58,-238.02"/>
<text text-anchor="middle" x="386.58" y="-216.32" font-family="Times,serif" font-size="14.00" fill="#314b5f">symfony/console: v7.3.2</text>
</g>
<!-- bartlett/umlwriter&#45;&gt;symfony/console -->
<g id="edge26" class="edge">
<title>bartlett/umlwriter&#45;&gt;symfony/console</title>
<path fill="none" stroke="#1a2833" d="M102.48,-469.98C118.46,-424.46 166.95,-304.49 251.08,-247.02 260.59,-240.52 271.3,-235.52 282.42,-231.67"/>
<polygon fill="#1a2833" stroke="#1a2833" points="283.79,-234.91 292.29,-228.58 281.7,-228.23 283.79,-234.91"/>
<text text-anchor="middle" x="221.08" y="-285.02" font-family="Times,serif" font-size="10.00" fill="#767676">^7.0</text>
</g>
<!-- symfony/finder -->
<g id="node22" class="node">
<title>symfony/finder</title>
<path fill="#eeeeee" stroke="black" d="M462.58,-506.02C462.58,-506.02 310.58,-506.02 310.58,-506.02 304.58,-506.02 298.58,-500.02 298.58,-494.02 298.58,-494.02 298.58,-482.02 298.58,-482.02 298.58,-476.02 304.58,-470.02 310.58,-470.02 310.58,-470.02 462.58,-470.02 462.58,-470.02 468.58,-470.02 474.58,-476.02 474.58,-482.02 474.58,-482.02 474.58,-494.02 474.58,-494.02 474.58,-500.02 468.58,-506.02 462.58,-506.02"/>
<text text-anchor="middle" x="386.58" y="-484.32" font-family="Times,serif" font-size="14.00" fill="#314b5f">symfony/finder: v7.3.2</text>
</g>
<!-- bartlett/umlwriter&#45;&gt;symfony/finder -->
<g id="edge28" class="edge">
<title>bartlett/umlwriter&#45;&gt;symfony/finder</title>
<path fill="none" stroke="#1a2833" d="M191.18,-488.02C222.38,-488.02 257.12,-488.02 288.49,-488.02"/>
<polygon fill="#1a2833" stroke="#1a2833" points="288.55,-491.52 298.55,-488.02 288.55,-484.52 288.55,-491.52"/>
<text text-anchor="middle" x="221.08" y="-491.02" font-family="Times,serif" font-size="10.00" fill="#767676">^7.0</text>
</g>
<!-- symfony/options&#45;resolver -->
<g id="node23" class="node">
<title>symfony/options&#45;resolver</title>
<path fill="#eeeeee" stroke="black" d="M499.58,-452.02C499.58,-452.02 273.58,-452.02 273.58,-452.02 267.58,-452.02 261.58,-446.02 261.58,-440.02 261.58,-440.02 261.58,-428.02 261.58,-428.02 261.58,-422.02 267.58,-416.02 273.58,-416.02 273.58,-416.02 499.58,-416.02 499.58,-416.02 505.58,-416.02 511.58,-422.02 511.58,-428.02 511.58,-428.02 511.58,-440.02 511.58,-440.02 511.58,-446.02 505.58,-452.02 499.58,-452.02"/>
<text text-anchor="middle" x="386.58" y="-430.32" font-family="Times,serif" font-size="14.00" fill="#314b5f">symfony/options&#45;resolver: v7.3.2</text>
</g>
<!-- bartlett/umlwriter&#45;&gt;symfony/options&#45;resolver -->
<g id="edge31" class="edge">
<title>bartlett/umlwriter&#45;&gt;symfony/options&#45;resolver</title>
<path fill="none" stroke="#1a2833" d="M163.94,-475.42C198.09,-469.04 240.36,-461.15 278.81,-453.96"/>
<polygon fill="#1a2833" stroke="#1a2833" points="279.82,-457.34 289.01,-452.06 278.54,-450.45 279.82,-457.34"/>
<text text-anchor="middle" x="221.08" y="-468.02" font-family="Times,serif" font-size="10.00" fill="#767676">^7.0</text>
</g>
<!-- symfony/yaml -->
<g id="node24" class="node">
<title>symfony/yaml</title>
<path fill="#eeeeee" stroke="black" d="M459.08,-374.02C459.08,-374.02 314.08,-374.02 314.08,-374.02 308.08,-374.02 302.08,-368.02 302.08,-362.02 302.08,-362.02 302.08,-350.02 302.08,-350.02 302.08,-344.02 308.08,-338.02 314.08,-338.02 314.08,-338.02 459.08,-338.02 459.08,-338.02 465.08,-338.02 471.08,-344.02 471.08,-350.02 471.08,-350.02 471.08,-362.02 471.08,-362.02 471.08,-368.02 465.08,-374.02 459.08,-374.02"/>
<text text-anchor="middle" x="386.58" y="-352.32" font-family="Times,serif" font-size="14.00" fill="#314b5f">symfony/yaml: v7.3.2</text>
</g>
<!-- bartlett/umlwriter&#45;&gt;symfony/yaml -->
<g id="edge35" class="edge">
<title>bartlett/umlwriter&#45;&gt;symfony/yaml</title>
<path fill="none" stroke="#1a2833" d="M126.5,-470.93C157.25,-453.73 206.74,-426.96 251.08,-407.02 274.5,-396.49 300.8,-386.19 323.89,-377.63"/>
<polygon fill="#1a2833" stroke="#1a2833" points="325.4,-380.81 333.58,-374.08 322.98,-374.24 325.4,-380.81"/>
<text text-anchor="middle" x="221.08" y="-428.02" font-family="Times,serif" font-size="10.00" fill="#767676">^7.0</text>
</g>
<!-- bamarni/composer&#45;bin&#45;plugin -->
<g id="node25" class="node">
<title>bamarni/composer&#45;bin&#45;plugin</title>
<path fill="#eeeeee" stroke="black" d="M510.08,-661.02C510.08,-661.02 263.08,-661.02 263.08,-661.02 257.08,-661.02 251.08,-655.02 251.08,-649.02 251.08,-649.02 251.08,-637.02 251.08,-637.02 251.08,-631.02 257.08,-625.02 263.08,-625.02 263.08,-625.02 510.08,-625.02 510.08,-625.02 516.08,-625.02 522.08,-631.02 522.08,-637.02 522.08,-637.02 522.08,-649.02 522.08,-649.02 522.08,-655.02 516.08,-661.02 510.08,-661.02"/>
<text text-anchor="middle" x="386.58" y="-639.32" font-family="Times,serif" font-size="14.00" fill="#314b5f">bamarni/composer&#45;bin&#45;plugin: 1.8.2</text>
</g>
<!-- bartlett/umlwriter&#45;&gt;bamarni/composer&#45;bin&#45;plugin -->
<g id="edge38" class="edge">
<title>bartlett/umlwriter&#45;&gt;bamarni/composer&#45;bin&#45;plugin</title>
<path fill="none" stroke="#1a2833" stroke-dasharray="5,2" d="M107.52,-505.89C125.26,-533.12 162.94,-584.49 209.08,-610.02 219.1,-615.56 229.88,-620.19 241,-624.06"/>
<polygon fill="#1a2833" stroke="#1a2833" points="240.25,-627.5 250.84,-627.27 242.42,-620.84 240.25,-627.5"/>
<text text-anchor="middle" x="221.08" y="-623.02" font-family="Times,serif" font-size="10.00" fill="#767676">^1.8</text>
</g>
<!-- bartlett/graph&#45;uml&#45;&gt;php -->
<g id="edge5" class="edge">
<title>bartlett/graph&#45;uml&#45;&gt;php</title>
<path fill="none" stroke="#1a2833" d="M470.93,-891.96C545.1,-874.12 645.69,-844.91 671.08,-813.02 719.23,-752.54 647.66,-705.29 689.08,-640.02 713.94,-600.85 763.38,-576.79 797.33,-564.18"/>
<polygon fill="#1a2833" stroke="#1a2833" points="798.65,-567.42 806.9,-560.77 796.3,-560.83 798.65,-567.42"/>
<text text-anchor="middle" x="605.58" y="-875.02" font-family="Times,serif" font-size="10.00" fill="#767676">^8.2</text>
</g>
<!-- cweagans/composer&#45;patches -->
<g id="node4" class="node">
<title>cweagans/composer&#45;patches</title>
<path fill="#eeeeee" stroke="black" d="M954.58,-901.02C954.58,-901.02 713.58,-901.02 713.58,-901.02 707.58,-901.02 701.58,-895.02 701.58,-889.02 701.58,-889.02 701.58,-877.02 701.58,-877.02 701.58,-871.02 707.58,-865.02 713.58,-865.02 713.58,-865.02 954.58,-865.02 954.58,-865.02 960.58,-865.02 966.58,-871.02 966.58,-877.02 966.58,-877.02 966.58,-889.02 966.58,-889.02 966.58,-895.02 960.58,-901.02 954.58,-901.02"/>
<text text-anchor="middle" x="834.08" y="-879.32" font-family="Times,serif" font-size="14.00" fill="#314b5f">cweagans/composer&#45;patches: 1.7.3</text>
</g>
<!-- bartlett/graph&#45;uml&#45;&gt;cweagans/composer&#45;patches -->
<g id="edge2" class="edge">
<title>bartlett/graph&#45;uml&#45;&gt;cweagans/composer&#45;patches</title>
<path fill="none" stroke="#1a2833" d="M483.7,-904.19C544.16,-900.53 623.26,-895.73 690.9,-891.63"/>
<polygon fill="#1a2833" stroke="#1a2833" points="691.45,-895.11 701.22,-891.01 691.03,-888.12 691.45,-895.11"/>
<text text-anchor="middle" x="605.58" y="-903.02" font-family="Times,serif" font-size="10.00" fill="#767676">^1.7</text>
</g>
<!-- graphp/graph -->
<g id="node5" class="node">
<title>graphp/graph</title>
<path fill="#eeeeee" stroke="black" d="M909.08,-1063.02C909.08,-1063.02 759.08,-1063.02 759.08,-1063.02 753.08,-1063.02 747.08,-1057.02 747.08,-1051.02 747.08,-1051.02 747.08,-1039.02 747.08,-1039.02 747.08,-1033.02 753.08,-1027.02 759.08,-1027.02 759.08,-1027.02 909.08,-1027.02 909.08,-1027.02 915.08,-1027.02 921.08,-1033.02 921.08,-1039.02 921.08,-1039.02 921.08,-1051.02 921.08,-1051.02 921.08,-1057.02 915.08,-1063.02 909.08,-1063.02"/>
<text text-anchor="middle" x="834.08" y="-1041.32" font-family="Times,serif" font-size="14.00" fill="#314b5f">graphp/graph: 1.x&#45;dev</text>
</g>
<!-- bartlett/graph&#45;uml&#45;&gt;graphp/graph -->
<g id="edge3" class="edge">
<title>bartlett/graph&#45;uml&#45;&gt;graphp/graph</title>
<path fill="none" stroke="#1a2833" d="M423.9,-928.16C454.39,-942.91 499.38,-963.58 540.08,-978.02 604.71,-1000.94 622.23,-1002.8 689.08,-1018.02 704.49,-1021.52 720.89,-1024.92 736.91,-1028.05"/>
<polygon fill="#1a2833" stroke="#1a2833" points="736.33,-1031.5 746.82,-1029.96 737.66,-1024.63 736.33,-1031.5"/>
<text text-anchor="middle" x="605.58" y="-1016.02" font-family="Times,serif" font-size="10.00" fill="#767676">1.x&#45;dev#0adb04d as 1.0.0</text>
</g>
<!-- graphp/graphviz -->
<g id="node6" class="node">
<title>graphp/graphviz</title>
<path fill="#eeeeee" stroke="black" d="M919.08,-1009.02C919.08,-1009.02 749.08,-1009.02 749.08,-1009.02 743.08,-1009.02 737.08,-1003.02 737.08,-997.02 737.08,-997.02 737.08,-985.02 737.08,-985.02 737.08,-979.02 743.08,-973.02 749.08,-973.02 749.08,-973.02 919.08,-973.02 919.08,-973.02 925.08,-973.02 931.08,-979.02 931.08,-985.02 931.08,-985.02 931.08,-997.02 931.08,-997.02 931.08,-1003.02 925.08,-1009.02 919.08,-1009.02"/>
<text text-anchor="middle" x="834.08" y="-987.32" font-family="Times,serif" font-size="14.00" fill="#314b5f">graphp/graphviz: 1.x&#45;dev</text>
</g>
<!-- bartlett/graph&#45;uml&#45;&gt;graphp/graphviz -->
<g id="edge4" class="edge">
<title>bartlett/graph&#45;uml&#45;&gt;graphp/graphviz</title>
<path fill="none" stroke="#1a2833" d="M473.79,-928.03C495.41,-932.42 518.57,-937 540.08,-941.02 601.93,-952.58 671.33,-964.47 727.06,-973.75"/>
<polygon fill="#1a2833" stroke="#1a2833" points="726.51,-977.21 736.94,-975.39 727.65,-970.3 726.51,-977.21"/>
<text text-anchor="middle" x="605.58" y="-966.02" font-family="Times,serif" font-size="10.00" fill="#767676">1.x&#45;dev#686f747 as 1.0.0</text>
</g>
<!-- webmozart/assert -->
<g id="node7" class="node">
<title>webmozart/assert</title>
<path fill="#eeeeee" stroke="black" d="M921.58,-955.02C921.58,-955.02 746.58,-955.02 746.58,-955.02 740.58,-955.02 734.58,-949.02 734.58,-943.02 734.58,-943.02 734.58,-931.02 734.58,-931.02 734.58,-925.02 740.58,-919.02 746.58,-919.02 746.58,-919.02 921.58,-919.02 921.58,-919.02 927.58,-919.02 933.58,-925.02 933.58,-931.02 933.58,-931.02 933.58,-943.02 933.58,-943.02 933.58,-949.02 927.58,-955.02 921.58,-955.02"/>
<text text-anchor="middle" x="834.08" y="-933.32" font-family="Times,serif" font-size="14.00" fill="#314b5f">webmozart/assert: 1.11.0</text>
</g>
<!-- bartlett/graph&#45;uml&#45;&gt;webmozart/assert -->
<g id="edge6" class="edge">
<title>bartlett/graph&#45;uml&#45;&gt;webmozart/assert</title>
<path fill="none" stroke="#1a2833" d="M483.7,-915.84C554.43,-920.13 650.65,-925.96 724.22,-930.42"/>
<polygon fill="#1a2833" stroke="#1a2833" points="724.25,-933.93 734.44,-931.04 724.67,-926.94 724.25,-933.93"/>
<text text-anchor="middle" x="605.58" y="-929.02" font-family="Times,serif" font-size="10.00" fill="#767676">^1.11</text>
</g>
<!-- psr/container&#45;&gt;php -->
<g id="edge9" class="edge">
<title>psr/container&#45;&gt;php</title>
<path fill="none" stroke="#1a2833" d="M465.15,-545.4C489.17,-546.36 515.72,-547.33 540.08,-548.02 632.53,-550.62 741.43,-552.05 796.79,-552.66"/>
<polygon fill="#1a2833" stroke="#1a2833" points="796.78,-556.16 806.81,-552.76 796.85,-549.16 796.78,-556.16"/>
<text text-anchor="middle" x="605.58" y="-553.02" font-family="Times,serif" font-size="10.00" fill="#767676">&gt;=7.4.0</text>
</g>
<!-- roave/better&#45;reflection&#45;&gt;php -->
<g id="edge14" class="edge">
<title>roave/better&#45;reflection&#45;&gt;php</title>
<path fill="none" stroke="#1a2833" d="M427.54,-712.86C472.23,-692.56 538.61,-662.46 540.08,-662.02 596.55,-645.05 615.27,-660.03 671.08,-641.02 717.61,-625.17 766.61,-596.67 798.37,-576.4"/>
<polygon fill="#1a2833" stroke="#1a2833" points="800.36,-579.28 806.86,-570.92 796.56,-573.4 800.36,-579.28"/>
<text text-anchor="middle" x="605.58" y="-665.02" font-family="Times,serif" font-size="10.00" fill="#767676">~8.2.0 || ~8.3.2 || ~8.4.1</text>
</g>
<!-- ext&#45;json -->
<g id="node11" class="node">
<title>ext&#45;json</title>
<path fill="#eeeeee" stroke="black" d="M858.58,-793.02C858.58,-793.02 809.58,-793.02 809.58,-793.02 803.58,-793.02 797.58,-787.02 797.58,-781.02 797.58,-781.02 797.58,-769.02 797.58,-769.02 797.58,-763.02 803.58,-757.02 809.58,-757.02 809.58,-757.02 858.58,-757.02 858.58,-757.02 864.58,-757.02 870.58,-763.02 870.58,-769.02 870.58,-769.02 870.58,-781.02 870.58,-781.02 870.58,-787.02 864.58,-793.02 858.58,-793.02"/>
<text text-anchor="middle" x="834.08" y="-771.32" font-family="Times,serif" font-size="14.00" fill="#314b5f">ext&#45;json</text>
</g>
<!-- roave/better&#45;reflection&#45;&gt;ext&#45;json -->
<g id="edge11" class="edge">
<title>roave/better&#45;reflection&#45;&gt;ext&#45;json</title>
<path fill="none" stroke="#1a2833" d="M502.31,-742.35C595.06,-751.51 720.77,-763.92 787.34,-770.5"/>
<polygon fill="#1a2833" stroke="#1a2833" points="787.2,-774 797.5,-771.5 787.89,-767.04 787.2,-774"/>
<text text-anchor="middle" x="605.58" y="-761.02" font-family="Times,serif" font-size="10.00" fill="#767676">*</text>
</g>
<!-- jetbrains/phpstorm&#45;stubs -->
<g id="node12" class="node">
<title>jetbrains/phpstorm&#45;stubs</title>
<path fill="#eeeeee" stroke="black" d="M954.08,-739.02C954.08,-739.02 714.08,-739.02 714.08,-739.02 708.08,-739.02 702.08,-733.02 702.08,-727.02 702.08,-727.02 702.08,-715.02 702.08,-715.02 702.08,-709.02 708.08,-703.02 714.08,-703.02 714.08,-703.02 954.08,-703.02 954.08,-703.02 960.08,-703.02 966.08,-709.02 966.08,-715.02 966.08,-715.02 966.08,-727.02 966.08,-727.02 966.08,-733.02 960.08,-739.02 954.08,-739.02"/>
<text text-anchor="middle" x="834.08" y="-717.32" font-family="Times,serif" font-size="14.00" fill="#314b5f">jetbrains/phpstorm&#45;stubs: v2024.3</text>
</g>
<!-- roave/better&#45;reflection&#45;&gt;jetbrains/phpstorm&#45;stubs -->
<g id="edge12" class="edge">
<title>roave/better&#45;reflection&#45;&gt;jetbrains/phpstorm&#45;stubs</title>
<path fill="none" stroke="#1a2833" d="M502.31,-728.44C560.07,-727.14 630.61,-725.56 691.69,-724.19"/>
<polygon fill="#1a2833" stroke="#1a2833" points="691.88,-727.69 701.8,-723.96 691.72,-720.69 691.88,-727.69"/>
<text text-anchor="middle" x="605.58" y="-730.02" font-family="Times,serif" font-size="10.00" fill="#767676">2024.3</text>
</g>
<!-- nikic/php&#45;parser -->
<g id="node13" class="node">
<title>nikic/php&#45;parser</title>
<path fill="#eeeeee" stroke="black" d="M915.08,-847.02C915.08,-847.02 753.08,-847.02 753.08,-847.02 747.08,-847.02 741.08,-841.02 741.08,-835.02 741.08,-835.02 741.08,-823.02 741.08,-823.02 741.08,-817.02 747.08,-811.02 753.08,-811.02 753.08,-811.02 915.08,-811.02 915.08,-811.02 921.08,-811.02 927.08,-817.02 927.08,-823.02 927.08,-823.02 927.08,-835.02 927.08,-835.02 927.08,-841.02 921.08,-847.02 915.08,-847.02"/>
<text text-anchor="middle" x="834.08" y="-825.32" font-family="Times,serif" font-size="14.00" fill="#314b5f">nikic/php&#45;parser: v5.6.1</text>
</g>
<!-- roave/better&#45;reflection&#45;&gt;nikic/php&#45;parser -->
<g id="edge13" class="edge">
<title>roave/better&#45;reflection&#45;&gt;nikic/php&#45;parser</title>
<path fill="none" stroke="#1a2833" d="M448.9,-749.05C476.62,-756.91 509.87,-765.93 540.08,-773.02 605.76,-788.43 622.82,-789.36 689.08,-802.02 702.55,-804.59 716.74,-807.28 730.73,-809.92"/>
<polygon fill="#1a2833" stroke="#1a2833" points="730.41,-813.42 740.88,-811.83 731.7,-806.54 730.41,-813.42"/>
<text text-anchor="middle" x="605.58" y="-801.02" font-family="Times,serif" font-size="10.00" fill="#767676">^5.4.0</text>
</g>
<!-- symfony/config&#45;&gt;php -->
<g id="edge16" class="edge">
<title>symfony/config&#45;&gt;php</title>
<path fill="none" stroke="#1a2833" d="M462.27,-292.11C483.83,-300.38 505.88,-312.22 522.08,-329.02 538.19,-345.72 522.17,-363.27 540.08,-378.02 585.6,-415.5 618.23,-372.86 671.08,-399.02 732.48,-429.4 786.24,-491.11 813.7,-526.5"/>
<polygon fill="#1a2833" stroke="#1a2833" points="811.25,-529.06 820.1,-534.89 816.82,-524.82 811.25,-529.06"/>
<text text-anchor="middle" x="605.58" y="-402.02" font-family="Times,serif" font-size="10.00" fill="#767676">&gt;=8.2</text>
</g>
<!-- symfony/deprecation&#45;contracts -->
<g id="node15" class="node">
<title>symfony/deprecation&#45;contracts</title>
<path fill="#eeeeee" stroke="black" d="M967.08,-339.02C967.08,-339.02 701.08,-339.02 701.08,-339.02 695.08,-339.02 689.08,-333.02 689.08,-327.02 689.08,-327.02 689.08,-315.02 689.08,-315.02 689.08,-309.02 695.08,-303.02 701.08,-303.02 701.08,-303.02 967.08,-303.02 967.08,-303.02 973.08,-303.02 979.08,-309.02 979.08,-315.02 979.08,-315.02 979.08,-327.02 979.08,-327.02 979.08,-333.02 973.08,-339.02 967.08,-339.02"/>
<text text-anchor="middle" x="834.08" y="-317.32" font-family="Times,serif" font-size="14.00" fill="#314b5f">symfony/deprecation&#45;contracts: v3.6.0</text>
</g>
<!-- symfony/config&#45;&gt;symfony/deprecation&#45;contracts -->
<g id="edge17" class="edge">
<title>symfony/config&#45;&gt;symfony/deprecation&#45;contracts</title>
<path fill="none" stroke="#1a2833" d="M475.44,-267.94C496.6,-266.73 519.14,-265.63 540.08,-265.02 598.28,-263.3 614.13,-252.93 671.08,-265.02 679.65,-266.83 680.92,-269.85 689.08,-273.02 713.59,-282.52 740.87,-291.91 765.03,-299.82"/>
<polygon fill="#1a2833" stroke="#1a2833" points="764.23,-303.25 774.82,-303.01 766.39,-296.59 764.23,-303.25"/>
<text text-anchor="middle" x="605.58" y="-268.02" font-family="Times,serif" font-size="10.00" fill="#767676">^2.5|^3</text>
</g>
<!-- symfony/filesystem -->
<g id="node16" class="node">
<title>symfony/filesystem</title>
<path fill="#eeeeee" stroke="black" d="M925.58,-200.02C925.58,-200.02 742.58,-200.02 742.58,-200.02 736.58,-200.02 730.58,-194.02 730.58,-188.02 730.58,-188.02 730.58,-176.02 730.58,-176.02 730.58,-170.02 736.58,-164.02 742.58,-164.02 742.58,-164.02 925.58,-164.02 925.58,-164.02 931.58,-164.02 937.58,-170.02 937.58,-176.02 937.58,-176.02 937.58,-188.02 937.58,-188.02 937.58,-194.02 931.58,-200.02 925.58,-200.02"/>
<text text-anchor="middle" x="834.08" y="-178.32" font-family="Times,serif" font-size="14.00" fill="#314b5f">symfony/filesystem: v7.3.2</text>
</g>
<!-- symfony/config&#45;&gt;symfony/filesystem -->
<g id="edge18" class="edge">
<title>symfony/config&#45;&gt;symfony/filesystem</title>
<path fill="none" stroke="#1a2833" d="M475.17,-271.45C492.58,-267.1 509.39,-259.58 522.08,-247.02 549.53,-219.86 510.08,-186.33 540.08,-162.02 554.23,-150.55 643.8,-158.11 720.23,-167.03"/>
<polygon fill="#1a2833" stroke="#1a2833" points="720.1,-170.54 730.44,-168.24 720.92,-163.58 720.1,-170.54"/>
<text text-anchor="middle" x="605.58" y="-165.02" font-family="Times,serif" font-size="10.00" fill="#767676">^7.1</text>
</g>
<!-- symfony/polyfill&#45;ctype -->
<g id="node17" class="node">
<title>symfony/polyfill&#45;ctype</title>
<path fill="#eeeeee" stroke="black" d="M939.58,-264.02C939.58,-264.02 728.58,-264.02 728.58,-264.02 722.58,-264.02 716.58,-258.02 716.58,-252.02 716.58,-252.02 716.58,-240.02 716.58,-240.02 716.58,-234.02 722.58,-228.02 728.58,-228.02 728.58,-228.02 939.58,-228.02 939.58,-228.02 945.58,-228.02 951.58,-234.02 951.58,-240.02 951.58,-240.02 951.58,-252.02 951.58,-252.02 951.58,-258.02 945.58,-264.02 939.58,-264.02"/>
<text text-anchor="middle" x="834.08" y="-242.32" font-family="Times,serif" font-size="14.00" fill="#314b5f">symfony/polyfill&#45;ctype: v1.33.0</text>
</g>
<!-- symfony/config&#45;&gt;symfony/polyfill&#45;ctype -->
<g id="edge19" class="edge">
<title>symfony/config&#45;&gt;symfony/polyfill&#45;ctype</title>
<path fill="none" stroke="#1a2833" d="M475.33,-269.76C492.32,-265.45 508.92,-258.37 522.08,-247.02 539.97,-231.59 520.76,-210.6 540.08,-197.02 587.72,-163.54 615.36,-180.14 671.08,-197.02 680.29,-199.8 680.3,-205.1 689.08,-209.02 703.1,-215.27 718.38,-220.62 733.57,-225.14"/>
<polygon fill="#1a2833" stroke="#1a2833" points="732.95,-228.6 743.53,-227.99 734.88,-221.87 732.95,-228.6"/>
<text text-anchor="middle" x="605.58" y="-200.02" font-family="Times,serif" font-size="10.00" fill="#767676">~1.8</text>
</g>
<!-- symfony/console&#45;&gt;php -->
<g id="edge21" class="edge">
<title>symfony/console&#45;&gt;php</title>
<path fill="none" stroke="#1a2833" d="M480.61,-223.75C496.11,-228.28 510.8,-235.57 522.08,-247.02 552.86,-278.25 508.7,-313.39 540.08,-344.02 582.29,-385.2 619.6,-336.27 671.08,-365.02 740.33,-403.68 793.75,-483.95 818.3,-525.99"/>
<polygon fill="#1a2833" stroke="#1a2833" points="815.37,-527.91 823.37,-534.84 821.44,-524.43 815.37,-527.91"/>
<text text-anchor="middle" x="605.58" y="-368.02" font-family="Times,serif" font-size="10.00" fill="#767676">&gt;=8.2</text>
</g>
<!-- symfony/console&#45;&gt;symfony/deprecation&#45;contracts -->
<g id="edge22" class="edge">
<title>symfony/console&#45;&gt;symfony/deprecation&#45;contracts</title>
<path fill="none" stroke="#1a2833" d="M480.81,-219.04C550.94,-219.93 640.08,-225.01 671.08,-244.02 684.02,-251.94 677.18,-263.61 689.08,-273.02 703.22,-284.18 720.07,-292.8 737.18,-299.45"/>
<polygon fill="#1a2833" stroke="#1a2833" points="736.1,-302.78 746.69,-302.94 738.51,-296.21 736.1,-302.78"/>
<text text-anchor="middle" x="605.58" y="-247.02" font-family="Times,serif" font-size="10.00" fill="#767676">^2.5|^3</text>
</g>
<!-- symfony/polyfill&#45;mbstring -->
<g id="node19" class="node">
<title>symfony/polyfill&#45;mbstring</title>
<path fill="#eeeeee" stroke="black" d="M952.58,-38.02C952.58,-38.02 715.58,-38.02 715.58,-38.02 709.58,-38.02 703.58,-32.02 703.58,-26.02 703.58,-26.02 703.58,-14.02 703.58,-14.02 703.58,-8.02 709.58,-2.02 715.58,-2.02 715.58,-2.02 952.58,-2.02 952.58,-2.02 958.58,-2.02 964.58,-8.02 964.58,-14.02 964.58,-14.02 964.58,-26.02 964.58,-26.02 964.58,-32.02 958.58,-38.02 952.58,-38.02"/>
<text text-anchor="middle" x="834.08" y="-16.32" font-family="Times,serif" font-size="14.00" fill="#314b5f">symfony/polyfill&#45;mbstring: v1.33.0</text>
</g>
<!-- symfony/console&#45;&gt;symfony/polyfill&#45;mbstring -->
<g id="edge23" class="edge">
<title>symfony/console&#45;&gt;symfony/polyfill&#45;mbstring</title>
<path fill="none" stroke="#1a2833" d="M480.81,-216.9C496.39,-212.34 511.05,-204.87 522.08,-193.02 565.42,-146.44 494.64,-95.53 540.08,-51.02 587.25,-4.82 661.33,2.68 723.2,-1.25"/>
<polygon fill="#1a2833" stroke="#1a2833" points="723.18,-4.76 733.41,-2.01 723.7,2.22 723.18,-4.76"/>
<text text-anchor="middle" x="605.58" y="-54.02" font-family="Times,serif" font-size="10.00" fill="#767676">~1.0</text>
</g>
<!-- symfony/service&#45;contracts -->
<g id="node20" class="node">
<title>symfony/service&#45;contracts</title>
<path fill="#eeeeee" stroke="black" d="M950.58,-146.02C950.58,-146.02 717.58,-146.02 717.58,-146.02 711.58,-146.02 705.58,-140.02 705.58,-134.02 705.58,-134.02 705.58,-122.02 705.58,-122.02 705.58,-116.02 711.58,-110.02 717.58,-110.02 717.58,-110.02 950.58,-110.02 950.58,-110.02 956.58,-110.02 962.58,-116.02 962.58,-122.02 962.58,-122.02 962.58,-134.02 962.58,-134.02 962.58,-140.02 956.58,-146.02 950.58,-146.02"/>
<text text-anchor="middle" x="834.08" y="-124.32" font-family="Times,serif" font-size="14.00" fill="#314b5f">symfony/service&#45;contracts: v3.6.0</text>
</g>
<!-- symfony/console&#45;&gt;symfony/service&#45;contracts -->
<g id="edge24" class="edge">
<title>symfony/console&#45;&gt;symfony/service&#45;contracts</title>
<path fill="none" stroke="#1a2833" d="M480.6,-214.4C495.74,-210 510.3,-203.24 522.08,-193.02 540.24,-177.26 520.8,-156.36 540.08,-142.02 598.65,-98.45 683.48,-99.28 746.81,-108.45"/>
<polygon fill="#1a2833" stroke="#1a2833" points="746.37,-111.92 756.78,-109.98 747.43,-105 746.37,-111.92"/>
<text text-anchor="middle" x="605.58" y="-145.02" font-family="Times,serif" font-size="10.00" fill="#767676">^2.5|^3</text>
</g>
<!-- symfony/string -->
<g id="node21" class="node">
<title>symfony/string</title>
<path fill="#eeeeee" stroke="black" d="M910.58,-92.02C910.58,-92.02 757.58,-92.02 757.58,-92.02 751.58,-92.02 745.58,-86.02 745.58,-80.02 745.58,-80.02 745.58,-68.02 745.58,-68.02 745.58,-62.02 751.58,-56.02 757.58,-56.02 757.58,-56.02 910.58,-56.02 910.58,-56.02 916.58,-56.02 922.58,-62.02 922.58,-68.02 922.58,-68.02 922.58,-80.02 922.58,-80.02 922.58,-86.02 916.58,-92.02 910.58,-92.02"/>
<text text-anchor="middle" x="834.08" y="-70.32" font-family="Times,serif" font-size="14.00" fill="#314b5f">symfony/string: v7.3.2</text>
</g>
<!-- symfony/console&#45;&gt;symfony/string -->
<g id="edge25" class="edge">
<title>symfony/console&#45;&gt;symfony/string</title>
<path fill="none" stroke="#1a2833" d="M480.72,-216.39C496.22,-211.86 510.87,-204.53 522.08,-193.02 554.81,-159.41 504.98,-120.13 540.08,-89.02 568.2,-64.09 661.25,-62.91 735.04,-66.39"/>
<polygon fill="#1a2833" stroke="#1a2833" points="735.15,-69.9 745.31,-66.91 735.5,-62.91 735.15,-69.9"/>
<text text-anchor="middle" x="605.58" y="-92.02" font-family="Times,serif" font-size="10.00" fill="#767676">^7.2</text>
</g>
<!-- symfony/finder&#45;&gt;php -->
<g id="edge27" class="edge">
<title>symfony/finder&#45;&gt;php</title>
<path fill="none" stroke="#1a2833" d="M474.59,-503.42C495.98,-507.04 518.84,-510.79 540.08,-514.02 632.31,-528.01 741.3,-541.8 796.74,-548.61"/>
<polygon fill="#1a2833" stroke="#1a2833" points="796.42,-552.1 806.77,-549.84 797.27,-545.15 796.42,-552.1"/>
<text text-anchor="middle" x="605.58" y="-535.02" font-family="Times,serif" font-size="10.00" fill="#767676">&gt;=8.2</text>
</g>
<!-- symfony/options&#45;resolver&#45;&gt;php -->
<g id="edge29" class="edge">
<title>symfony/options&#45;resolver&#45;&gt;php</title>
<path fill="none" stroke="#1a2833" d="M499.82,-452.06C507.5,-454.66 514.99,-457.62 522.08,-461.02 531.48,-465.51 530.67,-471.57 540.08,-476.02 593.67,-501.35 613.65,-486.38 671.08,-501.02 715.18,-512.26 764.87,-528.8 797.46,-540.19"/>
<polygon fill="#1a2833" stroke="#1a2833" points="796.4,-543.53 806.99,-543.55 798.72,-536.93 796.4,-543.53"/>
<text text-anchor="middle" x="605.58" y="-504.02" font-family="Times,serif" font-size="10.00" fill="#767676">&gt;=8.2</text>
</g>
<!-- symfony/options&#45;resolver&#45;&gt;symfony/deprecation&#45;contracts -->
<g id="edge30" class="edge">
<title>symfony/options&#45;resolver&#45;&gt;symfony/deprecation&#45;contracts</title>
<path fill="none" stroke="#1a2833" d="M464.34,-452.04C522.63,-462.25 603.94,-468.91 671.08,-446.02 728.49,-426.44 781.39,-377.37 810.25,-346.86"/>
<polygon fill="#1a2833" stroke="#1a2833" points="813.16,-348.87 817.4,-339.16 808.03,-344.11 813.16,-348.87"/>
<text text-anchor="middle" x="605.58" y="-464.02" font-family="Times,serif" font-size="10.00" fill="#767676">^2.5|^3</text>
</g>
<!-- symfony/yaml&#45;&gt;php -->
<g id="edge32" class="edge">
<title>symfony/yaml&#45;&gt;php</title>
<path fill="none" stroke="#1a2833" d="M429.93,-374.08C460.15,-386.34 502.01,-402.07 540.08,-412.02 597.14,-426.92 616.73,-410.15 671.08,-433.02 724.98,-455.69 777.53,-499.88 807.53,-527.84"/>
<polygon fill="#1a2833" stroke="#1a2833" points="805.35,-530.6 815.02,-534.93 810.16,-525.51 805.35,-530.6"/>
<text text-anchor="middle" x="605.58" y="-436.02" font-family="Times,serif" font-size="10.00" fill="#767676">&gt;=8.2</text>
</g>
<!-- symfony/yaml&#45;&gt;symfony/deprecation&#45;contracts -->
<g id="edge33" class="edge">
<title>symfony/yaml&#45;&gt;symfony/deprecation&#45;contracts</title>
<path fill="none" stroke="#1a2833" d="M471.28,-341.72C493.58,-338.37 517.69,-335.16 540.08,-333.02 585.08,-328.71 634.11,-325.95 678.96,-324.18"/>
<polygon fill="#1a2833" stroke="#1a2833" points="679.2,-327.67 689.06,-323.8 678.93,-320.68 679.2,-327.67"/>
<text text-anchor="middle" x="605.58" y="-336.02" font-family="Times,serif" font-size="10.00" fill="#767676">^2.5|^3.0</text>
</g>
<!-- symfony/yaml&#45;&gt;symfony/polyfill&#45;ctype -->
<g id="edge34" class="edge">
<title>symfony/yaml&#45;&gt;symfony/polyfill&#45;ctype</title>
<path fill="none" stroke="#1a2833" d="M441.95,-338C470.92,-328.72 507.25,-317.59 540.08,-309.02 602.42,-292.74 672.99,-277.47 729.26,-266.04"/>
<polygon fill="#1a2833" stroke="#1a2833" points="730.13,-269.44 739.23,-264.03 728.74,-262.58 730.13,-269.44"/>
<text text-anchor="middle" x="605.58" y="-312.02" font-family="Times,serif" font-size="10.00" fill="#767676">^1.8</text>
</g>
<!-- bamarni/composer&#45;bin&#45;plugin&#45;&gt;php -->
<g id="edge37" class="edge">
<title>bamarni/composer&#45;bin&#45;plugin&#45;&gt;php</title>
<path fill="none" stroke="#1a2833" d="M522.29,-631.36C569.68,-625.82 623.07,-617.96 671.08,-607.02 715.48,-596.9 764.93,-579.48 797.38,-567.17"/>
<polygon fill="#1a2833" stroke="#1a2833" points="798.79,-570.37 806.88,-563.52 796.29,-563.84 798.79,-570.37"/>
<text text-anchor="middle" x="605.58" y="-631.02" font-family="Times,serif" font-size="10.00" fill="#767676">^7.2.5 || ^8.0</text>
</g>
<!-- composer&#45;plugin&#45;api -->
<g id="node26" class="node">
<title>composer&#45;plugin&#45;api</title>
<path fill="#eeeeee" stroke="black" d="M902.58,-685.02C902.58,-685.02 765.58,-685.02 765.58,-685.02 759.58,-685.02 753.58,-679.02 753.58,-673.02 753.58,-673.02 753.58,-661.02 753.58,-661.02 753.58,-655.02 759.58,-649.02 765.58,-649.02 765.58,-649.02 902.58,-649.02 902.58,-649.02 908.58,-649.02 914.58,-655.02 914.58,-661.02 914.58,-661.02 914.58,-673.02 914.58,-673.02 914.58,-679.02 908.58,-685.02 902.58,-685.02"/>
<text text-anchor="middle" x="834.08" y="-663.32" font-family="Times,serif" font-size="14.00" fill="#314b5f">composer&#45;plugin&#45;api</text>
</g>
<!-- bamarni/composer&#45;bin&#45;plugin&#45;&gt;composer&#45;plugin&#45;api -->
<g id="edge36" class="edge">
<title>bamarni/composer&#45;bin&#45;plugin&#45;&gt;composer&#45;plugin&#45;api</title>
<path fill="none" stroke="#1a2833" d="M458.48,-661.07C484.02,-666.73 513.18,-672.22 540.08,-675.02 607.89,-682.05 684.96,-679.54 743.03,-675.54"/>
<polygon fill="#1a2833" stroke="#1a2833" points="743.56,-679.01 753.28,-674.8 743.06,-672.02 743.56,-679.01"/>
<text text-anchor="middle" x="605.58" y="-682.02" font-family="Times,serif" font-size="10.00" fill="#767676">^2.0</text>
</g>
</g>
</svg>
