<?xml version="1.0" encoding="UTF-8" standalone="no"?>
<!DOCTYPE svg PUBLIC "-//W3C//DTD SVG 1.1//EN"
 "http://www.w3.org/Graphics/SVG/1.1/DTD/svg11.dtd">
<!-- Generated by graphviz version 2.43.0 (0)
 -->
<!-- Title: %3 Pages: 1 -->
<svg width="3520pt" height="1039pt"
 viewBox="0.00 0.00 3520.00 1039.00" xmlns="http://www.w3.org/2000/svg" xmlns:xlink="http://www.w3.org/1999/xlink">
<g id="graph0" class="graph" transform="scale(1 1) rotate(0) translate(4 1035)">
<title>%3</title>
<g id="clust1" class="cluster">
<title>cluster_0</title>
<polygon fill="transparent" stroke="black" points="19,-866 19,-1023 705,-1023 705,-866 19,-866"/>
<text text-anchor="middle" x="362" y="-1007.8" font-family="Times,serif" font-size="14.00">Bartlett\UmlWriter\Console</text>
</g>
<g id="clust2" class="cluster">
<title>cluster_1</title>
<polygon fill="transparent" stroke="black" points="8,-265 8,-858 716,-858 716,-265 8,-265"/>
<text text-anchor="middle" x="362" y="-842.8" font-family="Times,serif" font-size="14.00">Symfony\Component\Console</text>
</g>
<g id="clust3" class="cluster">
<title>cluster_2</title>
<polygon fill="transparent" stroke="black" points="257,-156 257,-242 468,-242 468,-156 257,-156"/>
<text text-anchor="middle" x="362.5" y="-226.8" font-family="Times,serif" font-size="14.00">Symfony\Contracts\Service</text>
</g>
<g id="clust4" class="cluster">
<title>cluster_3</title>
<polygon fill="transparent" stroke="black" points="713,-901.5 713,-987.5 1473,-987.5 1473,-901.5 713,-901.5"/>
<text text-anchor="middle" x="1093" y="-972.3" font-family="Times,serif" font-size="14.00">Bartlett\UmlWriter\Console\Command</text>
</g>
<g id="clust5" class="cluster">
<title>cluster_4</title>
<polygon fill="transparent" stroke="black" points="739,-149.5 739,-854.5 1447,-854.5 1447,-149.5 739,-149.5"/>
<text text-anchor="middle" x="1093" y="-839.3" font-family="Times,serif" font-size="14.00">Symfony\Component\Console\Command</text>
</g>
<g id="clust6" class="cluster">
<title>cluster_5</title>
<polygon fill="transparent" stroke="black" points="1481,-882 1481,-1007 2446,-1007 2446,-882 1481,-882"/>
<text text-anchor="middle" x="1963.5" y="-991.8" font-family="Times,serif" font-size="14.00">Bartlett\UmlWriter\Service</text>
</g>
<g id="clust7" class="cluster">
<title>cluster_6</title>
<polygon fill="transparent" stroke="black" points="1704,-512 1704,-611 1872,-611 1872,-512 1704,-512"/>
<text text-anchor="middle" x="1788" y="-595.8" font-family="Times,serif" font-size="14.00">Psr\Container</text>
</g>
<g id="clust8" class="cluster">
<title>cluster_7</title>
<polygon fill="transparent" stroke="black" points="2454,-895 2454,-994 2724,-994 2724,-895 2454,-895"/>
<text text-anchor="middle" x="2589" y="-978.8" font-family="Times,serif" font-size="14.00">Bartlett\UmlWriter\Config\Loader</text>
</g>
<g id="clust9" class="cluster">
<title>cluster_8</title>
<polygon fill="transparent" stroke="black" points="2246,-8 2246,-624 2932,-624 2932,-8 2246,-8"/>
<text text-anchor="middle" x="2589" y="-608.8" font-family="Times,serif" font-size="14.00">Symfony\Component\Config\Loader</text>
</g>
<g id="clust10" class="cluster">
<title>cluster_9</title>
<polygon fill="transparent" stroke="black" points="2940,-518.5 2940,-987.5 3504,-987.5 3504,-518.5 2940,-518.5"/>
<text text-anchor="middle" x="3222" y="-972.3" font-family="Times,serif" font-size="14.00">Bartlett\UmlWriter\Generator</text>
</g>
<!-- Bartlett\\UmlWriter\\Console\\Application -->
<g id="node1" class="node">
<title>Bartlett\\UmlWriter\\Console\\Application</title>
<polygon fill="#fefece" stroke="transparent" points="696.5,-992 27.5,-992 27.5,-874 696.5,-874 696.5,-992"/>
<polygon fill="#eeeeee" stroke="transparent" points="28,-970 28,-992 697,-992 697,-970 28,-970"/>
<polygon fill="none" stroke="black" points="28,-970 28,-992 697,-992 697,-970 28,-970"/>
<text text-anchor="start" x="336.5" y="-975.6" font-family="Verdana" font-weight="bold" font-size="8.00">Application</text>
<polygon fill="none" stroke="black" points="28,-951 28,-970 697,-970 697,-951 28,-951"/>
<text text-anchor="start" x="33" y="-958.6" font-family="Verdana" font-size="8.00">+ «static» NAME : string = &quot;umlWriter&quot; {readOnly}</text>
<polygon fill="none" stroke="black" points="28,-945 28,-951 697,-951 697,-945 28,-945"/>
<polygon fill="none" stroke="black" points="28,-874 28,-945 697,-945 697,-874 28,-874"/>
<text text-anchor="start" x="33" y="-933.6" font-family="Verdana" font-size="8.00">+ __construct(container : Psr\Container\ContainerInterface)</text>
<text text-anchor="start" x="33" y="-920.6" font-family="Verdana" font-size="8.00">+ getHelp() : string</text>
<text text-anchor="start" x="33" y="-907.6" font-family="Verdana" font-size="8.00">+ getLongVersion() : string</text>
<text text-anchor="start" x="33" y="-894.6" font-family="Verdana" font-size="8.00">+ doRun(input : Symfony\Component\Console\Input\InputInterface, output : Symfony\Component\Console\Output\OutputInterface) : int</text>
<text text-anchor="start" x="33" y="-881.6" font-family="Verdana" font-size="8.00">+ run(input : Symfony\Component\Console\Input\InputInterface = «unknown», output : Symfony\Component\Console\Output\OutputInterface = «unknown») : int</text>
</g>
<!-- Symfony\\Component\\Console\\Application -->
<g id="node2" class="node">
<title>Symfony\\Component\\Console\\Application</title>
<polygon fill="#fefece" stroke="transparent" points="708,-827 16,-827 16,-273 708,-273 708,-827"/>
<polygon fill="#eeeeee" stroke="transparent" points="16,-805 16,-827 708,-827 708,-805 16,-805"/>
<polygon fill="none" stroke="black" points="16,-805 16,-827 708,-827 708,-805 16,-805"/>
<text text-anchor="start" x="336" y="-810.6" font-family="Verdana" font-weight="bold" font-size="8.00">Application</text>
<polygon fill="none" stroke="black" points="16,-799 16,-805 708,-805 708,-799 16,-799"/>
<polygon fill="none" stroke="black" points="16,-273 16,-799 708,-799 708,-273 16,-273"/>
<text text-anchor="start" x="21" y="-787.6" font-family="Verdana" font-size="8.00">+ __construct(name : string = &#39;UNKNOWN&#39;, version : string = &#39;UNKNOWN&#39;)</text>
<text text-anchor="start" x="21" y="-774.6" font-family="Verdana" font-size="8.00">+ setDispatcher(dispatcher : Symfony\Contracts\EventDispatcher\EventDispatcherInterface) : void</text>
<text text-anchor="start" x="21" y="-761.6" font-family="Verdana" font-size="8.00">+ setCommandLoader(commandLoader : Symfony\Component\Console\CommandLoader\CommandLoaderInterface) : void</text>
<text text-anchor="start" x="21" y="-748.6" font-family="Verdana" font-size="8.00">+ getSignalRegistry() : Symfony\Component\Console\SignalRegistry\SignalRegistry</text>
<text text-anchor="start" x="21" y="-735.6" font-family="Verdana" font-size="8.00">+ setSignalsToDispatchEvent(signalsToDispatchEvent : int = «unknown») : void</text>
<text text-anchor="start" x="21" y="-722.6" font-family="Verdana" font-size="8.00">+ setAlarmInterval(seconds : int) : void</text>
<text text-anchor="start" x="21" y="-709.6" font-family="Verdana" font-size="8.00">+ getAlarmInterval() : ?int</text>
<text text-anchor="start" x="21" y="-696.6" font-family="Verdana" font-size="8.00">+ run(input : Symfony\Component\Console\Input\InputInterface = «unknown», output : Symfony\Component\Console\Output\OutputInterface = «unknown») : int</text>
<text text-anchor="start" x="21" y="-683.6" font-family="Verdana" font-size="8.00">+ doRun(input : Symfony\Component\Console\Input\InputInterface, output : Symfony\Component\Console\Output\OutputInterface) : int</text>
<text text-anchor="start" x="21" y="-670.6" font-family="Verdana" font-size="8.00">+ reset() : void</text>
<text text-anchor="start" x="21" y="-657.6" font-family="Verdana" font-size="8.00">+ setHelperSet(helperSet : Symfony\Component\Console\Helper\HelperSet) : void</text>
<text text-anchor="start" x="21" y="-644.6" font-family="Verdana" font-size="8.00">+ getHelperSet() : Symfony\Component\Console\Helper\HelperSet</text>
<text text-anchor="start" x="21" y="-631.6" font-family="Verdana" font-size="8.00">+ setDefinition(definition : Symfony\Component\Console\Input\InputDefinition) : void</text>
<text text-anchor="start" x="21" y="-618.6" font-family="Verdana" font-size="8.00">+ getDefinition() : Symfony\Component\Console\Input\InputDefinition</text>
<text text-anchor="start" x="21" y="-605.6" font-family="Verdana" font-size="8.00">+ complete(input : Symfony\Component\Console\Completion\CompletionInput, suggestions : Symfony\Component\Console\Completion\CompletionSuggestions) : void</text>
<text text-anchor="start" x="21" y="-592.6" font-family="Verdana" font-size="8.00">+ getHelp() : string</text>
<text text-anchor="start" x="21" y="-579.6" font-family="Verdana" font-size="8.00">+ areExceptionsCaught() : bool</text>
<text text-anchor="start" x="21" y="-566.6" font-family="Verdana" font-size="8.00">+ setCatchExceptions(boolean : bool) : void</text>
<text text-anchor="start" x="21" y="-553.6" font-family="Verdana" font-size="8.00">+ setCatchErrors(catchErrors : bool = true) : void</text>
<text text-anchor="start" x="21" y="-540.6" font-family="Verdana" font-size="8.00">+ isAutoExitEnabled() : bool</text>
<text text-anchor="start" x="21" y="-527.6" font-family="Verdana" font-size="8.00">+ setAutoExit(boolean : bool) : void</text>
<text text-anchor="start" x="21" y="-514.6" font-family="Verdana" font-size="8.00">+ getName() : string</text>
<text text-anchor="start" x="21" y="-501.6" font-family="Verdana" font-size="8.00">+ setName(name : string) : void</text>
<text text-anchor="start" x="21" y="-488.6" font-family="Verdana" font-size="8.00">+ getVersion() : string</text>
<text text-anchor="start" x="21" y="-475.6" font-family="Verdana" font-size="8.00">+ setVersion(version : string) : void</text>
<text text-anchor="start" x="21" y="-462.6" font-family="Verdana" font-size="8.00">+ getLongVersion() : string</text>
<text text-anchor="start" x="21" y="-449.6" font-family="Verdana" font-size="8.00">+ register(name : string) : Symfony\Component\Console\Command\Command</text>
<text text-anchor="start" x="21" y="-436.6" font-family="Verdana" font-size="8.00">+ addCommands(commands : array) : void</text>
<text text-anchor="start" x="21" y="-423.6" font-family="Verdana" font-size="8.00">+ add(command : Symfony\Component\Console\Command\Command) : ?Symfony\Component\Console\Command\Command</text>
<text text-anchor="start" x="21" y="-410.6" font-family="Verdana" font-size="8.00">+ get(name : string) : Symfony\Component\Console\Command\Command</text>
<text text-anchor="start" x="21" y="-397.6" font-family="Verdana" font-size="8.00">+ has(name : string) : bool</text>
<text text-anchor="start" x="21" y="-384.6" font-family="Verdana" font-size="8.00">+ getNamespaces() : array</text>
<text text-anchor="start" x="21" y="-371.6" font-family="Verdana" font-size="8.00">+ findNamespace(namespace : string) : string</text>
<text text-anchor="start" x="21" y="-358.6" font-family="Verdana" font-size="8.00">+ find(name : string) : Symfony\Component\Console\Command\Command</text>
<text text-anchor="start" x="21" y="-345.6" font-family="Verdana" font-size="8.00">+ all(namespace : string = «unknown») : array</text>
<text text-anchor="start" x="21" y="-332.6" font-family="Verdana" font-size="8.00">+ «static» getAbbreviations(names : array) : array</text>
<text text-anchor="start" x="21" y="-319.6" font-family="Verdana" font-size="8.00">+ renderThrowable(e : Throwable, output : Symfony\Component\Console\Output\OutputInterface) : void</text>
<text text-anchor="start" x="21" y="-306.6" font-family="Verdana" font-size="8.00">+ extractNamespace(name : string, limit : int = «unknown») : string</text>
<text text-anchor="start" x="21" y="-293.6" font-family="Verdana" font-size="8.00">+ setDefaultCommand(commandName : string, isSingleCommand : bool = false) : static</text>
<text text-anchor="start" x="21" y="-280.6" font-family="Verdana" font-size="8.00">+ isSingleCommand() : bool</text>
</g>
<!-- Bartlett\\UmlWriter\\Console\\Application&#45;&gt;Symfony\\Component\\Console\\Application -->
<g id="edge2" class="edge">
<title>Bartlett\\UmlWriter\\Console\\Application&#45;&gt;Symfony\\Component\\Console\\Application</title>
<path fill="none" stroke="black" d="M362,-873.72C362,-862.67 362,-850.46 362,-837.43"/>
<polygon fill="none" stroke="black" points="365.5,-837.32 362,-827.32 358.5,-837.32 365.5,-837.32"/>
</g>
<!-- Symfony\\Contracts\\Service\\ResetInterface -->
<g id="node3" class="node">
<title>Symfony\\Contracts\\Service\\ResetInterface</title>
<polygon fill="#fefece" stroke="transparent" points="408.5,-211 315.5,-211 315.5,-164 408.5,-164 408.5,-211"/>
<polygon fill="#eeeeee" stroke="transparent" points="316,-188.5 316,-210.5 409,-210.5 409,-188.5 316,-188.5"/>
<polygon fill="none" stroke="black" points="316,-188.5 316,-210.5 409,-210.5 409,-188.5 316,-188.5"/>
<text text-anchor="start" x="336.5" y="-202.1" font-family="Verdana" font-weight="bold" font-size="8.00">«interface»</text>
<text text-anchor="start" x="329.5" y="-194.1" font-family="Verdana" font-weight="bold" font-size="8.00">ResetInterface</text>
<polygon fill="none" stroke="black" points="316,-182.5 316,-188.5 409,-188.5 409,-182.5 316,-182.5"/>
<polygon fill="none" stroke="black" points="316,-163.5 316,-182.5 409,-182.5 409,-163.5 316,-163.5"/>
<text text-anchor="start" x="321" y="-171.1" font-family="Verdana" font-size="8.00">+ «abstract» reset()</text>
</g>
<!-- Symfony\\Component\\Console\\Application&#45;&gt;Symfony\\Contracts\\Service\\ResetInterface -->
<g id="edge1" class="edge">
<title>Symfony\\Component\\Console\\Application&#45;&gt;Symfony\\Contracts\\Service\\ResetInterface</title>
<path fill="none" stroke="black" stroke-dasharray="5,2" d="M362,-272.57C362,-252.93 362,-235.44 362,-221.57"/>
<polygon fill="none" stroke="black" points="365.5,-221.25 362,-211.25 358.5,-221.25 365.5,-221.25"/>
</g>
<!-- Bartlett\\UmlWriter\\Console\\Command\\ClassDiagramCommand -->
<g id="node4" class="node">
<title>Bartlett\\UmlWriter\\Console\\Command\\ClassDiagramCommand</title>
<polygon fill="#fefece" stroke="transparent" points="1464.5,-956.5 721.5,-956.5 721.5,-909.5 1464.5,-909.5 1464.5,-956.5"/>
<polygon fill="#eeeeee" stroke="transparent" points="722,-934 722,-956 1465,-956 1465,-934 722,-934"/>
<polygon fill="none" stroke="black" points="722,-934 722,-956 1465,-956 1465,-934 722,-934"/>
<text text-anchor="start" x="1040" y="-939.6" font-family="Verdana" font-weight="bold" font-size="8.00">ClassDiagramCommand</text>
<polygon fill="none" stroke="black" points="722,-928 722,-934 1465,-934 1465,-928 722,-928"/>
<polygon fill="none" stroke="black" points="722,-909 722,-928 1465,-928 1465,-909 722,-909"/>
<text text-anchor="start" x="727" y="-916.6" font-family="Verdana" font-size="8.00">+ __construct(renderer : Bartlett\UmlWriter\Service\ClassDiagramRenderer, generatorFactory : Bartlett\UmlWriter\Generator\GeneratorFactoryInterface, name : string = «unknown»)</text>
</g>
<!-- Symfony\\Component\\Console\\Command\\Command -->
<g id="node5" class="node">
<title>Symfony\\Component\\Console\\Command\\Command</title>
<polygon fill="#fefece" stroke="transparent" points="1439,-823.5 747,-823.5 747,-276.5 1439,-276.5 1439,-823.5"/>
<polygon fill="#eeeeee" stroke="transparent" points="747,-801 747,-823 1439,-823 1439,-801 747,-801"/>
<polygon fill="none" stroke="black" points="747,-801 747,-823 1439,-823 1439,-801 747,-801"/>
<text text-anchor="start" x="1070" y="-806.6" font-family="Verdana" font-weight="bold" font-size="8.00">Command</text>
<polygon fill="none" stroke="black" points="747,-756 747,-801 1439,-801 1439,-756 747,-756"/>
<text text-anchor="start" x="752" y="-789.6" font-family="Verdana" font-size="8.00">+ «static» SUCCESS : int = 0 {readOnly}</text>
<text text-anchor="start" x="752" y="-776.6" font-family="Verdana" font-size="8.00">+ «static» FAILURE : int = 1 {readOnly}</text>
<text text-anchor="start" x="752" y="-763.6" font-family="Verdana" font-size="8.00">+ «static» INVALID : int = 2 {readOnly}</text>
<polygon fill="none" stroke="black" points="747,-750 747,-756 1439,-756 1439,-750 747,-750"/>
<polygon fill="none" stroke="black" points="747,-276 747,-750 1439,-750 1439,-276 747,-276"/>
<text text-anchor="start" x="752" y="-738.6" font-family="Verdana" font-size="8.00">+ «static» getDefaultName() : ?string</text>
<text text-anchor="start" x="752" y="-725.6" font-family="Verdana" font-size="8.00">+ «static» getDefaultDescription() : ?string</text>
<text text-anchor="start" x="752" y="-712.6" font-family="Verdana" font-size="8.00">+ __construct(name : string = «unknown»)</text>
<text text-anchor="start" x="752" y="-699.6" font-family="Verdana" font-size="8.00">+ ignoreValidationErrors() : void</text>
<text text-anchor="start" x="752" y="-686.6" font-family="Verdana" font-size="8.00">+ setApplication(application : Symfony\Component\Console\Application) : void</text>
<text text-anchor="start" x="752" y="-673.6" font-family="Verdana" font-size="8.00">+ setHelperSet(helperSet : Symfony\Component\Console\Helper\HelperSet) : void</text>
<text text-anchor="start" x="752" y="-660.6" font-family="Verdana" font-size="8.00">+ getHelperSet() : ?Symfony\Component\Console\Helper\HelperSet</text>
<text text-anchor="start" x="752" y="-647.6" font-family="Verdana" font-size="8.00">+ getApplication() : ?Symfony\Component\Console\Application</text>
<text text-anchor="start" x="752" y="-634.6" font-family="Verdana" font-size="8.00">+ isEnabled() : bool</text>
<text text-anchor="start" x="752" y="-621.6" font-family="Verdana" font-size="8.00">+ run(input : Symfony\Component\Console\Input\InputInterface, output : Symfony\Component\Console\Output\OutputInterface) : int</text>
<text text-anchor="start" x="752" y="-608.6" font-family="Verdana" font-size="8.00">+ complete(input : Symfony\Component\Console\Completion\CompletionInput, suggestions : Symfony\Component\Console\Completion\CompletionSuggestions) : void</text>
<text text-anchor="start" x="752" y="-595.6" font-family="Verdana" font-size="8.00">+ setCode(code : callable) : static</text>
<text text-anchor="start" x="752" y="-582.6" font-family="Verdana" font-size="8.00">+ mergeApplicationDefinition(mergeArgs : bool = true) : void</text>
<text text-anchor="start" x="752" y="-569.6" font-family="Verdana" font-size="8.00">+ setDefinition(definition) : static</text>
<text text-anchor="start" x="752" y="-556.6" font-family="Verdana" font-size="8.00">+ getDefinition() : Symfony\Component\Console\Input\InputDefinition</text>
<text text-anchor="start" x="752" y="-543.6" font-family="Verdana" font-size="8.00">+ getNativeDefinition() : Symfony\Component\Console\Input\InputDefinition</text>
<text text-anchor="start" x="752" y="-530.6" font-family="Verdana" font-size="8.00">+ addArgument(name : string, mode : int = «unknown», description : string = &#39;&#39;, default : mixed = «unknown», suggestedValues = []) : static</text>
<text text-anchor="start" x="752" y="-517.6" font-family="Verdana" font-size="8.00">+ addOption(name : string, shortcut = «unknown», mode : int = «unknown», description : string = &#39;&#39;, default : mixed = «unknown», suggestedValues = []) : static</text>
<text text-anchor="start" x="752" y="-504.6" font-family="Verdana" font-size="8.00">+ setName(name : string) : static</text>
<text text-anchor="start" x="752" y="-491.6" font-family="Verdana" font-size="8.00">+ setProcessTitle(title : string) : static</text>
<text text-anchor="start" x="752" y="-478.6" font-family="Verdana" font-size="8.00">+ getName() : ?string</text>
<text text-anchor="start" x="752" y="-465.6" font-family="Verdana" font-size="8.00">+ setHidden(hidden : bool = true) : static</text>
<text text-anchor="start" x="752" y="-452.6" font-family="Verdana" font-size="8.00">+ isHidden() : bool</text>
<text text-anchor="start" x="752" y="-439.6" font-family="Verdana" font-size="8.00">+ setDescription(description : string) : static</text>
<text text-anchor="start" x="752" y="-426.6" font-family="Verdana" font-size="8.00">+ getDescription() : string</text>
<text text-anchor="start" x="752" y="-413.6" font-family="Verdana" font-size="8.00">+ setHelp(help : string) : static</text>
<text text-anchor="start" x="752" y="-400.6" font-family="Verdana" font-size="8.00">+ getHelp() : string</text>
<text text-anchor="start" x="752" y="-387.6" font-family="Verdana" font-size="8.00">+ getProcessedHelp() : string</text>
<text text-anchor="start" x="752" y="-374.6" font-family="Verdana" font-size="8.00">+ setAliases(aliases : iterable) : static</text>
<text text-anchor="start" x="752" y="-361.6" font-family="Verdana" font-size="8.00">+ getAliases() : array</text>
<text text-anchor="start" x="752" y="-348.6" font-family="Verdana" font-size="8.00">+ getSynopsis(short : bool = false) : string</text>
<text text-anchor="start" x="752" y="-335.6" font-family="Verdana" font-size="8.00">+ addUsage(usage : string) : static</text>
<text text-anchor="start" x="752" y="-322.6" font-family="Verdana" font-size="8.00">+ getUsages() : array</text>
<text text-anchor="start" x="752" y="-309.6" font-family="Verdana" font-size="8.00">+ getHelper(name : string) : Symfony\Component\Console\Helper\HelperInterface</text>
<text text-anchor="start" x="752" y="-296.6" font-family="Verdana" font-size="8.00">+ getSubscribedSignals() : array</text>
<text text-anchor="start" x="752" y="-283.6" font-family="Verdana" font-size="8.00">+ handleSignal(signal : int, previousExitCode = 0)</text>
</g>
<!-- Bartlett\\UmlWriter\\Console\\Command\\ClassDiagramCommand&#45;&gt;Symfony\\Component\\Console\\Command\\Command -->
<g id="edge4" class="edge">
<title>Bartlett\\UmlWriter\\Console\\Command\\ClassDiagramCommand&#45;&gt;Symfony\\Component\\Console\\Command\\Command</title>
<path fill="none" stroke="black" d="M1093,-909.31C1093,-891.6 1093,-864.84 1093,-833.76"/>
<polygon fill="none" stroke="black" points="1096.5,-833.52 1093,-823.52 1089.5,-833.52 1096.5,-833.52"/>
</g>
<!-- Symfony\\Component\\Console\\Command\\SignalableCommandInterface -->
<g id="node6" class="node">
<title>Symfony\\Component\\Console\\Command\\SignalableCommandInterface</title>
<polygon fill="#fefece" stroke="transparent" points="1223.5,-217.5 962.5,-217.5 962.5,-157.5 1223.5,-157.5 1223.5,-217.5"/>
<polygon fill="#eeeeee" stroke="transparent" points="963,-195.5 963,-217.5 1224,-217.5 1224,-195.5 963,-195.5"/>
<polygon fill="none" stroke="black" points="963,-195.5 963,-217.5 1224,-217.5 1224,-195.5 963,-195.5"/>
<text text-anchor="start" x="1067.5" y="-209.1" font-family="Verdana" font-weight="bold" font-size="8.00">«interface»</text>
<text text-anchor="start" x="1026" y="-201.1" font-family="Verdana" font-weight="bold" font-size="8.00">SignalableCommandInterface</text>
<polygon fill="none" stroke="black" points="963,-189.5 963,-195.5 1224,-195.5 1224,-189.5 963,-189.5"/>
<polygon fill="none" stroke="black" points="963,-157.5 963,-189.5 1224,-189.5 1224,-157.5 963,-157.5"/>
<text text-anchor="start" x="968" y="-178.1" font-family="Verdana" font-size="8.00">+ «abstract» getSubscribedSignals() : array</text>
<text text-anchor="start" x="968" y="-165.1" font-family="Verdana" font-size="8.00">+ «abstract» handleSignal(signal : int, previousExitCode = 0)</text>
</g>
<!-- Symfony\\Component\\Console\\Command\\Command&#45;&gt;Symfony\\Component\\Console\\Command\\SignalableCommandInterface -->
<g id="edge3" class="edge">
<title>Symfony\\Component\\Console\\Command\\Command&#45;&gt;Symfony\\Component\\Console\\Command\\SignalableCommandInterface</title>
<path fill="none" stroke="black" stroke-dasharray="5,2" d="M1093,-276.23C1093,-258.01 1093,-241.52 1093,-227.89"/>
<polygon fill="none" stroke="black" points="1096.5,-227.59 1093,-217.59 1089.5,-227.59 1096.5,-227.59"/>
</g>
<!-- Bartlett\\UmlWriter\\Service\\ClassDiagramRenderer -->
<g id="node7" class="node">
<title>Bartlett\\UmlWriter\\Service\\ClassDiagramRenderer</title>
<polygon fill="#fefece" stroke="transparent" points="2438,-963 1890,-963 1890,-903 2438,-903 2438,-963"/>
<polygon fill="#eeeeee" stroke="transparent" points="1890,-941 1890,-963 2438,-963 2438,-941 1890,-941"/>
<polygon fill="none" stroke="black" points="1890,-941 1890,-963 2438,-963 2438,-941 1890,-941"/>
<text text-anchor="start" x="2112.5" y="-946.6" font-family="Verdana" font-weight="bold" font-size="8.00">ClassDiagramRenderer</text>
<polygon fill="none" stroke="black" points="1890,-935 1890,-941 2438,-941 2438,-935 1890,-935"/>
<polygon fill="none" stroke="black" points="1890,-903 1890,-935 2438,-935 2438,-903 1890,-903"/>
<text text-anchor="start" x="1895" y="-923.6" font-family="Verdana" font-size="8.00">+ __invoke(datasource, generator : Bartlett\GraphUml\Generator\GeneratorInterface, parameters : array = []) : Graphp\Graph\Graph</text>
<text text-anchor="start" x="1895" y="-910.6" font-family="Verdana" font-size="8.00">+ getMetadata() : array</text>
</g>
<!-- Bartlett\\UmlWriter\\Service\\ContainerService -->
<g id="node8" class="node">
<title>Bartlett\\UmlWriter\\Service\\ContainerService</title>
<polygon fill="#fefece" stroke="transparent" points="1871.5,-976 1704.5,-976 1704.5,-890 1871.5,-890 1871.5,-976"/>
<polygon fill="#eeeeee" stroke="transparent" points="1705,-954 1705,-976 1872,-976 1872,-954 1705,-954"/>
<polygon fill="none" stroke="black" points="1705,-954 1705,-976 1872,-976 1872,-954 1705,-954"/>
<text text-anchor="start" x="1749.5" y="-959.6" font-family="Verdana" font-weight="bold" font-size="8.00">ContainerService</text>
<polygon fill="none" stroke="black" points="1705,-948 1705,-954 1872,-954 1872,-948 1705,-948"/>
<polygon fill="none" stroke="black" points="1705,-890 1705,-948 1872,-948 1872,-890 1705,-890"/>
<text text-anchor="start" x="1710" y="-936.6" font-family="Verdana" font-size="8.00">+ __construct()</text>
<text text-anchor="start" x="1710" y="-923.6" font-family="Verdana" font-size="8.00">+ set(id : string, service : mixed) : void</text>
<text text-anchor="start" x="1710" y="-910.6" font-family="Verdana" font-size="8.00">+ get(id : string) : ?mixed</text>
<text text-anchor="start" x="1710" y="-897.6" font-family="Verdana" font-size="8.00">+ has(id : string) : bool</text>
</g>
<!-- Psr\\Container\\ContainerInterface -->
<g id="node10" class="node">
<title>Psr\\Container\\ContainerInterface</title>
<polygon fill="#fefece" stroke="transparent" points="1863.5,-580 1712.5,-580 1712.5,-520 1863.5,-520 1863.5,-580"/>
<polygon fill="#eeeeee" stroke="transparent" points="1713,-558 1713,-580 1864,-580 1864,-558 1713,-558"/>
<polygon fill="none" stroke="black" points="1713,-558 1713,-580 1864,-580 1864,-558 1713,-558"/>
<text text-anchor="start" x="1762.5" y="-571.6" font-family="Verdana" font-weight="bold" font-size="8.00">«interface»</text>
<text text-anchor="start" x="1746" y="-563.6" font-family="Verdana" font-weight="bold" font-size="8.00">ContainerInterface</text>
<polygon fill="none" stroke="black" points="1713,-552 1713,-558 1864,-558 1864,-552 1713,-552"/>
<polygon fill="none" stroke="black" points="1713,-520 1713,-552 1864,-552 1864,-520 1713,-520"/>
<text text-anchor="start" x="1718" y="-540.6" font-family="Verdana" font-size="8.00">+ «abstract» get(id : string)</text>
<text text-anchor="start" x="1718" y="-527.6" font-family="Verdana" font-size="8.00">+ «abstract» has(id : string) : bool</text>
</g>
<!-- Bartlett\\UmlWriter\\Service\\ContainerService&#45;&gt;Psr\\Container\\ContainerInterface -->
<g id="edge5" class="edge">
<title>Bartlett\\UmlWriter\\Service\\ContainerService&#45;&gt;Psr\\Container\\ContainerInterface</title>
<path fill="none" stroke="black" stroke-dasharray="5,2" d="M1788,-889.77C1788,-815.54 1788,-662.69 1788,-590.46"/>
<polygon fill="none" stroke="black" points="1791.5,-590.41 1788,-580.41 1784.5,-590.41 1791.5,-590.41"/>
</g>
<!-- Bartlett\\UmlWriter\\Service\\ConfigurationHandler -->
<g id="node9" class="node">
<title>Bartlett\\UmlWriter\\Service\\ConfigurationHandler</title>
<polygon fill="#fefece" stroke="transparent" points="1686.5,-976 1489.5,-976 1489.5,-890 1686.5,-890 1686.5,-976"/>
<polygon fill="#eeeeee" stroke="transparent" points="1490,-954 1490,-976 1687,-976 1687,-954 1490,-954"/>
<polygon fill="none" stroke="black" points="1490,-954 1490,-976 1687,-976 1687,-954 1490,-954"/>
<text text-anchor="start" x="1539" y="-959.6" font-family="Verdana" font-weight="bold" font-size="8.00">ConfigurationHandler</text>
<polygon fill="none" stroke="black" points="1490,-948 1490,-954 1687,-954 1687,-948 1490,-948"/>
<polygon fill="none" stroke="black" points="1490,-890 1490,-948 1687,-948 1687,-890 1490,-890"/>
<text text-anchor="start" x="1495" y="-936.6" font-family="Verdana" font-size="8.00">+ __construct(filename : string = «unknown»)</text>
<text text-anchor="start" x="1495" y="-923.6" font-family="Verdana" font-size="8.00">+ «static» getDefaults() : array</text>
<text text-anchor="start" x="1495" y="-910.6" font-family="Verdana" font-size="8.00">+ toArray() : array</text>
<text text-anchor="start" x="1495" y="-897.6" font-family="Verdana" font-size="8.00">+ toFlat() : array</text>
</g>
<!-- Bartlett\\UmlWriter\\Config\\Loader\\YamlFileLoader -->
<g id="node11" class="node">
<title>Bartlett\\UmlWriter\\Config\\Loader\\YamlFileLoader</title>
<polygon fill="#fefece" stroke="transparent" points="2715.5,-963 2462.5,-963 2462.5,-903 2715.5,-903 2715.5,-963"/>
<polygon fill="#eeeeee" stroke="transparent" points="2463,-941 2463,-963 2716,-963 2716,-941 2463,-941"/>
<polygon fill="none" stroke="black" points="2463,-941 2463,-963 2716,-963 2716,-941 2463,-941"/>
<text text-anchor="start" x="2554.5" y="-946.6" font-family="Verdana" font-weight="bold" font-size="8.00">YamlFileLoader</text>
<polygon fill="none" stroke="black" points="2463,-935 2463,-941 2716,-941 2716,-935 2463,-935"/>
<polygon fill="none" stroke="black" points="2463,-903 2463,-935 2716,-935 2716,-903 2463,-903"/>
<text text-anchor="start" x="2468" y="-923.6" font-family="Verdana" font-size="8.00">+ load(resource : mixed, type : string = «unknown») : array</text>
<text text-anchor="start" x="2468" y="-910.6" font-family="Verdana" font-size="8.00">+ supports(resource, type : string = «unknown») : bool</text>
</g>
<!-- Symfony\\Component\\Config\\Loader\\FileLoader -->
<g id="node12" class="node">
<title>Symfony\\Component\\Config\\Loader\\FileLoader</title>
<polygon fill="#fefece" stroke="transparent" points="2923.5,-593 2254.5,-593 2254.5,-507 2923.5,-507 2923.5,-593"/>
<polygon fill="#eeeeee" stroke="transparent" points="2255,-571 2255,-593 2924,-593 2924,-571 2255,-571"/>
<polygon fill="none" stroke="black" points="2255,-571 2255,-593 2924,-593 2924,-571 2255,-571"/>
<text text-anchor="start" x="2565.5" y="-584.6" font-family="Verdana" font-weight="bold" font-size="8.00">«abstract»</text>
<text text-anchor="start" x="2565.5" y="-576.6" font-family="Verdana" font-weight="bold" font-size="8.00">FileLoader</text>
<polygon fill="none" stroke="black" points="2255,-565 2255,-571 2924,-571 2924,-565 2255,-565"/>
<polygon fill="none" stroke="black" points="2255,-507 2255,-565 2924,-565 2924,-507 2255,-507"/>
<text text-anchor="start" x="2260" y="-553.6" font-family="Verdana" font-size="8.00">+ __construct(locator : Symfony\Component\Config\FileLocatorInterface, env : string = «unknown»)</text>
<text text-anchor="start" x="2260" y="-540.6" font-family="Verdana" font-size="8.00">+ setCurrentDir(dir : string) : void</text>
<text text-anchor="start" x="2260" y="-527.6" font-family="Verdana" font-size="8.00">+ getLocator() : Symfony\Component\Config\FileLocatorInterface</text>
<text text-anchor="start" x="2260" y="-514.6" font-family="Verdana" font-size="8.00">+ import(resource : mixed, type : string = «unknown», ignoreErrors : bool = false, sourceResource : string = «unknown», exclude : mixed = «unknown») : ?mixed</text>
</g>
<!-- Bartlett\\UmlWriter\\Config\\Loader\\YamlFileLoader&#45;&gt;Symfony\\Component\\Config\\Loader\\FileLoader -->
<g id="edge8" class="edge">
<title>Bartlett\\UmlWriter\\Config\\Loader\\YamlFileLoader&#45;&gt;Symfony\\Component\\Config\\Loader\\FileLoader</title>
<path fill="none" stroke="black" d="M2589,-902.74C2589,-838.49 2589,-684.35 2589,-603.12"/>
<polygon fill="none" stroke="black" points="2592.5,-603.11 2589,-593.11 2585.5,-603.11 2592.5,-603.11"/>
</g>
<!-- Symfony\\Component\\Config\\Loader\\Loader -->
<g id="node13" class="node">
<title>Symfony\\Component\\Config\\Loader\\Loader</title>
<polygon fill="#fefece" stroke="transparent" points="2818,-237 2360,-237 2360,-138 2818,-138 2818,-237"/>
<polygon fill="#eeeeee" stroke="transparent" points="2360,-214.5 2360,-236.5 2818,-236.5 2818,-214.5 2360,-214.5"/>
<polygon fill="none" stroke="black" points="2360,-214.5 2360,-236.5 2818,-236.5 2818,-214.5 2360,-214.5"/>
<text text-anchor="start" x="2565" y="-228.1" font-family="Verdana" font-weight="bold" font-size="8.00">«abstract»</text>
<text text-anchor="start" x="2573.5" y="-220.1" font-family="Verdana" font-weight="bold" font-size="8.00">Loader</text>
<polygon fill="none" stroke="black" points="2360,-208.5 2360,-214.5 2818,-214.5 2818,-208.5 2360,-208.5"/>
<polygon fill="none" stroke="black" points="2360,-137.5 2360,-208.5 2818,-208.5 2818,-137.5 2360,-137.5"/>
<text text-anchor="start" x="2365" y="-197.1" font-family="Verdana" font-size="8.00">+ __construct(env : string = «unknown»)</text>
<text text-anchor="start" x="2365" y="-184.1" font-family="Verdana" font-size="8.00">+ getResolver() : Symfony\Component\Config\Loader\LoaderResolverInterface</text>
<text text-anchor="start" x="2365" y="-171.1" font-family="Verdana" font-size="8.00">+ setResolver(resolver : Symfony\Component\Config\Loader\LoaderResolverInterface) : void</text>
<text text-anchor="start" x="2365" y="-158.1" font-family="Verdana" font-size="8.00">+ import(resource : mixed, type : string = «unknown») : ?mixed</text>
<text text-anchor="start" x="2365" y="-145.1" font-family="Verdana" font-size="8.00">+ resolve(resource : mixed, type : string = «unknown») : Symfony\Component\Config\Loader\LoaderInterface</text>
</g>
<!-- Symfony\\Component\\Config\\Loader\\FileLoader&#45;&gt;Symfony\\Component\\Config\\Loader\\Loader -->
<g id="edge7" class="edge">
<title>Symfony\\Component\\Config\\Loader\\FileLoader&#45;&gt;Symfony\\Component\\Config\\Loader\\Loader</title>
<path fill="none" stroke="black" d="M2589,-506.94C2589,-442.86 2589,-320.53 2589,-247.56"/>
<polygon fill="none" stroke="black" points="2592.5,-247.17 2589,-237.17 2585.5,-247.17 2592.5,-247.17"/>
</g>
<!-- Symfony\\Component\\Config\\Loader\\LoaderInterface -->
<g id="node14" class="node">
<title>Symfony\\Component\\Config\\Loader\\LoaderInterface</title>
<polygon fill="#fefece" stroke="transparent" points="2806.5,-102 2371.5,-102 2371.5,-16 2806.5,-16 2806.5,-102"/>
<polygon fill="#eeeeee" stroke="transparent" points="2372,-80 2372,-102 2807,-102 2807,-80 2372,-80"/>
<polygon fill="none" stroke="black" points="2372,-80 2372,-102 2807,-102 2807,-80 2372,-80"/>
<text text-anchor="start" x="2563.5" y="-93.6" font-family="Verdana" font-weight="bold" font-size="8.00">«interface»</text>
<text text-anchor="start" x="2553.5" y="-85.6" font-family="Verdana" font-weight="bold" font-size="8.00">LoaderInterface</text>
<polygon fill="none" stroke="black" points="2372,-74 2372,-80 2807,-80 2807,-74 2372,-74"/>
<polygon fill="none" stroke="black" points="2372,-16 2372,-74 2807,-74 2807,-16 2372,-16"/>
<text text-anchor="start" x="2377" y="-62.6" font-family="Verdana" font-size="8.00">+ «abstract» load(resource : mixed, type : string = «unknown») : ?mixed</text>
<text text-anchor="start" x="2377" y="-49.6" font-family="Verdana" font-size="8.00">+ «abstract» supports(resource : mixed, type : string = «unknown») : bool</text>
<text text-anchor="start" x="2377" y="-36.6" font-family="Verdana" font-size="8.00">+ «abstract» getResolver() : Symfony\Component\Config\Loader\LoaderResolverInterface</text>
<text text-anchor="start" x="2377" y="-23.6" font-family="Verdana" font-size="8.00">+ «abstract» setResolver(resolver : Symfony\Component\Config\Loader\LoaderResolverInterface) : void</text>
</g>
<!-- Symfony\\Component\\Config\\Loader\\Loader&#45;&gt;Symfony\\Component\\Config\\Loader\\LoaderInterface -->
<g id="edge6" class="edge">
<title>Symfony\\Component\\Config\\Loader\\Loader&#45;&gt;Symfony\\Component\\Config\\Loader\\LoaderInterface</title>
<path fill="none" stroke="black" stroke-dasharray="5,2" d="M2589,-137.95C2589,-129.53 2589,-120.74 2589,-112.23"/>
<polygon fill="none" stroke="black" points="2592.5,-112.02 2589,-102.02 2585.5,-112.02 2592.5,-112.02"/>
</g>
<!-- Bartlett\\UmlWriter\\Generator\\GeneratorFactoryInterface -->
<g id="node15" class="node">
<title>Bartlett\\UmlWriter\\Generator\\GeneratorFactoryInterface</title>
<polygon fill="#fefece" stroke="transparent" points="3495.5,-573.5 2948.5,-573.5 2948.5,-526.5 3495.5,-526.5 3495.5,-573.5"/>
<polygon fill="#eeeeee" stroke="transparent" points="2949,-551 2949,-573 3496,-573 3496,-551 2949,-551"/>
<polygon fill="none" stroke="black" points="2949,-551 2949,-573 3496,-573 3496,-551 2949,-551"/>
<text text-anchor="start" x="3196.5" y="-564.6" font-family="Verdana" font-weight="bold" font-size="8.00">«interface»</text>
<text text-anchor="start" x="3163" y="-556.6" font-family="Verdana" font-weight="bold" font-size="8.00">GeneratorFactoryInterface</text>
<polygon fill="none" stroke="black" points="2949,-545 2949,-551 3496,-551 3496,-545 2949,-545"/>
<polygon fill="none" stroke="black" points="2949,-526 2949,-545 3496,-545 3496,-526 2949,-526"/>
<text text-anchor="start" x="2954" y="-533.6" font-family="Verdana" font-size="8.00">+ «abstract» createInstance(provider : string, format : string, executable : string) : Bartlett\GraphUml\Generator\GeneratorInterface</text>
</g>
<!-- Bartlett\\UmlWriter\\Generator\\GeneratorFactory -->
<g id="node16" class="node">
<title>Bartlett\\UmlWriter\\Generator\\GeneratorFactory</title>
<polygon fill="#fefece" stroke="transparent" points="3495,-956.5 2949,-956.5 2949,-909.5 3495,-909.5 3495,-956.5"/>
<polygon fill="#eeeeee" stroke="transparent" points="2949,-934 2949,-956 3495,-956 3495,-934 2949,-934"/>
<polygon fill="none" stroke="black" points="2949,-934 2949,-956 3495,-956 3495,-934 2949,-934"/>
<text text-anchor="start" x="3182.5" y="-939.6" font-family="Verdana" font-weight="bold" font-size="8.00">GeneratorFactory</text>
<polygon fill="none" stroke="black" points="2949,-928 2949,-934 3495,-934 3495,-928 2949,-928"/>
<polygon fill="none" stroke="black" points="2949,-909 2949,-928 3495,-928 3495,-909 2949,-909"/>
<text text-anchor="start" x="2954" y="-916.6" font-family="Verdana" font-size="8.00">+ createInstance(provider : string, format : string = &#39;svg&#39;, executable : string = &#39;&#39;) : Bartlett\GraphUml\Generator\GeneratorInterface</text>
</g>
<!-- Bartlett\\UmlWriter\\Generator\\GeneratorFactory&#45;&gt;Bartlett\\UmlWriter\\Generator\\GeneratorFactoryInterface -->
<g id="edge9" class="edge">
<title>Bartlett\\UmlWriter\\Generator\\GeneratorFactory&#45;&gt;Bartlett\\UmlWriter\\Generator\\GeneratorFactoryInterface</title>
<path fill="none" stroke="black" stroke-dasharray="5,2" d="M3222,-909.31C3222,-844.72 3222,-659.67 3222,-583.93"/>
<polygon fill="none" stroke="black" points="3225.5,-583.57 3222,-573.57 3218.5,-583.57 3225.5,-583.57"/>
</g>
</g>
</svg>
