<?xml version="1.0" encoding="UTF-8" standalone="no"?>
<!DOCTYPE svg PUBLIC "-//W3C//DTD SVG 1.1//EN"
 "http://www.w3.org/Graphics/SVG/1.1/DTD/svg11.dtd">
<!-- Generated by graphviz version 2.43.0 (0)
 -->
<!-- Title: %3 Pages: 1 -->
<svg width="3727pt" height="1052pt"
 viewBox="0.00 0.00 3727.00 1052.00" xmlns="http://www.w3.org/2000/svg" xmlns:xlink="http://www.w3.org/1999/xlink">
<g id="graph0" class="graph" transform="scale(1 1) rotate(0) translate(4 1048)">
<title>%3</title>
<g id="clust1" class="cluster">
<title>cluster_0</title>
<polygon fill="transparent" stroke="black" points="8,-905 8,-1010 768,-1010 768,-905 8,-905"/>
<text text-anchor="middle" x="388" y="-994.8" font-family="Times,serif" font-size="14.00">Bartlett\UmlWriter\Console\Command</text>
</g>
<g id="clust2" class="cluster">
<title>cluster_1</title>
<polygon fill="transparent" stroke="black" points="34,-149.5 34,-867.5 742,-867.5 742,-149.5 34,-149.5"/>
<text text-anchor="middle" x="388" y="-852.3" font-family="Times,serif" font-size="14.00">Symfony\Component\Console\Command</text>
</g>
<g id="clust3" class="cluster">
<title>cluster_2</title>
<polygon fill="transparent" stroke="black" points="776,-879 776,-1036 1462,-1036 1462,-879 776,-879"/>
<text text-anchor="middle" x="1119" y="-1020.8" font-family="Times,serif" font-size="14.00">Bartlett\UmlWriter\Console</text>
</g>
<g id="clust4" class="cluster">
<title>cluster_3</title>
<polygon fill="transparent" stroke="black" points="765,-265 765,-871 1473,-871 1473,-265 765,-265"/>
<text text-anchor="middle" x="1119" y="-855.8" font-family="Times,serif" font-size="14.00">Symfony\Component\Console</text>
</g>
<g id="clust5" class="cluster">
<title>cluster_4</title>
<polygon fill="transparent" stroke="black" points="1014,-156 1014,-242 1225,-242 1225,-156 1014,-156"/>
<text text-anchor="middle" x="1119.5" y="-226.8" font-family="Times,serif" font-size="14.00">Symfony\Contracts\Service</text>
</g>
<g id="clust6" class="cluster">
<title>cluster_5</title>
<polygon fill="transparent" stroke="black" points="1689,-908 1689,-1007 1959,-1007 1959,-908 1689,-908"/>
<text text-anchor="middle" x="1824" y="-991.8" font-family="Times,serif" font-size="14.00">Bartlett\UmlWriter\Config\Loader</text>
</g>
<g id="clust7" class="cluster">
<title>cluster_6</title>
<polygon fill="transparent" stroke="black" points="1481,-8 1481,-630.5 2167,-630.5 2167,-8 1481,-8"/>
<text text-anchor="middle" x="1824" y="-615.3" font-family="Times,serif" font-size="14.00">Symfony\Component\Config\Loader</text>
</g>
<g id="clust8" class="cluster">
<title>cluster_7</title>
<polygon fill="transparent" stroke="black" points="2175,-525 2175,-1000.5 2739,-1000.5 2739,-525 2175,-525"/>
<text text-anchor="middle" x="2457" y="-985.3" font-family="Times,serif" font-size="14.00">Bartlett\UmlWriter\Generator</text>
</g>
<g id="clust9" class="cluster">
<title>cluster_8</title>
<polygon fill="transparent" stroke="black" points="2747,-895 2747,-1020 3711,-1020 3711,-895 2747,-895"/>
<text text-anchor="middle" x="3229" y="-1004.8" font-family="Times,serif" font-size="14.00">Bartlett\UmlWriter\Service</text>
</g>
<g id="clust10" class="cluster">
<title>cluster_9</title>
<polygon fill="transparent" stroke="black" points="2754,-518.5 2754,-617.5 2922,-617.5 2922,-518.5 2754,-518.5"/>
<text text-anchor="middle" x="2838" y="-602.3" font-family="Times,serif" font-size="14.00">Psr\Container</text>
</g>
<!-- Bartlett\\UmlWriter\\Console\\Command\\ClassDiagramCommand -->
<g id="node1" class="node">
<title>Bartlett\\UmlWriter\\Console\\Command\\ClassDiagramCommand</title>
<polygon fill="#fefece" stroke="transparent" points="759.5,-979 16.5,-979 16.5,-913 759.5,-913 759.5,-979"/>
<polygon fill="#eeeeee" stroke="transparent" points="17,-957 17,-979 760,-979 760,-957 17,-957"/>
<polygon fill="none" stroke="black" points="17,-957 17,-979 760,-979 760,-957 17,-957"/>
<text text-anchor="start" x="335" y="-962.6" font-family="Verdana" font-weight="bold" font-size="8.00">ClassDiagramCommand</text>
<polygon fill="none" stroke="black" points="17,-938 17,-957 760,-957 760,-938 17,-938"/>
<text text-anchor="start" x="22" y="-945.6" font-family="Verdana" font-size="8.00">+ «static» NAME : string = &quot;diagram\:class&quot; {readOnly}</text>
<polygon fill="none" stroke="black" points="17,-932 17,-938 760,-938 760,-932 17,-932"/>
<polygon fill="none" stroke="black" points="17,-913 17,-932 760,-932 760,-913 17,-913"/>
<text text-anchor="start" x="22" y="-920.6" font-family="Verdana" font-size="8.00">+ __construct(renderer : Bartlett\UmlWriter\Service\ClassDiagramRenderer, generatorFactory : Bartlett\UmlWriter\Generator\GeneratorFactoryInterface, name : string = «unknown»)</text>
</g>
<!-- Symfony\\Component\\Console\\Command\\Command -->
<g id="node2" class="node">
<title>Symfony\\Component\\Console\\Command\\Command</title>
<polygon fill="#fefece" stroke="transparent" points="734,-836.5 42,-836.5 42,-276.5 734,-276.5 734,-836.5"/>
<polygon fill="#eeeeee" stroke="transparent" points="42,-814.5 42,-836.5 734,-836.5 734,-814.5 42,-814.5"/>
<polygon fill="none" stroke="black" points="42,-814.5 42,-836.5 734,-836.5 734,-814.5 42,-814.5"/>
<text text-anchor="start" x="365" y="-820.1" font-family="Verdana" font-weight="bold" font-size="8.00">Command</text>
<polygon fill="none" stroke="black" points="42,-769.5 42,-814.5 734,-814.5 734,-769.5 42,-769.5"/>
<text text-anchor="start" x="47" y="-803.1" font-family="Verdana" font-size="8.00">+ «static» SUCCESS : int = 0 {readOnly}</text>
<text text-anchor="start" x="47" y="-790.1" font-family="Verdana" font-size="8.00">+ «static» FAILURE : int = 1 {readOnly}</text>
<text text-anchor="start" x="47" y="-777.1" font-family="Verdana" font-size="8.00">+ «static» INVALID : int = 2 {readOnly}</text>
<polygon fill="none" stroke="black" points="42,-763.5 42,-769.5 734,-769.5 734,-763.5 42,-763.5"/>
<polygon fill="none" stroke="black" points="42,-276.5 42,-763.5 734,-763.5 734,-276.5 42,-276.5"/>
<text text-anchor="start" x="47" y="-752.1" font-family="Verdana" font-size="8.00">+ «static» getDefaultName() : ?string</text>
<text text-anchor="start" x="47" y="-739.1" font-family="Verdana" font-size="8.00">+ «static» getDefaultDescription() : ?string</text>
<text text-anchor="start" x="47" y="-726.1" font-family="Verdana" font-size="8.00">+ __construct(name : string = «unknown», code : callable = «unknown»)</text>
<text text-anchor="start" x="47" y="-713.1" font-family="Verdana" font-size="8.00">+ ignoreValidationErrors() : void</text>
<text text-anchor="start" x="47" y="-700.1" font-family="Verdana" font-size="8.00">+ setApplication(application : Symfony\Component\Console\Application) : void</text>
<text text-anchor="start" x="47" y="-687.1" font-family="Verdana" font-size="8.00">+ setHelperSet(helperSet : Symfony\Component\Console\Helper\HelperSet) : void</text>
<text text-anchor="start" x="47" y="-674.1" font-family="Verdana" font-size="8.00">+ getHelperSet() : ?Symfony\Component\Console\Helper\HelperSet</text>
<text text-anchor="start" x="47" y="-661.1" font-family="Verdana" font-size="8.00">+ getApplication() : ?Symfony\Component\Console\Application</text>
<text text-anchor="start" x="47" y="-648.1" font-family="Verdana" font-size="8.00">+ isEnabled() : bool</text>
<text text-anchor="start" x="47" y="-635.1" font-family="Verdana" font-size="8.00">+ run(input : Symfony\Component\Console\Input\InputInterface, output : Symfony\Component\Console\Output\OutputInterface) : int</text>
<text text-anchor="start" x="47" y="-622.1" font-family="Verdana" font-size="8.00">+ complete(input : Symfony\Component\Console\Completion\CompletionInput, suggestions : Symfony\Component\Console\Completion\CompletionSuggestions) : void</text>
<text text-anchor="start" x="47" y="-609.1" font-family="Verdana" font-size="8.00">+ getCode() : ?callable</text>
<text text-anchor="start" x="47" y="-596.1" font-family="Verdana" font-size="8.00">+ setCode(code : callable) : static</text>
<text text-anchor="start" x="47" y="-583.1" font-family="Verdana" font-size="8.00">+ mergeApplicationDefinition(mergeArgs : bool = true) : void</text>
<text text-anchor="start" x="47" y="-570.1" font-family="Verdana" font-size="8.00">+ setDefinition(definition) : static</text>
<text text-anchor="start" x="47" y="-557.1" font-family="Verdana" font-size="8.00">+ getDefinition() : Symfony\Component\Console\Input\InputDefinition</text>
<text text-anchor="start" x="47" y="-544.1" font-family="Verdana" font-size="8.00">+ getNativeDefinition() : Symfony\Component\Console\Input\InputDefinition</text>
<text text-anchor="start" x="47" y="-531.1" font-family="Verdana" font-size="8.00">+ addArgument(name : string, mode : int = «unknown», description : string = &#39;&#39;, default : mixed = «unknown», suggestedValues = []) : static</text>
<text text-anchor="start" x="47" y="-518.1" font-family="Verdana" font-size="8.00">+ addOption(name : string, shortcut = «unknown», mode : int = «unknown», description : string = &#39;&#39;, default : mixed = «unknown», suggestedValues = []) : static</text>
<text text-anchor="start" x="47" y="-505.1" font-family="Verdana" font-size="8.00">+ setName(name : string) : static</text>
<text text-anchor="start" x="47" y="-492.1" font-family="Verdana" font-size="8.00">+ setProcessTitle(title : string) : static</text>
<text text-anchor="start" x="47" y="-479.1" font-family="Verdana" font-size="8.00">+ getName() : ?string</text>
<text text-anchor="start" x="47" y="-466.1" font-family="Verdana" font-size="8.00">+ setHidden(hidden : bool = true) : static</text>
<text text-anchor="start" x="47" y="-453.1" font-family="Verdana" font-size="8.00">+ isHidden() : bool</text>
<text text-anchor="start" x="47" y="-440.1" font-family="Verdana" font-size="8.00">+ setDescription(description : string) : static</text>
<text text-anchor="start" x="47" y="-427.1" font-family="Verdana" font-size="8.00">+ getDescription() : string</text>
<text text-anchor="start" x="47" y="-414.1" font-family="Verdana" font-size="8.00">+ setHelp(help : string) : static</text>
<text text-anchor="start" x="47" y="-401.1" font-family="Verdana" font-size="8.00">+ getHelp() : string</text>
<text text-anchor="start" x="47" y="-388.1" font-family="Verdana" font-size="8.00">+ getProcessedHelp() : string</text>
<text text-anchor="start" x="47" y="-375.1" font-family="Verdana" font-size="8.00">+ setAliases(aliases : iterable) : static</text>
<text text-anchor="start" x="47" y="-362.1" font-family="Verdana" font-size="8.00">+ getAliases() : array</text>
<text text-anchor="start" x="47" y="-349.1" font-family="Verdana" font-size="8.00">+ getSynopsis(short : bool = false) : string</text>
<text text-anchor="start" x="47" y="-336.1" font-family="Verdana" font-size="8.00">+ addUsage(usage : string) : static</text>
<text text-anchor="start" x="47" y="-323.1" font-family="Verdana" font-size="8.00">+ getUsages() : array</text>
<text text-anchor="start" x="47" y="-310.1" font-family="Verdana" font-size="8.00">+ getHelper(name : string) : Symfony\Component\Console\Helper\HelperInterface</text>
<text text-anchor="start" x="47" y="-297.1" font-family="Verdana" font-size="8.00">+ getSubscribedSignals() : array</text>
<text text-anchor="start" x="47" y="-284.1" font-family="Verdana" font-size="8.00">+ handleSignal(signal : int, previousExitCode = 0)</text>
</g>
<!-- Bartlett\\UmlWriter\\Console\\Command\\ClassDiagramCommand&#45;&gt;Symfony\\Component\\Console\\Command\\Command -->
<g id="edge2" class="edge">
<title>Bartlett\\UmlWriter\\Console\\Command\\ClassDiagramCommand&#45;&gt;Symfony\\Component\\Console\\Command\\Command</title>
<path fill="none" stroke="black" d="M388,-912.96C388,-895.84 388,-872.94 388,-846.97"/>
<polygon fill="none" stroke="black" points="391.5,-846.88 388,-836.88 384.5,-846.88 391.5,-846.88"/>
</g>
<!-- Symfony\\Component\\Console\\Command\\SignalableCommandInterface -->
<g id="node3" class="node">
<title>Symfony\\Component\\Console\\Command\\SignalableCommandInterface</title>
<polygon fill="#fefece" stroke="transparent" points="518.5,-217.5 257.5,-217.5 257.5,-157.5 518.5,-157.5 518.5,-217.5"/>
<polygon fill="#eeeeee" stroke="transparent" points="258,-195.5 258,-217.5 519,-217.5 519,-195.5 258,-195.5"/>
<polygon fill="none" stroke="black" points="258,-195.5 258,-217.5 519,-217.5 519,-195.5 258,-195.5"/>
<text text-anchor="start" x="362.5" y="-209.1" font-family="Verdana" font-weight="bold" font-size="8.00">«interface»</text>
<text text-anchor="start" x="321" y="-201.1" font-family="Verdana" font-weight="bold" font-size="8.00">SignalableCommandInterface</text>
<polygon fill="none" stroke="black" points="258,-189.5 258,-195.5 519,-195.5 519,-189.5 258,-189.5"/>
<polygon fill="none" stroke="black" points="258,-157.5 258,-189.5 519,-189.5 519,-157.5 258,-157.5"/>
<text text-anchor="start" x="263" y="-178.1" font-family="Verdana" font-size="8.00">+ «abstract» getSubscribedSignals() : array</text>
<text text-anchor="start" x="263" y="-165.1" font-family="Verdana" font-size="8.00">+ «abstract» handleSignal(signal : int, previousExitCode = 0)</text>
</g>
<!-- Symfony\\Component\\Console\\Command\\Command&#45;&gt;Symfony\\Component\\Console\\Command\\SignalableCommandInterface -->
<g id="edge1" class="edge">
<title>Symfony\\Component\\Console\\Command\\Command&#45;&gt;Symfony\\Component\\Console\\Command\\SignalableCommandInterface</title>
<path fill="none" stroke="black" stroke-dasharray="5,2" d="M388,-276.41C388,-258.12 388,-241.59 388,-227.93"/>
<polygon fill="none" stroke="black" points="391.5,-227.61 388,-217.61 384.5,-227.61 391.5,-227.61"/>
</g>
<!-- Bartlett\\UmlWriter\\Console\\Application -->
<g id="node4" class="node">
<title>Bartlett\\UmlWriter\\Console\\Application</title>
<polygon fill="#fefece" stroke="transparent" points="1453.5,-1005 784.5,-1005 784.5,-887 1453.5,-887 1453.5,-1005"/>
<polygon fill="#eeeeee" stroke="transparent" points="785,-983 785,-1005 1454,-1005 1454,-983 785,-983"/>
<polygon fill="none" stroke="black" points="785,-983 785,-1005 1454,-1005 1454,-983 785,-983"/>
<text text-anchor="start" x="1093.5" y="-988.6" font-family="Verdana" font-weight="bold" font-size="8.00">Application</text>
<polygon fill="none" stroke="black" points="785,-964 785,-983 1454,-983 1454,-964 785,-964"/>
<text text-anchor="start" x="790" y="-971.6" font-family="Verdana" font-size="8.00">+ «static» NAME : string = &quot;umlWriter&quot; {readOnly}</text>
<polygon fill="none" stroke="black" points="785,-958 785,-964 1454,-964 1454,-958 785,-958"/>
<polygon fill="none" stroke="black" points="785,-887 785,-958 1454,-958 1454,-887 785,-887"/>
<text text-anchor="start" x="790" y="-946.6" font-family="Verdana" font-size="8.00">+ __construct(container : Psr\Container\ContainerInterface)</text>
<text text-anchor="start" x="790" y="-933.6" font-family="Verdana" font-size="8.00">+ getHelp() : string</text>
<text text-anchor="start" x="790" y="-920.6" font-family="Verdana" font-size="8.00">+ getLongVersion() : string</text>
<text text-anchor="start" x="790" y="-907.6" font-family="Verdana" font-size="8.00">+ doRun(input : Symfony\Component\Console\Input\InputInterface, output : Symfony\Component\Console\Output\OutputInterface) : int</text>
<text text-anchor="start" x="790" y="-894.6" font-family="Verdana" font-size="8.00">+ run(input : Symfony\Component\Console\Input\InputInterface = «unknown», output : Symfony\Component\Console\Output\OutputInterface = «unknown») : int</text>
</g>
<!-- Symfony\\Component\\Console\\Application -->
<g id="node5" class="node">
<title>Symfony\\Component\\Console\\Application</title>
<polygon fill="#fefece" stroke="transparent" points="1465,-840 773,-840 773,-273 1465,-273 1465,-840"/>
<polygon fill="#eeeeee" stroke="transparent" points="773,-817.5 773,-839.5 1465,-839.5 1465,-817.5 773,-817.5"/>
<polygon fill="none" stroke="black" points="773,-817.5 773,-839.5 1465,-839.5 1465,-817.5 773,-817.5"/>
<text text-anchor="start" x="1093" y="-823.1" font-family="Verdana" font-weight="bold" font-size="8.00">Application</text>
<polygon fill="none" stroke="black" points="773,-811.5 773,-817.5 1465,-817.5 1465,-811.5 773,-811.5"/>
<polygon fill="none" stroke="black" points="773,-272.5 773,-811.5 1465,-811.5 1465,-272.5 773,-272.5"/>
<text text-anchor="start" x="778" y="-800.1" font-family="Verdana" font-size="8.00">+ __construct(name : string = &#39;UNKNOWN&#39;, version : string = &#39;UNKNOWN&#39;)</text>
<text text-anchor="start" x="778" y="-787.1" font-family="Verdana" font-size="8.00">+ setDispatcher(dispatcher : Symfony\Contracts\EventDispatcher\EventDispatcherInterface) : void</text>
<text text-anchor="start" x="778" y="-774.1" font-family="Verdana" font-size="8.00">+ setCommandLoader(commandLoader : Symfony\Component\Console\CommandLoader\CommandLoaderInterface) : void</text>
<text text-anchor="start" x="778" y="-761.1" font-family="Verdana" font-size="8.00">+ getSignalRegistry() : Symfony\Component\Console\SignalRegistry\SignalRegistry</text>
<text text-anchor="start" x="778" y="-748.1" font-family="Verdana" font-size="8.00">+ setSignalsToDispatchEvent(signalsToDispatchEvent : int = «unknown») : void</text>
<text text-anchor="start" x="778" y="-735.1" font-family="Verdana" font-size="8.00">+ setAlarmInterval(seconds : int) : void</text>
<text text-anchor="start" x="778" y="-722.1" font-family="Verdana" font-size="8.00">+ getAlarmInterval() : ?int</text>
<text text-anchor="start" x="778" y="-709.1" font-family="Verdana" font-size="8.00">+ run(input : Symfony\Component\Console\Input\InputInterface = «unknown», output : Symfony\Component\Console\Output\OutputInterface = «unknown») : int</text>
<text text-anchor="start" x="778" y="-696.1" font-family="Verdana" font-size="8.00">+ doRun(input : Symfony\Component\Console\Input\InputInterface, output : Symfony\Component\Console\Output\OutputInterface) : int</text>
<text text-anchor="start" x="778" y="-683.1" font-family="Verdana" font-size="8.00">+ reset() : void</text>
<text text-anchor="start" x="778" y="-670.1" font-family="Verdana" font-size="8.00">+ setHelperSet(helperSet : Symfony\Component\Console\Helper\HelperSet) : void</text>
<text text-anchor="start" x="778" y="-657.1" font-family="Verdana" font-size="8.00">+ getHelperSet() : Symfony\Component\Console\Helper\HelperSet</text>
<text text-anchor="start" x="778" y="-644.1" font-family="Verdana" font-size="8.00">+ setDefinition(definition : Symfony\Component\Console\Input\InputDefinition) : void</text>
<text text-anchor="start" x="778" y="-631.1" font-family="Verdana" font-size="8.00">+ getDefinition() : Symfony\Component\Console\Input\InputDefinition</text>
<text text-anchor="start" x="778" y="-618.1" font-family="Verdana" font-size="8.00">+ complete(input : Symfony\Component\Console\Completion\CompletionInput, suggestions : Symfony\Component\Console\Completion\CompletionSuggestions) : void</text>
<text text-anchor="start" x="778" y="-605.1" font-family="Verdana" font-size="8.00">+ getHelp() : string</text>
<text text-anchor="start" x="778" y="-592.1" font-family="Verdana" font-size="8.00">+ areExceptionsCaught() : bool</text>
<text text-anchor="start" x="778" y="-579.1" font-family="Verdana" font-size="8.00">+ setCatchExceptions(boolean : bool) : void</text>
<text text-anchor="start" x="778" y="-566.1" font-family="Verdana" font-size="8.00">+ setCatchErrors(catchErrors : bool = true) : void</text>
<text text-anchor="start" x="778" y="-553.1" font-family="Verdana" font-size="8.00">+ isAutoExitEnabled() : bool</text>
<text text-anchor="start" x="778" y="-540.1" font-family="Verdana" font-size="8.00">+ setAutoExit(boolean : bool) : void</text>
<text text-anchor="start" x="778" y="-527.1" font-family="Verdana" font-size="8.00">+ getName() : string</text>
<text text-anchor="start" x="778" y="-514.1" font-family="Verdana" font-size="8.00">+ setName(name : string) : void</text>
<text text-anchor="start" x="778" y="-501.1" font-family="Verdana" font-size="8.00">+ getVersion() : string</text>
<text text-anchor="start" x="778" y="-488.1" font-family="Verdana" font-size="8.00">+ setVersion(version : string) : void</text>
<text text-anchor="start" x="778" y="-475.1" font-family="Verdana" font-size="8.00">+ getLongVersion() : string</text>
<text text-anchor="start" x="778" y="-462.1" font-family="Verdana" font-size="8.00">+ register(name : string) : Symfony\Component\Console\Command\Command</text>
<text text-anchor="start" x="778" y="-449.1" font-family="Verdana" font-size="8.00">+ addCommands(commands : array) : void</text>
<text text-anchor="start" x="778" y="-436.1" font-family="Verdana" font-size="8.00">+ add(command : Symfony\Component\Console\Command\Command) : ?Symfony\Component\Console\Command\Command</text>
<text text-anchor="start" x="778" y="-423.1" font-family="Verdana" font-size="8.00">+ addCommand(command) : ?Symfony\Component\Console\Command\Command</text>
<text text-anchor="start" x="778" y="-410.1" font-family="Verdana" font-size="8.00">+ get(name : string) : Symfony\Component\Console\Command\Command</text>
<text text-anchor="start" x="778" y="-397.1" font-family="Verdana" font-size="8.00">+ has(name : string) : bool</text>
<text text-anchor="start" x="778" y="-384.1" font-family="Verdana" font-size="8.00">+ getNamespaces() : array</text>
<text text-anchor="start" x="778" y="-371.1" font-family="Verdana" font-size="8.00">+ findNamespace(namespace : string) : string</text>
<text text-anchor="start" x="778" y="-358.1" font-family="Verdana" font-size="8.00">+ find(name : string) : Symfony\Component\Console\Command\Command</text>
<text text-anchor="start" x="778" y="-345.1" font-family="Verdana" font-size="8.00">+ all(namespace : string = «unknown») : array</text>
<text text-anchor="start" x="778" y="-332.1" font-family="Verdana" font-size="8.00">+ «static» getAbbreviations(names : array) : array</text>
<text text-anchor="start" x="778" y="-319.1" font-family="Verdana" font-size="8.00">+ renderThrowable(e : Throwable, output : Symfony\Component\Console\Output\OutputInterface) : void</text>
<text text-anchor="start" x="778" y="-306.1" font-family="Verdana" font-size="8.00">+ extractNamespace(name : string, limit : int = «unknown») : string</text>
<text text-anchor="start" x="778" y="-293.1" font-family="Verdana" font-size="8.00">+ setDefaultCommand(commandName : string, isSingleCommand : bool = false) : static</text>
<text text-anchor="start" x="778" y="-280.1" font-family="Verdana" font-size="8.00">+ isSingleCommand() : bool</text>
</g>
<!-- Bartlett\\UmlWriter\\Console\\Application&#45;&gt;Symfony\\Component\\Console\\Application -->
<g id="edge4" class="edge">
<title>Bartlett\\UmlWriter\\Console\\Application&#45;&gt;Symfony\\Component\\Console\\Application</title>
<path fill="none" stroke="black" d="M1119,-886.99C1119,-875.88 1119,-863.58 1119,-850.45"/>
<polygon fill="none" stroke="black" points="1122.5,-850.25 1119,-840.25 1115.5,-850.25 1122.5,-850.25"/>
</g>
<!-- Symfony\\Contracts\\Service\\ResetInterface -->
<g id="node6" class="node">
<title>Symfony\\Contracts\\Service\\ResetInterface</title>
<polygon fill="#fefece" stroke="transparent" points="1165.5,-211 1072.5,-211 1072.5,-164 1165.5,-164 1165.5,-211"/>
<polygon fill="#eeeeee" stroke="transparent" points="1073,-188.5 1073,-210.5 1166,-210.5 1166,-188.5 1073,-188.5"/>
<polygon fill="none" stroke="black" points="1073,-188.5 1073,-210.5 1166,-210.5 1166,-188.5 1073,-188.5"/>
<text text-anchor="start" x="1093.5" y="-202.1" font-family="Verdana" font-weight="bold" font-size="8.00">«interface»</text>
<text text-anchor="start" x="1086.5" y="-194.1" font-family="Verdana" font-weight="bold" font-size="8.00">ResetInterface</text>
<polygon fill="none" stroke="black" points="1073,-182.5 1073,-188.5 1166,-188.5 1166,-182.5 1073,-182.5"/>
<polygon fill="none" stroke="black" points="1073,-163.5 1073,-182.5 1166,-182.5 1166,-163.5 1073,-163.5"/>
<text text-anchor="start" x="1078" y="-171.1" font-family="Verdana" font-size="8.00">+ «abstract» reset()</text>
</g>
<!-- Symfony\\Component\\Console\\Application&#45;&gt;Symfony\\Contracts\\Service\\ResetInterface -->
<g id="edge3" class="edge">
<title>Symfony\\Component\\Console\\Application&#45;&gt;Symfony\\Contracts\\Service\\ResetInterface</title>
<path fill="none" stroke="black" stroke-dasharray="5,2" d="M1119,-272.7C1119,-252.99 1119,-235.47 1119,-221.59"/>
<polygon fill="none" stroke="black" points="1122.5,-221.26 1119,-211.26 1115.5,-221.26 1122.5,-221.26"/>
</g>
<!-- Bartlett\\UmlWriter\\Config\\Loader\\YamlFileLoader -->
<g id="node7" class="node">
<title>Bartlett\\UmlWriter\\Config\\Loader\\YamlFileLoader</title>
<polygon fill="#fefece" stroke="transparent" points="1950.5,-976 1697.5,-976 1697.5,-916 1950.5,-916 1950.5,-976"/>
<polygon fill="#eeeeee" stroke="transparent" points="1698,-954 1698,-976 1951,-976 1951,-954 1698,-954"/>
<polygon fill="none" stroke="black" points="1698,-954 1698,-976 1951,-976 1951,-954 1698,-954"/>
<text text-anchor="start" x="1789.5" y="-959.6" font-family="Verdana" font-weight="bold" font-size="8.00">YamlFileLoader</text>
<polygon fill="none" stroke="black" points="1698,-948 1698,-954 1951,-954 1951,-948 1698,-948"/>
<polygon fill="none" stroke="black" points="1698,-916 1698,-948 1951,-948 1951,-916 1698,-916"/>
<text text-anchor="start" x="1703" y="-936.6" font-family="Verdana" font-size="8.00">+ load(resource : mixed, type : string = «unknown») : array</text>
<text text-anchor="start" x="1703" y="-923.6" font-family="Verdana" font-size="8.00">+ supports(resource, type : string = «unknown») : bool</text>
</g>
<!-- Symfony\\Component\\Config\\Loader\\FileLoader -->
<g id="node8" class="node">
<title>Symfony\\Component\\Config\\Loader\\FileLoader</title>
<polygon fill="#fefece" stroke="transparent" points="2158.5,-599.5 1489.5,-599.5 1489.5,-513.5 2158.5,-513.5 2158.5,-599.5"/>
<polygon fill="#eeeeee" stroke="transparent" points="1490,-577.5 1490,-599.5 2159,-599.5 2159,-577.5 1490,-577.5"/>
<polygon fill="none" stroke="black" points="1490,-577.5 1490,-599.5 2159,-599.5 2159,-577.5 1490,-577.5"/>
<text text-anchor="start" x="1800.5" y="-591.1" font-family="Verdana" font-weight="bold" font-size="8.00">«abstract»</text>
<text text-anchor="start" x="1800.5" y="-583.1" font-family="Verdana" font-weight="bold" font-size="8.00">FileLoader</text>
<polygon fill="none" stroke="black" points="1490,-571.5 1490,-577.5 2159,-577.5 2159,-571.5 1490,-571.5"/>
<polygon fill="none" stroke="black" points="1490,-513.5 1490,-571.5 2159,-571.5 2159,-513.5 1490,-513.5"/>
<text text-anchor="start" x="1495" y="-560.1" font-family="Verdana" font-size="8.00">+ __construct(locator : Symfony\Component\Config\FileLocatorInterface, env : string = «unknown»)</text>
<text text-anchor="start" x="1495" y="-547.1" font-family="Verdana" font-size="8.00">+ setCurrentDir(dir : string) : void</text>
<text text-anchor="start" x="1495" y="-534.1" font-family="Verdana" font-size="8.00">+ getLocator() : Symfony\Component\Config\FileLocatorInterface</text>
<text text-anchor="start" x="1495" y="-521.1" font-family="Verdana" font-size="8.00">+ import(resource : mixed, type : string = «unknown», ignoreErrors : bool = false, sourceResource : string = «unknown», exclude : mixed = «unknown») : ?mixed</text>
</g>
<!-- Bartlett\\UmlWriter\\Config\\Loader\\YamlFileLoader&#45;&gt;Symfony\\Component\\Config\\Loader\\FileLoader -->
<g id="edge7" class="edge">
<title>Bartlett\\UmlWriter\\Config\\Loader\\YamlFileLoader&#45;&gt;Symfony\\Component\\Config\\Loader\\FileLoader</title>
<path fill="none" stroke="black" d="M1824,-915.87C1824,-850.72 1824,-692.45 1824,-609.77"/>
<polygon fill="none" stroke="black" points="1827.5,-609.59 1824,-599.59 1820.5,-609.59 1827.5,-609.59"/>
</g>
<!-- Symfony\\Component\\Config\\Loader\\Loader -->
<g id="node9" class="node">
<title>Symfony\\Component\\Config\\Loader\\Loader</title>
<polygon fill="#fefece" stroke="transparent" points="2053,-237 1595,-237 1595,-138 2053,-138 2053,-237"/>
<polygon fill="#eeeeee" stroke="transparent" points="1595,-214.5 1595,-236.5 2053,-236.5 2053,-214.5 1595,-214.5"/>
<polygon fill="none" stroke="black" points="1595,-214.5 1595,-236.5 2053,-236.5 2053,-214.5 1595,-214.5"/>
<text text-anchor="start" x="1800" y="-228.1" font-family="Verdana" font-weight="bold" font-size="8.00">«abstract»</text>
<text text-anchor="start" x="1808.5" y="-220.1" font-family="Verdana" font-weight="bold" font-size="8.00">Loader</text>
<polygon fill="none" stroke="black" points="1595,-208.5 1595,-214.5 2053,-214.5 2053,-208.5 1595,-208.5"/>
<polygon fill="none" stroke="black" points="1595,-137.5 1595,-208.5 2053,-208.5 2053,-137.5 1595,-137.5"/>
<text text-anchor="start" x="1600" y="-197.1" font-family="Verdana" font-size="8.00">+ __construct(env : string = «unknown»)</text>
<text text-anchor="start" x="1600" y="-184.1" font-family="Verdana" font-size="8.00">+ getResolver() : Symfony\Component\Config\Loader\LoaderResolverInterface</text>
<text text-anchor="start" x="1600" y="-171.1" font-family="Verdana" font-size="8.00">+ setResolver(resolver : Symfony\Component\Config\Loader\LoaderResolverInterface) : void</text>
<text text-anchor="start" x="1600" y="-158.1" font-family="Verdana" font-size="8.00">+ import(resource : mixed, type : string = «unknown») : ?mixed</text>
<text text-anchor="start" x="1600" y="-145.1" font-family="Verdana" font-size="8.00">+ resolve(resource : mixed, type : string = «unknown») : Symfony\Component\Config\Loader\LoaderInterface</text>
</g>
<!-- Symfony\\Component\\Config\\Loader\\FileLoader&#45;&gt;Symfony\\Component\\Config\\Loader\\Loader -->
<g id="edge6" class="edge">
<title>Symfony\\Component\\Config\\Loader\\FileLoader&#45;&gt;Symfony\\Component\\Config\\Loader\\Loader</title>
<path fill="none" stroke="black" d="M1824,-513.4C1824,-447.95 1824,-321.59 1824,-247.21"/>
<polygon fill="none" stroke="black" points="1827.5,-247.07 1824,-237.07 1820.5,-247.07 1827.5,-247.07"/>
</g>
<!-- Symfony\\Component\\Config\\Loader\\LoaderInterface -->
<g id="node10" class="node">
<title>Symfony\\Component\\Config\\Loader\\LoaderInterface</title>
<polygon fill="#fefece" stroke="transparent" points="2041.5,-102 1606.5,-102 1606.5,-16 2041.5,-16 2041.5,-102"/>
<polygon fill="#eeeeee" stroke="transparent" points="1607,-80 1607,-102 2042,-102 2042,-80 1607,-80"/>
<polygon fill="none" stroke="black" points="1607,-80 1607,-102 2042,-102 2042,-80 1607,-80"/>
<text text-anchor="start" x="1798.5" y="-93.6" font-family="Verdana" font-weight="bold" font-size="8.00">«interface»</text>
<text text-anchor="start" x="1788.5" y="-85.6" font-family="Verdana" font-weight="bold" font-size="8.00">LoaderInterface</text>
<polygon fill="none" stroke="black" points="1607,-74 1607,-80 2042,-80 2042,-74 1607,-74"/>
<polygon fill="none" stroke="black" points="1607,-16 1607,-74 2042,-74 2042,-16 1607,-16"/>
<text text-anchor="start" x="1612" y="-62.6" font-family="Verdana" font-size="8.00">+ «abstract» load(resource : mixed, type : string = «unknown») : ?mixed</text>
<text text-anchor="start" x="1612" y="-49.6" font-family="Verdana" font-size="8.00">+ «abstract» supports(resource : mixed, type : string = «unknown») : bool</text>
<text text-anchor="start" x="1612" y="-36.6" font-family="Verdana" font-size="8.00">+ «abstract» getResolver() : Symfony\Component\Config\Loader\LoaderResolverInterface</text>
<text text-anchor="start" x="1612" y="-23.6" font-family="Verdana" font-size="8.00">+ «abstract» setResolver(resolver : Symfony\Component\Config\Loader\LoaderResolverInterface) : void</text>
</g>
<!-- Symfony\\Component\\Config\\Loader\\Loader&#45;&gt;Symfony\\Component\\Config\\Loader\\LoaderInterface -->
<g id="edge5" class="edge">
<title>Symfony\\Component\\Config\\Loader\\Loader&#45;&gt;Symfony\\Component\\Config\\Loader\\LoaderInterface</title>
<path fill="none" stroke="black" stroke-dasharray="5,2" d="M1824,-137.95C1824,-129.53 1824,-120.74 1824,-112.23"/>
<polygon fill="none" stroke="black" points="1827.5,-112.02 1824,-102.02 1820.5,-112.02 1827.5,-112.02"/>
</g>
<!-- Bartlett\\UmlWriter\\Generator\\GeneratorFactory -->
<g id="node11" class="node">
<title>Bartlett\\UmlWriter\\Generator\\GeneratorFactory</title>
<polygon fill="#fefece" stroke="transparent" points="2730,-969.5 2184,-969.5 2184,-922.5 2730,-922.5 2730,-969.5"/>
<polygon fill="#eeeeee" stroke="transparent" points="2184,-947 2184,-969 2730,-969 2730,-947 2184,-947"/>
<polygon fill="none" stroke="black" points="2184,-947 2184,-969 2730,-969 2730,-947 2184,-947"/>
<text text-anchor="start" x="2417.5" y="-952.6" font-family="Verdana" font-weight="bold" font-size="8.00">GeneratorFactory</text>
<polygon fill="none" stroke="black" points="2184,-941 2184,-947 2730,-947 2730,-941 2184,-941"/>
<polygon fill="none" stroke="black" points="2184,-922 2184,-941 2730,-941 2730,-922 2184,-922"/>
<text text-anchor="start" x="2189" y="-929.6" font-family="Verdana" font-size="8.00">+ createInstance(provider : string, format : string = &#39;svg&#39;, executable : string = &#39;&#39;) : Bartlett\GraphUml\Generator\GeneratorInterface</text>
</g>
<!-- Bartlett\\UmlWriter\\Generator\\GeneratorFactoryInterface -->
<g id="node12" class="node">
<title>Bartlett\\UmlWriter\\Generator\\GeneratorFactoryInterface</title>
<polygon fill="#fefece" stroke="transparent" points="2730.5,-580 2183.5,-580 2183.5,-533 2730.5,-533 2730.5,-580"/>
<polygon fill="#eeeeee" stroke="transparent" points="2184,-557.5 2184,-579.5 2731,-579.5 2731,-557.5 2184,-557.5"/>
<polygon fill="none" stroke="black" points="2184,-557.5 2184,-579.5 2731,-579.5 2731,-557.5 2184,-557.5"/>
<text text-anchor="start" x="2431.5" y="-571.1" font-family="Verdana" font-weight="bold" font-size="8.00">«interface»</text>
<text text-anchor="start" x="2398" y="-563.1" font-family="Verdana" font-weight="bold" font-size="8.00">GeneratorFactoryInterface</text>
<polygon fill="none" stroke="black" points="2184,-551.5 2184,-557.5 2731,-557.5 2731,-551.5 2184,-551.5"/>
<polygon fill="none" stroke="black" points="2184,-532.5 2184,-551.5 2731,-551.5 2731,-532.5 2184,-532.5"/>
<text text-anchor="start" x="2189" y="-540.1" font-family="Verdana" font-size="8.00">+ «abstract» createInstance(provider : string, format : string, executable : string) : Bartlett\GraphUml\Generator\GeneratorInterface</text>
</g>
<!-- Bartlett\\UmlWriter\\Generator\\GeneratorFactory&#45;&gt;Bartlett\\UmlWriter\\Generator\\GeneratorFactoryInterface -->
<g id="edge8" class="edge">
<title>Bartlett\\UmlWriter\\Generator\\GeneratorFactory&#45;&gt;Bartlett\\UmlWriter\\Generator\\GeneratorFactoryInterface</title>
<path fill="none" stroke="black" stroke-dasharray="5,2" d="M2457,-922.49C2457,-857.08 2457,-666.82 2457,-590.11"/>
<polygon fill="none" stroke="black" points="2460.5,-590.07 2457,-580.07 2453.5,-590.07 2460.5,-590.07"/>
</g>
<!-- Bartlett\\UmlWriter\\Service\\ClassDiagramRenderer -->
<g id="node13" class="node">
<title>Bartlett\\UmlWriter\\Service\\ClassDiagramRenderer</title>
<polygon fill="#fefece" stroke="transparent" points="3703,-976 3155,-976 3155,-916 3703,-916 3703,-976"/>
<polygon fill="#eeeeee" stroke="transparent" points="3155,-954 3155,-976 3703,-976 3703,-954 3155,-954"/>
<polygon fill="none" stroke="black" points="3155,-954 3155,-976 3703,-976 3703,-954 3155,-954"/>
<text text-anchor="start" x="3377.5" y="-959.6" font-family="Verdana" font-weight="bold" font-size="8.00">ClassDiagramRenderer</text>
<polygon fill="none" stroke="black" points="3155,-948 3155,-954 3703,-954 3703,-948 3155,-948"/>
<polygon fill="none" stroke="black" points="3155,-916 3155,-948 3703,-948 3703,-916 3155,-916"/>
<text text-anchor="start" x="3160" y="-936.6" font-family="Verdana" font-size="8.00">+ __invoke(datasource, generator : Bartlett\GraphUml\Generator\GeneratorInterface, parameters : array = []) : Graphp\Graph\Graph</text>
<text text-anchor="start" x="3160" y="-923.6" font-family="Verdana" font-size="8.00">+ getMetadata() : array</text>
</g>
<!-- Bartlett\\UmlWriter\\Service\\ConfigurationHandler -->
<g id="node14" class="node">
<title>Bartlett\\UmlWriter\\Service\\ConfigurationHandler</title>
<polygon fill="#fefece" stroke="transparent" points="3136.5,-989 2939.5,-989 2939.5,-903 3136.5,-903 3136.5,-989"/>
<polygon fill="#eeeeee" stroke="transparent" points="2940,-967 2940,-989 3137,-989 3137,-967 2940,-967"/>
<polygon fill="none" stroke="black" points="2940,-967 2940,-989 3137,-989 3137,-967 2940,-967"/>
<text text-anchor="start" x="2989" y="-972.6" font-family="Verdana" font-weight="bold" font-size="8.00">ConfigurationHandler</text>
<polygon fill="none" stroke="black" points="2940,-961 2940,-967 3137,-967 3137,-961 2940,-961"/>
<polygon fill="none" stroke="black" points="2940,-903 2940,-961 3137,-961 3137,-903 2940,-903"/>
<text text-anchor="start" x="2945" y="-949.6" font-family="Verdana" font-size="8.00">+ __construct(filename : string = «unknown»)</text>
<text text-anchor="start" x="2945" y="-936.6" font-family="Verdana" font-size="8.00">+ «static» getDefaults() : array</text>
<text text-anchor="start" x="2945" y="-923.6" font-family="Verdana" font-size="8.00">+ toArray() : array</text>
<text text-anchor="start" x="2945" y="-910.6" font-family="Verdana" font-size="8.00">+ toFlat() : array</text>
</g>
<!-- Bartlett\\UmlWriter\\Service\\ContainerService -->
<g id="node15" class="node">
<title>Bartlett\\UmlWriter\\Service\\ContainerService</title>
<polygon fill="#fefece" stroke="transparent" points="2921.5,-989 2754.5,-989 2754.5,-903 2921.5,-903 2921.5,-989"/>
<polygon fill="#eeeeee" stroke="transparent" points="2755,-967 2755,-989 2922,-989 2922,-967 2755,-967"/>
<polygon fill="none" stroke="black" points="2755,-967 2755,-989 2922,-989 2922,-967 2755,-967"/>
<text text-anchor="start" x="2799.5" y="-972.6" font-family="Verdana" font-weight="bold" font-size="8.00">ContainerService</text>
<polygon fill="none" stroke="black" points="2755,-961 2755,-967 2922,-967 2922,-961 2755,-961"/>
<polygon fill="none" stroke="black" points="2755,-903 2755,-961 2922,-961 2922,-903 2755,-903"/>
<text text-anchor="start" x="2760" y="-949.6" font-family="Verdana" font-size="8.00">+ __construct()</text>
<text text-anchor="start" x="2760" y="-936.6" font-family="Verdana" font-size="8.00">+ set(id : string, service : mixed) : void</text>
<text text-anchor="start" x="2760" y="-923.6" font-family="Verdana" font-size="8.00">+ get(id : string) : ?mixed</text>
<text text-anchor="start" x="2760" y="-910.6" font-family="Verdana" font-size="8.00">+ has(id : string) : bool</text>
</g>
<!-- Psr\\Container\\ContainerInterface -->
<g id="node16" class="node">
<title>Psr\\Container\\ContainerInterface</title>
<polygon fill="#fefece" stroke="transparent" points="2913.5,-586.5 2762.5,-586.5 2762.5,-526.5 2913.5,-526.5 2913.5,-586.5"/>
<polygon fill="#eeeeee" stroke="transparent" points="2763,-564.5 2763,-586.5 2914,-586.5 2914,-564.5 2763,-564.5"/>
<polygon fill="none" stroke="black" points="2763,-564.5 2763,-586.5 2914,-586.5 2914,-564.5 2763,-564.5"/>
<text text-anchor="start" x="2812.5" y="-578.1" font-family="Verdana" font-weight="bold" font-size="8.00">«interface»</text>
<text text-anchor="start" x="2796" y="-570.1" font-family="Verdana" font-weight="bold" font-size="8.00">ContainerInterface</text>
<polygon fill="none" stroke="black" points="2763,-558.5 2763,-564.5 2914,-564.5 2914,-558.5 2763,-558.5"/>
<polygon fill="none" stroke="black" points="2763,-526.5 2763,-558.5 2914,-558.5 2914,-526.5 2763,-526.5"/>
<text text-anchor="start" x="2768" y="-547.1" font-family="Verdana" font-size="8.00">+ «abstract» get(id : string)</text>
<text text-anchor="start" x="2768" y="-534.1" font-family="Verdana" font-size="8.00">+ «abstract» has(id : string) : bool</text>
</g>
<!-- Bartlett\\UmlWriter\\Service\\ContainerService&#45;&gt;Psr\\Container\\ContainerInterface -->
<g id="edge9" class="edge">
<title>Bartlett\\UmlWriter\\Service\\ContainerService&#45;&gt;Psr\\Container\\ContainerInterface</title>
<path fill="none" stroke="black" stroke-dasharray="5,2" d="M2838,-902.79C2838,-827.26 2838,-670.04 2838,-596.72"/>
<polygon fill="none" stroke="black" points="2841.5,-596.53 2838,-586.53 2834.5,-596.53 2841.5,-596.53"/>
</g>
</g>
</svg>
