<?xml version="1.0" encoding="UTF-8" standalone="no"?>
<!DOCTYPE svg PUBLIC "-//W3C//DTD SVG 1.1//EN"
 "http://www.w3.org/Graphics/SVG/1.1/DTD/svg11.dtd">
<!-- Generated by graphviz version 2.43.0 (0)
 -->
<!-- Title: %3 Pages: 1 -->
<svg width="1169pt" height="111pt"
 viewBox="0.00 0.00 1169.00 111.00" xmlns="http://www.w3.org/2000/svg" xmlns:xlink="http://www.w3.org/1999/xlink">
<g id="graph0" class="graph" transform="scale(1 1) rotate(0) translate(4 107)">
<title>%3</title>
<g id="clust1" class="cluster">
<title>cluster_0</title>
<polygon fill="BurlyWood" stroke="black" points="8,-8 8,-95 1153,-95 1153,-8 8,-8"/>
<text text-anchor="middle" x="580.5" y="-79.8" font-family="Times,serif" font-size="14.00">Bartlett\UmlWriter\Generator</text>
</g>
<!-- Bartlett\\UmlWriter\\Generator\\GeneratorFactoryInterface -->
<g id="node1" class="node">
<title>Bartlett\\UmlWriter\\Generator\\GeneratorFactoryInterface</title>
<polygon fill="#fefece" stroke="transparent" points="1145,-63.5 598,-63.5 598,-16.5 1145,-16.5 1145,-63.5"/>
<polygon fill="#eeeeee" stroke="transparent" points="598.5,-41 598.5,-63 1145.5,-63 1145.5,-41 598.5,-41"/>
<polygon fill="none" stroke="black" points="598.5,-41 598.5,-63 1145.5,-63 1145.5,-41 598.5,-41"/>
<text text-anchor="start" x="846" y="-54.6" font-family="Verdana" font-weight="bold" font-size="8.00">«interface»</text>
<text text-anchor="start" x="812.5" y="-46.6" font-family="Verdana" font-weight="bold" font-size="8.00">GeneratorFactoryInterface</text>
<polygon fill="none" stroke="black" points="598.5,-35 598.5,-41 1145.5,-41 1145.5,-35 598.5,-35"/>
<polygon fill="none" stroke="black" points="598.5,-16 598.5,-35 1145.5,-35 1145.5,-16 598.5,-16"/>
<text text-anchor="start" x="603.5" y="-23.6" font-family="Verdana" font-size="8.00">+ «abstract» createInstance(provider : string, format : string, executable : string) : Bartlett\GraphUml\Generator\GeneratorInterface</text>
</g>
<!-- Bartlett\\UmlWriter\\Generator\\GeneratorFactory -->
<g id="node2" class="node">
<title>Bartlett\\UmlWriter\\Generator\\GeneratorFactory</title>
<polygon fill="#fefece" stroke="transparent" points="562,-63.5 16,-63.5 16,-16.5 562,-16.5 562,-63.5"/>
<polygon fill="#eeeeee" stroke="transparent" points="16,-41 16,-63 562,-63 562,-41 16,-41"/>
<polygon fill="none" stroke="black" points="16,-41 16,-63 562,-63 562,-41 16,-41"/>
<text text-anchor="start" x="249.5" y="-46.6" font-family="Verdana" font-weight="bold" font-size="8.00">GeneratorFactory</text>
<polygon fill="none" stroke="black" points="16,-35 16,-41 562,-41 562,-35 16,-35"/>
<polygon fill="none" stroke="black" points="16,-16 16,-35 562,-35 562,-16 16,-16"/>
<text text-anchor="start" x="21" y="-23.6" font-family="Verdana" font-size="8.00">+ createInstance(provider : string, format : string = &#39;svg&#39;, executable : string = &#39;&#39;) : Bartlett\GraphUml\Generator\GeneratorInterface</text>
</g>
<!-- Bartlett\\UmlWriter\\Generator\\GeneratorFactory&#45;&gt;Bartlett\\UmlWriter\\Generator\\GeneratorFactoryInterface -->
<g id="edge1" class="edge">
<title>Bartlett\\UmlWriter\\Generator\\GeneratorFactory&#45;&gt;Bartlett\\UmlWriter\\Generator\\GeneratorFactoryInterface</title>
<path fill="none" stroke="black" stroke-dasharray="5,2" d="M562.4,-40C570.78,-40 579.18,-40 587.57,-40"/>
<polygon fill="none" stroke="black" points="587.79,-43.5 597.79,-40 587.79,-36.5 587.79,-43.5"/>
</g>
</g>
</svg>
