<?xml version="1.0" encoding="UTF-8" standalone="no"?>
<!DOCTYPE svg PUBLIC "-//W3C//DTD SVG 1.1//EN"
 "http://www.w3.org/Graphics/SVG/1.1/DTD/svg11.dtd">
<!-- Generated by graphviz version 2.43.0 (0)
 -->
<!-- Title: %3 Pages: 1 -->
<svg width="705pt" height="539pt"
 viewBox="0.00 0.00 705.00 539.00" xmlns="http://www.w3.org/2000/svg" xmlns:xlink="http://www.w3.org/1999/xlink">
<g id="graph0" class="graph" transform="scale(1 1) rotate(0) translate(4 535)">
<title>%3</title>
<g id="clust1" class="cluster">
<title>cluster_0</title>
<polygon fill="BurlyWood" stroke="black" points="197,-411 197,-510 467,-510 467,-411 197,-411"/>
<text text-anchor="middle" x="332" y="-494.8" font-family="Times,serif" font-size="14.00">Bartlett\UmlWriter\Config\Loader</text>
</g>
<g id="clust2" class="cluster">
<title>cluster_1</title>
<polygon fill="LightSkyBlue" stroke="black" points="8,-8 8,-390 656,-390 656,-8 8,-8"/>
<text text-anchor="middle" x="332" y="-374.8" font-family="Times,serif" font-size="14.00">Symfony\Component\Config\Loader</text>
</g>
<g id="clust3" class="cluster">
<title>cluster_2</title>
<polygon fill="BurlyWood" stroke="black" points="475,-398 475,-523 689,-523 689,-398 475,-398"/>
<text text-anchor="middle" x="582" y="-507.8" font-family="Times,serif" font-size="14.00">Bartlett\UmlWriter\Service</text>
</g>
<!-- Bartlett\\UmlWriter\\Config\\Loader\\YamlFileLoader -->
<g id="node1" class="node">
<title>Bartlett\\UmlWriter\\Config\\Loader\\YamlFileLoader</title>
<polygon fill="#fefece" stroke="transparent" points="458.5,-479 205.5,-479 205.5,-419 458.5,-419 458.5,-479"/>
<polygon fill="#eeeeee" stroke="transparent" points="206,-457 206,-479 459,-479 459,-457 206,-457"/>
<polygon fill="none" stroke="black" points="206,-457 206,-479 459,-479 459,-457 206,-457"/>
<text text-anchor="start" x="297.5" y="-462.6" font-family="Verdana" font-weight="bold" font-size="8.00">YamlFileLoader</text>
<polygon fill="none" stroke="black" points="206,-451 206,-457 459,-457 459,-451 206,-451"/>
<polygon fill="none" stroke="black" points="206,-419 206,-451 459,-451 459,-419 206,-419"/>
<text text-anchor="start" x="211" y="-439.6" font-family="Verdana" font-size="8.00">+ load(resource : mixed, type : string = «unknown») : array</text>
<text text-anchor="start" x="211" y="-426.6" font-family="Verdana" font-size="8.00">+ supports(resource, type : string = «unknown») : bool</text>
</g>
<!-- Symfony\\Component\\Config\\Loader\\FileLoader -->
<g id="node2" class="node">
<title>Symfony\\Component\\Config\\Loader\\FileLoader</title>
<polygon fill="#fefece" stroke="transparent" points="648,-359 16,-359 16,-273 648,-273 648,-359"/>
<polygon fill="#eeeeee" stroke="transparent" points="16,-337 16,-359 648,-359 648,-337 16,-337"/>
<polygon fill="none" stroke="black" points="16,-337 16,-359 648,-359 648,-337 16,-337"/>
<text text-anchor="start" x="308" y="-350.6" font-family="Verdana" font-weight="bold" font-size="8.00">«abstract»</text>
<text text-anchor="start" x="308" y="-342.6" font-family="Verdana" font-weight="bold" font-size="8.00">FileLoader</text>
<polygon fill="none" stroke="black" points="16,-331 16,-337 648,-337 648,-331 16,-331"/>
<polygon fill="none" stroke="black" points="16,-273 16,-331 648,-331 648,-273 16,-273"/>
<text text-anchor="start" x="21" y="-319.6" font-family="Verdana" font-size="8.00">+ __construct(locator : Symfony\Component\Config\FileLocatorInterface, env : string = «unknown»)</text>
<text text-anchor="start" x="21" y="-306.6" font-family="Verdana" font-size="8.00">+ setCurrentDir(dir : string)</text>
<text text-anchor="start" x="21" y="-293.6" font-family="Verdana" font-size="8.00">+ getLocator() : Symfony\Component\Config\FileLocatorInterface</text>
<text text-anchor="start" x="21" y="-280.6" font-family="Verdana" font-size="8.00">+ import(resource : mixed, type : string = «unknown», ignoreErrors : bool = false, sourceResource : string = «unknown», exclude : mixed = «unknown»)</text>
</g>
<!-- Bartlett\\UmlWriter\\Config\\Loader\\YamlFileLoader&#45;&gt;Symfony\\Component\\Config\\Loader\\FileLoader -->
<g id="edge3" class="edge">
<title>Bartlett\\UmlWriter\\Config\\Loader\\YamlFileLoader&#45;&gt;Symfony\\Component\\Config\\Loader\\FileLoader</title>
<path fill="none" stroke="black" d="M332,-418.93C332,-404.38 332,-386.32 332,-369.47"/>
<polygon fill="none" stroke="black" points="335.5,-369.17 332,-359.17 328.5,-369.17 335.5,-369.17"/>
</g>
<!-- Symfony\\Component\\Config\\Loader\\Loader -->
<g id="node3" class="node">
<title>Symfony\\Component\\Config\\Loader\\Loader</title>
<polygon fill="#fefece" stroke="transparent" points="561,-237 103,-237 103,-138 561,-138 561,-237"/>
<polygon fill="#eeeeee" stroke="transparent" points="103,-214.5 103,-236.5 561,-236.5 561,-214.5 103,-214.5"/>
<polygon fill="none" stroke="black" points="103,-214.5 103,-236.5 561,-236.5 561,-214.5 103,-214.5"/>
<text text-anchor="start" x="308" y="-228.1" font-family="Verdana" font-weight="bold" font-size="8.00">«abstract»</text>
<text text-anchor="start" x="316.5" y="-220.1" font-family="Verdana" font-weight="bold" font-size="8.00">Loader</text>
<polygon fill="none" stroke="black" points="103,-208.5 103,-214.5 561,-214.5 561,-208.5 103,-208.5"/>
<polygon fill="none" stroke="black" points="103,-137.5 103,-208.5 561,-208.5 561,-137.5 103,-137.5"/>
<text text-anchor="start" x="108" y="-197.1" font-family="Verdana" font-size="8.00">+ __construct(env : string = «unknown»)</text>
<text text-anchor="start" x="108" y="-184.1" font-family="Verdana" font-size="8.00">+ getResolver() : Symfony\Component\Config\Loader\LoaderResolverInterface</text>
<text text-anchor="start" x="108" y="-171.1" font-family="Verdana" font-size="8.00">+ setResolver(resolver : Symfony\Component\Config\Loader\LoaderResolverInterface)</text>
<text text-anchor="start" x="108" y="-158.1" font-family="Verdana" font-size="8.00">+ import(resource : mixed, type : string = «unknown»)</text>
<text text-anchor="start" x="108" y="-145.1" font-family="Verdana" font-size="8.00">+ resolve(resource : mixed, type : string = «unknown») : Symfony\Component\Config\Loader\LoaderInterface</text>
</g>
<!-- Symfony\\Component\\Config\\Loader\\FileLoader&#45;&gt;Symfony\\Component\\Config\\Loader\\Loader -->
<g id="edge2" class="edge">
<title>Symfony\\Component\\Config\\Loader\\FileLoader&#45;&gt;Symfony\\Component\\Config\\Loader\\Loader</title>
<path fill="none" stroke="black" d="M332,-272.88C332,-264.61 332,-255.8 332,-247.11"/>
<polygon fill="none" stroke="black" points="335.5,-247 332,-237 328.5,-247 335.5,-247"/>
</g>
<!-- Symfony\\Component\\Config\\Loader\\LoaderInterface -->
<g id="node4" class="node">
<title>Symfony\\Component\\Config\\Loader\\LoaderInterface</title>
<polygon fill="#fefece" stroke="transparent" points="537,-102 127,-102 127,-16 537,-16 537,-102"/>
<polygon fill="#eeeeee" stroke="transparent" points="127,-80 127,-102 537,-102 537,-80 127,-80"/>
<polygon fill="none" stroke="black" points="127,-80 127,-102 537,-102 537,-80 127,-80"/>
<text text-anchor="start" x="306" y="-93.6" font-family="Verdana" font-weight="bold" font-size="8.00">«interface»</text>
<text text-anchor="start" x="296" y="-85.6" font-family="Verdana" font-weight="bold" font-size="8.00">LoaderInterface</text>
<polygon fill="none" stroke="black" points="127,-74 127,-80 537,-80 537,-74 127,-74"/>
<polygon fill="none" stroke="black" points="127,-16 127,-74 537,-74 537,-16 127,-16"/>
<text text-anchor="start" x="132" y="-62.6" font-family="Verdana" font-size="8.00">+ «abstract» load(resource : mixed, type : string = «unknown»)</text>
<text text-anchor="start" x="132" y="-49.6" font-family="Verdana" font-size="8.00">+ «abstract» supports(resource : mixed, type : string = «unknown»)</text>
<text text-anchor="start" x="132" y="-36.6" font-family="Verdana" font-size="8.00">+ «abstract» getResolver()</text>
<text text-anchor="start" x="132" y="-23.6" font-family="Verdana" font-size="8.00">+ «abstract» setResolver(resolver : Symfony\Component\Config\Loader\LoaderResolverInterface)</text>
</g>
<!-- Symfony\\Component\\Config\\Loader\\Loader&#45;&gt;Symfony\\Component\\Config\\Loader\\LoaderInterface -->
<g id="edge1" class="edge">
<title>Symfony\\Component\\Config\\Loader\\Loader&#45;&gt;Symfony\\Component\\Config\\Loader\\LoaderInterface</title>
<path fill="none" stroke="black" stroke-dasharray="5,2" d="M332,-137.95C332,-129.53 332,-120.74 332,-112.23"/>
<polygon fill="none" stroke="black" points="335.5,-112.02 332,-102.02 328.5,-112.02 335.5,-112.02"/>
</g>
<!-- Bartlett\\UmlWriter\\Service\\ConfigurationHandler -->
<g id="node5" class="node">
<title>Bartlett\\UmlWriter\\Service\\ConfigurationHandler</title>
<polygon fill="#fefece" stroke="transparent" points="680.5,-492 483.5,-492 483.5,-406 680.5,-406 680.5,-492"/>
<polygon fill="#eeeeee" stroke="transparent" points="484,-470 484,-492 681,-492 681,-470 484,-470"/>
<polygon fill="none" stroke="black" points="484,-470 484,-492 681,-492 681,-470 484,-470"/>
<text text-anchor="start" x="533" y="-475.6" font-family="Verdana" font-weight="bold" font-size="8.00">ConfigurationHandler</text>
<polygon fill="none" stroke="black" points="484,-464 484,-470 681,-470 681,-464 484,-464"/>
<polygon fill="none" stroke="black" points="484,-406 484,-464 681,-464 681,-406 484,-406"/>
<text text-anchor="start" x="489" y="-452.6" font-family="Verdana" font-size="8.00">+ __construct(filename : string = «unknown»)</text>
<text text-anchor="start" x="489" y="-439.6" font-family="Verdana" font-size="8.00">+ «static» getDefaults() : array</text>
<text text-anchor="start" x="489" y="-426.6" font-family="Verdana" font-size="8.00">+ toArray() : array</text>
<text text-anchor="start" x="489" y="-413.6" font-family="Verdana" font-size="8.00">+ toFlat() : array</text>
</g>
</g>
</svg>
