<?xml version="1.0" encoding="UTF-8" standalone="no"?>
<!DOCTYPE svg PUBLIC "-//W3C//DTD SVG 1.1//EN"
 "http://www.w3.org/Graphics/SVG/1.1/DTD/svg11.dtd">
<!-- Generated by graphviz version 2.43.0 (0)
 -->
<!-- Title: %3 Pages: 1 -->
<svg width="1325pt" height="475pt"
 viewBox="0.00 0.00 1325.00 475.00" xmlns="http://www.w3.org/2000/svg" xmlns:xlink="http://www.w3.org/1999/xlink">
<g id="graph0" class="graph" transform="scale(1 1) rotate(0) translate(4 471)">
<title>%3</title>
<g id="clust1" class="cluster">
<title>cluster_0</title>
<polygon fill="LightSkyBlue" stroke="black" points="58,-347 58,-459 920,-459 920,-347 58,-347"/>
<text text-anchor="middle" x="489" y="-443.8" font-family="Times,serif" font-size="14.00">Name\Space</text>
</g>
<g id="clust2" class="cluster">
<title>cluster_1</title>
<polygon fill="transparent" stroke="black" points="8,-8 8,-258 572,-258 572,-8 8,-8"/>
<text text-anchor="middle" x="290" y="-242.8" font-family="Times,serif" font-size="14.00">Bartlett\UmlWriter\Generator</text>
</g>
<g id="clust3" class="cluster">
<title>cluster_2</title>
<polygon fill="transparent" stroke="black" points="580,-91 580,-339 1309,-339 1309,-91 580,-91"/>
<text text-anchor="middle" x="944.5" y="-323.8" font-family="Times,serif" font-size="14.00">Bartlett\GraphUml\Generator</text>
</g>
<!-- Name\\Space\\MyGeneratorFactory -->
<g id="node1" class="node">
<title>Name\\Space\\MyGeneratorFactory</title>
<polygon fill="#fefece" stroke="transparent" points="612,-415 66,-415 66,-368 612,-368 612,-415"/>
<polygon fill="#eeeeee" stroke="transparent" points="66,-392.5 66,-414.5 612,-414.5 612,-392.5 66,-392.5"/>
<polygon fill="none" stroke="black" points="66,-392.5 66,-414.5 612,-414.5 612,-392.5 66,-392.5"/>
<text text-anchor="start" x="293" y="-398.1" font-family="Verdana" font-weight="bold" font-size="8.00">MyGeneratorFactory</text>
<polygon fill="none" stroke="black" points="66,-386.5 66,-392.5 612,-392.5 612,-386.5 66,-386.5"/>
<polygon fill="none" stroke="black" points="66,-367.5 66,-386.5 612,-386.5 612,-367.5 66,-367.5"/>
<text text-anchor="start" x="71" y="-375.1" font-family="Verdana" font-size="8.00">+ createInstance(provider : string, format : string = &#39;svg&#39;, executable : string = &#39;&#39;) : Bartlett\GraphUml\Generator\GeneratorInterface</text>
</g>
<!-- Bartlett\\UmlWriter\\Generator\\GeneratorFactory -->
<g id="node3" class="node">
<title>Bartlett\\UmlWriter\\Generator\\GeneratorFactory</title>
<polygon fill="#fefece" stroke="transparent" points="563,-227 17,-227 17,-180 563,-180 563,-227"/>
<polygon fill="#eeeeee" stroke="transparent" points="17,-204.5 17,-226.5 563,-226.5 563,-204.5 17,-204.5"/>
<polygon fill="none" stroke="black" points="17,-204.5 17,-226.5 563,-226.5 563,-204.5 17,-204.5"/>
<text text-anchor="start" x="250.5" y="-210.1" font-family="Verdana" font-weight="bold" font-size="8.00">GeneratorFactory</text>
<polygon fill="none" stroke="black" points="17,-198.5 17,-204.5 563,-204.5 563,-198.5 17,-198.5"/>
<polygon fill="none" stroke="black" points="17,-179.5 17,-198.5 563,-198.5 563,-179.5 17,-179.5"/>
<text text-anchor="start" x="22" y="-187.1" font-family="Verdana" font-size="8.00">+ createInstance(provider : string, format : string = &#39;svg&#39;, executable : string = &#39;&#39;) : Bartlett\GraphUml\Generator\GeneratorInterface</text>
</g>
<!-- Name\\Space\\MyGeneratorFactory&#45;&gt;Bartlett\\UmlWriter\\Generator\\GeneratorFactory -->
<g id="edge2" class="edge">
<title>Name\\Space\\MyGeneratorFactory&#45;&gt;Bartlett\\UmlWriter\\Generator\\GeneratorFactory</title>
<path fill="none" stroke="black" d="M332.99,-367.69C324.37,-334.97 308.45,-274.54 298.59,-237.11"/>
<polygon fill="none" stroke="black" points="301.91,-235.98 295.98,-227.2 295.14,-237.76 301.91,-235.98"/>
</g>
<!-- Name\\Space\\MyGenerator -->
<g id="node2" class="node">
<title>Name\\Space\\MyGenerator</title>
<polygon fill="#fefece" stroke="transparent" points="912,-428 630,-428 630,-355 912,-355 912,-428"/>
<polygon fill="#eeeeee" stroke="transparent" points="630,-405.5 630,-427.5 912,-427.5 912,-405.5 630,-405.5"/>
<polygon fill="none" stroke="black" points="630,-405.5 630,-427.5 912,-427.5 912,-405.5 630,-405.5"/>
<text text-anchor="start" x="741.5" y="-411.1" font-family="Verdana" font-weight="bold" font-size="8.00">MyGenerator</text>
<polygon fill="none" stroke="black" points="630,-399.5 630,-405.5 912,-405.5 912,-399.5 630,-399.5"/>
<polygon fill="none" stroke="black" points="630,-354.5 630,-399.5 912,-399.5 912,-354.5 630,-354.5"/>
<text text-anchor="start" x="635" y="-388.1" font-family="Verdana" font-size="8.00">+ getFormatter() : Bartlett\GraphUml\Formatter\FormatterInterface</text>
<text text-anchor="start" x="635" y="-375.1" font-family="Verdana" font-size="8.00">+ getName() : string</text>
<text text-anchor="start" x="635" y="-362.1" font-family="Verdana" font-size="8.00">+ createScript(graph : Graphp\Graph\Graph) : string</text>
</g>
<!-- Bartlett\\GraphUml\\Generator\\AbstractGenerator -->
<g id="node5" class="node">
<title>Bartlett\\GraphUml\\Generator\\AbstractGenerator</title>
<polygon fill="#fefece" stroke="transparent" points="1301.5,-308 972.5,-308 972.5,-99 1301.5,-99 1301.5,-308"/>
<polygon fill="#eeeeee" stroke="transparent" points="973,-285.5 973,-307.5 1302,-307.5 1302,-285.5 973,-285.5"/>
<polygon fill="none" stroke="black" points="973,-285.5 973,-307.5 1302,-307.5 1302,-285.5 973,-285.5"/>
<text text-anchor="start" x="1113.5" y="-299.1" font-family="Verdana" font-weight="bold" font-size="8.00">«abstract»</text>
<text text-anchor="start" x="1096" y="-291.1" font-family="Verdana" font-weight="bold" font-size="8.00">AbstractGenerator</text>
<polygon fill="none" stroke="black" points="973,-227.5 973,-285.5 1302,-285.5 1302,-227.5 973,-227.5"/>
<text text-anchor="start" x="978" y="-274.1" font-family="Verdana" font-size="8.00">+ «static» CMD_EXECUTABLE : string = &quot;\%E&quot; {readOnly}</text>
<text text-anchor="start" x="978" y="-261.1" font-family="Verdana" font-size="8.00">+ «static» CMD_FORMAT : string = &quot;\%F&quot; {readOnly}</text>
<text text-anchor="start" x="978" y="-248.1" font-family="Verdana" font-size="8.00">+ «static» CMD_OUTPUT_FILE : string = &quot;\%o&quot; {readOnly}</text>
<text text-anchor="start" x="978" y="-235.1" font-family="Verdana" font-size="8.00">+ «static» CMD_TEMP_FILE : string = &quot;\%t&quot; {readOnly}</text>
<polygon fill="none" stroke="black" points="973,-221.5 973,-227.5 1302,-227.5 1302,-221.5 973,-221.5"/>
<polygon fill="none" stroke="black" points="973,-98.5 973,-221.5 1302,-221.5 1302,-98.5 973,-98.5"/>
<text text-anchor="start" x="978" y="-210.1" font-family="Verdana" font-size="8.00">+ __construct(executable : string, format : string)</text>
<text text-anchor="start" x="978" y="-197.1" font-family="Verdana" font-size="8.00">+ setOptions(values : array) : void</text>
<text text-anchor="start" x="978" y="-184.1" font-family="Verdana" font-size="8.00">+ «abstract» getFormatter() : Bartlett\GraphUml\Formatter\FormatterInterface</text>
<text text-anchor="start" x="978" y="-171.1" font-family="Verdana" font-size="8.00">+ «abstract» getName() : string</text>
<text text-anchor="start" x="978" y="-158.1" font-family="Verdana" font-size="8.00">+ getPrefix() : string</text>
<text text-anchor="start" x="978" y="-145.1" font-family="Verdana" font-size="8.00">+ getLabelClass(reflection : ReflectionClass) : string</text>
<text text-anchor="start" x="978" y="-132.1" font-family="Verdana" font-size="8.00">+ getLabelExtension(reflection : ReflectionExtension) : string</text>
<text text-anchor="start" x="978" y="-119.1" font-family="Verdana" font-size="8.00">+ «abstract» createScript(graph : Graphp\Graph\Graph) : string</text>
<text text-anchor="start" x="978" y="-106.1" font-family="Verdana" font-size="8.00">+ createImageFile(graph : Graphp\Graph\Graph, cmdFormat : string) : string</text>
</g>
<!-- Name\\Space\\MyGenerator&#45;&gt;Bartlett\\GraphUml\\Generator\\AbstractGenerator -->
<g id="edge3" class="edge">
<title>Name\\Space\\MyGenerator&#45;&gt;Bartlett\\GraphUml\\Generator\\AbstractGenerator</title>
<path fill="none" stroke="black" d="M912.07,-359.61C929.62,-353.76 947,-346.93 963,-339 977.73,-331.7 992.42,-323.05 1006.68,-313.72"/>
<polygon fill="none" stroke="black" points="1008.65,-316.61 1015.02,-308.15 1004.76,-310.79 1008.65,-316.61"/>
</g>
<!-- Bartlett\\GraphUml\\Generator\\GeneratorInterface -->
<g id="node6" class="node">
<title>Bartlett\\GraphUml\\Generator\\GeneratorInterface</title>
<polygon fill="#fefece" stroke="transparent" points="954,-272.5 588,-272.5 588,-134.5 954,-134.5 954,-272.5"/>
<polygon fill="#eeeeee" stroke="transparent" points="588,-250.5 588,-272.5 954,-272.5 954,-250.5 588,-250.5"/>
<polygon fill="none" stroke="black" points="588,-250.5 588,-272.5 954,-272.5 954,-250.5 588,-250.5"/>
<text text-anchor="start" x="745" y="-264.1" font-family="Verdana" font-weight="bold" font-size="8.00">«interface»</text>
<text text-anchor="start" x="728" y="-256.1" font-family="Verdana" font-weight="bold" font-size="8.00">GeneratorInterface</text>
<polygon fill="none" stroke="black" points="588,-244.5 588,-250.5 954,-250.5 954,-244.5 588,-244.5"/>
<polygon fill="none" stroke="black" points="588,-134.5 588,-244.5 954,-244.5 954,-134.5 588,-134.5"/>
<text text-anchor="start" x="593" y="-233.1" font-family="Verdana" font-size="8.00">+ «abstract» setOptions(values : array) : void</text>
<text text-anchor="start" x="593" y="-220.1" font-family="Verdana" font-size="8.00">+ «abstract» getFormatter() : Bartlett\GraphUml\Formatter\FormatterInterface</text>
<text text-anchor="start" x="593" y="-207.1" font-family="Verdana" font-size="8.00">+ «abstract» getName() : string</text>
<text text-anchor="start" x="593" y="-194.1" font-family="Verdana" font-size="8.00">+ «abstract» getPrefix() : string</text>
<text text-anchor="start" x="593" y="-181.1" font-family="Verdana" font-size="8.00">+ «abstract» getLabelClass(reflection : ReflectionClass) : string</text>
<text text-anchor="start" x="593" y="-168.1" font-family="Verdana" font-size="8.00">+ «abstract» getLabelExtension(reflection : ReflectionExtension) : string</text>
<text text-anchor="start" x="593" y="-155.1" font-family="Verdana" font-size="8.00">+ «abstract» createScript(graph : Graphp\Graph\Graph) : string</text>
<text text-anchor="start" x="593" y="-142.1" font-family="Verdana" font-size="8.00">+ «abstract» createImageFile(graph : Graphp\Graph\Graph, cmdFormat : string) : string</text>
</g>
<!-- Name\\Space\\MyGenerator&#45;&gt;Bartlett\\GraphUml\\Generator\\GeneratorInterface -->
<g id="edge4" class="edge">
<title>Name\\Space\\MyGenerator&#45;&gt;Bartlett\\GraphUml\\Generator\\GeneratorInterface</title>
<path fill="none" stroke="black" stroke-dasharray="5,2" d="M771,-354.64C771,-334.23 771,-307.82 771,-282.85"/>
<polygon fill="none" stroke="black" points="774.5,-282.64 771,-272.64 767.5,-282.64 774.5,-282.64"/>
</g>
<!-- Bartlett\\UmlWriter\\Generator\\GeneratorFactoryInterface -->
<g id="node4" class="node">
<title>Bartlett\\UmlWriter\\Generator\\GeneratorFactoryInterface</title>
<polygon fill="#fefece" stroke="transparent" points="563.5,-63 16.5,-63 16.5,-16 563.5,-16 563.5,-63"/>
<polygon fill="#eeeeee" stroke="transparent" points="17,-40.5 17,-62.5 564,-62.5 564,-40.5 17,-40.5"/>
<polygon fill="none" stroke="black" points="17,-40.5 17,-62.5 564,-62.5 564,-40.5 17,-40.5"/>
<text text-anchor="start" x="264.5" y="-54.1" font-family="Verdana" font-weight="bold" font-size="8.00">«interface»</text>
<text text-anchor="start" x="231" y="-46.1" font-family="Verdana" font-weight="bold" font-size="8.00">GeneratorFactoryInterface</text>
<polygon fill="none" stroke="black" points="17,-34.5 17,-40.5 564,-40.5 564,-34.5 17,-34.5"/>
<polygon fill="none" stroke="black" points="17,-15.5 17,-34.5 564,-34.5 564,-15.5 17,-15.5"/>
<text text-anchor="start" x="22" y="-23.1" font-family="Verdana" font-size="8.00">+ «abstract» createInstance(provider : string, format : string, executable : string) : Bartlett\GraphUml\Generator\GeneratorInterface</text>
</g>
<!-- Bartlett\\UmlWriter\\Generator\\GeneratorFactory&#45;&gt;Bartlett\\UmlWriter\\Generator\\GeneratorFactoryInterface -->
<g id="edge1" class="edge">
<title>Bartlett\\UmlWriter\\Generator\\GeneratorFactory&#45;&gt;Bartlett\\UmlWriter\\Generator\\GeneratorFactoryInterface</title>
<path fill="none" stroke="black" stroke-dasharray="5,2" d="M290,-179.97C290,-152.25 290,-104.94 290,-73.21"/>
<polygon fill="none" stroke="black" points="293.5,-73.09 290,-63.09 286.5,-73.09 293.5,-73.09"/>
</g>
</g>
</svg>
