<?xml version="1.0" encoding="UTF-8" standalone="no"?>
<!DOCTYPE svg PUBLIC "-//W3C//DTD SVG 1.1//EN"
 "http://www.w3.org/Graphics/SVG/1.1/DTD/svg11.dtd">
<!-- Generated by graphviz version 2.43.0 (0)
 -->
<!-- Title: %3 Pages: 1 -->
<svg width="1292pt" height="1336pt"
 viewBox="0.00 0.00 1292.08 1335.84" xmlns="http://www.w3.org/2000/svg" xmlns:xlink="http://www.w3.org/1999/xlink">
<g id="graph0" class="graph" transform="scale(1 1) rotate(0) translate(4 1331.84)">
<title>%3</title>
<polygon fill="white" stroke="transparent" points="-4,4 -4,-1331.84 1288.08,-1331.84 1288.08,4 -4,4"/>
<!-- bartlett/umlwriter -->
<g id="node1" class="node">
<title>bartlett/umlwriter</title>
<ellipse fill="lightgrey" stroke="black" stroke-width="2" cx="95.54" cy="-851" rx="95.58" ry="18"/>
<text text-anchor="middle" x="95.54" y="-847.3" font-family="Times,serif" font-size="14.00">bartlett/umlwriter</text>
</g>
<!-- php -->
<g id="node2" class="node">
<title>php</title>
<path fill="#eeeeee" stroke="black" d="M1272.08,-942C1272.08,-942 1242.08,-942 1242.08,-942 1236.08,-942 1230.08,-936 1230.08,-930 1230.08,-930 1230.08,-918 1230.08,-918 1230.08,-912 1236.08,-906 1242.08,-906 1242.08,-906 1272.08,-906 1272.08,-906 1278.08,-906 1284.08,-912 1284.08,-918 1284.08,-918 1284.08,-930 1284.08,-930 1284.08,-936 1278.08,-942 1272.08,-942"/>
<text text-anchor="middle" x="1257.08" y="-920.3" font-family="Times,serif" font-size="14.00" fill="#314b5f">php</text>
</g>
<!-- bartlett/umlwriter&#45;&gt;php -->
<g id="edge1" class="edge">
<title>bartlett/umlwriter&#45;&gt;php</title>
<path fill="none" stroke="#1a2833" d="M99.31,-869.32C110.07,-938.12 151.48,-1179.57 209.08,-1227 437.65,-1415.2 576.36,-1277.54 872.08,-1292 1000.82,-1298.3 1051.3,-1357.88 1162.08,-1292 1221.49,-1256.67 1246.64,-1032.42 1253.8,-952.36"/>
<polygon fill="#1a2833" stroke="#1a2833" points="1257.31,-952.32 1254.69,-942.05 1250.34,-951.71 1257.31,-952.32"/>
<text text-anchor="middle" x="766.08" y="-1304" font-family="Times,serif" font-size="10.00" fill="#767676">^8.1</text>
</g>
<!-- bartlett/graph&#45;plantuml&#45;generator -->
<g id="node3" class="node">
<title>bartlett/graph&#45;plantuml&#45;generator</title>
<path fill="#eeeeee" stroke="black" d="M648.08,-1227C648.08,-1227 366.08,-1227 366.08,-1227 360.08,-1227 354.08,-1221 354.08,-1215 354.08,-1215 354.08,-1203 354.08,-1203 354.08,-1197 360.08,-1191 366.08,-1191 366.08,-1191 648.08,-1191 648.08,-1191 654.08,-1191 660.08,-1197 660.08,-1203 660.08,-1203 660.08,-1215 660.08,-1215 660.08,-1221 654.08,-1227 648.08,-1227"/>
<text text-anchor="middle" x="507.08" y="-1205.3" font-family="Times,serif" font-size="14.00" fill="#314b5f">bartlett/graph&#45;plantuml&#45;generator: 1.5.0</text>
</g>
<!-- bartlett/umlwriter&#45;&gt;bartlett/graph&#45;plantuml&#45;generator -->
<g id="edge5" class="edge">
<title>bartlett/umlwriter&#45;&gt;bartlett/graph&#45;plantuml&#45;generator</title>
<path fill="none" stroke="#1a2833" d="M97.09,-869.3C99.79,-923.61 115.66,-1084.86 209.08,-1162 246.48,-1192.88 295.84,-1207.54 343.56,-1213.68"/>
<polygon fill="#1a2833" stroke="#1a2833" points="343.37,-1217.18 353.71,-1214.86 344.18,-1210.23 343.37,-1217.18"/>
<text text-anchor="middle" x="272.58" y="-1215" font-family="Times,serif" font-size="10.00" fill="#767676">^1.5</text>
</g>
<!-- bartlett/graph&#45;uml -->
<g id="node4" class="node">
<title>bartlett/graph&#45;uml</title>
<path fill="#eeeeee" stroke="black" d="M1102.08,-1184C1102.08,-1184 932.08,-1184 932.08,-1184 926.08,-1184 920.08,-1178 920.08,-1172 920.08,-1172 920.08,-1160 920.08,-1160 920.08,-1154 926.08,-1148 932.08,-1148 932.08,-1148 1102.08,-1148 1102.08,-1148 1108.08,-1148 1114.08,-1154 1114.08,-1160 1114.08,-1160 1114.08,-1172 1114.08,-1172 1114.08,-1178 1108.08,-1184 1102.08,-1184"/>
<text text-anchor="middle" x="1017.08" y="-1162.3" font-family="Times,serif" font-size="14.00" fill="#314b5f">bartlett/graph&#45;uml: 1.5.0</text>
</g>
<!-- bartlett/umlwriter&#45;&gt;bartlett/graph&#45;uml -->
<g id="edge6" class="edge">
<title>bartlett/umlwriter&#45;&gt;bartlett/graph&#45;uml</title>
<path fill="none" stroke="#1a2833" d="M98.56,-869C104.89,-916.16 129.01,-1043.56 209.08,-1100 265.05,-1139.45 703.27,-1157.08 909.48,-1163.25"/>
<polygon fill="#1a2833" stroke="#1a2833" points="909.62,-1166.76 919.72,-1163.56 909.83,-1159.76 909.62,-1166.76"/>
<text text-anchor="middle" x="507.08" y="-1156" font-family="Times,serif" font-size="10.00" fill="#767676">^1.5</text>
</g>
<!-- composer&#45;runtime&#45;api -->
<g id="node6" class="node">
<title>composer&#45;runtime&#45;api</title>
<path fill="#eeeeee" stroke="black" d="M581.58,-90C581.58,-90 432.58,-90 432.58,-90 426.58,-90 420.58,-84 420.58,-78 420.58,-78 420.58,-66 420.58,-66 420.58,-60 426.58,-54 432.58,-54 432.58,-54 581.58,-54 581.58,-54 587.58,-54 593.58,-60 593.58,-66 593.58,-66 593.58,-78 593.58,-78 593.58,-84 587.58,-90 581.58,-90"/>
<text text-anchor="middle" x="507.08" y="-68.3" font-family="Times,serif" font-size="14.00" fill="#314b5f">composer&#45;runtime&#45;api</text>
</g>
<!-- bartlett/umlwriter&#45;&gt;composer&#45;runtime&#45;api -->
<g id="edge7" class="edge">
<title>bartlett/umlwriter&#45;&gt;composer&#45;runtime&#45;api</title>
<path fill="none" stroke="#1a2833" d="M97.32,-832.88C101.78,-735.93 126.95,-278.78 209.08,-169 255.44,-107.03 342.38,-84.01 410.26,-75.77"/>
<polygon fill="#1a2833" stroke="#1a2833" points="411.01,-79.2 420.56,-74.61 410.23,-72.25 411.01,-79.2"/>
<text text-anchor="middle" x="272.58" y="-172" font-family="Times,serif" font-size="10.00" fill="#767676">^2.0</text>
</g>
<!-- cweagans/composer&#45;patches -->
<g id="node7" class="node">
<title>cweagans/composer&#45;patches</title>
<path fill="#eeeeee" stroke="black" d="M627.58,-904C627.58,-904 386.58,-904 386.58,-904 380.58,-904 374.58,-898 374.58,-892 374.58,-892 374.58,-880 374.58,-880 374.58,-874 380.58,-868 386.58,-868 386.58,-868 627.58,-868 627.58,-868 633.58,-868 639.58,-874 639.58,-880 639.58,-880 639.58,-892 639.58,-892 639.58,-898 633.58,-904 627.58,-904"/>
<text text-anchor="middle" x="507.08" y="-882.3" font-family="Times,serif" font-size="14.00" fill="#314b5f">cweagans/composer&#45;patches: 1.7.3</text>
</g>
<!-- bartlett/umlwriter&#45;&gt;cweagans/composer&#45;patches -->
<g id="edge10" class="edge">
<title>bartlett/umlwriter&#45;&gt;cweagans/composer&#45;patches</title>
<path fill="none" stroke="#1a2833" d="M182.89,-858.38C235.47,-862.87 303.91,-868.72 364.27,-873.88"/>
<polygon fill="#1a2833" stroke="#1a2833" points="364.01,-877.37 374.27,-874.74 364.6,-870.4 364.01,-877.37"/>
<text text-anchor="middle" x="272.58" y="-873" font-family="Times,serif" font-size="10.00" fill="#767676">^1.7</text>
</g>
<!-- graphp/graph -->
<g id="node9" class="node">
<title>graphp/graph</title>
<path fill="#eeeeee" stroke="black" d="M1092.08,-1083C1092.08,-1083 942.08,-1083 942.08,-1083 936.08,-1083 930.08,-1077 930.08,-1071 930.08,-1071 930.08,-1059 930.08,-1059 930.08,-1053 936.08,-1047 942.08,-1047 942.08,-1047 1092.08,-1047 1092.08,-1047 1098.08,-1047 1104.08,-1053 1104.08,-1059 1104.08,-1059 1104.08,-1071 1104.08,-1071 1104.08,-1077 1098.08,-1083 1092.08,-1083"/>
<text text-anchor="middle" x="1017.08" y="-1061.3" font-family="Times,serif" font-size="14.00" fill="#314b5f">graphp/graph: 1.x&#45;dev</text>
</g>
<!-- bartlett/umlwriter&#45;&gt;graphp/graph -->
<g id="edge12" class="edge">
<title>bartlett/umlwriter&#45;&gt;graphp/graph</title>
<path fill="none" stroke="#1a2833" d="M106.96,-869.17C124.19,-897.36 161.53,-951 209.08,-976 270.78,-1008.44 718.96,-1043.89 919.52,-1058.32"/>
<polygon fill="#1a2833" stroke="#1a2833" points="919.53,-1061.83 929.75,-1059.06 920.03,-1054.85 919.53,-1061.83"/>
<text text-anchor="middle" x="507.08" y="-1040" font-family="Times,serif" font-size="10.00" fill="#767676">1.x&#45;dev#0adb04d as 1.0.0</text>
</g>
<!-- graphp/graphviz -->
<g id="node10" class="node">
<title>graphp/graphviz</title>
<path fill="#eeeeee" stroke="black" d="M592.08,-1096C592.08,-1096 422.08,-1096 422.08,-1096 416.08,-1096 410.08,-1090 410.08,-1084 410.08,-1084 410.08,-1072 410.08,-1072 410.08,-1066 416.08,-1060 422.08,-1060 422.08,-1060 592.08,-1060 592.08,-1060 598.08,-1060 604.08,-1066 604.08,-1072 604.08,-1072 604.08,-1084 604.08,-1084 604.08,-1090 598.08,-1096 592.08,-1096"/>
<text text-anchor="middle" x="507.08" y="-1074.3" font-family="Times,serif" font-size="14.00" fill="#314b5f">graphp/graphviz: 1.x&#45;dev</text>
</g>
<!-- bartlett/umlwriter&#45;&gt;graphp/graphviz -->
<g id="edge15" class="edge">
<title>bartlett/umlwriter&#45;&gt;graphp/graphviz</title>
<path fill="none" stroke="#1a2833" d="M101.06,-868.98C112.02,-908.45 144.02,-1002.57 209.08,-1045 264.74,-1081.3 339.06,-1089.54 399.43,-1088.7"/>
<polygon fill="#1a2833" stroke="#1a2833" points="399.84,-1092.2 409.76,-1088.47 399.68,-1085.2 399.84,-1092.2"/>
<text text-anchor="middle" x="272.58" y="-1088" font-family="Times,serif" font-size="10.00" fill="#767676">1.x&#45;dev#686f747 as 1.0.0</text>
</g>
<!-- psr/container -->
<g id="node11" class="node">
<title>psr/container</title>
<path fill="#eeeeee" stroke="black" d="M832.58,-1016C832.58,-1016 699.58,-1016 699.58,-1016 693.58,-1016 687.58,-1010 687.58,-1004 687.58,-1004 687.58,-992 687.58,-992 687.58,-986 693.58,-980 699.58,-980 699.58,-980 832.58,-980 832.58,-980 838.58,-980 844.58,-986 844.58,-992 844.58,-992 844.58,-1004 844.58,-1004 844.58,-1010 838.58,-1016 832.58,-1016"/>
<text text-anchor="middle" x="766.08" y="-994.3" font-family="Times,serif" font-size="14.00" fill="#314b5f">psr/container: 2.0.2</text>
</g>
<!-- bartlett/umlwriter&#45;&gt;psr/container -->
<g id="edge17" class="edge">
<title>bartlett/umlwriter&#45;&gt;psr/container</title>
<path fill="none" stroke="#1a2833" d="M117.86,-868.84C139.44,-885.88 174.47,-910.85 209.08,-924 366.44,-983.77 564.78,-996.56 677.02,-998.57"/>
<polygon fill="#1a2833" stroke="#1a2833" points="677.23,-1002.07 687.28,-998.72 677.34,-995.07 677.23,-1002.07"/>
<text text-anchor="middle" x="272.58" y="-964" font-family="Times,serif" font-size="10.00" fill="#767676">^2.0</text>
</g>
<!-- roave/better&#45;reflection -->
<g id="node12" class="node">
<title>roave/better&#45;reflection</title>
<path fill="#eeeeee" stroke="black" d="M610.58,-737C610.58,-737 403.58,-737 403.58,-737 397.58,-737 391.58,-731 391.58,-725 391.58,-725 391.58,-713 391.58,-713 391.58,-707 397.58,-701 403.58,-701 403.58,-701 610.58,-701 610.58,-701 616.58,-701 622.58,-707 622.58,-713 622.58,-713 622.58,-725 622.58,-725 622.58,-731 616.58,-737 610.58,-737"/>
<text text-anchor="middle" x="507.08" y="-715.3" font-family="Times,serif" font-size="14.00" fill="#314b5f">roave/better&#45;reflection: 6.25.0</text>
</g>
<!-- bartlett/umlwriter&#45;&gt;roave/better&#45;reflection -->
<g id="edge23" class="edge">
<title>bartlett/umlwriter&#45;&gt;roave/better&#45;reflection</title>
<path fill="none" stroke="#1a2833" d="M144.73,-835.47C218.05,-811.84 357.81,-766.79 440.38,-740.18"/>
<polygon fill="#1a2833" stroke="#1a2833" points="441.47,-743.5 449.91,-737.1 439.32,-736.84 441.47,-743.5"/>
<text text-anchor="middle" x="272.58" y="-814" font-family="Times,serif" font-size="10.00" fill="#767676">^6.0</text>
</g>
<!-- symfony/config -->
<g id="node17" class="node">
<title>symfony/config</title>
<path fill="#eeeeee" stroke="black" d="M583.58,-217C583.58,-217 430.58,-217 430.58,-217 424.58,-217 418.58,-211 418.58,-205 418.58,-205 418.58,-193 418.58,-193 418.58,-187 424.58,-181 430.58,-181 430.58,-181 583.58,-181 583.58,-181 589.58,-181 595.58,-187 595.58,-193 595.58,-193 595.58,-205 595.58,-205 595.58,-211 589.58,-217 583.58,-217"/>
<text text-anchor="middle" x="507.08" y="-195.3" font-family="Times,serif" font-size="14.00" fill="#314b5f">symfony/config: v6.4.7</text>
</g>
<!-- bartlett/umlwriter&#45;&gt;symfony/config -->
<g id="edge28" class="edge">
<title>bartlett/umlwriter&#45;&gt;symfony/config</title>
<path fill="none" stroke="#1a2833" d="M98.01,-832.98C103.53,-774.24 127.06,-584.67 209.08,-456 277.17,-349.19 402.83,-262.07 466.66,-222.3"/>
<polygon fill="#1a2833" stroke="#1a2833" points="468.57,-225.24 475.24,-217.01 464.89,-219.28 468.57,-225.24"/>
<text text-anchor="middle" x="272.58" y="-459" font-family="Times,serif" font-size="10.00" fill="#767676">^6.4 || ^7.0</text>
</g>
<!-- symfony/console -->
<g id="node21" class="node">
<title>symfony/console</title>
<path fill="#eeeeee" stroke="black" d="M589.08,-403C589.08,-403 425.08,-403 425.08,-403 419.08,-403 413.08,-397 413.08,-391 413.08,-391 413.08,-379 413.08,-379 413.08,-373 419.08,-367 425.08,-367 425.08,-367 589.08,-367 589.08,-367 595.08,-367 601.08,-373 601.08,-379 601.08,-379 601.08,-391 601.08,-391 601.08,-397 595.08,-403 589.08,-403"/>
<text text-anchor="middle" x="507.08" y="-381.3" font-family="Times,serif" font-size="14.00" fill="#314b5f">symfony/console: v6.4.7</text>
</g>
<!-- bartlett/umlwriter&#45;&gt;symfony/console -->
<g id="edge34" class="edge">
<title>bartlett/umlwriter&#45;&gt;symfony/console</title>
<path fill="none" stroke="#1a2833" d="M100.07,-832.71C109.92,-785.63 141.54,-658.28 209.08,-577 276.59,-495.76 387.5,-437 452.98,-407.19"/>
<polygon fill="#1a2833" stroke="#1a2833" points="454.62,-410.3 462.3,-403.01 451.75,-403.91 454.62,-410.3"/>
<text text-anchor="middle" x="272.58" y="-580" font-family="Times,serif" font-size="10.00" fill="#767676">^6.4 || ^7.0</text>
</g>
<!-- symfony/finder -->
<g id="node25" class="node">
<title>symfony/finder</title>
<path fill="#eeeeee" stroke="black" d="M842.08,-975C842.08,-975 690.08,-975 690.08,-975 684.08,-975 678.08,-969 678.08,-963 678.08,-963 678.08,-951 678.08,-951 678.08,-945 684.08,-939 690.08,-939 690.08,-939 842.08,-939 842.08,-939 848.08,-939 854.08,-945 854.08,-951 854.08,-951 854.08,-963 854.08,-963 854.08,-969 848.08,-975 842.08,-975"/>
<text text-anchor="middle" x="766.08" y="-953.3" font-family="Times,serif" font-size="14.00" fill="#314b5f">symfony/finder: v6.4.7</text>
</g>
<!-- bartlett/umlwriter&#45;&gt;symfony/finder -->
<g id="edge36" class="edge">
<title>bartlett/umlwriter&#45;&gt;symfony/finder</title>
<path fill="none" stroke="#1a2833" d="M144.16,-866.57C164.09,-872.78 187.58,-879.69 209.08,-885 366.92,-923.97 555.5,-942.74 667.5,-951.08"/>
<polygon fill="#1a2833" stroke="#1a2833" points="667.53,-954.59 677.76,-951.83 668.04,-947.61 667.53,-954.59"/>
<text text-anchor="middle" x="272.58" y="-912" font-family="Times,serif" font-size="10.00" fill="#767676">^6.4 || ^7.0</text>
</g>
<!-- symfony/options&#45;resolver -->
<g id="node26" class="node">
<title>symfony/options&#45;resolver</title>
<path fill="#eeeeee" stroke="black" d="M620.08,-531C620.08,-531 394.08,-531 394.08,-531 388.08,-531 382.08,-525 382.08,-519 382.08,-519 382.08,-507 382.08,-507 382.08,-501 388.08,-495 394.08,-495 394.08,-495 620.08,-495 620.08,-495 626.08,-495 632.08,-501 632.08,-507 632.08,-507 632.08,-519 632.08,-519 632.08,-525 626.08,-531 620.08,-531"/>
<text text-anchor="middle" x="507.08" y="-509.3" font-family="Times,serif" font-size="14.00" fill="#314b5f">symfony/options&#45;resolver: v6.4.7</text>
</g>
<!-- bartlett/umlwriter&#45;&gt;symfony/options&#45;resolver -->
<g id="edge39" class="edge">
<title>bartlett/umlwriter&#45;&gt;symfony/options&#45;resolver</title>
<path fill="none" stroke="#1a2833" d="M104.59,-833.05C120.61,-798.78 159.29,-722.99 209.08,-673 256.33,-625.57 287.86,-638.44 336.08,-592 346.21,-582.25 342.9,-574.51 354.08,-566 371.92,-552.43 393.51,-542.16 414.74,-534.45"/>
<polygon fill="#1a2833" stroke="#1a2833" points="416.15,-537.67 424.45,-531.09 413.86,-531.05 416.15,-537.67"/>
<text text-anchor="middle" x="272.58" y="-676" font-family="Times,serif" font-size="10.00" fill="#767676">^6.4 || ^7.0</text>
</g>
<!-- symfony/yaml -->
<g id="node27" class="node">
<title>symfony/yaml</title>
<path fill="#eeeeee" stroke="black" d="M579.58,-144C579.58,-144 434.58,-144 434.58,-144 428.58,-144 422.58,-138 422.58,-132 422.58,-132 422.58,-120 422.58,-120 422.58,-114 428.58,-108 434.58,-108 434.58,-108 579.58,-108 579.58,-108 585.58,-108 591.58,-114 591.58,-120 591.58,-120 591.58,-132 591.58,-132 591.58,-138 585.58,-144 579.58,-144"/>
<text text-anchor="middle" x="507.08" y="-122.3" font-family="Times,serif" font-size="14.00" fill="#314b5f">symfony/yaml: v6.4.7</text>
</g>
<!-- bartlett/umlwriter&#45;&gt;symfony/yaml -->
<g id="edge43" class="edge">
<title>bartlett/umlwriter&#45;&gt;symfony/yaml</title>
<path fill="none" stroke="#1a2833" d="M96.39,-832.68C96.57,-760.55 104.54,-491.06 209.08,-306 252.24,-229.6 277.93,-215.6 354.08,-172 372.08,-161.7 392.61,-153.48 412.65,-147.01"/>
<polygon fill="#1a2833" stroke="#1a2833" points="413.92,-150.28 422.43,-143.97 411.84,-143.6 413.92,-150.28"/>
<text text-anchor="middle" x="272.58" y="-309" font-family="Times,serif" font-size="10.00" fill="#767676">^6.4 || ^7.0</text>
</g>
<!-- jawira/plantuml -->
<g id="node28" class="node">
<title>jawira/plantuml</title>
<path fill="#eeeeee" stroke="black" d="M599.58,-36C599.58,-36 414.58,-36 414.58,-36 408.58,-36 402.58,-30 402.58,-24 402.58,-24 402.58,-12 402.58,-12 402.58,-6 408.58,0 414.58,0 414.58,0 599.58,0 599.58,0 605.58,0 611.58,-6 611.58,-12 611.58,-12 611.58,-24 611.58,-24 611.58,-30 605.58,-36 599.58,-36"/>
<text text-anchor="middle" x="507.08" y="-14.3" font-family="Times,serif" font-size="14.00" fill="#314b5f">jawira/plantuml: v1.2024.4</text>
</g>
<!-- bartlett/umlwriter&#45;&gt;jawira/plantuml -->
<g id="edge44" class="edge">
<title>bartlett/umlwriter&#45;&gt;jawira/plantuml</title>
<path fill="none" stroke="#1a2833" stroke-dasharray="5,2" d="M96.48,-832.87C96.52,-727.09 102.02,-190.42 209.08,-76 254.99,-26.94 329.14,-12.42 391.87,-10.18"/>
<polygon fill="#1a2833" stroke="#1a2833" points="392.32,-13.67 402.23,-9.91 392.14,-6.67 392.32,-13.67"/>
<text text-anchor="middle" x="272.58" y="-79" font-family="Times,serif" font-size="10.00" fill="#767676">^1.2023</text>
</g>
<!-- bamarni/composer&#45;bin&#45;plugin -->
<g id="node29" class="node">
<title>bamarni/composer&#45;bin&#45;plugin</title>
<path fill="#eeeeee" stroke="black" d="M630.58,-611C630.58,-611 383.58,-611 383.58,-611 377.58,-611 371.58,-605 371.58,-599 371.58,-599 371.58,-587 371.58,-587 371.58,-581 377.58,-575 383.58,-575 383.58,-575 630.58,-575 630.58,-575 636.58,-575 642.58,-581 642.58,-587 642.58,-587 642.58,-599 642.58,-599 642.58,-605 636.58,-611 630.58,-611"/>
<text text-anchor="middle" x="507.08" y="-589.3" font-family="Times,serif" font-size="14.00" fill="#314b5f">bamarni/composer&#45;bin&#45;plugin: 1.8.2</text>
</g>
<!-- bartlett/umlwriter&#45;&gt;bamarni/composer&#45;bin&#45;plugin -->
<g id="edge47" class="edge">
<title>bartlett/umlwriter&#45;&gt;bamarni/composer&#45;bin&#45;plugin</title>
<path fill="none" stroke="#1a2833" stroke-dasharray="5,2" d="M116.98,-833.28C139,-814.57 175.42,-784.7 209.08,-762 295,-704.07 401.92,-646.52 461.2,-615.8"/>
<polygon fill="#1a2833" stroke="#1a2833" points="463.02,-618.8 470.3,-611.1 459.81,-612.58 463.02,-618.8"/>
<text text-anchor="middle" x="272.58" y="-765" font-family="Times,serif" font-size="10.00" fill="#767676">^1.8</text>
</g>
<!-- bartlett/graph&#45;plantuml&#45;generator&#45;&gt;php -->
<g id="edge4" class="edge">
<title>bartlett/graph&#45;plantuml&#45;generator&#45;&gt;php</title>
<path fill="none" stroke="#1a2833" d="M593.74,-1227.02C750.14,-1257.84 1073.94,-1311.43 1162.08,-1247 1210.63,-1211.51 1241.9,-1024.11 1252.27,-952.16"/>
<polygon fill="#1a2833" stroke="#1a2833" points="1255.77,-952.42 1253.71,-942.03 1248.84,-951.44 1255.77,-952.42"/>
<text text-anchor="middle" x="1017.08" y="-1280" font-family="Times,serif" font-size="10.00" fill="#767676">^8.1</text>
</g>
<!-- bartlett/graph&#45;plantuml&#45;generator&#45;&gt;bartlett/graph&#45;uml -->
<g id="edge2" class="edge">
<title>bartlett/graph&#45;plantuml&#45;generator&#45;&gt;bartlett/graph&#45;uml</title>
<path fill="none" stroke="#1a2833" d="M660.16,-1196.13C740.7,-1189.31 837.63,-1181.1 909.99,-1174.98"/>
<polygon fill="#1a2833" stroke="#1a2833" points="910.37,-1178.46 920.04,-1174.13 909.78,-1171.49 910.37,-1178.46"/>
<text text-anchor="middle" x="766.08" y="-1196" font-family="Times,serif" font-size="10.00" fill="#767676">^1.5</text>
</g>
<!-- jawira/plantuml&#45;encoding -->
<g id="node5" class="node">
<title>jawira/plantuml&#45;encoding</title>
<path fill="#eeeeee" stroke="black" d="M1130.58,-1238C1130.58,-1238 903.58,-1238 903.58,-1238 897.58,-1238 891.58,-1232 891.58,-1226 891.58,-1226 891.58,-1214 891.58,-1214 891.58,-1208 897.58,-1202 903.58,-1202 903.58,-1202 1130.58,-1202 1130.58,-1202 1136.58,-1202 1142.58,-1208 1142.58,-1214 1142.58,-1214 1142.58,-1226 1142.58,-1226 1142.58,-1232 1136.58,-1238 1130.58,-1238"/>
<text text-anchor="middle" x="1017.08" y="-1216.3" font-family="Times,serif" font-size="14.00" fill="#314b5f">jawira/plantuml&#45;encoding: v1.1.0</text>
</g>
<!-- bartlett/graph&#45;plantuml&#45;generator&#45;&gt;jawira/plantuml&#45;encoding -->
<g id="edge3" class="edge">
<title>bartlett/graph&#45;plantuml&#45;generator&#45;&gt;jawira/plantuml&#45;encoding</title>
<path fill="none" stroke="#1a2833" d="M660.16,-1212.29C730.36,-1213.81 813.02,-1215.6 881,-1217.07"/>
<polygon fill="#1a2833" stroke="#1a2833" points="881.28,-1220.58 891.35,-1217.3 881.43,-1213.58 881.28,-1220.58"/>
<text text-anchor="middle" x="766.08" y="-1219" font-family="Times,serif" font-size="10.00" fill="#767676">^1.0</text>
</g>
<!-- cweagans/composer&#45;patches&#45;&gt;php -->
<g id="edge9" class="edge">
<title>cweagans/composer&#45;patches&#45;&gt;php</title>
<path fill="none" stroke="#1a2833" d="M636.5,-904.02C650.51,-905.57 664.58,-906.94 678.08,-908 882.41,-924.01 1128.46,-924.66 1219.72,-924.27"/>
<polygon fill="#1a2833" stroke="#1a2833" points="1219.84,-927.77 1229.82,-924.22 1219.8,-920.77 1219.84,-927.77"/>
<text text-anchor="middle" x="1017.08" y="-927" font-family="Times,serif" font-size="10.00" fill="#767676">&gt;=5.3.0</text>
</g>
<!-- composer&#45;plugin&#45;api -->
<g id="node8" class="node">
<title>composer&#45;plugin&#45;api</title>
<path fill="#eeeeee" stroke="black" d="M1085.58,-780C1085.58,-780 948.58,-780 948.58,-780 942.58,-780 936.58,-774 936.58,-768 936.58,-768 936.58,-756 936.58,-756 936.58,-750 942.58,-744 948.58,-744 948.58,-744 1085.58,-744 1085.58,-744 1091.58,-744 1097.58,-750 1097.58,-756 1097.58,-756 1097.58,-768 1097.58,-768 1097.58,-774 1091.58,-780 1085.58,-780"/>
<text text-anchor="middle" x="1017.08" y="-758.3" font-family="Times,serif" font-size="14.00" fill="#314b5f">composer&#45;plugin&#45;api</text>
</g>
<!-- cweagans/composer&#45;patches&#45;&gt;composer&#45;plugin&#45;api -->
<g id="edge8" class="edge">
<title>cweagans/composer&#45;patches&#45;&gt;composer&#45;plugin&#45;api</title>
<path fill="none" stroke="#1a2833" d="M639.68,-893.31C723.53,-895.07 822.19,-890.83 854.08,-864 880.32,-841.93 847.24,-812.62 872.08,-789 886.89,-774.92 906.59,-767.01 926.65,-762.8"/>
<polygon fill="#1a2833" stroke="#1a2833" points="927.29,-766.24 936.51,-761.01 926.05,-759.35 927.29,-766.24"/>
<text text-anchor="middle" x="766.08" y="-896" font-family="Times,serif" font-size="10.00" fill="#767676">^1.0 || ^2.0</text>
</g>
<!-- graphp/graph&#45;&gt;php -->
<g id="edge11" class="edge">
<title>graphp/graph&#45;&gt;php</title>
<path fill="none" stroke="#1a2833" d="M1104.36,-1068.19C1141.01,-1065.34 1182.11,-1056.05 1212.08,-1032 1236.54,-1012.38 1247.51,-976.97 1252.36,-952.06"/>
<polygon fill="#1a2833" stroke="#1a2833" points="1255.83,-952.55 1254.08,-942.1 1248.93,-951.36 1255.83,-952.55"/>
<text text-anchor="middle" x="1196.08" y="-1053" font-family="Times,serif" font-size="10.00" fill="#767676">&gt;=5.3</text>
</g>
<!-- graphp/graphviz&#45;&gt;php -->
<g id="edge14" class="edge">
<title>graphp/graphviz&#45;&gt;php</title>
<path fill="none" stroke="#1a2833" d="M604.1,-1095.77C733.19,-1116.14 968.85,-1140.84 1162.08,-1092 1186.57,-1085.81 1196.03,-1084.49 1212.08,-1065 1239.07,-1032.25 1249.55,-982.92 1253.59,-952.13"/>
<polygon fill="#1a2833" stroke="#1a2833" points="1257.08,-952.41 1254.77,-942.07 1250.13,-951.6 1257.08,-952.41"/>
<text text-anchor="middle" x="1017.08" y="-1123" font-family="Times,serif" font-size="10.00" fill="#767676">&gt;=5.3.0</text>
</g>
<!-- graphp/graphviz&#45;&gt;graphp/graph -->
<g id="edge13" class="edge">
<title>graphp/graphviz&#45;&gt;graphp/graph</title>
<path fill="none" stroke="#1a2833" d="M604.23,-1075.54C694.66,-1073.23 829.32,-1069.78 919.8,-1067.46"/>
<polygon fill="#1a2833" stroke="#1a2833" points="920.15,-1070.96 930.06,-1067.2 919.97,-1063.96 920.15,-1070.96"/>
<text text-anchor="middle" x="766.08" y="-1076" font-family="Times,serif" font-size="10.00" fill="#767676">^1@dev</text>
</g>
<!-- psr/container&#45;&gt;php -->
<g id="edge16" class="edge">
<title>psr/container&#45;&gt;php</title>
<path fill="none" stroke="#1a2833" d="M844.64,-1001.16C925.09,-1002.66 1054.01,-1000.06 1162.08,-975 1183.8,-969.96 1205.82,-958.43 1223.09,-947.61"/>
<polygon fill="#1a2833" stroke="#1a2833" points="1225.17,-950.43 1231.66,-942.05 1221.36,-944.55 1225.17,-950.43"/>
<text text-anchor="middle" x="1017.08" y="-1004" font-family="Times,serif" font-size="10.00" fill="#767676">&gt;=7.4.0</text>
</g>
<!-- roave/better&#45;reflection&#45;&gt;php -->
<g id="edge21" class="edge">
<title>roave/better&#45;reflection&#45;&gt;php</title>
<path fill="none" stroke="#1a2833" d="M568.58,-700.9C601.01,-691.27 641.68,-679.33 678.08,-669 764.07,-644.61 783.49,-627.88 872.08,-616 999.83,-598.86 1058.49,-539.31 1162.08,-616 1207.93,-649.94 1240.42,-825.51 1251.71,-895.32"/>
<polygon fill="#1a2833" stroke="#1a2833" points="1248.31,-896.25 1253.34,-905.58 1255.23,-895.16 1248.31,-896.25"/>
<text text-anchor="middle" x="1017.08" y="-619" font-family="Times,serif" font-size="10.00" fill="#767676">~8.1.0 || ~8.2.0 || ~8.3.2</text>
</g>
<!-- ext&#45;json -->
<g id="node13" class="node">
<title>ext&#45;json</title>
<path fill="#eeeeee" stroke="black" d="M1041.58,-834C1041.58,-834 992.58,-834 992.58,-834 986.58,-834 980.58,-828 980.58,-822 980.58,-822 980.58,-810 980.58,-810 980.58,-804 986.58,-798 992.58,-798 992.58,-798 1041.58,-798 1041.58,-798 1047.58,-798 1053.58,-804 1053.58,-810 1053.58,-810 1053.58,-822 1053.58,-822 1053.58,-828 1047.58,-834 1041.58,-834"/>
<text text-anchor="middle" x="1017.08" y="-812.3" font-family="Times,serif" font-size="14.00" fill="#314b5f">ext&#45;json</text>
</g>
<!-- roave/better&#45;reflection&#45;&gt;ext&#45;json -->
<g id="edge18" class="edge">
<title>roave/better&#45;reflection&#45;&gt;ext&#45;json</title>
<path fill="none" stroke="#1a2833" d="M601.2,-737.03C674.73,-751.24 779.94,-771.5 872.08,-789 905.02,-795.26 942.22,-802.23 970.55,-807.52"/>
<polygon fill="#1a2833" stroke="#1a2833" points="970.1,-810.99 980.57,-809.39 971.38,-804.11 970.1,-810.99"/>
<text text-anchor="middle" x="766.08" y="-788" font-family="Times,serif" font-size="10.00" fill="#767676">*</text>
</g>
<!-- jetbrains/phpstorm&#45;stubs -->
<g id="node14" class="node">
<title>jetbrains/phpstorm&#45;stubs</title>
<path fill="#eeeeee" stroke="black" d="M1137.08,-726C1137.08,-726 897.08,-726 897.08,-726 891.08,-726 885.08,-720 885.08,-714 885.08,-714 885.08,-702 885.08,-702 885.08,-696 891.08,-690 897.08,-690 897.08,-690 1137.08,-690 1137.08,-690 1143.08,-690 1149.08,-696 1149.08,-702 1149.08,-702 1149.08,-714 1149.08,-714 1149.08,-720 1143.08,-726 1137.08,-726"/>
<text text-anchor="middle" x="1017.08" y="-704.3" font-family="Times,serif" font-size="14.00" fill="#314b5f">jetbrains/phpstorm&#45;stubs: v2023.3</text>
</g>
<!-- roave/better&#45;reflection&#45;&gt;jetbrains/phpstorm&#45;stubs -->
<g id="edge19" class="edge">
<title>roave/better&#45;reflection&#45;&gt;jetbrains/phpstorm&#45;stubs</title>
<path fill="none" stroke="#1a2833" d="M622.72,-716.52C697.37,-714.9 795.28,-712.78 874.74,-711.06"/>
<polygon fill="#1a2833" stroke="#1a2833" points="874.91,-714.56 884.83,-710.84 874.76,-707.56 874.91,-714.56"/>
<text text-anchor="middle" x="766.08" y="-718" font-family="Times,serif" font-size="10.00" fill="#767676">2023.3</text>
</g>
<!-- nikic/php&#45;parser -->
<g id="node15" class="node">
<title>nikic/php&#45;parser</title>
<path fill="#eeeeee" stroke="black" d="M1102.58,-672C1102.58,-672 931.58,-672 931.58,-672 925.58,-672 919.58,-666 919.58,-660 919.58,-660 919.58,-648 919.58,-648 919.58,-642 925.58,-636 931.58,-636 931.58,-636 1102.58,-636 1102.58,-636 1108.58,-636 1114.58,-642 1114.58,-648 1114.58,-648 1114.58,-660 1114.58,-660 1114.58,-666 1108.58,-672 1102.58,-672"/>
<text text-anchor="middle" x="1017.08" y="-650.3" font-family="Times,serif" font-size="14.00" fill="#314b5f">nikic/php&#45;parser: v4.19.1</text>
</g>
<!-- roave/better&#45;reflection&#45;&gt;nikic/php&#45;parser -->
<g id="edge20" class="edge">
<title>roave/better&#45;reflection&#45;&gt;nikic/php&#45;parser</title>
<path fill="none" stroke="#1a2833" d="M622.82,-703.3C641.3,-700.83 660.21,-698.32 678.08,-696 755.47,-685.96 842.9,-675.11 909.45,-666.95"/>
<polygon fill="#1a2833" stroke="#1a2833" points="910.03,-670.41 919.53,-665.72 909.17,-663.46 910.03,-670.41"/>
<text text-anchor="middle" x="766.08" y="-699" font-family="Times,serif" font-size="10.00" fill="#767676">^4.18.0</text>
</g>
<!-- roave/signature -->
<g id="node16" class="node">
<title>roave/signature</title>
<path fill="#eeeeee" stroke="black" d="M1092.08,-888C1092.08,-888 942.08,-888 942.08,-888 936.08,-888 930.08,-882 930.08,-876 930.08,-876 930.08,-864 930.08,-864 930.08,-858 936.08,-852 942.08,-852 942.08,-852 1092.08,-852 1092.08,-852 1098.08,-852 1104.08,-858 1104.08,-864 1104.08,-864 1104.08,-876 1104.08,-876 1104.08,-882 1098.08,-888 1092.08,-888"/>
<text text-anchor="middle" x="1017.08" y="-866.3" font-family="Times,serif" font-size="14.00" fill="#314b5f">roave/signature: 1.8.0</text>
</g>
<!-- roave/better&#45;reflection&#45;&gt;roave/signature -->
<g id="edge22" class="edge">
<title>roave/better&#45;reflection&#45;&gt;roave/signature</title>
<path fill="none" stroke="#1a2833" d="M540.38,-737.11C573.9,-755.25 628.31,-782.87 678.08,-800 761.59,-828.73 785.56,-825.3 872.08,-843 887.56,-846.17 904,-849.38 920.03,-852.44"/>
<polygon fill="#1a2833" stroke="#1a2833" points="919.47,-855.9 929.95,-854.33 920.78,-849.02 919.47,-855.9"/>
<text text-anchor="middle" x="766.08" y="-842" font-family="Times,serif" font-size="10.00" fill="#767676">^1.8.0</text>
</g>
<!-- symfony/config&#45;&gt;php -->
<g id="edge24" class="edge">
<title>symfony/config&#45;&gt;php</title>
<path fill="none" stroke="#1a2833" d="M595.6,-186.83C763.98,-164.36 1120.17,-121.85 1162.08,-158 1219.19,-207.26 1248.56,-762.48 1254.81,-895.49"/>
<polygon fill="#1a2833" stroke="#1a2833" points="1251.32,-895.86 1255.28,-905.69 1258.31,-895.54 1251.32,-895.86"/>
<text text-anchor="middle" x="1017.08" y="-161" font-family="Times,serif" font-size="10.00" fill="#767676">&gt;=8.1</text>
</g>
<!-- symfony/deprecation&#45;contracts -->
<g id="node18" class="node">
<title>symfony/deprecation&#45;contracts</title>
<path fill="#eeeeee" stroke="black" d="M1150.08,-322C1150.08,-322 884.08,-322 884.08,-322 878.08,-322 872.08,-316 872.08,-310 872.08,-310 872.08,-298 872.08,-298 872.08,-292 878.08,-286 884.08,-286 884.08,-286 1150.08,-286 1150.08,-286 1156.08,-286 1162.08,-292 1162.08,-298 1162.08,-298 1162.08,-310 1162.08,-310 1162.08,-316 1156.08,-322 1150.08,-322"/>
<text text-anchor="middle" x="1017.08" y="-300.3" font-family="Times,serif" font-size="14.00" fill="#314b5f">symfony/deprecation&#45;contracts: v3.5.0</text>
</g>
<!-- symfony/config&#45;&gt;symfony/deprecation&#45;contracts -->
<g id="edge25" class="edge">
<title>symfony/config&#45;&gt;symfony/deprecation&#45;contracts</title>
<path fill="none" stroke="#1a2833" d="M595.94,-205.64C695.02,-213.47 843.79,-226.37 854.08,-234 870.73,-246.33 855.97,-263.98 872.08,-277 873.48,-278.13 874.9,-279.21 876.36,-280.26"/>
<polygon fill="#1a2833" stroke="#1a2833" points="874.7,-283.35 885,-285.81 878.48,-277.46 874.7,-283.35"/>
<text text-anchor="middle" x="766.08" y="-237" font-family="Times,serif" font-size="10.00" fill="#767676">^2.5|^3</text>
</g>
<!-- symfony/filesystem -->
<g id="node19" class="node">
<title>symfony/filesystem</title>
<path fill="#eeeeee" stroke="black" d="M1108.58,-214C1108.58,-214 925.58,-214 925.58,-214 919.58,-214 913.58,-208 913.58,-202 913.58,-202 913.58,-190 913.58,-190 913.58,-184 919.58,-178 925.58,-178 925.58,-178 1108.58,-178 1108.58,-178 1114.58,-178 1120.58,-184 1120.58,-190 1120.58,-190 1120.58,-202 1120.58,-202 1120.58,-208 1114.58,-214 1108.58,-214"/>
<text text-anchor="middle" x="1017.08" y="-192.3" font-family="Times,serif" font-size="14.00" fill="#314b5f">symfony/filesystem: v6.4.7</text>
</g>
<!-- symfony/config&#45;&gt;symfony/filesystem -->
<g id="edge26" class="edge">
<title>symfony/config&#45;&gt;symfony/filesystem</title>
<path fill="none" stroke="#1a2833" d="M595.7,-198.48C680.78,-197.98 810.34,-197.22 903.12,-196.67"/>
<polygon fill="#1a2833" stroke="#1a2833" points="903.42,-200.17 913.4,-196.61 903.38,-193.17 903.42,-200.17"/>
<text text-anchor="middle" x="766.08" y="-200" font-family="Times,serif" font-size="10.00" fill="#767676">^5.4|^6.0|^7.0</text>
</g>
<!-- symfony/polyfill&#45;ctype -->
<g id="node20" class="node">
<title>symfony/polyfill&#45;ctype</title>
<path fill="#eeeeee" stroke="black" d="M1122.58,-110C1122.58,-110 911.58,-110 911.58,-110 905.58,-110 899.58,-104 899.58,-98 899.58,-98 899.58,-86 899.58,-86 899.58,-80 905.58,-74 911.58,-74 911.58,-74 1122.58,-74 1122.58,-74 1128.58,-74 1134.58,-80 1134.58,-86 1134.58,-86 1134.58,-98 1134.58,-98 1134.58,-104 1128.58,-110 1122.58,-110"/>
<text text-anchor="middle" x="1017.08" y="-88.3" font-family="Times,serif" font-size="14.00" fill="#314b5f">symfony/polyfill&#45;ctype: v1.29.0</text>
</g>
<!-- symfony/config&#45;&gt;symfony/polyfill&#45;ctype -->
<g id="edge27" class="edge">
<title>symfony/config&#45;&gt;symfony/polyfill&#45;ctype</title>
<path fill="none" stroke="#1a2833" d="M583.55,-180.9C608.5,-173.69 636.02,-164.36 660.08,-153 668.78,-148.9 669.08,-144.38 678.08,-141 751.94,-113.29 776.02,-129.36 854.08,-118 867.69,-116.02 881.93,-113.86 896.08,-111.66"/>
<polygon fill="#1a2833" stroke="#1a2833" points="897.01,-115.06 906.35,-110.06 895.93,-108.14 897.01,-115.06"/>
<text text-anchor="middle" x="766.08" y="-144" font-family="Times,serif" font-size="10.00" fill="#767676">~1.8</text>
</g>
<!-- symfony/console&#45;&gt;php -->
<g id="edge29" class="edge">
<title>symfony/console&#45;&gt;php</title>
<path fill="none" stroke="#1a2833" d="M597.51,-403.06C623.46,-408.11 651.87,-413.45 678.08,-418 785.29,-436.59 1061.09,-451.52 1162.08,-492 1187.26,-502.09 1198.25,-503.67 1212.08,-527 1249.07,-589.38 1254.99,-814.85 1255.92,-895.26"/>
<polygon fill="#1a2833" stroke="#1a2833" points="1252.42,-895.65 1256.02,-905.61 1259.42,-895.58 1252.42,-895.65"/>
<text text-anchor="middle" x="1017.08" y="-495" font-family="Times,serif" font-size="10.00" fill="#767676">&gt;=8.1</text>
</g>
<!-- symfony/console&#45;&gt;symfony/deprecation&#45;contracts -->
<g id="edge30" class="edge">
<title>symfony/console&#45;&gt;symfony/deprecation&#45;contracts</title>
<path fill="none" stroke="#1a2833" d="M593.08,-366.97C620.18,-361.5 650.34,-355.7 678.08,-351 738.27,-340.81 804.77,-331.2 862.74,-323.37"/>
<polygon fill="#1a2833" stroke="#1a2833" points="863.27,-326.83 872.71,-322.03 862.33,-319.89 863.27,-326.83"/>
<text text-anchor="middle" x="766.08" y="-354" font-family="Times,serif" font-size="10.00" fill="#767676">^2.5|^3</text>
</g>
<!-- symfony/polyfill&#45;mbstring -->
<g id="node22" class="node">
<title>symfony/polyfill&#45;mbstring</title>
<path fill="#eeeeee" stroke="black" d="M1135.58,-430C1135.58,-430 898.58,-430 898.58,-430 892.58,-430 886.58,-424 886.58,-418 886.58,-418 886.58,-406 886.58,-406 886.58,-400 892.58,-394 898.58,-394 898.58,-394 1135.58,-394 1135.58,-394 1141.58,-394 1147.58,-400 1147.58,-406 1147.58,-406 1147.58,-418 1147.58,-418 1147.58,-424 1141.58,-430 1135.58,-430"/>
<text text-anchor="middle" x="1017.08" y="-408.3" font-family="Times,serif" font-size="14.00" fill="#314b5f">symfony/polyfill&#45;mbstring: v1.29.0</text>
</g>
<!-- symfony/console&#45;&gt;symfony/polyfill&#45;mbstring -->
<g id="edge31" class="edge">
<title>symfony/console&#45;&gt;symfony/polyfill&#45;mbstring</title>
<path fill="none" stroke="#1a2833" d="M601.26,-389.95C678.21,-394.04 788.61,-399.91 876.18,-404.56"/>
<polygon fill="#1a2833" stroke="#1a2833" points="876.03,-408.06 886.2,-405.1 876.4,-401.07 876.03,-408.06"/>
<text text-anchor="middle" x="766.08" y="-406" font-family="Times,serif" font-size="10.00" fill="#767676">~1.0</text>
</g>
<!-- symfony/service&#45;contracts -->
<g id="node23" class="node">
<title>symfony/service&#45;contracts</title>
<path fill="#eeeeee" stroke="black" d="M1133.58,-376C1133.58,-376 900.58,-376 900.58,-376 894.58,-376 888.58,-370 888.58,-364 888.58,-364 888.58,-352 888.58,-352 888.58,-346 894.58,-340 900.58,-340 900.58,-340 1133.58,-340 1133.58,-340 1139.58,-340 1145.58,-346 1145.58,-352 1145.58,-352 1145.58,-364 1145.58,-364 1145.58,-370 1139.58,-376 1133.58,-376"/>
<text text-anchor="middle" x="1017.08" y="-354.3" font-family="Times,serif" font-size="14.00" fill="#314b5f">symfony/service&#45;contracts: v3.5.0</text>
</g>
<!-- symfony/console&#45;&gt;symfony/service&#45;contracts -->
<g id="edge32" class="edge">
<title>symfony/console&#45;&gt;symfony/service&#45;contracts</title>
<path fill="none" stroke="#1a2833" d="M601.26,-380.05C678.76,-375.93 790.2,-370.01 878.06,-365.34"/>
<polygon fill="#1a2833" stroke="#1a2833" points="878.31,-368.83 888.11,-364.8 877.94,-361.84 878.31,-368.83"/>
<text text-anchor="middle" x="766.08" y="-378" font-family="Times,serif" font-size="10.00" fill="#767676">^2.5|^3</text>
</g>
<!-- symfony/string -->
<g id="node24" class="node">
<title>symfony/string</title>
<path fill="#eeeeee" stroke="black" d="M1093.58,-268C1093.58,-268 940.58,-268 940.58,-268 934.58,-268 928.58,-262 928.58,-256 928.58,-256 928.58,-244 928.58,-244 928.58,-238 934.58,-232 940.58,-232 940.58,-232 1093.58,-232 1093.58,-232 1099.58,-232 1105.58,-238 1105.58,-244 1105.58,-244 1105.58,-256 1105.58,-256 1105.58,-262 1099.58,-268 1093.58,-268"/>
<text text-anchor="middle" x="1017.08" y="-246.3" font-family="Times,serif" font-size="14.00" fill="#314b5f">symfony/string: v6.4.7</text>
</g>
<!-- symfony/console&#45;&gt;symfony/string -->
<g id="edge33" class="edge">
<title>symfony/console&#45;&gt;symfony/string</title>
<path fill="none" stroke="#1a2833" d="M541.95,-366.84C575.59,-349.54 629.08,-323.98 678.08,-309 757.19,-284.82 849.94,-269.51 918.24,-260.57"/>
<polygon fill="#1a2833" stroke="#1a2833" points="919.09,-263.99 928.56,-259.24 918.2,-257.04 919.09,-263.99"/>
<text text-anchor="middle" x="766.08" y="-312" font-family="Times,serif" font-size="10.00" fill="#767676">^5.4|^6.0|^7.0</text>
</g>
<!-- symfony/finder&#45;&gt;php -->
<g id="edge35" class="edge">
<title>symfony/finder&#45;&gt;php</title>
<path fill="none" stroke="#1a2833" d="M854.38,-960.06C944.64,-961.64 1089.31,-959.75 1212.08,-938 1214.73,-937.53 1217.44,-936.94 1220.15,-936.28"/>
<polygon fill="#1a2833" stroke="#1a2833" points="1221.14,-939.64 1229.84,-933.6 1219.27,-932.89 1221.14,-939.64"/>
<text text-anchor="middle" x="1017.08" y="-963" font-family="Times,serif" font-size="10.00" fill="#767676">&gt;=8.1</text>
</g>
<!-- symfony/options&#45;resolver&#45;&gt;php -->
<g id="edge37" class="edge">
<title>symfony/options&#45;resolver&#45;&gt;php</title>
<path fill="none" stroke="#1a2833" d="M632.42,-510.08C808.52,-506.68 1114.56,-503.75 1162.08,-523 1190.35,-534.45 1198.27,-542.81 1212.08,-570 1240.96,-626.85 1251.85,-821.3 1255.01,-895.19"/>
<polygon fill="#1a2833" stroke="#1a2833" points="1251.53,-895.74 1255.43,-905.59 1258.52,-895.45 1251.53,-895.74"/>
<text text-anchor="middle" x="1017.08" y="-526" font-family="Times,serif" font-size="10.00" fill="#767676">&gt;=8.1</text>
</g>
<!-- symfony/options&#45;resolver&#45;&gt;symfony/deprecation&#45;contracts -->
<g id="edge38" class="edge">
<title>symfony/options&#45;resolver&#45;&gt;symfony/deprecation&#45;contracts</title>
<path fill="none" stroke="#1a2833" d="M621.37,-494.99C709.58,-478.66 822.23,-451.96 854.08,-418 881.1,-389.2 843.9,-358.66 872.08,-331 873.03,-330.07 873.99,-329.17 874.98,-328.3"/>
<polygon fill="#1a2833" stroke="#1a2833" points="877.19,-331.01 882.9,-322.09 872.87,-325.5 877.19,-331.01"/>
<text text-anchor="middle" x="766.08" y="-486" font-family="Times,serif" font-size="10.00" fill="#767676">^2.5|^3</text>
</g>
<!-- symfony/yaml&#45;&gt;php -->
<g id="edge40" class="edge">
<title>symfony/yaml&#45;&gt;php</title>
<path fill="none" stroke="#1a2833" d="M591.82,-126.2C616.02,-122.52 641.02,-114.63 660.08,-99 677.06,-85.08 659.95,-65.38 678.08,-53 725.37,-20.73 1083.49,0.89 1162.08,-54 1214.54,-90.64 1198.92,-126.39 1212.08,-189 1241.26,-327.76 1252.91,-777.98 1255.5,-895.65"/>
<polygon fill="#1a2833" stroke="#1a2833" points="1252.01,-896.05 1255.72,-905.98 1259.01,-895.9 1252.01,-896.05"/>
<text text-anchor="middle" x="1017.08" y="-57" font-family="Times,serif" font-size="10.00" fill="#767676">&gt;=8.1</text>
</g>
<!-- symfony/yaml&#45;&gt;symfony/deprecation&#45;contracts -->
<g id="edge41" class="edge">
<title>symfony/yaml&#45;&gt;symfony/deprecation&#45;contracts</title>
<path fill="none" stroke="#1a2833" d="M591.77,-113.59C619.2,-110.07 649.89,-106.74 678.08,-105 717.12,-102.6 825.02,-78.82 854.08,-105 882.64,-130.72 846.03,-248.75 872.08,-277 872.74,-277.72 873.42,-278.42 874.1,-279.1"/>
<polygon fill="#1a2833" stroke="#1a2833" points="872.03,-281.94 881.87,-285.88 876.64,-276.67 872.03,-281.94"/>
<text text-anchor="middle" x="766.08" y="-108" font-family="Times,serif" font-size="10.00" fill="#767676">^2.5|^3</text>
</g>
<!-- symfony/yaml&#45;&gt;symfony/polyfill&#45;ctype -->
<g id="edge42" class="edge">
<title>symfony/yaml&#45;&gt;symfony/polyfill&#45;ctype</title>
<path fill="none" stroke="#1a2833" d="M591.72,-123.03C615.24,-119.15 639.89,-111.96 660.08,-99 671.91,-91.41 665.63,-79.52 678.08,-73 747.37,-36.7 775.99,-68.44 854.08,-73 865.57,-73.67 877.49,-74.61 889.41,-75.71"/>
<polygon fill="#1a2833" stroke="#1a2833" points="889.14,-79.2 899.42,-76.67 889.8,-72.23 889.14,-79.2"/>
<text text-anchor="middle" x="766.08" y="-76" font-family="Times,serif" font-size="10.00" fill="#767676">^1.8</text>
</g>
<!-- bamarni/composer&#45;bin&#45;plugin&#45;&gt;php -->
<g id="edge46" class="edge">
<title>bamarni/composer&#45;bin&#45;plugin&#45;&gt;php</title>
<path fill="none" stroke="#1a2833" d="M616.09,-574.99C776.84,-550.32 1070.02,-514.23 1162.08,-562 1196.34,-579.78 1197.7,-597.18 1212.08,-633 1248.68,-724.16 1255.13,-842.52 1256.07,-895.81"/>
<polygon fill="#1a2833" stroke="#1a2833" points="1252.57,-895.91 1256.19,-905.87 1259.57,-895.83 1252.57,-895.91"/>
<text text-anchor="middle" x="1017.08" y="-565" font-family="Times,serif" font-size="10.00" fill="#767676">^7.2.5 || ^8.0</text>
</g>
<!-- bamarni/composer&#45;bin&#45;plugin&#45;&gt;composer&#45;plugin&#45;api -->
<g id="edge45" class="edge">
<title>bamarni/composer&#45;bin&#45;plugin&#45;&gt;composer&#45;plugin&#45;api</title>
<path fill="none" stroke="#1a2833" d="M642.95,-585.11C714.43,-588.31 798.67,-604.97 854.08,-658 879.47,-682.3 846.69,-710.71 872.08,-735 886.85,-749.13 906.54,-757.05 926.59,-761.26"/>
<polygon fill="#1a2833" stroke="#1a2833" points="925.99,-764.71 936.45,-763.05 927.23,-757.82 925.99,-764.71"/>
<text text-anchor="middle" x="766.08" y="-661" font-family="Times,serif" font-size="10.00" fill="#767676">^2.0</text>
</g>
</g>
</svg>
