<?xml version="1.0" encoding="UTF-8" standalone="no"?>
<!DOCTYPE svg PUBLIC "-//W3C//DTD SVG 1.1//EN"
 "http://www.w3.org/Graphics/SVG/1.1/DTD/svg11.dtd">
<!-- Generated by graphviz version 2.43.0 (0)
 -->
<!-- Title: %3 Pages: 1 -->
<svg width="773pt" height="256pt"
 viewBox="0.00 0.00 773.00 256.00" xmlns="http://www.w3.org/2000/svg" xmlns:xlink="http://www.w3.org/1999/xlink">
<g id="graph0" class="graph" transform="scale(1 1) rotate(0) translate(4 252)">
<title>%3</title>
<g id="clust1" class="cluster">
<title>cluster_0</title>
<polygon fill="BurlyWood" stroke="black" points="8,-115 8,-240 757,-240 757,-115 8,-115"/>
<text text-anchor="middle" x="382.5" y="-224.8" font-family="Times,serif" font-size="14.00">Bartlett\UmlWriter\Service</text>
</g>
<g id="clust2" class="cluster">
<title>cluster_1</title>
<polygon fill="transparent" stroke="black" points="582,-8 582,-107 750,-107 750,-8 582,-8"/>
<text text-anchor="middle" x="666" y="-91.8" font-family="Times,serif" font-size="14.00">Psr\Container</text>
</g>
<!-- Bartlett\\UmlWriter\\Service\\ContainerService -->
<g id="node1" class="node">
<title>Bartlett\\UmlWriter\\Service\\ContainerService</title>
<polygon fill="#fefece" stroke="transparent" points="749.5,-209 582.5,-209 582.5,-123 749.5,-123 749.5,-209"/>
<polygon fill="#eeeeee" stroke="transparent" points="583,-187 583,-209 750,-209 750,-187 583,-187"/>
<polygon fill="none" stroke="black" points="583,-187 583,-209 750,-209 750,-187 583,-187"/>
<text text-anchor="start" x="627.5" y="-192.6" font-family="Verdana" font-weight="bold" font-size="8.00">ContainerService</text>
<polygon fill="none" stroke="black" points="583,-181 583,-187 750,-187 750,-181 583,-181"/>
<polygon fill="none" stroke="black" points="583,-123 583,-181 750,-181 750,-123 583,-123"/>
<text text-anchor="start" x="588" y="-169.6" font-family="Verdana" font-size="8.00">+ __construct()</text>
<text text-anchor="start" x="588" y="-156.6" font-family="Verdana" font-size="8.00">+ set(id : string, service : mixed) : void</text>
<text text-anchor="start" x="588" y="-143.6" font-family="Verdana" font-size="8.00">+ get(id : string) : ?mixed</text>
<text text-anchor="start" x="588" y="-130.6" font-family="Verdana" font-size="8.00">+ has(id : string) : bool</text>
</g>
<!-- Psr\\Container\\ContainerInterface -->
<g id="node3" class="node">
<title>Psr\\Container\\ContainerInterface</title>
<polygon fill="#fefece" stroke="transparent" points="741.5,-76 590.5,-76 590.5,-16 741.5,-16 741.5,-76"/>
<polygon fill="#eeeeee" stroke="transparent" points="591,-54 591,-76 742,-76 742,-54 591,-54"/>
<polygon fill="none" stroke="black" points="591,-54 591,-76 742,-76 742,-54 591,-54"/>
<text text-anchor="start" x="640.5" y="-67.6" font-family="Verdana" font-weight="bold" font-size="8.00">«interface»</text>
<text text-anchor="start" x="624" y="-59.6" font-family="Verdana" font-weight="bold" font-size="8.00">ContainerInterface</text>
<polygon fill="none" stroke="black" points="591,-48 591,-54 742,-54 742,-48 591,-48"/>
<polygon fill="none" stroke="black" points="591,-16 591,-48 742,-48 742,-16 591,-16"/>
<text text-anchor="start" x="596" y="-36.6" font-family="Verdana" font-size="8.00">+ «abstract» get(id : string)</text>
<text text-anchor="start" x="596" y="-23.6" font-family="Verdana" font-size="8.00">+ «abstract» has(id : string) : bool</text>
</g>
<!-- Bartlett\\UmlWriter\\Service\\ContainerService&#45;&gt;Psr\\Container\\ContainerInterface -->
<g id="edge1" class="edge">
<title>Bartlett\\UmlWriter\\Service\\ContainerService&#45;&gt;Psr\\Container\\ContainerInterface</title>
<path fill="none" stroke="black" stroke-dasharray="5,2" d="M666,-122.73C666,-110.88 666,-98.06 666,-86.38"/>
<polygon fill="none" stroke="black" points="669.5,-86.05 666,-76.05 662.5,-86.05 669.5,-86.05"/>
</g>
<!-- Bartlett\\UmlWriter\\Service\\ClassDiagramRenderer -->
<g id="node2" class="node">
<title>Bartlett\\UmlWriter\\Service\\ClassDiagramRenderer</title>
<polygon fill="#fefece" stroke="transparent" points="564,-196 16,-196 16,-136 564,-136 564,-196"/>
<polygon fill="#eeeeee" stroke="transparent" points="16,-174 16,-196 564,-196 564,-174 16,-174"/>
<polygon fill="none" stroke="black" points="16,-174 16,-196 564,-196 564,-174 16,-174"/>
<text text-anchor="start" x="238.5" y="-179.6" font-family="Verdana" font-weight="bold" font-size="8.00">ClassDiagramRenderer</text>
<polygon fill="none" stroke="black" points="16,-168 16,-174 564,-174 564,-168 16,-168"/>
<polygon fill="none" stroke="black" points="16,-136 16,-168 564,-168 564,-136 16,-136"/>
<text text-anchor="start" x="21" y="-156.6" font-family="Verdana" font-size="8.00">+ __invoke(datasource, generator : Bartlett\GraphUml\Generator\GeneratorInterface, parameters : array = []) : Graphp\Graph\Graph</text>
<text text-anchor="start" x="21" y="-143.6" font-family="Verdana" font-size="8.00">+ getMetadata() : array</text>
</g>
</g>
</svg>
