<?xml version="1.0" encoding="UTF-8" standalone="no"?>
<!DOCTYPE svg PUBLIC "-//W3C//DTD SVG 1.1//EN"
 "http://www.w3.org/Graphics/SVG/1.1/DTD/svg11.dtd">
<!-- Generated by graphviz version 2.43.0 (0)
 -->
<!-- Title: %3 Pages: 1 -->
<svg width="1462pt" height="332pt"
 viewBox="0.00 0.00 1462.00 332.00" xmlns="http://www.w3.org/2000/svg" xmlns:xlink="http://www.w3.org/1999/xlink">
<g id="graph0" class="graph" transform="scale(1 1) rotate(0) translate(4 328)">
<title>%3</title>
<polygon fill="white" stroke="transparent" points="-4,4 -4,-328 1458,-328 1458,4 -4,4"/>
<g id="clust1" class="cluster">
<title>cluster_0</title>
<polygon fill="none" stroke="black" points="8,-147 8,-316 1446,-316 1446,-147 8,-147"/>
<text text-anchor="middle" x="727" y="-300.8" font-family="Times,serif" font-size="14.00">Bartlett\UmlWriter\Service</text>
</g>
<g id="clust2" class="cluster">
<title>cluster_1</title>
<polygon fill="none" stroke="black" points="1163,-8 1163,-139 1407,-139 1407,-8 1163,-8"/>
<text text-anchor="middle" x="1285" y="-123.8" font-family="Times,serif" font-size="14.00">Psr\Container</text>
</g>
<!-- Bartlett\\UmlWriter\\Service\\ContainerService -->
<g id="node1" class="node">
<title>Bartlett\\UmlWriter\\Service\\ContainerService</title>
<polygon fill="#fefece" stroke="transparent" points="1438,-285 1132,-285 1132,-155 1438,-155 1438,-285"/>
<polygon fill="#eeeeee" stroke="transparent" points="1140,-247 1140,-281 1430,-281 1430,-247 1140,-247"/>
<polygon fill="none" stroke="black" points="1140,-247 1140,-281 1430,-281 1430,-247 1140,-247"/>
<text text-anchor="start" x="1217" y="-253.8" font-family="Times,serif" font-weight="bold" font-size="14.00">ContainerService</text>
<polygon fill="none" stroke="black" points="1140,-241 1140,-247 1430,-247 1430,-241 1140,-241"/>
<polygon fill="none" stroke="black" points="1140,-159 1140,-241 1430,-241 1430,-159 1140,-159"/>
<text text-anchor="start" x="1145" y="-224.8" font-family="Times,serif" font-size="14.00">+ __construct()</text>
<text text-anchor="start" x="1145" y="-205.8" font-family="Times,serif" font-size="14.00">+ set(id : string, service : mixed) : void</text>
<text text-anchor="start" x="1145" y="-186.8" font-family="Times,serif" font-size="14.00">+ get(id : string) : ?mixed</text>
<text text-anchor="start" x="1145" y="-167.8" font-family="Times,serif" font-size="14.00">+ has(id : string) : bool</text>
</g>
<!-- Psr\\Container\\ContainerInterface -->
<g id="node3" class="node">
<title>Psr\\Container\\ContainerInterface</title>
<polygon fill="#fefece" stroke="transparent" points="1399,-108 1171,-108 1171,-16 1399,-16 1399,-108"/>
<polygon fill="#eeeeee" stroke="transparent" points="1179,-70 1179,-104 1391,-104 1391,-70 1179,-70"/>
<polygon fill="none" stroke="black" points="1179,-70 1179,-104 1391,-104 1391,-70 1179,-70"/>
<text text-anchor="start" x="1240" y="-90.8" font-family="Times,serif" font-weight="bold" font-size="14.00">«interface»</text>
<text text-anchor="start" x="1209" y="-76.8" font-family="Times,serif" font-weight="bold" font-size="14.00">ContainerInterface</text>
<polygon fill="none" stroke="black" points="1179,-64 1179,-70 1391,-70 1391,-64 1179,-64"/>
<polygon fill="none" stroke="black" points="1179,-20 1179,-64 1391,-64 1391,-20 1179,-20"/>
<text text-anchor="start" x="1184" y="-47.8" font-family="Times,serif" font-size="14.00">+ «abstract» get(id : string)</text>
<text text-anchor="start" x="1184" y="-28.8" font-family="Times,serif" font-size="14.00">+ «abstract» has(id : string)</text>
</g>
<!-- Bartlett\\UmlWriter\\Service\\ContainerService&#45;&gt;Psr\\Container\\ContainerInterface -->
<g id="edge1" class="edge">
<title>Bartlett\\UmlWriter\\Service\\ContainerService&#45;&gt;Psr\\Container\\ContainerInterface</title>
<path fill="none" stroke="black" stroke-dasharray="5,2" d="M1285,-154.65C1285,-142.57 1285,-130.05 1285,-118.28"/>
<polygon fill="none" stroke="black" points="1288.5,-118.16 1285,-108.16 1281.5,-118.16 1288.5,-118.16"/>
</g>
<!-- Bartlett\\UmlWriter\\Service\\ClassDiagramRenderer -->
<g id="node2" class="node">
<title>Bartlett\\UmlWriter\\Service\\ClassDiagramRenderer</title>
<polygon fill="#fefece" stroke="transparent" points="1114,-275.5 16,-275.5 16,-164.5 1114,-164.5 1114,-275.5"/>
<polygon fill="#eeeeee" stroke="transparent" points="24,-237 24,-271 1106,-271 1106,-237 24,-237"/>
<polygon fill="none" stroke="black" points="24,-237 24,-271 1106,-271 1106,-237 24,-237"/>
<text text-anchor="start" x="473" y="-243.8" font-family="Times,serif" font-weight="bold" font-size="14.00">ClassDiagramRenderer</text>
<polygon fill="none" stroke="black" points="24,-231 24,-237 1106,-237 1106,-231 24,-231"/>
<polygon fill="none" stroke="black" points="24,-168 24,-231 1106,-231 1106,-168 24,-168"/>
<text text-anchor="start" x="29" y="-214.8" font-family="Times,serif" font-size="14.00">+ __invoke(finder : Symfony\Component\Finder\Finder, generator : Bartlett\GraphUml\Generator\GeneratorInterface, parameters : array = []) : string</text>
<text text-anchor="start" x="29" y="-195.8" font-family="Times,serif" font-size="14.00">+ getMetadata() : array</text>
<text text-anchor="start" x="29" y="-176.8" font-family="Times,serif" font-size="14.00">+ getGraph() : Graphp\Graph\Graph</text>
</g>
</g>
</svg>
