<?xml version="1.0" encoding="UTF-8" standalone="no"?>
<!DOCTYPE svg PUBLIC "-//W3C//DTD SVG 1.1//EN"
 "http://www.w3.org/Graphics/SVG/1.1/DTD/svg11.dtd">
<!-- Generated by graphviz version 2.43.0 (0)
 -->
<!-- Title: %3 Pages: 1 -->
<svg width="394pt" height="321pt"
 viewBox="0.00 0.00 394.00 321.00" xmlns="http://www.w3.org/2000/svg" xmlns:xlink="http://www.w3.org/1999/xlink">
<g id="graph0" class="graph" transform="scale(1 1) rotate(0) translate(4 317)">
<title>%3</title>
<g id="clust1" class="cluster">
<title>cluster_0</title>
<polygon fill="transparent" stroke="black" points="8,-8 8,-305 378,-305 378,-8 8,-8"/>
<text text-anchor="middle" x="193" y="-289.8" font-family="Times,serif" font-size="14.00">Name\Space</text>
</g>
<!-- Name\\Space\\Foo -->
<g id="node1" class="node">
<title>Name\\Space\\Foo</title>
<polygon fill="white" stroke="transparent" points="369.5,-274 16.5,-274 16.5,-125 369.5,-125 369.5,-274"/>
<polygon fill="#eeeeee" stroke="transparent" points="25,-235.5 25,-269.5 362,-269.5 362,-235.5 25,-235.5"/>
<polygon fill="none" stroke="black" points="25,-235.5 25,-269.5 362,-269.5 362,-235.5 25,-235.5"/>
<text text-anchor="start" x="179.5" y="-242.3" font-family="Times,serif" font-weight="bold" font-size="14.00">Foo</text>
<polygon fill="none" stroke="black" points="25,-134.5 25,-235.5 362,-235.5 362,-134.5 25,-134.5"/>
<text text-anchor="start" x="30" y="-219.3" font-family="Times,serif" font-size="14.00">+ property = &quot;propertyDefault&quot;</text>
<text text-anchor="start" x="30" y="-200.3" font-family="Times,serif" font-size="14.00">– privateProperty = &quot;privatePropertyDefault&quot;</text>
<text text-anchor="start" x="30" y="-181.3" font-family="Times,serif" font-size="14.00">+ «static» staticProperty = &quot;staticProperty&quot;</text>
<text text-anchor="start" x="30" y="-162.3" font-family="Times,serif" font-size="14.00">+ defaultlessProperty</text>
<text text-anchor="start" x="30" y="-143.3" font-family="Times,serif" font-size="14.00"># «static» defaultName</text>
<polygon fill="none" stroke="black" points="25,-128.5 25,-134.5 362,-134.5 362,-128.5 25,-128.5"/>
</g>
<!-- Name\\Space\\Bar -->
<g id="node2" class="node">
<title>Name\\Space\\Bar</title>
<polygon fill="white" stroke="transparent" points="355,-89 31,-89 31,-16 355,-16 355,-89"/>
<polygon fill="#eeeeee" stroke="transparent" points="39,-50.5 39,-84.5 347,-84.5 347,-50.5 39,-50.5"/>
<polygon fill="none" stroke="black" points="39,-50.5 39,-84.5 347,-84.5 347,-50.5 39,-50.5"/>
<text text-anchor="start" x="178.5" y="-57.3" font-family="Times,serif" font-weight="bold" font-size="14.00">Bar</text>
<polygon fill="none" stroke="black" points="39,-25.5 39,-50.5 347,-50.5 347,-25.5 39,-25.5"/>
<text text-anchor="start" x="44" y="-34.3" font-family="Times,serif" font-size="14.00"># inheritedProperty = &quot;inheritedDefault&quot;</text>
<polygon fill="none" stroke="black" points="39,-19.5 39,-25.5 347,-25.5 347,-19.5 39,-19.5"/>
</g>
<!-- Name\\Space\\Foo&#45;&gt;Name\\Space\\Bar -->
<g id="edge1" class="edge">
<title>Name\\Space\\Foo&#45;&gt;Name\\Space\\Bar</title>
<path fill="none" stroke="black" d="M193,-124.73C193,-116.16 193,-107.63 193,-99.59"/>
<polygon fill="none" stroke="black" points="196.5,-99.35 193,-89.35 189.5,-99.35 196.5,-99.35"/>
</g>
</g>
</svg>
