<?xml version="1.0" encoding="UTF-8" standalone="no"?>
<!DOCTYPE svg PUBLIC "-//W3C//DTD SVG 1.1//EN"
 "http://www.w3.org/Graphics/SVG/1.1/DTD/svg11.dtd">
<!-- Generated by graphviz version 2.43.0 (0)
 -->
<!-- Title: %3 Pages: 1 -->
<svg width="361pt" height="266pt"
 viewBox="0.00 0.00 361.00 266.00" xmlns="http://www.w3.org/2000/svg" xmlns:xlink="http://www.w3.org/1999/xlink">
<g id="graph0" class="graph" transform="scale(1 1) rotate(0) translate(4 262)">
<title>%3</title>
<polygon fill="white" stroke="transparent" points="-4,4 -4,-262 357,-262 357,4 -4,4"/>
<!-- Name\\Space\\Bar -->
<g id="node1" class="node">
<title>Name\\Space\\Bar</title>
<polygon fill="#eeeeee" stroke="transparent" points="22.5,-34.5 22.5,-68.5 330.5,-68.5 330.5,-34.5 22.5,-34.5"/>
<polygon fill="none" stroke="black" points="22.5,-34.5 22.5,-68.5 330.5,-68.5 330.5,-34.5 22.5,-34.5"/>
<text text-anchor="start" x="162" y="-41.3" font-family="Times,serif" font-weight="bold" font-size="14.00">Bar</text>
<polygon fill="none" stroke="black" points="22.5,-9.5 22.5,-34.5 330.5,-34.5 330.5,-9.5 22.5,-9.5"/>
<text text-anchor="start" x="27.5" y="-18.3" font-family="Times,serif" font-size="14.00"># inheritedProperty = &quot;inheritedDefault&quot;</text>
<polygon fill="none" stroke="black" points="22.5,-3.5 22.5,-9.5 330.5,-9.5 330.5,-3.5 22.5,-3.5"/>
</g>
<!-- Name\\Space\\Foo -->
<g id="node2" class="node">
<title>Name\\Space\\Foo</title>
<polygon fill="#eeeeee" stroke="transparent" points="8.5,-219.5 8.5,-253.5 345.5,-253.5 345.5,-219.5 8.5,-219.5"/>
<polygon fill="none" stroke="black" points="8.5,-219.5 8.5,-253.5 345.5,-253.5 345.5,-219.5 8.5,-219.5"/>
<text text-anchor="start" x="163" y="-226.3" font-family="Times,serif" font-weight="bold" font-size="14.00">Foo</text>
<polygon fill="none" stroke="black" points="8.5,-118.5 8.5,-219.5 345.5,-219.5 345.5,-118.5 8.5,-118.5"/>
<text text-anchor="start" x="13.5" y="-203.3" font-family="Times,serif" font-size="14.00">+ property = &quot;propertyDefault&quot;</text>
<text text-anchor="start" x="13.5" y="-184.3" font-family="Times,serif" font-size="14.00">– privateProperty = &quot;privatePropertyDefault&quot;</text>
<text text-anchor="start" x="13.5" y="-165.3" font-family="Times,serif" font-size="14.00">+ «static» staticProperty = &quot;staticProperty&quot;</text>
<text text-anchor="start" x="13.5" y="-146.3" font-family="Times,serif" font-size="14.00">+ defaultlessProperty</text>
<text text-anchor="start" x="13.5" y="-127.3" font-family="Times,serif" font-size="14.00"># «static» defaultName</text>
<polygon fill="none" stroke="black" points="8.5,-112.5 8.5,-118.5 345.5,-118.5 345.5,-112.5 8.5,-112.5"/>
</g>
<!-- Name\\Space\\Foo&#45;&gt;Name\\Space\\Bar -->
<g id="edge1" class="edge">
<title>Name\\Space\\Foo&#45;&gt;Name\\Space\\Bar</title>
<path fill="none" stroke="black" d="M176.5,-108.73C176.5,-100.16 176.5,-91.63 176.5,-83.59"/>
<polygon fill="none" stroke="black" points="180,-83.35 176.5,-73.35 173,-83.35 180,-83.35"/>
</g>
</g>
</svg>
