<?xml version="1.0" encoding="UTF-8" standalone="no"?>
<!DOCTYPE svg PUBLIC "-//W3C//DTD SVG 1.1//EN"
 "http://www.w3.org/Graphics/SVG/1.1/DTD/svg11.dtd">
<!-- Generated by graphviz version 2.43.0 (0)
 -->
<!-- Title: %3 Pages: 1 -->
<svg width="6039pt" height="1379pt"
 viewBox="0.00 0.00 6039.00 1379.00" xmlns="http://www.w3.org/2000/svg" xmlns:xlink="http://www.w3.org/1999/xlink">
<g id="graph0" class="graph" transform="scale(1 1) rotate(0) translate(4 1375)">
<title>%3</title>
<polygon fill="white" stroke="transparent" points="-4,4 -4,-1375 6035,-1375 6035,4 -4,4"/>
<g id="clust1" class="cluster">
<title>cluster_0</title>
<polygon fill="none" stroke="black" points="8,-202.5 8,-1322 804,-1322 804,-202.5 8,-202.5"/>
<text text-anchor="middle" x="406" y="-1306.8" font-family="Times,serif" font-size="14.00">Bartlett\UmlWriter\Generator</text>
</g>
<g id="clust2" class="cluster">
<title>cluster_1</title>
<polygon fill="none" stroke="black" points="1162,-1200.5 1162,-1331.5 1600,-1331.5 1600,-1200.5 1162,-1200.5"/>
<text text-anchor="middle" x="1381" y="-1316.3" font-family="Times,serif" font-size="14.00">Bartlett\UmlWriter\Config\Loader</text>
</g>
<g id="clust3" class="cluster">
<title>cluster_2</title>
<polygon fill="none" stroke="black" points="812,-8 812,-844.5 1950,-844.5 1950,-8 812,-8"/>
<text text-anchor="middle" x="1381" y="-829.3" font-family="Times,serif" font-size="14.00">Symfony\Component\Config\Loader</text>
</g>
<g id="clust4" class="cluster">
<title>cluster_3</title>
<polygon fill="none" stroke="black" points="1608,-1172 1608,-1360 3590,-1360 3590,-1172 1608,-1172"/>
<text text-anchor="middle" x="2599" y="-1344.8" font-family="Times,serif" font-size="14.00">Bartlett\UmlWriter\Service</text>
</g>
<g id="clust5" class="cluster">
<title>cluster_4</title>
<polygon fill="none" stroke="black" points="3307,-694.5 3307,-825.5 3551,-825.5 3551,-694.5 3307,-694.5"/>
<text text-anchor="middle" x="3429" y="-810.3" font-family="Times,serif" font-size="14.00">Psr\Container</text>
</g>
<g id="clust6" class="cluster">
<title>cluster_5</title>
<polygon fill="none" stroke="black" points="3667,-1169 3667,-1363 4679,-1363 4679,-1169 3667,-1169"/>
<text text-anchor="middle" x="4173" y="-1347.8" font-family="Times,serif" font-size="14.00">Bartlett\UmlWriter\Console</text>
</g>
<g id="clust7" class="cluster">
<title>cluster_6</title>
<polygon fill="none" stroke="black" points="3559,-362 3559,-1158 4787,-1158 4787,-362 3559,-362"/>
<text text-anchor="middle" x="4173" y="-1142.8" font-family="Times,serif" font-size="14.00">Symfony\Component\Console</text>
</g>
<g id="clust8" class="cluster">
<title>cluster_7</title>
<polygon fill="none" stroke="black" points="4068,-212 4068,-324 4279,-324 4279,-212 4068,-212"/>
<text text-anchor="middle" x="4173.5" y="-308.8" font-family="Times,serif" font-size="14.00">Symfony\Contracts\Service</text>
</g>
<g id="clust9" class="cluster">
<title>cluster_8</title>
<polygon fill="none" stroke="black" points="4835,-1197.5 4835,-1334.5 5983,-1334.5 5983,-1197.5 4835,-1197.5"/>
<text text-anchor="middle" x="5409" y="-1319.3" font-family="Times,serif" font-size="14.00">Bartlett\UmlWriter\Console\Command</text>
</g>
<g id="clust10" class="cluster">
<title>cluster_9</title>
<polygon fill="none" stroke="black" points="4795,-359 4795,-1161 6023,-1161 6023,-359 4795,-359"/>
<text text-anchor="middle" x="5409" y="-1145.8" font-family="Times,serif" font-size="14.00">Symfony\Component\Console\Command</text>
</g>
<!-- Bartlett\\UmlWriter\\Generator\\AbstractGeneratorFactory -->
<g id="node1" class="node">
<title>Bartlett\\UmlWriter\\Generator\\AbstractGeneratorFactory</title>
<polygon fill="#fefece" stroke="transparent" points="755.5,-804 56.5,-804 56.5,-693 755.5,-693 755.5,-804"/>
<polygon fill="#eeeeee" stroke="transparent" points="65,-765.5 65,-799.5 748,-799.5 748,-765.5 65,-765.5"/>
<polygon fill="none" stroke="black" points="65,-765.5 65,-799.5 748,-799.5 748,-765.5 65,-765.5"/>
<text text-anchor="start" x="364.5" y="-786.3" font-family="Times,serif" font-weight="bold" font-size="14.00">«abstract»</text>
<text text-anchor="start" x="304" y="-772.3" font-family="Times,serif" font-weight="bold" font-size="14.00">AbstractGeneratorFactory</text>
<polygon fill="none" stroke="black" points="65,-759.5 65,-765.5 748,-765.5 748,-759.5 65,-759.5"/>
<polygon fill="none" stroke="black" points="65,-696.5 65,-759.5 748,-759.5 748,-696.5 65,-696.5"/>
<text text-anchor="start" x="70" y="-743.3" font-family="Times,serif" font-size="14.00">+ __construct(generator : string = &#39;&#39;)</text>
<text text-anchor="start" x="70" y="-724.3" font-family="Times,serif" font-size="14.00">+ createInstance(provider : string) : Bartlett\UmlWriter\Generator\GeneratorFactoryInterface</text>
<text text-anchor="start" x="70" y="-705.3" font-family="Times,serif" font-size="14.00">+ «abstract» getGenerator() : Bartlett\GraphUml\Generator\GeneratorInterface</text>
</g>
<!-- Bartlett\\UmlWriter\\Generator\\GeneratorFactoryInterface -->
<g id="node2" class="node">
<title>Bartlett\\UmlWriter\\Generator\\GeneratorFactoryInterface</title>
<polygon fill="#fefece" stroke="transparent" points="796,-302.5 16,-302.5 16,-210.5 796,-210.5 796,-302.5"/>
<polygon fill="#eeeeee" stroke="transparent" points="24,-264.5 24,-298.5 788,-298.5 788,-264.5 24,-264.5"/>
<polygon fill="none" stroke="black" points="24,-264.5 24,-298.5 788,-298.5 788,-264.5 24,-264.5"/>
<text text-anchor="start" x="361" y="-285.3" font-family="Times,serif" font-weight="bold" font-size="14.00">«interface»</text>
<text text-anchor="start" x="300.5" y="-271.3" font-family="Times,serif" font-weight="bold" font-size="14.00">GeneratorFactoryInterface</text>
<polygon fill="none" stroke="black" points="24,-258.5 24,-264.5 788,-264.5 788,-258.5 24,-258.5"/>
<polygon fill="none" stroke="black" points="24,-214.5 24,-258.5 788,-258.5 788,-214.5 24,-214.5"/>
<text text-anchor="start" x="29" y="-242.3" font-family="Times,serif" font-size="14.00">+ «abstract» createInstance(provider : string) : Bartlett\UmlWriter\Generator\GeneratorFactoryInterface</text>
<text text-anchor="start" x="29" y="-223.3" font-family="Times,serif" font-size="14.00">+ «abstract» getGenerator() : Bartlett\GraphUml\Generator\GeneratorInterface</text>
</g>
<!-- Bartlett\\UmlWriter\\Generator\\AbstractGeneratorFactory&#45;&gt;Bartlett\\UmlWriter\\Generator\\GeneratorFactoryInterface -->
<g id="edge1" class="edge">
<title>Bartlett\\UmlWriter\\Generator\\AbstractGeneratorFactory&#45;&gt;Bartlett\\UmlWriter\\Generator\\GeneratorFactoryInterface</title>
<path fill="none" stroke="black" stroke-dasharray="5,2" d="M406,-692.72C406,-598.6 406,-407.23 406,-312.78"/>
<polygon fill="none" stroke="black" points="409.5,-312.57 406,-302.57 402.5,-312.57 409.5,-312.57"/>
</g>
<!-- Bartlett\\UmlWriter\\Generator\\GeneratorFactory -->
<g id="node3" class="node">
<title>Bartlett\\UmlWriter\\Generator\\GeneratorFactory</title>
<polygon fill="#fefece" stroke="transparent" points="664.5,-1291 147.5,-1291 147.5,-1218 664.5,-1218 664.5,-1291"/>
<polygon fill="#eeeeee" stroke="transparent" points="156,-1252.5 156,-1286.5 657,-1286.5 657,-1252.5 156,-1252.5"/>
<polygon fill="none" stroke="black" points="156,-1252.5 156,-1286.5 657,-1286.5 657,-1252.5 156,-1252.5"/>
<text text-anchor="start" x="337" y="-1259.3" font-family="Times,serif" font-weight="bold" font-size="14.00">GeneratorFactory</text>
<polygon fill="none" stroke="black" points="156,-1246.5 156,-1252.5 657,-1252.5 657,-1246.5 156,-1246.5"/>
<polygon fill="none" stroke="black" points="156,-1221.5 156,-1246.5 657,-1246.5 657,-1221.5 156,-1221.5"/>
<text text-anchor="start" x="161" y="-1230.3" font-family="Times,serif" font-size="14.00">+ getGenerator() : Bartlett\GraphUml\Generator\GeneratorInterface</text>
</g>
<!-- Bartlett\\UmlWriter\\Generator\\GeneratorFactory&#45;&gt;Bartlett\\UmlWriter\\Generator\\AbstractGeneratorFactory -->
<g id="edge2" class="edge">
<title>Bartlett\\UmlWriter\\Generator\\GeneratorFactory&#45;&gt;Bartlett\\UmlWriter\\Generator\\AbstractGeneratorFactory</title>
<path fill="none" stroke="black" d="M406,-1217.66C406,-1133.35 406,-921.49 406,-814.09"/>
<polygon fill="none" stroke="black" points="409.5,-814.03 406,-804.03 402.5,-814.03 409.5,-814.03"/>
</g>
<!-- Bartlett\\UmlWriter\\Config\\Loader\\YamlFileLoader -->
<g id="node4" class="node">
<title>Bartlett\\UmlWriter\\Config\\Loader\\YamlFileLoader</title>
<polygon fill="#fefece" stroke="transparent" points="1591.5,-1300.5 1170.5,-1300.5 1170.5,-1208.5 1591.5,-1208.5 1591.5,-1300.5"/>
<polygon fill="#eeeeee" stroke="transparent" points="1179,-1262.5 1179,-1296.5 1584,-1296.5 1584,-1262.5 1179,-1262.5"/>
<polygon fill="none" stroke="black" points="1179,-1262.5 1179,-1296.5 1584,-1296.5 1584,-1262.5 1179,-1262.5"/>
<text text-anchor="start" x="1320.5" y="-1269.3" font-family="Times,serif" font-weight="bold" font-size="14.00">YamlFileLoader</text>
<polygon fill="none" stroke="black" points="1179,-1256.5 1179,-1262.5 1584,-1262.5 1584,-1256.5 1179,-1256.5"/>
<polygon fill="none" stroke="black" points="1179,-1212.5 1179,-1256.5 1584,-1256.5 1584,-1212.5 1179,-1212.5"/>
<text text-anchor="start" x="1184" y="-1240.3" font-family="Times,serif" font-size="14.00">+ load(resource, type : string = «unknown») : ?mixed</text>
<text text-anchor="start" x="1184" y="-1221.3" font-family="Times,serif" font-size="14.00">+ supports(resource, type : string = «unknown») : bool</text>
</g>
<!-- Symfony\\Component\\Config\\Loader\\FileLoader -->
<g id="node5" class="node">
<title>Symfony\\Component\\Config\\Loader\\FileLoader</title>
<polygon fill="#fefece" stroke="transparent" points="1942,-813.5 820,-813.5 820,-683.5 1942,-683.5 1942,-813.5"/>
<polygon fill="#eeeeee" stroke="transparent" points="828,-775.5 828,-809.5 1934,-809.5 1934,-775.5 828,-775.5"/>
<polygon fill="none" stroke="black" points="828,-775.5 828,-809.5 1934,-809.5 1934,-775.5 828,-775.5"/>
<text text-anchor="start" x="1339" y="-796.3" font-family="Times,serif" font-weight="bold" font-size="14.00">«abstract»</text>
<text text-anchor="start" x="1339" y="-782.3" font-family="Times,serif" font-weight="bold" font-size="14.00">FileLoader</text>
<polygon fill="none" stroke="black" points="828,-769.5 828,-775.5 1934,-775.5 1934,-769.5 828,-769.5"/>
<polygon fill="none" stroke="black" points="828,-687.5 828,-769.5 1934,-769.5 1934,-687.5 828,-687.5"/>
<text text-anchor="start" x="833" y="-753.3" font-family="Times,serif" font-size="14.00">+ __construct(locator : Symfony\Component\Config\FileLocatorInterface, env : string = «unknown»)</text>
<text text-anchor="start" x="833" y="-734.3" font-family="Times,serif" font-size="14.00">+ setCurrentDir(dir : string)</text>
<text text-anchor="start" x="833" y="-715.3" font-family="Times,serif" font-size="14.00">+ getLocator()</text>
<text text-anchor="start" x="833" y="-696.3" font-family="Times,serif" font-size="14.00">+ import(resource : mixed, type : string = «unknown», ignoreErrors : bool = false, sourceResource : string = «unknown», exclude : mixed = «unknown»)</text>
</g>
<!-- Bartlett\\UmlWriter\\Config\\Loader\\YamlFileLoader&#45;&gt;Symfony\\Component\\Config\\Loader\\FileLoader -->
<g id="edge5" class="edge">
<title>Bartlett\\UmlWriter\\Config\\Loader\\YamlFileLoader&#45;&gt;Symfony\\Component\\Config\\Loader\\FileLoader</title>
<path fill="none" stroke="black" d="M1381,-1208.33C1381,-1121.46 1381,-930.35 1381,-824.23"/>
<polygon fill="none" stroke="black" points="1384.5,-823.91 1381,-813.91 1377.5,-823.91 1384.5,-823.91"/>
</g>
<!-- Symfony\\Component\\Config\\Loader\\Loader -->
<g id="node6" class="node">
<title>Symfony\\Component\\Config\\Loader\\Loader</title>
<polygon fill="#fefece" stroke="transparent" points="1702.5,-331 1059.5,-331 1059.5,-182 1702.5,-182 1702.5,-331"/>
<polygon fill="#eeeeee" stroke="transparent" points="1068,-292.5 1068,-326.5 1695,-326.5 1695,-292.5 1068,-292.5"/>
<polygon fill="none" stroke="black" points="1068,-292.5 1068,-326.5 1695,-326.5 1695,-292.5 1068,-292.5"/>
<text text-anchor="start" x="1339.5" y="-313.3" font-family="Times,serif" font-weight="bold" font-size="14.00">«abstract»</text>
<text text-anchor="start" x="1354" y="-299.3" font-family="Times,serif" font-weight="bold" font-size="14.00">Loader</text>
<polygon fill="none" stroke="black" points="1068,-286.5 1068,-292.5 1695,-292.5 1695,-286.5 1068,-286.5"/>
<polygon fill="none" stroke="black" points="1068,-185.5 1068,-286.5 1695,-286.5 1695,-185.5 1068,-185.5"/>
<text text-anchor="start" x="1073" y="-270.3" font-family="Times,serif" font-size="14.00">+ __construct(env : string = «unknown»)</text>
<text text-anchor="start" x="1073" y="-251.3" font-family="Times,serif" font-size="14.00">+ getResolver()</text>
<text text-anchor="start" x="1073" y="-232.3" font-family="Times,serif" font-size="14.00">+ setResolver(resolver : Symfony\Component\Config\Loader\LoaderResolverInterface)</text>
<text text-anchor="start" x="1073" y="-213.3" font-family="Times,serif" font-size="14.00">+ import(resource : mixed, type : string = «unknown»)</text>
<text text-anchor="start" x="1073" y="-194.3" font-family="Times,serif" font-size="14.00">+ resolve(resource : mixed, type : string = «unknown»)</text>
</g>
<!-- Symfony\\Component\\Config\\Loader\\FileLoader&#45;&gt;Symfony\\Component\\Config\\Loader\\Loader -->
<g id="edge4" class="edge">
<title>Symfony\\Component\\Config\\Loader\\FileLoader&#45;&gt;Symfony\\Component\\Config\\Loader\\Loader</title>
<path fill="none" stroke="black" d="M1381,-683.44C1381,-595.75 1381,-438.18 1381,-341.23"/>
<polygon fill="none" stroke="black" points="1384.5,-341.17 1381,-331.17 1377.5,-341.17 1384.5,-341.17"/>
</g>
<!-- Symfony\\Component\\Config\\Loader\\LoaderInterface -->
<g id="node7" class="node">
<title>Symfony\\Component\\Config\\Loader\\LoaderInterface</title>
<polygon fill="#fefece" stroke="transparent" points="1742.5,-146 1019.5,-146 1019.5,-16 1742.5,-16 1742.5,-146"/>
<polygon fill="#eeeeee" stroke="transparent" points="1028,-108 1028,-142 1735,-142 1735,-108 1028,-108"/>
<polygon fill="none" stroke="black" points="1028,-108 1028,-142 1735,-142 1735,-108 1028,-108"/>
<text text-anchor="start" x="1336.5" y="-128.8" font-family="Times,serif" font-weight="bold" font-size="14.00">«interface»</text>
<text text-anchor="start" x="1318" y="-114.8" font-family="Times,serif" font-weight="bold" font-size="14.00">LoaderInterface</text>
<polygon fill="none" stroke="black" points="1028,-102 1028,-108 1735,-108 1735,-102 1028,-102"/>
<polygon fill="none" stroke="black" points="1028,-20 1028,-102 1735,-102 1735,-20 1028,-20"/>
<text text-anchor="start" x="1033" y="-85.8" font-family="Times,serif" font-size="14.00">+ «abstract» load(resource, type : string = «unknown»)</text>
<text text-anchor="start" x="1033" y="-66.8" font-family="Times,serif" font-size="14.00">+ «abstract» supports(resource, type : string = «unknown»)</text>
<text text-anchor="start" x="1033" y="-47.8" font-family="Times,serif" font-size="14.00">+ «abstract» getResolver()</text>
<text text-anchor="start" x="1033" y="-28.8" font-family="Times,serif" font-size="14.00">+ «abstract» setResolver(resolver : Symfony\Component\Config\Loader\LoaderResolverInterface)</text>
</g>
<!-- Symfony\\Component\\Config\\Loader\\Loader&#45;&gt;Symfony\\Component\\Config\\Loader\\LoaderInterface -->
<g id="edge3" class="edge">
<title>Symfony\\Component\\Config\\Loader\\Loader&#45;&gt;Symfony\\Component\\Config\\Loader\\LoaderInterface</title>
<path fill="none" stroke="black" stroke-dasharray="5,2" d="M1381,-181.92C1381,-173.45 1381,-164.81 1381,-156.33"/>
<polygon fill="none" stroke="black" points="1384.5,-156.09 1381,-146.09 1377.5,-156.09 1384.5,-156.09"/>
</g>
<!-- Bartlett\\UmlWriter\\Service\\ContainerService -->
<g id="node8" class="node">
<title>Bartlett\\UmlWriter\\Service\\ContainerService</title>
<polygon fill="#fefece" stroke="transparent" points="3582,-1319.5 3276,-1319.5 3276,-1189.5 3582,-1189.5 3582,-1319.5"/>
<polygon fill="#eeeeee" stroke="transparent" points="3284,-1281.5 3284,-1315.5 3574,-1315.5 3574,-1281.5 3284,-1281.5"/>
<polygon fill="none" stroke="black" points="3284,-1281.5 3284,-1315.5 3574,-1315.5 3574,-1281.5 3284,-1281.5"/>
<text text-anchor="start" x="3361" y="-1288.3" font-family="Times,serif" font-weight="bold" font-size="14.00">ContainerService</text>
<polygon fill="none" stroke="black" points="3284,-1275.5 3284,-1281.5 3574,-1281.5 3574,-1275.5 3284,-1275.5"/>
<polygon fill="none" stroke="black" points="3284,-1193.5 3284,-1275.5 3574,-1275.5 3574,-1193.5 3284,-1193.5"/>
<text text-anchor="start" x="3289" y="-1259.3" font-family="Times,serif" font-size="14.00">+ __construct()</text>
<text text-anchor="start" x="3289" y="-1240.3" font-family="Times,serif" font-size="14.00">+ set(id : string, service : mixed) : void</text>
<text text-anchor="start" x="3289" y="-1221.3" font-family="Times,serif" font-size="14.00">+ get(id : string) : ?mixed</text>
<text text-anchor="start" x="3289" y="-1202.3" font-family="Times,serif" font-size="14.00">+ has(id : string) : bool</text>
</g>
<!-- Psr\\Container\\ContainerInterface -->
<g id="node11" class="node">
<title>Psr\\Container\\ContainerInterface</title>
<polygon fill="#fefece" stroke="transparent" points="3543,-794.5 3315,-794.5 3315,-702.5 3543,-702.5 3543,-794.5"/>
<polygon fill="#eeeeee" stroke="transparent" points="3323,-756.5 3323,-790.5 3535,-790.5 3535,-756.5 3323,-756.5"/>
<polygon fill="none" stroke="black" points="3323,-756.5 3323,-790.5 3535,-790.5 3535,-756.5 3323,-756.5"/>
<text text-anchor="start" x="3384" y="-777.3" font-family="Times,serif" font-weight="bold" font-size="14.00">«interface»</text>
<text text-anchor="start" x="3353" y="-763.3" font-family="Times,serif" font-weight="bold" font-size="14.00">ContainerInterface</text>
<polygon fill="none" stroke="black" points="3323,-750.5 3323,-756.5 3535,-756.5 3535,-750.5 3323,-750.5"/>
<polygon fill="none" stroke="black" points="3323,-706.5 3323,-750.5 3535,-750.5 3535,-706.5 3323,-706.5"/>
<text text-anchor="start" x="3328" y="-734.3" font-family="Times,serif" font-size="14.00">+ «abstract» get(id : string)</text>
<text text-anchor="start" x="3328" y="-715.3" font-family="Times,serif" font-size="14.00">+ «abstract» has(id : string)</text>
</g>
<!-- Bartlett\\UmlWriter\\Service\\ContainerService&#45;&gt;Psr\\Container\\ContainerInterface -->
<g id="edge6" class="edge">
<title>Bartlett\\UmlWriter\\Service\\ContainerService&#45;&gt;Psr\\Container\\ContainerInterface</title>
<path fill="none" stroke="black" stroke-dasharray="5,2" d="M3429,-1189.41C3429,-1089.62 3429,-898.81 3429,-804.73"/>
<polygon fill="none" stroke="black" points="3432.5,-804.57 3429,-794.57 3425.5,-804.57 3432.5,-804.57"/>
</g>
<!-- Bartlett\\UmlWriter\\Service\\ConfigurationHandler -->
<g id="node9" class="node">
<title>Bartlett\\UmlWriter\\Service\\ConfigurationHandler</title>
<polygon fill="#fefece" stroke="transparent" points="3257.5,-1329 2732.5,-1329 2732.5,-1180 3257.5,-1180 3257.5,-1329"/>
<polygon fill="#eeeeee" stroke="transparent" points="2741,-1290.5 2741,-1324.5 3250,-1324.5 3250,-1290.5 2741,-1290.5"/>
<polygon fill="none" stroke="black" points="2741,-1290.5 2741,-1324.5 3250,-1324.5 3250,-1290.5 2741,-1290.5"/>
<text text-anchor="start" x="2908" y="-1297.3" font-family="Times,serif" font-weight="bold" font-size="14.00">ConfigurationHandler</text>
<polygon fill="none" stroke="black" points="2741,-1284.5 2741,-1290.5 3250,-1290.5 3250,-1284.5 2741,-1284.5"/>
<polygon fill="none" stroke="black" points="2741,-1183.5 2741,-1284.5 3250,-1284.5 3250,-1183.5 2741,-1183.5"/>
<text text-anchor="start" x="2746" y="-1268.3" font-family="Times,serif" font-size="14.00">+ __construct(filename : string)</text>
<text text-anchor="start" x="2746" y="-1249.3" font-family="Times,serif" font-size="14.00">+ filename() : ?string</text>
<text text-anchor="start" x="2746" y="-1230.3" font-family="Times,serif" font-size="14.00">+ toArray() : array</text>
<text text-anchor="start" x="2746" y="-1211.3" font-family="Times,serif" font-size="14.00">+ toFlat() : array</text>
<text text-anchor="start" x="2746" y="-1192.3" font-family="Times,serif" font-size="14.00">+ getValueByKey(key : string, default : mixed = «unknown») : ?mixed</text>
</g>
<!-- Bartlett\\UmlWriter\\Service\\ClassDiagramRenderer -->
<g id="node10" class="node">
<title>Bartlett\\UmlWriter\\Service\\ClassDiagramRenderer</title>
<polygon fill="#fefece" stroke="transparent" points="2714,-1310 1616,-1310 1616,-1199 2714,-1199 2714,-1310"/>
<polygon fill="#eeeeee" stroke="transparent" points="1624,-1271.5 1624,-1305.5 2706,-1305.5 2706,-1271.5 1624,-1271.5"/>
<polygon fill="none" stroke="black" points="1624,-1271.5 1624,-1305.5 2706,-1305.5 2706,-1271.5 1624,-1271.5"/>
<text text-anchor="start" x="2073" y="-1278.3" font-family="Times,serif" font-weight="bold" font-size="14.00">ClassDiagramRenderer</text>
<polygon fill="none" stroke="black" points="1624,-1265.5 1624,-1271.5 2706,-1271.5 2706,-1265.5 1624,-1265.5"/>
<polygon fill="none" stroke="black" points="1624,-1202.5 1624,-1265.5 2706,-1265.5 2706,-1202.5 1624,-1202.5"/>
<text text-anchor="start" x="1629" y="-1249.3" font-family="Times,serif" font-size="14.00">+ __invoke(finder : Symfony\Component\Finder\Finder, generator : Bartlett\GraphUml\Generator\GeneratorInterface, parameters : array = []) : string</text>
<text text-anchor="start" x="1629" y="-1230.3" font-family="Times,serif" font-size="14.00">+ getMetadata() : array</text>
<text text-anchor="start" x="1629" y="-1211.3" font-family="Times,serif" font-size="14.00">+ getGraph() : Graphp\Graph\Graph</text>
</g>
<!-- Bartlett\\UmlWriter\\Console\\Application -->
<g id="node12" class="node">
<title>Bartlett\\UmlWriter\\Console\\Application</title>
<polygon fill="#fefece" stroke="transparent" points="4671,-1332 3675,-1332 3675,-1177 4671,-1177 4671,-1332"/>
<polygon fill="#eeeeee" stroke="transparent" points="3683,-1293.5 3683,-1327.5 4663,-1327.5 4663,-1293.5 3683,-1293.5"/>
<polygon fill="none" stroke="black" points="3683,-1293.5 3683,-1327.5 4663,-1327.5 4663,-1293.5 3683,-1293.5"/>
<text text-anchor="start" x="4128" y="-1300.3" font-family="Times,serif" font-weight="bold" font-size="14.00">Application</text>
<polygon fill="none" stroke="black" points="3683,-1249.5 3683,-1293.5 4663,-1293.5 4663,-1249.5 3683,-1249.5"/>
<text text-anchor="start" x="3688" y="-1277.3" font-family="Times,serif" font-size="14.00">+ «static» NAME : string = &quot;umlWriter&quot; {readOnly}</text>
<text text-anchor="start" x="3688" y="-1258.3" font-family="Times,serif" font-size="14.00">+ «static» VERSION : string = &quot;3\.0\.0&quot; {readOnly}</text>
<polygon fill="none" stroke="black" points="3683,-1243.5 3683,-1249.5 4663,-1249.5 4663,-1243.5 3683,-1243.5"/>
<polygon fill="none" stroke="black" points="3683,-1180.5 3683,-1243.5 4663,-1243.5 4663,-1180.5 3683,-1180.5"/>
<text text-anchor="start" x="3688" y="-1227.3" font-family="Times,serif" font-size="14.00">+ __construct(container : Psr\Container\ContainerInterface, version : string = VERSION)</text>
<text text-anchor="start" x="3688" y="-1208.3" font-family="Times,serif" font-size="14.00">+ getHelp() : string</text>
<text text-anchor="start" x="3688" y="-1189.3" font-family="Times,serif" font-size="14.00">+ doRun(input : Symfony\Component\Console\Input\InputInterface, output : Symfony\Component\Console\Output\OutputInterface) : int</text>
</g>
<!-- Symfony\\Component\\Console\\Application -->
<g id="node13" class="node">
<title>Symfony\\Component\\Console\\Application</title>
<polygon fill="#fefece" stroke="transparent" points="4778.5,-1127 3567.5,-1127 3567.5,-370 4778.5,-370 4778.5,-1127"/>
<polygon fill="#eeeeee" stroke="transparent" points="3576,-1088.5 3576,-1122.5 4771,-1122.5 4771,-1088.5 3576,-1088.5"/>
<polygon fill="none" stroke="black" points="3576,-1088.5 3576,-1122.5 4771,-1122.5 4771,-1088.5 3576,-1088.5"/>
<text text-anchor="start" x="4128.5" y="-1095.3" font-family="Times,serif" font-weight="bold" font-size="14.00">Application</text>
<polygon fill="none" stroke="black" points="3576,-1082.5 3576,-1088.5 4771,-1088.5 4771,-1082.5 3576,-1082.5"/>
<polygon fill="none" stroke="black" points="3576,-373.5 3576,-1082.5 4771,-1082.5 4771,-373.5 3576,-373.5"/>
<text text-anchor="start" x="3581" y="-1066.3" font-family="Times,serif" font-size="14.00">+ __construct(name : string = &#39;UNKNOWN&#39;, version : string = &#39;UNKNOWN&#39;)</text>
<text text-anchor="start" x="3581" y="-1047.3" font-family="Times,serif" font-size="14.00">+ setDispatcher(dispatcher : Symfony\Contracts\EventDispatcher\EventDispatcherInterface)</text>
<text text-anchor="start" x="3581" y="-1028.3" font-family="Times,serif" font-size="14.00">+ setCommandLoader(commandLoader : Symfony\Component\Console\CommandLoader\CommandLoaderInterface)</text>
<text text-anchor="start" x="3581" y="-1009.3" font-family="Times,serif" font-size="14.00">+ getSignalRegistry() : Symfony\Component\Console\SignalRegistry\SignalRegistry</text>
<text text-anchor="start" x="3581" y="-990.3" font-family="Times,serif" font-size="14.00">+ setSignalsToDispatchEvent(signalsToDispatchEvent : int = «unknown»)</text>
<text text-anchor="start" x="3581" y="-971.3" font-family="Times,serif" font-size="14.00">+ run(input : Symfony\Component\Console\Input\InputInterface = «unknown», output : Symfony\Component\Console\Output\OutputInterface = «unknown»)</text>
<text text-anchor="start" x="3581" y="-952.3" font-family="Times,serif" font-size="14.00">+ doRun(input : Symfony\Component\Console\Input\InputInterface, output : Symfony\Component\Console\Output\OutputInterface)</text>
<text text-anchor="start" x="3581" y="-933.3" font-family="Times,serif" font-size="14.00">+ reset()</text>
<text text-anchor="start" x="3581" y="-914.3" font-family="Times,serif" font-size="14.00">+ setHelperSet(helperSet : Symfony\Component\Console\Helper\HelperSet)</text>
<text text-anchor="start" x="3581" y="-895.3" font-family="Times,serif" font-size="14.00">+ getHelperSet()</text>
<text text-anchor="start" x="3581" y="-876.3" font-family="Times,serif" font-size="14.00">+ setDefinition(definition : Symfony\Component\Console\Input\InputDefinition)</text>
<text text-anchor="start" x="3581" y="-857.3" font-family="Times,serif" font-size="14.00">+ getDefinition()</text>
<text text-anchor="start" x="3581" y="-838.3" font-family="Times,serif" font-size="14.00">+ complete(input : Symfony\Component\Console\Completion\CompletionInput, suggestions : Symfony\Component\Console\Completion\CompletionSuggestions) : void</text>
<text text-anchor="start" x="3581" y="-819.3" font-family="Times,serif" font-size="14.00">+ getHelp()</text>
<text text-anchor="start" x="3581" y="-800.3" font-family="Times,serif" font-size="14.00">+ areExceptionsCaught()</text>
<text text-anchor="start" x="3581" y="-781.3" font-family="Times,serif" font-size="14.00">+ setCatchExceptions(boolean : bool)</text>
<text text-anchor="start" x="3581" y="-762.3" font-family="Times,serif" font-size="14.00">+ isAutoExitEnabled()</text>
<text text-anchor="start" x="3581" y="-743.3" font-family="Times,serif" font-size="14.00">+ setAutoExit(boolean : bool)</text>
<text text-anchor="start" x="3581" y="-724.3" font-family="Times,serif" font-size="14.00">+ getName()</text>
<text text-anchor="start" x="3581" y="-705.3" font-family="Times,serif" font-size="14.00">+ setName(name : string)</text>
<text text-anchor="start" x="3581" y="-686.3" font-family="Times,serif" font-size="14.00">+ getVersion()</text>
<text text-anchor="start" x="3581" y="-667.3" font-family="Times,serif" font-size="14.00">+ setVersion(version : string)</text>
<text text-anchor="start" x="3581" y="-648.3" font-family="Times,serif" font-size="14.00">+ getLongVersion()</text>
<text text-anchor="start" x="3581" y="-629.3" font-family="Times,serif" font-size="14.00">+ register(name : string)</text>
<text text-anchor="start" x="3581" y="-610.3" font-family="Times,serif" font-size="14.00">+ addCommands(commands : array)</text>
<text text-anchor="start" x="3581" y="-591.3" font-family="Times,serif" font-size="14.00">+ add(command : Symfony\Component\Console\Command\Command)</text>
<text text-anchor="start" x="3581" y="-572.3" font-family="Times,serif" font-size="14.00">+ get(name : string)</text>
<text text-anchor="start" x="3581" y="-553.3" font-family="Times,serif" font-size="14.00">+ has(name : string)</text>
<text text-anchor="start" x="3581" y="-534.3" font-family="Times,serif" font-size="14.00">+ getNamespaces()</text>
<text text-anchor="start" x="3581" y="-515.3" font-family="Times,serif" font-size="14.00">+ findNamespace(namespace : string)</text>
<text text-anchor="start" x="3581" y="-496.3" font-family="Times,serif" font-size="14.00">+ find(name : string)</text>
<text text-anchor="start" x="3581" y="-477.3" font-family="Times,serif" font-size="14.00">+ all(namespace : string = «unknown»)</text>
<text text-anchor="start" x="3581" y="-458.3" font-family="Times,serif" font-size="14.00">+ «static» getAbbreviations(names : array)</text>
<text text-anchor="start" x="3581" y="-439.3" font-family="Times,serif" font-size="14.00">+ renderThrowable(e : Throwable, output : Symfony\Component\Console\Output\OutputInterface) : void</text>
<text text-anchor="start" x="3581" y="-420.3" font-family="Times,serif" font-size="14.00">+ extractNamespace(name : string, limit : int = «unknown»)</text>
<text text-anchor="start" x="3581" y="-401.3" font-family="Times,serif" font-size="14.00">+ setDefaultCommand(commandName : string, isSingleCommand : bool = false)</text>
<text text-anchor="start" x="3581" y="-382.3" font-family="Times,serif" font-size="14.00">+ isSingleCommand() : bool</text>
</g>
<!-- Bartlett\\UmlWriter\\Console\\Application&#45;&gt;Symfony\\Component\\Console\\Application -->
<g id="edge8" class="edge">
<title>Bartlett\\UmlWriter\\Console\\Application&#45;&gt;Symfony\\Component\\Console\\Application</title>
<path fill="none" stroke="black" d="M4173,-1176.95C4173,-1164.77 4173,-1151.49 4173,-1137.41"/>
<polygon fill="none" stroke="black" points="4176.5,-1137.02 4173,-1127.02 4169.5,-1137.02 4176.5,-1137.02"/>
</g>
<!-- Symfony\\Contracts\\Service\\ResetInterface -->
<g id="node14" class="node">
<title>Symfony\\Contracts\\Service\\ResetInterface</title>
<polygon fill="#fefece" stroke="transparent" points="4258.5,-293 4087.5,-293 4087.5,-220 4258.5,-220 4258.5,-293"/>
<polygon fill="#eeeeee" stroke="transparent" points="4096,-254.5 4096,-288.5 4251,-288.5 4251,-254.5 4096,-254.5"/>
<polygon fill="none" stroke="black" points="4096,-254.5 4096,-288.5 4251,-288.5 4251,-254.5 4096,-254.5"/>
<text text-anchor="start" x="4128.5" y="-275.3" font-family="Times,serif" font-weight="bold" font-size="14.00">«interface»</text>
<text text-anchor="start" x="4114.5" y="-261.3" font-family="Times,serif" font-weight="bold" font-size="14.00">ResetInterface</text>
<polygon fill="none" stroke="black" points="4096,-248.5 4096,-254.5 4251,-254.5 4251,-248.5 4096,-248.5"/>
<polygon fill="none" stroke="black" points="4096,-223.5 4096,-248.5 4251,-248.5 4251,-223.5 4096,-223.5"/>
<text text-anchor="start" x="4101" y="-232.3" font-family="Times,serif" font-size="14.00">+ «abstract» reset()</text>
</g>
<!-- Symfony\\Component\\Console\\Application&#45;&gt;Symfony\\Contracts\\Service\\ResetInterface -->
<g id="edge7" class="edge">
<title>Symfony\\Component\\Console\\Application&#45;&gt;Symfony\\Contracts\\Service\\ResetInterface</title>
<path fill="none" stroke="black" stroke-dasharray="5,2" d="M4173,-369.92C4173,-344.38 4173,-321.6 4173,-303.33"/>
<polygon fill="none" stroke="black" points="4176.5,-303.11 4173,-293.11 4169.5,-303.11 4176.5,-303.11"/>
</g>
<!-- Bartlett\\UmlWriter\\Console\\Command\\ClassDiagramCommand -->
<g id="node15" class="node">
<title>Bartlett\\UmlWriter\\Console\\Command\\ClassDiagramCommand</title>
<polygon fill="#fefece" stroke="transparent" points="5974.5,-1303.5 4843.5,-1303.5 4843.5,-1205.5 5974.5,-1205.5 5974.5,-1303.5"/>
<polygon fill="#eeeeee" stroke="transparent" points="4852,-1265.5 4852,-1299.5 5967,-1299.5 5967,-1265.5 4852,-1265.5"/>
<polygon fill="none" stroke="black" points="4852,-1265.5 4852,-1299.5 5967,-1299.5 5967,-1265.5 4852,-1265.5"/>
<text text-anchor="start" x="5314.5" y="-1272.3" font-family="Times,serif" font-weight="bold" font-size="14.00">ClassDiagramCommand</text>
<polygon fill="none" stroke="black" points="4852,-1240.5 4852,-1265.5 5967,-1265.5 5967,-1240.5 4852,-1240.5"/>
<text text-anchor="start" x="4857" y="-1249.3" font-family="Times,serif" font-size="14.00">+ «static» NAME : string = &quot;diagram\:class&quot; {readOnly}</text>
<polygon fill="none" stroke="black" points="4852,-1234.5 4852,-1240.5 5967,-1240.5 5967,-1234.5 4852,-1234.5"/>
<polygon fill="none" stroke="black" points="4852,-1209.5 4852,-1234.5 5967,-1234.5 5967,-1209.5 4852,-1209.5"/>
<text text-anchor="start" x="4857" y="-1218.3" font-family="Times,serif" font-size="14.00">+ __construct(renderer : Bartlett\UmlWriter\Service\ClassDiagramRenderer, generatorFactory : Bartlett\UmlWriter\Generator\GeneratorFactoryInterface)</text>
</g>
<!-- Symfony\\Component\\Console\\Command\\Command -->
<g id="node16" class="node">
<title>Symfony\\Component\\Console\\Command\\Command</title>
<polygon fill="#fefece" stroke="transparent" points="6014.5,-1130 4803.5,-1130 4803.5,-367 6014.5,-367 6014.5,-1130"/>
<polygon fill="#eeeeee" stroke="transparent" points="4812,-1091.5 4812,-1125.5 6007,-1125.5 6007,-1091.5 4812,-1091.5"/>
<polygon fill="none" stroke="black" points="4812,-1091.5 4812,-1125.5 6007,-1125.5 6007,-1091.5 4812,-1091.5"/>
<text text-anchor="start" x="5369.5" y="-1098.3" font-family="Times,serif" font-weight="bold" font-size="14.00">Command</text>
<polygon fill="none" stroke="black" points="4812,-1028.5 4812,-1091.5 6007,-1091.5 6007,-1028.5 4812,-1028.5"/>
<text text-anchor="start" x="4817" y="-1075.3" font-family="Times,serif" font-size="14.00">+ «static» SUCCESS : int = 0 {readOnly}</text>
<text text-anchor="start" x="4817" y="-1056.3" font-family="Times,serif" font-size="14.00">+ «static» FAILURE : int = 1 {readOnly}</text>
<text text-anchor="start" x="4817" y="-1037.3" font-family="Times,serif" font-size="14.00">+ «static» INVALID : int = 2 {readOnly}</text>
<polygon fill="none" stroke="black" points="4812,-1022.5 4812,-1028.5 6007,-1028.5 6007,-1022.5 4812,-1022.5"/>
<polygon fill="none" stroke="black" points="4812,-370.5 4812,-1022.5 6007,-1022.5 6007,-370.5 4812,-370.5"/>
<text text-anchor="start" x="4817" y="-1006.3" font-family="Times,serif" font-size="14.00">+ «static» getDefaultName()</text>
<text text-anchor="start" x="4817" y="-987.3" font-family="Times,serif" font-size="14.00">+ «static» getDefaultDescription() : ?string</text>
<text text-anchor="start" x="4817" y="-968.3" font-family="Times,serif" font-size="14.00">+ __construct(name : string = «unknown»)</text>
<text text-anchor="start" x="4817" y="-949.3" font-family="Times,serif" font-size="14.00">+ ignoreValidationErrors()</text>
<text text-anchor="start" x="4817" y="-930.3" font-family="Times,serif" font-size="14.00">+ setApplication(application : Symfony\Component\Console\Application = «unknown»)</text>
<text text-anchor="start" x="4817" y="-911.3" font-family="Times,serif" font-size="14.00">+ setHelperSet(helperSet : Symfony\Component\Console\Helper\HelperSet)</text>
<text text-anchor="start" x="4817" y="-892.3" font-family="Times,serif" font-size="14.00">+ getHelperSet()</text>
<text text-anchor="start" x="4817" y="-873.3" font-family="Times,serif" font-size="14.00">+ getApplication()</text>
<text text-anchor="start" x="4817" y="-854.3" font-family="Times,serif" font-size="14.00">+ isEnabled()</text>
<text text-anchor="start" x="4817" y="-835.3" font-family="Times,serif" font-size="14.00">+ run(input : Symfony\Component\Console\Input\InputInterface, output : Symfony\Component\Console\Output\OutputInterface)</text>
<text text-anchor="start" x="4817" y="-816.3" font-family="Times,serif" font-size="14.00">+ complete(input : Symfony\Component\Console\Completion\CompletionInput, suggestions : Symfony\Component\Console\Completion\CompletionSuggestions) : void</text>
<text text-anchor="start" x="4817" y="-797.3" font-family="Times,serif" font-size="14.00">+ setCode(code : callable)</text>
<text text-anchor="start" x="4817" y="-778.3" font-family="Times,serif" font-size="14.00">+ mergeApplicationDefinition(mergeArgs : bool = true)</text>
<text text-anchor="start" x="4817" y="-759.3" font-family="Times,serif" font-size="14.00">+ setDefinition(definition : mixed)</text>
<text text-anchor="start" x="4817" y="-740.3" font-family="Times,serif" font-size="14.00">+ getDefinition()</text>
<text text-anchor="start" x="4817" y="-721.3" font-family="Times,serif" font-size="14.00">+ getNativeDefinition()</text>
<text text-anchor="start" x="4817" y="-702.3" font-family="Times,serif" font-size="14.00">+ addArgument(name : string, mode : int = «unknown», description : string = &#39;&#39;, default = «unknown»)</text>
<text text-anchor="start" x="4817" y="-683.3" font-family="Times,serif" font-size="14.00">+ addOption(name : string, shortcut = «unknown», mode : int = «unknown», description : string = &#39;&#39;, default = «unknown»)</text>
<text text-anchor="start" x="4817" y="-664.3" font-family="Times,serif" font-size="14.00">+ setName(name : string)</text>
<text text-anchor="start" x="4817" y="-645.3" font-family="Times,serif" font-size="14.00">+ setProcessTitle(title : string)</text>
<text text-anchor="start" x="4817" y="-626.3" font-family="Times,serif" font-size="14.00">+ getName()</text>
<text text-anchor="start" x="4817" y="-607.3" font-family="Times,serif" font-size="14.00">+ setHidden(hidden : bool)</text>
<text text-anchor="start" x="4817" y="-588.3" font-family="Times,serif" font-size="14.00">+ isHidden()</text>
<text text-anchor="start" x="4817" y="-569.3" font-family="Times,serif" font-size="14.00">+ setDescription(description : string)</text>
<text text-anchor="start" x="4817" y="-550.3" font-family="Times,serif" font-size="14.00">+ getDescription()</text>
<text text-anchor="start" x="4817" y="-531.3" font-family="Times,serif" font-size="14.00">+ setHelp(help : string)</text>
<text text-anchor="start" x="4817" y="-512.3" font-family="Times,serif" font-size="14.00">+ getHelp()</text>
<text text-anchor="start" x="4817" y="-493.3" font-family="Times,serif" font-size="14.00">+ getProcessedHelp()</text>
<text text-anchor="start" x="4817" y="-474.3" font-family="Times,serif" font-size="14.00">+ setAliases(aliases : iterable)</text>
<text text-anchor="start" x="4817" y="-455.3" font-family="Times,serif" font-size="14.00">+ getAliases()</text>
<text text-anchor="start" x="4817" y="-436.3" font-family="Times,serif" font-size="14.00">+ getSynopsis(short : bool = false)</text>
<text text-anchor="start" x="4817" y="-417.3" font-family="Times,serif" font-size="14.00">+ addUsage(usage : string)</text>
<text text-anchor="start" x="4817" y="-398.3" font-family="Times,serif" font-size="14.00">+ getUsages()</text>
<text text-anchor="start" x="4817" y="-379.3" font-family="Times,serif" font-size="14.00">+ getHelper(name : string)</text>
</g>
<!-- Bartlett\\UmlWriter\\Console\\Command\\ClassDiagramCommand&#45;&gt;Symfony\\Component\\Console\\Command\\Command -->
<g id="edge9" class="edge">
<title>Bartlett\\UmlWriter\\Console\\Command\\ClassDiagramCommand&#45;&gt;Symfony\\Component\\Console\\Command\\Command</title>
<path fill="none" stroke="black" d="M5409,-1205.17C5409,-1187.12 5409,-1164.9 5409,-1140.08"/>
<polygon fill="none" stroke="black" points="5412.5,-1140.06 5409,-1130.06 5405.5,-1140.06 5412.5,-1140.06"/>
</g>
</g>
</svg>
