<?xml version="1.0" encoding="UTF-8" standalone="no"?>
<!DOCTYPE svg PUBLIC "-//W3C//DTD SVG 1.1//EN"
 "http://www.w3.org/Graphics/SVG/1.1/DTD/svg11.dtd">
<!-- Generated by graphviz version 2.43.0 (0)
 -->
<!-- Title: %3 Pages: 1 -->
<svg width="6039pt" height="1367pt"
 viewBox="0.00 0.00 6039.00 1367.00" xmlns="http://www.w3.org/2000/svg" xmlns:xlink="http://www.w3.org/1999/xlink">
<g id="graph0" class="graph" transform="scale(1 1) rotate(0) translate(4 1363)">
<title>%3</title>
<polygon fill="white" stroke="transparent" points="-4,4 -4,-1363 6035,-1363 6035,4 -4,4"/>
<g id="clust1" class="cluster">
<title>cluster_0</title>
<polygon fill="none" stroke="black" points="8,-202.5 8,-1313 804,-1313 804,-202.5 8,-202.5"/>
<text text-anchor="middle" x="406" y="-1297.8" font-family="Times,serif" font-size="14.00">Bartlett\UmlWriter\Generator</text>
</g>
<g id="clust2" class="cluster">
<title>cluster_1</title>
<polygon fill="none" stroke="black" points="1162,-1191.5 1162,-1322.5 1600,-1322.5 1600,-1191.5 1162,-1191.5"/>
<text text-anchor="middle" x="1381" y="-1307.3" font-family="Times,serif" font-size="14.00">Bartlett\UmlWriter\Config\Loader</text>
</g>
<g id="clust3" class="cluster">
<title>cluster_2</title>
<polygon fill="none" stroke="black" points="812,-8 812,-841.5 1950,-841.5 1950,-8 812,-8"/>
<text text-anchor="middle" x="1381" y="-826.3" font-family="Times,serif" font-size="14.00">Symfony\Component\Config\Loader</text>
</g>
<g id="clust4" class="cluster">
<title>cluster_3</title>
<polygon fill="none" stroke="black" points="1608,-1163 1608,-1351 3590,-1351 3590,-1163 1608,-1163"/>
<text text-anchor="middle" x="2599" y="-1335.8" font-family="Times,serif" font-size="14.00">Bartlett\UmlWriter\Service</text>
</g>
<g id="clust5" class="cluster">
<title>cluster_4</title>
<polygon fill="none" stroke="black" points="3307,-691.5 3307,-822.5 3551,-822.5 3551,-691.5 3307,-691.5"/>
<text text-anchor="middle" x="3429" y="-807.3" font-family="Times,serif" font-size="14.00">Psr\Container</text>
</g>
<g id="clust6" class="cluster">
<title>cluster_5</title>
<polygon fill="none" stroke="black" points="3667,-1182 3667,-1332 4679,-1332 4679,-1182 3667,-1182"/>
<text text-anchor="middle" x="4173" y="-1316.8" font-family="Times,serif" font-size="14.00">Bartlett\UmlWriter\Console</text>
</g>
<g id="clust7" class="cluster">
<title>cluster_6</title>
<polygon fill="none" stroke="black" points="3559,-359 3559,-1155 4787,-1155 4787,-359 3559,-359"/>
<text text-anchor="middle" x="4173" y="-1139.8" font-family="Times,serif" font-size="14.00">Symfony\Component\Console</text>
</g>
<g id="clust8" class="cluster">
<title>cluster_7</title>
<polygon fill="none" stroke="black" points="4068,-212 4068,-324 4279,-324 4279,-212 4068,-212"/>
<text text-anchor="middle" x="4173.5" y="-308.8" font-family="Times,serif" font-size="14.00">Symfony\Contracts\Service</text>
</g>
<g id="clust9" class="cluster">
<title>cluster_8</title>
<polygon fill="none" stroke="black" points="4835,-1201 4835,-1313 5983,-1313 5983,-1201 4835,-1201"/>
<text text-anchor="middle" x="5409" y="-1297.8" font-family="Times,serif" font-size="14.00">Bartlett\UmlWriter\Console\Command</text>
</g>
<g id="clust10" class="cluster">
<title>cluster_9</title>
<polygon fill="none" stroke="black" points="4795,-387.5 4795,-1126.5 6023,-1126.5 6023,-387.5 4795,-387.5"/>
<text text-anchor="middle" x="5409" y="-1111.3" font-family="Times,serif" font-size="14.00">Symfony\Component\Console\Command</text>
</g>
<!-- Bartlett\\UmlWriter\\Generator\\AbstractGeneratorFactory -->
<g id="node1" class="node">
<title>Bartlett\\UmlWriter\\Generator\\AbstractGeneratorFactory</title>
<polygon fill="#fefece" stroke="transparent" points="755.5,-801 56.5,-801 56.5,-690 755.5,-690 755.5,-801"/>
<polygon fill="#eeeeee" stroke="transparent" points="65,-762.5 65,-796.5 748,-796.5 748,-762.5 65,-762.5"/>
<polygon fill="none" stroke="black" points="65,-762.5 65,-796.5 748,-796.5 748,-762.5 65,-762.5"/>
<text text-anchor="start" x="364.5" y="-783.3" font-family="Times,serif" font-weight="bold" font-size="14.00">«abstract»</text>
<text text-anchor="start" x="304" y="-769.3" font-family="Times,serif" font-weight="bold" font-size="14.00">AbstractGeneratorFactory</text>
<polygon fill="none" stroke="black" points="65,-756.5 65,-762.5 748,-762.5 748,-756.5 65,-756.5"/>
<polygon fill="none" stroke="black" points="65,-693.5 65,-756.5 748,-756.5 748,-693.5 65,-693.5"/>
<text text-anchor="start" x="70" y="-740.3" font-family="Times,serif" font-size="14.00">+ __construct(generator : string = &#39;&#39;)</text>
<text text-anchor="start" x="70" y="-721.3" font-family="Times,serif" font-size="14.00">+ createInstance(provider : string) : Bartlett\UmlWriter\Generator\GeneratorFactoryInterface</text>
<text text-anchor="start" x="70" y="-702.3" font-family="Times,serif" font-size="14.00">+ «abstract» getGenerator() : Bartlett\GraphUml\Generator\GeneratorInterface</text>
</g>
<!-- Bartlett\\UmlWriter\\Generator\\GeneratorFactoryInterface -->
<g id="node2" class="node">
<title>Bartlett\\UmlWriter\\Generator\\GeneratorFactoryInterface</title>
<polygon fill="#fefece" stroke="transparent" points="796,-302.5 16,-302.5 16,-210.5 796,-210.5 796,-302.5"/>
<polygon fill="#eeeeee" stroke="transparent" points="24,-264.5 24,-298.5 788,-298.5 788,-264.5 24,-264.5"/>
<polygon fill="none" stroke="black" points="24,-264.5 24,-298.5 788,-298.5 788,-264.5 24,-264.5"/>
<text text-anchor="start" x="361" y="-285.3" font-family="Times,serif" font-weight="bold" font-size="14.00">«interface»</text>
<text text-anchor="start" x="300.5" y="-271.3" font-family="Times,serif" font-weight="bold" font-size="14.00">GeneratorFactoryInterface</text>
<polygon fill="none" stroke="black" points="24,-258.5 24,-264.5 788,-264.5 788,-258.5 24,-258.5"/>
<polygon fill="none" stroke="black" points="24,-214.5 24,-258.5 788,-258.5 788,-214.5 24,-214.5"/>
<text text-anchor="start" x="29" y="-242.3" font-family="Times,serif" font-size="14.00">+ «abstract» createInstance(provider : string) : Bartlett\UmlWriter\Generator\GeneratorFactoryInterface</text>
<text text-anchor="start" x="29" y="-223.3" font-family="Times,serif" font-size="14.00">+ «abstract» getGenerator() : Bartlett\GraphUml\Generator\GeneratorInterface</text>
</g>
<!-- Bartlett\\UmlWriter\\Generator\\AbstractGeneratorFactory&#45;&gt;Bartlett\\UmlWriter\\Generator\\GeneratorFactoryInterface -->
<g id="edge1" class="edge">
<title>Bartlett\\UmlWriter\\Generator\\AbstractGeneratorFactory&#45;&gt;Bartlett\\UmlWriter\\Generator\\GeneratorFactoryInterface</title>
<path fill="none" stroke="black" stroke-dasharray="5,2" d="M406,-689.58C406,-595.95 406,-406.48 406,-312.67"/>
<polygon fill="none" stroke="black" points="409.5,-312.54 406,-302.54 402.5,-312.54 409.5,-312.54"/>
</g>
<!-- Bartlett\\UmlWriter\\Generator\\GeneratorFactory -->
<g id="node3" class="node">
<title>Bartlett\\UmlWriter\\Generator\\GeneratorFactory</title>
<polygon fill="#fefece" stroke="transparent" points="664.5,-1282 147.5,-1282 147.5,-1209 664.5,-1209 664.5,-1282"/>
<polygon fill="#eeeeee" stroke="transparent" points="156,-1243.5 156,-1277.5 657,-1277.5 657,-1243.5 156,-1243.5"/>
<polygon fill="none" stroke="black" points="156,-1243.5 156,-1277.5 657,-1277.5 657,-1243.5 156,-1243.5"/>
<text text-anchor="start" x="337" y="-1250.3" font-family="Times,serif" font-weight="bold" font-size="14.00">GeneratorFactory</text>
<polygon fill="none" stroke="black" points="156,-1237.5 156,-1243.5 657,-1243.5 657,-1237.5 156,-1237.5"/>
<polygon fill="none" stroke="black" points="156,-1212.5 156,-1237.5 657,-1237.5 657,-1212.5 156,-1212.5"/>
<text text-anchor="start" x="161" y="-1221.3" font-family="Times,serif" font-size="14.00">+ getGenerator() : Bartlett\GraphUml\Generator\GeneratorInterface</text>
</g>
<!-- Bartlett\\UmlWriter\\Generator\\GeneratorFactory&#45;&gt;Bartlett\\UmlWriter\\Generator\\AbstractGeneratorFactory -->
<g id="edge2" class="edge">
<title>Bartlett\\UmlWriter\\Generator\\GeneratorFactory&#45;&gt;Bartlett\\UmlWriter\\Generator\\AbstractGeneratorFactory</title>
<path fill="none" stroke="black" d="M406,-1208.69C406,-1125.37 406,-917.6 406,-811.33"/>
<polygon fill="none" stroke="black" points="409.5,-811.06 406,-801.06 402.5,-811.06 409.5,-811.06"/>
</g>
<!-- Bartlett\\UmlWriter\\Config\\Loader\\YamlFileLoader -->
<g id="node4" class="node">
<title>Bartlett\\UmlWriter\\Config\\Loader\\YamlFileLoader</title>
<polygon fill="#fefece" stroke="transparent" points="1591.5,-1291.5 1170.5,-1291.5 1170.5,-1199.5 1591.5,-1199.5 1591.5,-1291.5"/>
<polygon fill="#eeeeee" stroke="transparent" points="1179,-1253.5 1179,-1287.5 1584,-1287.5 1584,-1253.5 1179,-1253.5"/>
<polygon fill="none" stroke="black" points="1179,-1253.5 1179,-1287.5 1584,-1287.5 1584,-1253.5 1179,-1253.5"/>
<text text-anchor="start" x="1320.5" y="-1260.3" font-family="Times,serif" font-weight="bold" font-size="14.00">YamlFileLoader</text>
<polygon fill="none" stroke="black" points="1179,-1247.5 1179,-1253.5 1584,-1253.5 1584,-1247.5 1179,-1247.5"/>
<polygon fill="none" stroke="black" points="1179,-1203.5 1179,-1247.5 1584,-1247.5 1584,-1203.5 1179,-1203.5"/>
<text text-anchor="start" x="1184" y="-1231.3" font-family="Times,serif" font-size="14.00">+ load(resource, type : string = «unknown») : ?mixed</text>
<text text-anchor="start" x="1184" y="-1212.3" font-family="Times,serif" font-size="14.00">+ supports(resource, type : string = «unknown») : bool</text>
</g>
<!-- Symfony\\Component\\Config\\Loader\\FileLoader -->
<g id="node5" class="node">
<title>Symfony\\Component\\Config\\Loader\\FileLoader</title>
<polygon fill="#fefece" stroke="transparent" points="1942,-810.5 820,-810.5 820,-680.5 1942,-680.5 1942,-810.5"/>
<polygon fill="#eeeeee" stroke="transparent" points="828,-772.5 828,-806.5 1934,-806.5 1934,-772.5 828,-772.5"/>
<polygon fill="none" stroke="black" points="828,-772.5 828,-806.5 1934,-806.5 1934,-772.5 828,-772.5"/>
<text text-anchor="start" x="1339" y="-793.3" font-family="Times,serif" font-weight="bold" font-size="14.00">«abstract»</text>
<text text-anchor="start" x="1339" y="-779.3" font-family="Times,serif" font-weight="bold" font-size="14.00">FileLoader</text>
<polygon fill="none" stroke="black" points="828,-766.5 828,-772.5 1934,-772.5 1934,-766.5 828,-766.5"/>
<polygon fill="none" stroke="black" points="828,-684.5 828,-766.5 1934,-766.5 1934,-684.5 828,-684.5"/>
<text text-anchor="start" x="833" y="-750.3" font-family="Times,serif" font-size="14.00">+ __construct(locator : Symfony\Component\Config\FileLocatorInterface, env : string = «unknown»)</text>
<text text-anchor="start" x="833" y="-731.3" font-family="Times,serif" font-size="14.00">+ setCurrentDir(dir : string)</text>
<text text-anchor="start" x="833" y="-712.3" font-family="Times,serif" font-size="14.00">+ getLocator()</text>
<text text-anchor="start" x="833" y="-693.3" font-family="Times,serif" font-size="14.00">+ import(resource : mixed, type : string = «unknown», ignoreErrors : bool = false, sourceResource : string = «unknown», exclude : mixed = «unknown»)</text>
</g>
<!-- Bartlett\\UmlWriter\\Config\\Loader\\YamlFileLoader&#45;&gt;Symfony\\Component\\Config\\Loader\\FileLoader -->
<g id="edge5" class="edge">
<title>Bartlett\\UmlWriter\\Config\\Loader\\YamlFileLoader&#45;&gt;Symfony\\Component\\Config\\Loader\\FileLoader</title>
<path fill="none" stroke="black" d="M1381,-1199.43C1381,-1113.58 1381,-925.84 1381,-821.02"/>
<polygon fill="none" stroke="black" points="1384.5,-820.83 1381,-810.83 1377.5,-820.83 1384.5,-820.83"/>
</g>
<!-- Symfony\\Component\\Config\\Loader\\Loader -->
<g id="node6" class="node">
<title>Symfony\\Component\\Config\\Loader\\Loader</title>
<polygon fill="#fefece" stroke="transparent" points="1702.5,-331 1059.5,-331 1059.5,-182 1702.5,-182 1702.5,-331"/>
<polygon fill="#eeeeee" stroke="transparent" points="1068,-292.5 1068,-326.5 1695,-326.5 1695,-292.5 1068,-292.5"/>
<polygon fill="none" stroke="black" points="1068,-292.5 1068,-326.5 1695,-326.5 1695,-292.5 1068,-292.5"/>
<text text-anchor="start" x="1339.5" y="-313.3" font-family="Times,serif" font-weight="bold" font-size="14.00">«abstract»</text>
<text text-anchor="start" x="1354" y="-299.3" font-family="Times,serif" font-weight="bold" font-size="14.00">Loader</text>
<polygon fill="none" stroke="black" points="1068,-286.5 1068,-292.5 1695,-292.5 1695,-286.5 1068,-286.5"/>
<polygon fill="none" stroke="black" points="1068,-185.5 1068,-286.5 1695,-286.5 1695,-185.5 1068,-185.5"/>
<text text-anchor="start" x="1073" y="-270.3" font-family="Times,serif" font-size="14.00">+ __construct(env : string = «unknown»)</text>
<text text-anchor="start" x="1073" y="-251.3" font-family="Times,serif" font-size="14.00">+ getResolver()</text>
<text text-anchor="start" x="1073" y="-232.3" font-family="Times,serif" font-size="14.00">+ setResolver(resolver : Symfony\Component\Config\Loader\LoaderResolverInterface)</text>
<text text-anchor="start" x="1073" y="-213.3" font-family="Times,serif" font-size="14.00">+ import(resource : mixed, type : string = «unknown»)</text>
<text text-anchor="start" x="1073" y="-194.3" font-family="Times,serif" font-size="14.00">+ resolve(resource : mixed, type : string = «unknown»)</text>
</g>
<!-- Symfony\\Component\\Config\\Loader\\FileLoader&#45;&gt;Symfony\\Component\\Config\\Loader\\Loader -->
<g id="edge4" class="edge">
<title>Symfony\\Component\\Config\\Loader\\FileLoader&#45;&gt;Symfony\\Component\\Config\\Loader\\Loader</title>
<path fill="none" stroke="black" d="M1381,-680.33C1381,-593.36 1381,-437.9 1381,-341.65"/>
<polygon fill="none" stroke="black" points="1384.5,-341.37 1381,-331.37 1377.5,-341.37 1384.5,-341.37"/>
</g>
<!-- Symfony\\Component\\Config\\Loader\\LoaderInterface -->
<g id="node7" class="node">
<title>Symfony\\Component\\Config\\Loader\\LoaderInterface</title>
<polygon fill="#fefece" stroke="transparent" points="1742.5,-146 1019.5,-146 1019.5,-16 1742.5,-16 1742.5,-146"/>
<polygon fill="#eeeeee" stroke="transparent" points="1028,-108 1028,-142 1735,-142 1735,-108 1028,-108"/>
<polygon fill="none" stroke="black" points="1028,-108 1028,-142 1735,-142 1735,-108 1028,-108"/>
<text text-anchor="start" x="1336.5" y="-128.8" font-family="Times,serif" font-weight="bold" font-size="14.00">«interface»</text>
<text text-anchor="start" x="1318" y="-114.8" font-family="Times,serif" font-weight="bold" font-size="14.00">LoaderInterface</text>
<polygon fill="none" stroke="black" points="1028,-102 1028,-108 1735,-108 1735,-102 1028,-102"/>
<polygon fill="none" stroke="black" points="1028,-20 1028,-102 1735,-102 1735,-20 1028,-20"/>
<text text-anchor="start" x="1033" y="-85.8" font-family="Times,serif" font-size="14.00">+ «abstract» load(resource, type : string = «unknown»)</text>
<text text-anchor="start" x="1033" y="-66.8" font-family="Times,serif" font-size="14.00">+ «abstract» supports(resource, type : string = «unknown»)</text>
<text text-anchor="start" x="1033" y="-47.8" font-family="Times,serif" font-size="14.00">+ «abstract» getResolver()</text>
<text text-anchor="start" x="1033" y="-28.8" font-family="Times,serif" font-size="14.00">+ «abstract» setResolver(resolver : Symfony\Component\Config\Loader\LoaderResolverInterface)</text>
</g>
<!-- Symfony\\Component\\Config\\Loader\\Loader&#45;&gt;Symfony\\Component\\Config\\Loader\\LoaderInterface -->
<g id="edge3" class="edge">
<title>Symfony\\Component\\Config\\Loader\\Loader&#45;&gt;Symfony\\Component\\Config\\Loader\\LoaderInterface</title>
<path fill="none" stroke="black" stroke-dasharray="5,2" d="M1381,-181.92C1381,-173.45 1381,-164.81 1381,-156.33"/>
<polygon fill="none" stroke="black" points="1384.5,-156.09 1381,-146.09 1377.5,-156.09 1384.5,-156.09"/>
</g>
<!-- Bartlett\\UmlWriter\\Service\\ContainerService -->
<g id="node8" class="node">
<title>Bartlett\\UmlWriter\\Service\\ContainerService</title>
<polygon fill="#fefece" stroke="transparent" points="3582,-1310.5 3276,-1310.5 3276,-1180.5 3582,-1180.5 3582,-1310.5"/>
<polygon fill="#eeeeee" stroke="transparent" points="3284,-1272.5 3284,-1306.5 3574,-1306.5 3574,-1272.5 3284,-1272.5"/>
<polygon fill="none" stroke="black" points="3284,-1272.5 3284,-1306.5 3574,-1306.5 3574,-1272.5 3284,-1272.5"/>
<text text-anchor="start" x="3361" y="-1279.3" font-family="Times,serif" font-weight="bold" font-size="14.00">ContainerService</text>
<polygon fill="none" stroke="black" points="3284,-1266.5 3284,-1272.5 3574,-1272.5 3574,-1266.5 3284,-1266.5"/>
<polygon fill="none" stroke="black" points="3284,-1184.5 3284,-1266.5 3574,-1266.5 3574,-1184.5 3284,-1184.5"/>
<text text-anchor="start" x="3289" y="-1250.3" font-family="Times,serif" font-size="14.00">+ __construct()</text>
<text text-anchor="start" x="3289" y="-1231.3" font-family="Times,serif" font-size="14.00">+ set(id : string, service : mixed) : void</text>
<text text-anchor="start" x="3289" y="-1212.3" font-family="Times,serif" font-size="14.00">+ get(id : string) : ?mixed</text>
<text text-anchor="start" x="3289" y="-1193.3" font-family="Times,serif" font-size="14.00">+ has(id : string) : bool</text>
</g>
<!-- Psr\\Container\\ContainerInterface -->
<g id="node11" class="node">
<title>Psr\\Container\\ContainerInterface</title>
<polygon fill="#fefece" stroke="transparent" points="3543,-791.5 3315,-791.5 3315,-699.5 3543,-699.5 3543,-791.5"/>
<polygon fill="#eeeeee" stroke="transparent" points="3323,-753.5 3323,-787.5 3535,-787.5 3535,-753.5 3323,-753.5"/>
<polygon fill="none" stroke="black" points="3323,-753.5 3323,-787.5 3535,-787.5 3535,-753.5 3323,-753.5"/>
<text text-anchor="start" x="3384" y="-774.3" font-family="Times,serif" font-weight="bold" font-size="14.00">«interface»</text>
<text text-anchor="start" x="3353" y="-760.3" font-family="Times,serif" font-weight="bold" font-size="14.00">ContainerInterface</text>
<polygon fill="none" stroke="black" points="3323,-747.5 3323,-753.5 3535,-753.5 3535,-747.5 3323,-747.5"/>
<polygon fill="none" stroke="black" points="3323,-703.5 3323,-747.5 3535,-747.5 3535,-703.5 3323,-703.5"/>
<text text-anchor="start" x="3328" y="-731.3" font-family="Times,serif" font-size="14.00">+ «abstract» get(id : string)</text>
<text text-anchor="start" x="3328" y="-712.3" font-family="Times,serif" font-size="14.00">+ «abstract» has(id : string)</text>
</g>
<!-- Bartlett\\UmlWriter\\Service\\ContainerService&#45;&gt;Psr\\Container\\ContainerInterface -->
<g id="edge6" class="edge">
<title>Bartlett\\UmlWriter\\Service\\ContainerService&#45;&gt;Psr\\Container\\ContainerInterface</title>
<path fill="none" stroke="black" stroke-dasharray="5,2" d="M3429,-1180.41C3429,-1081.79 3429,-894.5 3429,-801.6"/>
<polygon fill="none" stroke="black" points="3432.5,-801.56 3429,-791.56 3425.5,-801.56 3432.5,-801.56"/>
</g>
<!-- Bartlett\\UmlWriter\\Service\\ConfigurationHandler -->
<g id="node9" class="node">
<title>Bartlett\\UmlWriter\\Service\\ConfigurationHandler</title>
<polygon fill="#fefece" stroke="transparent" points="3257.5,-1320 2732.5,-1320 2732.5,-1171 3257.5,-1171 3257.5,-1320"/>
<polygon fill="#eeeeee" stroke="transparent" points="2741,-1281.5 2741,-1315.5 3250,-1315.5 3250,-1281.5 2741,-1281.5"/>
<polygon fill="none" stroke="black" points="2741,-1281.5 2741,-1315.5 3250,-1315.5 3250,-1281.5 2741,-1281.5"/>
<text text-anchor="start" x="2908" y="-1288.3" font-family="Times,serif" font-weight="bold" font-size="14.00">ConfigurationHandler</text>
<polygon fill="none" stroke="black" points="2741,-1275.5 2741,-1281.5 3250,-1281.5 3250,-1275.5 2741,-1275.5"/>
<polygon fill="none" stroke="black" points="2741,-1174.5 2741,-1275.5 3250,-1275.5 3250,-1174.5 2741,-1174.5"/>
<text text-anchor="start" x="2746" y="-1259.3" font-family="Times,serif" font-size="14.00">+ __construct(filename : string)</text>
<text text-anchor="start" x="2746" y="-1240.3" font-family="Times,serif" font-size="14.00">+ filename() : ?string</text>
<text text-anchor="start" x="2746" y="-1221.3" font-family="Times,serif" font-size="14.00">+ toArray() : array</text>
<text text-anchor="start" x="2746" y="-1202.3" font-family="Times,serif" font-size="14.00">+ toFlat() : array</text>
<text text-anchor="start" x="2746" y="-1183.3" font-family="Times,serif" font-size="14.00">+ getValueByKey(key : string, default : mixed = «unknown») : ?mixed</text>
</g>
<!-- Bartlett\\UmlWriter\\Service\\ClassDiagramRenderer -->
<g id="node10" class="node">
<title>Bartlett\\UmlWriter\\Service\\ClassDiagramRenderer</title>
<polygon fill="#fefece" stroke="transparent" points="2714,-1301 1616,-1301 1616,-1190 2714,-1190 2714,-1301"/>
<polygon fill="#eeeeee" stroke="transparent" points="1624,-1262.5 1624,-1296.5 2706,-1296.5 2706,-1262.5 1624,-1262.5"/>
<polygon fill="none" stroke="black" points="1624,-1262.5 1624,-1296.5 2706,-1296.5 2706,-1262.5 1624,-1262.5"/>
<text text-anchor="start" x="2073" y="-1269.3" font-family="Times,serif" font-weight="bold" font-size="14.00">ClassDiagramRenderer</text>
<polygon fill="none" stroke="black" points="1624,-1256.5 1624,-1262.5 2706,-1262.5 2706,-1256.5 1624,-1256.5"/>
<polygon fill="none" stroke="black" points="1624,-1193.5 1624,-1256.5 2706,-1256.5 2706,-1193.5 1624,-1193.5"/>
<text text-anchor="start" x="1629" y="-1240.3" font-family="Times,serif" font-size="14.00">+ __invoke(finder : Symfony\Component\Finder\Finder, generator : Bartlett\GraphUml\Generator\GeneratorInterface, parameters : array = []) : string</text>
<text text-anchor="start" x="1629" y="-1221.3" font-family="Times,serif" font-size="14.00">+ getMetadata() : array</text>
<text text-anchor="start" x="1629" y="-1202.3" font-family="Times,serif" font-size="14.00">+ getGraph() : Graphp\Graph\Graph</text>
</g>
<!-- Bartlett\\UmlWriter\\Console\\Application -->
<g id="node12" class="node">
<title>Bartlett\\UmlWriter\\Console\\Application</title>
<polygon fill="#fefece" stroke="transparent" points="4671,-1301 3675,-1301 3675,-1190 4671,-1190 4671,-1301"/>
<polygon fill="#eeeeee" stroke="transparent" points="3683,-1262.5 3683,-1296.5 4663,-1296.5 4663,-1262.5 3683,-1262.5"/>
<polygon fill="none" stroke="black" points="3683,-1262.5 3683,-1296.5 4663,-1296.5 4663,-1262.5 3683,-1262.5"/>
<text text-anchor="start" x="4128" y="-1269.3" font-family="Times,serif" font-weight="bold" font-size="14.00">Application</text>
<polygon fill="none" stroke="black" points="3683,-1256.5 3683,-1262.5 4663,-1262.5 4663,-1256.5 3683,-1256.5"/>
<polygon fill="none" stroke="black" points="3683,-1193.5 3683,-1256.5 4663,-1256.5 4663,-1193.5 3683,-1193.5"/>
<text text-anchor="start" x="3688" y="-1240.3" font-family="Times,serif" font-size="14.00">+ __construct(container : Psr\Container\ContainerInterface, version : string = VERSION)</text>
<text text-anchor="start" x="3688" y="-1221.3" font-family="Times,serif" font-size="14.00">+ getHelp() : string</text>
<text text-anchor="start" x="3688" y="-1202.3" font-family="Times,serif" font-size="14.00">+ doRun(input : Symfony\Component\Console\Input\InputInterface, output : Symfony\Component\Console\Output\OutputInterface) : int</text>
</g>
<!-- Symfony\\Component\\Console\\Application -->
<g id="node13" class="node">
<title>Symfony\\Component\\Console\\Application</title>
<polygon fill="#fefece" stroke="transparent" points="4778.5,-1124 3567.5,-1124 3567.5,-367 4778.5,-367 4778.5,-1124"/>
<polygon fill="#eeeeee" stroke="transparent" points="3576,-1085.5 3576,-1119.5 4771,-1119.5 4771,-1085.5 3576,-1085.5"/>
<polygon fill="none" stroke="black" points="3576,-1085.5 3576,-1119.5 4771,-1119.5 4771,-1085.5 3576,-1085.5"/>
<text text-anchor="start" x="4128.5" y="-1092.3" font-family="Times,serif" font-weight="bold" font-size="14.00">Application</text>
<polygon fill="none" stroke="black" points="3576,-1079.5 3576,-1085.5 4771,-1085.5 4771,-1079.5 3576,-1079.5"/>
<polygon fill="none" stroke="black" points="3576,-370.5 3576,-1079.5 4771,-1079.5 4771,-370.5 3576,-370.5"/>
<text text-anchor="start" x="3581" y="-1063.3" font-family="Times,serif" font-size="14.00">+ __construct(name : string = &#39;UNKNOWN&#39;, version : string = &#39;UNKNOWN&#39;)</text>
<text text-anchor="start" x="3581" y="-1044.3" font-family="Times,serif" font-size="14.00">+ setDispatcher(dispatcher : Symfony\Contracts\EventDispatcher\EventDispatcherInterface)</text>
<text text-anchor="start" x="3581" y="-1025.3" font-family="Times,serif" font-size="14.00">+ setCommandLoader(commandLoader : Symfony\Component\Console\CommandLoader\CommandLoaderInterface)</text>
<text text-anchor="start" x="3581" y="-1006.3" font-family="Times,serif" font-size="14.00">+ getSignalRegistry() : Symfony\Component\Console\SignalRegistry\SignalRegistry</text>
<text text-anchor="start" x="3581" y="-987.3" font-family="Times,serif" font-size="14.00">+ setSignalsToDispatchEvent(signalsToDispatchEvent : int = «unknown»)</text>
<text text-anchor="start" x="3581" y="-968.3" font-family="Times,serif" font-size="14.00">+ run(input : Symfony\Component\Console\Input\InputInterface = «unknown», output : Symfony\Component\Console\Output\OutputInterface = «unknown»)</text>
<text text-anchor="start" x="3581" y="-949.3" font-family="Times,serif" font-size="14.00">+ doRun(input : Symfony\Component\Console\Input\InputInterface, output : Symfony\Component\Console\Output\OutputInterface)</text>
<text text-anchor="start" x="3581" y="-930.3" font-family="Times,serif" font-size="14.00">+ reset()</text>
<text text-anchor="start" x="3581" y="-911.3" font-family="Times,serif" font-size="14.00">+ setHelperSet(helperSet : Symfony\Component\Console\Helper\HelperSet)</text>
<text text-anchor="start" x="3581" y="-892.3" font-family="Times,serif" font-size="14.00">+ getHelperSet()</text>
<text text-anchor="start" x="3581" y="-873.3" font-family="Times,serif" font-size="14.00">+ setDefinition(definition : Symfony\Component\Console\Input\InputDefinition)</text>
<text text-anchor="start" x="3581" y="-854.3" font-family="Times,serif" font-size="14.00">+ getDefinition()</text>
<text text-anchor="start" x="3581" y="-835.3" font-family="Times,serif" font-size="14.00">+ complete(input : Symfony\Component\Console\Completion\CompletionInput, suggestions : Symfony\Component\Console\Completion\CompletionSuggestions) : void</text>
<text text-anchor="start" x="3581" y="-816.3" font-family="Times,serif" font-size="14.00">+ getHelp()</text>
<text text-anchor="start" x="3581" y="-797.3" font-family="Times,serif" font-size="14.00">+ areExceptionsCaught()</text>
<text text-anchor="start" x="3581" y="-778.3" font-family="Times,serif" font-size="14.00">+ setCatchExceptions(boolean : bool)</text>
<text text-anchor="start" x="3581" y="-759.3" font-family="Times,serif" font-size="14.00">+ isAutoExitEnabled()</text>
<text text-anchor="start" x="3581" y="-740.3" font-family="Times,serif" font-size="14.00">+ setAutoExit(boolean : bool)</text>
<text text-anchor="start" x="3581" y="-721.3" font-family="Times,serif" font-size="14.00">+ getName()</text>
<text text-anchor="start" x="3581" y="-702.3" font-family="Times,serif" font-size="14.00">+ setName(name : string)</text>
<text text-anchor="start" x="3581" y="-683.3" font-family="Times,serif" font-size="14.00">+ getVersion()</text>
<text text-anchor="start" x="3581" y="-664.3" font-family="Times,serif" font-size="14.00">+ setVersion(version : string)</text>
<text text-anchor="start" x="3581" y="-645.3" font-family="Times,serif" font-size="14.00">+ getLongVersion()</text>
<text text-anchor="start" x="3581" y="-626.3" font-family="Times,serif" font-size="14.00">+ register(name : string)</text>
<text text-anchor="start" x="3581" y="-607.3" font-family="Times,serif" font-size="14.00">+ addCommands(commands : array)</text>
<text text-anchor="start" x="3581" y="-588.3" font-family="Times,serif" font-size="14.00">+ add(command : Symfony\Component\Console\Command\Command)</text>
<text text-anchor="start" x="3581" y="-569.3" font-family="Times,serif" font-size="14.00">+ get(name : string)</text>
<text text-anchor="start" x="3581" y="-550.3" font-family="Times,serif" font-size="14.00">+ has(name : string)</text>
<text text-anchor="start" x="3581" y="-531.3" font-family="Times,serif" font-size="14.00">+ getNamespaces()</text>
<text text-anchor="start" x="3581" y="-512.3" font-family="Times,serif" font-size="14.00">+ findNamespace(namespace : string)</text>
<text text-anchor="start" x="3581" y="-493.3" font-family="Times,serif" font-size="14.00">+ find(name : string)</text>
<text text-anchor="start" x="3581" y="-474.3" font-family="Times,serif" font-size="14.00">+ all(namespace : string = «unknown»)</text>
<text text-anchor="start" x="3581" y="-455.3" font-family="Times,serif" font-size="14.00">+ «static» getAbbreviations(names : array)</text>
<text text-anchor="start" x="3581" y="-436.3" font-family="Times,serif" font-size="14.00">+ renderThrowable(e : Throwable, output : Symfony\Component\Console\Output\OutputInterface) : void</text>
<text text-anchor="start" x="3581" y="-417.3" font-family="Times,serif" font-size="14.00">+ extractNamespace(name : string, limit : int = «unknown»)</text>
<text text-anchor="start" x="3581" y="-398.3" font-family="Times,serif" font-size="14.00">+ setDefaultCommand(commandName : string, isSingleCommand : bool = false)</text>
<text text-anchor="start" x="3581" y="-379.3" font-family="Times,serif" font-size="14.00">+ isSingleCommand() : bool</text>
</g>
<!-- Bartlett\\UmlWriter\\Console\\Application&#45;&gt;Symfony\\Component\\Console\\Application -->
<g id="edge8" class="edge">
<title>Bartlett\\UmlWriter\\Console\\Application&#45;&gt;Symfony\\Component\\Console\\Application</title>
<path fill="none" stroke="black" d="M4173,-1189.78C4173,-1173.82 4173,-1155.05 4173,-1134.41"/>
<polygon fill="none" stroke="black" points="4176.5,-1134.13 4173,-1124.13 4169.5,-1134.13 4176.5,-1134.13"/>
</g>
<!-- Symfony\\Contracts\\Service\\ResetInterface -->
<g id="node14" class="node">
<title>Symfony\\Contracts\\Service\\ResetInterface</title>
<polygon fill="#fefece" stroke="transparent" points="4258.5,-293 4087.5,-293 4087.5,-220 4258.5,-220 4258.5,-293"/>
<polygon fill="#eeeeee" stroke="transparent" points="4096,-254.5 4096,-288.5 4251,-288.5 4251,-254.5 4096,-254.5"/>
<polygon fill="none" stroke="black" points="4096,-254.5 4096,-288.5 4251,-288.5 4251,-254.5 4096,-254.5"/>
<text text-anchor="start" x="4128.5" y="-275.3" font-family="Times,serif" font-weight="bold" font-size="14.00">«interface»</text>
<text text-anchor="start" x="4114.5" y="-261.3" font-family="Times,serif" font-weight="bold" font-size="14.00">ResetInterface</text>
<polygon fill="none" stroke="black" points="4096,-248.5 4096,-254.5 4251,-254.5 4251,-248.5 4096,-248.5"/>
<polygon fill="none" stroke="black" points="4096,-223.5 4096,-248.5 4251,-248.5 4251,-223.5 4096,-223.5"/>
<text text-anchor="start" x="4101" y="-232.3" font-family="Times,serif" font-size="14.00">+ «abstract» reset()</text>
</g>
<!-- Symfony\\Component\\Console\\Application&#45;&gt;Symfony\\Contracts\\Service\\ResetInterface -->
<g id="edge7" class="edge">
<title>Symfony\\Component\\Console\\Application&#45;&gt;Symfony\\Contracts\\Service\\ResetInterface</title>
<path fill="none" stroke="black" stroke-dasharray="5,2" d="M4173,-366.79C4173,-342.55 4173,-320.89 4173,-303.38"/>
<polygon fill="none" stroke="black" points="4176.5,-303.02 4173,-293.02 4169.5,-303.02 4176.5,-303.02"/>
</g>
<!-- Bartlett\\UmlWriter\\Console\\Command\\ClassDiagramCommand -->
<g id="node15" class="node">
<title>Bartlett\\UmlWriter\\Console\\Command\\ClassDiagramCommand</title>
<polygon fill="#fefece" stroke="transparent" points="5974.5,-1282 4843.5,-1282 4843.5,-1209 5974.5,-1209 5974.5,-1282"/>
<polygon fill="#eeeeee" stroke="transparent" points="4852,-1243.5 4852,-1277.5 5967,-1277.5 5967,-1243.5 4852,-1243.5"/>
<polygon fill="none" stroke="black" points="4852,-1243.5 4852,-1277.5 5967,-1277.5 5967,-1243.5 4852,-1243.5"/>
<text text-anchor="start" x="5314.5" y="-1250.3" font-family="Times,serif" font-weight="bold" font-size="14.00">ClassDiagramCommand</text>
<polygon fill="none" stroke="black" points="4852,-1237.5 4852,-1243.5 5967,-1243.5 5967,-1237.5 4852,-1237.5"/>
<polygon fill="none" stroke="black" points="4852,-1212.5 4852,-1237.5 5967,-1237.5 5967,-1212.5 4852,-1212.5"/>
<text text-anchor="start" x="4857" y="-1221.3" font-family="Times,serif" font-size="14.00">+ __construct(renderer : Bartlett\UmlWriter\Service\ClassDiagramRenderer, generatorFactory : Bartlett\UmlWriter\Generator\GeneratorFactoryInterface)</text>
</g>
<!-- Symfony\\Component\\Console\\Command\\Command -->
<g id="node16" class="node">
<title>Symfony\\Component\\Console\\Command\\Command</title>
<polygon fill="#fefece" stroke="transparent" points="6014.5,-1095.5 4803.5,-1095.5 4803.5,-395.5 6014.5,-395.5 6014.5,-1095.5"/>
<polygon fill="#eeeeee" stroke="transparent" points="4812,-1057.5 4812,-1091.5 6007,-1091.5 6007,-1057.5 4812,-1057.5"/>
<polygon fill="none" stroke="black" points="4812,-1057.5 4812,-1091.5 6007,-1091.5 6007,-1057.5 4812,-1057.5"/>
<text text-anchor="start" x="5369.5" y="-1064.3" font-family="Times,serif" font-weight="bold" font-size="14.00">Command</text>
<polygon fill="none" stroke="black" points="4812,-1051.5 4812,-1057.5 6007,-1057.5 6007,-1051.5 4812,-1051.5"/>
<polygon fill="none" stroke="black" points="4812,-399.5 4812,-1051.5 6007,-1051.5 6007,-399.5 4812,-399.5"/>
<text text-anchor="start" x="4817" y="-1035.3" font-family="Times,serif" font-size="14.00">+ «static» getDefaultName()</text>
<text text-anchor="start" x="4817" y="-1016.3" font-family="Times,serif" font-size="14.00">+ «static» getDefaultDescription() : ?string</text>
<text text-anchor="start" x="4817" y="-997.3" font-family="Times,serif" font-size="14.00">+ __construct(name : string = «unknown»)</text>
<text text-anchor="start" x="4817" y="-978.3" font-family="Times,serif" font-size="14.00">+ ignoreValidationErrors()</text>
<text text-anchor="start" x="4817" y="-959.3" font-family="Times,serif" font-size="14.00">+ setApplication(application : Symfony\Component\Console\Application = «unknown»)</text>
<text text-anchor="start" x="4817" y="-940.3" font-family="Times,serif" font-size="14.00">+ setHelperSet(helperSet : Symfony\Component\Console\Helper\HelperSet)</text>
<text text-anchor="start" x="4817" y="-921.3" font-family="Times,serif" font-size="14.00">+ getHelperSet()</text>
<text text-anchor="start" x="4817" y="-902.3" font-family="Times,serif" font-size="14.00">+ getApplication()</text>
<text text-anchor="start" x="4817" y="-883.3" font-family="Times,serif" font-size="14.00">+ isEnabled()</text>
<text text-anchor="start" x="4817" y="-864.3" font-family="Times,serif" font-size="14.00">+ run(input : Symfony\Component\Console\Input\InputInterface, output : Symfony\Component\Console\Output\OutputInterface)</text>
<text text-anchor="start" x="4817" y="-845.3" font-family="Times,serif" font-size="14.00">+ complete(input : Symfony\Component\Console\Completion\CompletionInput, suggestions : Symfony\Component\Console\Completion\CompletionSuggestions) : void</text>
<text text-anchor="start" x="4817" y="-826.3" font-family="Times,serif" font-size="14.00">+ setCode(code : callable)</text>
<text text-anchor="start" x="4817" y="-807.3" font-family="Times,serif" font-size="14.00">+ mergeApplicationDefinition(mergeArgs : bool = true)</text>
<text text-anchor="start" x="4817" y="-788.3" font-family="Times,serif" font-size="14.00">+ setDefinition(definition : mixed)</text>
<text text-anchor="start" x="4817" y="-769.3" font-family="Times,serif" font-size="14.00">+ getDefinition()</text>
<text text-anchor="start" x="4817" y="-750.3" font-family="Times,serif" font-size="14.00">+ getNativeDefinition()</text>
<text text-anchor="start" x="4817" y="-731.3" font-family="Times,serif" font-size="14.00">+ addArgument(name : string, mode : int = «unknown», description : string = &#39;&#39;, default = «unknown»)</text>
<text text-anchor="start" x="4817" y="-712.3" font-family="Times,serif" font-size="14.00">+ addOption(name : string, shortcut = «unknown», mode : int = «unknown», description : string = &#39;&#39;, default = «unknown»)</text>
<text text-anchor="start" x="4817" y="-693.3" font-family="Times,serif" font-size="14.00">+ setName(name : string)</text>
<text text-anchor="start" x="4817" y="-674.3" font-family="Times,serif" font-size="14.00">+ setProcessTitle(title : string)</text>
<text text-anchor="start" x="4817" y="-655.3" font-family="Times,serif" font-size="14.00">+ getName()</text>
<text text-anchor="start" x="4817" y="-636.3" font-family="Times,serif" font-size="14.00">+ setHidden(hidden : bool)</text>
<text text-anchor="start" x="4817" y="-617.3" font-family="Times,serif" font-size="14.00">+ isHidden()</text>
<text text-anchor="start" x="4817" y="-598.3" font-family="Times,serif" font-size="14.00">+ setDescription(description : string)</text>
<text text-anchor="start" x="4817" y="-579.3" font-family="Times,serif" font-size="14.00">+ getDescription()</text>
<text text-anchor="start" x="4817" y="-560.3" font-family="Times,serif" font-size="14.00">+ setHelp(help : string)</text>
<text text-anchor="start" x="4817" y="-541.3" font-family="Times,serif" font-size="14.00">+ getHelp()</text>
<text text-anchor="start" x="4817" y="-522.3" font-family="Times,serif" font-size="14.00">+ getProcessedHelp()</text>
<text text-anchor="start" x="4817" y="-503.3" font-family="Times,serif" font-size="14.00">+ setAliases(aliases : iterable)</text>
<text text-anchor="start" x="4817" y="-484.3" font-family="Times,serif" font-size="14.00">+ getAliases()</text>
<text text-anchor="start" x="4817" y="-465.3" font-family="Times,serif" font-size="14.00">+ getSynopsis(short : bool = false)</text>
<text text-anchor="start" x="4817" y="-446.3" font-family="Times,serif" font-size="14.00">+ addUsage(usage : string)</text>
<text text-anchor="start" x="4817" y="-427.3" font-family="Times,serif" font-size="14.00">+ getUsages()</text>
<text text-anchor="start" x="4817" y="-408.3" font-family="Times,serif" font-size="14.00">+ getHelper(name : string)</text>
</g>
<!-- Bartlett\\UmlWriter\\Console\\Command\\ClassDiagramCommand&#45;&gt;Symfony\\Component\\Console\\Command\\Command -->
<g id="edge9" class="edge">
<title>Bartlett\\UmlWriter\\Console\\Command\\ClassDiagramCommand&#45;&gt;Symfony\\Component\\Console\\Command\\Command</title>
<path fill="none" stroke="black" d="M5409,-1208.69C5409,-1183.6 5409,-1147.23 5409,-1105.74"/>
<polygon fill="none" stroke="black" points="5412.5,-1105.67 5409,-1095.67 5405.5,-1105.67 5412.5,-1105.67"/>
</g>
</g>
</svg>
