<?xml version="1.0" encoding="UTF-8" standalone="no"?>
<!DOCTYPE svg PUBLIC "-//W3C//DTD SVG 1.1//EN"
 "http://www.w3.org/Graphics/SVG/1.1/DTD/svg11.dtd">
<!-- Generated by graphviz version 2.43.0 (0)
 -->
<!-- Title: %3 Pages: 1 -->
<svg width="6395pt" height="1398pt"
 viewBox="0.00 0.00 6395.00 1398.00" xmlns="http://www.w3.org/2000/svg" xmlns:xlink="http://www.w3.org/1999/xlink">
<g id="graph0" class="graph" transform="scale(1 1) rotate(0) translate(4 1394)">
<title>%3</title>
<g id="clust1" class="cluster">
<title>cluster_0</title>
<polygon fill="transparent" stroke="black" points="8,-202.5 8,-1331.5 804,-1331.5 804,-202.5 8,-202.5"/>
<text text-anchor="middle" x="406" y="-1316.3" font-family="Times,serif" font-size="14.00">Bartlett\UmlWriter\Generator</text>
</g>
<g id="clust2" class="cluster">
<title>cluster_1</title>
<polygon fill="transparent" stroke="black" points="812,-1181.5 812,-1369.5 2794,-1369.5 2794,-1181.5 812,-1181.5"/>
<text text-anchor="middle" x="1803" y="-1354.3" font-family="Times,serif" font-size="14.00">Bartlett\UmlWriter\Service</text>
</g>
<g id="clust3" class="cluster">
<title>cluster_2</title>
<polygon fill="transparent" stroke="black" points="851,-694.5 851,-825.5 1095,-825.5 1095,-694.5 851,-694.5"/>
<text text-anchor="middle" x="973" y="-810.3" font-family="Times,serif" font-size="14.00">Psr\Container</text>
</g>
<g id="clust4" class="cluster">
<title>cluster_3</title>
<polygon fill="transparent" stroke="black" points="2802,-1169 2802,-1382 3964,-1382 3964,-1169 2802,-1169"/>
<text text-anchor="middle" x="3383" y="-1366.8" font-family="Times,serif" font-size="14.00">Bartlett\UmlWriter\Console</text>
</g>
<g id="clust5" class="cluster">
<title>cluster_4</title>
<polygon fill="transparent" stroke="black" points="2769,-362 2769,-1158 3997,-1158 3997,-362 2769,-362"/>
<text text-anchor="middle" x="3383" y="-1142.8" font-family="Times,serif" font-size="14.00">Symfony\Component\Console</text>
</g>
<g id="clust6" class="cluster">
<title>cluster_5</title>
<polygon fill="transparent" stroke="black" points="3278,-212 3278,-324 3489,-324 3489,-212 3278,-212"/>
<text text-anchor="middle" x="3383.5" y="-308.8" font-family="Times,serif" font-size="14.00">Symfony\Contracts\Service</text>
</g>
<g id="clust7" class="cluster">
<title>cluster_6</title>
<polygon fill="transparent" stroke="black" points="4045,-1207 4045,-1344 5193,-1344 5193,-1207 4045,-1207"/>
<text text-anchor="middle" x="4619" y="-1328.8" font-family="Times,serif" font-size="14.00">Bartlett\UmlWriter\Console\Command</text>
</g>
<g id="clust8" class="cluster">
<title>cluster_7</title>
<polygon fill="transparent" stroke="black" points="4005,-359 4005,-1161 5233,-1161 5233,-359 4005,-359"/>
<text text-anchor="middle" x="4619" y="-1145.8" font-family="Times,serif" font-size="14.00">Symfony\Component\Console\Command</text>
</g>
<g id="clust9" class="cluster">
<title>cluster_8</title>
<polygon fill="transparent" stroke="black" points="5591,-1210 5591,-1341 6029,-1341 6029,-1210 5591,-1210"/>
<text text-anchor="middle" x="5810" y="-1325.8" font-family="Times,serif" font-size="14.00">Bartlett\UmlWriter\Config\Loader</text>
</g>
<g id="clust10" class="cluster">
<title>cluster_9</title>
<polygon fill="transparent" stroke="black" points="5241,-8 5241,-844.5 6379,-844.5 6379,-8 5241,-8"/>
<text text-anchor="middle" x="5810" y="-829.3" font-family="Times,serif" font-size="14.00">Symfony\Component\Config\Loader</text>
</g>
<!-- Bartlett\\UmlWriter\\Generator\\GeneratorFactory -->
<g id="node1" class="node">
<title>Bartlett\\UmlWriter\\Generator\\GeneratorFactory</title>
<polygon fill="#fefece" stroke="transparent" points="664.5,-1300.5 147.5,-1300.5 147.5,-1227.5 664.5,-1227.5 664.5,-1300.5"/>
<polygon fill="#eeeeee" stroke="transparent" points="156,-1262 156,-1296 657,-1296 657,-1262 156,-1262"/>
<polygon fill="none" stroke="black" points="156,-1262 156,-1296 657,-1296 657,-1262 156,-1262"/>
<text text-anchor="start" x="337" y="-1268.8" font-family="Times,serif" font-weight="bold" font-size="14.00">GeneratorFactory</text>
<polygon fill="none" stroke="black" points="156,-1256 156,-1262 657,-1262 657,-1256 156,-1256"/>
<polygon fill="none" stroke="black" points="156,-1231 156,-1256 657,-1256 657,-1231 156,-1231"/>
<text text-anchor="start" x="161" y="-1239.8" font-family="Times,serif" font-size="14.00">+ getGenerator() : Bartlett\GraphUml\Generator\GeneratorInterface</text>
</g>
<!-- Bartlett\\UmlWriter\\Generator\\AbstractGeneratorFactory -->
<g id="node2" class="node">
<title>Bartlett\\UmlWriter\\Generator\\AbstractGeneratorFactory</title>
<polygon fill="#fefece" stroke="transparent" points="755.5,-804 56.5,-804 56.5,-693 755.5,-693 755.5,-804"/>
<polygon fill="#eeeeee" stroke="transparent" points="65,-765.5 65,-799.5 748,-799.5 748,-765.5 65,-765.5"/>
<polygon fill="none" stroke="black" points="65,-765.5 65,-799.5 748,-799.5 748,-765.5 65,-765.5"/>
<text text-anchor="start" x="364.5" y="-786.3" font-family="Times,serif" font-weight="bold" font-size="14.00">«abstract»</text>
<text text-anchor="start" x="304" y="-772.3" font-family="Times,serif" font-weight="bold" font-size="14.00">AbstractGeneratorFactory</text>
<polygon fill="none" stroke="black" points="65,-759.5 65,-765.5 748,-765.5 748,-759.5 65,-759.5"/>
<polygon fill="none" stroke="black" points="65,-696.5 65,-759.5 748,-759.5 748,-696.5 65,-696.5"/>
<text text-anchor="start" x="70" y="-743.3" font-family="Times,serif" font-size="14.00">+ __construct(generator : string = &#39;&#39;)</text>
<text text-anchor="start" x="70" y="-724.3" font-family="Times,serif" font-size="14.00">+ createInstance(provider : string) : Bartlett\UmlWriter\Generator\GeneratorFactoryInterface</text>
<text text-anchor="start" x="70" y="-705.3" font-family="Times,serif" font-size="14.00">+ «abstract» getGenerator() : Bartlett\GraphUml\Generator\GeneratorInterface</text>
</g>
<!-- Bartlett\\UmlWriter\\Generator\\GeneratorFactory&#45;&gt;Bartlett\\UmlWriter\\Generator\\AbstractGeneratorFactory -->
<g id="edge2" class="edge">
<title>Bartlett\\UmlWriter\\Generator\\GeneratorFactory&#45;&gt;Bartlett\\UmlWriter\\Generator\\AbstractGeneratorFactory</title>
<path fill="none" stroke="black" d="M406,-1227.3C406,-1141.7 406,-923.77 406,-814.31"/>
<polygon fill="none" stroke="black" points="409.5,-814.06 406,-804.06 402.5,-814.06 409.5,-814.06"/>
</g>
<!-- Bartlett\\UmlWriter\\Generator\\GeneratorFactoryInterface -->
<g id="node3" class="node">
<title>Bartlett\\UmlWriter\\Generator\\GeneratorFactoryInterface</title>
<polygon fill="#fefece" stroke="transparent" points="796,-302.5 16,-302.5 16,-210.5 796,-210.5 796,-302.5"/>
<polygon fill="#eeeeee" stroke="transparent" points="24,-264.5 24,-298.5 788,-298.5 788,-264.5 24,-264.5"/>
<polygon fill="none" stroke="black" points="24,-264.5 24,-298.5 788,-298.5 788,-264.5 24,-264.5"/>
<text text-anchor="start" x="361" y="-285.3" font-family="Times,serif" font-weight="bold" font-size="14.00">«interface»</text>
<text text-anchor="start" x="300.5" y="-271.3" font-family="Times,serif" font-weight="bold" font-size="14.00">GeneratorFactoryInterface</text>
<polygon fill="none" stroke="black" points="24,-258.5 24,-264.5 788,-264.5 788,-258.5 24,-258.5"/>
<polygon fill="none" stroke="black" points="24,-214.5 24,-258.5 788,-258.5 788,-214.5 24,-214.5"/>
<text text-anchor="start" x="29" y="-242.3" font-family="Times,serif" font-size="14.00">+ «abstract» createInstance(provider : string) : Bartlett\UmlWriter\Generator\GeneratorFactoryInterface</text>
<text text-anchor="start" x="29" y="-223.3" font-family="Times,serif" font-size="14.00">+ «abstract» getGenerator() : Bartlett\GraphUml\Generator\GeneratorInterface</text>
</g>
<!-- Bartlett\\UmlWriter\\Generator\\AbstractGeneratorFactory&#45;&gt;Bartlett\\UmlWriter\\Generator\\GeneratorFactoryInterface -->
<g id="edge1" class="edge">
<title>Bartlett\\UmlWriter\\Generator\\AbstractGeneratorFactory&#45;&gt;Bartlett\\UmlWriter\\Generator\\GeneratorFactoryInterface</title>
<path fill="none" stroke="black" stroke-dasharray="5,2" d="M406,-692.72C406,-598.6 406,-407.23 406,-312.78"/>
<polygon fill="none" stroke="black" points="409.5,-312.57 406,-302.57 402.5,-312.57 409.5,-312.57"/>
</g>
<!-- Bartlett\\UmlWriter\\Service\\ConfigurationHandler -->
<g id="node4" class="node">
<title>Bartlett\\UmlWriter\\Service\\ConfigurationHandler</title>
<polygon fill="#fefece" stroke="transparent" points="2785.5,-1338.5 2260.5,-1338.5 2260.5,-1189.5 2785.5,-1189.5 2785.5,-1338.5"/>
<polygon fill="#eeeeee" stroke="transparent" points="2269,-1300 2269,-1334 2778,-1334 2778,-1300 2269,-1300"/>
<polygon fill="none" stroke="black" points="2269,-1300 2269,-1334 2778,-1334 2778,-1300 2269,-1300"/>
<text text-anchor="start" x="2436" y="-1306.8" font-family="Times,serif" font-weight="bold" font-size="14.00">ConfigurationHandler</text>
<polygon fill="none" stroke="black" points="2269,-1294 2269,-1300 2778,-1300 2778,-1294 2269,-1294"/>
<polygon fill="none" stroke="black" points="2269,-1193 2269,-1294 2778,-1294 2778,-1193 2269,-1193"/>
<text text-anchor="start" x="2274" y="-1277.8" font-family="Times,serif" font-size="14.00">+ __construct(filename : string)</text>
<text text-anchor="start" x="2274" y="-1258.8" font-family="Times,serif" font-size="14.00">+ filename() : ?string</text>
<text text-anchor="start" x="2274" y="-1239.8" font-family="Times,serif" font-size="14.00">+ toArray() : array</text>
<text text-anchor="start" x="2274" y="-1220.8" font-family="Times,serif" font-size="14.00">+ toFlat() : array</text>
<text text-anchor="start" x="2274" y="-1201.8" font-family="Times,serif" font-size="14.00">+ getValueByKey(key : string, default : mixed = «unknown») : ?mixed</text>
</g>
<!-- Bartlett\\UmlWriter\\Service\\ClassDiagramRenderer -->
<g id="node5" class="node">
<title>Bartlett\\UmlWriter\\Service\\ClassDiagramRenderer</title>
<polygon fill="#fefece" stroke="transparent" points="2242,-1319.5 1144,-1319.5 1144,-1208.5 2242,-1208.5 2242,-1319.5"/>
<polygon fill="#eeeeee" stroke="transparent" points="1152,-1281 1152,-1315 2234,-1315 2234,-1281 1152,-1281"/>
<polygon fill="none" stroke="black" points="1152,-1281 1152,-1315 2234,-1315 2234,-1281 1152,-1281"/>
<text text-anchor="start" x="1601" y="-1287.8" font-family="Times,serif" font-weight="bold" font-size="14.00">ClassDiagramRenderer</text>
<polygon fill="none" stroke="black" points="1152,-1275 1152,-1281 2234,-1281 2234,-1275 1152,-1275"/>
<polygon fill="none" stroke="black" points="1152,-1212 1152,-1275 2234,-1275 2234,-1212 1152,-1212"/>
<text text-anchor="start" x="1157" y="-1258.8" font-family="Times,serif" font-size="14.00">+ __invoke(finder : Symfony\Component\Finder\Finder, generator : Bartlett\GraphUml\Generator\GeneratorInterface, parameters : array = []) : string</text>
<text text-anchor="start" x="1157" y="-1239.8" font-family="Times,serif" font-size="14.00">+ getMetadata() : array</text>
<text text-anchor="start" x="1157" y="-1220.8" font-family="Times,serif" font-size="14.00">+ getGraph() : Graphp\Graph\Graph</text>
</g>
<!-- Bartlett\\UmlWriter\\Service\\ContainerService -->
<g id="node6" class="node">
<title>Bartlett\\UmlWriter\\Service\\ContainerService</title>
<polygon fill="#fefece" stroke="transparent" points="1126,-1329 820,-1329 820,-1199 1126,-1199 1126,-1329"/>
<polygon fill="#eeeeee" stroke="transparent" points="828,-1291 828,-1325 1118,-1325 1118,-1291 828,-1291"/>
<polygon fill="none" stroke="black" points="828,-1291 828,-1325 1118,-1325 1118,-1291 828,-1291"/>
<text text-anchor="start" x="905" y="-1297.8" font-family="Times,serif" font-weight="bold" font-size="14.00">ContainerService</text>
<polygon fill="none" stroke="black" points="828,-1285 828,-1291 1118,-1291 1118,-1285 828,-1285"/>
<polygon fill="none" stroke="black" points="828,-1203 828,-1285 1118,-1285 1118,-1203 828,-1203"/>
<text text-anchor="start" x="833" y="-1268.8" font-family="Times,serif" font-size="14.00">+ __construct()</text>
<text text-anchor="start" x="833" y="-1249.8" font-family="Times,serif" font-size="14.00">+ set(id : string, service : mixed) : void</text>
<text text-anchor="start" x="833" y="-1230.8" font-family="Times,serif" font-size="14.00">+ get(id : string) : ?mixed</text>
<text text-anchor="start" x="833" y="-1211.8" font-family="Times,serif" font-size="14.00">+ has(id : string) : bool</text>
</g>
<!-- Psr\\Container\\ContainerInterface -->
<g id="node7" class="node">
<title>Psr\\Container\\ContainerInterface</title>
<polygon fill="#fefece" stroke="transparent" points="1087,-794.5 859,-794.5 859,-702.5 1087,-702.5 1087,-794.5"/>
<polygon fill="#eeeeee" stroke="transparent" points="867,-756.5 867,-790.5 1079,-790.5 1079,-756.5 867,-756.5"/>
<polygon fill="none" stroke="black" points="867,-756.5 867,-790.5 1079,-790.5 1079,-756.5 867,-756.5"/>
<text text-anchor="start" x="928" y="-777.3" font-family="Times,serif" font-weight="bold" font-size="14.00">«interface»</text>
<text text-anchor="start" x="897" y="-763.3" font-family="Times,serif" font-weight="bold" font-size="14.00">ContainerInterface</text>
<polygon fill="none" stroke="black" points="867,-750.5 867,-756.5 1079,-756.5 1079,-750.5 867,-750.5"/>
<polygon fill="none" stroke="black" points="867,-706.5 867,-750.5 1079,-750.5 1079,-706.5 867,-706.5"/>
<text text-anchor="start" x="872" y="-734.3" font-family="Times,serif" font-size="14.00">+ «abstract» get(id : string)</text>
<text text-anchor="start" x="872" y="-715.3" font-family="Times,serif" font-size="14.00">+ «abstract» has(id : string)</text>
</g>
<!-- Bartlett\\UmlWriter\\Service\\ContainerService&#45;&gt;Psr\\Container\\ContainerInterface -->
<g id="edge3" class="edge">
<title>Bartlett\\UmlWriter\\Service\\ContainerService&#45;&gt;Psr\\Container\\ContainerInterface</title>
<path fill="none" stroke="black" stroke-dasharray="5,2" d="M973,-1198.74C973,-1096.96 973,-900.41 973,-804.64"/>
<polygon fill="none" stroke="black" points="976.5,-804.58 973,-794.58 969.5,-804.58 976.5,-804.58"/>
</g>
<!-- Bartlett\\UmlWriter\\Console\\Application -->
<g id="node8" class="node">
<title>Bartlett\\UmlWriter\\Console\\Application</title>
<polygon fill="#fefece" stroke="transparent" points="3956,-1351 2810,-1351 2810,-1177 3956,-1177 3956,-1351"/>
<polygon fill="#eeeeee" stroke="transparent" points="2818,-1313 2818,-1347 3948,-1347 3948,-1313 2818,-1313"/>
<polygon fill="none" stroke="black" points="2818,-1313 2818,-1347 3948,-1347 3948,-1313 2818,-1313"/>
<text text-anchor="start" x="3338" y="-1319.8" font-family="Times,serif" font-weight="bold" font-size="14.00">Application</text>
<polygon fill="none" stroke="black" points="2818,-1269 2818,-1313 3948,-1313 3948,-1269 2818,-1269"/>
<text text-anchor="start" x="2823" y="-1296.8" font-family="Times,serif" font-size="14.00">+ «static» NAME : string = &quot;umlWriter&quot; {readOnly}</text>
<text text-anchor="start" x="2823" y="-1277.8" font-family="Times,serif" font-size="14.00">+ «static» VERSION : string = &quot;3\.1\.0&quot; {readOnly}</text>
<polygon fill="none" stroke="black" points="2818,-1263 2818,-1269 3948,-1269 3948,-1263 2818,-1263"/>
<polygon fill="none" stroke="black" points="2818,-1181 2818,-1263 3948,-1263 3948,-1181 2818,-1181"/>
<text text-anchor="start" x="2823" y="-1246.8" font-family="Times,serif" font-size="14.00">+ __construct(container : Psr\Container\ContainerInterface, version : string = VERSION)</text>
<text text-anchor="start" x="2823" y="-1227.8" font-family="Times,serif" font-size="14.00">+ getHelp() : string</text>
<text text-anchor="start" x="2823" y="-1208.8" font-family="Times,serif" font-size="14.00">+ doRun(input : Symfony\Component\Console\Input\InputInterface, output : Symfony\Component\Console\Output\OutputInterface) : int</text>
<text text-anchor="start" x="2823" y="-1189.8" font-family="Times,serif" font-size="14.00">+ run(input : Symfony\Component\Console\Input\InputInterface = «unknown», output : Symfony\Component\Console\Output\OutputInterface = «unknown»)</text>
</g>
<!-- Symfony\\Component\\Console\\Application -->
<g id="node9" class="node">
<title>Symfony\\Component\\Console\\Application</title>
<polygon fill="#fefece" stroke="transparent" points="3988.5,-1127 2777.5,-1127 2777.5,-370 3988.5,-370 3988.5,-1127"/>
<polygon fill="#eeeeee" stroke="transparent" points="2786,-1088.5 2786,-1122.5 3981,-1122.5 3981,-1088.5 2786,-1088.5"/>
<polygon fill="none" stroke="black" points="2786,-1088.5 2786,-1122.5 3981,-1122.5 3981,-1088.5 2786,-1088.5"/>
<text text-anchor="start" x="3338.5" y="-1095.3" font-family="Times,serif" font-weight="bold" font-size="14.00">Application</text>
<polygon fill="none" stroke="black" points="2786,-1082.5 2786,-1088.5 3981,-1088.5 3981,-1082.5 2786,-1082.5"/>
<polygon fill="none" stroke="black" points="2786,-373.5 2786,-1082.5 3981,-1082.5 3981,-373.5 2786,-373.5"/>
<text text-anchor="start" x="2791" y="-1066.3" font-family="Times,serif" font-size="14.00">+ __construct(name : string = &#39;UNKNOWN&#39;, version : string = &#39;UNKNOWN&#39;)</text>
<text text-anchor="start" x="2791" y="-1047.3" font-family="Times,serif" font-size="14.00">+ setDispatcher(dispatcher : Symfony\Contracts\EventDispatcher\EventDispatcherInterface)</text>
<text text-anchor="start" x="2791" y="-1028.3" font-family="Times,serif" font-size="14.00">+ setCommandLoader(commandLoader : Symfony\Component\Console\CommandLoader\CommandLoaderInterface)</text>
<text text-anchor="start" x="2791" y="-1009.3" font-family="Times,serif" font-size="14.00">+ getSignalRegistry() : Symfony\Component\Console\SignalRegistry\SignalRegistry</text>
<text text-anchor="start" x="2791" y="-990.3" font-family="Times,serif" font-size="14.00">+ setSignalsToDispatchEvent(signalsToDispatchEvent : int = «unknown»)</text>
<text text-anchor="start" x="2791" y="-971.3" font-family="Times,serif" font-size="14.00">+ run(input : Symfony\Component\Console\Input\InputInterface = «unknown», output : Symfony\Component\Console\Output\OutputInterface = «unknown»)</text>
<text text-anchor="start" x="2791" y="-952.3" font-family="Times,serif" font-size="14.00">+ doRun(input : Symfony\Component\Console\Input\InputInterface, output : Symfony\Component\Console\Output\OutputInterface)</text>
<text text-anchor="start" x="2791" y="-933.3" font-family="Times,serif" font-size="14.00">+ reset()</text>
<text text-anchor="start" x="2791" y="-914.3" font-family="Times,serif" font-size="14.00">+ setHelperSet(helperSet : Symfony\Component\Console\Helper\HelperSet)</text>
<text text-anchor="start" x="2791" y="-895.3" font-family="Times,serif" font-size="14.00">+ getHelperSet()</text>
<text text-anchor="start" x="2791" y="-876.3" font-family="Times,serif" font-size="14.00">+ setDefinition(definition : Symfony\Component\Console\Input\InputDefinition)</text>
<text text-anchor="start" x="2791" y="-857.3" font-family="Times,serif" font-size="14.00">+ getDefinition()</text>
<text text-anchor="start" x="2791" y="-838.3" font-family="Times,serif" font-size="14.00">+ complete(input : Symfony\Component\Console\Completion\CompletionInput, suggestions : Symfony\Component\Console\Completion\CompletionSuggestions) : void</text>
<text text-anchor="start" x="2791" y="-819.3" font-family="Times,serif" font-size="14.00">+ getHelp()</text>
<text text-anchor="start" x="2791" y="-800.3" font-family="Times,serif" font-size="14.00">+ areExceptionsCaught()</text>
<text text-anchor="start" x="2791" y="-781.3" font-family="Times,serif" font-size="14.00">+ setCatchExceptions(boolean : bool)</text>
<text text-anchor="start" x="2791" y="-762.3" font-family="Times,serif" font-size="14.00">+ isAutoExitEnabled()</text>
<text text-anchor="start" x="2791" y="-743.3" font-family="Times,serif" font-size="14.00">+ setAutoExit(boolean : bool)</text>
<text text-anchor="start" x="2791" y="-724.3" font-family="Times,serif" font-size="14.00">+ getName()</text>
<text text-anchor="start" x="2791" y="-705.3" font-family="Times,serif" font-size="14.00">+ setName(name : string)</text>
<text text-anchor="start" x="2791" y="-686.3" font-family="Times,serif" font-size="14.00">+ getVersion()</text>
<text text-anchor="start" x="2791" y="-667.3" font-family="Times,serif" font-size="14.00">+ setVersion(version : string)</text>
<text text-anchor="start" x="2791" y="-648.3" font-family="Times,serif" font-size="14.00">+ getLongVersion()</text>
<text text-anchor="start" x="2791" y="-629.3" font-family="Times,serif" font-size="14.00">+ register(name : string)</text>
<text text-anchor="start" x="2791" y="-610.3" font-family="Times,serif" font-size="14.00">+ addCommands(commands : array)</text>
<text text-anchor="start" x="2791" y="-591.3" font-family="Times,serif" font-size="14.00">+ add(command : Symfony\Component\Console\Command\Command)</text>
<text text-anchor="start" x="2791" y="-572.3" font-family="Times,serif" font-size="14.00">+ get(name : string)</text>
<text text-anchor="start" x="2791" y="-553.3" font-family="Times,serif" font-size="14.00">+ has(name : string)</text>
<text text-anchor="start" x="2791" y="-534.3" font-family="Times,serif" font-size="14.00">+ getNamespaces()</text>
<text text-anchor="start" x="2791" y="-515.3" font-family="Times,serif" font-size="14.00">+ findNamespace(namespace : string)</text>
<text text-anchor="start" x="2791" y="-496.3" font-family="Times,serif" font-size="14.00">+ find(name : string)</text>
<text text-anchor="start" x="2791" y="-477.3" font-family="Times,serif" font-size="14.00">+ all(namespace : string = «unknown»)</text>
<text text-anchor="start" x="2791" y="-458.3" font-family="Times,serif" font-size="14.00">+ «static» getAbbreviations(names : array)</text>
<text text-anchor="start" x="2791" y="-439.3" font-family="Times,serif" font-size="14.00">+ renderThrowable(e : Throwable, output : Symfony\Component\Console\Output\OutputInterface) : void</text>
<text text-anchor="start" x="2791" y="-420.3" font-family="Times,serif" font-size="14.00">+ extractNamespace(name : string, limit : int = «unknown»)</text>
<text text-anchor="start" x="2791" y="-401.3" font-family="Times,serif" font-size="14.00">+ setDefaultCommand(commandName : string, isSingleCommand : bool = false)</text>
<text text-anchor="start" x="2791" y="-382.3" font-family="Times,serif" font-size="14.00">+ isSingleCommand() : bool</text>
</g>
<!-- Bartlett\\UmlWriter\\Console\\Application&#45;&gt;Symfony\\Component\\Console\\Application -->
<g id="edge5" class="edge">
<title>Bartlett\\UmlWriter\\Console\\Application&#45;&gt;Symfony\\Component\\Console\\Application</title>
<path fill="none" stroke="black" d="M3383,-1176.76C3383,-1164.58 3383,-1151.46 3383,-1137.65"/>
<polygon fill="none" stroke="black" points="3386.5,-1137.47 3383,-1127.47 3379.5,-1137.47 3386.5,-1137.47"/>
</g>
<!-- Symfony\\Contracts\\Service\\ResetInterface -->
<g id="node10" class="node">
<title>Symfony\\Contracts\\Service\\ResetInterface</title>
<polygon fill="#fefece" stroke="transparent" points="3468.5,-293 3297.5,-293 3297.5,-220 3468.5,-220 3468.5,-293"/>
<polygon fill="#eeeeee" stroke="transparent" points="3306,-254.5 3306,-288.5 3461,-288.5 3461,-254.5 3306,-254.5"/>
<polygon fill="none" stroke="black" points="3306,-254.5 3306,-288.5 3461,-288.5 3461,-254.5 3306,-254.5"/>
<text text-anchor="start" x="3338.5" y="-275.3" font-family="Times,serif" font-weight="bold" font-size="14.00">«interface»</text>
<text text-anchor="start" x="3324.5" y="-261.3" font-family="Times,serif" font-weight="bold" font-size="14.00">ResetInterface</text>
<polygon fill="none" stroke="black" points="3306,-248.5 3306,-254.5 3461,-254.5 3461,-248.5 3306,-248.5"/>
<polygon fill="none" stroke="black" points="3306,-223.5 3306,-248.5 3461,-248.5 3461,-223.5 3306,-223.5"/>
<text text-anchor="start" x="3311" y="-232.3" font-family="Times,serif" font-size="14.00">+ «abstract» reset()</text>
</g>
<!-- Symfony\\Component\\Console\\Application&#45;&gt;Symfony\\Contracts\\Service\\ResetInterface -->
<g id="edge4" class="edge">
<title>Symfony\\Component\\Console\\Application&#45;&gt;Symfony\\Contracts\\Service\\ResetInterface</title>
<path fill="none" stroke="black" stroke-dasharray="5,2" d="M3383,-369.92C3383,-344.38 3383,-321.6 3383,-303.33"/>
<polygon fill="none" stroke="black" points="3386.5,-303.11 3383,-293.11 3379.5,-303.11 3386.5,-303.11"/>
</g>
<!-- Bartlett\\UmlWriter\\Console\\Command\\ClassDiagramCommand -->
<g id="node11" class="node">
<title>Bartlett\\UmlWriter\\Console\\Command\\ClassDiagramCommand</title>
<polygon fill="#fefece" stroke="transparent" points="5184.5,-1313 4053.5,-1313 4053.5,-1215 5184.5,-1215 5184.5,-1313"/>
<polygon fill="#eeeeee" stroke="transparent" points="4062,-1275 4062,-1309 5177,-1309 5177,-1275 4062,-1275"/>
<polygon fill="none" stroke="black" points="4062,-1275 4062,-1309 5177,-1309 5177,-1275 4062,-1275"/>
<text text-anchor="start" x="4524.5" y="-1281.8" font-family="Times,serif" font-weight="bold" font-size="14.00">ClassDiagramCommand</text>
<polygon fill="none" stroke="black" points="4062,-1250 4062,-1275 5177,-1275 5177,-1250 4062,-1250"/>
<text text-anchor="start" x="4067" y="-1258.8" font-family="Times,serif" font-size="14.00">+ «static» NAME : string = &quot;diagram\:class&quot; {readOnly}</text>
<polygon fill="none" stroke="black" points="4062,-1244 4062,-1250 5177,-1250 5177,-1244 4062,-1244"/>
<polygon fill="none" stroke="black" points="4062,-1219 4062,-1244 5177,-1244 5177,-1219 4062,-1219"/>
<text text-anchor="start" x="4067" y="-1227.8" font-family="Times,serif" font-size="14.00">+ __construct(renderer : Bartlett\UmlWriter\Service\ClassDiagramRenderer, generatorFactory : Bartlett\UmlWriter\Generator\GeneratorFactoryInterface)</text>
</g>
<!-- Symfony\\Component\\Console\\Command\\Command -->
<g id="node12" class="node">
<title>Symfony\\Component\\Console\\Command\\Command</title>
<polygon fill="#fefece" stroke="transparent" points="5224.5,-1130 4013.5,-1130 4013.5,-367 5224.5,-367 5224.5,-1130"/>
<polygon fill="#eeeeee" stroke="transparent" points="4022,-1091.5 4022,-1125.5 5217,-1125.5 5217,-1091.5 4022,-1091.5"/>
<polygon fill="none" stroke="black" points="4022,-1091.5 4022,-1125.5 5217,-1125.5 5217,-1091.5 4022,-1091.5"/>
<text text-anchor="start" x="4579.5" y="-1098.3" font-family="Times,serif" font-weight="bold" font-size="14.00">Command</text>
<polygon fill="none" stroke="black" points="4022,-1028.5 4022,-1091.5 5217,-1091.5 5217,-1028.5 4022,-1028.5"/>
<text text-anchor="start" x="4027" y="-1075.3" font-family="Times,serif" font-size="14.00">+ «static» SUCCESS : int = 0 {readOnly}</text>
<text text-anchor="start" x="4027" y="-1056.3" font-family="Times,serif" font-size="14.00">+ «static» FAILURE : int = 1 {readOnly}</text>
<text text-anchor="start" x="4027" y="-1037.3" font-family="Times,serif" font-size="14.00">+ «static» INVALID : int = 2 {readOnly}</text>
<polygon fill="none" stroke="black" points="4022,-1022.5 4022,-1028.5 5217,-1028.5 5217,-1022.5 4022,-1022.5"/>
<polygon fill="none" stroke="black" points="4022,-370.5 4022,-1022.5 5217,-1022.5 5217,-370.5 4022,-370.5"/>
<text text-anchor="start" x="4027" y="-1006.3" font-family="Times,serif" font-size="14.00">+ «static» getDefaultName()</text>
<text text-anchor="start" x="4027" y="-987.3" font-family="Times,serif" font-size="14.00">+ «static» getDefaultDescription() : ?string</text>
<text text-anchor="start" x="4027" y="-968.3" font-family="Times,serif" font-size="14.00">+ __construct(name : string = «unknown»)</text>
<text text-anchor="start" x="4027" y="-949.3" font-family="Times,serif" font-size="14.00">+ ignoreValidationErrors()</text>
<text text-anchor="start" x="4027" y="-930.3" font-family="Times,serif" font-size="14.00">+ setApplication(application : Symfony\Component\Console\Application = «unknown»)</text>
<text text-anchor="start" x="4027" y="-911.3" font-family="Times,serif" font-size="14.00">+ setHelperSet(helperSet : Symfony\Component\Console\Helper\HelperSet)</text>
<text text-anchor="start" x="4027" y="-892.3" font-family="Times,serif" font-size="14.00">+ getHelperSet()</text>
<text text-anchor="start" x="4027" y="-873.3" font-family="Times,serif" font-size="14.00">+ getApplication()</text>
<text text-anchor="start" x="4027" y="-854.3" font-family="Times,serif" font-size="14.00">+ isEnabled()</text>
<text text-anchor="start" x="4027" y="-835.3" font-family="Times,serif" font-size="14.00">+ run(input : Symfony\Component\Console\Input\InputInterface, output : Symfony\Component\Console\Output\OutputInterface)</text>
<text text-anchor="start" x="4027" y="-816.3" font-family="Times,serif" font-size="14.00">+ complete(input : Symfony\Component\Console\Completion\CompletionInput, suggestions : Symfony\Component\Console\Completion\CompletionSuggestions) : void</text>
<text text-anchor="start" x="4027" y="-797.3" font-family="Times,serif" font-size="14.00">+ setCode(code : callable)</text>
<text text-anchor="start" x="4027" y="-778.3" font-family="Times,serif" font-size="14.00">+ mergeApplicationDefinition(mergeArgs : bool = true)</text>
<text text-anchor="start" x="4027" y="-759.3" font-family="Times,serif" font-size="14.00">+ setDefinition(definition : mixed)</text>
<text text-anchor="start" x="4027" y="-740.3" font-family="Times,serif" font-size="14.00">+ getDefinition()</text>
<text text-anchor="start" x="4027" y="-721.3" font-family="Times,serif" font-size="14.00">+ getNativeDefinition()</text>
<text text-anchor="start" x="4027" y="-702.3" font-family="Times,serif" font-size="14.00">+ addArgument(name : string, mode : int = «unknown», description : string = &#39;&#39;, default = «unknown»)</text>
<text text-anchor="start" x="4027" y="-683.3" font-family="Times,serif" font-size="14.00">+ addOption(name : string, shortcut = «unknown», mode : int = «unknown», description : string = &#39;&#39;, default = «unknown»)</text>
<text text-anchor="start" x="4027" y="-664.3" font-family="Times,serif" font-size="14.00">+ setName(name : string)</text>
<text text-anchor="start" x="4027" y="-645.3" font-family="Times,serif" font-size="14.00">+ setProcessTitle(title : string)</text>
<text text-anchor="start" x="4027" y="-626.3" font-family="Times,serif" font-size="14.00">+ getName()</text>
<text text-anchor="start" x="4027" y="-607.3" font-family="Times,serif" font-size="14.00">+ setHidden(hidden : bool)</text>
<text text-anchor="start" x="4027" y="-588.3" font-family="Times,serif" font-size="14.00">+ isHidden()</text>
<text text-anchor="start" x="4027" y="-569.3" font-family="Times,serif" font-size="14.00">+ setDescription(description : string)</text>
<text text-anchor="start" x="4027" y="-550.3" font-family="Times,serif" font-size="14.00">+ getDescription()</text>
<text text-anchor="start" x="4027" y="-531.3" font-family="Times,serif" font-size="14.00">+ setHelp(help : string)</text>
<text text-anchor="start" x="4027" y="-512.3" font-family="Times,serif" font-size="14.00">+ getHelp()</text>
<text text-anchor="start" x="4027" y="-493.3" font-family="Times,serif" font-size="14.00">+ getProcessedHelp()</text>
<text text-anchor="start" x="4027" y="-474.3" font-family="Times,serif" font-size="14.00">+ setAliases(aliases : iterable)</text>
<text text-anchor="start" x="4027" y="-455.3" font-family="Times,serif" font-size="14.00">+ getAliases()</text>
<text text-anchor="start" x="4027" y="-436.3" font-family="Times,serif" font-size="14.00">+ getSynopsis(short : bool = false)</text>
<text text-anchor="start" x="4027" y="-417.3" font-family="Times,serif" font-size="14.00">+ addUsage(usage : string)</text>
<text text-anchor="start" x="4027" y="-398.3" font-family="Times,serif" font-size="14.00">+ getUsages()</text>
<text text-anchor="start" x="4027" y="-379.3" font-family="Times,serif" font-size="14.00">+ getHelper(name : string)</text>
</g>
<!-- Bartlett\\UmlWriter\\Console\\Command\\ClassDiagramCommand&#45;&gt;Symfony\\Component\\Console\\Command\\Command -->
<g id="edge6" class="edge">
<title>Bartlett\\UmlWriter\\Console\\Command\\ClassDiagramCommand&#45;&gt;Symfony\\Component\\Console\\Command\\Command</title>
<path fill="none" stroke="black" d="M4619,-1214.69C4619,-1194.42 4619,-1168.89 4619,-1140.27"/>
<polygon fill="none" stroke="black" points="4622.5,-1140.02 4619,-1130.02 4615.5,-1140.02 4622.5,-1140.02"/>
</g>
<!-- Bartlett\\UmlWriter\\Config\\Loader\\YamlFileLoader -->
<g id="node13" class="node">
<title>Bartlett\\UmlWriter\\Config\\Loader\\YamlFileLoader</title>
<polygon fill="#fefece" stroke="transparent" points="6020.5,-1310 5599.5,-1310 5599.5,-1218 6020.5,-1218 6020.5,-1310"/>
<polygon fill="#eeeeee" stroke="transparent" points="5608,-1272 5608,-1306 6013,-1306 6013,-1272 5608,-1272"/>
<polygon fill="none" stroke="black" points="5608,-1272 5608,-1306 6013,-1306 6013,-1272 5608,-1272"/>
<text text-anchor="start" x="5749.5" y="-1278.8" font-family="Times,serif" font-weight="bold" font-size="14.00">YamlFileLoader</text>
<polygon fill="none" stroke="black" points="5608,-1266 5608,-1272 6013,-1272 6013,-1266 5608,-1266"/>
<polygon fill="none" stroke="black" points="5608,-1222 5608,-1266 6013,-1266 6013,-1222 5608,-1222"/>
<text text-anchor="start" x="5613" y="-1249.8" font-family="Times,serif" font-size="14.00">+ load(resource, type : string = «unknown») : ?mixed</text>
<text text-anchor="start" x="5613" y="-1230.8" font-family="Times,serif" font-size="14.00">+ supports(resource, type : string = «unknown») : bool</text>
</g>
<!-- Symfony\\Component\\Config\\Loader\\FileLoader -->
<g id="node14" class="node">
<title>Symfony\\Component\\Config\\Loader\\FileLoader</title>
<polygon fill="#fefece" stroke="transparent" points="6371,-813.5 5249,-813.5 5249,-683.5 6371,-683.5 6371,-813.5"/>
<polygon fill="#eeeeee" stroke="transparent" points="5257,-775.5 5257,-809.5 6363,-809.5 6363,-775.5 5257,-775.5"/>
<polygon fill="none" stroke="black" points="5257,-775.5 5257,-809.5 6363,-809.5 6363,-775.5 5257,-775.5"/>
<text text-anchor="start" x="5768" y="-796.3" font-family="Times,serif" font-weight="bold" font-size="14.00">«abstract»</text>
<text text-anchor="start" x="5768" y="-782.3" font-family="Times,serif" font-weight="bold" font-size="14.00">FileLoader</text>
<polygon fill="none" stroke="black" points="5257,-769.5 5257,-775.5 6363,-775.5 6363,-769.5 5257,-769.5"/>
<polygon fill="none" stroke="black" points="5257,-687.5 5257,-769.5 6363,-769.5 6363,-687.5 5257,-687.5"/>
<text text-anchor="start" x="5262" y="-753.3" font-family="Times,serif" font-size="14.00">+ __construct(locator : Symfony\Component\Config\FileLocatorInterface, env : string = «unknown»)</text>
<text text-anchor="start" x="5262" y="-734.3" font-family="Times,serif" font-size="14.00">+ setCurrentDir(dir : string)</text>
<text text-anchor="start" x="5262" y="-715.3" font-family="Times,serif" font-size="14.00">+ getLocator()</text>
<text text-anchor="start" x="5262" y="-696.3" font-family="Times,serif" font-size="14.00">+ import(resource : mixed, type : string = «unknown», ignoreErrors : bool = false, sourceResource : string = «unknown», exclude : mixed = «unknown»)</text>
</g>
<!-- Bartlett\\UmlWriter\\Config\\Loader\\YamlFileLoader&#45;&gt;Symfony\\Component\\Config\\Loader\\FileLoader -->
<g id="edge9" class="edge">
<title>Bartlett\\UmlWriter\\Config\\Loader\\YamlFileLoader&#45;&gt;Symfony\\Component\\Config\\Loader\\FileLoader</title>
<path fill="none" stroke="black" d="M5810,-1217.88C5810,-1129.33 5810,-932.02 5810,-823.89"/>
<polygon fill="none" stroke="black" points="5813.5,-823.71 5810,-813.71 5806.5,-823.71 5813.5,-823.71"/>
</g>
<!-- Symfony\\Component\\Config\\Loader\\Loader -->
<g id="node15" class="node">
<title>Symfony\\Component\\Config\\Loader\\Loader</title>
<polygon fill="#fefece" stroke="transparent" points="6131.5,-331 5488.5,-331 5488.5,-182 6131.5,-182 6131.5,-331"/>
<polygon fill="#eeeeee" stroke="transparent" points="5497,-292.5 5497,-326.5 6124,-326.5 6124,-292.5 5497,-292.5"/>
<polygon fill="none" stroke="black" points="5497,-292.5 5497,-326.5 6124,-326.5 6124,-292.5 5497,-292.5"/>
<text text-anchor="start" x="5768.5" y="-313.3" font-family="Times,serif" font-weight="bold" font-size="14.00">«abstract»</text>
<text text-anchor="start" x="5783" y="-299.3" font-family="Times,serif" font-weight="bold" font-size="14.00">Loader</text>
<polygon fill="none" stroke="black" points="5497,-286.5 5497,-292.5 6124,-292.5 6124,-286.5 5497,-286.5"/>
<polygon fill="none" stroke="black" points="5497,-185.5 5497,-286.5 6124,-286.5 6124,-185.5 5497,-185.5"/>
<text text-anchor="start" x="5502" y="-270.3" font-family="Times,serif" font-size="14.00">+ __construct(env : string = «unknown»)</text>
<text text-anchor="start" x="5502" y="-251.3" font-family="Times,serif" font-size="14.00">+ getResolver()</text>
<text text-anchor="start" x="5502" y="-232.3" font-family="Times,serif" font-size="14.00">+ setResolver(resolver : Symfony\Component\Config\Loader\LoaderResolverInterface)</text>
<text text-anchor="start" x="5502" y="-213.3" font-family="Times,serif" font-size="14.00">+ import(resource : mixed, type : string = «unknown»)</text>
<text text-anchor="start" x="5502" y="-194.3" font-family="Times,serif" font-size="14.00">+ resolve(resource : mixed, type : string = «unknown»)</text>
</g>
<!-- Symfony\\Component\\Config\\Loader\\FileLoader&#45;&gt;Symfony\\Component\\Config\\Loader\\Loader -->
<g id="edge8" class="edge">
<title>Symfony\\Component\\Config\\Loader\\FileLoader&#45;&gt;Symfony\\Component\\Config\\Loader\\Loader</title>
<path fill="none" stroke="black" d="M5810,-683.44C5810,-595.75 5810,-438.18 5810,-341.23"/>
<polygon fill="none" stroke="black" points="5813.5,-341.17 5810,-331.17 5806.5,-341.17 5813.5,-341.17"/>
</g>
<!-- Symfony\\Component\\Config\\Loader\\LoaderInterface -->
<g id="node16" class="node">
<title>Symfony\\Component\\Config\\Loader\\LoaderInterface</title>
<polygon fill="#fefece" stroke="transparent" points="6171.5,-146 5448.5,-146 5448.5,-16 6171.5,-16 6171.5,-146"/>
<polygon fill="#eeeeee" stroke="transparent" points="5457,-108 5457,-142 6164,-142 6164,-108 5457,-108"/>
<polygon fill="none" stroke="black" points="5457,-108 5457,-142 6164,-142 6164,-108 5457,-108"/>
<text text-anchor="start" x="5765.5" y="-128.8" font-family="Times,serif" font-weight="bold" font-size="14.00">«interface»</text>
<text text-anchor="start" x="5747" y="-114.8" font-family="Times,serif" font-weight="bold" font-size="14.00">LoaderInterface</text>
<polygon fill="none" stroke="black" points="5457,-102 5457,-108 6164,-108 6164,-102 5457,-102"/>
<polygon fill="none" stroke="black" points="5457,-20 5457,-102 6164,-102 6164,-20 5457,-20"/>
<text text-anchor="start" x="5462" y="-85.8" font-family="Times,serif" font-size="14.00">+ «abstract» load(resource, type : string = «unknown»)</text>
<text text-anchor="start" x="5462" y="-66.8" font-family="Times,serif" font-size="14.00">+ «abstract» supports(resource, type : string = «unknown»)</text>
<text text-anchor="start" x="5462" y="-47.8" font-family="Times,serif" font-size="14.00">+ «abstract» getResolver()</text>
<text text-anchor="start" x="5462" y="-28.8" font-family="Times,serif" font-size="14.00">+ «abstract» setResolver(resolver : Symfony\Component\Config\Loader\LoaderResolverInterface)</text>
</g>
<!-- Symfony\\Component\\Config\\Loader\\Loader&#45;&gt;Symfony\\Component\\Config\\Loader\\LoaderInterface -->
<g id="edge7" class="edge">
<title>Symfony\\Component\\Config\\Loader\\Loader&#45;&gt;Symfony\\Component\\Config\\Loader\\LoaderInterface</title>
<path fill="none" stroke="black" stroke-dasharray="5,2" d="M5810,-181.92C5810,-173.45 5810,-164.81 5810,-156.33"/>
<polygon fill="none" stroke="black" points="5813.5,-156.09 5810,-146.09 5806.5,-156.09 5813.5,-156.09"/>
</g>
</g>
</svg>
