<?xml version="1.0" encoding="UTF-8" standalone="no"?>
<!DOCTYPE svg PUBLIC "-//W3C//DTD SVG 1.1//EN"
 "http://www.w3.org/Graphics/SVG/1.1/DTD/svg11.dtd">
<!-- Generated by graphviz version 2.43.0 (0)
 -->
<!-- Title: %3 Pages: 1 -->
<svg width="3993pt" height="2409pt"
 viewBox="0.00 0.00 3993.00 2409.00" xmlns="http://www.w3.org/2000/svg" xmlns:xlink="http://www.w3.org/1999/xlink">
<g id="graph0" class="graph" transform="scale(1 1) rotate(0) translate(4 2405)">
<title>%3</title>
<g id="clust1" class="cluster">
<title>cluster_0</title>
<polygon fill="BurlyWood" stroke="black" points="315,-8 315,-158 3218,-158 3218,-8 315,-8"/>
<text text-anchor="middle" x="1766.5" y="-142.8" font-family="Times,serif" font-size="14.00">Bartlett\UmlWriter\Generator</text>
</g>
<g id="clust2" class="cluster">
<title>cluster_1</title>
<polygon fill="BurlyWood" stroke="black" points="384.5,-194 384.5,-325 778.5,-325 778.5,-194 384.5,-194"/>
<text text-anchor="middle" x="581.5" y="-309.8" font-family="Times,serif" font-size="14.00">Bartlett\UmlWriter\Config\Loader</text>
</g>
<g id="clust3" class="cluster">
<title>cluster_2</title>
<polygon fill="LightSkyBlue" stroke="black" points="1219.5,-166 1219.5,-353 3977,-353 3977,-166 1219.5,-166"/>
<text text-anchor="middle" x="2598.25" y="-337.8" font-family="Times,serif" font-size="14.00">Symfony\Component\Config\Loader</text>
</g>
<g id="clust4" class="cluster">
<title>cluster_3</title>
<polygon fill="BurlyWood" stroke="black" points="24.5,-333 24.5,-798 1138.5,-798 1138.5,-333 24.5,-333"/>
<text text-anchor="middle" x="581.5" y="-782.8" font-family="Times,serif" font-size="14.00">Bartlett\UmlWriter\Service</text>
</g>
<g id="clust5" class="cluster">
<title>cluster_4</title>
<polygon fill="LimeGreen" stroke="black" points="1666.5,-648 1666.5,-779 1910.5,-779 1910.5,-648 1666.5,-648"/>
<text text-anchor="middle" x="1788.5" y="-763.8" font-family="Times,serif" font-size="14.00">Psr\Container</text>
</g>
<g id="clust6" class="cluster">
<title>cluster_5</title>
<polygon fill="BurlyWood" stroke="black" points="92,-1087 92,-1282 1071,-1282 1071,-1087 92,-1087"/>
<text text-anchor="middle" x="581.5" y="-1266.8" font-family="Times,serif" font-size="14.00">Bartlett\UmlWriter\Console</text>
</g>
<g id="clust7" class="cluster">
<title>cluster_6</title>
<polygon fill="LightSkyBlue" stroke="black" points="1175,-787 1175,-1582 2402,-1582 2402,-787 1175,-787"/>
<text text-anchor="middle" x="1788.5" y="-1566.8" font-family="Times,serif" font-size="14.00">Symfony\Component\Console</text>
</g>
<g id="clust8" class="cluster">
<title>cluster_7</title>
<polygon fill="LightSkyBlue" stroke="black" points="2714.5,-1128 2714.5,-1241 2925.5,-1241 2925.5,-1128 2714.5,-1128"/>
<text text-anchor="middle" x="2820" y="-1225.8" font-family="Times,serif" font-size="14.00">Symfony\Contracts\Service</text>
</g>
<g id="clust9" class="cluster">
<title>cluster_8</title>
<polygon fill="BurlyWood" stroke="black" points="8,-1923 8,-2060 1155,-2060 1155,-1923 8,-1923"/>
<text text-anchor="middle" x="581.5" y="-2044.8" font-family="Times,serif" font-size="14.00">Bartlett\UmlWriter\Console\Command</text>
</g>
<g id="clust10" class="cluster">
<title>cluster_9</title>
<polygon fill="LightSkyBlue" stroke="black" points="1175,-1590 1175,-2393 2402,-2393 2402,-1590 1175,-1590"/>
<text text-anchor="middle" x="1788.5" y="-2377.8" font-family="Times,serif" font-size="14.00">Symfony\Component\Console\Command</text>
</g>
<!-- Bartlett\\UmlWriter\\Generator\\AbstractGeneratorFactory -->
<g id="node1" class="node">
<title>Bartlett\\UmlWriter\\Generator\\AbstractGeneratorFactory</title>
<polygon fill="lightgrey" stroke="transparent" points="2138,-126.5 1439,-126.5 1439,-15.5 2138,-15.5 2138,-126.5"/>
<polygon fill="#eeeeee" stroke="transparent" points="1447.5,-88 1447.5,-122 2130.5,-122 2130.5,-88 1447.5,-88"/>
<polygon fill="none" stroke="black" points="1447.5,-88 1447.5,-122 2130.5,-122 2130.5,-88 1447.5,-88"/>
<text text-anchor="start" x="1747" y="-108.8" font-family="Times,serif" font-weight="bold" font-size="14.00">«abstract»</text>
<text text-anchor="start" x="1686.5" y="-94.8" font-family="Times,serif" font-weight="bold" font-size="14.00">AbstractGeneratorFactory</text>
<polygon fill="none" stroke="black" points="1447.5,-82 1447.5,-88 2130.5,-88 2130.5,-82 1447.5,-82"/>
<polygon fill="none" stroke="black" points="1447.5,-19 1447.5,-82 2130.5,-82 2130.5,-19 1447.5,-19"/>
<text text-anchor="start" x="1452.5" y="-65.8" font-family="Times,serif" font-size="14.00">+ __construct(generator : string = &#39;&#39;)</text>
<text text-anchor="start" x="1452.5" y="-46.8" font-family="Times,serif" font-size="14.00">+ createInstance(provider : string) : Bartlett\UmlWriter\Generator\GeneratorFactoryInterface</text>
<text text-anchor="start" x="1452.5" y="-27.8" font-family="Times,serif" font-size="14.00">+ «abstract» getGenerator() : Bartlett\GraphUml\Generator\GeneratorInterface</text>
</g>
<!-- Bartlett\\UmlWriter\\Generator\\GeneratorFactoryInterface -->
<g id="node2" class="node">
<title>Bartlett\\UmlWriter\\Generator\\GeneratorFactoryInterface</title>
<polygon fill="lightgrey" stroke="transparent" points="3210,-117 2430,-117 2430,-25 3210,-25 3210,-117"/>
<polygon fill="#eeeeee" stroke="transparent" points="2438,-79 2438,-113 3202,-113 3202,-79 2438,-79"/>
<polygon fill="none" stroke="black" points="2438,-79 2438,-113 3202,-113 3202,-79 2438,-79"/>
<text text-anchor="start" x="2775" y="-99.8" font-family="Times,serif" font-weight="bold" font-size="14.00">«interface»</text>
<text text-anchor="start" x="2714.5" y="-85.8" font-family="Times,serif" font-weight="bold" font-size="14.00">GeneratorFactoryInterface</text>
<polygon fill="none" stroke="black" points="2438,-73 2438,-79 3202,-79 3202,-73 2438,-73"/>
<polygon fill="none" stroke="black" points="2438,-29 2438,-73 3202,-73 3202,-29 2438,-29"/>
<text text-anchor="start" x="2443" y="-56.8" font-family="Times,serif" font-size="14.00">+ «abstract» createInstance(provider : string) : Bartlett\UmlWriter\Generator\GeneratorFactoryInterface</text>
<text text-anchor="start" x="2443" y="-37.8" font-family="Times,serif" font-size="14.00">+ «abstract» getGenerator() : Bartlett\GraphUml\Generator\GeneratorInterface</text>
</g>
<!-- Bartlett\\UmlWriter\\Generator\\AbstractGeneratorFactory&#45;&gt;Bartlett\\UmlWriter\\Generator\\GeneratorFactoryInterface -->
<g id="edge1" class="edge">
<title>Bartlett\\UmlWriter\\Generator\\AbstractGeneratorFactory&#45;&gt;Bartlett\\UmlWriter\\Generator\\GeneratorFactoryInterface</title>
<path fill="none" stroke="black" stroke-dasharray="5,2" d="M2138.04,-71C2228.52,-71 2326.66,-71 2419.53,-71"/>
<polygon fill="none" stroke="black" points="2419.66,-74.5 2429.66,-71 2419.66,-67.5 2419.66,-74.5"/>
</g>
<!-- Bartlett\\UmlWriter\\Generator\\GeneratorFactory -->
<g id="node3" class="node">
<title>Bartlett\\UmlWriter\\Generator\\GeneratorFactory</title>
<polygon fill="lightgrey" stroke="transparent" points="840,-107.5 323,-107.5 323,-34.5 840,-34.5 840,-107.5"/>
<polygon fill="#eeeeee" stroke="transparent" points="331.5,-69 331.5,-103 832.5,-103 832.5,-69 331.5,-69"/>
<polygon fill="none" stroke="black" points="331.5,-69 331.5,-103 832.5,-103 832.5,-69 331.5,-69"/>
<text text-anchor="start" x="512.5" y="-75.8" font-family="Times,serif" font-weight="bold" font-size="14.00">GeneratorFactory</text>
<polygon fill="none" stroke="black" points="331.5,-63 331.5,-69 832.5,-69 832.5,-63 331.5,-63"/>
<polygon fill="none" stroke="black" points="331.5,-38 331.5,-63 832.5,-63 832.5,-38 331.5,-38"/>
<text text-anchor="start" x="336.5" y="-46.8" font-family="Times,serif" font-size="14.00">+ getGenerator() : Bartlett\GraphUml\Generator\GeneratorInterface</text>
</g>
<!-- Bartlett\\UmlWriter\\Generator\\GeneratorFactory&#45;&gt;Bartlett\\UmlWriter\\Generator\\AbstractGeneratorFactory -->
<g id="edge2" class="edge">
<title>Bartlett\\UmlWriter\\Generator\\GeneratorFactory&#45;&gt;Bartlett\\UmlWriter\\Generator\\AbstractGeneratorFactory</title>
<path fill="none" stroke="black" d="M840.26,-71C1011.85,-71 1239.66,-71 1428.87,-71"/>
<polygon fill="none" stroke="black" points="1428.99,-74.5 1438.99,-71 1428.99,-67.5 1428.99,-74.5"/>
</g>
<!-- Bartlett\\UmlWriter\\Config\\Loader\\YamlFileLoader -->
<g id="node4" class="node">
<title>Bartlett\\UmlWriter\\Config\\Loader\\YamlFileLoader</title>
<polygon fill="lightgrey" stroke="transparent" points="770.5,-294 392.5,-294 392.5,-202 770.5,-202 770.5,-294"/>
<polygon fill="#eeeeee" stroke="transparent" points="400.5,-256 400.5,-290 762.5,-290 762.5,-256 400.5,-256"/>
<polygon fill="none" stroke="black" points="400.5,-256 400.5,-290 762.5,-290 762.5,-256 400.5,-256"/>
<text text-anchor="start" x="520.5" y="-262.8" font-family="Times,serif" font-weight="bold" font-size="14.00">YamlFileLoader</text>
<polygon fill="none" stroke="black" points="400.5,-250 400.5,-256 762.5,-256 762.5,-250 400.5,-250"/>
<polygon fill="none" stroke="black" points="400.5,-206 400.5,-250 762.5,-250 762.5,-206 400.5,-206"/>
<text text-anchor="start" x="405.5" y="-233.8" font-family="Times,serif" font-size="14.00">+ load(resource, type : string = «unknown»)</text>
<text text-anchor="start" x="405.5" y="-214.8" font-family="Times,serif" font-size="14.00">+ supports(resource, type : string = «unknown»)</text>
</g>
<!-- Symfony\\Component\\Config\\Loader\\FileLoader -->
<g id="node5" class="node">
<title>Symfony\\Component\\Config\\Loader\\FileLoader</title>
<polygon fill="lightgrey" stroke="transparent" points="2349.5,-313 1227.5,-313 1227.5,-183 2349.5,-183 2349.5,-313"/>
<polygon fill="#eeeeee" stroke="transparent" points="1235.5,-275 1235.5,-309 2341.5,-309 2341.5,-275 1235.5,-275"/>
<polygon fill="none" stroke="black" points="1235.5,-275 1235.5,-309 2341.5,-309 2341.5,-275 1235.5,-275"/>
<text text-anchor="start" x="1746.5" y="-295.8" font-family="Times,serif" font-weight="bold" font-size="14.00">«abstract»</text>
<text text-anchor="start" x="1746.5" y="-281.8" font-family="Times,serif" font-weight="bold" font-size="14.00">FileLoader</text>
<polygon fill="none" stroke="black" points="1235.5,-269 1235.5,-275 2341.5,-275 2341.5,-269 1235.5,-269"/>
<polygon fill="none" stroke="black" points="1235.5,-187 1235.5,-269 2341.5,-269 2341.5,-187 1235.5,-187"/>
<text text-anchor="start" x="1240.5" y="-252.8" font-family="Times,serif" font-size="14.00">+ __construct(locator : Symfony\Component\Config\FileLocatorInterface, env : string = «unknown»)</text>
<text text-anchor="start" x="1240.5" y="-233.8" font-family="Times,serif" font-size="14.00">+ setCurrentDir(dir : string)</text>
<text text-anchor="start" x="1240.5" y="-214.8" font-family="Times,serif" font-size="14.00">+ getLocator()</text>
<text text-anchor="start" x="1240.5" y="-195.8" font-family="Times,serif" font-size="14.00">+ import(resource : mixed, type : string = «unknown», ignoreErrors : bool = false, sourceResource : string = «unknown», exclude : mixed = «unknown»)</text>
</g>
<!-- Bartlett\\UmlWriter\\Config\\Loader\\YamlFileLoader&#45;&gt;Symfony\\Component\\Config\\Loader\\FileLoader -->
<g id="edge5" class="edge">
<title>Bartlett\\UmlWriter\\Config\\Loader\\YamlFileLoader&#45;&gt;Symfony\\Component\\Config\\Loader\\FileLoader</title>
<path fill="none" stroke="black" d="M770.78,-248C891.78,-248 1055.98,-248 1217.11,-248"/>
<polygon fill="none" stroke="black" points="1217.22,-251.5 1227.22,-248 1217.22,-244.5 1217.22,-251.5"/>
</g>
<!-- Symfony\\Component\\Config\\Loader\\Loader -->
<g id="node6" class="node">
<title>Symfony\\Component\\Config\\Loader\\Loader</title>
<polygon fill="lightgrey" stroke="transparent" points="3141.5,-322.5 2498.5,-322.5 2498.5,-173.5 3141.5,-173.5 3141.5,-322.5"/>
<polygon fill="#eeeeee" stroke="transparent" points="2507,-284 2507,-318 3134,-318 3134,-284 2507,-284"/>
<polygon fill="none" stroke="black" points="2507,-284 2507,-318 3134,-318 3134,-284 2507,-284"/>
<text text-anchor="start" x="2778.5" y="-304.8" font-family="Times,serif" font-weight="bold" font-size="14.00">«abstract»</text>
<text text-anchor="start" x="2793" y="-290.8" font-family="Times,serif" font-weight="bold" font-size="14.00">Loader</text>
<polygon fill="none" stroke="black" points="2507,-278 2507,-284 3134,-284 3134,-278 2507,-278"/>
<polygon fill="none" stroke="black" points="2507,-177 2507,-278 3134,-278 3134,-177 2507,-177"/>
<text text-anchor="start" x="2512" y="-261.8" font-family="Times,serif" font-size="14.00">+ __construct(env : string = «unknown»)</text>
<text text-anchor="start" x="2512" y="-242.8" font-family="Times,serif" font-size="14.00">+ getResolver()</text>
<text text-anchor="start" x="2512" y="-223.8" font-family="Times,serif" font-size="14.00">+ setResolver(resolver : Symfony\Component\Config\Loader\LoaderResolverInterface)</text>
<text text-anchor="start" x="2512" y="-204.8" font-family="Times,serif" font-size="14.00">+ import(resource : mixed, type : string = «unknown»)</text>
<text text-anchor="start" x="2512" y="-185.8" font-family="Times,serif" font-size="14.00">+ resolve(resource : mixed, type : string = «unknown»)</text>
</g>
<!-- Symfony\\Component\\Config\\Loader\\FileLoader&#45;&gt;Symfony\\Component\\Config\\Loader\\Loader -->
<g id="edge4" class="edge">
<title>Symfony\\Component\\Config\\Loader\\FileLoader&#45;&gt;Symfony\\Component\\Config\\Loader\\Loader</title>
<path fill="none" stroke="black" d="M2349.82,-248C2397.03,-248 2443.73,-248 2488.31,-248"/>
<polygon fill="none" stroke="black" points="2488.39,-251.5 2498.39,-248 2488.39,-244.5 2488.39,-251.5"/>
</g>
<!-- Symfony\\Component\\Config\\Loader\\LoaderInterface -->
<g id="node7" class="node">
<title>Symfony\\Component\\Config\\Loader\\LoaderInterface</title>
<polygon fill="lightgrey" stroke="transparent" points="3969,-313 3246,-313 3246,-183 3969,-183 3969,-313"/>
<polygon fill="#eeeeee" stroke="transparent" points="3254.5,-275 3254.5,-309 3961.5,-309 3961.5,-275 3254.5,-275"/>
<polygon fill="none" stroke="black" points="3254.5,-275 3254.5,-309 3961.5,-309 3961.5,-275 3254.5,-275"/>
<text text-anchor="start" x="3563" y="-295.8" font-family="Times,serif" font-weight="bold" font-size="14.00">«interface»</text>
<text text-anchor="start" x="3544.5" y="-281.8" font-family="Times,serif" font-weight="bold" font-size="14.00">LoaderInterface</text>
<polygon fill="none" stroke="black" points="3254.5,-269 3254.5,-275 3961.5,-275 3961.5,-269 3254.5,-269"/>
<polygon fill="none" stroke="black" points="3254.5,-187 3254.5,-269 3961.5,-269 3961.5,-187 3254.5,-187"/>
<text text-anchor="start" x="3259.5" y="-252.8" font-family="Times,serif" font-size="14.00">+ «abstract» load(resource, type : string = «unknown»)</text>
<text text-anchor="start" x="3259.5" y="-233.8" font-family="Times,serif" font-size="14.00">+ «abstract» supports(resource, type : string = «unknown»)</text>
<text text-anchor="start" x="3259.5" y="-214.8" font-family="Times,serif" font-size="14.00">+ «abstract» getResolver()</text>
<text text-anchor="start" x="3259.5" y="-195.8" font-family="Times,serif" font-size="14.00">+ «abstract» setResolver(resolver : Symfony\Component\Config\Loader\LoaderResolverInterface)</text>
</g>
<!-- Symfony\\Component\\Config\\Loader\\Loader&#45;&gt;Symfony\\Component\\Config\\Loader\\LoaderInterface -->
<g id="edge3" class="edge">
<title>Symfony\\Component\\Config\\Loader\\Loader&#45;&gt;Symfony\\Component\\Config\\Loader\\LoaderInterface</title>
<path fill="none" stroke="black" stroke-dasharray="5,2" d="M3141.63,-248C3172.63,-248 3204.26,-248 3235.7,-248"/>
<polygon fill="none" stroke="black" points="3235.9,-251.5 3245.9,-248 3235.9,-244.5 3235.9,-251.5"/>
</g>
<!-- Bartlett\\UmlWriter\\Service\\ContainerService -->
<g id="node8" class="node">
<title>Bartlett\\UmlWriter\\Service\\ContainerService</title>
<polygon fill="lightgrey" stroke="transparent" points="734.5,-767 428.5,-767 428.5,-637 734.5,-637 734.5,-767"/>
<polygon fill="#eeeeee" stroke="transparent" points="436.5,-729 436.5,-763 726.5,-763 726.5,-729 436.5,-729"/>
<polygon fill="none" stroke="black" points="436.5,-729 436.5,-763 726.5,-763 726.5,-729 436.5,-729"/>
<text text-anchor="start" x="513.5" y="-735.8" font-family="Times,serif" font-weight="bold" font-size="14.00">ContainerService</text>
<polygon fill="none" stroke="black" points="436.5,-723 436.5,-729 726.5,-729 726.5,-723 436.5,-723"/>
<polygon fill="none" stroke="black" points="436.5,-641 436.5,-723 726.5,-723 726.5,-641 436.5,-641"/>
<text text-anchor="start" x="441.5" y="-706.8" font-family="Times,serif" font-size="14.00">+ __construct()</text>
<text text-anchor="start" x="441.5" y="-687.8" font-family="Times,serif" font-size="14.00">+ set(id : string, service : mixed) : void</text>
<text text-anchor="start" x="441.5" y="-668.8" font-family="Times,serif" font-size="14.00">+ get(id : string)</text>
<text text-anchor="start" x="441.5" y="-649.8" font-family="Times,serif" font-size="14.00">+ has(id : string)</text>
</g>
<!-- Psr\\Container\\ContainerInterface -->
<g id="node11" class="node">
<title>Psr\\Container\\ContainerInterface</title>
<polygon fill="lightgrey" stroke="transparent" points="1902.5,-748 1674.5,-748 1674.5,-656 1902.5,-656 1902.5,-748"/>
<polygon fill="#eeeeee" stroke="transparent" points="1682.5,-710 1682.5,-744 1894.5,-744 1894.5,-710 1682.5,-710"/>
<polygon fill="none" stroke="black" points="1682.5,-710 1682.5,-744 1894.5,-744 1894.5,-710 1682.5,-710"/>
<text text-anchor="start" x="1743.5" y="-730.8" font-family="Times,serif" font-weight="bold" font-size="14.00">«interface»</text>
<text text-anchor="start" x="1712.5" y="-716.8" font-family="Times,serif" font-weight="bold" font-size="14.00">ContainerInterface</text>
<polygon fill="none" stroke="black" points="1682.5,-704 1682.5,-710 1894.5,-710 1894.5,-704 1682.5,-704"/>
<polygon fill="none" stroke="black" points="1682.5,-660 1682.5,-704 1894.5,-704 1894.5,-660 1682.5,-660"/>
<text text-anchor="start" x="1687.5" y="-687.8" font-family="Times,serif" font-size="14.00">+ «abstract» get(id : string)</text>
<text text-anchor="start" x="1687.5" y="-668.8" font-family="Times,serif" font-size="14.00">+ «abstract» has(id : string)</text>
</g>
<!-- Bartlett\\UmlWriter\\Service\\ContainerService&#45;&gt;Psr\\Container\\ContainerInterface -->
<g id="edge6" class="edge">
<title>Bartlett\\UmlWriter\\Service\\ContainerService&#45;&gt;Psr\\Container\\ContainerInterface</title>
<path fill="none" stroke="black" stroke-dasharray="5,2" d="M734.5,-702C975.97,-702 1442.5,-702 1664.43,-702"/>
<polygon fill="none" stroke="black" points="1664.48,-705.5 1674.48,-702 1664.48,-698.5 1664.48,-705.5"/>
</g>
<!-- Bartlett\\UmlWriter\\Service\\ConfigurationHandler -->
<g id="node9" class="node">
<title>Bartlett\\UmlWriter\\Service\\ConfigurationHandler</title>
<polygon fill="lightgrey" stroke="transparent" points="811.5,-618.5 351.5,-618.5 351.5,-469.5 811.5,-469.5 811.5,-618.5"/>
<polygon fill="#eeeeee" stroke="transparent" points="359.5,-580 359.5,-614 803.5,-614 803.5,-580 359.5,-580"/>
<polygon fill="none" stroke="black" points="359.5,-580 359.5,-614 803.5,-614 803.5,-580 359.5,-580"/>
<text text-anchor="start" x="494" y="-586.8" font-family="Times,serif" font-weight="bold" font-size="14.00">ConfigurationHandler</text>
<polygon fill="none" stroke="black" points="359.5,-574 359.5,-580 803.5,-580 803.5,-574 359.5,-574"/>
<polygon fill="none" stroke="black" points="359.5,-473 359.5,-574 803.5,-574 803.5,-473 359.5,-473"/>
<text text-anchor="start" x="364.5" y="-557.8" font-family="Times,serif" font-size="14.00">+ __construct(filename : string)</text>
<text text-anchor="start" x="364.5" y="-538.8" font-family="Times,serif" font-size="14.00">+ filename() : ?string</text>
<text text-anchor="start" x="364.5" y="-519.8" font-family="Times,serif" font-size="14.00">+ toArray() : array</text>
<text text-anchor="start" x="364.5" y="-500.8" font-family="Times,serif" font-size="14.00">+ toFlat() : array</text>
<text text-anchor="start" x="364.5" y="-481.8" font-family="Times,serif" font-size="14.00">+ getValueByKey(key : string, default : mixed = «unknown»)</text>
</g>
<!-- Bartlett\\UmlWriter\\Service\\ClassDiagramRenderer -->
<g id="node10" class="node">
<title>Bartlett\\UmlWriter\\Service\\ClassDiagramRenderer</title>
<polygon fill="lightgrey" stroke="transparent" points="1130.5,-451.5 32.5,-451.5 32.5,-340.5 1130.5,-340.5 1130.5,-451.5"/>
<polygon fill="#eeeeee" stroke="transparent" points="40.5,-413 40.5,-447 1122.5,-447 1122.5,-413 40.5,-413"/>
<polygon fill="none" stroke="black" points="40.5,-413 40.5,-447 1122.5,-447 1122.5,-413 40.5,-413"/>
<text text-anchor="start" x="489.5" y="-419.8" font-family="Times,serif" font-weight="bold" font-size="14.00">ClassDiagramRenderer</text>
<polygon fill="none" stroke="black" points="40.5,-407 40.5,-413 1122.5,-413 1122.5,-407 40.5,-407"/>
<polygon fill="none" stroke="black" points="40.5,-344 40.5,-407 1122.5,-407 1122.5,-344 40.5,-344"/>
<text text-anchor="start" x="45.5" y="-390.8" font-family="Times,serif" font-size="14.00">+ __invoke(finder : Symfony\Component\Finder\Finder, generator : Bartlett\GraphUml\Generator\GeneratorInterface, parameters : array = []) : string</text>
<text text-anchor="start" x="45.5" y="-371.8" font-family="Times,serif" font-size="14.00">+ getMetadata() : array</text>
<text text-anchor="start" x="45.5" y="-352.8" font-family="Times,serif" font-size="14.00">+ getGraph() : Graphp\Graph\Graph</text>
</g>
<!-- Bartlett\\UmlWriter\\Console\\Application -->
<g id="node12" class="node">
<title>Bartlett\\UmlWriter\\Console\\Application</title>
<polygon fill="lightgrey" stroke="transparent" points="1063,-1250.5 100,-1250.5 100,-1095.5 1063,-1095.5 1063,-1250.5"/>
<polygon fill="#eeeeee" stroke="transparent" points="108.5,-1212 108.5,-1246 1055.5,-1246 1055.5,-1212 108.5,-1212"/>
<polygon fill="none" stroke="black" points="108.5,-1212 108.5,-1246 1055.5,-1246 1055.5,-1212 108.5,-1212"/>
<text text-anchor="start" x="537" y="-1218.8" font-family="Times,serif" font-weight="bold" font-size="14.00">Application</text>
<polygon fill="none" stroke="black" points="108.5,-1168 108.5,-1212 1055.5,-1212 1055.5,-1168 108.5,-1168"/>
<text text-anchor="start" x="113.5" y="-1195.8" font-family="Times,serif" font-size="14.00">+ «static» NAME : string = &quot;umlWriter&quot; {readOnly}</text>
<text text-anchor="start" x="113.5" y="-1176.8" font-family="Times,serif" font-size="14.00">+ «static» VERSION : string = &quot;2\.1\.0&quot; {readOnly}</text>
<polygon fill="none" stroke="black" points="108.5,-1162 108.5,-1168 1055.5,-1168 1055.5,-1162 108.5,-1162"/>
<polygon fill="none" stroke="black" points="108.5,-1099 108.5,-1162 1055.5,-1162 1055.5,-1099 108.5,-1099"/>
<text text-anchor="start" x="113.5" y="-1145.8" font-family="Times,serif" font-size="14.00">+ __construct(container : Psr\Container\ContainerInterface, version : string = VERSION)</text>
<text text-anchor="start" x="113.5" y="-1126.8" font-family="Times,serif" font-size="14.00">+ getHelp()</text>
<text text-anchor="start" x="113.5" y="-1107.8" font-family="Times,serif" font-size="14.00">+ doRun(input : Symfony\Component\Console\Input\InputInterface, output : Symfony\Component\Console\Output\OutputInterface)</text>
</g>
<!-- Symfony\\Component\\Console\\Application -->
<g id="node13" class="node">
<title>Symfony\\Component\\Console\\Application</title>
<polygon fill="lightgrey" stroke="transparent" points="2394,-1551.5 1183,-1551.5 1183,-794.5 2394,-794.5 2394,-1551.5"/>
<polygon fill="#eeeeee" stroke="transparent" points="1191.5,-1513 1191.5,-1547 2386.5,-1547 2386.5,-1513 1191.5,-1513"/>
<polygon fill="none" stroke="black" points="1191.5,-1513 1191.5,-1547 2386.5,-1547 2386.5,-1513 1191.5,-1513"/>
<text text-anchor="start" x="1744" y="-1519.8" font-family="Times,serif" font-weight="bold" font-size="14.00">Application</text>
<polygon fill="none" stroke="black" points="1191.5,-1507 1191.5,-1513 2386.5,-1513 2386.5,-1507 1191.5,-1507"/>
<polygon fill="none" stroke="black" points="1191.5,-798 1191.5,-1507 2386.5,-1507 2386.5,-798 1191.5,-798"/>
<text text-anchor="start" x="1196.5" y="-1490.8" font-family="Times,serif" font-size="14.00">+ __construct(name : string = &#39;UNKNOWN&#39;, version : string = &#39;UNKNOWN&#39;)</text>
<text text-anchor="start" x="1196.5" y="-1471.8" font-family="Times,serif" font-size="14.00">+ setDispatcher(dispatcher : Symfony\Contracts\EventDispatcher\EventDispatcherInterface)</text>
<text text-anchor="start" x="1196.5" y="-1452.8" font-family="Times,serif" font-size="14.00">+ setCommandLoader(commandLoader : Symfony\Component\Console\CommandLoader\CommandLoaderInterface)</text>
<text text-anchor="start" x="1196.5" y="-1433.8" font-family="Times,serif" font-size="14.00">+ getSignalRegistry() : Symfony\Component\Console\SignalRegistry\SignalRegistry</text>
<text text-anchor="start" x="1196.5" y="-1414.8" font-family="Times,serif" font-size="14.00">+ setSignalsToDispatchEvent(signalsToDispatchEvent : int = «unknown»)</text>
<text text-anchor="start" x="1196.5" y="-1395.8" font-family="Times,serif" font-size="14.00">+ run(input : Symfony\Component\Console\Input\InputInterface = «unknown», output : Symfony\Component\Console\Output\OutputInterface = «unknown»)</text>
<text text-anchor="start" x="1196.5" y="-1376.8" font-family="Times,serif" font-size="14.00">+ doRun(input : Symfony\Component\Console\Input\InputInterface, output : Symfony\Component\Console\Output\OutputInterface)</text>
<text text-anchor="start" x="1196.5" y="-1357.8" font-family="Times,serif" font-size="14.00">+ reset()</text>
<text text-anchor="start" x="1196.5" y="-1338.8" font-family="Times,serif" font-size="14.00">+ setHelperSet(helperSet : Symfony\Component\Console\Helper\HelperSet)</text>
<text text-anchor="start" x="1196.5" y="-1319.8" font-family="Times,serif" font-size="14.00">+ getHelperSet()</text>
<text text-anchor="start" x="1196.5" y="-1300.8" font-family="Times,serif" font-size="14.00">+ setDefinition(definition : Symfony\Component\Console\Input\InputDefinition)</text>
<text text-anchor="start" x="1196.5" y="-1281.8" font-family="Times,serif" font-size="14.00">+ getDefinition()</text>
<text text-anchor="start" x="1196.5" y="-1262.8" font-family="Times,serif" font-size="14.00">+ complete(input : Symfony\Component\Console\Completion\CompletionInput, suggestions : Symfony\Component\Console\Completion\CompletionSuggestions) : void</text>
<text text-anchor="start" x="1196.5" y="-1243.8" font-family="Times,serif" font-size="14.00">+ getHelp()</text>
<text text-anchor="start" x="1196.5" y="-1224.8" font-family="Times,serif" font-size="14.00">+ areExceptionsCaught()</text>
<text text-anchor="start" x="1196.5" y="-1205.8" font-family="Times,serif" font-size="14.00">+ setCatchExceptions(boolean : bool)</text>
<text text-anchor="start" x="1196.5" y="-1186.8" font-family="Times,serif" font-size="14.00">+ isAutoExitEnabled()</text>
<text text-anchor="start" x="1196.5" y="-1167.8" font-family="Times,serif" font-size="14.00">+ setAutoExit(boolean : bool)</text>
<text text-anchor="start" x="1196.5" y="-1148.8" font-family="Times,serif" font-size="14.00">+ getName()</text>
<text text-anchor="start" x="1196.5" y="-1129.8" font-family="Times,serif" font-size="14.00">+ setName(name : string)</text>
<text text-anchor="start" x="1196.5" y="-1110.8" font-family="Times,serif" font-size="14.00">+ getVersion()</text>
<text text-anchor="start" x="1196.5" y="-1091.8" font-family="Times,serif" font-size="14.00">+ setVersion(version : string)</text>
<text text-anchor="start" x="1196.5" y="-1072.8" font-family="Times,serif" font-size="14.00">+ getLongVersion()</text>
<text text-anchor="start" x="1196.5" y="-1053.8" font-family="Times,serif" font-size="14.00">+ register(name : string)</text>
<text text-anchor="start" x="1196.5" y="-1034.8" font-family="Times,serif" font-size="14.00">+ addCommands(commands : array)</text>
<text text-anchor="start" x="1196.5" y="-1015.8" font-family="Times,serif" font-size="14.00">+ add(command : Symfony\Component\Console\Command\Command)</text>
<text text-anchor="start" x="1196.5" y="-996.8" font-family="Times,serif" font-size="14.00">+ get(name : string)</text>
<text text-anchor="start" x="1196.5" y="-977.8" font-family="Times,serif" font-size="14.00">+ has(name : string)</text>
<text text-anchor="start" x="1196.5" y="-958.8" font-family="Times,serif" font-size="14.00">+ getNamespaces()</text>
<text text-anchor="start" x="1196.5" y="-939.8" font-family="Times,serif" font-size="14.00">+ findNamespace(namespace : string)</text>
<text text-anchor="start" x="1196.5" y="-920.8" font-family="Times,serif" font-size="14.00">+ find(name : string)</text>
<text text-anchor="start" x="1196.5" y="-901.8" font-family="Times,serif" font-size="14.00">+ all(namespace : string = «unknown»)</text>
<text text-anchor="start" x="1196.5" y="-882.8" font-family="Times,serif" font-size="14.00">+ «static» getAbbreviations(names : array)</text>
<text text-anchor="start" x="1196.5" y="-863.8" font-family="Times,serif" font-size="14.00">+ renderThrowable(e : Throwable, output : Symfony\Component\Console\Output\OutputInterface) : void</text>
<text text-anchor="start" x="1196.5" y="-844.8" font-family="Times,serif" font-size="14.00">+ extractNamespace(name : string, limit : int = «unknown»)</text>
<text text-anchor="start" x="1196.5" y="-825.8" font-family="Times,serif" font-size="14.00">+ setDefaultCommand(commandName : string, isSingleCommand : bool = false)</text>
<text text-anchor="start" x="1196.5" y="-806.8" font-family="Times,serif" font-size="14.00">+ isSingleCommand() : bool</text>
</g>
<!-- Bartlett\\UmlWriter\\Console\\Application&#45;&gt;Symfony\\Component\\Console\\Application -->
<g id="edge8" class="edge">
<title>Bartlett\\UmlWriter\\Console\\Application&#45;&gt;Symfony\\Component\\Console\\Application</title>
<path fill="none" stroke="black" d="M1063.08,-1173C1099.13,-1173 1135.78,-1173 1172.5,-1173"/>
<polygon fill="none" stroke="black" points="1172.86,-1176.5 1182.86,-1173 1172.86,-1169.5 1172.86,-1176.5"/>
</g>
<!-- Symfony\\Contracts\\Service\\ResetInterface -->
<g id="node14" class="node">
<title>Symfony\\Contracts\\Service\\ResetInterface</title>
<polygon fill="lightgrey" stroke="transparent" points="2905.5,-1209.5 2734.5,-1209.5 2734.5,-1136.5 2905.5,-1136.5 2905.5,-1209.5"/>
<polygon fill="#eeeeee" stroke="transparent" points="2743,-1171 2743,-1205 2898,-1205 2898,-1171 2743,-1171"/>
<polygon fill="none" stroke="black" points="2743,-1171 2743,-1205 2898,-1205 2898,-1171 2743,-1171"/>
<text text-anchor="start" x="2775.5" y="-1191.8" font-family="Times,serif" font-weight="bold" font-size="14.00">«interface»</text>
<text text-anchor="start" x="2761.5" y="-1177.8" font-family="Times,serif" font-weight="bold" font-size="14.00">ResetInterface</text>
<polygon fill="none" stroke="black" points="2743,-1165 2743,-1171 2898,-1171 2898,-1165 2743,-1165"/>
<polygon fill="none" stroke="black" points="2743,-1140 2743,-1165 2898,-1165 2898,-1140 2743,-1140"/>
<text text-anchor="start" x="2748" y="-1148.8" font-family="Times,serif" font-size="14.00">+ «abstract» reset()</text>
</g>
<!-- Symfony\\Component\\Console\\Application&#45;&gt;Symfony\\Contracts\\Service\\ResetInterface -->
<g id="edge7" class="edge">
<title>Symfony\\Component\\Console\\Application&#45;&gt;Symfony\\Contracts\\Service\\ResetInterface</title>
<path fill="none" stroke="black" stroke-dasharray="5,2" d="M2394.32,-1173C2523.12,-1173 2644.16,-1173 2723.81,-1173"/>
<polygon fill="none" stroke="black" points="2724.28,-1176.5 2734.28,-1173 2724.28,-1169.5 2724.28,-1176.5"/>
</g>
<!-- Bartlett\\UmlWriter\\Console\\Command\\ClassDiagramCommand -->
<g id="node15" class="node">
<title>Bartlett\\UmlWriter\\Console\\Command\\ClassDiagramCommand</title>
<polygon fill="lightgrey" stroke="transparent" points="1147,-2029 16,-2029 16,-1931 1147,-1931 1147,-2029"/>
<polygon fill="#eeeeee" stroke="transparent" points="24.5,-1991 24.5,-2025 1139.5,-2025 1139.5,-1991 24.5,-1991"/>
<polygon fill="none" stroke="black" points="24.5,-1991 24.5,-2025 1139.5,-2025 1139.5,-1991 24.5,-1991"/>
<text text-anchor="start" x="487" y="-1997.8" font-family="Times,serif" font-weight="bold" font-size="14.00">ClassDiagramCommand</text>
<polygon fill="none" stroke="black" points="24.5,-1966 24.5,-1991 1139.5,-1991 1139.5,-1966 24.5,-1966"/>
<text text-anchor="start" x="29.5" y="-1974.8" font-family="Times,serif" font-size="14.00">+ «static» NAME : string = &quot;diagram\:class&quot; {readOnly}</text>
<polygon fill="none" stroke="black" points="24.5,-1960 24.5,-1966 1139.5,-1966 1139.5,-1960 24.5,-1960"/>
<polygon fill="none" stroke="black" points="24.5,-1935 24.5,-1960 1139.5,-1960 1139.5,-1935 24.5,-1935"/>
<text text-anchor="start" x="29.5" y="-1943.8" font-family="Times,serif" font-size="14.00">+ __construct(renderer : Bartlett\UmlWriter\Service\ClassDiagramRenderer, generatorFactory : Bartlett\UmlWriter\Generator\GeneratorFactoryInterface)</text>
</g>
<!-- Symfony\\Component\\Console\\Command\\Command -->
<g id="node16" class="node">
<title>Symfony\\Component\\Console\\Command\\Command</title>
<polygon fill="lightgrey" stroke="transparent" points="2394,-2361.5 1183,-2361.5 1183,-1598.5 2394,-1598.5 2394,-2361.5"/>
<polygon fill="#eeeeee" stroke="transparent" points="1191.5,-2323 1191.5,-2357 2386.5,-2357 2386.5,-2323 1191.5,-2323"/>
<polygon fill="none" stroke="black" points="1191.5,-2323 1191.5,-2357 2386.5,-2357 2386.5,-2323 1191.5,-2323"/>
<text text-anchor="start" x="1749" y="-2329.8" font-family="Times,serif" font-weight="bold" font-size="14.00">Command</text>
<polygon fill="none" stroke="black" points="1191.5,-2260 1191.5,-2323 2386.5,-2323 2386.5,-2260 1191.5,-2260"/>
<text text-anchor="start" x="1196.5" y="-2306.8" font-family="Times,serif" font-size="14.00">+ «static» SUCCESS : int = 0 {readOnly}</text>
<text text-anchor="start" x="1196.5" y="-2287.8" font-family="Times,serif" font-size="14.00">+ «static» FAILURE : int = 1 {readOnly}</text>
<text text-anchor="start" x="1196.5" y="-2268.8" font-family="Times,serif" font-size="14.00">+ «static» INVALID : int = 2 {readOnly}</text>
<polygon fill="none" stroke="black" points="1191.5,-2254 1191.5,-2260 2386.5,-2260 2386.5,-2254 1191.5,-2254"/>
<polygon fill="none" stroke="black" points="1191.5,-1602 1191.5,-2254 2386.5,-2254 2386.5,-1602 1191.5,-1602"/>
<text text-anchor="start" x="1196.5" y="-2237.8" font-family="Times,serif" font-size="14.00">+ «static» getDefaultName()</text>
<text text-anchor="start" x="1196.5" y="-2218.8" font-family="Times,serif" font-size="14.00">+ «static» getDefaultDescription() : ?string</text>
<text text-anchor="start" x="1196.5" y="-2199.8" font-family="Times,serif" font-size="14.00">+ __construct(name : string = «unknown»)</text>
<text text-anchor="start" x="1196.5" y="-2180.8" font-family="Times,serif" font-size="14.00">+ ignoreValidationErrors()</text>
<text text-anchor="start" x="1196.5" y="-2161.8" font-family="Times,serif" font-size="14.00">+ setApplication(application : Symfony\Component\Console\Application = «unknown»)</text>
<text text-anchor="start" x="1196.5" y="-2142.8" font-family="Times,serif" font-size="14.00">+ setHelperSet(helperSet : Symfony\Component\Console\Helper\HelperSet)</text>
<text text-anchor="start" x="1196.5" y="-2123.8" font-family="Times,serif" font-size="14.00">+ getHelperSet()</text>
<text text-anchor="start" x="1196.5" y="-2104.8" font-family="Times,serif" font-size="14.00">+ getApplication()</text>
<text text-anchor="start" x="1196.5" y="-2085.8" font-family="Times,serif" font-size="14.00">+ isEnabled()</text>
<text text-anchor="start" x="1196.5" y="-2066.8" font-family="Times,serif" font-size="14.00">+ run(input : Symfony\Component\Console\Input\InputInterface, output : Symfony\Component\Console\Output\OutputInterface)</text>
<text text-anchor="start" x="1196.5" y="-2047.8" font-family="Times,serif" font-size="14.00">+ complete(input : Symfony\Component\Console\Completion\CompletionInput, suggestions : Symfony\Component\Console\Completion\CompletionSuggestions) : void</text>
<text text-anchor="start" x="1196.5" y="-2028.8" font-family="Times,serif" font-size="14.00">+ setCode(code : callable)</text>
<text text-anchor="start" x="1196.5" y="-2009.8" font-family="Times,serif" font-size="14.00">+ mergeApplicationDefinition(mergeArgs : bool = true)</text>
<text text-anchor="start" x="1196.5" y="-1990.8" font-family="Times,serif" font-size="14.00">+ setDefinition(definition : mixed)</text>
<text text-anchor="start" x="1196.5" y="-1971.8" font-family="Times,serif" font-size="14.00">+ getDefinition()</text>
<text text-anchor="start" x="1196.5" y="-1952.8" font-family="Times,serif" font-size="14.00">+ getNativeDefinition()</text>
<text text-anchor="start" x="1196.5" y="-1933.8" font-family="Times,serif" font-size="14.00">+ addArgument(name : string, mode : int = «unknown», description : string = &#39;&#39;, default = «unknown»)</text>
<text text-anchor="start" x="1196.5" y="-1914.8" font-family="Times,serif" font-size="14.00">+ addOption(name : string, shortcut = «unknown», mode : int = «unknown», description : string = &#39;&#39;, default = «unknown»)</text>
<text text-anchor="start" x="1196.5" y="-1895.8" font-family="Times,serif" font-size="14.00">+ setName(name : string)</text>
<text text-anchor="start" x="1196.5" y="-1876.8" font-family="Times,serif" font-size="14.00">+ setProcessTitle(title : string)</text>
<text text-anchor="start" x="1196.5" y="-1857.8" font-family="Times,serif" font-size="14.00">+ getName()</text>
<text text-anchor="start" x="1196.5" y="-1838.8" font-family="Times,serif" font-size="14.00">+ setHidden(hidden : bool)</text>
<text text-anchor="start" x="1196.5" y="-1819.8" font-family="Times,serif" font-size="14.00">+ isHidden()</text>
<text text-anchor="start" x="1196.5" y="-1800.8" font-family="Times,serif" font-size="14.00">+ setDescription(description : string)</text>
<text text-anchor="start" x="1196.5" y="-1781.8" font-family="Times,serif" font-size="14.00">+ getDescription()</text>
<text text-anchor="start" x="1196.5" y="-1762.8" font-family="Times,serif" font-size="14.00">+ setHelp(help : string)</text>
<text text-anchor="start" x="1196.5" y="-1743.8" font-family="Times,serif" font-size="14.00">+ getHelp()</text>
<text text-anchor="start" x="1196.5" y="-1724.8" font-family="Times,serif" font-size="14.00">+ getProcessedHelp()</text>
<text text-anchor="start" x="1196.5" y="-1705.8" font-family="Times,serif" font-size="14.00">+ setAliases(aliases : iterable)</text>
<text text-anchor="start" x="1196.5" y="-1686.8" font-family="Times,serif" font-size="14.00">+ getAliases()</text>
<text text-anchor="start" x="1196.5" y="-1667.8" font-family="Times,serif" font-size="14.00">+ getSynopsis(short : bool = false)</text>
<text text-anchor="start" x="1196.5" y="-1648.8" font-family="Times,serif" font-size="14.00">+ addUsage(usage : string)</text>
<text text-anchor="start" x="1196.5" y="-1629.8" font-family="Times,serif" font-size="14.00">+ getUsages()</text>
<text text-anchor="start" x="1196.5" y="-1610.8" font-family="Times,serif" font-size="14.00">+ getHelper(name : string)</text>
</g>
<!-- Bartlett\\UmlWriter\\Console\\Command\\ClassDiagramCommand&#45;&gt;Symfony\\Component\\Console\\Command\\Command -->
<g id="edge9" class="edge">
<title>Bartlett\\UmlWriter\\Console\\Command\\ClassDiagramCommand&#45;&gt;Symfony\\Component\\Console\\Command\\Command</title>
<path fill="none" stroke="black" d="M1147.07,-1980C1155.65,-1980 1164.24,-1980 1172.83,-1980"/>
<polygon fill="none" stroke="black" points="1172.92,-1983.5 1182.92,-1980 1172.92,-1976.5 1172.92,-1983.5"/>
</g>
</g>
</svg>
