<?xml version="1.0" encoding="UTF-8" standalone="no"?>
<!DOCTYPE svg PUBLIC "-//W3C//DTD SVG 1.1//EN"
 "http://www.w3.org/Graphics/SVG/1.1/DTD/svg11.dtd">
<!-- Generated by graphviz version 2.40.1 (20161225.0304)
 -->
<!-- Title: %3 Pages: 1 -->
<svg width="3788pt" height="509pt"
 viewBox="0.00 0.00 3788.00 509.00" xmlns="http://www.w3.org/2000/svg" xmlns:xlink="http://www.w3.org/1999/xlink">
<g id="graph0" class="graph" transform="scale(1 1) rotate(0) translate(4 505)">
<title>%3</title>
<polygon fill="#ffffff" stroke="transparent" points="-4,4 -4,-505 3784,-505 3784,4 -4,4"/>
<!-- bartlett/umlwriter -->
<g id="node1" class="node">
<title>bartlett/umlwriter</title>
<ellipse fill="#d3d3d3" stroke="#000000" stroke-width="2" cx="1177" cy="-483" rx="73.387" ry="18"/>
<text text-anchor="middle" x="1177" y="-479.3" font-family="Times,serif" font-size="14.00" fill="#000000">bartlett/umlwriter</text>
</g>
<!-- php -->
<g id="node2" class="node">
<title>php</title>
<path fill="#eeeeee" stroke="#000000" d="M1582,-36C1582,-36 1552,-36 1552,-36 1546,-36 1540,-30 1540,-24 1540,-24 1540,-12 1540,-12 1540,-6 1546,0 1552,0 1552,0 1582,0 1582,0 1588,0 1594,-6 1594,-12 1594,-12 1594,-24 1594,-24 1594,-30 1588,-36 1582,-36"/>
<text text-anchor="middle" x="1567" y="-14.3" font-family="Times,serif" font-size="14.00" fill="#314b5f">php</text>
</g>
<!-- bartlett/umlwriter&#45;&gt;php -->
<g id="edge1" class="edge">
<title>bartlett/umlwriter&#45;&gt;php</title>
<path fill="none" stroke="#1a2833" d="M1103.802,-481.1922C913.5136,-476.3319 406.4632,-462.3115 239,-447 131.193,-437.143 0,-508.2567 0,-400 0,-400 0,-400 0,-101 0,-69.8476 23.0624,-65.5362 52,-54 122.7057,-25.8128 1303.9335,-19.1674 1529.8283,-18.152"/>
<polygon fill="#1a2833" stroke="#1a2833" points="1529.8704,-21.652 1539.8548,-18.1079 1529.8395,-14.6521 1529.8704,-21.652"/>
<text text-anchor="middle" x="12.5" y="-260.5" font-family="Times,serif" font-size="10.00" fill="#767676">^7.1.3</text>
</g>
<!-- bartlett/graph&#45;plantuml&#45;generator -->
<g id="node3" class="node">
<title>bartlett/graph&#45;plantuml&#45;generator</title>
<path fill="#eeeeee" stroke="#000000" d="M269.5,-418C269.5,-418 60.5,-418 60.5,-418 54.5,-418 48.5,-412 48.5,-406 48.5,-406 48.5,-394 48.5,-394 48.5,-388 54.5,-382 60.5,-382 60.5,-382 269.5,-382 269.5,-382 275.5,-382 281.5,-388 281.5,-394 281.5,-394 281.5,-406 281.5,-406 281.5,-412 275.5,-418 269.5,-418"/>
<text text-anchor="middle" x="165" y="-396.3" font-family="Times,serif" font-size="14.00" fill="#314b5f">bartlett/graph&#45;plantuml&#45;generator: 1.1.0</text>
</g>
<!-- bartlett/umlwriter&#45;&gt;bartlett/graph&#45;plantuml&#45;generator -->
<g id="edge16" class="edge">
<title>bartlett/umlwriter&#45;&gt;bartlett/graph&#45;plantuml&#45;generator</title>
<path fill="none" stroke="#1a2833" d="M1103.486,-481.5455C903.1875,-477.3726 357.4612,-464.5267 278,-447 254.2493,-441.7613 229.1457,-431.8105 208.6476,-422.4089"/>
<polygon fill="#1a2833" stroke="#1a2833" points="210.1143,-419.231 199.5751,-418.1468 207.1379,-425.5667 210.1143,-419.231"/>
<text text-anchor="middle" x="287" y="-439" font-family="Times,serif" font-size="10.00" fill="#767676">^1.1</text>
</g>
<!-- bartlett/graph&#45;uml -->
<g id="node4" class="node">
<title>bartlett/graph&#45;uml</title>
<path fill="#eeeeee" stroke="#000000" d="M545.5,-335C545.5,-335 418.5,-335 418.5,-335 412.5,-335 406.5,-329 406.5,-323 406.5,-323 406.5,-311 406.5,-311 406.5,-305 412.5,-299 418.5,-299 418.5,-299 545.5,-299 545.5,-299 551.5,-299 557.5,-305 557.5,-311 557.5,-311 557.5,-323 557.5,-323 557.5,-329 551.5,-335 545.5,-335"/>
<text text-anchor="middle" x="482" y="-313.3" font-family="Times,serif" font-size="14.00" fill="#314b5f">bartlett/graph&#45;uml: 1.1.0</text>
</g>
<!-- bartlett/umlwriter&#45;&gt;bartlett/graph&#45;uml -->
<g id="edge17" class="edge">
<title>bartlett/umlwriter&#45;&gt;bartlett/graph&#45;uml</title>
<path fill="none" stroke="#1a2833" d="M1103.4676,-482.2052C952.3595,-480.0569 617.2532,-472.4521 572,-447 531.8441,-424.4148 505.6573,-375.5667 492.3829,-344.5997"/>
<polygon fill="#1a2833" stroke="#1a2833" points="495.5689,-343.1444 488.5255,-335.2298 489.0959,-345.8093 495.5689,-343.1444"/>
<text text-anchor="middle" x="545" y="-397.5" font-family="Times,serif" font-size="10.00" fill="#767676">^1.1</text>
</g>
<!-- cweagans/composer&#45;patches -->
<g id="node5" class="node">
<title>cweagans/composer&#45;patches</title>
<path fill="#eeeeee" stroke="#000000" d="M822,-227C822,-227 640,-227 640,-227 634,-227 628,-221 628,-215 628,-215 628,-203 628,-203 628,-197 634,-191 640,-191 640,-191 822,-191 822,-191 828,-191 834,-197 834,-203 834,-203 834,-215 834,-215 834,-221 828,-227 822,-227"/>
<text text-anchor="middle" x="731" y="-205.3" font-family="Times,serif" font-size="14.00" fill="#314b5f">cweagans/composer&#45;patches: 1.7.1</text>
</g>
<!-- bartlett/umlwriter&#45;&gt;cweagans/composer&#45;patches -->
<g id="edge18" class="edge">
<title>bartlett/umlwriter&#45;&gt;cweagans/composer&#45;patches</title>
<path fill="none" stroke="#1a2833" d="M1115.3626,-473.0827C1012.6126,-455.3107 812.8461,-415.0744 765,-364 732.7938,-329.6208 728.4424,-272.015 729.1037,-237.5491"/>
<polygon fill="#1a2833" stroke="#1a2833" points="732.6129,-237.3473 729.4656,-227.2308 725.6172,-237.1019 732.6129,-237.3473"/>
<text text-anchor="middle" x="774" y="-356" font-family="Times,serif" font-size="10.00" fill="#767676">^1.7</text>
</g>
<!-- graphp/graph -->
<g id="node7" class="node">
<title>graphp/graph</title>
<path fill="#eeeeee" stroke="#000000" d="M394.5,-119C394.5,-119 261.5,-119 261.5,-119 255.5,-119 249.5,-113 249.5,-107 249.5,-107 249.5,-95 249.5,-95 249.5,-89 255.5,-83 261.5,-83 261.5,-83 394.5,-83 394.5,-83 400.5,-83 406.5,-89 406.5,-95 406.5,-95 406.5,-107 406.5,-107 406.5,-113 400.5,-119 394.5,-119"/>
<text text-anchor="middle" x="328" y="-97.3" font-family="Times,serif" font-size="14.00" fill="#314b5f">graphp/graph: dev&#45;master</text>
</g>
<!-- bartlett/umlwriter&#45;&gt;graphp/graph -->
<g id="edge19" class="edge">
<title>bartlett/umlwriter&#45;&gt;graphp/graph</title>
<path fill="none" stroke="#1a2833" d="M1103.4119,-482.314C961.5129,-480.4059 655.0644,-473.2809 553,-447 441.3433,-418.2492 389.5293,-426.211 319,-335 264.8958,-265.0304 268.8112,-220.1363 299,-137 300.1505,-133.8317 301.7041,-130.7339 303.4975,-127.7689"/>
<polygon fill="#1a2833" stroke="#1a2833" points="306.5406,-129.5263 309.4341,-119.3342 300.8162,-125.4974 306.5406,-129.5263"/>
<text text-anchor="middle" x="358" y="-314.5" font-family="Times,serif" font-size="10.00" fill="#767676">dev&#45;master as 1.0.0</text>
</g>
<!-- graphp/graphviz -->
<g id="node8" class="node">
<title>graphp/graphviz</title>
<path fill="#eeeeee" stroke="#000000" d="M559.5,-227C559.5,-227 410.5,-227 410.5,-227 404.5,-227 398.5,-221 398.5,-215 398.5,-215 398.5,-203 398.5,-203 398.5,-197 404.5,-191 410.5,-191 410.5,-191 559.5,-191 559.5,-191 565.5,-191 571.5,-197 571.5,-203 571.5,-203 571.5,-215 571.5,-215 571.5,-221 565.5,-227 559.5,-227"/>
<text text-anchor="middle" x="485" y="-205.3" font-family="Times,serif" font-size="14.00" fill="#314b5f">graphp/graphviz: dev&#45;master</text>
</g>
<!-- bartlett/umlwriter&#45;&gt;graphp/graphviz -->
<g id="edge20" class="edge">
<title>bartlett/umlwriter&#45;&gt;graphp/graphviz</title>
<path fill="none" stroke="#1a2833" d="M1113.2564,-474.0151C1065.2692,-467.0919 997.9104,-457.0348 939,-447 817.751,-426.3463 774.3971,-436.4439 675,-364 615.8108,-320.8609 620.4128,-287.8306 561,-245 554.4214,-240.2575 547.1196,-235.8782 539.7181,-231.9277"/>
<polygon fill="#1a2833" stroke="#1a2833" points="540.8368,-228.5702 530.3365,-227.1581 537.6644,-234.81 540.8368,-228.5702"/>
<text text-anchor="middle" x="714" y="-356" font-family="Times,serif" font-size="10.00" fill="#767676">dev&#45;master as 1.0.0</text>
</g>
<!-- psr/container -->
<g id="node11" class="node">
<title>psr/container</title>
<path fill="#eeeeee" stroke="#000000" d="M2212,-119C2212,-119 2114,-119 2114,-119 2108,-119 2102,-113 2102,-107 2102,-107 2102,-95 2102,-95 2102,-89 2108,-83 2114,-83 2114,-83 2212,-83 2212,-83 2218,-83 2224,-89 2224,-95 2224,-95 2224,-107 2224,-107 2224,-113 2218,-119 2212,-119"/>
<text text-anchor="middle" x="2163" y="-97.3" font-family="Times,serif" font-size="14.00" fill="#314b5f">psr/container: 1.1.2</text>
</g>
<!-- bartlett/umlwriter&#45;&gt;psr/container -->
<g id="edge22" class="edge">
<title>bartlett/umlwriter&#45;&gt;psr/container</title>
<path fill="none" stroke="#1a2833" d="M1250.3041,-480.8999C1484.9017,-473.7005 2202,-447.7857 2202,-400 2202,-400 2202,-400 2202,-209 2202,-180.13 2189.5192,-149.3614 2178.6784,-128.0814"/>
<polygon fill="#1a2833" stroke="#1a2833" points="2181.6443,-126.2038 2173.8637,-119.0127 2175.4617,-129.4863 2181.6443,-126.2038"/>
<text text-anchor="middle" x="2211" y="-314.5" font-family="Times,serif" font-size="10.00" fill="#767676">^1.0</text>
</g>
<!-- roave/better&#45;reflection -->
<g id="node12" class="node">
<title>roave/better&#45;reflection</title>
<path fill="#eeeeee" stroke="#000000" d="M1254.5,-418C1254.5,-418 1099.5,-418 1099.5,-418 1093.5,-418 1087.5,-412 1087.5,-406 1087.5,-406 1087.5,-394 1087.5,-394 1087.5,-388 1093.5,-382 1099.5,-382 1099.5,-382 1254.5,-382 1254.5,-382 1260.5,-382 1266.5,-388 1266.5,-394 1266.5,-394 1266.5,-406 1266.5,-406 1266.5,-412 1260.5,-418 1254.5,-418"/>
<text text-anchor="middle" x="1177" y="-396.3" font-family="Times,serif" font-size="14.00" fill="#314b5f">roave/better&#45;reflection: 4.12.2</text>
</g>
<!-- bartlett/umlwriter&#45;&gt;roave/better&#45;reflection -->
<g id="edge44" class="edge">
<title>bartlett/umlwriter&#45;&gt;roave/better&#45;reflection</title>
<path fill="none" stroke="#1a2833" d="M1177,-464.9902C1177,-454.2963 1177,-440.4994 1177,-428.3706"/>
<polygon fill="#1a2833" stroke="#1a2833" points="1180.5001,-428.2612 1177,-418.2612 1173.5001,-428.2613 1180.5001,-428.2612"/>
<text text-anchor="middle" x="1188.5" y="-439" font-family="Times,serif" font-size="10.00" fill="#767676">^4.12</text>
</g>
<!-- symfony/config -->
<g id="node24" class="node">
<title>symfony/config</title>
<path fill="#eeeeee" stroke="#000000" d="M1879.5,-335C1879.5,-335 1758.5,-335 1758.5,-335 1752.5,-335 1746.5,-329 1746.5,-323 1746.5,-323 1746.5,-311 1746.5,-311 1746.5,-305 1752.5,-299 1758.5,-299 1758.5,-299 1879.5,-299 1879.5,-299 1885.5,-299 1891.5,-305 1891.5,-311 1891.5,-311 1891.5,-323 1891.5,-323 1891.5,-329 1885.5,-335 1879.5,-335"/>
<text text-anchor="middle" x="1819" y="-313.3" font-family="Times,serif" font-size="14.00" fill="#314b5f">symfony/config: v5.4.0</text>
</g>
<!-- bartlett/umlwriter&#45;&gt;symfony/config -->
<g id="edge59" class="edge">
<title>bartlett/umlwriter&#45;&gt;symfony/config</title>
<path fill="none" stroke="#1a2833" d="M1227.6447,-469.905C1338.9273,-441.1309 1605.4893,-372.2068 1739.3925,-337.5839"/>
<polygon fill="#1a2833" stroke="#1a2833" points="1740.3862,-340.9421 1749.1916,-335.0501 1738.6338,-334.165 1740.3862,-340.9421"/>
<text text-anchor="middle" x="1580.5" y="-397.5" font-family="Times,serif" font-size="10.00" fill="#767676">^4.4|^5.0</text>
</g>
<!-- symfony/console -->
<g id="node30" class="node">
<title>symfony/console</title>
<path fill="#eeeeee" stroke="#000000" d="M2586,-335C2586,-335 2458,-335 2458,-335 2452,-335 2446,-329 2446,-323 2446,-323 2446,-311 2446,-311 2446,-305 2452,-299 2458,-299 2458,-299 2586,-299 2586,-299 2592,-299 2598,-305 2598,-311 2598,-311 2598,-323 2598,-323 2598,-329 2592,-335 2586,-335"/>
<text text-anchor="middle" x="2522" y="-313.3" font-family="Times,serif" font-size="14.00" fill="#314b5f">symfony/console: v5.4.1</text>
</g>
<!-- bartlett/umlwriter&#45;&gt;symfony/console -->
<g id="edge79" class="edge">
<title>bartlett/umlwriter&#45;&gt;symfony/console</title>
<path fill="none" stroke="#1a2833" d="M1250.6435,-482.0045C1472.1274,-478.7931 2122.6631,-467.694 2216,-447 2315.8212,-424.8684 2424.0106,-371.1217 2481.1939,-340.1083"/>
<polygon fill="#1a2833" stroke="#1a2833" points="2483.1659,-343.0191 2490.2596,-335.1495 2479.8067,-336.8777 2483.1659,-343.0191"/>
<text text-anchor="middle" x="2412.5" y="-397.5" font-family="Times,serif" font-size="10.00" fill="#767676">^4.4|^5.0</text>
</g>
<!-- symfony/finder -->
<g id="node36" class="node">
<title>symfony/finder</title>
<path fill="#eeeeee" stroke="#000000" d="M3102.5,-227C3102.5,-227 2983.5,-227 2983.5,-227 2977.5,-227 2971.5,-221 2971.5,-215 2971.5,-215 2971.5,-203 2971.5,-203 2971.5,-197 2977.5,-191 2983.5,-191 2983.5,-191 3102.5,-191 3102.5,-191 3108.5,-191 3114.5,-197 3114.5,-203 3114.5,-203 3114.5,-215 3114.5,-215 3114.5,-221 3108.5,-227 3102.5,-227"/>
<text text-anchor="middle" x="3043" y="-205.3" font-family="Times,serif" font-size="14.00" fill="#314b5f">symfony/finder: v5.4.0</text>
</g>
<!-- bartlett/umlwriter&#45;&gt;symfony/finder -->
<g id="edge83" class="edge">
<title>bartlett/umlwriter&#45;&gt;symfony/finder</title>
<path fill="none" stroke="#1a2833" d="M1250.2877,-481.6967C1459.1013,-477.7989 2054.5703,-465.3538 2249,-447 2332.2951,-439.1371 2353.7903,-438.1216 2435,-418 2644.8612,-366.0019 2885.2321,-273.0356 2989.792,-230.8685"/>
<polygon fill="#1a2833" stroke="#1a2833" points="2991.2243,-234.0647 2999.1825,-227.0706 2988.5997,-227.5754 2991.2243,-234.0647"/>
<text text-anchor="middle" x="2674.5" y="-356" font-family="Times,serif" font-size="10.00" fill="#767676">^4.4|^5.0</text>
</g>
<!-- symfony/options&#45;resolver -->
<g id="node37" class="node">
<title>symfony/options&#45;resolver</title>
<path fill="#eeeeee" stroke="#000000" d="M3722,-227C3722,-227 3548,-227 3548,-227 3542,-227 3536,-221 3536,-215 3536,-215 3536,-203 3536,-203 3536,-197 3542,-191 3548,-191 3548,-191 3722,-191 3722,-191 3728,-191 3734,-197 3734,-203 3734,-203 3734,-215 3734,-215 3734,-221 3728,-227 3722,-227"/>
<text text-anchor="middle" x="3635" y="-205.3" font-family="Times,serif" font-size="14.00" fill="#314b5f">symfony/options&#45;resolver: v5.4.0</text>
</g>
<!-- bartlett/umlwriter&#45;&gt;symfony/options&#45;resolver -->
<g id="edge88" class="edge">
<title>bartlett/umlwriter&#45;&gt;symfony/options&#45;resolver</title>
<path fill="none" stroke="#1a2833" d="M1250.513,-481.8314C1476.2179,-478.0796 2157.2658,-465.4958 2378,-447 2471.89,-439.1328 2495.0937,-433.6734 2588,-418 2942.9064,-358.1268 3361.7869,-268.8378 3543.4037,-229.204"/>
<polygon fill="#1a2833" stroke="#1a2833" points="3544.1627,-232.6208 3553.1854,-227.0673 3542.6688,-225.7821 3544.1627,-232.6208"/>
<text text-anchor="middle" x="2961.5" y="-356" font-family="Times,serif" font-size="10.00" fill="#767676">^4.4|^5.0</text>
</g>
<!-- symfony/yaml -->
<g id="node38" class="node">
<title>symfony/yaml</title>
<path fill="#eeeeee" stroke="#000000" d="M3279,-227C3279,-227 3165,-227 3165,-227 3159,-227 3153,-221 3153,-215 3153,-215 3153,-203 3153,-203 3153,-197 3159,-191 3165,-191 3165,-191 3279,-191 3279,-191 3285,-191 3291,-197 3291,-203 3291,-203 3291,-215 3291,-215 3291,-221 3285,-227 3279,-227"/>
<text text-anchor="middle" x="3222" y="-205.3" font-family="Times,serif" font-size="14.00" fill="#314b5f">symfony/yaml: v5.4.0</text>
</g>
<!-- bartlett/umlwriter&#45;&gt;symfony/yaml -->
<g id="edge92" class="edge">
<title>bartlett/umlwriter&#45;&gt;symfony/yaml</title>
<path fill="none" stroke="#1a2833" d="M1250.3564,-481.7744C1467.6215,-477.97 2105.5257,-465.4972 2313,-447 2401.1495,-439.1411 2423.5128,-436.7635 2510,-418 2594.5403,-399.6589 2613.9608,-388.2476 2697,-364 2859.8872,-316.4367 3050.9533,-259.8185 3151.6496,-229.9149"/>
<polygon fill="#1a2833" stroke="#1a2833" points="3152.8144,-233.2201 3161.404,-227.0177 3150.8214,-226.5098 3152.8144,-233.2201"/>
<text text-anchor="middle" x="2747.5" y="-356" font-family="Times,serif" font-size="10.00" fill="#767676">^4.4|^5.0</text>
</g>
<!-- bartlett/graph&#45;plantuml&#45;generator&#45;&gt;php -->
<g id="edge15" class="edge">
<title>bartlett/graph&#45;plantuml&#45;generator&#45;&gt;php</title>
<path fill="none" stroke="#1a2833" d="M103.7571,-381.9282C74.5992,-369.1764 46,-348.6117 46,-317 46,-317 46,-317 46,-101 46,2.464 171.2262,-65.9301 274,-54 526.7376,-24.6619 1345.1257,-19.0553 1529.7592,-18.1545"/>
<polygon fill="#1a2833" stroke="#1a2833" points="1529.8033,-21.6545 1539.7866,-18.1073 1529.7702,-14.6545 1529.8033,-21.6545"/>
<text text-anchor="middle" x="68.5" y="-206.5" font-family="Times,serif" font-size="10.00" fill="#767676">^7.1.3|^8.0</text>
</g>
<!-- bartlett/graph&#45;plantuml&#45;generator&#45;&gt;bartlett/graph&#45;uml -->
<g id="edge11" class="edge">
<title>bartlett/graph&#45;plantuml&#45;generator&#45;&gt;bartlett/graph&#45;uml</title>
<path fill="none" stroke="#1a2833" d="M233.7843,-381.9902C283.6509,-368.9337 351.1833,-351.2517 403.218,-337.6275"/>
<polygon fill="#1a2833" stroke="#1a2833" points="404.2895,-340.965 413.0768,-335.0461 402.5164,-334.1933 404.2895,-340.965"/>
<text text-anchor="middle" x="352" y="-356" font-family="Times,serif" font-size="10.00" fill="#767676">^1.1</text>
</g>
<!-- jawira/plantuml&#45;encoding -->
<g id="node9" class="node">
<title>jawira/plantuml&#45;encoding</title>
<path fill="#eeeeee" stroke="#000000" d="M261.5,-335C261.5,-335 86.5,-335 86.5,-335 80.5,-335 74.5,-329 74.5,-323 74.5,-323 74.5,-311 74.5,-311 74.5,-305 80.5,-299 86.5,-299 86.5,-299 261.5,-299 261.5,-299 267.5,-299 273.5,-305 273.5,-311 273.5,-311 273.5,-323 273.5,-323 273.5,-329 267.5,-335 261.5,-335"/>
<text text-anchor="middle" x="174" y="-313.3" font-family="Times,serif" font-size="14.00" fill="#314b5f">jawira/plantuml&#45;encoding: v1.0.9</text>
</g>
<!-- bartlett/graph&#45;plantuml&#45;generator&#45;&gt;jawira/plantuml&#45;encoding -->
<g id="edge14" class="edge">
<title>bartlett/graph&#45;plantuml&#45;generator&#45;&gt;jawira/plantuml&#45;encoding</title>
<path fill="none" stroke="#1a2833" d="M166.9529,-381.9902C168.1125,-371.2963 169.6085,-357.4994 170.9237,-345.3706"/>
<polygon fill="#1a2833" stroke="#1a2833" points="174.4214,-345.5803 172.0199,-335.2612 167.4622,-344.8256 174.4214,-345.5803"/>
<text text-anchor="middle" x="180" y="-356" font-family="Times,serif" font-size="10.00" fill="#767676">^1.0</text>
</g>
<!-- bartlett/graph&#45;uml&#45;&gt;php -->
<g id="edge10" class="edge">
<title>bartlett/graph&#45;uml&#45;&gt;php</title>
<path fill="none" stroke="#1a2833" d="M540.9123,-298.8311C549.8202,-294.1131 558.2663,-288.2508 565,-281 628.4155,-212.7145 562.1541,-142.3516 634,-83 702.5682,-26.3562 743.4808,-62.63 832,-54 1098.725,-27.9963 1421.8282,-20.4365 1529.8366,-18.554"/>
<polygon fill="#1a2833" stroke="#1a2833" points="1529.9615,-22.0525 1539.901,-18.3844 1529.8434,-15.0535 1529.9615,-22.0525"/>
<text text-anchor="middle" x="622.5" y="-152.5" font-family="Times,serif" font-size="10.00" fill="#767676">^7.1.3|^8.0</text>
</g>
<!-- bartlett/graph&#45;uml&#45;&gt;cweagans/composer&#45;patches -->
<g id="edge4" class="edge">
<title>bartlett/graph&#45;uml&#45;&gt;cweagans/composer&#45;patches</title>
<path fill="none" stroke="#1a2833" d="M557.6231,-300.3534C576.4057,-295.1435 596.2372,-288.6982 614,-281 643.8833,-268.049 675.1765,-248.4281 697.8727,-232.938"/>
<polygon fill="#1a2833" stroke="#1a2833" points="699.8967,-235.7937 706.1294,-227.2261 695.9142,-230.037 699.8967,-235.7937"/>
<text text-anchor="middle" x="689" y="-260.5" font-family="Times,serif" font-size="10.00" fill="#767676">^1.7</text>
</g>
<!-- bartlett/graph&#45;uml&#45;&gt;graphp/graph -->
<g id="edge6" class="edge">
<title>bartlett/graph&#45;uml&#45;&gt;graphp/graph</title>
<path fill="none" stroke="#1a2833" d="M411.3979,-298.9406C374.6133,-285.555 332.8474,-263.1872 311,-227 292.8125,-196.875 303.87,-155.4064 314.8015,-128.4053"/>
<polygon fill="#1a2833" stroke="#1a2833" points="318.0418,-129.7297 318.7688,-119.1599 311.609,-126.9693 318.0418,-129.7297"/>
<text text-anchor="middle" x="350" y="-206.5" font-family="Times,serif" font-size="10.00" fill="#767676">dev&#45;master as 1.0.0</text>
</g>
<!-- bartlett/graph&#45;uml&#45;&gt;graphp/graphviz -->
<g id="edge9" class="edge">
<title>bartlett/graph&#45;uml&#45;&gt;graphp/graphviz</title>
<path fill="none" stroke="#1a2833" d="M482.0428,-298.9453C482.1275,-284.3799 482.3626,-263.3657 483,-245 483.0843,-242.5719 483.189,-240.0526 483.3059,-237.5255"/>
<polygon fill="#1a2833" stroke="#1a2833" points="486.8132,-237.4752 483.8352,-227.3075 479.8225,-237.113 486.8132,-237.4752"/>
<text text-anchor="middle" x="522" y="-260.5" font-family="Times,serif" font-size="10.00" fill="#767676">dev&#45;master as 1.0.0</text>
</g>
<!-- cweagans/composer&#45;patches&#45;&gt;php -->
<g id="edge3" class="edge">
<title>cweagans/composer&#45;patches&#45;&gt;php</title>
<path fill="none" stroke="#1a2833" d="M753.7988,-190.7175C759.768,-185.354 765.9418,-179.2428 771,-173 811.9166,-122.5003 795.7815,-78.4566 856,-54 918.5682,-28.5891 1392.525,-20.3275 1529.833,-18.4543"/>
<polygon fill="#1a2833" stroke="#1a2833" points="1529.9133,-21.9537 1539.8658,-18.3207 1529.8201,-14.9543 1529.9133,-21.9537"/>
<text text-anchor="middle" x="834.5" y="-98.5" font-family="Times,serif" font-size="10.00" fill="#767676">&gt;=5.3.0</text>
</g>
<!-- composer&#45;plugin&#45;api -->
<g id="node6" class="node">
<title>composer&#45;plugin&#45;api</title>
<path fill="#eeeeee" stroke="#000000" d="M761,-119C761,-119 655,-119 655,-119 649,-119 643,-113 643,-107 643,-107 643,-95 643,-95 643,-89 649,-83 655,-83 655,-83 761,-83 761,-83 767,-83 773,-89 773,-95 773,-95 773,-107 773,-107 773,-113 767,-119 761,-119"/>
<text text-anchor="middle" x="708" y="-97.3" font-family="Times,serif" font-size="14.00" fill="#314b5f">composer&#45;plugin&#45;api</text>
</g>
<!-- cweagans/composer&#45;patches&#45;&gt;composer&#45;plugin&#45;api -->
<g id="edge2" class="edge">
<title>cweagans/composer&#45;patches&#45;&gt;composer&#45;plugin&#45;api</title>
<path fill="none" stroke="#1a2833" d="M727.0984,-190.6793C723.4915,-173.7429 718.0798,-148.3311 713.9369,-128.8777"/>
<polygon fill="#1a2833" stroke="#1a2833" points="717.3502,-128.1018 711.844,-119.0502 710.5038,-129.5599 717.3502,-128.1018"/>
<text text-anchor="middle" x="745" y="-152.5" font-family="Times,serif" font-size="10.00" fill="#767676">^1.0 || ^2.0</text>
</g>
<!-- graphp/graph&#45;&gt;php -->
<g id="edge5" class="edge">
<title>graphp/graph&#45;&gt;php</title>
<path fill="none" stroke="#1a2833" d="M375.4311,-82.9784C405.4926,-72.4496 445.4627,-60.0724 482,-54 586.9355,-36.56 1350.6193,-21.8821 1529.5578,-18.6581"/>
<polygon fill="#1a2833" stroke="#1a2833" points="1529.8457,-22.1536 1539.7814,-18.475 1529.7203,-15.1548 1529.8457,-22.1536"/>
<text text-anchor="middle" x="494.5" y="-57" font-family="Times,serif" font-size="10.00" fill="#767676">&gt;=5.3</text>
</g>
<!-- graphp/graphviz&#45;&gt;php -->
<g id="edge8" class="edge">
<title>graphp/graphviz&#45;&gt;php</title>
<path fill="none" stroke="#1a2833" d="M496.4642,-190.8452C499.9399,-185.1824 503.7072,-178.8794 507,-173 538.0197,-117.6122 527.0185,-77.4777 586,-54 630.566,-36.2604 1355.6198,-21.8771 1529.6614,-18.6691"/>
<polygon fill="#1a2833" stroke="#1a2833" points="1529.9231,-22.165 1539.8573,-18.4824 1529.7948,-15.1662 1529.9231,-22.165"/>
<text text-anchor="middle" x="562.5" y="-98.5" font-family="Times,serif" font-size="10.00" fill="#767676">&gt;=5.3.0</text>
</g>
<!-- graphp/graphviz&#45;&gt;graphp/graph -->
<g id="edge7" class="edge">
<title>graphp/graphviz&#45;&gt;graphp/graph</title>
<path fill="none" stroke="#1a2833" d="M424.6263,-190.8889C412.9407,-186.0253 401.1779,-180.0962 391,-173 373.4601,-160.7708 357.6295,-142.6339 346.2245,-127.6233"/>
<polygon fill="#1a2833" stroke="#1a2833" points="348.7853,-125.1976 340.0413,-119.2148 343.1459,-129.3446 348.7853,-125.1976"/>
<text text-anchor="middle" x="449" y="-152.5" font-family="Times,serif" font-size="10.00" fill="#767676">dev&#45;master#81eef65 as 1.0.0</text>
</g>
<!-- jawira/plantuml&#45;encoding&#45;&gt;php -->
<g id="edge13" class="edge">
<title>jawira/plantuml&#45;encoding&#45;&gt;php</title>
<path fill="none" stroke="#1a2833" d="M167.5967,-298.9791C159.754,-274.0692 148.9121,-227.9998 161,-191 179.4687,-134.4695 189.1438,-113.8291 240,-83 313.4242,-38.4901 345.4949,-61.8181 431,-54 651.5107,-33.8378 1358.5196,-21.3582 1529.5079,-18.5873"/>
<polygon fill="#1a2833" stroke="#1a2833" points="1529.817,-22.0829 1539.7594,-18.4225 1529.7044,-15.0838 1529.817,-22.0829"/>
<text text-anchor="middle" x="195.5" y="-152.5" font-family="Times,serif" font-size="10.00" fill="#767676">&gt;=5.3</text>
</g>
<!-- ext&#45;zlib -->
<g id="node10" class="node">
<title>ext&#45;zlib</title>
<path fill="#eeeeee" stroke="#000000" d="M216,-227C216,-227 182,-227 182,-227 176,-227 170,-221 170,-215 170,-215 170,-203 170,-203 170,-197 176,-191 182,-191 182,-191 216,-191 216,-191 222,-191 228,-197 228,-203 228,-203 228,-215 228,-215 228,-221 222,-227 216,-227"/>
<text text-anchor="middle" x="199" y="-205.3" font-family="Times,serif" font-size="14.00" fill="#314b5f">ext&#45;zlib</text>
</g>
<!-- jawira/plantuml&#45;encoding&#45;&gt;ext&#45;zlib -->
<g id="edge12" class="edge">
<title>jawira/plantuml&#45;encoding&#45;&gt;ext&#45;zlib</title>
<path fill="none" stroke="#1a2833" d="M178.2409,-298.6793C182.1614,-281.7429 188.0437,-256.3311 192.5468,-236.8777"/>
<polygon fill="#1a2833" stroke="#1a2833" points="195.9763,-237.5819 194.8217,-227.0502 189.1566,-236.0032 195.9763,-237.5819"/>
<text text-anchor="middle" x="194" y="-260.5" font-family="Times,serif" font-size="10.00" fill="#767676">*</text>
</g>
<!-- psr/container&#45;&gt;php -->
<g id="edge21" class="edge">
<title>psr/container&#45;&gt;php</title>
<path fill="none" stroke="#1a2833" d="M2101.6404,-84.7455C2098.7267,-84.1236 2095.8356,-83.5375 2093,-83 1911.186,-48.5385 1690.4114,-28.1073 1604.0982,-20.9303"/>
<polygon fill="#1a2833" stroke="#1a2833" points="1604.2655,-17.4323 1594.0124,-20.1014 1603.692,-24.4088 1604.2655,-17.4323"/>
<text text-anchor="middle" x="1995.5" y="-57" font-family="Times,serif" font-size="10.00" fill="#767676">&gt;=7.4.0</text>
</g>
<!-- roave/better&#45;reflection&#45;&gt;php -->
<g id="edge28" class="edge">
<title>roave/better&#45;reflection&#45;&gt;php</title>
<path fill="none" stroke="#1a2833" d="M1087.0879,-396.5833C991.6272,-390.8431 849.9017,-375.5511 816,-335 781.4148,-293.6314 837.1577,-237.9217 872,-191 927.0114,-116.9168 940.3975,-82.9893 1028,-54 1075.3257,-38.3391 1415.8222,-23.8601 1529.8791,-19.4022"/>
<polygon fill="#1a2833" stroke="#1a2833" points="1530.0264,-22.8992 1539.8833,-19.0142 1529.7551,-15.9044 1530.0264,-22.8992"/>
<text text-anchor="middle" x="902.5" y="-206.5" font-family="Times,serif" font-size="10.00" fill="#767676">&gt;=7.4.1,&lt;7.5.0</text>
</g>
<!-- ext&#45;json -->
<g id="node13" class="node">
<title>ext&#45;json</title>
<path fill="#eeeeee" stroke="#000000" d="M1045,-335C1045,-335 1009,-335 1009,-335 1003,-335 997,-329 997,-323 997,-323 997,-311 997,-311 997,-305 1003,-299 1009,-299 1009,-299 1045,-299 1045,-299 1051,-299 1057,-305 1057,-311 1057,-311 1057,-323 1057,-323 1057,-329 1051,-335 1045,-335"/>
<text text-anchor="middle" x="1027" y="-313.3" font-family="Times,serif" font-size="14.00" fill="#314b5f">ext&#45;json</text>
</g>
<!-- roave/better&#45;reflection&#45;&gt;ext&#45;json -->
<g id="edge23" class="edge">
<title>roave/better&#45;reflection&#45;&gt;ext&#45;json</title>
<path fill="none" stroke="#1a2833" d="M1144.4522,-381.9902C1121.4547,-369.265 1090.5168,-352.146 1066.1666,-338.6722"/>
<polygon fill="#1a2833" stroke="#1a2833" points="1067.6314,-335.4826 1057.187,-333.7035 1064.2422,-341.6075 1067.6314,-335.4826"/>
<text text-anchor="middle" x="1114" y="-356" font-family="Times,serif" font-size="10.00" fill="#767676">*</text>
</g>
<!-- jetbrains/phpstorm&#45;stubs -->
<g id="node14" class="node">
<title>jetbrains/phpstorm&#45;stubs</title>
<path fill="#eeeeee" stroke="#000000" d="M1266.5,-335C1266.5,-335 1087.5,-335 1087.5,-335 1081.5,-335 1075.5,-329 1075.5,-323 1075.5,-323 1075.5,-311 1075.5,-311 1075.5,-305 1081.5,-299 1087.5,-299 1087.5,-299 1266.5,-299 1266.5,-299 1272.5,-299 1278.5,-305 1278.5,-311 1278.5,-311 1278.5,-323 1278.5,-323 1278.5,-329 1272.5,-335 1266.5,-335"/>
<text text-anchor="middle" x="1177" y="-313.3" font-family="Times,serif" font-size="14.00" fill="#314b5f">jetbrains/phpstorm&#45;stubs: v2019.3</text>
</g>
<!-- roave/better&#45;reflection&#45;&gt;jetbrains/phpstorm&#45;stubs -->
<g id="edge24" class="edge">
<title>roave/better&#45;reflection&#45;&gt;jetbrains/phpstorm&#45;stubs</title>
<path fill="none" stroke="#1a2833" d="M1177,-381.9902C1177,-371.2963 1177,-357.4994 1177,-345.3706"/>
<polygon fill="#1a2833" stroke="#1a2833" points="1180.5001,-345.2612 1177,-335.2612 1173.5001,-345.2613 1180.5001,-345.2612"/>
<text text-anchor="middle" x="1191.5" y="-356" font-family="Times,serif" font-size="10.00" fill="#767676">2019.3</text>
</g>
<!-- nikic/php&#45;parser -->
<g id="node15" class="node">
<title>nikic/php&#45;parser</title>
<path fill="#eeeeee" stroke="#000000" d="M967,-335C967,-335 837,-335 837,-335 831,-335 825,-329 825,-323 825,-323 825,-311 825,-311 825,-305 831,-299 837,-299 837,-299 967,-299 967,-299 973,-299 979,-305 979,-311 979,-311 979,-323 979,-323 979,-329 973,-335 967,-335"/>
<text text-anchor="middle" x="902" y="-313.3" font-family="Times,serif" font-size="14.00" fill="#314b5f">nikic/php&#45;parser: v4.13.2</text>
</g>
<!-- roave/better&#45;reflection&#45;&gt;nikic/php&#45;parser -->
<g id="edge27" class="edge">
<title>roave/better&#45;reflection&#45;&gt;nikic/php&#45;parser</title>
<path fill="none" stroke="#1a2833" d="M1117.3291,-381.9902C1074.5027,-369.0645 1016.6567,-351.6055 971.7045,-338.0381"/>
<polygon fill="#1a2833" stroke="#1a2833" points="972.6135,-334.6565 962.0287,-335.1177 970.5908,-341.358 972.6135,-334.6565"/>
<text text-anchor="middle" x="1068.5" y="-356" font-family="Times,serif" font-size="10.00" fill="#767676">^4.6.0</text>
</g>
<!-- phpdocumentor/reflection&#45;docblock -->
<g id="node17" class="node">
<title>phpdocumentor/reflection&#45;docblock</title>
<path fill="#eeeeee" stroke="#000000" d="M1593.5,-335C1593.5,-335 1370.5,-335 1370.5,-335 1364.5,-335 1358.5,-329 1358.5,-323 1358.5,-323 1358.5,-311 1358.5,-311 1358.5,-305 1364.5,-299 1370.5,-299 1370.5,-299 1593.5,-299 1593.5,-299 1599.5,-299 1605.5,-305 1605.5,-311 1605.5,-311 1605.5,-323 1605.5,-323 1605.5,-329 1599.5,-335 1593.5,-335"/>
<text text-anchor="middle" x="1482" y="-313.3" font-family="Times,serif" font-size="14.00" fill="#314b5f">phpdocumentor/reflection&#45;docblock: 5.3.0</text>
</g>
<!-- roave/better&#45;reflection&#45;&gt;phpdocumentor/reflection&#45;docblock -->
<g id="edge40" class="edge">
<title>roave/better&#45;reflection&#45;&gt;phpdocumentor/reflection&#45;docblock</title>
<path fill="none" stroke="#1a2833" d="M1257.7111,-381.9215C1280.8125,-376.4665 1305.9703,-370.2572 1329,-364 1357.8978,-356.1484 1389.5786,-346.5785 1416.5785,-338.1283"/>
<polygon fill="#1a2833" stroke="#1a2833" points="1417.8108,-341.4098 1426.3002,-335.071 1415.7108,-334.7322 1417.8108,-341.4098"/>
<text text-anchor="middle" x="1380.5" y="-356" font-family="Times,serif" font-size="10.00" fill="#767676">^5.2.2</text>
</g>
<!-- phpdocumentor/type&#45;resolver -->
<g id="node20" class="node">
<title>phpdocumentor/type&#45;resolver</title>
<path fill="#eeeeee" stroke="#000000" d="M1293,-227C1293,-227 1105,-227 1105,-227 1099,-227 1093,-221 1093,-215 1093,-215 1093,-203 1093,-203 1093,-197 1099,-191 1105,-191 1105,-191 1293,-191 1293,-191 1299,-191 1305,-197 1305,-203 1305,-203 1305,-215 1305,-215 1305,-221 1299,-227 1293,-227"/>
<text text-anchor="middle" x="1199" y="-205.3" font-family="Times,serif" font-size="14.00" fill="#314b5f">phpdocumentor/type&#45;resolver: 1.5.1</text>
</g>
<!-- roave/better&#45;reflection&#45;&gt;phpdocumentor/type&#45;resolver -->
<g id="edge41" class="edge">
<title>roave/better&#45;reflection&#45;&gt;phpdocumentor/type&#45;resolver</title>
<path fill="none" stroke="#1a2833" d="M1230.571,-381.9203C1252.0931,-371.7167 1274.6869,-356.5781 1287,-335 1308.2121,-297.8268 1268.292,-257.7691 1235.5208,-233.0363"/>
<polygon fill="#1a2833" stroke="#1a2833" points="1237.5235,-230.1648 1227.3848,-227.0895 1233.3928,-235.8162 1237.5235,-230.1648"/>
<text text-anchor="middle" x="1305.5" y="-314.5" font-family="Times,serif" font-size="10.00" fill="#767676">^1.4.0</text>
</g>
<!-- roave/signature -->
<g id="node23" class="node">
<title>roave/signature</title>
<path fill="#eeeeee" stroke="#000000" d="M1607.5,-281C1607.5,-281 1496.5,-281 1496.5,-281 1490.5,-281 1484.5,-275 1484.5,-269 1484.5,-269 1484.5,-257 1484.5,-257 1484.5,-251 1490.5,-245 1496.5,-245 1496.5,-245 1607.5,-245 1607.5,-245 1613.5,-245 1619.5,-251 1619.5,-257 1619.5,-257 1619.5,-269 1619.5,-269 1619.5,-275 1613.5,-281 1607.5,-281"/>
<text text-anchor="middle" x="1552" y="-259.3" font-family="Times,serif" font-size="14.00" fill="#314b5f">roave/signature: 1.5.0</text>
</g>
<!-- roave/better&#45;reflection&#45;&gt;roave/signature -->
<g id="edge43" class="edge">
<title>roave/better&#45;reflection&#45;&gt;roave/signature</title>
<path fill="none" stroke="#1a2833" d="M1266.5013,-392.8849C1387.7209,-382.3269 1591.6323,-360.9408 1614,-335 1624.4484,-322.8826 1621.9829,-312.8663 1614,-299 1611.5295,-294.7088 1608.3297,-290.882 1604.6869,-287.4788"/>
<polygon fill="#1a2833" stroke="#1a2833" points="1606.6748,-284.5871 1596.6789,-281.0752 1602.3031,-290.0541 1606.6748,-284.5871"/>
<text text-anchor="middle" x="1578" y="-356" font-family="Times,serif" font-size="10.00" fill="#767676">^1.3</text>
</g>
<!-- nikic/php&#45;parser&#45;&gt;php -->
<g id="edge26" class="edge">
<title>nikic/php&#45;parser&#45;&gt;php</title>
<path fill="none" stroke="#1a2833" d="M908.5224,-298.979C926.4445,-250.1831 977.2167,-116.884 1009,-83 1027.6372,-63.131 1036.8346,-61.5827 1063,-54 1150.683,-28.5896 1428.9376,-20.7014 1529.9258,-18.64"/>
<polygon fill="#1a2833" stroke="#1a2833" points="1530.036,-22.1386 1539.9652,-18.4425 1529.8982,-15.14 1530.036,-22.1386"/>
<text text-anchor="middle" x="988.5" y="-152.5" font-family="Times,serif" font-size="10.00" fill="#767676">&gt;=7.0</text>
</g>
<!-- ext&#45;tokenizer -->
<g id="node16" class="node">
<title>ext&#45;tokenizer</title>
<path fill="#eeeeee" stroke="#000000" d="M1063,-227C1063,-227 999,-227 999,-227 993,-227 987,-221 987,-215 987,-215 987,-203 987,-203 987,-197 993,-191 999,-191 999,-191 1063,-191 1063,-191 1069,-191 1075,-197 1075,-203 1075,-203 1075,-215 1075,-215 1075,-221 1069,-227 1063,-227"/>
<text text-anchor="middle" x="1031" y="-205.3" font-family="Times,serif" font-size="14.00" fill="#314b5f">ext&#45;tokenizer</text>
</g>
<!-- nikic/php&#45;parser&#45;&gt;ext&#45;tokenizer -->
<g id="edge25" class="edge">
<title>nikic/php&#45;parser&#45;&gt;ext&#45;tokenizer</title>
<path fill="none" stroke="#1a2833" d="M945.0951,-298.8325C954.7615,-293.7795 964.6244,-287.7865 973,-281 988.9505,-268.0758 1003.4402,-250.0941 1013.9474,-235.3343"/>
<polygon fill="#1a2833" stroke="#1a2833" points="1016.8469,-237.2949 1019.6546,-227.0789 1011.0889,-233.3142 1016.8469,-237.2949"/>
<text text-anchor="middle" x="1009" y="-260.5" font-family="Times,serif" font-size="10.00" fill="#767676">*</text>
</g>
<!-- phpdocumentor/reflection&#45;docblock&#45;&gt;php -->
<g id="edge30" class="edge">
<title>phpdocumentor/reflection&#45;docblock&#45;&gt;php</title>
<path fill="none" stroke="#1a2833" d="M1482.7963,-298.6129C1482.9173,-271.0842 1478.8171,-219.3672 1449,-191 1420.7079,-164.0836 1387.6225,-203.3096 1363,-173 1352.9115,-160.5814 1356.6779,-151.698 1363,-137 1391.8739,-69.872 1479.4166,-38.535 1529.946,-25.6898"/>
<polygon fill="#1a2833" stroke="#1a2833" points="1530.9377,-29.0508 1539.8311,-23.2926 1529.2879,-22.248 1530.9377,-29.0508"/>
<text text-anchor="middle" x="1385" y="-152.5" font-family="Times,serif" font-size="10.00" fill="#767676">^7.2 || ^8.0</text>
</g>
<!-- ext&#45;filter -->
<g id="node18" class="node">
<title>ext&#45;filter</title>
<path fill="#eeeeee" stroke="#000000" d="M1375,-227C1375,-227 1335,-227 1335,-227 1329,-227 1323,-221 1323,-215 1323,-215 1323,-203 1323,-203 1323,-197 1329,-191 1335,-191 1335,-191 1375,-191 1375,-191 1381,-191 1387,-197 1387,-203 1387,-203 1387,-215 1387,-215 1387,-221 1381,-227 1375,-227"/>
<text text-anchor="middle" x="1355" y="-205.3" font-family="Times,serif" font-size="14.00" fill="#314b5f">ext&#45;filter</text>
</g>
<!-- phpdocumentor/reflection&#45;docblock&#45;&gt;ext&#45;filter -->
<g id="edge29" class="edge">
<title>phpdocumentor/reflection&#45;docblock&#45;&gt;ext&#45;filter</title>
<path fill="none" stroke="#1a2833" d="M1431.0391,-298.8425C1421.1281,-293.959 1411.2637,-288.034 1403,-281 1388.5481,-268.6986 1376.6708,-251.0051 1368.3463,-236.2367"/>
<polygon fill="#1a2833" stroke="#1a2833" points="1371.2183,-234.1877 1363.3976,-227.0402 1365.0541,-237.5047 1371.2183,-234.1877"/>
<text text-anchor="middle" x="1406" y="-260.5" font-family="Times,serif" font-size="10.00" fill="#767676">*</text>
</g>
<!-- phpdocumentor/reflection&#45;common -->
<g id="node19" class="node">
<title>phpdocumentor/reflection&#45;common</title>
<path fill="#eeeeee" stroke="#000000" d="M1310,-119C1310,-119 1088,-119 1088,-119 1082,-119 1076,-113 1076,-107 1076,-107 1076,-95 1076,-95 1076,-89 1082,-83 1088,-83 1088,-83 1310,-83 1310,-83 1316,-83 1322,-89 1322,-95 1322,-95 1322,-107 1322,-107 1322,-113 1316,-119 1310,-119"/>
<text text-anchor="middle" x="1199" y="-97.3" font-family="Times,serif" font-size="14.00" fill="#314b5f">phpdocumentor/reflection&#45;common: 2.2.0</text>
</g>
<!-- phpdocumentor/reflection&#45;docblock&#45;&gt;phpdocumentor/reflection&#45;common -->
<g id="edge32" class="edge">
<title>phpdocumentor/reflection&#45;docblock&#45;&gt;phpdocumentor/reflection&#45;common</title>
<path fill="none" stroke="#1a2833" d="M1468.038,-298.8502C1463.7768,-293.1876 1459.1286,-286.8834 1455,-281 1427.5265,-241.8489 1434.6375,-219.1913 1396,-191 1371.7845,-173.3315 1358.7846,-184.2509 1331,-173 1297.7768,-159.5469 1262.218,-139.8116 1236.3872,-124.4037"/>
<polygon fill="#1a2833" stroke="#1a2833" points="1238.0471,-121.3175 1227.676,-119.1515 1234.4328,-127.3123 1238.0471,-121.3175"/>
<text text-anchor="middle" x="1436" y="-206.5" font-family="Times,serif" font-size="10.00" fill="#767676">^2.2</text>
</g>
<!-- phpdocumentor/reflection&#45;docblock&#45;&gt;phpdocumentor/type&#45;resolver -->
<g id="edge35" class="edge">
<title>phpdocumentor/reflection&#45;docblock&#45;&gt;phpdocumentor/type&#45;resolver</title>
<path fill="none" stroke="#1a2833" d="M1388.835,-298.9957C1376.1859,-294.3102 1363.8446,-288.4148 1353,-281 1336.4901,-269.7118 1342.4868,-256.3218 1326,-245 1317.9238,-239.4539 1309.0033,-234.7562 1299.7458,-230.7782"/>
<polygon fill="#1a2833" stroke="#1a2833" points="1300.9793,-227.502 1290.3947,-227.0354 1298.3781,-234.0008 1300.9793,-227.502"/>
<text text-anchor="middle" x="1362" y="-260.5" font-family="Times,serif" font-size="10.00" fill="#767676">^1.3</text>
</g>
<!-- webmozart/assert -->
<g id="node21" class="node">
<title>webmozart/assert</title>
<path fill="#eeeeee" stroke="#000000" d="M1677,-227C1677,-227 1547,-227 1547,-227 1541,-227 1535,-221 1535,-215 1535,-215 1535,-203 1535,-203 1535,-197 1541,-191 1547,-191 1547,-191 1677,-191 1677,-191 1683,-191 1689,-197 1689,-203 1689,-203 1689,-215 1689,-215 1689,-221 1683,-227 1677,-227"/>
<text text-anchor="middle" x="1612" y="-205.3" font-family="Times,serif" font-size="14.00" fill="#314b5f">webmozart/assert: 1.10.0</text>
</g>
<!-- phpdocumentor/reflection&#45;docblock&#45;&gt;webmozart/assert -->
<g id="edge39" class="edge">
<title>phpdocumentor/reflection&#45;docblock&#45;&gt;webmozart/assert</title>
<path fill="none" stroke="#1a2833" d="M1585.6865,-298.9397C1602.1089,-294.0492 1615.5071,-288.0967 1621,-281 1630.5851,-268.6161 1628.739,-251.2815 1624.3034,-236.7245"/>
<polygon fill="#1a2833" stroke="#1a2833" points="1627.5633,-235.4446 1620.9276,-227.1852 1620.9643,-237.78 1627.5633,-235.4446"/>
<text text-anchor="middle" x="1640.5" y="-260.5" font-family="Times,serif" font-size="10.00" fill="#767676">^1.9.1</text>
</g>
<!-- phpdocumentor/reflection&#45;common&#45;&gt;php -->
<g id="edge31" class="edge">
<title>phpdocumentor/reflection&#45;common&#45;&gt;php</title>
<path fill="none" stroke="#1a2833" d="M1228.4896,-82.8517C1246.2585,-72.756 1269.6989,-60.8754 1292,-54 1335.5868,-40.5622 1465.2715,-27.2974 1529.749,-21.3091"/>
<polygon fill="#1a2833" stroke="#1a2833" points="1530.2472,-24.7781 1539.885,-20.3779 1529.6067,-17.8075 1530.2472,-24.7781"/>
<text text-anchor="middle" x="1314" y="-57" font-family="Times,serif" font-size="10.00" fill="#767676">^7.2 || ^8.0</text>
</g>
<!-- phpdocumentor/type&#45;resolver&#45;&gt;php -->
<g id="edge33" class="edge">
<title>phpdocumentor/type&#45;resolver&#45;&gt;php</title>
<path fill="none" stroke="#1a2833" d="M1134.884,-190.9338C1068.9603,-169.2799 981.3829,-129.9721 1023,-83 1056.6419,-45.0293 1412.0131,-25.2034 1529.5179,-19.6502"/>
<polygon fill="#1a2833" stroke="#1a2833" points="1529.9837,-23.1324 1539.8103,-19.1717 1529.6586,-16.1399 1529.9837,-23.1324"/>
<text text-anchor="middle" x="1045" y="-98.5" font-family="Times,serif" font-size="10.00" fill="#767676">^7.2 || ^8.0</text>
</g>
<!-- phpdocumentor/type&#45;resolver&#45;&gt;phpdocumentor/reflection&#45;common -->
<g id="edge34" class="edge">
<title>phpdocumentor/type&#45;resolver&#45;&gt;phpdocumentor/reflection&#45;common</title>
<path fill="none" stroke="#1a2833" d="M1199,-190.6793C1199,-173.821 1199,-148.5651 1199,-129.147"/>
<polygon fill="#1a2833" stroke="#1a2833" points="1202.5001,-129.0501 1199,-119.0502 1195.5001,-129.0502 1202.5001,-129.0501"/>
<text text-anchor="middle" x="1208" y="-152.5" font-family="Times,serif" font-size="10.00" fill="#767676">^2.0</text>
</g>
<!-- webmozart/assert&#45;&gt;php -->
<g id="edge36" class="edge">
<title>webmozart/assert&#45;&gt;php</title>
<path fill="none" stroke="#1a2833" d="M1547.8346,-190.9545C1536.313,-186.1466 1524.8513,-180.2215 1515,-173 1508.8696,-168.5061 1475.4669,-126.1897 1473,-119 1467.8074,-103.866 1465.5704,-97.1704 1473,-83 1485.1989,-59.7332 1509.9248,-43.1461 1530.9561,-32.5531"/>
<polygon fill="#1a2833" stroke="#1a2833" points="1532.4775,-35.7052 1539.9975,-28.242 1529.4647,-29.3867 1532.4775,-35.7052"/>
<text text-anchor="middle" x="1495" y="-98.5" font-family="Times,serif" font-size="10.00" fill="#767676">^7.2 || ^8.0</text>
</g>
<!-- symfony/polyfill&#45;ctype -->
<g id="node22" class="node">
<title>symfony/polyfill&#45;ctype</title>
<path fill="#eeeeee" stroke="#000000" d="M1843.5,-119C1843.5,-119 1676.5,-119 1676.5,-119 1670.5,-119 1664.5,-113 1664.5,-107 1664.5,-107 1664.5,-95 1664.5,-95 1664.5,-89 1670.5,-83 1676.5,-83 1676.5,-83 1843.5,-83 1843.5,-83 1849.5,-83 1855.5,-89 1855.5,-95 1855.5,-95 1855.5,-107 1855.5,-107 1855.5,-113 1849.5,-119 1843.5,-119"/>
<text text-anchor="middle" x="1760" y="-97.3" font-family="Times,serif" font-size="14.00" fill="#314b5f">symfony/polyfill&#45;ctype: v1.23.0</text>
</g>
<!-- webmozart/assert&#45;&gt;symfony/polyfill&#45;ctype -->
<g id="edge38" class="edge">
<title>webmozart/assert&#45;&gt;symfony/polyfill&#45;ctype</title>
<path fill="none" stroke="#1a2833" d="M1545.3243,-190.9774C1537.7143,-186.2996 1530.932,-180.4112 1526,-173 1517.1358,-159.6799 1515.5304,-149.0991 1526,-137 1544.2199,-115.9443 1622.4817,-123.2484 1650,-119 1651.4642,-118.7739 1652.9393,-118.5453 1654.4232,-118.3145"/>
<polygon fill="#1a2833" stroke="#1a2833" points="1654.9872,-121.7689 1664.3245,-116.7623 1653.9031,-114.8533 1654.9872,-121.7689"/>
<text text-anchor="middle" x="1535" y="-152.5" font-family="Times,serif" font-size="10.00" fill="#767676">^1.8</text>
</g>
<!-- symfony/polyfill&#45;ctype&#45;&gt;php -->
<g id="edge37" class="edge">
<title>symfony/polyfill&#45;ctype&#45;&gt;php</title>
<path fill="none" stroke="#1a2833" d="M1718.1219,-82.9902C1683.9153,-68.2796 1636.0555,-47.6974 1603.4202,-33.6626"/>
<polygon fill="#1a2833" stroke="#1a2833" points="1604.7978,-30.4451 1594.2285,-29.7097 1602.0323,-36.8757 1604.7978,-30.4451"/>
<text text-anchor="middle" x="1688.5" y="-57" font-family="Times,serif" font-size="10.00" fill="#767676">&gt;=7.1</text>
</g>
<!-- roave/signature&#45;&gt;php -->
<g id="edge42" class="edge">
<title>roave/signature&#45;&gt;php</title>
<path fill="none" stroke="#1a2833" d="M1539.2785,-244.9229C1526.7792,-228.4864 1506.2408,-204.7601 1483,-191 1456.4679,-175.2913 1434.7623,-197.4682 1416,-173 1406.264,-160.3031 1410.6707,-152.0864 1416,-137 1431.7905,-92.2992 1445.21,-82.6255 1483,-54 1497.0059,-43.3906 1514.6133,-35.2235 1530.0854,-29.371"/>
<polygon fill="#1a2833" stroke="#1a2833" points="1531.6534,-32.527 1539.885,-25.8568 1529.2905,-25.9378 1531.6534,-32.527"/>
<text text-anchor="middle" x="1449" y="-152.5" font-family="Times,serif" font-size="10.00" fill="#767676">7.4.*|8.0.*|8.1.*</text>
</g>
<!-- symfony/config&#45;&gt;php -->
<g id="edge45" class="edge">
<title>symfony/config&#45;&gt;php</title>
<path fill="none" stroke="#1a2833" d="M1812.4648,-298.7129C1796.3987,-253.97 1755.7848,-142.2374 1749,-137 1693.7523,-94.3525 1645.6153,-164.8556 1593,-119 1572.4963,-101.1305 1567.1027,-69.4581 1566.1463,-46.3331"/>
<polygon fill="#1a2833" stroke="#1a2833" points="1569.6418,-46.0211 1565.9833,-36.078 1562.6427,-46.1323 1569.6418,-46.0211"/>
<text text-anchor="middle" x="1782.5" y="-152.5" font-family="Times,serif" font-size="10.00" fill="#767676">&gt;=7.2.5</text>
</g>
<!-- symfony/config&#45;&gt;symfony/polyfill&#45;ctype -->
<g id="edge55" class="edge">
<title>symfony/config&#45;&gt;symfony/polyfill&#45;ctype</title>
<path fill="none" stroke="#1a2833" d="M1822.0915,-298.848C1826.9524,-264.8446 1833.1548,-190.1891 1805,-137 1802.8893,-133.0126 1800.126,-129.3129 1797.0054,-125.9233"/>
<polygon fill="#1a2833" stroke="#1a2833" points="1799.3807,-123.3523 1789.7179,-119.007 1794.5619,-128.4297 1799.3807,-123.3523"/>
<text text-anchor="middle" x="1835.5" y="-206.5" font-family="Times,serif" font-size="10.00" fill="#767676">~1.8</text>
</g>
<!-- symfony/deprecation&#45;contracts -->
<g id="node25" class="node">
<title>symfony/deprecation&#45;contracts</title>
<path fill="#eeeeee" stroke="#000000" d="M3364.5,-119C3364.5,-119 3161.5,-119 3161.5,-119 3155.5,-119 3149.5,-113 3149.5,-107 3149.5,-107 3149.5,-95 3149.5,-95 3149.5,-89 3155.5,-83 3161.5,-83 3161.5,-83 3364.5,-83 3364.5,-83 3370.5,-83 3376.5,-89 3376.5,-95 3376.5,-95 3376.5,-107 3376.5,-107 3376.5,-113 3370.5,-119 3364.5,-119"/>
<text text-anchor="middle" x="3263" y="-97.3" font-family="Times,serif" font-size="14.00" fill="#314b5f">symfony/deprecation&#45;contracts: v2.5.0</text>
</g>
<!-- symfony/config&#45;&gt;symfony/deprecation&#45;contracts -->
<g id="edge47" class="edge">
<title>symfony/config&#45;&gt;symfony/deprecation&#45;contracts</title>
<path fill="none" stroke="#1a2833" d="M1891.5945,-308.0018C2012.3166,-293.2671 2262.0441,-263.7589 2474,-245 2533.4573,-239.7378 2685.9697,-247.5784 2742,-227 2779.8823,-213.0869 2786.1212,-201.1897 2815,-173 2829.5049,-158.8412 2825.0692,-146.4525 2843,-137 2870.4178,-122.5463 3078.559,-122.3583 3139.3526,-118.7479"/>
<polygon fill="#1a2833" stroke="#1a2833" points="3139.7459,-122.2281 3149.4495,-117.975 3139.2115,-115.2486 3139.7459,-122.2281"/>
<text text-anchor="middle" x="2812" y="-206.5" font-family="Times,serif" font-size="10.00" fill="#767676">^2.1|^3</text>
</g>
<!-- symfony/filesystem -->
<g id="node26" class="node">
<title>symfony/filesystem</title>
<path fill="#eeeeee" stroke="#000000" d="M2010.5,-227C2010.5,-227 1867.5,-227 1867.5,-227 1861.5,-227 1855.5,-221 1855.5,-215 1855.5,-215 1855.5,-203 1855.5,-203 1855.5,-197 1861.5,-191 1867.5,-191 1867.5,-191 2010.5,-191 2010.5,-191 2016.5,-191 2022.5,-197 2022.5,-203 2022.5,-203 2022.5,-215 2022.5,-215 2022.5,-221 2016.5,-227 2010.5,-227"/>
<text text-anchor="middle" x="1939" y="-205.3" font-family="Times,serif" font-size="14.00" fill="#314b5f">symfony/filesystem: v5.4.0</text>
</g>
<!-- symfony/config&#45;&gt;symfony/filesystem -->
<g id="edge54" class="edge">
<title>symfony/config&#45;&gt;symfony/filesystem</title>
<path fill="none" stroke="#1a2833" d="M1839.0853,-298.9232C1858.8138,-281.1676 1889.0792,-253.9287 1911.1311,-234.082"/>
<polygon fill="#1a2833" stroke="#1a2833" points="1913.7576,-236.427 1918.8492,-227.1357 1909.0748,-231.2239 1913.7576,-236.427"/>
<text text-anchor="middle" x="1925.5" y="-260.5" font-family="Times,serif" font-size="10.00" fill="#767676">^4.4|^5.0|^6.0</text>
</g>
<!-- symfony/polyfill&#45;php80 -->
<g id="node28" class="node">
<title>symfony/polyfill&#45;php80</title>
<path fill="#eeeeee" stroke="#000000" d="M2532.5,-119C2532.5,-119 2361.5,-119 2361.5,-119 2355.5,-119 2349.5,-113 2349.5,-107 2349.5,-107 2349.5,-95 2349.5,-95 2349.5,-89 2355.5,-83 2361.5,-83 2361.5,-83 2532.5,-83 2532.5,-83 2538.5,-83 2544.5,-89 2544.5,-95 2544.5,-95 2544.5,-107 2544.5,-107 2544.5,-113 2538.5,-119 2532.5,-119"/>
<text text-anchor="middle" x="2447" y="-97.3" font-family="Times,serif" font-size="14.00" fill="#314b5f">symfony/polyfill&#45;php80: v1.23.1</text>
</g>
<!-- symfony/config&#45;&gt;symfony/polyfill&#45;php80 -->
<g id="edge56" class="edge">
<title>symfony/config&#45;&gt;symfony/polyfill&#45;php80</title>
<path fill="none" stroke="#1a2833" d="M1890.1602,-298.933C1911.9591,-293.3009 1935.9921,-286.9929 1958,-281 2098.4867,-242.7443 2131.5721,-225.6144 2273,-191 2311.7764,-181.5095 2327.0872,-194.0618 2361,-173 2378.2192,-162.3059 2373.931,-150.5569 2389,-137 2393.799,-132.6825 2399.1816,-128.5726 2404.6821,-124.7773"/>
<polygon fill="#1a2833" stroke="#1a2833" points="2406.914,-127.4991 2413.3559,-119.0876 2403.0746,-121.6459 2406.914,-127.4991"/>
<text text-anchor="middle" x="2284.5" y="-206.5" font-family="Times,serif" font-size="10.00" fill="#767676">^1.16</text>
</g>
<!-- symfony/polyfill&#45;php81 -->
<g id="node29" class="node">
<title>symfony/polyfill&#45;php81</title>
<path fill="#eeeeee" stroke="#000000" d="M1736.5,-173C1736.5,-173 1565.5,-173 1565.5,-173 1559.5,-173 1553.5,-167 1553.5,-161 1553.5,-161 1553.5,-149 1553.5,-149 1553.5,-143 1559.5,-137 1565.5,-137 1565.5,-137 1736.5,-137 1736.5,-137 1742.5,-137 1748.5,-143 1748.5,-149 1748.5,-149 1748.5,-161 1748.5,-161 1748.5,-167 1742.5,-173 1736.5,-173"/>
<text text-anchor="middle" x="1651" y="-151.3" font-family="Times,serif" font-size="14.00" fill="#314b5f">symfony/polyfill&#45;php81: v1.23.0</text>
</g>
<!-- symfony/config&#45;&gt;symfony/polyfill&#45;php81 -->
<g id="edge58" class="edge">
<title>symfony/config&#45;&gt;symfony/polyfill&#45;php81</title>
<path fill="none" stroke="#1a2833" d="M1759.3961,-298.9861C1750.0813,-294.2376 1741.1792,-288.3251 1734,-281 1703.8449,-250.232 1724.0322,-225.3267 1698,-191 1695.0499,-187.1099 1691.5765,-183.424 1687.8755,-180.0005"/>
<polygon fill="#1a2833" stroke="#1a2833" points="1689.9423,-177.164 1680.0538,-173.3603 1685.412,-182.5003 1689.9423,-177.164"/>
<text text-anchor="middle" x="1745.5" y="-260.5" font-family="Times,serif" font-size="10.00" fill="#767676">^1.22</text>
</g>
<!-- symfony/deprecation&#45;contracts&#45;&gt;php -->
<g id="edge46" class="edge">
<title>symfony/deprecation&#45;contracts&#45;&gt;php</title>
<path fill="none" stroke="#1a2833" d="M3158.9456,-82.987C3094.1612,-72.5673 3008.9825,-60.3034 2933,-54 2664.128,-31.6947 1794.7217,-20.6068 1604.1472,-18.4111"/>
<polygon fill="#1a2833" stroke="#1a2833" points="1604.1143,-14.9106 1594.075,-18.2961 1604.0343,-21.9102 1604.1143,-14.9106"/>
<text text-anchor="middle" x="3045.5" y="-57" font-family="Times,serif" font-size="10.00" fill="#767676">&gt;=7.1</text>
</g>
<!-- symfony/filesystem&#45;&gt;php -->
<g id="edge48" class="edge">
<title>symfony/filesystem&#45;&gt;php</title>
<path fill="none" stroke="#1a2833" d="M1894.0443,-190.9878C1882.085,-185.6687 1869.3442,-179.5122 1858,-173 1834.2518,-159.3673 1833.6252,-146.6527 1808,-137 1769.1392,-122.3617 1656.6369,-141.9069 1622,-119 1608.577,-110.1228 1590.2502,-72.3768 1578.518,-45.6394"/>
<polygon fill="#1a2833" stroke="#1a2833" points="1581.6901,-44.1564 1574.5153,-36.3607 1575.2626,-46.9292 1581.6901,-44.1564"/>
<text text-anchor="middle" x="1638.5" y="-98.5" font-family="Times,serif" font-size="10.00" fill="#767676">&gt;=7.2.5</text>
</g>
<!-- symfony/filesystem&#45;&gt;symfony/polyfill&#45;ctype -->
<g id="edge49" class="edge">
<title>symfony/filesystem&#45;&gt;symfony/polyfill&#45;ctype</title>
<path fill="none" stroke="#1a2833" d="M1922.5108,-190.905C1907.1239,-174.9133 1882.862,-151.8808 1858,-137 1849.1606,-131.7093 1839.4156,-126.9933 1829.6029,-122.8577"/>
<polygon fill="#1a2833" stroke="#1a2833" points="1830.785,-119.5606 1820.2015,-119.0706 1828.1694,-126.0536 1830.785,-119.5606"/>
<text text-anchor="middle" x="1912.5" y="-152.5" font-family="Times,serif" font-size="10.00" fill="#767676">~1.8</text>
</g>
<!-- symfony/polyfill&#45;mbstring -->
<g id="node27" class="node">
<title>symfony/polyfill&#45;mbstring</title>
<path fill="#eeeeee" stroke="#000000" d="M2072,-119C2072,-119 1886,-119 1886,-119 1880,-119 1874,-113 1874,-107 1874,-107 1874,-95 1874,-95 1874,-89 1880,-83 1886,-83 1886,-83 2072,-83 2072,-83 2078,-83 2084,-89 2084,-95 2084,-95 2084,-107 2084,-107 2084,-113 2078,-119 2072,-119"/>
<text text-anchor="middle" x="1979" y="-97.3" font-family="Times,serif" font-size="14.00" fill="#314b5f">symfony/polyfill&#45;mbstring: v1.23.1</text>
</g>
<!-- symfony/filesystem&#45;&gt;symfony/polyfill&#45;mbstring -->
<g id="edge51" class="edge">
<title>symfony/filesystem&#45;&gt;symfony/polyfill&#45;mbstring</title>
<path fill="none" stroke="#1a2833" d="M1945.7855,-190.6793C1952.0871,-173.6649 1961.5568,-148.0967 1968.7744,-128.6091"/>
<polygon fill="#1a2833" stroke="#1a2833" points="1972.1237,-129.6433 1972.3148,-119.0502 1965.5594,-127.212 1972.1237,-129.6433"/>
<text text-anchor="middle" x="1974.5" y="-152.5" font-family="Times,serif" font-size="10.00" fill="#767676">~1.8</text>
</g>
<!-- symfony/filesystem&#45;&gt;symfony/polyfill&#45;php80 -->
<g id="edge53" class="edge">
<title>symfony/filesystem&#45;&gt;symfony/polyfill&#45;php80</title>
<path fill="none" stroke="#1a2833" d="M2022.5674,-195.8146C2035.4178,-194.0349 2048.549,-192.3577 2061,-191 2117.2525,-184.8659 2266.3645,-201.9233 2315,-173 2331.319,-163.2952 2323.0081,-148.6506 2338,-137 2344.8599,-131.669 2352.5443,-127.1097 2360.5734,-123.2138"/>
<polygon fill="#1a2833" stroke="#1a2833" points="2362.0691,-126.379 2369.7595,-119.0914 2359.203,-119.9926 2362.0691,-126.379"/>
<text text-anchor="middle" x="2349.5" y="-152.5" font-family="Times,serif" font-size="10.00" fill="#767676">^1.16</text>
</g>
<!-- symfony/polyfill&#45;mbstring&#45;&gt;php -->
<g id="edge50" class="edge">
<title>symfony/polyfill&#45;mbstring&#45;&gt;php</title>
<path fill="none" stroke="#1a2833" d="M1889.6021,-82.9902C1800.6008,-65.0604 1668.3015,-38.4078 1604.3244,-25.5192"/>
<polygon fill="#1a2833" stroke="#1a2833" points="1604.7884,-22.0425 1594.2941,-23.4986 1603.4059,-28.9046 1604.7884,-22.0425"/>
<text text-anchor="middle" x="1810.5" y="-57" font-family="Times,serif" font-size="10.00" fill="#767676">&gt;=7.1</text>
</g>
<!-- symfony/polyfill&#45;php80&#45;&gt;php -->
<g id="edge52" class="edge">
<title>symfony/polyfill&#45;php80&#45;&gt;php</title>
<path fill="none" stroke="#1a2833" d="M2405.2984,-82.9933C2379.0464,-72.5409 2344.159,-60.24 2312,-54 2174.2911,-27.2795 1736.0571,-20.0019 1604.6179,-18.3961"/>
<polygon fill="#1a2833" stroke="#1a2833" points="1604.3143,-14.8924 1594.2736,-18.2739 1604.2315,-21.8919 1604.3143,-14.8924"/>
<text text-anchor="middle" x="2365.5" y="-57" font-family="Times,serif" font-size="10.00" fill="#767676">&gt;=7.1</text>
</g>
<!-- symfony/polyfill&#45;php81&#45;&gt;php -->
<g id="edge57" class="edge">
<title>symfony/polyfill&#45;php81&#45;&gt;php</title>
<path fill="none" stroke="#1a2833" d="M1562.5334,-136.9642C1546.4823,-131.9215 1533.1699,-125.8999 1528,-119 1511.1844,-96.5573 1527.2151,-65.969 1543.5184,-44.3521"/>
<polygon fill="#1a2833" stroke="#1a2833" points="1546.4688,-46.2649 1549.949,-36.2579 1540.988,-41.9105 1546.4688,-46.2649"/>
<text text-anchor="middle" x="1540.5" y="-98.5" font-family="Times,serif" font-size="10.00" fill="#767676">&gt;=7.1</text>
</g>
<!-- symfony/console&#45;&gt;php -->
<g id="edge60" class="edge">
<title>symfony/console&#45;&gt;php</title>
<path fill="none" stroke="#1a2833" d="M2459.6629,-298.9456C2412.5909,-283.7464 2347.5235,-259.3083 2296,-227 2265.8839,-208.1154 2252.0449,-205.2064 2237,-173 2220.0538,-136.7235 2260.033,-112.536 2233,-83 2190.3294,-36.3784 1738.9855,-22.0506 1604.5665,-18.8016"/>
<polygon fill="#1a2833" stroke="#1a2833" points="1604.437,-15.2977 1594.3575,-18.5616 1604.2724,-22.2957 1604.437,-15.2977"/>
<text text-anchor="middle" x="2253.5" y="-152.5" font-family="Times,serif" font-size="10.00" fill="#767676">&gt;=7.2.5</text>
</g>
<!-- symfony/console&#45;&gt;symfony/deprecation&#45;contracts -->
<g id="edge61" class="edge">
<title>symfony/console&#45;&gt;symfony/deprecation&#45;contracts</title>
<path fill="none" stroke="#1a2833" d="M2588.7271,-298.9851C2609.3604,-293.328 2632.1447,-286.993 2653,-281 2733.2738,-257.9323 2757.3034,-262.2991 2833,-227 2899.0262,-196.2104 2901.4002,-161.5261 2970,-137 3038.6086,-112.4708 3062.6442,-127.1732 3139.2966,-118.9713"/>
<polygon fill="#1a2833" stroke="#1a2833" points="3139.9015,-122.4245 3149.4281,-117.7884 3139.0897,-115.4718 3139.9015,-122.4245"/>
<text text-anchor="middle" x="2902" y="-206.5" font-family="Times,serif" font-size="10.00" fill="#767676">^2.1|^3</text>
</g>
<!-- symfony/console&#45;&gt;symfony/polyfill&#45;mbstring -->
<g id="edge62" class="edge">
<title>symfony/console&#45;&gt;symfony/polyfill&#45;mbstring</title>
<path fill="none" stroke="#1a2833" d="M2445.8324,-310.4739C2372.1511,-303.6672 2265.9444,-292.4151 2226,-281 2171.3209,-265.3741 2150.0462,-267.3767 2110,-227 2079.047,-195.7916 2100.8021,-167.3427 2069,-137 2063.7264,-131.9684 2057.661,-127.6089 2051.2227,-123.838"/>
<polygon fill="#1a2833" stroke="#1a2833" points="2052.722,-120.671 2042.2514,-119.0531 2049.4277,-126.8474 2052.722,-120.671"/>
<text text-anchor="middle" x="2119.5" y="-206.5" font-family="Times,serif" font-size="10.00" fill="#767676">~1.0</text>
</g>
<!-- symfony/console&#45;&gt;symfony/polyfill&#45;php80 -->
<g id="edge65" class="edge">
<title>symfony/console&#45;&gt;symfony/polyfill&#45;php80</title>
<path fill="none" stroke="#1a2833" d="M2530.2706,-298.7751C2544.6876,-263.9951 2569.8181,-187.1591 2536,-137 2532.9907,-132.5366 2529.3242,-128.6264 2525.2141,-125.2009"/>
<polygon fill="#1a2833" stroke="#1a2833" points="2526.9886,-122.1669 2516.8197,-119.1928 2522.9145,-127.8591 2526.9886,-122.1669"/>
<text text-anchor="middle" x="2563.5" y="-206.5" font-family="Times,serif" font-size="10.00" fill="#767676">^1.16</text>
</g>
<!-- symfony/polyfill&#45;php73 -->
<g id="node31" class="node">
<title>symfony/polyfill&#45;php73</title>
<path fill="#eeeeee" stroke="#000000" d="M3716.5,-119C3716.5,-119 3545.5,-119 3545.5,-119 3539.5,-119 3533.5,-113 3533.5,-107 3533.5,-107 3533.5,-95 3533.5,-95 3533.5,-89 3539.5,-83 3545.5,-83 3545.5,-83 3716.5,-83 3716.5,-83 3722.5,-83 3728.5,-89 3728.5,-95 3728.5,-95 3728.5,-107 3728.5,-107 3728.5,-113 3722.5,-119 3716.5,-119"/>
<text text-anchor="middle" x="3631" y="-97.3" font-family="Times,serif" font-size="14.00" fill="#314b5f">symfony/polyfill&#45;php73: v1.23.0</text>
</g>
<!-- symfony/console&#45;&gt;symfony/polyfill&#45;php73 -->
<g id="edge64" class="edge">
<title>symfony/console&#45;&gt;symfony/polyfill&#45;php73</title>
<path fill="none" stroke="#1a2833" d="M2598.0218,-312.374C2738.0061,-302.9355 3045.5089,-277.9091 3300,-227 3385.2452,-209.9473 3407.046,-204.6856 3488,-173 3523.5799,-159.0739 3562.1802,-139.344 3590.2988,-124.0583"/>
<polygon fill="#1a2833" stroke="#1a2833" points="3592.3283,-126.9371 3599.4133,-119.0596 3588.9623,-120.7995 3592.3283,-126.9371"/>
<text text-anchor="middle" x="3448" y="-206.5" font-family="Times,serif" font-size="10.00" fill="#767676">^1.9</text>
</g>
<!-- symfony/service&#45;contracts -->
<g id="node32" class="node">
<title>symfony/service&#45;contracts</title>
<path fill="#eeeeee" stroke="#000000" d="M2495,-227C2495,-227 2317,-227 2317,-227 2311,-227 2305,-221 2305,-215 2305,-215 2305,-203 2305,-203 2305,-197 2311,-191 2317,-191 2317,-191 2495,-191 2495,-191 2501,-191 2507,-197 2507,-203 2507,-203 2507,-215 2507,-215 2507,-221 2501,-227 2495,-227"/>
<text text-anchor="middle" x="2406" y="-205.3" font-family="Times,serif" font-size="14.00" fill="#314b5f">symfony/service&#45;contracts: v2.5.0</text>
</g>
<!-- symfony/console&#45;&gt;symfony/service&#45;contracts -->
<g id="edge69" class="edge">
<title>symfony/console&#45;&gt;symfony/service&#45;contracts</title>
<path fill="none" stroke="#1a2833" d="M2502.5842,-298.9232C2483.5133,-281.1676 2454.2568,-253.9287 2432.9399,-234.082"/>
<polygon fill="#1a2833" stroke="#1a2833" points="2435.1831,-231.3883 2425.4791,-227.1357 2430.4131,-236.5116 2435.1831,-231.3883"/>
<text text-anchor="middle" x="2502" y="-260.5" font-family="Times,serif" font-size="10.00" fill="#767676">^1.1|^2|^3</text>
</g>
<!-- symfony/string -->
<g id="node33" class="node">
<title>symfony/string</title>
<path fill="#eeeeee" stroke="#000000" d="M2720.5,-227C2720.5,-227 2603.5,-227 2603.5,-227 2597.5,-227 2591.5,-221 2591.5,-215 2591.5,-215 2591.5,-203 2591.5,-203 2591.5,-197 2597.5,-191 2603.5,-191 2603.5,-191 2720.5,-191 2720.5,-191 2726.5,-191 2732.5,-197 2732.5,-203 2732.5,-203 2732.5,-215 2732.5,-215 2732.5,-221 2726.5,-227 2720.5,-227"/>
<text text-anchor="middle" x="2662" y="-205.3" font-family="Times,serif" font-size="14.00" fill="#314b5f">symfony/string: v5.4.0</text>
</g>
<!-- symfony/console&#45;&gt;symfony/string -->
<g id="edge78" class="edge">
<title>symfony/console&#45;&gt;symfony/string</title>
<path fill="none" stroke="#1a2833" d="M2545.4329,-298.9232C2568.7523,-280.9339 2604.6904,-253.2103 2630.4968,-233.3024"/>
<polygon fill="#1a2833" stroke="#1a2833" points="2632.7107,-236.0151 2638.4907,-227.1357 2628.435,-230.4726 2632.7107,-236.0151"/>
<text text-anchor="middle" x="2630.5" y="-260.5" font-family="Times,serif" font-size="10.00" fill="#767676">^5.1|^6.0</text>
</g>
<!-- symfony/polyfill&#45;php73&#45;&gt;php -->
<g id="edge63" class="edge">
<title>symfony/polyfill&#45;php73&#45;&gt;php</title>
<path fill="none" stroke="#1a2833" d="M3589.9556,-82.8977C3563.6612,-72.2657 3528.4922,-59.8067 3496,-54 3399.4497,-36.7456 1864.4109,-20.9251 1604.3061,-18.3617"/>
<polygon fill="#1a2833" stroke="#1a2833" points="1604.2659,-14.8612 1594.232,-18.2628 1604.1971,-21.8609 1604.2659,-14.8612"/>
<text text-anchor="middle" x="3549.5" y="-57" font-family="Times,serif" font-size="10.00" fill="#767676">&gt;=7.1</text>
</g>
<!-- symfony/service&#45;contracts&#45;&gt;php -->
<g id="edge66" class="edge">
<title>symfony/service&#45;contracts&#45;&gt;php</title>
<path fill="none" stroke="#1a2833" d="M2399.989,-190.7644C2393.7155,-174.4504 2382.3437,-151.0112 2365,-137 2344.3345,-120.3052 2329.1249,-135.1095 2308,-119 2280.6501,-98.1435 2295.7749,-71.2182 2266,-54 2237.1977,-37.3443 1745.9342,-22.8349 1604.6953,-18.9928"/>
<polygon fill="#1a2833" stroke="#1a2833" points="1604.4745,-15.4857 1594.3837,-18.7144 1604.2855,-22.4831 1604.4745,-15.4857"/>
<text text-anchor="middle" x="2324.5" y="-98.5" font-family="Times,serif" font-size="10.00" fill="#767676">&gt;=7.2.5</text>
</g>
<!-- symfony/service&#45;contracts&#45;&gt;psr/container -->
<g id="edge67" class="edge">
<title>symfony/service&#45;contracts&#45;&gt;psr/container</title>
<path fill="none" stroke="#1a2833" d="M2328.7595,-190.9086C2317.445,-186.2127 2306.4416,-180.3373 2297,-173 2282.0081,-161.3494 2289.0232,-148.6102 2274,-137 2262.213,-127.8908 2248.0395,-121.0444 2233.8228,-115.9125"/>
<polygon fill="#1a2833" stroke="#1a2833" points="2234.5963,-112.4806 2224.0025,-112.6267 2232.3752,-119.1189 2234.5963,-112.4806"/>
<text text-anchor="middle" x="2306" y="-152.5" font-family="Times,serif" font-size="10.00" fill="#767676">^1.1</text>
</g>
<!-- symfony/service&#45;contracts&#45;&gt;symfony/deprecation&#45;contracts -->
<g id="edge68" class="edge">
<title>symfony/service&#45;contracts&#45;&gt;symfony/deprecation&#45;contracts</title>
<path fill="none" stroke="#1a2833" d="M2507.1457,-193.746C2514.1988,-192.7841 2521.2029,-191.8588 2528,-191 2603.8171,-181.4208 2627.3508,-199.5779 2699,-173 2725.3544,-163.224 2724.3704,-145.9993 2751,-137 2830.18,-110.2418 3038.9229,-126.0996 3139.2246,-118.8894"/>
<polygon fill="#1a2833" stroke="#1a2833" points="3139.7817,-122.3552 3149.4555,-118.0344 3139.1987,-115.3795 3139.7817,-122.3552"/>
<text text-anchor="middle" x="2760" y="-152.5" font-family="Times,serif" font-size="10.00" fill="#767676">^2.1</text>
</g>
<!-- symfony/string&#45;&gt;php -->
<g id="edge70" class="edge">
<title>symfony/string&#45;&gt;php</title>
<path fill="none" stroke="#1a2833" d="M2680.8715,-190.7355C2686.7002,-185.0683 2693.1298,-178.7903 2699,-173 2715.1092,-157.11 2715.1791,-147.9147 2735,-137 2766.9242,-119.4204 2792.2333,-147.4583 2815,-119 2824.9951,-106.5061 2825.7927,-94.8117 2815,-83 2773.1025,-37.1467 1807.3024,-21.3131 1604.2486,-18.4856"/>
<polygon fill="#1a2833" stroke="#1a2833" points="1604.1384,-14.9839 1594.0913,-18.3462 1604.0423,-21.9832 1604.1384,-14.9839"/>
<text text-anchor="middle" x="2838.5" y="-98.5" font-family="Times,serif" font-size="10.00" fill="#767676">&gt;=7.2.5</text>
</g>
<!-- symfony/string&#45;&gt;symfony/polyfill&#45;ctype -->
<g id="edge71" class="edge">
<title>symfony/string&#45;&gt;symfony/polyfill&#45;ctype</title>
<path fill="none" stroke="#1a2833" d="M2591.1851,-193.1126C2586.3987,-192.3143 2581.6378,-191.5975 2577,-191 2410.1884,-169.5083 2366.2052,-191.1771 2199,-173 2104.4243,-162.7186 2081.9606,-151.8886 1988,-137 1936.4161,-128.8262 1921.2032,-127.7669 1865.6198,-119.0712"/>
<polygon fill="#1a2833" stroke="#1a2833" points="1865.9763,-115.5843 1855.5529,-117.4825 1864.885,-122.4987 1865.9763,-115.5843"/>
<text text-anchor="middle" x="2208.5" y="-152.5" font-family="Times,serif" font-size="10.00" fill="#767676">~1.8</text>
</g>
<!-- symfony/string&#45;&gt;symfony/polyfill&#45;mbstring -->
<g id="edge76" class="edge">
<title>symfony/string&#45;&gt;symfony/polyfill&#45;mbstring</title>
<path fill="none" stroke="#1a2833" d="M2600.8973,-190.9232C2541.2784,-174.0643 2447.7314,-149.6694 2365,-137 2248.4005,-119.1441 2215.1433,-131.756 2094.2534,-119.0597"/>
<polygon fill="#1a2833" stroke="#1a2833" points="2094.5552,-115.572 2084.2356,-117.9715 2093.7991,-122.5311 2094.5552,-115.572"/>
<text text-anchor="middle" x="2536.5" y="-152.5" font-family="Times,serif" font-size="10.00" fill="#767676">~1.0</text>
</g>
<!-- symfony/string&#45;&gt;symfony/polyfill&#45;php80 -->
<g id="edge77" class="edge">
<title>symfony/string&#45;&gt;symfony/polyfill&#45;php80</title>
<path fill="none" stroke="#1a2833" d="M2650.2336,-190.8288C2637.616,-171.888 2617.9262,-144.0016 2607,-137 2597.1413,-130.6824 2577.1013,-124.7082 2554.44,-119.5089"/>
<polygon fill="#1a2833" stroke="#1a2833" points="2555.1096,-116.0725 2544.5896,-117.3293 2553.5973,-122.9072 2555.1096,-116.0725"/>
<text text-anchor="middle" x="2648" y="-152.5" font-family="Times,serif" font-size="10.00" fill="#767676">~1.15</text>
</g>
<!-- symfony/polyfill&#45;intl&#45;grapheme -->
<g id="node34" class="node">
<title>symfony/polyfill&#45;intl&#45;grapheme</title>
<path fill="#eeeeee" stroke="#000000" d="M3119,-119C3119,-119 2905,-119 2905,-119 2899,-119 2893,-113 2893,-107 2893,-107 2893,-95 2893,-95 2893,-89 2899,-83 2905,-83 2905,-83 3119,-83 3119,-83 3125,-83 3131,-89 3131,-95 3131,-95 3131,-107 3131,-107 3131,-113 3125,-119 3119,-119"/>
<text text-anchor="middle" x="3012" y="-97.3" font-family="Times,serif" font-size="14.00" fill="#314b5f">symfony/polyfill&#45;intl&#45;grapheme: v1.23.1</text>
</g>
<!-- symfony/string&#45;&gt;symfony/polyfill&#45;intl&#45;grapheme -->
<g id="edge73" class="edge">
<title>symfony/string&#45;&gt;symfony/polyfill&#45;intl&#45;grapheme</title>
<path fill="none" stroke="#1a2833" d="M2732.551,-194.1855C2746.8587,-189.0428 2761.1378,-182.1673 2773,-173 2788.0232,-161.3898 2780.1571,-147.464 2796,-137 2800.2763,-134.1755 2839.2819,-127.3421 2882.9975,-120.3785"/>
<polygon fill="#1a2833" stroke="#1a2833" points="2883.6541,-123.8183 2892.984,-118.798 2882.5598,-116.9043 2883.6541,-123.8183"/>
<text text-anchor="middle" x="2805.5" y="-152.5" font-family="Times,serif" font-size="10.00" fill="#767676">~1.0</text>
</g>
<!-- symfony/polyfill&#45;intl&#45;normalizer -->
<g id="node35" class="node">
<title>symfony/polyfill&#45;intl&#45;normalizer</title>
<path fill="#eeeeee" stroke="#000000" d="M2793.5,-119C2793.5,-119 2574.5,-119 2574.5,-119 2568.5,-119 2562.5,-113 2562.5,-107 2562.5,-107 2562.5,-95 2562.5,-95 2562.5,-89 2568.5,-83 2574.5,-83 2574.5,-83 2793.5,-83 2793.5,-83 2799.5,-83 2805.5,-89 2805.5,-95 2805.5,-95 2805.5,-107 2805.5,-107 2805.5,-113 2799.5,-119 2793.5,-119"/>
<text text-anchor="middle" x="2684" y="-97.3" font-family="Times,serif" font-size="14.00" fill="#314b5f">symfony/polyfill&#45;intl&#45;normalizer: v1.23.0</text>
</g>
<!-- symfony/string&#45;&gt;symfony/polyfill&#45;intl&#45;normalizer -->
<g id="edge75" class="edge">
<title>symfony/string&#45;&gt;symfony/polyfill&#45;intl&#45;normalizer</title>
<path fill="none" stroke="#1a2833" d="M2665.732,-190.6793C2669.182,-173.7429 2674.3585,-148.3311 2678.3212,-128.8777"/>
<polygon fill="#1a2833" stroke="#1a2833" points="2681.7566,-129.5476 2680.3231,-119.0502 2674.8974,-128.1503 2681.7566,-129.5476"/>
<text text-anchor="middle" x="2685.5" y="-152.5" font-family="Times,serif" font-size="10.00" fill="#767676">~1.0</text>
</g>
<!-- symfony/polyfill&#45;intl&#45;grapheme&#45;&gt;php -->
<g id="edge72" class="edge">
<title>symfony/polyfill&#45;intl&#45;grapheme&#45;&gt;php</title>
<path fill="none" stroke="#1a2833" d="M2963.9436,-82.9148C2933.488,-72.3617 2892.9984,-59.9813 2856,-54 2729.7952,-33.5973 1802.5666,-20.9427 1604.259,-18.453"/>
<polygon fill="#1a2833" stroke="#1a2833" points="1604.1058,-14.9509 1594.063,-18.3259 1604.0185,-21.9504 1604.1058,-14.9509"/>
<text text-anchor="middle" x="2916.5" y="-57" font-family="Times,serif" font-size="10.00" fill="#767676">&gt;=7.1</text>
</g>
<!-- symfony/polyfill&#45;intl&#45;normalizer&#45;&gt;php -->
<g id="edge74" class="edge">
<title>symfony/polyfill&#45;intl&#45;normalizer&#45;&gt;php</title>
<path fill="none" stroke="#1a2833" d="M2586.0826,-82.9602C2527.1506,-72.8033 2450.5086,-60.8231 2382,-54 2083.0404,-24.2254 1719.9377,-19.0764 1604.2638,-18.1861"/>
<polygon fill="#1a2833" stroke="#1a2833" points="1604.1877,-14.6856 1594.1632,-18.1146 1604.1381,-21.6854 1604.1877,-14.6856"/>
<text text-anchor="middle" x="2477.5" y="-57" font-family="Times,serif" font-size="10.00" fill="#767676">&gt;=7.1</text>
</g>
<!-- symfony/finder&#45;&gt;php -->
<g id="edge80" class="edge">
<title>symfony/finder&#45;&gt;php</title>
<path fill="none" stroke="#1a2833" d="M3114.5857,-195.2764C3124.4432,-193.6694 3134.4552,-192.184 3144,-191 3172.1878,-187.5033 3379.6355,-193.7796 3399,-173 3413.3212,-157.6323 3387.0173,-83.8778 3386,-83 3276.5395,11.4485 3206.3436,-62.189 3062,-54 2765.4911,-37.1782 1804.9525,-21.6712 1604.0511,-18.5639"/>
<polygon fill="#1a2833" stroke="#1a2833" points="1604.0576,-15.0636 1594.0048,-18.409 1603.9497,-22.0628 1604.0576,-15.0636"/>
<text text-anchor="middle" x="3413.5" y="-98.5" font-family="Times,serif" font-size="10.00" fill="#767676">&gt;=7.2.5</text>
</g>
<!-- symfony/finder&#45;&gt;symfony/deprecation&#45;contracts -->
<g id="edge81" class="edge">
<title>symfony/finder&#45;&gt;symfony/deprecation&#45;contracts</title>
<path fill="none" stroke="#1a2833" d="M3079.8231,-190.9232C3117.499,-172.4277 3176.1359,-143.6424 3216.8797,-123.6409"/>
<polygon fill="#1a2833" stroke="#1a2833" points="3218.6225,-126.6844 3226.0568,-119.1357 3215.5378,-120.4007 3218.6225,-126.6844"/>
<text text-anchor="middle" x="3200" y="-152.5" font-family="Times,serif" font-size="10.00" fill="#767676">^2.1|^3</text>
</g>
<!-- symfony/finder&#45;&gt;symfony/polyfill&#45;php80 -->
<g id="edge82" class="edge">
<title>symfony/finder&#45;&gt;symfony/polyfill&#45;php80</title>
<path fill="none" stroke="#1a2833" d="M2997.9442,-190.9283C2953.3024,-173.8855 2882.5869,-149.1901 2819,-137 2706.2323,-115.3816 2673.042,-131.8525 2554.7964,-118.9868"/>
<polygon fill="#1a2833" stroke="#1a2833" points="2554.9497,-115.4818 2544.6186,-117.8307 2554.1596,-122.437 2554.9497,-115.4818"/>
<text text-anchor="middle" x="2958.5" y="-152.5" font-family="Times,serif" font-size="10.00" fill="#767676">^1.16</text>
</g>
<!-- symfony/options&#45;resolver&#45;&gt;php -->
<g id="edge84" class="edge">
<title>symfony/options&#45;resolver&#45;&gt;php</title>
<path fill="none" stroke="#1a2833" d="M3668.2953,-190.9012C3709.3829,-166.2877 3770.1064,-120.9728 3738,-83 3687.9466,-23.8009 3643.1918,-61.1623 3566,-54 3363.9067,-35.2487 1862.4701,-20.7109 1604.6336,-18.3396"/>
<polygon fill="#1a2833" stroke="#1a2833" points="1604.3322,-14.8368 1594.3005,-18.245 1604.268,-21.8365 1604.3322,-14.8368"/>
<text text-anchor="middle" x="3763.5" y="-98.5" font-family="Times,serif" font-size="10.00" fill="#767676">&gt;=7.2.5</text>
</g>
<!-- symfony/options&#45;resolver&#45;&gt;symfony/deprecation&#45;contracts -->
<g id="edge85" class="edge">
<title>symfony/options&#45;resolver&#45;&gt;symfony/deprecation&#45;contracts</title>
<path fill="none" stroke="#1a2833" d="M3572.7356,-190.9232C3507.1868,-171.8929 3404.1157,-141.9691 3335.0864,-121.9283"/>
<polygon fill="#1a2833" stroke="#1a2833" points="3335.7366,-118.4726 3325.1572,-119.0456 3333.7848,-125.195 3335.7366,-118.4726"/>
<text text-anchor="middle" x="3519" y="-152.5" font-family="Times,serif" font-size="10.00" fill="#767676">^2.1|^3</text>
</g>
<!-- symfony/options&#45;resolver&#45;&gt;symfony/polyfill&#45;php80 -->
<g id="edge87" class="edge">
<title>symfony/options&#45;resolver&#45;&gt;symfony/polyfill&#45;php80</title>
<path fill="none" stroke="#1a2833" d="M3535.8706,-192.5428C3531.1877,-191.9752 3526.5462,-191.4559 3522,-191 3332.118,-171.958 3281.1525,-204.8815 3093,-173 3038.5205,-163.7687 3028.4754,-146.2557 2974,-137 2793.0397,-106.2536 2741.6128,-137.4006 2554.7683,-118.9696"/>
<polygon fill="#1a2833" stroke="#1a2833" points="2554.9111,-115.4661 2544.6073,-117.932 2554.1999,-122.4299 2554.9111,-115.4661"/>
<text text-anchor="middle" x="3104.5" y="-152.5" font-family="Times,serif" font-size="10.00" fill="#767676">^1.16</text>
</g>
<!-- symfony/options&#45;resolver&#45;&gt;symfony/polyfill&#45;php73 -->
<g id="edge86" class="edge">
<title>symfony/options&#45;resolver&#45;&gt;symfony/polyfill&#45;php73</title>
<path fill="none" stroke="#1a2833" d="M3634.3215,-190.6793C3633.6971,-173.821 3632.7617,-148.5651 3632.0425,-129.147"/>
<polygon fill="#1a2833" stroke="#1a2833" points="3635.5363,-128.9137 3631.6685,-119.0502 3628.5411,-129.1729 3635.5363,-128.9137"/>
<text text-anchor="middle" x="3642.5" y="-152.5" font-family="Times,serif" font-size="10.00" fill="#767676">~1.0</text>
</g>
<!-- symfony/yaml&#45;&gt;php -->
<g id="edge89" class="edge">
<title>symfony/yaml&#45;&gt;php</title>
<path fill="none" stroke="#1a2833" d="M3291.2848,-191.9501C3292.8699,-191.6237 3294.4433,-191.3064 3296,-191 3322.2417,-185.8343 3394.3949,-190.0511 3415,-173 3446.496,-146.9364 3460.8478,-113.8303 3434,-83 3372.4136,-12.2781 3318.4805,-61.4749 3225,-54 2894.7858,-27.5953 1818.5602,-19.5724 1604.2968,-18.2199"/>
<polygon fill="#1a2833" stroke="#1a2833" points="1604.2116,-14.7194 1594.19,-18.157 1604.168,-21.7192 1604.2116,-14.7194"/>
<text text-anchor="middle" x="3464.5" y="-98.5" font-family="Times,serif" font-size="10.00" fill="#767676">&gt;=7.2.5</text>
</g>
<!-- symfony/yaml&#45;&gt;symfony/polyfill&#45;ctype -->
<g id="edge91" class="edge">
<title>symfony/yaml&#45;&gt;symfony/polyfill&#45;ctype</title>
<path fill="none" stroke="#1a2833" d="M3152.855,-194.9804C3143.1971,-193.4084 3133.3732,-192.0117 3124,-191 3064.4237,-184.5698 2639.8012,-197.2386 2585,-173 2564.5918,-163.9734 2570.4402,-145.9539 2550,-137 2482.6441,-107.4944 1977.1022,-125.1432 1866.0448,-118.771"/>
<polygon fill="#1a2833" stroke="#1a2833" points="1866.0068,-115.2584 1855.7732,-118.0011 1865.4835,-122.2389 1866.0068,-115.2584"/>
<text text-anchor="middle" x="2594" y="-152.5" font-family="Times,serif" font-size="10.00" fill="#767676">^1.8</text>
</g>
<!-- symfony/yaml&#45;&gt;symfony/deprecation&#45;contracts -->
<g id="edge90" class="edge">
<title>symfony/yaml&#45;&gt;symfony/deprecation&#45;contracts</title>
<path fill="none" stroke="#1a2833" d="M3224.0372,-190.9392C3226.181,-176 3230.3453,-154.4765 3238,-137 3239.3432,-133.9332 3240.9633,-130.8571 3242.7253,-127.8656"/>
<polygon fill="#1a2833" stroke="#1a2833" points="3245.8127,-129.5365 3248.3023,-119.2383 3239.9341,-125.7363 3245.8127,-129.5365"/>
<text text-anchor="middle" x="3253" y="-152.5" font-family="Times,serif" font-size="10.00" fill="#767676">^2.1|^3</text>
</g>
</g>
</svg>
