<?xml version="1.0" encoding="UTF-8" standalone="no"?>
<!DOCTYPE svg PUBLIC "-//W3C//DTD SVG 1.1//EN"
 "http://www.w3.org/Graphics/SVG/1.1/DTD/svg11.dtd">
<!-- Generated by graphviz version 2.43.0 (0)
 -->
<!-- Title: %3 Pages: 1 -->
<svg width="1489pt" height="883pt"
 viewBox="0.00 0.00 1489.00 882.50" xmlns="http://www.w3.org/2000/svg" xmlns:xlink="http://www.w3.org/1999/xlink">
<g id="graph0" class="graph" transform="scale(1 1) rotate(0) translate(4 878.5)">
<title>%3</title>
<g id="clust1" class="cluster">
<title>cluster_0</title>
<polygon fill="BurlyWood" stroke="black" points="8,-745 8,-831 768,-831 768,-745 8,-745"/>
<text text-anchor="middle" x="388" y="-815.8" font-family="Times,serif" font-size="14.00">Bartlett\UmlWriter\Console\Command</text>
</g>
<g id="clust2" class="cluster">
<title>cluster_1</title>
<polygon fill="transparent" stroke="black" points="34,-8 34,-698 742,-698 742,-8 34,-8"/>
<text text-anchor="middle" x="388" y="-682.8" font-family="Times,serif" font-size="14.00">Symfony\Component\Console\Command</text>
</g>
<g id="clust3" class="cluster">
<title>cluster_2</title>
<polygon fill="BurlyWood" stroke="black" points="776,-709.5 776,-866.5 1462,-866.5 1462,-709.5 776,-709.5"/>
<text text-anchor="middle" x="1119" y="-851.3" font-family="Times,serif" font-size="14.00">Bartlett\UmlWriter\Console</text>
</g>
<g id="clust4" class="cluster">
<title>cluster_3</title>
<polygon fill="transparent" stroke="black" points="765,-108.5 765,-701.5 1473,-701.5 1473,-108.5 765,-108.5"/>
<text text-anchor="middle" x="1119" y="-686.3" font-family="Times,serif" font-size="14.00">Symfony\Component\Console</text>
</g>
<g id="clust5" class="cluster">
<title>cluster_4</title>
<polygon fill="transparent" stroke="black" points="1014,-14.5 1014,-100.5 1225,-100.5 1225,-14.5 1014,-14.5"/>
<text text-anchor="middle" x="1119.5" y="-85.3" font-family="Times,serif" font-size="14.00">Symfony\Contracts\Service</text>
</g>
<!-- Bartlett\\UmlWriter\\Console\\Command\\ClassDiagramCommand -->
<g id="node1" class="node">
<title>Bartlett\\UmlWriter\\Console\\Command\\ClassDiagramCommand</title>
<polygon fill="#fefece" stroke="transparent" points="759.5,-800 16.5,-800 16.5,-753 759.5,-753 759.5,-800"/>
<polygon fill="#eeeeee" stroke="transparent" points="17,-777.5 17,-799.5 760,-799.5 760,-777.5 17,-777.5"/>
<polygon fill="none" stroke="black" points="17,-777.5 17,-799.5 760,-799.5 760,-777.5 17,-777.5"/>
<text text-anchor="start" x="335" y="-783.1" font-family="Verdana" font-weight="bold" font-size="8.00">ClassDiagramCommand</text>
<polygon fill="none" stroke="black" points="17,-771.5 17,-777.5 760,-777.5 760,-771.5 17,-771.5"/>
<polygon fill="none" stroke="black" points="17,-752.5 17,-771.5 760,-771.5 760,-752.5 17,-752.5"/>
<text text-anchor="start" x="22" y="-760.1" font-family="Verdana" font-size="8.00">+ __construct(renderer : Bartlett\UmlWriter\Service\ClassDiagramRenderer, generatorFactory : Bartlett\UmlWriter\Generator\GeneratorFactoryInterface, name : string = «unknown»)</text>
</g>
<!-- Symfony\\Component\\Console\\Command\\Command -->
<g id="node2" class="node">
<title>Symfony\\Component\\Console\\Command\\Command</title>
<polygon fill="#fefece" stroke="transparent" points="734,-667 42,-667 42,-120 734,-120 734,-667"/>
<polygon fill="#eeeeee" stroke="transparent" points="42,-644.5 42,-666.5 734,-666.5 734,-644.5 42,-644.5"/>
<polygon fill="none" stroke="black" points="42,-644.5 42,-666.5 734,-666.5 734,-644.5 42,-644.5"/>
<text text-anchor="start" x="365" y="-650.1" font-family="Verdana" font-weight="bold" font-size="8.00">Command</text>
<polygon fill="none" stroke="black" points="42,-599.5 42,-644.5 734,-644.5 734,-599.5 42,-599.5"/>
<text text-anchor="start" x="47" y="-633.1" font-family="Verdana" font-size="8.00">+ «static» SUCCESS : int = 0 {readOnly}</text>
<text text-anchor="start" x="47" y="-620.1" font-family="Verdana" font-size="8.00">+ «static» FAILURE : int = 1 {readOnly}</text>
<text text-anchor="start" x="47" y="-607.1" font-family="Verdana" font-size="8.00">+ «static» INVALID : int = 2 {readOnly}</text>
<polygon fill="none" stroke="black" points="42,-593.5 42,-599.5 734,-599.5 734,-593.5 42,-593.5"/>
<polygon fill="none" stroke="black" points="42,-119.5 42,-593.5 734,-593.5 734,-119.5 42,-119.5"/>
<text text-anchor="start" x="47" y="-582.1" font-family="Verdana" font-size="8.00">+ «static» getDefaultName() : ?string</text>
<text text-anchor="start" x="47" y="-569.1" font-family="Verdana" font-size="8.00">+ «static» getDefaultDescription() : ?string</text>
<text text-anchor="start" x="47" y="-556.1" font-family="Verdana" font-size="8.00">+ __construct(name : string = «unknown»)</text>
<text text-anchor="start" x="47" y="-543.1" font-family="Verdana" font-size="8.00">+ ignoreValidationErrors() : void</text>
<text text-anchor="start" x="47" y="-530.1" font-family="Verdana" font-size="8.00">+ setApplication(application : Symfony\Component\Console\Application) : void</text>
<text text-anchor="start" x="47" y="-517.1" font-family="Verdana" font-size="8.00">+ setHelperSet(helperSet : Symfony\Component\Console\Helper\HelperSet) : void</text>
<text text-anchor="start" x="47" y="-504.1" font-family="Verdana" font-size="8.00">+ getHelperSet() : ?Symfony\Component\Console\Helper\HelperSet</text>
<text text-anchor="start" x="47" y="-491.1" font-family="Verdana" font-size="8.00">+ getApplication() : ?Symfony\Component\Console\Application</text>
<text text-anchor="start" x="47" y="-478.1" font-family="Verdana" font-size="8.00">+ isEnabled() : bool</text>
<text text-anchor="start" x="47" y="-465.1" font-family="Verdana" font-size="8.00">+ run(input : Symfony\Component\Console\Input\InputInterface, output : Symfony\Component\Console\Output\OutputInterface) : int</text>
<text text-anchor="start" x="47" y="-452.1" font-family="Verdana" font-size="8.00">+ complete(input : Symfony\Component\Console\Completion\CompletionInput, suggestions : Symfony\Component\Console\Completion\CompletionSuggestions) : void</text>
<text text-anchor="start" x="47" y="-439.1" font-family="Verdana" font-size="8.00">+ setCode(code : callable) : static</text>
<text text-anchor="start" x="47" y="-426.1" font-family="Verdana" font-size="8.00">+ mergeApplicationDefinition(mergeArgs : bool = true) : void</text>
<text text-anchor="start" x="47" y="-413.1" font-family="Verdana" font-size="8.00">+ setDefinition(definition) : static</text>
<text text-anchor="start" x="47" y="-400.1" font-family="Verdana" font-size="8.00">+ getDefinition() : Symfony\Component\Console\Input\InputDefinition</text>
<text text-anchor="start" x="47" y="-387.1" font-family="Verdana" font-size="8.00">+ getNativeDefinition() : Symfony\Component\Console\Input\InputDefinition</text>
<text text-anchor="start" x="47" y="-374.1" font-family="Verdana" font-size="8.00">+ addArgument(name : string, mode : int = «unknown», description : string = &#39;&#39;, default : mixed = «unknown», suggestedValues = []) : static</text>
<text text-anchor="start" x="47" y="-361.1" font-family="Verdana" font-size="8.00">+ addOption(name : string, shortcut = «unknown», mode : int = «unknown», description : string = &#39;&#39;, default : mixed = «unknown», suggestedValues = []) : static</text>
<text text-anchor="start" x="47" y="-348.1" font-family="Verdana" font-size="8.00">+ setName(name : string) : static</text>
<text text-anchor="start" x="47" y="-335.1" font-family="Verdana" font-size="8.00">+ setProcessTitle(title : string) : static</text>
<text text-anchor="start" x="47" y="-322.1" font-family="Verdana" font-size="8.00">+ getName() : ?string</text>
<text text-anchor="start" x="47" y="-309.1" font-family="Verdana" font-size="8.00">+ setHidden(hidden : bool = true) : static</text>
<text text-anchor="start" x="47" y="-296.1" font-family="Verdana" font-size="8.00">+ isHidden() : bool</text>
<text text-anchor="start" x="47" y="-283.1" font-family="Verdana" font-size="8.00">+ setDescription(description : string) : static</text>
<text text-anchor="start" x="47" y="-270.1" font-family="Verdana" font-size="8.00">+ getDescription() : string</text>
<text text-anchor="start" x="47" y="-257.1" font-family="Verdana" font-size="8.00">+ setHelp(help : string) : static</text>
<text text-anchor="start" x="47" y="-244.1" font-family="Verdana" font-size="8.00">+ getHelp() : string</text>
<text text-anchor="start" x="47" y="-231.1" font-family="Verdana" font-size="8.00">+ getProcessedHelp() : string</text>
<text text-anchor="start" x="47" y="-218.1" font-family="Verdana" font-size="8.00">+ setAliases(aliases : iterable) : static</text>
<text text-anchor="start" x="47" y="-205.1" font-family="Verdana" font-size="8.00">+ getAliases() : array</text>
<text text-anchor="start" x="47" y="-192.1" font-family="Verdana" font-size="8.00">+ getSynopsis(short : bool = false) : string</text>
<text text-anchor="start" x="47" y="-179.1" font-family="Verdana" font-size="8.00">+ addUsage(usage : string) : static</text>
<text text-anchor="start" x="47" y="-166.1" font-family="Verdana" font-size="8.00">+ getUsages() : array</text>
<text text-anchor="start" x="47" y="-153.1" font-family="Verdana" font-size="8.00">+ getHelper(name : string) : Symfony\Component\Console\Helper\HelperInterface</text>
<text text-anchor="start" x="47" y="-140.1" font-family="Verdana" font-size="8.00">+ getSubscribedSignals() : array</text>
<text text-anchor="start" x="47" y="-127.1" font-family="Verdana" font-size="8.00">+ handleSignal(signal : int, previousExitCode = 0)</text>
</g>
<!-- Bartlett\\UmlWriter\\Console\\Command\\ClassDiagramCommand&#45;&gt;Symfony\\Component\\Console\\Command\\Command -->
<g id="edge2" class="edge">
<title>Bartlett\\UmlWriter\\Console\\Command\\ClassDiagramCommand&#45;&gt;Symfony\\Component\\Console\\Command\\Command</title>
<path fill="none" stroke="black" d="M388,-752.81C388,-735.1 388,-708.34 388,-677.26"/>
<polygon fill="none" stroke="black" points="391.5,-677.02 388,-667.02 384.5,-677.02 391.5,-677.02"/>
</g>
<!-- Symfony\\Component\\Console\\Command\\SignalableCommandInterface -->
<g id="node3" class="node">
<title>Symfony\\Component\\Console\\Command\\SignalableCommandInterface</title>
<polygon fill="#fefece" stroke="transparent" points="518.5,-76 257.5,-76 257.5,-16 518.5,-16 518.5,-76"/>
<polygon fill="#eeeeee" stroke="transparent" points="258,-54 258,-76 519,-76 519,-54 258,-54"/>
<polygon fill="none" stroke="black" points="258,-54 258,-76 519,-76 519,-54 258,-54"/>
<text text-anchor="start" x="362.5" y="-67.6" font-family="Verdana" font-weight="bold" font-size="8.00">«interface»</text>
<text text-anchor="start" x="321" y="-59.6" font-family="Verdana" font-weight="bold" font-size="8.00">SignalableCommandInterface</text>
<polygon fill="none" stroke="black" points="258,-48 258,-54 519,-54 519,-48 258,-48"/>
<polygon fill="none" stroke="black" points="258,-16 258,-48 519,-48 519,-16 258,-16"/>
<text text-anchor="start" x="263" y="-36.6" font-family="Verdana" font-size="8.00">+ «abstract» getSubscribedSignals() : array</text>
<text text-anchor="start" x="263" y="-23.6" font-family="Verdana" font-size="8.00">+ «abstract» handleSignal(signal : int, previousExitCode = 0)</text>
</g>
<!-- Symfony\\Component\\Console\\Command\\Command&#45;&gt;Symfony\\Component\\Console\\Command\\SignalableCommandInterface -->
<g id="edge1" class="edge">
<title>Symfony\\Component\\Console\\Command\\Command&#45;&gt;Symfony\\Component\\Console\\Command\\SignalableCommandInterface</title>
<path fill="none" stroke="black" stroke-dasharray="5,2" d="M388,-119.85C388,-107.51 388,-96.2 388,-86.37"/>
<polygon fill="none" stroke="black" points="391.5,-86.3 388,-76.3 384.5,-86.3 391.5,-86.3"/>
</g>
<!-- Bartlett\\UmlWriter\\Console\\Application -->
<g id="node4" class="node">
<title>Bartlett\\UmlWriter\\Console\\Application</title>
<polygon fill="#fefece" stroke="transparent" points="1453.5,-835.5 784.5,-835.5 784.5,-717.5 1453.5,-717.5 1453.5,-835.5"/>
<polygon fill="#eeeeee" stroke="transparent" points="785,-813.5 785,-835.5 1454,-835.5 1454,-813.5 785,-813.5"/>
<polygon fill="none" stroke="black" points="785,-813.5 785,-835.5 1454,-835.5 1454,-813.5 785,-813.5"/>
<text text-anchor="start" x="1093.5" y="-819.1" font-family="Verdana" font-weight="bold" font-size="8.00">Application</text>
<polygon fill="none" stroke="black" points="785,-794.5 785,-813.5 1454,-813.5 1454,-794.5 785,-794.5"/>
<text text-anchor="start" x="790" y="-802.1" font-family="Verdana" font-size="8.00">+ «static» NAME : string = &quot;umlWriter&quot; {readOnly}</text>
<polygon fill="none" stroke="black" points="785,-788.5 785,-794.5 1454,-794.5 1454,-788.5 785,-788.5"/>
<polygon fill="none" stroke="black" points="785,-717.5 785,-788.5 1454,-788.5 1454,-717.5 785,-717.5"/>
<text text-anchor="start" x="790" y="-777.1" font-family="Verdana" font-size="8.00">+ __construct(container : Psr\Container\ContainerInterface)</text>
<text text-anchor="start" x="790" y="-764.1" font-family="Verdana" font-size="8.00">+ getHelp() : string</text>
<text text-anchor="start" x="790" y="-751.1" font-family="Verdana" font-size="8.00">+ getLongVersion() : string</text>
<text text-anchor="start" x="790" y="-738.1" font-family="Verdana" font-size="8.00">+ doRun(input : Symfony\Component\Console\Input\InputInterface, output : Symfony\Component\Console\Output\OutputInterface) : int</text>
<text text-anchor="start" x="790" y="-725.1" font-family="Verdana" font-size="8.00">+ run(input : Symfony\Component\Console\Input\InputInterface = «unknown», output : Symfony\Component\Console\Output\OutputInterface = «unknown») : int</text>
</g>
<!-- Symfony\\Component\\Console\\Application -->
<g id="node5" class="node">
<title>Symfony\\Component\\Console\\Application</title>
<polygon fill="#fefece" stroke="transparent" points="1465,-670.5 773,-670.5 773,-116.5 1465,-116.5 1465,-670.5"/>
<polygon fill="#eeeeee" stroke="transparent" points="773,-648.5 773,-670.5 1465,-670.5 1465,-648.5 773,-648.5"/>
<polygon fill="none" stroke="black" points="773,-648.5 773,-670.5 1465,-670.5 1465,-648.5 773,-648.5"/>
<text text-anchor="start" x="1093" y="-654.1" font-family="Verdana" font-weight="bold" font-size="8.00">Application</text>
<polygon fill="none" stroke="black" points="773,-642.5 773,-648.5 1465,-648.5 1465,-642.5 773,-642.5"/>
<polygon fill="none" stroke="black" points="773,-116.5 773,-642.5 1465,-642.5 1465,-116.5 773,-116.5"/>
<text text-anchor="start" x="778" y="-631.1" font-family="Verdana" font-size="8.00">+ __construct(name : string = &#39;UNKNOWN&#39;, version : string = &#39;UNKNOWN&#39;)</text>
<text text-anchor="start" x="778" y="-618.1" font-family="Verdana" font-size="8.00">+ setDispatcher(dispatcher : Symfony\Contracts\EventDispatcher\EventDispatcherInterface) : void</text>
<text text-anchor="start" x="778" y="-605.1" font-family="Verdana" font-size="8.00">+ setCommandLoader(commandLoader : Symfony\Component\Console\CommandLoader\CommandLoaderInterface) : void</text>
<text text-anchor="start" x="778" y="-592.1" font-family="Verdana" font-size="8.00">+ getSignalRegistry() : Symfony\Component\Console\SignalRegistry\SignalRegistry</text>
<text text-anchor="start" x="778" y="-579.1" font-family="Verdana" font-size="8.00">+ setSignalsToDispatchEvent(signalsToDispatchEvent : int = «unknown») : void</text>
<text text-anchor="start" x="778" y="-566.1" font-family="Verdana" font-size="8.00">+ setAlarmInterval(seconds : int) : void</text>
<text text-anchor="start" x="778" y="-553.1" font-family="Verdana" font-size="8.00">+ getAlarmInterval() : ?int</text>
<text text-anchor="start" x="778" y="-540.1" font-family="Verdana" font-size="8.00">+ run(input : Symfony\Component\Console\Input\InputInterface = «unknown», output : Symfony\Component\Console\Output\OutputInterface = «unknown») : int</text>
<text text-anchor="start" x="778" y="-527.1" font-family="Verdana" font-size="8.00">+ doRun(input : Symfony\Component\Console\Input\InputInterface, output : Symfony\Component\Console\Output\OutputInterface) : int</text>
<text text-anchor="start" x="778" y="-514.1" font-family="Verdana" font-size="8.00">+ reset() : void</text>
<text text-anchor="start" x="778" y="-501.1" font-family="Verdana" font-size="8.00">+ setHelperSet(helperSet : Symfony\Component\Console\Helper\HelperSet) : void</text>
<text text-anchor="start" x="778" y="-488.1" font-family="Verdana" font-size="8.00">+ getHelperSet() : Symfony\Component\Console\Helper\HelperSet</text>
<text text-anchor="start" x="778" y="-475.1" font-family="Verdana" font-size="8.00">+ setDefinition(definition : Symfony\Component\Console\Input\InputDefinition) : void</text>
<text text-anchor="start" x="778" y="-462.1" font-family="Verdana" font-size="8.00">+ getDefinition() : Symfony\Component\Console\Input\InputDefinition</text>
<text text-anchor="start" x="778" y="-449.1" font-family="Verdana" font-size="8.00">+ complete(input : Symfony\Component\Console\Completion\CompletionInput, suggestions : Symfony\Component\Console\Completion\CompletionSuggestions) : void</text>
<text text-anchor="start" x="778" y="-436.1" font-family="Verdana" font-size="8.00">+ getHelp() : string</text>
<text text-anchor="start" x="778" y="-423.1" font-family="Verdana" font-size="8.00">+ areExceptionsCaught() : bool</text>
<text text-anchor="start" x="778" y="-410.1" font-family="Verdana" font-size="8.00">+ setCatchExceptions(boolean : bool) : void</text>
<text text-anchor="start" x="778" y="-397.1" font-family="Verdana" font-size="8.00">+ setCatchErrors(catchErrors : bool = true) : void</text>
<text text-anchor="start" x="778" y="-384.1" font-family="Verdana" font-size="8.00">+ isAutoExitEnabled() : bool</text>
<text text-anchor="start" x="778" y="-371.1" font-family="Verdana" font-size="8.00">+ setAutoExit(boolean : bool) : void</text>
<text text-anchor="start" x="778" y="-358.1" font-family="Verdana" font-size="8.00">+ getName() : string</text>
<text text-anchor="start" x="778" y="-345.1" font-family="Verdana" font-size="8.00">+ setName(name : string) : void</text>
<text text-anchor="start" x="778" y="-332.1" font-family="Verdana" font-size="8.00">+ getVersion() : string</text>
<text text-anchor="start" x="778" y="-319.1" font-family="Verdana" font-size="8.00">+ setVersion(version : string) : void</text>
<text text-anchor="start" x="778" y="-306.1" font-family="Verdana" font-size="8.00">+ getLongVersion() : string</text>
<text text-anchor="start" x="778" y="-293.1" font-family="Verdana" font-size="8.00">+ register(name : string) : Symfony\Component\Console\Command\Command</text>
<text text-anchor="start" x="778" y="-280.1" font-family="Verdana" font-size="8.00">+ addCommands(commands : array) : void</text>
<text text-anchor="start" x="778" y="-267.1" font-family="Verdana" font-size="8.00">+ add(command : Symfony\Component\Console\Command\Command) : ?Symfony\Component\Console\Command\Command</text>
<text text-anchor="start" x="778" y="-254.1" font-family="Verdana" font-size="8.00">+ get(name : string) : Symfony\Component\Console\Command\Command</text>
<text text-anchor="start" x="778" y="-241.1" font-family="Verdana" font-size="8.00">+ has(name : string) : bool</text>
<text text-anchor="start" x="778" y="-228.1" font-family="Verdana" font-size="8.00">+ getNamespaces() : array</text>
<text text-anchor="start" x="778" y="-215.1" font-family="Verdana" font-size="8.00">+ findNamespace(namespace : string) : string</text>
<text text-anchor="start" x="778" y="-202.1" font-family="Verdana" font-size="8.00">+ find(name : string) : Symfony\Component\Console\Command\Command</text>
<text text-anchor="start" x="778" y="-189.1" font-family="Verdana" font-size="8.00">+ all(namespace : string = «unknown») : array</text>
<text text-anchor="start" x="778" y="-176.1" font-family="Verdana" font-size="8.00">+ «static» getAbbreviations(names : array) : array</text>
<text text-anchor="start" x="778" y="-163.1" font-family="Verdana" font-size="8.00">+ renderThrowable(e : Throwable, output : Symfony\Component\Console\Output\OutputInterface) : void</text>
<text text-anchor="start" x="778" y="-150.1" font-family="Verdana" font-size="8.00">+ extractNamespace(name : string, limit : int = «unknown») : string</text>
<text text-anchor="start" x="778" y="-137.1" font-family="Verdana" font-size="8.00">+ setDefaultCommand(commandName : string, isSingleCommand : bool = false) : static</text>
<text text-anchor="start" x="778" y="-124.1" font-family="Verdana" font-size="8.00">+ isSingleCommand() : bool</text>
</g>
<!-- Bartlett\\UmlWriter\\Console\\Application&#45;&gt;Symfony\\Component\\Console\\Application -->
<g id="edge4" class="edge">
<title>Bartlett\\UmlWriter\\Console\\Application&#45;&gt;Symfony\\Component\\Console\\Application</title>
<path fill="none" stroke="black" d="M1119,-717.22C1119,-706.17 1119,-693.96 1119,-680.93"/>
<polygon fill="none" stroke="black" points="1122.5,-680.82 1119,-670.82 1115.5,-680.82 1122.5,-680.82"/>
</g>
<!-- Symfony\\Contracts\\Service\\ResetInterface -->
<g id="node6" class="node">
<title>Symfony\\Contracts\\Service\\ResetInterface</title>
<polygon fill="#fefece" stroke="transparent" points="1165.5,-69.5 1072.5,-69.5 1072.5,-22.5 1165.5,-22.5 1165.5,-69.5"/>
<polygon fill="#eeeeee" stroke="transparent" points="1073,-47 1073,-69 1166,-69 1166,-47 1073,-47"/>
<polygon fill="none" stroke="black" points="1073,-47 1073,-69 1166,-69 1166,-47 1073,-47"/>
<text text-anchor="start" x="1093.5" y="-60.6" font-family="Verdana" font-weight="bold" font-size="8.00">«interface»</text>
<text text-anchor="start" x="1086.5" y="-52.6" font-family="Verdana" font-weight="bold" font-size="8.00">ResetInterface</text>
<polygon fill="none" stroke="black" points="1073,-41 1073,-47 1166,-47 1166,-41 1073,-41"/>
<polygon fill="none" stroke="black" points="1073,-22 1073,-41 1166,-41 1166,-22 1073,-22"/>
<text text-anchor="start" x="1078" y="-29.6" font-family="Verdana" font-size="8.00">+ «abstract» reset()</text>
</g>
<!-- Symfony\\Component\\Console\\Application&#45;&gt;Symfony\\Contracts\\Service\\ResetInterface -->
<g id="edge3" class="edge">
<title>Symfony\\Component\\Console\\Application&#45;&gt;Symfony\\Contracts\\Service\\ResetInterface</title>
<path fill="none" stroke="black" stroke-dasharray="5,2" d="M1119,-116.09C1119,-102.31 1119,-89.93 1119,-79.59"/>
<polygon fill="none" stroke="black" points="1122.5,-79.57 1119,-69.57 1115.5,-79.57 1122.5,-79.57"/>
</g>
</g>
</svg>
