<?xml version="1.0" encoding="UTF-8" standalone="no"?>
<!DOCTYPE svg PUBLIC "-//W3C//DTD SVG 1.1//EN"
 "http://www.w3.org/Graphics/SVG/1.1/DTD/svg11.dtd">
<!-- Generated by graphviz version 2.43.0 (0)
 -->
<!-- Title: %3 Pages: 1 -->
<svg width="1340pt" height="342pt"
 viewBox="0.00 0.00 1340.00 342.00" xmlns="http://www.w3.org/2000/svg" xmlns:xlink="http://www.w3.org/1999/xlink">
<g id="graph0" class="graph" transform="scale(1 1) rotate(0) translate(4 338)">
<title>%3</title>
<g id="clust1" class="cluster">
<title>cluster_0</title>
<polygon fill="LightSkyBlue" stroke="black" points="8,-8 8,-326 778,-326 778,-8 8,-8"/>
<text text-anchor="middle" x="393" y="-310.8" font-family="Times,serif" font-size="14.00">Bartlett\GraphUml\Formatter</text>
</g>
<g id="clust2" class="cluster">
<title>cluster_1</title>
<polygon fill="BurlyWood" stroke="black" points="786,-18 786,-313 1324,-313 1324,-18 786,-18"/>
<text text-anchor="middle" x="1055" y="-297.8" font-family="Times,serif" font-size="14.00">Bartlett\GraphUml</text>
</g>
<!-- Bartlett\\GraphUml\\Formatter\\AbstractFormatter -->
<g id="node1" class="node">
<title>Bartlett\\GraphUml\\Formatter\\AbstractFormatter</title>
<polygon fill="#fefece" stroke="transparent" points="271,-111.5 93,-111.5 93,-32.5 271,-32.5 271,-111.5"/>
<polygon fill="#eeeeee" stroke="transparent" points="93,-89 93,-111 271,-111 271,-89 93,-89"/>
<polygon fill="none" stroke="black" points="93,-89 93,-111 271,-111 271,-89 93,-89"/>
<text text-anchor="start" x="158" y="-102.6" font-family="Verdana" font-weight="bold" font-size="8.00">«abstract»</text>
<text text-anchor="start" x="141" y="-94.6" font-family="Verdana" font-weight="bold" font-size="8.00">AbstractFormatter</text>
<polygon fill="none" stroke="black" points="93,-70 93,-89 271,-89 271,-70 93,-70"/>
<text text-anchor="start" x="98" y="-77.6" font-family="Verdana" font-size="8.00">+ «static» EOL : string = &quot;\n&quot; {readOnly}</text>
<polygon fill="none" stroke="black" points="93,-64 93,-70 271,-70 271,-64 93,-64"/>
<polygon fill="none" stroke="black" points="93,-32 93,-64 271,-64 271,-32 93,-32"/>
<text text-anchor="start" x="98" y="-52.6" font-family="Verdana" font-size="8.00">+ __construct(options : array)</text>
<text text-anchor="start" x="98" y="-39.6" font-family="Verdana" font-size="8.00">+ getFormat() : string</text>
</g>
<!-- Bartlett\\GraphUml\\Formatter\\FormatterInterface -->
<g id="node2" class="node">
<title>Bartlett\\GraphUml\\Formatter\\FormatterInterface</title>
<polygon fill="#fefece" stroke="transparent" points="666.5,-128 349.5,-128 349.5,-16 666.5,-16 666.5,-128"/>
<polygon fill="#eeeeee" stroke="transparent" points="350,-106 350,-128 667,-128 667,-106 350,-106"/>
<polygon fill="none" stroke="black" points="350,-106 350,-128 667,-128 667,-106 350,-106"/>
<text text-anchor="start" x="482.5" y="-119.6" font-family="Verdana" font-weight="bold" font-size="8.00">«interface»</text>
<text text-anchor="start" x="466" y="-111.6" font-family="Verdana" font-weight="bold" font-size="8.00">FormatterInterface</text>
<polygon fill="none" stroke="black" points="350,-100 350,-106 667,-106 667,-100 350,-100"/>
<polygon fill="none" stroke="black" points="350,-16 350,-100 667,-100 667,-16 350,-16"/>
<text text-anchor="start" x="355" y="-88.6" font-family="Verdana" font-size="8.00">+ «abstract» getFormat() : string</text>
<text text-anchor="start" x="355" y="-75.6" font-family="Verdana" font-size="8.00">+ «abstract» getLabelExtension(reflection : ReflectionExtension) : string</text>
<text text-anchor="start" x="355" y="-62.6" font-family="Verdana" font-size="8.00">+ «abstract» getLabelClass(reflection : ReflectionClass) : string</text>
<text text-anchor="start" x="355" y="-49.6" font-family="Verdana" font-size="8.00">+ «abstract» getLabelConstants(reflection) : string</text>
<text text-anchor="start" x="355" y="-36.6" font-family="Verdana" font-size="8.00">+ «abstract» getLabelProperties(reflection : ReflectionClass) : string</text>
<text text-anchor="start" x="355" y="-23.6" font-family="Verdana" font-size="8.00">+ «abstract» getLabelFunctions(functions : array, class : string = &#39;&#39;) : string</text>
</g>
<!-- Bartlett\\GraphUml\\Formatter\\HtmlFormatter -->
<g id="node3" class="node">
<title>Bartlett\\GraphUml\\Formatter\\HtmlFormatter</title>
<polygon fill="#fefece" stroke="transparent" points="770,-295 306,-295 306,-164 770,-164 770,-295"/>
<polygon fill="#eeeeee" stroke="transparent" points="306,-272.5 306,-294.5 770,-294.5 770,-272.5 306,-272.5"/>
<polygon fill="none" stroke="black" points="306,-272.5 306,-294.5 770,-294.5 770,-272.5 306,-272.5"/>
<text text-anchor="start" x="504.5" y="-278.1" font-family="Verdana" font-weight="bold" font-size="8.00">HtmlFormatter</text>
<polygon fill="none" stroke="black" points="306,-253.5 306,-272.5 770,-272.5 770,-253.5 306,-253.5"/>
<text text-anchor="start" x="311" y="-261.1" font-family="Verdana" font-size="8.00">+ «static» DEFAULT_ROW_FORMAT : string = &quot;\ \ \ \ \&lt;tr\&gt;\&lt;td\ align\=\&quot;left\&quot;\&gt;\%s\&lt;\/td\&gt;\&lt;\/tr\&gt;&quot; {readOnly}</text>
<polygon fill="none" stroke="black" points="306,-247.5 306,-253.5 770,-253.5 770,-247.5 306,-247.5"/>
<polygon fill="none" stroke="black" points="306,-163.5 306,-247.5 770,-247.5 770,-163.5 306,-163.5"/>
<text text-anchor="start" x="311" y="-236.1" font-family="Verdana" font-size="8.00">+ __construct(options : array)</text>
<text text-anchor="start" x="311" y="-223.1" font-family="Verdana" font-size="8.00">+ getLabelExtension(reflection : ReflectionExtension) : string</text>
<text text-anchor="start" x="311" y="-210.1" font-family="Verdana" font-size="8.00">+ getLabelClass(reflection : ReflectionClass) : string</text>
<text text-anchor="start" x="311" y="-197.1" font-family="Verdana" font-size="8.00">+ getLabelConstants(reflection) : string</text>
<text text-anchor="start" x="311" y="-184.1" font-family="Verdana" font-size="8.00">+ getLabelProperties(reflection : ReflectionClass) : string</text>
<text text-anchor="start" x="311" y="-171.1" font-family="Verdana" font-size="8.00">+ getLabelFunctions(functions : array, class : string = &#39;&#39;) : string</text>
</g>
<!-- Bartlett\\GraphUml\\Formatter\\HtmlFormatter&#45;&gt;Bartlett\\GraphUml\\Formatter\\AbstractFormatter -->
<g id="edge1" class="edge">
<title>Bartlett\\GraphUml\\Formatter\\HtmlFormatter&#45;&gt;Bartlett\\GraphUml\\Formatter\\AbstractFormatter</title>
<path fill="none" stroke="black" d="M390.12,-163.9C352.84,-147.62 313.74,-130.54 279.63,-115.64"/>
<polygon fill="none" stroke="black" points="280.71,-112.3 270.14,-111.5 277.91,-118.71 280.71,-112.3"/>
</g>
<!-- Bartlett\\GraphUml\\Formatter\\HtmlFormatter&#45;&gt;Bartlett\\GraphUml\\Formatter\\FormatterInterface -->
<g id="edge2" class="edge">
<title>Bartlett\\GraphUml\\Formatter\\HtmlFormatter&#45;&gt;Bartlett\\GraphUml\\Formatter\\FormatterInterface</title>
<path fill="none" stroke="black" stroke-dasharray="5,2" d="M525.54,-163.9C523.89,-155.39 522.21,-146.65 520.57,-138.13"/>
<polygon fill="none" stroke="black" points="523.99,-137.4 518.66,-128.24 517.12,-138.72 523.99,-137.4"/>
</g>
<!-- Bartlett\\GraphUml\\Formatter\\RecordFormatter -->
<g id="node4" class="node">
<title>Bartlett\\GraphUml\\Formatter\\RecordFormatter</title>
<polygon fill="#fefece" stroke="transparent" points="287.5,-279 16.5,-279 16.5,-180 287.5,-180 287.5,-279"/>
<polygon fill="#eeeeee" stroke="transparent" points="17,-256.5 17,-278.5 288,-278.5 288,-256.5 17,-256.5"/>
<polygon fill="none" stroke="black" points="17,-256.5 17,-278.5 288,-278.5 288,-256.5 17,-256.5"/>
<text text-anchor="start" x="114.5" y="-262.1" font-family="Verdana" font-weight="bold" font-size="8.00">RecordFormatter</text>
<polygon fill="none" stroke="black" points="17,-250.5 17,-256.5 288,-256.5 288,-250.5 17,-250.5"/>
<polygon fill="none" stroke="black" points="17,-179.5 17,-250.5 288,-250.5 288,-179.5 17,-179.5"/>
<text text-anchor="start" x="22" y="-239.1" font-family="Verdana" font-size="8.00">+ getLabelExtension(reflection : ReflectionExtension) : string</text>
<text text-anchor="start" x="22" y="-226.1" font-family="Verdana" font-size="8.00">+ getLabelClass(reflection : ReflectionClass) : string</text>
<text text-anchor="start" x="22" y="-213.1" font-family="Verdana" font-size="8.00">+ getLabelProperties(reflection : ReflectionClass) : string</text>
<text text-anchor="start" x="22" y="-200.1" font-family="Verdana" font-size="8.00">+ getLabelConstants(reflection) : string</text>
<text text-anchor="start" x="22" y="-187.1" font-family="Verdana" font-size="8.00">+ getLabelFunctions(functions : array, class : string = &#39;&#39;) : string</text>
</g>
<!-- Bartlett\\GraphUml\\Formatter\\RecordFormatter&#45;&gt;Bartlett\\GraphUml\\Formatter\\AbstractFormatter -->
<g id="edge3" class="edge">
<title>Bartlett\\GraphUml\\Formatter\\RecordFormatter&#45;&gt;Bartlett\\GraphUml\\Formatter\\AbstractFormatter</title>
<path fill="none" stroke="black" d="M161.41,-179.73C164.98,-161.24 169.04,-140.2 172.6,-121.72"/>
<polygon fill="none" stroke="black" points="176.07,-122.23 174.52,-111.75 169.19,-120.9 176.07,-122.23"/>
</g>
<!-- Bartlett\\GraphUml\\Formatter\\RecordFormatter&#45;&gt;Bartlett\\GraphUml\\Formatter\\FormatterInterface -->
<g id="edge4" class="edge">
<title>Bartlett\\GraphUml\\Formatter\\RecordFormatter&#45;&gt;Bartlett\\GraphUml\\Formatter\\FormatterInterface</title>
<path fill="none" stroke="black" stroke-dasharray="5,2" d="M260.81,-179.94C273.01,-174.54 285.26,-169.14 297,-164 320.65,-153.64 345.84,-142.7 370.26,-132.14"/>
<polygon fill="none" stroke="black" points="371.79,-135.29 379.58,-128.11 369.01,-128.86 371.79,-135.29"/>
</g>
<!-- Bartlett\\GraphUml\\ClassDiagramBuilder -->
<g id="node5" class="node">
<title>Bartlett\\GraphUml\\ClassDiagramBuilder</title>
<polygon fill="#fefece" stroke="transparent" points="1315.5,-282 794.5,-282 794.5,-177 1315.5,-177 1315.5,-282"/>
<polygon fill="#eeeeee" stroke="transparent" points="795,-259.5 795,-281.5 1316,-281.5 1316,-259.5 795,-259.5"/>
<polygon fill="none" stroke="black" points="795,-259.5 795,-281.5 1316,-281.5 1316,-259.5 795,-259.5"/>
<text text-anchor="start" x="1008" y="-265.1" font-family="Verdana" font-weight="bold" font-size="8.00">ClassDiagramBuilder</text>
<polygon fill="none" stroke="black" points="795,-240.5 795,-259.5 1316,-259.5 1316,-240.5 795,-240.5"/>
<text text-anchor="start" x="800" y="-248.1" font-family="Verdana" font-size="8.00">+ «static» OPTIONS_DEFAULTS : array = […] {readOnly}</text>
<polygon fill="none" stroke="black" points="795,-234.5 795,-240.5 1316,-240.5 1316,-234.5 795,-234.5"/>
<polygon fill="none" stroke="black" points="795,-176.5 795,-234.5 1316,-234.5 1316,-176.5 795,-176.5"/>
<text text-anchor="start" x="800" y="-223.1" font-family="Verdana" font-size="8.00">+ __construct(generator : Bartlett\GraphUml\Generator\GeneratorInterface, graph : Graphp\Graph\Graph, options : array = [])</text>
<text text-anchor="start" x="800" y="-210.1" font-family="Verdana" font-size="8.00">+ createVertexClass(source, attributes : array = []) : Graphp\Graph\Vertex</text>
<text text-anchor="start" x="800" y="-197.1" font-family="Verdana" font-size="8.00">+ createVertexExtension(source, attributes : array = []) : Graphp\Graph\Vertex</text>
<text text-anchor="start" x="800" y="-184.1" font-family="Verdana" font-size="8.00">+ createVerticesFromCallable(callback : callable, vertices : Generator) : void</text>
</g>
<!-- Bartlett\\GraphUml\\ClassDiagramBuilderInterface -->
<g id="node6" class="node">
<title>Bartlett\\GraphUml\\ClassDiagramBuilderInterface</title>
<polygon fill="#fefece" stroke="transparent" points="1249,-118 861,-118 861,-26 1249,-26 1249,-118"/>
<polygon fill="#eeeeee" stroke="transparent" points="861,-96 861,-118 1249,-118 1249,-96 861,-96"/>
<polygon fill="none" stroke="black" points="861,-96 861,-118 1249,-118 1249,-96 861,-96"/>
<text text-anchor="start" x="1029" y="-109.6" font-family="Verdana" font-weight="bold" font-size="8.00">«interface»</text>
<text text-anchor="start" x="987" y="-101.6" font-family="Verdana" font-weight="bold" font-size="8.00">ClassDiagramBuilderInterface</text>
<polygon fill="none" stroke="black" points="861,-77 861,-96 1249,-96 1249,-77 861,-77"/>
<text text-anchor="start" x="866" y="-84.6" font-family="Verdana" font-size="8.00">+ «static» OPTIONS_DEFAULTS : array = […] {readOnly}</text>
<polygon fill="none" stroke="black" points="861,-71 861,-77 1249,-77 1249,-71 861,-71"/>
<polygon fill="none" stroke="black" points="861,-26 861,-71 1249,-71 1249,-26 861,-26"/>
<text text-anchor="start" x="866" y="-59.6" font-family="Verdana" font-size="8.00">+ «abstract» createVertexClass(source : mixed, attributes : array = []) : Graphp\Graph\Vertex</text>
<text text-anchor="start" x="866" y="-46.6" font-family="Verdana" font-size="8.00">+ «abstract» createVertexExtension(source, attributes : array = []) : Graphp\Graph\Vertex</text>
<text text-anchor="start" x="866" y="-33.6" font-family="Verdana" font-size="8.00">+ «abstract» createVerticesFromCallable(callback : callable, vertices : Generator) : void</text>
</g>
<!-- Bartlett\\GraphUml\\ClassDiagramBuilder&#45;&gt;Bartlett\\GraphUml\\ClassDiagramBuilderInterface -->
<g id="edge5" class="edge">
<title>Bartlett\\GraphUml\\ClassDiagramBuilder&#45;&gt;Bartlett\\GraphUml\\ClassDiagramBuilderInterface</title>
<path fill="none" stroke="black" stroke-dasharray="5,2" d="M1055,-176.72C1055,-161.14 1055,-143.98 1055,-128.19"/>
<polygon fill="none" stroke="black" points="1058.5,-128.04 1055,-118.04 1051.5,-128.04 1058.5,-128.04"/>
</g>
</g>
</svg>
