<?xml version="1.0" encoding="UTF-8" standalone="no"?>
<!DOCTYPE svg PUBLIC "-//W3C//DTD SVG 1.1//EN"
 "http://www.w3.org/Graphics/SVG/1.1/DTD/svg11.dtd">
<!-- Generated by graphviz version 2.43.0 (0)
 -->
<!-- Title: %3 Pages: 1 -->
<svg width="1040pt" height="1184pt"
 viewBox="0.00 0.00 1040.08 1184.00" xmlns="http://www.w3.org/2000/svg" xmlns:xlink="http://www.w3.org/1999/xlink">
<g id="graph0" class="graph" transform="scale(1 1) rotate(0) translate(4 1180)">
<title>%3</title>
<polygon fill="white" stroke="transparent" points="-4,4 -4,-1180 1036.08,-1180 1036.08,4 -4,4"/>
<!-- bartlett/umlwriter -->
<g id="node1" class="node">
<title>bartlett/umlwriter</title>
<ellipse fill="lightgrey" stroke="black" stroke-width="2" cx="95.54" cy="-644" rx="95.58" ry="18"/>
<text text-anchor="middle" x="95.54" y="-640.3" font-family="Times,serif" font-size="14.00">bartlett/umlwriter</text>
</g>
<!-- php -->
<g id="node2" class="node">
<title>php</title>
<path fill="#eeeeee" stroke="black" d="M902.08,-578C902.08,-578 872.08,-578 872.08,-578 866.08,-578 860.08,-572 860.08,-566 860.08,-566 860.08,-554 860.08,-554 860.08,-548 866.08,-542 872.08,-542 872.08,-542 902.08,-542 902.08,-542 908.08,-542 914.08,-548 914.08,-554 914.08,-554 914.08,-566 914.08,-566 914.08,-572 908.08,-578 902.08,-578"/>
<text text-anchor="middle" x="887.08" y="-556.3" font-family="Times,serif" font-size="14.00" fill="#314b5f">php</text>
</g>
<!-- bartlett/umlwriter&#45;&gt;php -->
<g id="edge1" class="edge">
<title>bartlett/umlwriter&#45;&gt;php</title>
<path fill="none" stroke="#1a2833" d="M126.17,-626.78C159.61,-608.4 216.24,-580.39 269.08,-569 380.79,-544.92 734.81,-554.72 849.7,-558.66"/>
<polygon fill="#1a2833" stroke="#1a2833" points="849.63,-562.16 859.74,-559.01 849.87,-555.16 849.63,-562.16"/>
<text text-anchor="middle" x="422.08" y="-572" font-family="Times,serif" font-size="10.00" fill="#767676">^8.2</text>
</g>
<!-- bartlett/graph&#45;plantuml&#45;generator -->
<g id="node3" class="node">
<title>bartlett/graph&#45;plantuml&#45;generator</title>
<path fill="#eeeeee" stroke="black" d="M563.08,-993C563.08,-993 281.08,-993 281.08,-993 275.08,-993 269.08,-987 269.08,-981 269.08,-981 269.08,-969 269.08,-969 269.08,-963 275.08,-957 281.08,-957 281.08,-957 563.08,-957 563.08,-957 569.08,-957 575.08,-963 575.08,-969 575.08,-969 575.08,-981 575.08,-981 575.08,-987 569.08,-993 563.08,-993"/>
<text text-anchor="middle" x="422.08" y="-971.3" font-family="Times,serif" font-size="14.00" fill="#314b5f">bartlett/graph&#45;plantuml&#45;generator: 1.6.1</text>
</g>
<!-- bartlett/umlwriter&#45;&gt;bartlett/graph&#45;plantuml&#45;generator -->
<g id="edge7" class="edge">
<title>bartlett/umlwriter&#45;&gt;bartlett/graph&#45;plantuml&#45;generator</title>
<path fill="none" stroke="#1a2833" d="M99.16,-662.12C106.92,-709.18 134.11,-836.36 209.08,-905 234.39,-928.17 267.54,-943.68 300.08,-954.07"/>
<polygon fill="#1a2833" stroke="#1a2833" points="299.11,-957.43 309.69,-956.99 301.15,-950.73 299.11,-957.43"/>
<text text-anchor="middle" x="230.08" y="-935" font-family="Times,serif" font-size="10.00" fill="#767676">^1.6</text>
</g>
<!-- bartlett/graph&#45;uml -->
<g id="node4" class="node">
<title>bartlett/graph&#45;uml</title>
<path fill="#eeeeee" stroke="black" d="M972.08,-1081C972.08,-1081 802.08,-1081 802.08,-1081 796.08,-1081 790.08,-1075 790.08,-1069 790.08,-1069 790.08,-1057 790.08,-1057 790.08,-1051 796.08,-1045 802.08,-1045 802.08,-1045 972.08,-1045 972.08,-1045 978.08,-1045 984.08,-1051 984.08,-1057 984.08,-1057 984.08,-1069 984.08,-1069 984.08,-1075 978.08,-1081 972.08,-1081"/>
<text text-anchor="middle" x="887.08" y="-1059.3" font-family="Times,serif" font-size="14.00" fill="#314b5f">bartlett/graph&#45;uml: 1.6.0</text>
</g>
<!-- bartlett/umlwriter&#45;&gt;bartlett/graph&#45;uml -->
<g id="edge8" class="edge">
<title>bartlett/umlwriter&#45;&gt;bartlett/graph&#45;uml</title>
<path fill="none" stroke="#1a2833" d="M98.12,-662.04C104.74,-724.78 136.41,-933.37 269.08,-1002 431.87,-1086.2 651.05,-1085.38 779.6,-1075.39"/>
<polygon fill="#1a2833" stroke="#1a2833" points="780.16,-1078.86 789.84,-1074.56 779.59,-1071.88 780.16,-1078.86"/>
<text text-anchor="middle" x="422.08" y="-1080" font-family="Times,serif" font-size="10.00" fill="#767676">^1.6</text>
</g>
<!-- graphp/graph -->
<g id="node5" class="node">
<title>graphp/graph</title>
<path fill="#eeeeee" stroke="black" d="M962.08,-957C962.08,-957 812.08,-957 812.08,-957 806.08,-957 800.08,-951 800.08,-945 800.08,-945 800.08,-933 800.08,-933 800.08,-927 806.08,-921 812.08,-921 812.08,-921 962.08,-921 962.08,-921 968.08,-921 974.08,-927 974.08,-933 974.08,-933 974.08,-945 974.08,-945 974.08,-951 968.08,-957 962.08,-957"/>
<text text-anchor="middle" x="887.08" y="-935.3" font-family="Times,serif" font-size="14.00" fill="#314b5f">graphp/graph: 1.x&#45;dev</text>
</g>
<!-- bartlett/umlwriter&#45;&gt;graphp/graph -->
<g id="edge13" class="edge">
<title>bartlett/umlwriter&#45;&gt;graphp/graph</title>
<path fill="none" stroke="#1a2833" d="M104.51,-661.95C124.66,-704.75 182.32,-812.04 269.08,-850 455.7,-931.64 526.5,-855.48 724.08,-905 732.41,-907.09 733.83,-909.64 742.08,-912 757.38,-916.37 773.79,-920.21 789.86,-923.53"/>
<polygon fill="#1a2833" stroke="#1a2833" points="789.32,-926.99 799.81,-925.52 790.69,-920.12 789.32,-926.99"/>
<text text-anchor="middle" x="422.08" y="-893" font-family="Times,serif" font-size="10.00" fill="#767676">1.x&#45;dev#0adb04d as 1.0.0</text>
</g>
<!-- graphp/graphviz -->
<g id="node6" class="node">
<title>graphp/graphviz</title>
<path fill="#eeeeee" stroke="black" d="M972.08,-1143C972.08,-1143 802.08,-1143 802.08,-1143 796.08,-1143 790.08,-1137 790.08,-1131 790.08,-1131 790.08,-1119 790.08,-1119 790.08,-1113 796.08,-1107 802.08,-1107 802.08,-1107 972.08,-1107 972.08,-1107 978.08,-1107 984.08,-1113 984.08,-1119 984.08,-1119 984.08,-1131 984.08,-1131 984.08,-1137 978.08,-1143 972.08,-1143"/>
<text text-anchor="middle" x="887.08" y="-1121.3" font-family="Times,serif" font-size="14.00" fill="#314b5f">graphp/graphviz: 1.x&#45;dev</text>
</g>
<!-- bartlett/umlwriter&#45;&gt;graphp/graphviz -->
<g id="edge14" class="edge">
<title>bartlett/umlwriter&#45;&gt;graphp/graphviz</title>
<path fill="none" stroke="#1a2833" d="M96.56,-662.38C97.76,-734.07 113.01,-995.76 269.08,-1092 433.11,-1193.14 670.74,-1168.59 797.92,-1144.94"/>
<polygon fill="#1a2833" stroke="#1a2833" points="798.83,-1148.33 808,-1143.02 797.52,-1141.45 798.83,-1148.33"/>
<text text-anchor="middle" x="422.08" y="-1168" font-family="Times,serif" font-size="10.00" fill="#767676">1.x&#45;dev#686f747 as 1.0.0</text>
</g>
<!-- composer&#45;runtime&#45;api -->
<g id="node8" class="node">
<title>composer&#45;runtime&#45;api</title>
<path fill="#eeeeee" stroke="black" d="M496.58,-787C496.58,-787 347.58,-787 347.58,-787 341.58,-787 335.58,-781 335.58,-775 335.58,-775 335.58,-763 335.58,-763 335.58,-757 341.58,-751 347.58,-751 347.58,-751 496.58,-751 496.58,-751 502.58,-751 508.58,-757 508.58,-763 508.58,-763 508.58,-775 508.58,-775 508.58,-781 502.58,-787 496.58,-787"/>
<text text-anchor="middle" x="422.08" y="-765.3" font-family="Times,serif" font-size="14.00" fill="#314b5f">composer&#45;runtime&#45;api</text>
</g>
<!-- bartlett/umlwriter&#45;&gt;composer&#45;runtime&#45;api -->
<g id="edge9" class="edge">
<title>bartlett/umlwriter&#45;&gt;composer&#45;runtime&#45;api</title>
<path fill="none" stroke="#1a2833" d="M120.95,-661.46C153.25,-683.7 212.7,-721.66 269.08,-742 286.9,-748.43 306.47,-753.36 325.46,-757.14"/>
<polygon fill="#1a2833" stroke="#1a2833" points="324.85,-760.59 335.33,-759.02 326.15,-753.71 324.85,-760.59"/>
<text text-anchor="middle" x="230.08" y="-737" font-family="Times,serif" font-size="10.00" fill="#767676">^2.0</text>
</g>
<!-- cweagans/composer&#45;patches -->
<g id="node9" class="node">
<title>cweagans/composer&#45;patches</title>
<path fill="#eeeeee" stroke="black" d="M542.58,-679C542.58,-679 301.58,-679 301.58,-679 295.58,-679 289.58,-673 289.58,-667 289.58,-667 289.58,-655 289.58,-655 289.58,-649 295.58,-643 301.58,-643 301.58,-643 542.58,-643 542.58,-643 548.58,-643 554.58,-649 554.58,-655 554.58,-655 554.58,-667 554.58,-667 554.58,-673 548.58,-679 542.58,-679"/>
<text text-anchor="middle" x="422.08" y="-657.3" font-family="Times,serif" font-size="14.00" fill="#314b5f">cweagans/composer&#45;patches: 1.7.3</text>
</g>
<!-- bartlett/umlwriter&#45;&gt;cweagans/composer&#45;patches -->
<g id="edge12" class="edge">
<title>bartlett/umlwriter&#45;&gt;cweagans/composer&#45;patches</title>
<path fill="none" stroke="#1a2833" d="M187.81,-648.78C216.23,-650.27 248.27,-651.95 279.3,-653.57"/>
<polygon fill="#1a2833" stroke="#1a2833" points="279.16,-657.07 289.33,-654.1 279.52,-650.08 279.16,-657.07"/>
<text text-anchor="middle" x="230.08" y="-654" font-family="Times,serif" font-size="10.00" fill="#767676">^1.7</text>
</g>
<!-- psr/container -->
<g id="node11" class="node">
<title>psr/container</title>
<path fill="#eeeeee" stroke="black" d="M488.58,-625C488.58,-625 355.58,-625 355.58,-625 349.58,-625 343.58,-619 343.58,-613 343.58,-613 343.58,-601 343.58,-601 343.58,-595 349.58,-589 355.58,-589 355.58,-589 488.58,-589 488.58,-589 494.58,-589 500.58,-595 500.58,-601 500.58,-601 500.58,-613 500.58,-613 500.58,-619 494.58,-625 488.58,-625"/>
<text text-anchor="middle" x="422.08" y="-603.3" font-family="Times,serif" font-size="14.00" fill="#314b5f">psr/container: 2.0.2</text>
</g>
<!-- bartlett/umlwriter&#45;&gt;psr/container -->
<g id="edge16" class="edge">
<title>bartlett/umlwriter&#45;&gt;psr/container</title>
<path fill="none" stroke="#1a2833" d="M177.6,-634.76C225.01,-629.35 284.89,-622.53 333.4,-617"/>
<polygon fill="#1a2833" stroke="#1a2833" points="334.03,-620.45 343.57,-615.84 333.24,-613.49 334.03,-620.45"/>
<text text-anchor="middle" x="230.08" y="-633" font-family="Times,serif" font-size="10.00" fill="#767676">^2.0</text>
</g>
<!-- roave/better&#45;reflection -->
<g id="node12" class="node">
<title>roave/better&#45;reflection</title>
<path fill="#eeeeee" stroke="black" d="M525.58,-841C525.58,-841 318.58,-841 318.58,-841 312.58,-841 306.58,-835 306.58,-829 306.58,-829 306.58,-817 306.58,-817 306.58,-811 312.58,-805 318.58,-805 318.58,-805 525.58,-805 525.58,-805 531.58,-805 537.58,-811 537.58,-817 537.58,-817 537.58,-829 537.58,-829 537.58,-835 531.58,-841 525.58,-841"/>
<text text-anchor="middle" x="422.08" y="-819.3" font-family="Times,serif" font-size="14.00" fill="#314b5f">roave/better&#45;reflection: 6.59.0</text>
</g>
<!-- bartlett/umlwriter&#45;&gt;roave/better&#45;reflection -->
<g id="edge21" class="edge">
<title>bartlett/umlwriter&#45;&gt;roave/better&#45;reflection</title>
<path fill="none" stroke="#1a2833" d="M110.38,-661.89C137.04,-694.87 199.1,-764.74 269.08,-796 277.8,-799.89 287.04,-803.23 296.48,-806.08"/>
<polygon fill="#1a2833" stroke="#1a2833" points="295.8,-809.53 306.37,-808.88 297.71,-802.79 295.8,-809.53"/>
<text text-anchor="middle" x="230.08" y="-787" font-family="Times,serif" font-size="10.00" fill="#767676">^6.0</text>
</g>
<!-- symfony/config -->
<g id="node16" class="node">
<title>symfony/config</title>
<path fill="#eeeeee" stroke="black" d="M498.58,-356C498.58,-356 345.58,-356 345.58,-356 339.58,-356 333.58,-350 333.58,-344 333.58,-344 333.58,-332 333.58,-332 333.58,-326 339.58,-320 345.58,-320 345.58,-320 498.58,-320 498.58,-320 504.58,-320 510.58,-326 510.58,-332 510.58,-332 510.58,-344 510.58,-344 510.58,-350 504.58,-356 498.58,-356"/>
<text text-anchor="middle" x="422.08" y="-334.3" font-family="Times,serif" font-size="14.00" fill="#314b5f">symfony/config: v7.3.0</text>
</g>
<!-- bartlett/umlwriter&#45;&gt;symfony/config -->
<g id="edge26" class="edge">
<title>bartlett/umlwriter&#45;&gt;symfony/config</title>
<path fill="none" stroke="#1a2833" d="M102.59,-625.82C116.65,-585.41 154.51,-486.32 209.08,-418 230.57,-391.1 237.98,-383.76 269.08,-369 286,-360.98 304.93,-355.02 323.54,-350.61"/>
<polygon fill="#1a2833" stroke="#1a2833" points="324.54,-353.97 333.53,-348.38 323.01,-347.14 324.54,-353.97"/>
<text text-anchor="middle" x="230.08" y="-421" font-family="Times,serif" font-size="10.00" fill="#767676">^7.0</text>
</g>
<!-- symfony/console -->
<g id="node20" class="node">
<title>symfony/console</title>
<path fill="#eeeeee" stroke="black" d="M504.08,-195C504.08,-195 340.08,-195 340.08,-195 334.08,-195 328.08,-189 328.08,-183 328.08,-183 328.08,-171 328.08,-171 328.08,-165 334.08,-159 340.08,-159 340.08,-159 504.08,-159 504.08,-159 510.08,-159 516.08,-165 516.08,-171 516.08,-171 516.08,-183 516.08,-183 516.08,-189 510.08,-195 504.08,-195"/>
<text text-anchor="middle" x="422.08" y="-173.3" font-family="Times,serif" font-size="14.00" fill="#314b5f">symfony/console: v7.3.1</text>
</g>
<!-- bartlett/umlwriter&#45;&gt;symfony/console -->
<g id="edge32" class="edge">
<title>bartlett/umlwriter&#45;&gt;symfony/console</title>
<path fill="none" stroke="#1a2833" d="M98.94,-625.92C106.72,-572.63 135.18,-413.18 209.08,-306 244.97,-253.96 309.36,-219.2 357.79,-199"/>
<polygon fill="#1a2833" stroke="#1a2833" points="359.3,-202.17 367.25,-195.16 356.67,-195.68 359.3,-202.17"/>
<text text-anchor="middle" x="230.08" y="-309" font-family="Times,serif" font-size="10.00" fill="#767676">^7.0</text>
</g>
<!-- symfony/finder -->
<g id="node24" class="node">
<title>symfony/finder</title>
<path fill="#eeeeee" stroke="black" d="M498.08,-524C498.08,-524 346.08,-524 346.08,-524 340.08,-524 334.08,-518 334.08,-512 334.08,-512 334.08,-500 334.08,-500 334.08,-494 340.08,-488 346.08,-488 346.08,-488 498.08,-488 498.08,-488 504.08,-488 510.08,-494 510.08,-500 510.08,-500 510.08,-512 510.08,-512 510.08,-518 504.08,-524 498.08,-524"/>
<text text-anchor="middle" x="422.08" y="-502.3" font-family="Times,serif" font-size="14.00" fill="#314b5f">symfony/finder: v7.3.0</text>
</g>
<!-- bartlett/umlwriter&#45;&gt;symfony/finder -->
<g id="edge34" class="edge">
<title>bartlett/umlwriter&#45;&gt;symfony/finder</title>
<path fill="none" stroke="#1a2833" d="M109.08,-626.13C127.72,-601.1 165.3,-556.3 209.08,-535 244.2,-517.92 286.22,-509.98 323.56,-506.55"/>
<polygon fill="#1a2833" stroke="#1a2833" points="324.27,-510 333.95,-505.7 323.7,-503.02 324.27,-510"/>
<text text-anchor="middle" x="230.08" y="-538" font-family="Times,serif" font-size="10.00" fill="#767676">^7.0</text>
</g>
<!-- symfony/options&#45;resolver -->
<g id="node25" class="node">
<title>symfony/options&#45;resolver</title>
<path fill="#eeeeee" stroke="black" d="M535.08,-470C535.08,-470 309.08,-470 309.08,-470 303.08,-470 297.08,-464 297.08,-458 297.08,-458 297.08,-446 297.08,-446 297.08,-440 303.08,-434 309.08,-434 309.08,-434 535.08,-434 535.08,-434 541.08,-434 547.08,-440 547.08,-446 547.08,-446 547.08,-458 547.08,-458 547.08,-464 541.08,-470 535.08,-470"/>
<text text-anchor="middle" x="422.08" y="-448.3" font-family="Times,serif" font-size="14.00" fill="#314b5f">symfony/options&#45;resolver: v7.3.0</text>
</g>
<!-- bartlett/umlwriter&#45;&gt;symfony/options&#45;resolver -->
<g id="edge37" class="edge">
<title>bartlett/umlwriter&#45;&gt;symfony/options&#45;resolver</title>
<path fill="none" stroke="#1a2833" d="M107.15,-625.87C124.94,-596.86 163.34,-539.74 209.08,-505 231.78,-487.76 259.42,-476.07 287.15,-468.16"/>
<polygon fill="#1a2833" stroke="#1a2833" points="288.2,-471.51 296.95,-465.52 286.38,-464.75 288.2,-471.51"/>
<text text-anchor="middle" x="230.08" y="-508" font-family="Times,serif" font-size="10.00" fill="#767676">^7.0</text>
</g>
<!-- symfony/yaml -->
<g id="node26" class="node">
<title>symfony/yaml</title>
<path fill="#eeeeee" stroke="black" d="M494.58,-414C494.58,-414 349.58,-414 349.58,-414 343.58,-414 337.58,-408 337.58,-402 337.58,-402 337.58,-390 337.58,-390 337.58,-384 343.58,-378 349.58,-378 349.58,-378 494.58,-378 494.58,-378 500.58,-378 506.58,-384 506.58,-390 506.58,-390 506.58,-402 506.58,-402 506.58,-408 500.58,-414 494.58,-414"/>
<text text-anchor="middle" x="422.08" y="-392.3" font-family="Times,serif" font-size="14.00" fill="#314b5f">symfony/yaml: v7.3.1</text>
</g>
<!-- bartlett/umlwriter&#45;&gt;symfony/yaml -->
<g id="edge41" class="edge">
<title>bartlett/umlwriter&#45;&gt;symfony/yaml</title>
<path fill="none" stroke="#1a2833" d="M104.86,-625.93C121.2,-591.77 160.21,-516.65 209.08,-466 231.51,-442.76 239.26,-437.4 269.08,-425 287.33,-417.41 307.65,-411.79 327.33,-407.63"/>
<polygon fill="#1a2833" stroke="#1a2833" points="328.12,-411.04 337.24,-405.65 326.75,-404.18 328.12,-411.04"/>
<text text-anchor="middle" x="230.08" y="-469" font-family="Times,serif" font-size="10.00" fill="#767676">^7.0</text>
</g>
<!-- jawira/plantuml -->
<g id="node27" class="node">
<title>jawira/plantuml</title>
<path fill="#eeeeee" stroke="black" d="M514.58,-302C514.58,-302 329.58,-302 329.58,-302 323.58,-302 317.58,-296 317.58,-290 317.58,-290 317.58,-278 317.58,-278 317.58,-272 323.58,-266 329.58,-266 329.58,-266 514.58,-266 514.58,-266 520.58,-266 526.58,-272 526.58,-278 526.58,-278 526.58,-290 526.58,-290 526.58,-296 520.58,-302 514.58,-302"/>
<text text-anchor="middle" x="422.08" y="-280.3" font-family="Times,serif" font-size="14.00" fill="#314b5f">jawira/plantuml: v1.2025.4</text>
</g>
<!-- bartlett/umlwriter&#45;&gt;jawira/plantuml -->
<g id="edge42" class="edge">
<title>bartlett/umlwriter&#45;&gt;jawira/plantuml</title>
<path fill="none" stroke="#1a2833" stroke-dasharray="5,2" d="M100.64,-625.78C111.85,-578.78 146.44,-450.97 209.08,-363 229.55,-334.26 237.23,-326.19 269.08,-311 281.15,-305.24 294.29,-300.71 307.62,-297.13"/>
<polygon fill="#1a2833" stroke="#1a2833" points="308.5,-300.52 317.35,-294.69 306.8,-293.73 308.5,-300.52"/>
<text text-anchor="middle" x="230.08" y="-366" font-family="Times,serif" font-size="10.00" fill="#767676">^1.2025</text>
</g>
<!-- bamarni/composer&#45;bin&#45;plugin -->
<g id="node28" class="node">
<title>bamarni/composer&#45;bin&#45;plugin</title>
<path fill="#eeeeee" stroke="black" d="M545.58,-733C545.58,-733 298.58,-733 298.58,-733 292.58,-733 286.58,-727 286.58,-721 286.58,-721 286.58,-709 286.58,-709 286.58,-703 292.58,-697 298.58,-697 298.58,-697 545.58,-697 545.58,-697 551.58,-697 557.58,-703 557.58,-709 557.58,-709 557.58,-721 557.58,-721 557.58,-727 551.58,-733 545.58,-733"/>
<text text-anchor="middle" x="422.08" y="-711.3" font-family="Times,serif" font-size="14.00" fill="#314b5f">bamarni/composer&#45;bin&#45;plugin: 1.8.2</text>
</g>
<!-- bartlett/umlwriter&#45;&gt;bamarni/composer&#45;bin&#45;plugin -->
<g id="edge45" class="edge">
<title>bartlett/umlwriter&#45;&gt;bamarni/composer&#45;bin&#45;plugin</title>
<path fill="none" stroke="#1a2833" stroke-dasharray="5,2" d="M150.31,-658.8C184.23,-667.87 229.05,-679.35 269.08,-688 280.34,-690.43 292.1,-692.81 303.88,-695.08"/>
<polygon fill="#1a2833" stroke="#1a2833" points="303.29,-698.53 313.76,-696.96 304.59,-691.65 303.29,-698.53"/>
<text text-anchor="middle" x="230.08" y="-686" font-family="Times,serif" font-size="10.00" fill="#767676">^1.8</text>
</g>
<!-- bartlett/graph&#45;plantuml&#45;generator&#45;&gt;php -->
<g id="edge6" class="edge">
<title>bartlett/graph&#45;plantuml&#45;generator&#45;&gt;php</title>
<path fill="none" stroke="#1a2833" d="M492.42,-956.95C576.57,-934.39 709.15,-896.51 724.08,-878 749.6,-846.37 724.18,-732.48 742.08,-696 766.53,-646.2 817.35,-605.16 851.6,-581.61"/>
<polygon fill="#1a2833" stroke="#1a2833" points="853.58,-584.49 859.92,-576.01 849.67,-578.69 853.58,-584.49"/>
<text text-anchor="middle" x="658.58" y="-929" font-family="Times,serif" font-size="10.00" fill="#767676">^8.1</text>
</g>
<!-- bartlett/graph&#45;plantuml&#45;generator&#45;&gt;bartlett/graph&#45;uml -->
<g id="edge2" class="edge">
<title>bartlett/graph&#45;plantuml&#45;generator&#45;&gt;bartlett/graph&#45;uml</title>
<path fill="none" stroke="#1a2833" d="M534.81,-993C591.61,-1002.48 661.65,-1014.68 724.08,-1027 748.3,-1031.78 774.46,-1037.39 798.55,-1042.75"/>
<polygon fill="#1a2833" stroke="#1a2833" points="797.85,-1046.18 808.37,-1044.94 799.38,-1039.35 797.85,-1046.18"/>
<text text-anchor="middle" x="658.58" y="-1030" font-family="Times,serif" font-size="10.00" fill="#767676">^1.6</text>
</g>
<!-- bartlett/graph&#45;plantuml&#45;generator&#45;&gt;graphp/graph -->
<g id="edge3" class="edge">
<title>bartlett/graph&#45;plantuml&#45;generator&#45;&gt;graphp/graph</title>
<path fill="none" stroke="#1a2833" d="M575.33,-963.16C645.98,-957.67 727.84,-951.3 789.8,-946.49"/>
<polygon fill="#1a2833" stroke="#1a2833" points="790.26,-949.96 799.96,-945.7 789.72,-942.98 790.26,-949.96"/>
<text text-anchor="middle" x="658.58" y="-964" font-family="Times,serif" font-size="10.00" fill="#767676">1.x&#45;dev#0adb04d as 1.0.0</text>
</g>
<!-- bartlett/graph&#45;plantuml&#45;generator&#45;&gt;graphp/graphviz -->
<g id="edge4" class="edge">
<title>bartlett/graph&#45;plantuml&#45;generator&#45;&gt;graphp/graphviz</title>
<path fill="none" stroke="#1a2833" d="M467.96,-993.08C529.2,-1017.31 642.71,-1060.66 742.08,-1090 759.36,-1095.1 777.97,-1100.03 795.87,-1104.5"/>
<polygon fill="#1a2833" stroke="#1a2833" points="795.19,-1107.94 805.74,-1106.94 796.87,-1101.14 795.19,-1107.94"/>
<text text-anchor="middle" x="658.58" y="-1085" font-family="Times,serif" font-size="10.00" fill="#767676">1.x&#45;dev#686f747 as 1.0.0</text>
</g>
<!-- jawira/plantuml&#45;encoding -->
<g id="node7" class="node">
<title>jawira/plantuml&#45;encoding</title>
<path fill="#eeeeee" stroke="black" d="M1000.58,-1011C1000.58,-1011 773.58,-1011 773.58,-1011 767.58,-1011 761.58,-1005 761.58,-999 761.58,-999 761.58,-987 761.58,-987 761.58,-981 767.58,-975 773.58,-975 773.58,-975 1000.58,-975 1000.58,-975 1006.58,-975 1012.58,-981 1012.58,-987 1012.58,-987 1012.58,-999 1012.58,-999 1012.58,-1005 1006.58,-1011 1000.58,-1011"/>
<text text-anchor="middle" x="887.08" y="-989.3" font-family="Times,serif" font-size="14.00" fill="#314b5f">jawira/plantuml&#45;encoding: v1.1.1</text>
</g>
<!-- bartlett/graph&#45;plantuml&#45;generator&#45;&gt;jawira/plantuml&#45;encoding -->
<g id="edge5" class="edge">
<title>bartlett/graph&#45;plantuml&#45;generator&#45;&gt;jawira/plantuml&#45;encoding</title>
<path fill="none" stroke="#1a2833" d="M575.33,-980.92C632.15,-983.13 696.21,-985.62 751.35,-987.76"/>
<polygon fill="#1a2833" stroke="#1a2833" points="751.41,-991.27 761.54,-988.16 751.68,-984.27 751.41,-991.27"/>
<text text-anchor="middle" x="658.58" y="-989" font-family="Times,serif" font-size="10.00" fill="#767676">^1.0</text>
</g>
<!-- cweagans/composer&#45;patches&#45;&gt;php -->
<g id="edge11" class="edge">
<title>cweagans/composer&#45;patches&#45;&gt;php</title>
<path fill="none" stroke="#1a2833" d="M535.54,-642.93C548.93,-640.22 562.35,-637.23 575.08,-634 583.26,-631.92 584.92,-630.1 593.08,-628 650.41,-613.27 666.36,-617.1 724.08,-604 767.68,-594.1 817.2,-580.27 849.88,-570.77"/>
<polygon fill="#1a2833" stroke="#1a2833" points="851.26,-574.01 859.88,-567.85 849.3,-567.29 851.26,-574.01"/>
<text text-anchor="middle" x="658.58" y="-631" font-family="Times,serif" font-size="10.00" fill="#767676">&gt;=5.3.0</text>
</g>
<!-- composer&#45;plugin&#45;api -->
<g id="node10" class="node">
<title>composer&#45;plugin&#45;api</title>
<path fill="#eeeeee" stroke="black" d="M955.58,-741C955.58,-741 818.58,-741 818.58,-741 812.58,-741 806.58,-735 806.58,-729 806.58,-729 806.58,-717 806.58,-717 806.58,-711 812.58,-705 818.58,-705 818.58,-705 955.58,-705 955.58,-705 961.58,-705 967.58,-711 967.58,-717 967.58,-717 967.58,-729 967.58,-729 967.58,-735 961.58,-741 955.58,-741"/>
<text text-anchor="middle" x="887.08" y="-719.3" font-family="Times,serif" font-size="14.00" fill="#314b5f">composer&#45;plugin&#45;api</text>
</g>
<!-- cweagans/composer&#45;patches&#45;&gt;composer&#45;plugin&#45;api -->
<g id="edge10" class="edge">
<title>cweagans/composer&#45;patches&#45;&gt;composer&#45;plugin&#45;api</title>
<path fill="none" stroke="#1a2833" d="M554.69,-678.78C561.75,-681.45 568.59,-684.5 575.08,-688 585.32,-693.52 582.53,-702.11 593.08,-707 628.02,-723.17 723.83,-725.82 796.46,-725.29"/>
<polygon fill="#1a2833" stroke="#1a2833" points="796.58,-728.78 806.55,-725.19 796.52,-721.78 796.58,-728.78"/>
<text text-anchor="middle" x="658.58" y="-727" font-family="Times,serif" font-size="10.00" fill="#767676">^1.0 || ^2.0</text>
</g>
<!-- psr/container&#45;&gt;php -->
<g id="edge15" class="edge">
<title>psr/container&#45;&gt;php</title>
<path fill="none" stroke="#1a2833" d="M500.84,-599.11C601.99,-588.84 774.6,-571.32 849.55,-563.71"/>
<polygon fill="#1a2833" stroke="#1a2833" points="850.29,-567.15 859.88,-562.66 849.58,-560.19 850.29,-567.15"/>
<text text-anchor="middle" x="658.58" y="-592" font-family="Times,serif" font-size="10.00" fill="#767676">&gt;=7.4.0</text>
</g>
<!-- roave/better&#45;reflection&#45;&gt;php -->
<g id="edge20" class="edge">
<title>roave/better&#45;reflection&#45;&gt;php</title>
<path fill="none" stroke="#1a2833" d="M537.78,-818.49C551.71,-813.62 564.67,-806.43 575.08,-796 607.62,-763.43 560.28,-726.29 593.08,-694 635.1,-652.63 669.41,-695.09 724.08,-673 776.33,-651.89 828.24,-611.33 858.73,-584.98"/>
<polygon fill="#1a2833" stroke="#1a2833" points="861.16,-587.5 866.38,-578.28 856.55,-582.24 861.16,-587.5"/>
<text text-anchor="middle" x="658.58" y="-697" font-family="Times,serif" font-size="10.00" fill="#767676">~8.2.0 || ~8.3.2 || ~8.4.1</text>
</g>
<!-- ext&#45;json -->
<g id="node13" class="node">
<title>ext&#45;json</title>
<path fill="#eeeeee" stroke="black" d="M911.58,-849C911.58,-849 862.58,-849 862.58,-849 856.58,-849 850.58,-843 850.58,-837 850.58,-837 850.58,-825 850.58,-825 850.58,-819 856.58,-813 862.58,-813 862.58,-813 911.58,-813 911.58,-813 917.58,-813 923.58,-819 923.58,-825 923.58,-825 923.58,-837 923.58,-837 923.58,-843 917.58,-849 911.58,-849"/>
<text text-anchor="middle" x="887.08" y="-827.3" font-family="Times,serif" font-size="14.00" fill="#314b5f">ext&#45;json</text>
</g>
<!-- roave/better&#45;reflection&#45;&gt;ext&#45;json -->
<g id="edge17" class="edge">
<title>roave/better&#45;reflection&#45;&gt;ext&#45;json</title>
<path fill="none" stroke="#1a2833" d="M537.83,-824.98C635.39,-826.67 770.43,-829 840.22,-830.21"/>
<polygon fill="#1a2833" stroke="#1a2833" points="840.38,-833.71 850.43,-830.38 840.5,-826.71 840.38,-833.71"/>
<text text-anchor="middle" x="658.58" y="-831" font-family="Times,serif" font-size="10.00" fill="#767676">*</text>
</g>
<!-- jetbrains/phpstorm&#45;stubs -->
<g id="node14" class="node">
<title>jetbrains/phpstorm&#45;stubs</title>
<path fill="#eeeeee" stroke="black" d="M1007.08,-795C1007.08,-795 767.08,-795 767.08,-795 761.08,-795 755.08,-789 755.08,-783 755.08,-783 755.08,-771 755.08,-771 755.08,-765 761.08,-759 767.08,-759 767.08,-759 1007.08,-759 1007.08,-759 1013.08,-759 1019.08,-765 1019.08,-771 1019.08,-771 1019.08,-783 1019.08,-783 1019.08,-789 1013.08,-795 1007.08,-795"/>
<text text-anchor="middle" x="887.08" y="-773.3" font-family="Times,serif" font-size="14.00" fill="#314b5f">jetbrains/phpstorm&#45;stubs: v2024.3</text>
</g>
<!-- roave/better&#45;reflection&#45;&gt;jetbrains/phpstorm&#45;stubs -->
<g id="edge18" class="edge">
<title>roave/better&#45;reflection&#45;&gt;jetbrains/phpstorm&#45;stubs</title>
<path fill="none" stroke="#1a2833" d="M537.83,-811.6C600.37,-805.39 678.3,-797.64 744.58,-791.06"/>
<polygon fill="#1a2833" stroke="#1a2833" points="745.08,-794.53 754.69,-790.05 744.39,-787.56 745.08,-794.53"/>
<text text-anchor="middle" x="658.58" y="-808" font-family="Times,serif" font-size="10.00" fill="#767676">2024.3</text>
</g>
<!-- nikic/php&#45;parser -->
<g id="node15" class="node">
<title>nikic/php&#45;parser</title>
<path fill="#eeeeee" stroke="black" d="M968.08,-903C968.08,-903 806.08,-903 806.08,-903 800.08,-903 794.08,-897 794.08,-891 794.08,-891 794.08,-879 794.08,-879 794.08,-873 800.08,-867 806.08,-867 806.08,-867 968.08,-867 968.08,-867 974.08,-867 980.08,-873 980.08,-879 980.08,-879 980.08,-891 980.08,-891 980.08,-897 974.08,-903 968.08,-903"/>
<text text-anchor="middle" x="887.08" y="-881.3" font-family="Times,serif" font-size="14.00" fill="#314b5f">nikic/php&#45;parser: v5.5.0</text>
</g>
<!-- roave/better&#45;reflection&#45;&gt;nikic/php&#45;parser -->
<g id="edge19" class="edge">
<title>roave/better&#45;reflection&#45;&gt;nikic/php&#45;parser</title>
<path fill="none" stroke="#1a2833" d="M537.83,-838.37C613.28,-848.47 711.15,-861.58 783.92,-871.32"/>
<polygon fill="#1a2833" stroke="#1a2833" points="783.64,-874.81 794.01,-872.67 784.57,-867.87 783.64,-874.81"/>
<text text-anchor="middle" x="658.58" y="-866" font-family="Times,serif" font-size="10.00" fill="#767676">^5.4.0</text>
</g>
<!-- symfony/config&#45;&gt;php -->
<g id="edge22" class="edge">
<title>symfony/config&#45;&gt;php</title>
<path fill="none" stroke="#1a2833" d="M510.92,-353.27C532.1,-357.68 554.54,-362.96 575.08,-369 583.32,-371.42 584.8,-373.75 593.08,-376 649.99,-391.44 671.61,-370.1 724.08,-397 787.68,-429.61 841.6,-496.39 868.24,-533.56"/>
<polygon fill="#1a2833" stroke="#1a2833" points="865.49,-535.74 874.11,-541.89 871.22,-531.7 865.49,-535.74"/>
<text text-anchor="middle" x="658.58" y="-400" font-family="Times,serif" font-size="10.00" fill="#767676">&gt;=8.2</text>
</g>
<!-- symfony/deprecation&#45;contracts -->
<g id="node17" class="node">
<title>symfony/deprecation&#45;contracts</title>
<path fill="#eeeeee" stroke="black" d="M1020.08,-327C1020.08,-327 754.08,-327 754.08,-327 748.08,-327 742.08,-321 742.08,-315 742.08,-315 742.08,-303 742.08,-303 742.08,-297 748.08,-291 754.08,-291 754.08,-291 1020.08,-291 1020.08,-291 1026.08,-291 1032.08,-297 1032.08,-303 1032.08,-303 1032.08,-315 1032.08,-315 1032.08,-321 1026.08,-327 1020.08,-327"/>
<text text-anchor="middle" x="887.08" y="-305.3" font-family="Times,serif" font-size="14.00" fill="#314b5f">symfony/deprecation&#45;contracts: v3.6.0</text>
</g>
<!-- symfony/config&#45;&gt;symfony/deprecation&#45;contracts -->
<g id="edge23" class="edge">
<title>symfony/config&#45;&gt;symfony/deprecation&#45;contracts</title>
<path fill="none" stroke="#1a2833" d="M510.91,-337.73C533.86,-333.81 557.16,-325.91 575.08,-311 592.6,-296.43 574.36,-275.98 593.08,-263 640.94,-229.84 667.42,-249.62 724.08,-263 732.79,-265.05 733.7,-268.87 742.08,-272 758.35,-278.08 776.02,-283.52 793.23,-288.24"/>
<polygon fill="#1a2833" stroke="#1a2833" points="792.72,-291.72 803.29,-290.93 794.53,-284.96 792.72,-291.72"/>
<text text-anchor="middle" x="658.58" y="-266" font-family="Times,serif" font-size="10.00" fill="#767676">^2.5|^3</text>
</g>
<!-- symfony/filesystem -->
<g id="node18" class="node">
<title>symfony/filesystem</title>
<path fill="#eeeeee" stroke="black" d="M978.58,-198C978.58,-198 795.58,-198 795.58,-198 789.58,-198 783.58,-192 783.58,-186 783.58,-186 783.58,-174 783.58,-174 783.58,-168 789.58,-162 795.58,-162 795.58,-162 978.58,-162 978.58,-162 984.58,-162 990.58,-168 990.58,-174 990.58,-174 990.58,-186 990.58,-186 990.58,-192 984.58,-198 978.58,-198"/>
<text text-anchor="middle" x="887.08" y="-176.3" font-family="Times,serif" font-size="14.00" fill="#314b5f">symfony/filesystem: v7.3.0</text>
</g>
<!-- symfony/config&#45;&gt;symfony/filesystem -->
<g id="edge24" class="edge">
<title>symfony/config&#45;&gt;symfony/filesystem</title>
<path fill="none" stroke="#1a2833" d="M510.65,-340.86C534.56,-337.18 558.44,-328.64 575.08,-311 621.77,-261.52 542.23,-204.19 593.08,-159 606.72,-146.88 696.63,-154.87 773.31,-164.27"/>
<polygon fill="#1a2833" stroke="#1a2833" points="773.19,-167.79 783.54,-165.55 774.05,-160.84 773.19,-167.79"/>
<text text-anchor="middle" x="658.58" y="-162" font-family="Times,serif" font-size="10.00" fill="#767676">^7.1</text>
</g>
<!-- symfony/polyfill&#45;ctype -->
<g id="node19" class="node">
<title>symfony/polyfill&#45;ctype</title>
<path fill="#eeeeee" stroke="black" d="M992.58,-263C992.58,-263 781.58,-263 781.58,-263 775.58,-263 769.58,-257 769.58,-251 769.58,-251 769.58,-239 769.58,-239 769.58,-233 775.58,-227 781.58,-227 781.58,-227 992.58,-227 992.58,-227 998.58,-227 1004.58,-233 1004.58,-239 1004.58,-239 1004.58,-251 1004.58,-251 1004.58,-257 998.58,-263 992.58,-263"/>
<text text-anchor="middle" x="887.08" y="-241.3" font-family="Times,serif" font-size="14.00" fill="#314b5f">symfony/polyfill&#45;ctype: v1.32.0</text>
</g>
<!-- symfony/config&#45;&gt;symfony/polyfill&#45;ctype -->
<g id="edge25" class="edge">
<title>symfony/config&#45;&gt;symfony/polyfill&#45;ctype</title>
<path fill="none" stroke="#1a2833" d="M510.65,-340.41C534.42,-336.7 558.21,-328.24 575.08,-311 611.57,-273.71 553.46,-228.95 593.08,-195 637.3,-157.12 668.36,-178.13 724.08,-195 733.29,-197.79 733.32,-203.05 742.08,-207 756.82,-213.64 772.95,-219.3 788.92,-224.06"/>
<polygon fill="#1a2833" stroke="#1a2833" points="788.24,-227.51 798.82,-226.92 790.18,-220.79 788.24,-227.51"/>
<text text-anchor="middle" x="658.58" y="-198" font-family="Times,serif" font-size="10.00" fill="#767676">~1.8</text>
</g>
<!-- symfony/console&#45;&gt;php -->
<g id="edge27" class="edge">
<title>symfony/console&#45;&gt;php</title>
<path fill="none" stroke="#1a2833" d="M484.09,-195.05C515.83,-207.5 552.6,-227.27 575.08,-257 598.38,-287.8 565.11,-315.38 593.08,-342 635.8,-382.65 672.93,-333.66 724.08,-363 795.47,-403.95 848.59,-489.28 872.34,-532.96"/>
<polygon fill="#1a2833" stroke="#1a2833" points="869.3,-534.69 877.09,-541.87 875.48,-531.4 869.3,-534.69"/>
<text text-anchor="middle" x="658.58" y="-366" font-family="Times,serif" font-size="10.00" fill="#767676">&gt;=8.2</text>
</g>
<!-- symfony/console&#45;&gt;symfony/deprecation&#45;contracts -->
<g id="edge28" class="edge">
<title>symfony/console&#45;&gt;symfony/deprecation&#45;contracts</title>
<path fill="none" stroke="#1a2833" d="M516.22,-192.86C603.85,-207.87 721.99,-228.34 724.08,-230 740,-242.61 726.66,-258.78 742.08,-272 748.63,-277.61 755.93,-282.39 763.66,-286.46"/>
<polygon fill="#1a2833" stroke="#1a2833" points="762.39,-289.73 772.92,-290.91 765.42,-283.43 762.39,-289.73"/>
<text text-anchor="middle" x="658.58" y="-233" font-family="Times,serif" font-size="10.00" fill="#767676">^2.5|^3</text>
</g>
<!-- symfony/polyfill&#45;mbstring -->
<g id="node21" class="node">
<title>symfony/polyfill&#45;mbstring</title>
<path fill="#eeeeee" stroke="black" d="M1005.58,-90C1005.58,-90 768.58,-90 768.58,-90 762.58,-90 756.58,-84 756.58,-78 756.58,-78 756.58,-66 756.58,-66 756.58,-60 762.58,-54 768.58,-54 768.58,-54 1005.58,-54 1005.58,-54 1011.58,-54 1017.58,-60 1017.58,-66 1017.58,-66 1017.58,-78 1017.58,-78 1017.58,-84 1011.58,-90 1005.58,-90"/>
<text text-anchor="middle" x="887.08" y="-68.3" font-family="Times,serif" font-size="14.00" fill="#314b5f">symfony/polyfill&#45;mbstring: v1.32.0</text>
</g>
<!-- symfony/console&#45;&gt;symfony/polyfill&#45;mbstring -->
<g id="edge29" class="edge">
<title>symfony/console&#45;&gt;symfony/polyfill&#45;mbstring</title>
<path fill="none" stroke="#1a2833" d="M456.85,-158.93C490.41,-141.85 543.85,-116.95 593.08,-104 642.27,-91.06 697.44,-83.35 746.52,-78.75"/>
<polygon fill="#1a2833" stroke="#1a2833" points="746.93,-82.23 756.58,-77.84 746.3,-75.25 746.93,-82.23"/>
<text text-anchor="middle" x="658.58" y="-107" font-family="Times,serif" font-size="10.00" fill="#767676">~1.0</text>
</g>
<!-- symfony/service&#45;contracts -->
<g id="node22" class="node">
<title>symfony/service&#45;contracts</title>
<path fill="#eeeeee" stroke="black" d="M1003.58,-36C1003.58,-36 770.58,-36 770.58,-36 764.58,-36 758.58,-30 758.58,-24 758.58,-24 758.58,-12 758.58,-12 758.58,-6 764.58,0 770.58,0 770.58,0 1003.58,0 1003.58,0 1009.58,0 1015.58,-6 1015.58,-12 1015.58,-12 1015.58,-24 1015.58,-24 1015.58,-30 1009.58,-36 1003.58,-36"/>
<text text-anchor="middle" x="887.08" y="-14.3" font-family="Times,serif" font-size="14.00" fill="#314b5f">symfony/service&#45;contracts: v3.6.0</text>
</g>
<!-- symfony/console&#45;&gt;symfony/service&#45;contracts -->
<g id="edge30" class="edge">
<title>symfony/console&#45;&gt;symfony/service&#45;contracts</title>
<path fill="none" stroke="#1a2833" d="M444.56,-158.89C475.34,-133.97 534.74,-89.63 593.08,-67 641.99,-48.03 698.29,-36.4 748.39,-29.27"/>
<polygon fill="#1a2833" stroke="#1a2833" points="748.89,-32.73 758.32,-27.9 747.94,-25.8 748.89,-32.73"/>
<text text-anchor="middle" x="658.58" y="-70" font-family="Times,serif" font-size="10.00" fill="#767676">^2.5|^3</text>
</g>
<!-- symfony/string -->
<g id="node23" class="node">
<title>symfony/string</title>
<path fill="#eeeeee" stroke="black" d="M963.58,-144C963.58,-144 810.58,-144 810.58,-144 804.58,-144 798.58,-138 798.58,-132 798.58,-132 798.58,-120 798.58,-120 798.58,-114 804.58,-108 810.58,-108 810.58,-108 963.58,-108 963.58,-108 969.58,-108 975.58,-114 975.58,-120 975.58,-120 975.58,-132 975.58,-132 975.58,-138 969.58,-144 963.58,-144"/>
<text text-anchor="middle" x="887.08" y="-122.3" font-family="Times,serif" font-size="14.00" fill="#314b5f">symfony/string: v7.3.0</text>
</g>
<!-- symfony/console&#45;&gt;symfony/string -->
<g id="edge31" class="edge">
<title>symfony/console&#45;&gt;symfony/string</title>
<path fill="none" stroke="#1a2833" d="M471,-158.95C504.62,-147.28 550.92,-133.15 593.08,-127 657.66,-117.59 731.1,-117.36 788.3,-119.47"/>
<polygon fill="#1a2833" stroke="#1a2833" points="788.29,-122.97 798.43,-119.88 788.57,-115.98 788.29,-122.97"/>
<text text-anchor="middle" x="658.58" y="-130" font-family="Times,serif" font-size="10.00" fill="#767676">^7.2</text>
</g>
<!-- symfony/finder&#45;&gt;php -->
<g id="edge33" class="edge">
<title>symfony/finder&#45;&gt;php</title>
<path fill="none" stroke="#1a2833" d="M510.16,-513.07C570.35,-518.27 652.2,-526 724.08,-535 767.53,-540.44 817.26,-548.37 850.04,-553.83"/>
<polygon fill="#1a2833" stroke="#1a2833" points="849.61,-557.31 860.05,-555.51 850.77,-550.41 849.61,-557.31"/>
<text text-anchor="middle" x="658.58" y="-538" font-family="Times,serif" font-size="10.00" fill="#767676">&gt;=8.2</text>
</g>
<!-- symfony/options&#45;resolver&#45;&gt;php -->
<g id="edge35" class="edge">
<title>symfony/options&#45;resolver&#45;&gt;php</title>
<path fill="none" stroke="#1a2833" d="M524.89,-470.03C541.66,-473.02 558.86,-476.09 575.08,-479 641.33,-490.89 658.88,-489.32 724.08,-506 768.33,-517.32 817.99,-534.57 850.53,-546.52"/>
<polygon fill="#1a2833" stroke="#1a2833" points="849.46,-549.85 860.05,-550.04 851.89,-543.29 849.46,-549.85"/>
<text text-anchor="middle" x="658.58" y="-509" font-family="Times,serif" font-size="10.00" fill="#767676">&gt;=8.2</text>
</g>
<!-- symfony/options&#45;resolver&#45;&gt;symfony/deprecation&#45;contracts -->
<g id="edge36" class="edge">
<title>symfony/options&#45;resolver&#45;&gt;symfony/deprecation&#45;contracts</title>
<path fill="none" stroke="#1a2833" d="M547.44,-466.79C603.11,-468.88 668.57,-464.94 724.08,-444 783.45,-421.61 836.68,-367.66 864.88,-335.15"/>
<polygon fill="#1a2833" stroke="#1a2833" points="867.68,-337.26 871.5,-327.37 862.35,-332.72 867.68,-337.26"/>
<text text-anchor="middle" x="658.58" y="-469" font-family="Times,serif" font-size="10.00" fill="#767676">^2.5|^3</text>
</g>
<!-- symfony/yaml&#45;&gt;php -->
<g id="edge38" class="edge">
<title>symfony/yaml&#45;&gt;php</title>
<path fill="none" stroke="#1a2833" d="M506.69,-403.35C588.74,-410.94 704.38,-422.81 724.08,-431 780.7,-454.55 833.78,-503.97 862.91,-534.35"/>
<polygon fill="#1a2833" stroke="#1a2833" points="860.37,-536.76 869.78,-541.63 865.46,-531.96 860.37,-536.76"/>
<text text-anchor="middle" x="658.58" y="-434" font-family="Times,serif" font-size="10.00" fill="#767676">&gt;=8.2</text>
</g>
<!-- symfony/yaml&#45;&gt;symfony/deprecation&#45;contracts -->
<g id="edge39" class="edge">
<title>symfony/yaml&#45;&gt;symfony/deprecation&#45;contracts</title>
<path fill="none" stroke="#1a2833" d="M506.67,-392.27C530.58,-387.85 555.46,-379.69 575.08,-365 588.77,-354.75 578.78,-340.36 593.08,-331 605.57,-322.83 667.83,-317.53 731.77,-314.19"/>
<polygon fill="#1a2833" stroke="#1a2833" points="732.23,-317.67 742.04,-313.67 731.88,-310.68 732.23,-317.67"/>
<text text-anchor="middle" x="658.58" y="-334" font-family="Times,serif" font-size="10.00" fill="#767676">^2.5|^3.0</text>
</g>
<!-- symfony/yaml&#45;&gt;symfony/polyfill&#45;ctype -->
<g id="edge40" class="edge">
<title>symfony/yaml&#45;&gt;symfony/polyfill&#45;ctype</title>
<path fill="none" stroke="#1a2833" d="M506.81,-395.15C531.44,-390.95 556.67,-382.18 575.08,-365 597,-344.55 571.01,-320.28 593.08,-300 594.86,-298.37 694.07,-279.96 776.55,-264.88"/>
<polygon fill="#1a2833" stroke="#1a2833" points="777.31,-268.3 786.52,-263.06 776.05,-261.42 777.31,-268.3"/>
<text text-anchor="middle" x="658.58" y="-303" font-family="Times,serif" font-size="10.00" fill="#767676">^1.8</text>
</g>
<!-- bamarni/composer&#45;bin&#45;plugin&#45;&gt;php -->
<g id="edge44" class="edge">
<title>bamarni/composer&#45;bin&#45;plugin&#45;&gt;php</title>
<path fill="none" stroke="#1a2833" d="M557.62,-697.39C563.7,-694.66 569.56,-691.55 575.08,-688 586.91,-680.41 581.25,-669.58 593.08,-662 642.87,-630.12 667.86,-657.24 724.08,-639 769.73,-624.19 818.82,-598.77 850.85,-580.77"/>
<polygon fill="#1a2833" stroke="#1a2833" points="852.86,-583.66 859.82,-575.68 849.4,-577.57 852.86,-583.66"/>
<text text-anchor="middle" x="658.58" y="-665" font-family="Times,serif" font-size="10.00" fill="#767676">^7.2.5 || ^8.0</text>
</g>
<!-- bamarni/composer&#45;bin&#45;plugin&#45;&gt;composer&#45;plugin&#45;api -->
<g id="edge43" class="edge">
<title>bamarni/composer&#45;bin&#45;plugin&#45;&gt;composer&#45;plugin&#45;api</title>
<path fill="none" stroke="#1a2833" d="M523.92,-733C546.6,-736.33 570.61,-739.29 593.08,-741 651.14,-745.41 665.95,-744.22 724.08,-741 747.57,-739.7 772.88,-737.35 796.36,-734.76"/>
<polygon fill="#1a2833" stroke="#1a2833" points="796.76,-738.24 806.3,-733.64 795.97,-731.28 796.76,-738.24"/>
<text text-anchor="middle" x="658.58" y="-746" font-family="Times,serif" font-size="10.00" fill="#767676">^2.0</text>
</g>
</g>
</svg>
