<?xml version="1.0" encoding="UTF-8" standalone="no"?>
<!DOCTYPE svg PUBLIC "-//W3C//DTD SVG 1.1//EN"
 "http://www.w3.org/Graphics/SVG/1.1/DTD/svg11.dtd">
<!-- Generated by graphviz version 2.43.0 (0)
 -->
<!-- Title: %3 Pages: 1 -->
<svg width="3727pt" height="1020pt"
 viewBox="0.00 0.00 3727.00 1020.00" xmlns="http://www.w3.org/2000/svg" xmlns:xlink="http://www.w3.org/1999/xlink">
<g id="graph0" class="graph" transform="scale(1 1) rotate(0) translate(4 1016)">
<title>%3</title>
<g id="clust1" class="cluster">
<title>cluster_0</title>
<polygon fill="transparent" stroke="black" points="8,-872.5 8,-997.5 972,-997.5 972,-872.5 8,-872.5"/>
<text text-anchor="middle" x="490" y="-982.3" font-family="Times,serif" font-size="14.00">Bartlett\UmlWriter\Service</text>
</g>
<g id="clust2" class="cluster">
<title>cluster_1</title>
<polygon fill="transparent" stroke="black" points="15,-512 15,-611 183,-611 183,-512 15,-512"/>
<text text-anchor="middle" x="99" y="-595.8" font-family="Times,serif" font-size="14.00">Psr\Container</text>
</g>
<g id="clust3" class="cluster">
<title>cluster_2</title>
<polygon fill="transparent" stroke="black" points="980,-892 980,-978 1740,-978 1740,-892 980,-892"/>
<text text-anchor="middle" x="1360" y="-962.8" font-family="Times,serif" font-size="14.00">Bartlett\UmlWriter\Console\Command</text>
</g>
<g id="clust4" class="cluster">
<title>cluster_3</title>
<polygon fill="transparent" stroke="black" points="1006,-149.5 1006,-832 1714,-832 1714,-149.5 1006,-149.5"/>
<text text-anchor="middle" x="1360" y="-816.8" font-family="Times,serif" font-size="14.00">Symfony\Component\Console\Command</text>
</g>
<g id="clust5" class="cluster">
<title>cluster_4</title>
<polygon fill="transparent" stroke="black" points="1748,-866 1748,-1004 2434,-1004 2434,-866 1748,-866"/>
<text text-anchor="middle" x="2091" y="-988.8" font-family="Times,serif" font-size="14.00">Bartlett\UmlWriter\Console</text>
</g>
<g id="clust6" class="cluster">
<title>cluster_5</title>
<polygon fill="transparent" stroke="black" points="1737,-265 1737,-858 2445,-858 2445,-265 1737,-265"/>
<text text-anchor="middle" x="2091" y="-842.8" font-family="Times,serif" font-size="14.00">Symfony\Component\Console</text>
</g>
<g id="clust7" class="cluster">
<title>cluster_6</title>
<polygon fill="transparent" stroke="black" points="1986,-156 1986,-242 2197,-242 2197,-156 1986,-156"/>
<text text-anchor="middle" x="2091.5" y="-226.8" font-family="Times,serif" font-size="14.00">Symfony\Contracts\Service</text>
</g>
<g id="clust8" class="cluster">
<title>cluster_7</title>
<polygon fill="transparent" stroke="black" points="2453,-518.5 2453,-978 3017,-978 3017,-518.5 2453,-518.5"/>
<text text-anchor="middle" x="2735" y="-962.8" font-family="Times,serif" font-size="14.00">Bartlett\UmlWriter\Generator</text>
</g>
<g id="clust9" class="cluster">
<title>cluster_8</title>
<polygon fill="transparent" stroke="black" points="3233,-885.5 3233,-984.5 3503,-984.5 3503,-885.5 3233,-885.5"/>
<text text-anchor="middle" x="3368" y="-969.3" font-family="Times,serif" font-size="14.00">Bartlett\UmlWriter\Config\Loader</text>
</g>
<g id="clust10" class="cluster">
<title>cluster_9</title>
<polygon fill="transparent" stroke="black" points="3025,-8 3025,-624 3711,-624 3711,-8 3025,-8"/>
<text text-anchor="middle" x="3368" y="-608.8" font-family="Times,serif" font-size="14.00">Symfony\Component\Config\Loader</text>
</g>
<!-- Bartlett\\UmlWriter\\Service\\ClassDiagramRenderer -->
<g id="node1" class="node">
<title>Bartlett\\UmlWriter\\Service\\ClassDiagramRenderer</title>
<polygon fill="#fefece" stroke="transparent" points="964,-953.5 416,-953.5 416,-893.5 964,-893.5 964,-953.5"/>
<polygon fill="#eeeeee" stroke="transparent" points="416,-931.5 416,-953.5 964,-953.5 964,-931.5 416,-931.5"/>
<polygon fill="none" stroke="black" points="416,-931.5 416,-953.5 964,-953.5 964,-931.5 416,-931.5"/>
<text text-anchor="start" x="638.5" y="-937.1" font-family="Verdana" font-weight="bold" font-size="8.00">ClassDiagramRenderer</text>
<polygon fill="none" stroke="black" points="416,-925.5 416,-931.5 964,-931.5 964,-925.5 416,-925.5"/>
<polygon fill="none" stroke="black" points="416,-893.5 416,-925.5 964,-925.5 964,-893.5 416,-893.5"/>
<text text-anchor="start" x="421" y="-914.1" font-family="Verdana" font-size="8.00">+ __invoke(datasource, generator : Bartlett\GraphUml\Generator\GeneratorInterface, parameters : array = []) : Graphp\Graph\Graph</text>
<text text-anchor="start" x="421" y="-901.1" font-family="Verdana" font-size="8.00">+ getMetadata() : array</text>
</g>
<!-- Bartlett\\UmlWriter\\Service\\ConfigurationHandler -->
<g id="node2" class="node">
<title>Bartlett\\UmlWriter\\Service\\ConfigurationHandler</title>
<polygon fill="#fefece" stroke="transparent" points="397.5,-966.5 200.5,-966.5 200.5,-880.5 397.5,-880.5 397.5,-966.5"/>
<polygon fill="#eeeeee" stroke="transparent" points="201,-944.5 201,-966.5 398,-966.5 398,-944.5 201,-944.5"/>
<polygon fill="none" stroke="black" points="201,-944.5 201,-966.5 398,-966.5 398,-944.5 201,-944.5"/>
<text text-anchor="start" x="250" y="-950.1" font-family="Verdana" font-weight="bold" font-size="8.00">ConfigurationHandler</text>
<polygon fill="none" stroke="black" points="201,-938.5 201,-944.5 398,-944.5 398,-938.5 201,-938.5"/>
<polygon fill="none" stroke="black" points="201,-880.5 201,-938.5 398,-938.5 398,-880.5 201,-880.5"/>
<text text-anchor="start" x="206" y="-927.1" font-family="Verdana" font-size="8.00">+ __construct(filename : string = «unknown»)</text>
<text text-anchor="start" x="206" y="-914.1" font-family="Verdana" font-size="8.00">+ «static» getDefaults() : array</text>
<text text-anchor="start" x="206" y="-901.1" font-family="Verdana" font-size="8.00">+ toArray() : array</text>
<text text-anchor="start" x="206" y="-888.1" font-family="Verdana" font-size="8.00">+ toFlat() : array</text>
</g>
<!-- Bartlett\\UmlWriter\\Service\\ContainerService -->
<g id="node3" class="node">
<title>Bartlett\\UmlWriter\\Service\\ContainerService</title>
<polygon fill="#fefece" stroke="transparent" points="182.5,-966.5 15.5,-966.5 15.5,-880.5 182.5,-880.5 182.5,-966.5"/>
<polygon fill="#eeeeee" stroke="transparent" points="16,-944.5 16,-966.5 183,-966.5 183,-944.5 16,-944.5"/>
<polygon fill="none" stroke="black" points="16,-944.5 16,-966.5 183,-966.5 183,-944.5 16,-944.5"/>
<text text-anchor="start" x="60.5" y="-950.1" font-family="Verdana" font-weight="bold" font-size="8.00">ContainerService</text>
<polygon fill="none" stroke="black" points="16,-938.5 16,-944.5 183,-944.5 183,-938.5 16,-938.5"/>
<polygon fill="none" stroke="black" points="16,-880.5 16,-938.5 183,-938.5 183,-880.5 16,-880.5"/>
<text text-anchor="start" x="21" y="-927.1" font-family="Verdana" font-size="8.00">+ __construct()</text>
<text text-anchor="start" x="21" y="-914.1" font-family="Verdana" font-size="8.00">+ set(id : string, service : mixed) : void</text>
<text text-anchor="start" x="21" y="-901.1" font-family="Verdana" font-size="8.00">+ get(id : string) : ?mixed</text>
<text text-anchor="start" x="21" y="-888.1" font-family="Verdana" font-size="8.00">+ has(id : string) : bool</text>
</g>
<!-- Psr\\Container\\ContainerInterface -->
<g id="node4" class="node">
<title>Psr\\Container\\ContainerInterface</title>
<polygon fill="#fefece" stroke="transparent" points="174.5,-580 23.5,-580 23.5,-520 174.5,-520 174.5,-580"/>
<polygon fill="#eeeeee" stroke="transparent" points="24,-558 24,-580 175,-580 175,-558 24,-558"/>
<polygon fill="none" stroke="black" points="24,-558 24,-580 175,-580 175,-558 24,-558"/>
<text text-anchor="start" x="73.5" y="-571.6" font-family="Verdana" font-weight="bold" font-size="8.00">«interface»</text>
<text text-anchor="start" x="57" y="-563.6" font-family="Verdana" font-weight="bold" font-size="8.00">ContainerInterface</text>
<polygon fill="none" stroke="black" points="24,-552 24,-558 175,-558 175,-552 24,-552"/>
<polygon fill="none" stroke="black" points="24,-520 24,-552 175,-552 175,-520 24,-520"/>
<text text-anchor="start" x="29" y="-540.6" font-family="Verdana" font-size="8.00">+ «abstract» get(id : string)</text>
<text text-anchor="start" x="29" y="-527.6" font-family="Verdana" font-size="8.00">+ «abstract» has(id : string) : bool</text>
</g>
<!-- Bartlett\\UmlWriter\\Service\\ContainerService&#45;&gt;Psr\\Container\\ContainerInterface -->
<g id="edge1" class="edge">
<title>Bartlett\\UmlWriter\\Service\\ContainerService&#45;&gt;Psr\\Container\\ContainerInterface</title>
<path fill="none" stroke="black" stroke-dasharray="5,2" d="M99,-880.25C99,-807.89 99,-661.26 99,-590.7"/>
<polygon fill="none" stroke="black" points="102.5,-590.45 99,-580.45 95.5,-590.45 102.5,-590.45"/>
</g>
<!-- Bartlett\\UmlWriter\\Console\\Command\\ClassDiagramCommand -->
<g id="node5" class="node">
<title>Bartlett\\UmlWriter\\Console\\Command\\ClassDiagramCommand</title>
<polygon fill="#fefece" stroke="transparent" points="1731.5,-947 988.5,-947 988.5,-900 1731.5,-900 1731.5,-947"/>
<polygon fill="#eeeeee" stroke="transparent" points="989,-924.5 989,-946.5 1732,-946.5 1732,-924.5 989,-924.5"/>
<polygon fill="none" stroke="black" points="989,-924.5 989,-946.5 1732,-946.5 1732,-924.5 989,-924.5"/>
<text text-anchor="start" x="1307" y="-930.1" font-family="Verdana" font-weight="bold" font-size="8.00">ClassDiagramCommand</text>
<polygon fill="none" stroke="black" points="989,-918.5 989,-924.5 1732,-924.5 1732,-918.5 989,-918.5"/>
<polygon fill="none" stroke="black" points="989,-899.5 989,-918.5 1732,-918.5 1732,-899.5 989,-899.5"/>
<text text-anchor="start" x="994" y="-907.1" font-family="Verdana" font-size="8.00">+ __construct(renderer : Bartlett\UmlWriter\Service\ClassDiagramRenderer, generatorFactory : Bartlett\UmlWriter\Generator\GeneratorFactoryInterface, name : string = «unknown»)</text>
</g>
<!-- Symfony\\Component\\Console\\Command\\Command -->
<g id="node6" class="node">
<title>Symfony\\Component\\Console\\Command\\Command</title>
<polygon fill="#fefece" stroke="transparent" points="1706,-801 1014,-801 1014,-299 1706,-299 1706,-801"/>
<polygon fill="#eeeeee" stroke="transparent" points="1014,-779 1014,-801 1706,-801 1706,-779 1014,-779"/>
<polygon fill="none" stroke="black" points="1014,-779 1014,-801 1706,-801 1706,-779 1014,-779"/>
<text text-anchor="start" x="1337" y="-784.6" font-family="Verdana" font-weight="bold" font-size="8.00">Command</text>
<polygon fill="none" stroke="black" points="1014,-773 1014,-779 1706,-779 1706,-773 1014,-773"/>
<polygon fill="none" stroke="black" points="1014,-299 1014,-773 1706,-773 1706,-299 1014,-299"/>
<text text-anchor="start" x="1019" y="-761.6" font-family="Verdana" font-size="8.00">+ «static» getDefaultName() : ?string</text>
<text text-anchor="start" x="1019" y="-748.6" font-family="Verdana" font-size="8.00">+ «static» getDefaultDescription() : ?string</text>
<text text-anchor="start" x="1019" y="-735.6" font-family="Verdana" font-size="8.00">+ __construct(name : string = «unknown»)</text>
<text text-anchor="start" x="1019" y="-722.6" font-family="Verdana" font-size="8.00">+ ignoreValidationErrors() : void</text>
<text text-anchor="start" x="1019" y="-709.6" font-family="Verdana" font-size="8.00">+ setApplication(application : Symfony\Component\Console\Application) : void</text>
<text text-anchor="start" x="1019" y="-696.6" font-family="Verdana" font-size="8.00">+ setHelperSet(helperSet : Symfony\Component\Console\Helper\HelperSet) : void</text>
<text text-anchor="start" x="1019" y="-683.6" font-family="Verdana" font-size="8.00">+ getHelperSet() : ?Symfony\Component\Console\Helper\HelperSet</text>
<text text-anchor="start" x="1019" y="-670.6" font-family="Verdana" font-size="8.00">+ getApplication() : ?Symfony\Component\Console\Application</text>
<text text-anchor="start" x="1019" y="-657.6" font-family="Verdana" font-size="8.00">+ isEnabled() : bool</text>
<text text-anchor="start" x="1019" y="-644.6" font-family="Verdana" font-size="8.00">+ run(input : Symfony\Component\Console\Input\InputInterface, output : Symfony\Component\Console\Output\OutputInterface) : int</text>
<text text-anchor="start" x="1019" y="-631.6" font-family="Verdana" font-size="8.00">+ complete(input : Symfony\Component\Console\Completion\CompletionInput, suggestions : Symfony\Component\Console\Completion\CompletionSuggestions) : void</text>
<text text-anchor="start" x="1019" y="-618.6" font-family="Verdana" font-size="8.00">+ setCode(code : callable) : static</text>
<text text-anchor="start" x="1019" y="-605.6" font-family="Verdana" font-size="8.00">+ mergeApplicationDefinition(mergeArgs : bool = true) : void</text>
<text text-anchor="start" x="1019" y="-592.6" font-family="Verdana" font-size="8.00">+ setDefinition(definition) : static</text>
<text text-anchor="start" x="1019" y="-579.6" font-family="Verdana" font-size="8.00">+ getDefinition() : Symfony\Component\Console\Input\InputDefinition</text>
<text text-anchor="start" x="1019" y="-566.6" font-family="Verdana" font-size="8.00">+ getNativeDefinition() : Symfony\Component\Console\Input\InputDefinition</text>
<text text-anchor="start" x="1019" y="-553.6" font-family="Verdana" font-size="8.00">+ addArgument(name : string, mode : int = «unknown», description : string = &#39;&#39;, default : mixed = «unknown», suggestedValues = []) : static</text>
<text text-anchor="start" x="1019" y="-540.6" font-family="Verdana" font-size="8.00">+ addOption(name : string, shortcut = «unknown», mode : int = «unknown», description : string = &#39;&#39;, default : mixed = «unknown», suggestedValues = []) : static</text>
<text text-anchor="start" x="1019" y="-527.6" font-family="Verdana" font-size="8.00">+ setName(name : string) : static</text>
<text text-anchor="start" x="1019" y="-514.6" font-family="Verdana" font-size="8.00">+ setProcessTitle(title : string) : static</text>
<text text-anchor="start" x="1019" y="-501.6" font-family="Verdana" font-size="8.00">+ getName() : ?string</text>
<text text-anchor="start" x="1019" y="-488.6" font-family="Verdana" font-size="8.00">+ setHidden(hidden : bool = true) : static</text>
<text text-anchor="start" x="1019" y="-475.6" font-family="Verdana" font-size="8.00">+ isHidden() : bool</text>
<text text-anchor="start" x="1019" y="-462.6" font-family="Verdana" font-size="8.00">+ setDescription(description : string) : static</text>
<text text-anchor="start" x="1019" y="-449.6" font-family="Verdana" font-size="8.00">+ getDescription() : string</text>
<text text-anchor="start" x="1019" y="-436.6" font-family="Verdana" font-size="8.00">+ setHelp(help : string) : static</text>
<text text-anchor="start" x="1019" y="-423.6" font-family="Verdana" font-size="8.00">+ getHelp() : string</text>
<text text-anchor="start" x="1019" y="-410.6" font-family="Verdana" font-size="8.00">+ getProcessedHelp() : string</text>
<text text-anchor="start" x="1019" y="-397.6" font-family="Verdana" font-size="8.00">+ setAliases(aliases : iterable) : static</text>
<text text-anchor="start" x="1019" y="-384.6" font-family="Verdana" font-size="8.00">+ getAliases() : array</text>
<text text-anchor="start" x="1019" y="-371.6" font-family="Verdana" font-size="8.00">+ getSynopsis(short : bool = false) : string</text>
<text text-anchor="start" x="1019" y="-358.6" font-family="Verdana" font-size="8.00">+ addUsage(usage : string) : static</text>
<text text-anchor="start" x="1019" y="-345.6" font-family="Verdana" font-size="8.00">+ getUsages() : array</text>
<text text-anchor="start" x="1019" y="-332.6" font-family="Verdana" font-size="8.00">+ getHelper(name : string) : Symfony\Component\Console\Helper\HelperInterface</text>
<text text-anchor="start" x="1019" y="-319.6" font-family="Verdana" font-size="8.00">+ getSubscribedSignals() : array</text>
<text text-anchor="start" x="1019" y="-306.6" font-family="Verdana" font-size="8.00">+ handleSignal(signal : int, previousExitCode = 0)</text>
</g>
<!-- Bartlett\\UmlWriter\\Console\\Command\\ClassDiagramCommand&#45;&gt;Symfony\\Component\\Console\\Command\\Command -->
<g id="edge3" class="edge">
<title>Bartlett\\UmlWriter\\Console\\Command\\ClassDiagramCommand&#45;&gt;Symfony\\Component\\Console\\Command\\Command</title>
<path fill="none" stroke="black" d="M1360,-899.82C1360,-879.73 1360,-848.02 1360,-811.71"/>
<polygon fill="none" stroke="black" points="1363.5,-811.35 1360,-801.35 1356.5,-811.35 1363.5,-811.35"/>
</g>
<!-- Symfony\\Component\\Console\\Command\\SignalableCommandInterface -->
<g id="node7" class="node">
<title>Symfony\\Component\\Console\\Command\\SignalableCommandInterface</title>
<polygon fill="#fefece" stroke="transparent" points="1490.5,-217.5 1229.5,-217.5 1229.5,-157.5 1490.5,-157.5 1490.5,-217.5"/>
<polygon fill="#eeeeee" stroke="transparent" points="1230,-195.5 1230,-217.5 1491,-217.5 1491,-195.5 1230,-195.5"/>
<polygon fill="none" stroke="black" points="1230,-195.5 1230,-217.5 1491,-217.5 1491,-195.5 1230,-195.5"/>
<text text-anchor="start" x="1334.5" y="-209.1" font-family="Verdana" font-weight="bold" font-size="8.00">«interface»</text>
<text text-anchor="start" x="1293" y="-201.1" font-family="Verdana" font-weight="bold" font-size="8.00">SignalableCommandInterface</text>
<polygon fill="none" stroke="black" points="1230,-189.5 1230,-195.5 1491,-195.5 1491,-189.5 1230,-189.5"/>
<polygon fill="none" stroke="black" points="1230,-157.5 1230,-189.5 1491,-189.5 1491,-157.5 1230,-157.5"/>
<text text-anchor="start" x="1235" y="-178.1" font-family="Verdana" font-size="8.00">+ «abstract» getSubscribedSignals() : array</text>
<text text-anchor="start" x="1235" y="-165.1" font-family="Verdana" font-size="8.00">+ «abstract» handleSignal(signal : int, previousExitCode = 0)</text>
</g>
<!-- Symfony\\Component\\Console\\Command\\Command&#45;&gt;Symfony\\Component\\Console\\Command\\SignalableCommandInterface -->
<g id="edge2" class="edge">
<title>Symfony\\Component\\Console\\Command\\Command&#45;&gt;Symfony\\Component\\Console\\Command\\SignalableCommandInterface</title>
<path fill="none" stroke="black" stroke-dasharray="5,2" d="M1360,-298.62C1360,-271.58 1360,-247.03 1360,-228.01"/>
<polygon fill="none" stroke="black" points="1363.5,-227.75 1360,-217.75 1356.5,-227.75 1363.5,-227.75"/>
</g>
<!-- Bartlett\\UmlWriter\\Console\\Application -->
<g id="node8" class="node">
<title>Bartlett\\UmlWriter\\Console\\Application</title>
<polygon fill="#fefece" stroke="transparent" points="2425.5,-973 1756.5,-973 1756.5,-874 2425.5,-874 2425.5,-973"/>
<polygon fill="#eeeeee" stroke="transparent" points="1757,-950.5 1757,-972.5 2426,-972.5 2426,-950.5 1757,-950.5"/>
<polygon fill="none" stroke="black" points="1757,-950.5 1757,-972.5 2426,-972.5 2426,-950.5 1757,-950.5"/>
<text text-anchor="start" x="2065.5" y="-956.1" font-family="Verdana" font-weight="bold" font-size="8.00">Application</text>
<polygon fill="none" stroke="black" points="1757,-944.5 1757,-950.5 2426,-950.5 2426,-944.5 1757,-944.5"/>
<polygon fill="none" stroke="black" points="1757,-873.5 1757,-944.5 2426,-944.5 2426,-873.5 1757,-873.5"/>
<text text-anchor="start" x="1762" y="-933.1" font-family="Verdana" font-size="8.00">+ __construct(container : Psr\Container\ContainerInterface)</text>
<text text-anchor="start" x="1762" y="-920.1" font-family="Verdana" font-size="8.00">+ getHelp() : string</text>
<text text-anchor="start" x="1762" y="-907.1" font-family="Verdana" font-size="8.00">+ getLongVersion() : string</text>
<text text-anchor="start" x="1762" y="-894.1" font-family="Verdana" font-size="8.00">+ doRun(input : Symfony\Component\Console\Input\InputInterface, output : Symfony\Component\Console\Output\OutputInterface) : int</text>
<text text-anchor="start" x="1762" y="-881.1" font-family="Verdana" font-size="8.00">+ run(input : Symfony\Component\Console\Input\InputInterface = «unknown», output : Symfony\Component\Console\Output\OutputInterface = «unknown») : int</text>
</g>
<!-- Symfony\\Component\\Console\\Application -->
<g id="node9" class="node">
<title>Symfony\\Component\\Console\\Application</title>
<polygon fill="#fefece" stroke="transparent" points="2437,-827 1745,-827 1745,-273 2437,-273 2437,-827"/>
<polygon fill="#eeeeee" stroke="transparent" points="1745,-805 1745,-827 2437,-827 2437,-805 1745,-805"/>
<polygon fill="none" stroke="black" points="1745,-805 1745,-827 2437,-827 2437,-805 1745,-805"/>
<text text-anchor="start" x="2065" y="-810.6" font-family="Verdana" font-weight="bold" font-size="8.00">Application</text>
<polygon fill="none" stroke="black" points="1745,-799 1745,-805 2437,-805 2437,-799 1745,-799"/>
<polygon fill="none" stroke="black" points="1745,-273 1745,-799 2437,-799 2437,-273 1745,-273"/>
<text text-anchor="start" x="1750" y="-787.6" font-family="Verdana" font-size="8.00">+ __construct(name : string = &#39;UNKNOWN&#39;, version : string = &#39;UNKNOWN&#39;)</text>
<text text-anchor="start" x="1750" y="-774.6" font-family="Verdana" font-size="8.00">+ setDispatcher(dispatcher : Symfony\Contracts\EventDispatcher\EventDispatcherInterface) : void</text>
<text text-anchor="start" x="1750" y="-761.6" font-family="Verdana" font-size="8.00">+ setCommandLoader(commandLoader : Symfony\Component\Console\CommandLoader\CommandLoaderInterface) : void</text>
<text text-anchor="start" x="1750" y="-748.6" font-family="Verdana" font-size="8.00">+ getSignalRegistry() : Symfony\Component\Console\SignalRegistry\SignalRegistry</text>
<text text-anchor="start" x="1750" y="-735.6" font-family="Verdana" font-size="8.00">+ setSignalsToDispatchEvent(signalsToDispatchEvent : int = «unknown») : void</text>
<text text-anchor="start" x="1750" y="-722.6" font-family="Verdana" font-size="8.00">+ setAlarmInterval(seconds : int) : void</text>
<text text-anchor="start" x="1750" y="-709.6" font-family="Verdana" font-size="8.00">+ getAlarmInterval() : ?int</text>
<text text-anchor="start" x="1750" y="-696.6" font-family="Verdana" font-size="8.00">+ run(input : Symfony\Component\Console\Input\InputInterface = «unknown», output : Symfony\Component\Console\Output\OutputInterface = «unknown») : int</text>
<text text-anchor="start" x="1750" y="-683.6" font-family="Verdana" font-size="8.00">+ doRun(input : Symfony\Component\Console\Input\InputInterface, output : Symfony\Component\Console\Output\OutputInterface) : int</text>
<text text-anchor="start" x="1750" y="-670.6" font-family="Verdana" font-size="8.00">+ reset() : void</text>
<text text-anchor="start" x="1750" y="-657.6" font-family="Verdana" font-size="8.00">+ setHelperSet(helperSet : Symfony\Component\Console\Helper\HelperSet) : void</text>
<text text-anchor="start" x="1750" y="-644.6" font-family="Verdana" font-size="8.00">+ getHelperSet() : Symfony\Component\Console\Helper\HelperSet</text>
<text text-anchor="start" x="1750" y="-631.6" font-family="Verdana" font-size="8.00">+ setDefinition(definition : Symfony\Component\Console\Input\InputDefinition) : void</text>
<text text-anchor="start" x="1750" y="-618.6" font-family="Verdana" font-size="8.00">+ getDefinition() : Symfony\Component\Console\Input\InputDefinition</text>
<text text-anchor="start" x="1750" y="-605.6" font-family="Verdana" font-size="8.00">+ complete(input : Symfony\Component\Console\Completion\CompletionInput, suggestions : Symfony\Component\Console\Completion\CompletionSuggestions) : void</text>
<text text-anchor="start" x="1750" y="-592.6" font-family="Verdana" font-size="8.00">+ getHelp() : string</text>
<text text-anchor="start" x="1750" y="-579.6" font-family="Verdana" font-size="8.00">+ areExceptionsCaught() : bool</text>
<text text-anchor="start" x="1750" y="-566.6" font-family="Verdana" font-size="8.00">+ setCatchExceptions(boolean : bool) : void</text>
<text text-anchor="start" x="1750" y="-553.6" font-family="Verdana" font-size="8.00">+ setCatchErrors(catchErrors : bool = true) : void</text>
<text text-anchor="start" x="1750" y="-540.6" font-family="Verdana" font-size="8.00">+ isAutoExitEnabled() : bool</text>
<text text-anchor="start" x="1750" y="-527.6" font-family="Verdana" font-size="8.00">+ setAutoExit(boolean : bool) : void</text>
<text text-anchor="start" x="1750" y="-514.6" font-family="Verdana" font-size="8.00">+ getName() : string</text>
<text text-anchor="start" x="1750" y="-501.6" font-family="Verdana" font-size="8.00">+ setName(name : string) : void</text>
<text text-anchor="start" x="1750" y="-488.6" font-family="Verdana" font-size="8.00">+ getVersion() : string</text>
<text text-anchor="start" x="1750" y="-475.6" font-family="Verdana" font-size="8.00">+ setVersion(version : string) : void</text>
<text text-anchor="start" x="1750" y="-462.6" font-family="Verdana" font-size="8.00">+ getLongVersion() : string</text>
<text text-anchor="start" x="1750" y="-449.6" font-family="Verdana" font-size="8.00">+ register(name : string) : Symfony\Component\Console\Command\Command</text>
<text text-anchor="start" x="1750" y="-436.6" font-family="Verdana" font-size="8.00">+ addCommands(commands : array) : void</text>
<text text-anchor="start" x="1750" y="-423.6" font-family="Verdana" font-size="8.00">+ add(command : Symfony\Component\Console\Command\Command) : ?Symfony\Component\Console\Command\Command</text>
<text text-anchor="start" x="1750" y="-410.6" font-family="Verdana" font-size="8.00">+ get(name : string) : Symfony\Component\Console\Command\Command</text>
<text text-anchor="start" x="1750" y="-397.6" font-family="Verdana" font-size="8.00">+ has(name : string) : bool</text>
<text text-anchor="start" x="1750" y="-384.6" font-family="Verdana" font-size="8.00">+ getNamespaces() : array</text>
<text text-anchor="start" x="1750" y="-371.6" font-family="Verdana" font-size="8.00">+ findNamespace(namespace : string) : string</text>
<text text-anchor="start" x="1750" y="-358.6" font-family="Verdana" font-size="8.00">+ find(name : string) : Symfony\Component\Console\Command\Command</text>
<text text-anchor="start" x="1750" y="-345.6" font-family="Verdana" font-size="8.00">+ all(namespace : string = «unknown») : array</text>
<text text-anchor="start" x="1750" y="-332.6" font-family="Verdana" font-size="8.00">+ «static» getAbbreviations(names : array) : array</text>
<text text-anchor="start" x="1750" y="-319.6" font-family="Verdana" font-size="8.00">+ renderThrowable(e : Throwable, output : Symfony\Component\Console\Output\OutputInterface) : void</text>
<text text-anchor="start" x="1750" y="-306.6" font-family="Verdana" font-size="8.00">+ extractNamespace(name : string, limit : int = «unknown») : string</text>
<text text-anchor="start" x="1750" y="-293.6" font-family="Verdana" font-size="8.00">+ setDefaultCommand(commandName : string, isSingleCommand : bool = false) : static</text>
<text text-anchor="start" x="1750" y="-280.6" font-family="Verdana" font-size="8.00">+ isSingleCommand() : bool</text>
</g>
<!-- Bartlett\\UmlWriter\\Console\\Application&#45;&gt;Symfony\\Component\\Console\\Application -->
<g id="edge5" class="edge">
<title>Bartlett\\UmlWriter\\Console\\Application&#45;&gt;Symfony\\Component\\Console\\Application</title>
<path fill="none" stroke="black" d="M2091,-873.93C2091,-863.04 2091,-850.73 2091,-837.42"/>
<polygon fill="none" stroke="black" points="2094.5,-837.07 2091,-827.07 2087.5,-837.07 2094.5,-837.07"/>
</g>
<!-- Symfony\\Contracts\\Service\\ResetInterface -->
<g id="node10" class="node">
<title>Symfony\\Contracts\\Service\\ResetInterface</title>
<polygon fill="#fefece" stroke="transparent" points="2137.5,-211 2044.5,-211 2044.5,-164 2137.5,-164 2137.5,-211"/>
<polygon fill="#eeeeee" stroke="transparent" points="2045,-188.5 2045,-210.5 2138,-210.5 2138,-188.5 2045,-188.5"/>
<polygon fill="none" stroke="black" points="2045,-188.5 2045,-210.5 2138,-210.5 2138,-188.5 2045,-188.5"/>
<text text-anchor="start" x="2065.5" y="-202.1" font-family="Verdana" font-weight="bold" font-size="8.00">«interface»</text>
<text text-anchor="start" x="2058.5" y="-194.1" font-family="Verdana" font-weight="bold" font-size="8.00">ResetInterface</text>
<polygon fill="none" stroke="black" points="2045,-182.5 2045,-188.5 2138,-188.5 2138,-182.5 2045,-182.5"/>
<polygon fill="none" stroke="black" points="2045,-163.5 2045,-182.5 2138,-182.5 2138,-163.5 2045,-163.5"/>
<text text-anchor="start" x="2050" y="-171.1" font-family="Verdana" font-size="8.00">+ «abstract» reset()</text>
</g>
<!-- Symfony\\Component\\Console\\Application&#45;&gt;Symfony\\Contracts\\Service\\ResetInterface -->
<g id="edge4" class="edge">
<title>Symfony\\Component\\Console\\Application&#45;&gt;Symfony\\Contracts\\Service\\ResetInterface</title>
<path fill="none" stroke="black" stroke-dasharray="5,2" d="M2091,-272.57C2091,-252.93 2091,-235.44 2091,-221.57"/>
<polygon fill="none" stroke="black" points="2094.5,-221.25 2091,-211.25 2087.5,-221.25 2094.5,-221.25"/>
</g>
<!-- Bartlett\\UmlWriter\\Generator\\GeneratorFactory -->
<g id="node11" class="node">
<title>Bartlett\\UmlWriter\\Generator\\GeneratorFactory</title>
<polygon fill="#fefece" stroke="transparent" points="3008,-947 2462,-947 2462,-900 3008,-900 3008,-947"/>
<polygon fill="#eeeeee" stroke="transparent" points="2462,-924.5 2462,-946.5 3008,-946.5 3008,-924.5 2462,-924.5"/>
<polygon fill="none" stroke="black" points="2462,-924.5 2462,-946.5 3008,-946.5 3008,-924.5 2462,-924.5"/>
<text text-anchor="start" x="2695.5" y="-930.1" font-family="Verdana" font-weight="bold" font-size="8.00">GeneratorFactory</text>
<polygon fill="none" stroke="black" points="2462,-918.5 2462,-924.5 3008,-924.5 3008,-918.5 2462,-918.5"/>
<polygon fill="none" stroke="black" points="2462,-899.5 2462,-918.5 3008,-918.5 3008,-899.5 2462,-899.5"/>
<text text-anchor="start" x="2467" y="-907.1" font-family="Verdana" font-size="8.00">+ createInstance(provider : string, format : string = &#39;svg&#39;, executable : string = &#39;&#39;) : Bartlett\GraphUml\Generator\GeneratorInterface</text>
</g>
<!-- Bartlett\\UmlWriter\\Generator\\GeneratorFactoryInterface -->
<g id="node12" class="node">
<title>Bartlett\\UmlWriter\\Generator\\GeneratorFactoryInterface</title>
<polygon fill="#fefece" stroke="transparent" points="3008.5,-573.5 2461.5,-573.5 2461.5,-526.5 3008.5,-526.5 3008.5,-573.5"/>
<polygon fill="#eeeeee" stroke="transparent" points="2462,-551 2462,-573 3009,-573 3009,-551 2462,-551"/>
<polygon fill="none" stroke="black" points="2462,-551 2462,-573 3009,-573 3009,-551 2462,-551"/>
<text text-anchor="start" x="2709.5" y="-564.6" font-family="Verdana" font-weight="bold" font-size="8.00">«interface»</text>
<text text-anchor="start" x="2676" y="-556.6" font-family="Verdana" font-weight="bold" font-size="8.00">GeneratorFactoryInterface</text>
<polygon fill="none" stroke="black" points="2462,-545 2462,-551 3009,-551 3009,-545 2462,-545"/>
<polygon fill="none" stroke="black" points="2462,-526 2462,-545 3009,-545 3009,-526 2462,-526"/>
<text text-anchor="start" x="2467" y="-533.6" font-family="Verdana" font-size="8.00">+ «abstract» createInstance(provider : string, format : string, executable : string) : Bartlett\GraphUml\Generator\GeneratorInterface</text>
</g>
<!-- Bartlett\\UmlWriter\\Generator\\GeneratorFactory&#45;&gt;Bartlett\\UmlWriter\\Generator\\GeneratorFactoryInterface -->
<g id="edge6" class="edge">
<title>Bartlett\\UmlWriter\\Generator\\GeneratorFactory&#45;&gt;Bartlett\\UmlWriter\\Generator\\GeneratorFactoryInterface</title>
<path fill="none" stroke="black" stroke-dasharray="5,2" d="M2735,-899.82C2735,-836.61 2735,-658.22 2735,-584.02"/>
<polygon fill="none" stroke="black" points="2738.5,-583.85 2735,-573.85 2731.5,-583.86 2738.5,-583.85"/>
</g>
<!-- Bartlett\\UmlWriter\\Config\\Loader\\YamlFileLoader -->
<g id="node13" class="node">
<title>Bartlett\\UmlWriter\\Config\\Loader\\YamlFileLoader</title>
<polygon fill="#fefece" stroke="transparent" points="3494.5,-953.5 3241.5,-953.5 3241.5,-893.5 3494.5,-893.5 3494.5,-953.5"/>
<polygon fill="#eeeeee" stroke="transparent" points="3242,-931.5 3242,-953.5 3495,-953.5 3495,-931.5 3242,-931.5"/>
<polygon fill="none" stroke="black" points="3242,-931.5 3242,-953.5 3495,-953.5 3495,-931.5 3242,-931.5"/>
<text text-anchor="start" x="3333.5" y="-937.1" font-family="Verdana" font-weight="bold" font-size="8.00">YamlFileLoader</text>
<polygon fill="none" stroke="black" points="3242,-925.5 3242,-931.5 3495,-931.5 3495,-925.5 3242,-925.5"/>
<polygon fill="none" stroke="black" points="3242,-893.5 3242,-925.5 3495,-925.5 3495,-893.5 3242,-893.5"/>
<text text-anchor="start" x="3247" y="-914.1" font-family="Verdana" font-size="8.00">+ load(resource : mixed, type : string = «unknown») : array</text>
<text text-anchor="start" x="3247" y="-901.1" font-family="Verdana" font-size="8.00">+ supports(resource, type : string = «unknown») : bool</text>
</g>
<!-- Symfony\\Component\\Config\\Loader\\FileLoader -->
<g id="node14" class="node">
<title>Symfony\\Component\\Config\\Loader\\FileLoader</title>
<polygon fill="#fefece" stroke="transparent" points="3702.5,-593 3033.5,-593 3033.5,-507 3702.5,-507 3702.5,-593"/>
<polygon fill="#eeeeee" stroke="transparent" points="3034,-571 3034,-593 3703,-593 3703,-571 3034,-571"/>
<polygon fill="none" stroke="black" points="3034,-571 3034,-593 3703,-593 3703,-571 3034,-571"/>
<text text-anchor="start" x="3344.5" y="-584.6" font-family="Verdana" font-weight="bold" font-size="8.00">«abstract»</text>
<text text-anchor="start" x="3344.5" y="-576.6" font-family="Verdana" font-weight="bold" font-size="8.00">FileLoader</text>
<polygon fill="none" stroke="black" points="3034,-565 3034,-571 3703,-571 3703,-565 3034,-565"/>
<polygon fill="none" stroke="black" points="3034,-507 3034,-565 3703,-565 3703,-507 3034,-507"/>
<text text-anchor="start" x="3039" y="-553.6" font-family="Verdana" font-size="8.00">+ __construct(locator : Symfony\Component\Config\FileLocatorInterface, env : string = «unknown»)</text>
<text text-anchor="start" x="3039" y="-540.6" font-family="Verdana" font-size="8.00">+ setCurrentDir(dir : string) : void</text>
<text text-anchor="start" x="3039" y="-527.6" font-family="Verdana" font-size="8.00">+ getLocator() : Symfony\Component\Config\FileLocatorInterface</text>
<text text-anchor="start" x="3039" y="-514.6" font-family="Verdana" font-size="8.00">+ import(resource : mixed, type : string = «unknown», ignoreErrors : bool = false, sourceResource : string = «unknown», exclude : mixed = «unknown») : ?mixed</text>
</g>
<!-- Bartlett\\UmlWriter\\Config\\Loader\\YamlFileLoader&#45;&gt;Symfony\\Component\\Config\\Loader\\FileLoader -->
<g id="edge9" class="edge">
<title>Bartlett\\UmlWriter\\Config\\Loader\\YamlFileLoader&#45;&gt;Symfony\\Component\\Config\\Loader\\FileLoader</title>
<path fill="none" stroke="black" d="M3368,-893.35C3368,-830.73 3368,-682.65 3368,-603.32"/>
<polygon fill="none" stroke="black" points="3371.5,-603.07 3368,-593.07 3364.5,-603.07 3371.5,-603.07"/>
</g>
<!-- Symfony\\Component\\Config\\Loader\\Loader -->
<g id="node15" class="node">
<title>Symfony\\Component\\Config\\Loader\\Loader</title>
<polygon fill="#fefece" stroke="transparent" points="3597,-237 3139,-237 3139,-138 3597,-138 3597,-237"/>
<polygon fill="#eeeeee" stroke="transparent" points="3139,-214.5 3139,-236.5 3597,-236.5 3597,-214.5 3139,-214.5"/>
<polygon fill="none" stroke="black" points="3139,-214.5 3139,-236.5 3597,-236.5 3597,-214.5 3139,-214.5"/>
<text text-anchor="start" x="3344" y="-228.1" font-family="Verdana" font-weight="bold" font-size="8.00">«abstract»</text>
<text text-anchor="start" x="3352.5" y="-220.1" font-family="Verdana" font-weight="bold" font-size="8.00">Loader</text>
<polygon fill="none" stroke="black" points="3139,-208.5 3139,-214.5 3597,-214.5 3597,-208.5 3139,-208.5"/>
<polygon fill="none" stroke="black" points="3139,-137.5 3139,-208.5 3597,-208.5 3597,-137.5 3139,-137.5"/>
<text text-anchor="start" x="3144" y="-197.1" font-family="Verdana" font-size="8.00">+ __construct(env : string = «unknown»)</text>
<text text-anchor="start" x="3144" y="-184.1" font-family="Verdana" font-size="8.00">+ getResolver() : Symfony\Component\Config\Loader\LoaderResolverInterface</text>
<text text-anchor="start" x="3144" y="-171.1" font-family="Verdana" font-size="8.00">+ setResolver(resolver : Symfony\Component\Config\Loader\LoaderResolverInterface) : void</text>
<text text-anchor="start" x="3144" y="-158.1" font-family="Verdana" font-size="8.00">+ import(resource : mixed, type : string = «unknown») : ?mixed</text>
<text text-anchor="start" x="3144" y="-145.1" font-family="Verdana" font-size="8.00">+ resolve(resource : mixed, type : string = «unknown») : Symfony\Component\Config\Loader\LoaderInterface</text>
</g>
<!-- Symfony\\Component\\Config\\Loader\\FileLoader&#45;&gt;Symfony\\Component\\Config\\Loader\\Loader -->
<g id="edge8" class="edge">
<title>Symfony\\Component\\Config\\Loader\\FileLoader&#45;&gt;Symfony\\Component\\Config\\Loader\\Loader</title>
<path fill="none" stroke="black" d="M3368,-506.94C3368,-442.86 3368,-320.53 3368,-247.56"/>
<polygon fill="none" stroke="black" points="3371.5,-247.17 3368,-237.17 3364.5,-247.17 3371.5,-247.17"/>
</g>
<!-- Symfony\\Component\\Config\\Loader\\LoaderInterface -->
<g id="node16" class="node">
<title>Symfony\\Component\\Config\\Loader\\LoaderInterface</title>
<polygon fill="#fefece" stroke="transparent" points="3585.5,-102 3150.5,-102 3150.5,-16 3585.5,-16 3585.5,-102"/>
<polygon fill="#eeeeee" stroke="transparent" points="3151,-80 3151,-102 3586,-102 3586,-80 3151,-80"/>
<polygon fill="none" stroke="black" points="3151,-80 3151,-102 3586,-102 3586,-80 3151,-80"/>
<text text-anchor="start" x="3342.5" y="-93.6" font-family="Verdana" font-weight="bold" font-size="8.00">«interface»</text>
<text text-anchor="start" x="3332.5" y="-85.6" font-family="Verdana" font-weight="bold" font-size="8.00">LoaderInterface</text>
<polygon fill="none" stroke="black" points="3151,-74 3151,-80 3586,-80 3586,-74 3151,-74"/>
<polygon fill="none" stroke="black" points="3151,-16 3151,-74 3586,-74 3586,-16 3151,-16"/>
<text text-anchor="start" x="3156" y="-62.6" font-family="Verdana" font-size="8.00">+ «abstract» load(resource : mixed, type : string = «unknown») : ?mixed</text>
<text text-anchor="start" x="3156" y="-49.6" font-family="Verdana" font-size="8.00">+ «abstract» supports(resource : mixed, type : string = «unknown») : bool</text>
<text text-anchor="start" x="3156" y="-36.6" font-family="Verdana" font-size="8.00">+ «abstract» getResolver() : Symfony\Component\Config\Loader\LoaderResolverInterface</text>
<text text-anchor="start" x="3156" y="-23.6" font-family="Verdana" font-size="8.00">+ «abstract» setResolver(resolver : Symfony\Component\Config\Loader\LoaderResolverInterface) : void</text>
</g>
<!-- Symfony\\Component\\Config\\Loader\\Loader&#45;&gt;Symfony\\Component\\Config\\Loader\\LoaderInterface -->
<g id="edge7" class="edge">
<title>Symfony\\Component\\Config\\Loader\\Loader&#45;&gt;Symfony\\Component\\Config\\Loader\\LoaderInterface</title>
<path fill="none" stroke="black" stroke-dasharray="5,2" d="M3368,-137.95C3368,-129.53 3368,-120.74 3368,-112.23"/>
<polygon fill="none" stroke="black" points="3371.5,-112.02 3368,-102.02 3364.5,-112.02 3371.5,-112.02"/>
</g>
</g>
</svg>
