<?xml version="1.0" encoding="UTF-8" standalone="no"?>
<!DOCTYPE svg PUBLIC "-//W3C//DTD SVG 1.1//EN"
 "http://www.w3.org/Graphics/SVG/1.1/DTD/svg11.dtd">
<!-- Generated by graphviz version 2.43.0 (0)
 -->
<!-- Title: %3 Pages: 1 -->
<svg width="773pt" height="256pt"
 viewBox="0.00 0.00 773.00 256.00" xmlns="http://www.w3.org/2000/svg" xmlns:xlink="http://www.w3.org/1999/xlink">
<g id="graph0" class="graph" transform="scale(1 1) rotate(0) translate(4 252)">
<title>%3</title>
<g id="clust1" class="cluster">
<title>cluster_0</title>
<polygon fill="BurlyWood" stroke="black" points="8,-115 8,-240 757,-240 757,-115 8,-115"/>
<text text-anchor="middle" x="382.5" y="-224.8" font-family="Times,serif" font-size="14.00">Bartlett\UmlWriter\Service</text>
</g>
<g id="clust2" class="cluster">
<title>cluster_1</title>
<polygon fill="transparent" stroke="black" points="15,-8 15,-107 183,-107 183,-8 15,-8"/>
<text text-anchor="middle" x="99" y="-91.8" font-family="Times,serif" font-size="14.00">Psr\Container</text>
</g>
<!-- Bartlett\\UmlWriter\\Service\\ClassDiagramRenderer -->
<g id="node1" class="node">
<title>Bartlett\\UmlWriter\\Service\\ClassDiagramRenderer</title>
<polygon fill="#fefece" stroke="transparent" points="749,-196 201,-196 201,-136 749,-136 749,-196"/>
<polygon fill="#eeeeee" stroke="transparent" points="201,-174 201,-196 749,-196 749,-174 201,-174"/>
<polygon fill="none" stroke="black" points="201,-174 201,-196 749,-196 749,-174 201,-174"/>
<text text-anchor="start" x="423.5" y="-179.6" font-family="Verdana" font-weight="bold" font-size="8.00">ClassDiagramRenderer</text>
<polygon fill="none" stroke="black" points="201,-168 201,-174 749,-174 749,-168 201,-168"/>
<polygon fill="none" stroke="black" points="201,-136 201,-168 749,-168 749,-136 201,-136"/>
<text text-anchor="start" x="206" y="-156.6" font-family="Verdana" font-size="8.00">+ __invoke(datasource, generator : Bartlett\GraphUml\Generator\GeneratorInterface, parameters : array = []) : Graphp\Graph\Graph</text>
<text text-anchor="start" x="206" y="-143.6" font-family="Verdana" font-size="8.00">+ getMetadata() : array</text>
</g>
<!-- Bartlett\\UmlWriter\\Service\\ContainerService -->
<g id="node2" class="node">
<title>Bartlett\\UmlWriter\\Service\\ContainerService</title>
<polygon fill="#fefece" stroke="transparent" points="182.5,-209 15.5,-209 15.5,-123 182.5,-123 182.5,-209"/>
<polygon fill="#eeeeee" stroke="transparent" points="16,-187 16,-209 183,-209 183,-187 16,-187"/>
<polygon fill="none" stroke="black" points="16,-187 16,-209 183,-209 183,-187 16,-187"/>
<text text-anchor="start" x="60.5" y="-192.6" font-family="Verdana" font-weight="bold" font-size="8.00">ContainerService</text>
<polygon fill="none" stroke="black" points="16,-181 16,-187 183,-187 183,-181 16,-181"/>
<polygon fill="none" stroke="black" points="16,-123 16,-181 183,-181 183,-123 16,-123"/>
<text text-anchor="start" x="21" y="-169.6" font-family="Verdana" font-size="8.00">+ __construct()</text>
<text text-anchor="start" x="21" y="-156.6" font-family="Verdana" font-size="8.00">+ set(id : string, service : mixed) : void</text>
<text text-anchor="start" x="21" y="-143.6" font-family="Verdana" font-size="8.00">+ get(id : string) : ?mixed</text>
<text text-anchor="start" x="21" y="-130.6" font-family="Verdana" font-size="8.00">+ has(id : string) : bool</text>
</g>
<!-- Psr\\Container\\ContainerInterface -->
<g id="node3" class="node">
<title>Psr\\Container\\ContainerInterface</title>
<polygon fill="#fefece" stroke="transparent" points="174.5,-76 23.5,-76 23.5,-16 174.5,-16 174.5,-76"/>
<polygon fill="#eeeeee" stroke="transparent" points="24,-54 24,-76 175,-76 175,-54 24,-54"/>
<polygon fill="none" stroke="black" points="24,-54 24,-76 175,-76 175,-54 24,-54"/>
<text text-anchor="start" x="73.5" y="-67.6" font-family="Verdana" font-weight="bold" font-size="8.00">«interface»</text>
<text text-anchor="start" x="57" y="-59.6" font-family="Verdana" font-weight="bold" font-size="8.00">ContainerInterface</text>
<polygon fill="none" stroke="black" points="24,-48 24,-54 175,-54 175,-48 24,-48"/>
<polygon fill="none" stroke="black" points="24,-16 24,-48 175,-48 175,-16 24,-16"/>
<text text-anchor="start" x="29" y="-36.6" font-family="Verdana" font-size="8.00">+ «abstract» get(id : string)</text>
<text text-anchor="start" x="29" y="-23.6" font-family="Verdana" font-size="8.00">+ «abstract» has(id : string) : bool</text>
</g>
<!-- Bartlett\\UmlWriter\\Service\\ContainerService&#45;&gt;Psr\\Container\\ContainerInterface -->
<g id="edge1" class="edge">
<title>Bartlett\\UmlWriter\\Service\\ContainerService&#45;&gt;Psr\\Container\\ContainerInterface</title>
<path fill="none" stroke="black" stroke-dasharray="5,2" d="M99,-122.73C99,-110.88 99,-98.06 99,-86.38"/>
<polygon fill="none" stroke="black" points="102.5,-86.05 99,-76.05 95.5,-86.05 102.5,-86.05"/>
</g>
</g>
</svg>
