<?xml version="1.0" encoding="UTF-8" standalone="no"?>
<!DOCTYPE svg PUBLIC "-//W3C//DTD SVG 1.1//EN"
 "http://www.w3.org/Graphics/SVG/1.1/DTD/svg11.dtd">
<!-- Generated by graphviz version 2.40.1 (20161225.0304)
 -->
<!-- Title: %3 Pages: 1 -->
<svg width="1198pt" height="662pt"
 viewBox="0.00 0.00 1198.00 662.00" xmlns="http://www.w3.org/2000/svg" xmlns:xlink="http://www.w3.org/1999/xlink">
<g id="graph0" class="graph" transform="scale(1 1) rotate(0) translate(4 658)">
<title>%3</title>
<polygon fill="#ffffff" stroke="transparent" points="-4,4 -4,-658 1194,-658 1194,4 -4,4"/>
<g id="clust1" class="cluster">
<title>cluster_0</title>
<polygon fill="none" stroke="#000000" points="162,-534 162,-646 792,-646 792,-534 162,-534"/>
<text text-anchor="middle" x="477" y="-630.8" font-family="Times,serif" font-size="14.00" fill="#000000">Name\Space</text>
</g>
<g id="clust2" class="cluster">
<title>cluster_1</title>
<polygon fill="none" stroke="#000000" points="8,-8 8,-419 444,-419 444,-8 8,-8"/>
<text text-anchor="middle" x="226" y="-403.8" font-family="Times,serif" font-size="14.00" fill="#000000">Bartlett\UmlWriter\Generator</text>
</g>
<g id="clust3" class="cluster">
<title>cluster_2</title>
<polygon fill="none" stroke="#000000" points="452,-226 452,-526 1182,-526 1182,-226 452,-226"/>
<text text-anchor="middle" x="817" y="-510.8" font-family="Times,serif" font-size="14.00" fill="#000000">Bartlett\GraphUml\Generator</text>
</g>
<!-- Name\\Space\\MyGeneratorFactory -->
<g id="node1" class="node">
<title>Name\\Space\\MyGeneratorFactory</title>
<polygon fill="#fefece" stroke="transparent" points="470,-602 170,-602 170,-555 470,-555 470,-602"/>
<polygon fill="#eeeeee" stroke="transparent" points="170,-579.5 170,-601.5 470,-601.5 470,-579.5 170,-579.5"/>
<polygon fill="none" stroke="#000000" points="170,-579.5 170,-601.5 470,-601.5 470,-579.5 170,-579.5"/>
<text text-anchor="start" x="273" y="-585.1" font-family="Verdana" font-weight="bold" font-size="8.00" fill="#000000">MyGeneratorFactory</text>
<polygon fill="none" stroke="#000000" points="170,-573.5 170,-579.5 470,-579.5 470,-573.5 170,-573.5"/>
<polygon fill="none" stroke="#000000" points="170,-554.5 170,-573.5 470,-573.5 470,-554.5 170,-554.5"/>
<text text-anchor="start" x="175" y="-562.1" font-family="Verdana" font-size="8.00" fill="#000000">+ getGenerator() : Bartlett\GraphUml\Generator\GeneratorInterface</text>
</g>
<!-- Bartlett\\UmlWriter\\Generator\\GeneratorFactory -->
<g id="node3" class="node">
<title>Bartlett\\UmlWriter\\Generator\\GeneratorFactory</title>
<polygon fill="#fefece" stroke="transparent" points="416,-388 116,-388 116,-341 416,-341 416,-388"/>
<polygon fill="#eeeeee" stroke="transparent" points="116,-365.5 116,-387.5 416,-387.5 416,-365.5 116,-365.5"/>
<polygon fill="none" stroke="#000000" points="116,-365.5 116,-387.5 416,-387.5 416,-365.5 116,-365.5"/>
<text text-anchor="start" x="225.5" y="-371.1" font-family="Verdana" font-weight="bold" font-size="8.00" fill="#000000">GeneratorFactory</text>
<polygon fill="none" stroke="#000000" points="116,-359.5 116,-365.5 416,-365.5 416,-359.5 116,-359.5"/>
<polygon fill="none" stroke="#000000" points="116,-340.5 116,-359.5 416,-359.5 416,-340.5 116,-340.5"/>
<text text-anchor="start" x="121" y="-348.1" font-family="Verdana" font-size="8.00" fill="#000000">+ getGenerator() : Bartlett\GraphUml\Generator\GeneratorInterface</text>
</g>
<!-- Name\\Space\\MyGeneratorFactory&#45;&gt;Bartlett\\UmlWriter\\Generator\\GeneratorFactory -->
<g id="edge3" class="edge">
<title>Name\\Space\\MyGeneratorFactory&#45;&gt;Bartlett\\UmlWriter\\Generator\\GeneratorFactory</title>
<path fill="none" stroke="#000000" d="M314.0147,-554.7806C304.4052,-516.6984 285.5014,-441.7832 274.4974,-398.1749"/>
<polygon fill="none" stroke="#000000" points="277.8524,-397.1653 272.0121,-388.3256 271.0652,-398.8781 277.8524,-397.1653"/>
</g>
<!-- Name\\Space\\MyGenerator -->
<g id="node2" class="node">
<title>Name\\Space\\MyGenerator</title>
<polygon fill="#fefece" stroke="transparent" points="784,-615 488,-615 488,-542 784,-542 784,-615"/>
<polygon fill="#eeeeee" stroke="transparent" points="488,-592.5 488,-614.5 784,-614.5 784,-592.5 488,-592.5"/>
<polygon fill="none" stroke="#000000" points="488,-592.5 488,-614.5 784,-614.5 784,-592.5 488,-592.5"/>
<text text-anchor="start" x="606" y="-598.1" font-family="Verdana" font-weight="bold" font-size="8.00" fill="#000000">MyGenerator</text>
<polygon fill="none" stroke="#000000" points="488,-586.5 488,-592.5 784,-592.5 784,-586.5 488,-586.5"/>
<polygon fill="none" stroke="#000000" points="488,-541.5 488,-586.5 784,-586.5 784,-541.5 488,-541.5"/>
<text text-anchor="start" x="493" y="-575.1" font-family="Verdana" font-size="8.00" fill="#000000">+ getFormatter() : Bartlett\GraphUml\Formatter\FormatterInterface</text>
<text text-anchor="start" x="493" y="-562.1" font-family="Verdana" font-size="8.00" fill="#000000">+ getName() : string</text>
<text text-anchor="start" x="493" y="-549.1" font-family="Verdana" font-size="8.00" fill="#000000">+ createScript(graph : Graphp\Graph\Graph) : string</text>
</g>
<!-- Bartlett\\GraphUml\\Generator\\AbstractGenerator -->
<g id="node6" class="node">
<title>Bartlett\\GraphUml\\Generator\\AbstractGenerator</title>
<polygon fill="#fefece" stroke="transparent" points="1174,-495 830,-495 830,-234 1174,-234 1174,-495"/>
<polygon fill="#eeeeee" stroke="transparent" points="830,-472.5 830,-494.5 1174,-494.5 1174,-472.5 830,-472.5"/>
<polygon fill="none" stroke="#000000" points="830,-472.5 830,-494.5 1174,-494.5 1174,-472.5 830,-472.5"/>
<text text-anchor="start" x="977.5" y="-486.1" font-family="Verdana" font-weight="bold" font-size="8.00" fill="#000000">«abstract»</text>
<text text-anchor="start" x="959" y="-478.1" font-family="Verdana" font-weight="bold" font-size="8.00" fill="#000000">AbstractGenerator</text>
<polygon fill="none" stroke="#000000" points="830,-414.5 830,-472.5 1174,-472.5 1174,-414.5 830,-414.5"/>
<text text-anchor="start" x="835" y="-461.1" font-family="Verdana" font-size="8.00" fill="#000000">+ «static» CMD_EXECUTABLE : string = &quot;\%E&quot; {readOnly}</text>
<text text-anchor="start" x="835" y="-448.1" font-family="Verdana" font-size="8.00" fill="#000000">+ «static» CMD_FORMAT : string = &quot;\%F&quot; {readOnly}</text>
<text text-anchor="start" x="835" y="-435.1" font-family="Verdana" font-size="8.00" fill="#000000">+ «static» CMD_OUTPUT_FILE : string = &quot;\%o&quot; {readOnly}</text>
<text text-anchor="start" x="835" y="-422.1" font-family="Verdana" font-size="8.00" fill="#000000">+ «static» CMD_TEMP_FILE : string = &quot;\%t&quot; {readOnly}</text>
<polygon fill="none" stroke="#000000" points="830,-369.5 830,-414.5 1174,-414.5 1174,-369.5 830,-369.5"/>
<text text-anchor="start" x="835" y="-403.1" font-family="Verdana" font-size="8.00" fill="#000000"># options : array</text>
<text text-anchor="start" x="835" y="-390.1" font-family="Verdana" font-size="8.00" fill="#000000">– executable : string</text>
<text text-anchor="start" x="835" y="-377.1" font-family="Verdana" font-size="8.00" fill="#000000">– format : string</text>
<polygon fill="none" stroke="#000000" points="830,-233.5 830,-369.5 1174,-369.5 1174,-233.5 830,-233.5"/>
<text text-anchor="start" x="835" y="-358.1" font-family="Verdana" font-size="8.00" fill="#000000">+ setOptions(values) : void</text>
<text text-anchor="start" x="835" y="-345.1" font-family="Verdana" font-size="8.00" fill="#000000">+ «abstract» getFormatter() : Bartlett\GraphUml\Formatter\FormatterInterface</text>
<text text-anchor="start" x="835" y="-332.1" font-family="Verdana" font-size="8.00" fill="#000000">+ «abstract» getName() : string</text>
<text text-anchor="start" x="835" y="-319.1" font-family="Verdana" font-size="8.00" fill="#000000">+ getPrefix() : string</text>
<text text-anchor="start" x="835" y="-306.1" font-family="Verdana" font-size="8.00" fill="#000000">+ getLabelClass(reflection : ReflectionClass) : string</text>
<text text-anchor="start" x="835" y="-293.1" font-family="Verdana" font-size="8.00" fill="#000000">+ getLabelExtension(reflection : ReflectionExtension) : string</text>
<text text-anchor="start" x="835" y="-280.1" font-family="Verdana" font-size="8.00" fill="#000000">+ setExecutable(executable : string) : void</text>
<text text-anchor="start" x="835" y="-267.1" font-family="Verdana" font-size="8.00" fill="#000000">+ setFormat(format : string) : void</text>
<text text-anchor="start" x="835" y="-254.1" font-family="Verdana" font-size="8.00" fill="#000000">+ «abstract» createScript(graph : Graphp\Graph\Graph) : string</text>
<text text-anchor="start" x="835" y="-241.1" font-family="Verdana" font-size="8.00" fill="#000000">+ createImageFile(graph : Graphp\Graph\Graph, cmdFormat) : string</text>
</g>
<!-- Name\\Space\\MyGenerator&#45;&gt;Bartlett\\GraphUml\\Generator\\AbstractGenerator -->
<g id="edge4" class="edge">
<title>Name\\Space\\MyGenerator&#45;&gt;Bartlett\\GraphUml\\Generator\\AbstractGenerator</title>
<path fill="none" stroke="#000000" d="M784.3483,-542.9922C797.0476,-537.993 809.4428,-532.3516 821,-526 834.2456,-518.7205 847.3346,-510.308 860.0507,-501.2233"/>
<polygon fill="none" stroke="#000000" points="862.3396,-503.8858 868.351,-495.1614 858.2111,-498.2328 862.3396,-503.8858"/>
</g>
<!-- Bartlett\\GraphUml\\Generator\\GeneratorInterface -->
<g id="node7" class="node">
<title>Bartlett\\GraphUml\\Generator\\GeneratorInterface</title>
<polygon fill="#fefece" stroke="transparent" points="812,-446.5 460,-446.5 460,-282.5 812,-282.5 812,-446.5"/>
<polygon fill="#eeeeee" stroke="transparent" points="460,-424.5 460,-446.5 812,-446.5 812,-424.5 460,-424.5"/>
<polygon fill="none" stroke="#000000" points="460,-424.5 460,-446.5 812,-446.5 812,-424.5 460,-424.5"/>
<text text-anchor="start" x="610" y="-438.1" font-family="Verdana" font-weight="bold" font-size="8.00" fill="#000000">«interface»</text>
<text text-anchor="start" x="592" y="-430.1" font-family="Verdana" font-weight="bold" font-size="8.00" fill="#000000">GeneratorInterface</text>
<polygon fill="none" stroke="#000000" points="460,-418.5 460,-424.5 812,-424.5 812,-418.5 460,-418.5"/>
<polygon fill="none" stroke="#000000" points="460,-282.5 460,-418.5 812,-418.5 812,-282.5 460,-282.5"/>
<text text-anchor="start" x="465" y="-407.1" font-family="Verdana" font-size="8.00" fill="#000000">+ «abstract» setOptions(values) : void</text>
<text text-anchor="start" x="465" y="-394.1" font-family="Verdana" font-size="8.00" fill="#000000">+ «abstract» getFormatter() : Bartlett\GraphUml\Formatter\FormatterInterface</text>
<text text-anchor="start" x="465" y="-381.1" font-family="Verdana" font-size="8.00" fill="#000000">+ «abstract» getName() : string</text>
<text text-anchor="start" x="465" y="-368.1" font-family="Verdana" font-size="8.00" fill="#000000">+ «abstract» getPrefix() : string</text>
<text text-anchor="start" x="465" y="-355.1" font-family="Verdana" font-size="8.00" fill="#000000">+ «abstract» getLabelClass(reflection : ReflectionClass) : string</text>
<text text-anchor="start" x="465" y="-342.1" font-family="Verdana" font-size="8.00" fill="#000000">+ «abstract» getLabelExtension(reflection : ReflectionExtension) : string</text>
<text text-anchor="start" x="465" y="-329.1" font-family="Verdana" font-size="8.00" fill="#000000">+ «abstract» setExecutable(executable) : void</text>
<text text-anchor="start" x="465" y="-316.1" font-family="Verdana" font-size="8.00" fill="#000000">+ «abstract» setFormat(format) : void</text>
<text text-anchor="start" x="465" y="-303.1" font-family="Verdana" font-size="8.00" fill="#000000">+ «abstract» createScript(graph : Graphp\Graph\Graph) : string</text>
<text text-anchor="start" x="465" y="-290.1" font-family="Verdana" font-size="8.00" fill="#000000">+ «abstract» createImageFile(graph : Graphp\Graph\Graph, cmdFormat) : string</text>
</g>
<!-- Name\\Space\\MyGenerator&#45;&gt;Bartlett\\GraphUml\\Generator\\GeneratorInterface -->
<g id="edge5" class="edge">
<title>Name\\Space\\MyGenerator&#45;&gt;Bartlett\\GraphUml\\Generator\\GeneratorInterface</title>
<path fill="none" stroke="#000000" stroke-dasharray="5,2" d="M636,-541.7121C636,-518.3062 636,-486.8752 636,-456.9841"/>
<polygon fill="none" stroke="#000000" points="639.5001,-456.9199 636,-446.9199 632.5001,-456.92 639.5001,-456.9199"/>
</g>
<!-- Bartlett\\UmlWriter\\Generator\\AbstractGeneratorFactory -->
<g id="node4" class="node">
<title>Bartlett\\UmlWriter\\Generator\\AbstractGeneratorFactory</title>
<polygon fill="#fefece" stroke="transparent" points="425,-198 47,-198 47,-112 425,-112 425,-198"/>
<polygon fill="#eeeeee" stroke="transparent" points="47,-176 47,-198 425,-198 425,-176 47,-176"/>
<polygon fill="none" stroke="#000000" points="47,-176 47,-198 425,-198 425,-176 47,-176"/>
<text text-anchor="start" x="211.5" y="-189.6" font-family="Verdana" font-weight="bold" font-size="8.00" fill="#000000">«abstract»</text>
<text text-anchor="start" x="175.5" y="-181.6" font-family="Verdana" font-weight="bold" font-size="8.00" fill="#000000">AbstractGeneratorFactory</text>
<polygon fill="none" stroke="#000000" points="47,-157 47,-176 425,-176 425,-157 47,-157"/>
<text text-anchor="start" x="52" y="-164.6" font-family="Verdana" font-size="8.00" fill="#000000"># generator</text>
<polygon fill="none" stroke="#000000" points="47,-112 47,-157 425,-157 425,-112 47,-112"/>
<text text-anchor="start" x="52" y="-145.6" font-family="Verdana" font-size="8.00" fill="#000000">+ __construct(generator = )</text>
<text text-anchor="start" x="52" y="-132.6" font-family="Verdana" font-size="8.00" fill="#000000">+ createInstance(generator) : Bartlett\UmlWriter\Generator\GeneratorFactoryInterface</text>
<text text-anchor="start" x="52" y="-119.6" font-family="Verdana" font-size="8.00" fill="#000000">+ «abstract» getGenerator() : Bartlett\GraphUml\Generator\GeneratorInterface</text>
</g>
<!-- Bartlett\\UmlWriter\\Generator\\GeneratorFactory&#45;&gt;Bartlett\\UmlWriter\\Generator\\AbstractGeneratorFactory -->
<g id="edge2" class="edge">
<title>Bartlett\\UmlWriter\\Generator\\GeneratorFactory&#45;&gt;Bartlett\\UmlWriter\\Generator\\AbstractGeneratorFactory</title>
<path fill="none" stroke="#000000" d="M262.6169,-340.8749C258.0347,-308.8757 249.7258,-250.8521 243.6063,-208.1174"/>
<polygon fill="none" stroke="#000000" points="247.0621,-207.5584 242.1798,-198.1555 240.1327,-208.5507 247.0621,-207.5584"/>
</g>
<!-- Bartlett\\UmlWriter\\Generator\\GeneratorFactoryInterface -->
<g id="node5" class="node">
<title>Bartlett\\UmlWriter\\Generator\\GeneratorFactoryInterface</title>
<polygon fill="#fefece" stroke="transparent" points="436,-76 16,-76 16,-16 436,-16 436,-76"/>
<polygon fill="#eeeeee" stroke="transparent" points="16,-54 16,-76 436,-76 436,-54 16,-54"/>
<polygon fill="none" stroke="#000000" points="16,-54 16,-76 436,-76 436,-54 16,-54"/>
<text text-anchor="start" x="200" y="-67.6" font-family="Verdana" font-weight="bold" font-size="8.00" fill="#000000">«interface»</text>
<text text-anchor="start" x="165" y="-59.6" font-family="Verdana" font-weight="bold" font-size="8.00" fill="#000000">GeneratorFactoryInterface</text>
<polygon fill="none" stroke="#000000" points="16,-48 16,-54 436,-54 436,-48 16,-48"/>
<polygon fill="none" stroke="#000000" points="16,-16 16,-48 436,-48 436,-16 16,-16"/>
<text text-anchor="start" x="21" y="-36.6" font-family="Verdana" font-size="8.00" fill="#000000">+ «abstract» createInstance(provider) : Bartlett\UmlWriter\Generator\GeneratorFactoryInterface</text>
<text text-anchor="start" x="21" y="-23.6" font-family="Verdana" font-size="8.00" fill="#000000">+ «abstract» getGenerator() : Bartlett\GraphUml\Generator\GeneratorInterface</text>
</g>
<!-- Bartlett\\UmlWriter\\Generator\\AbstractGeneratorFactory&#45;&gt;Bartlett\\UmlWriter\\Generator\\GeneratorFactoryInterface -->
<g id="edge1" class="edge">
<title>Bartlett\\UmlWriter\\Generator\\AbstractGeneratorFactory&#45;&gt;Bartlett\\UmlWriter\\Generator\\GeneratorFactoryInterface</title>
<path fill="none" stroke="#000000" stroke-dasharray="5,2" d="M232.0477,-111.9203C231.2637,-103.3746 230.4437,-94.4367 229.6696,-85.9989"/>
<polygon fill="none" stroke="#000000" points="233.1527,-85.653 228.7536,-76.0146 226.182,-86.2926 233.1527,-85.653"/>
</g>
</g>
</svg>
