<?xml version="1.0" encoding="UTF-8" standalone="no"?>
<!DOCTYPE svg PUBLIC "-//W3C//DTD SVG 1.1//EN"
 "http://www.w3.org/Graphics/SVG/1.1/DTD/svg11.dtd">
<!-- Generated by graphviz version 2.40.1 (20161225.0304)
 -->
<!-- Title: %3 Pages: 1 -->
<svg width="3743pt" height="2008pt"
 viewBox="0.00 0.00 3743.00 2008.00" xmlns="http://www.w3.org/2000/svg" xmlns:xlink="http://www.w3.org/1999/xlink">
<g id="graph0" class="graph" transform="scale(1 1) rotate(0) translate(4 2004)">
<title>%3</title>
<g id="clust1" class="cluster">
<title>cluster_0</title>
<polygon fill="#deb887" stroke="#000000" points="318.5,-8 318.5,-158 2960,-158 2960,-8 318.5,-8"/>
<text text-anchor="middle" x="1639.25" y="-142.8" font-family="Times,serif" font-size="14.00" fill="#000000">Bartlett\UmlWriter\Generator</text>
</g>
<g id="clust2" class="cluster">
<title>cluster_1</title>
<polygon fill="#deb887" stroke="#000000" points="57.5,-166 57.5,-631 1114.5,-631 1114.5,-166 57.5,-166"/>
<text text-anchor="middle" x="586" y="-615.8" font-family="Times,serif" font-size="14.00" fill="#000000">Bartlett\UmlWriter\Service</text>
</g>
<g id="clust3" class="cluster">
<title>cluster_2</title>
<polygon fill="#32cd32" stroke="#000000" points="1592.5,-185 1592.5,-316 1784.5,-316 1784.5,-185 1592.5,-185"/>
<text text-anchor="middle" x="1688.5" y="-300.8" font-family="Times,serif" font-size="14.00" fill="#000000">Psr\Container</text>
</g>
<g id="clust4" class="cluster">
<title>cluster_3</title>
<polygon fill="#deb887" stroke="#000000" points="92,-639 92,-834 1080,-834 1080,-639 92,-639"/>
<text text-anchor="middle" x="586" y="-818.8" font-family="Times,serif" font-size="14.00" fill="#000000">Bartlett\UmlWriter\Console</text>
</g>
<g id="clust5" class="cluster">
<title>cluster_4</title>
<polygon fill="#87cefa" stroke="#000000" points="1184,-367 1184,-1106 2193,-1106 2193,-367 1184,-367"/>
<text text-anchor="middle" x="1688.5" y="-1090.8" font-family="Times,serif" font-size="14.00" fill="#000000">Symfony\Component\Console</text>
</g>
<g id="clust6" class="cluster">
<title>cluster_5</title>
<polygon fill="#87cefa" stroke="#000000" points="2480,-680 2480,-793 2693,-793 2693,-680 2480,-680"/>
<text text-anchor="middle" x="2586.5" y="-777.8" font-family="Times,serif" font-size="14.00" fill="#000000">Symfony\Contracts\Service</text>
</g>
<g id="clust7" class="cluster">
<title>cluster_6</title>
<polygon fill="#deb887" stroke="#000000" points="8,-1396 8,-1533 1164,-1533 1164,-1396 8,-1396"/>
<text text-anchor="middle" x="586" y="-1517.8" font-family="Times,serif" font-size="14.00" fill="#000000">Bartlett\UmlWriter\Console\Command</text>
</g>
<g id="clust8" class="cluster">
<title>cluster_7</title>
<polygon fill="#87cefa" stroke="#000000" points="1205,-1114 1205,-1815 2172,-1815 2172,-1114 1205,-1114"/>
<text text-anchor="middle" x="1688.5" y="-1799.8" font-family="Times,serif" font-size="14.00" fill="#000000">Symfony\Component\Console\Command</text>
</g>
<g id="clust9" class="cluster">
<title>cluster_8</title>
<polygon fill="#deb887" stroke="#000000" points="456.5,-1842 456.5,-1973 716.5,-1973 716.5,-1842 456.5,-1842"/>
<text text-anchor="middle" x="586.5" y="-1957.8" font-family="Times,serif" font-size="14.00" fill="#000000">Bartlett\UmlWriter\Config\Loader</text>
</g>
<g id="clust10" class="cluster">
<title>cluster_9</title>
<polygon fill="#87cefa" stroke="#000000" points="1255.5,-1823 1255.5,-1992 3727,-1992 3727,-1823 1255.5,-1823"/>
<text text-anchor="middle" x="2491.25" y="-1976.8" font-family="Times,serif" font-size="14.00" fill="#000000">Symfony\Component\Config\Loader</text>
</g>
<!-- Bartlett\\UmlWriter\\Generator\\GeneratorFactoryInterface -->
<g id="node1" class="node">
<title>Bartlett\\UmlWriter\\Generator\\GeneratorFactoryInterface</title>
<polygon fill="#d3d3d3" stroke="transparent" points="2952,-117 2221,-117 2221,-25 2952,-25 2952,-117"/>
<polygon fill="#eeeeee" stroke="transparent" points="2229.5,-79 2229.5,-113 2944.5,-113 2944.5,-79 2229.5,-79"/>
<polygon fill="none" stroke="#000000" points="2229.5,-79 2229.5,-113 2944.5,-113 2944.5,-79 2229.5,-79"/>
<text text-anchor="start" x="2541.5" y="-99.8" font-family="Times,serif" font-weight="bold" font-size="14.00" fill="#000000">«interface»</text>
<text text-anchor="start" x="2480" y="-85.8" font-family="Times,serif" font-weight="bold" font-size="14.00" fill="#000000">GeneratorFactoryInterface</text>
<polygon fill="none" stroke="#000000" points="2229.5,-73 2229.5,-79 2944.5,-79 2944.5,-73 2229.5,-73"/>
<polygon fill="none" stroke="#000000" points="2229.5,-29 2229.5,-73 2944.5,-73 2944.5,-29 2229.5,-29"/>
<text text-anchor="start" x="2234.5" y="-56.8" font-family="Times,serif" font-size="14.00" fill="#000000">+ «abstract» createInstance(provider) : Bartlett\UmlWriter\Generator\GeneratorFactoryInterface</text>
<text text-anchor="start" x="2234.5" y="-37.8" font-family="Times,serif" font-size="14.00" fill="#000000">+ «abstract» getGenerator() : Bartlett\GraphUml\Generator\GeneratorInterface</text>
</g>
<!-- Bartlett\\UmlWriter\\Generator\\AbstractGeneratorFactory -->
<g id="node2" class="node">
<title>Bartlett\\UmlWriter\\Generator\\AbstractGeneratorFactory</title>
<polygon fill="#d3d3d3" stroke="transparent" points="2017.5,-126.5 1359.5,-126.5 1359.5,-15.5 2017.5,-15.5 2017.5,-126.5"/>
<polygon fill="#eeeeee" stroke="transparent" points="1367.5,-88 1367.5,-122 2009.5,-122 2009.5,-88 1367.5,-88"/>
<polygon fill="none" stroke="#000000" points="1367.5,-88 1367.5,-122 2009.5,-122 2009.5,-88 1367.5,-88"/>
<text text-anchor="start" x="1646" y="-108.8" font-family="Times,serif" font-weight="bold" font-size="14.00" fill="#000000">«abstract»</text>
<text text-anchor="start" x="1584" y="-94.8" font-family="Times,serif" font-weight="bold" font-size="14.00" fill="#000000">AbstractGeneratorFactory</text>
<polygon fill="none" stroke="#000000" points="1367.5,-82 1367.5,-88 2009.5,-88 2009.5,-82 1367.5,-82"/>
<polygon fill="none" stroke="#000000" points="1367.5,-19 1367.5,-82 2009.5,-82 2009.5,-19 1367.5,-19"/>
<text text-anchor="start" x="1372.5" y="-65.8" font-family="Times,serif" font-size="14.00" fill="#000000">+ __construct(generator = )</text>
<text text-anchor="start" x="1372.5" y="-46.8" font-family="Times,serif" font-size="14.00" fill="#000000">+ createInstance(generator) : Bartlett\UmlWriter\Generator\GeneratorFactoryInterface</text>
<text text-anchor="start" x="1372.5" y="-27.8" font-family="Times,serif" font-size="14.00" fill="#000000">+ «abstract» getGenerator() : Bartlett\GraphUml\Generator\GeneratorInterface</text>
</g>
<!-- Bartlett\\UmlWriter\\Generator\\AbstractGeneratorFactory&#45;&gt;Bartlett\\UmlWriter\\Generator\\GeneratorFactoryInterface -->
<g id="edge1" class="edge">
<title>Bartlett\\UmlWriter\\Generator\\AbstractGeneratorFactory&#45;&gt;Bartlett\\UmlWriter\\Generator\\GeneratorFactoryInterface</title>
<path fill="none" stroke="#000000" stroke-dasharray="5,2" d="M2017.7829,-71C2080.5021,-71 2146.5833,-71 2210.6249,-71"/>
<polygon fill="none" stroke="#000000" points="2210.8848,-74.5001 2220.8848,-71 2210.8848,-67.5001 2210.8848,-74.5001"/>
</g>
<!-- Bartlett\\UmlWriter\\Generator\\GeneratorFactory -->
<g id="node3" class="node">
<title>Bartlett\\UmlWriter\\Generator\\GeneratorFactory</title>
<polygon fill="#d3d3d3" stroke="transparent" points="845.5,-107.5 326.5,-107.5 326.5,-34.5 845.5,-34.5 845.5,-107.5"/>
<polygon fill="#eeeeee" stroke="transparent" points="335,-69 335,-103 838,-103 838,-69 335,-69"/>
<polygon fill="none" stroke="#000000" points="335,-69 335,-103 838,-103 838,-69 335,-69"/>
<text text-anchor="start" x="516" y="-75.8" font-family="Times,serif" font-weight="bold" font-size="14.00" fill="#000000">GeneratorFactory</text>
<polygon fill="none" stroke="#000000" points="335,-63 335,-69 838,-69 838,-63 335,-63"/>
<polygon fill="none" stroke="#000000" points="335,-38 335,-63 838,-63 838,-38 335,-38"/>
<text text-anchor="start" x="340" y="-46.8" font-family="Times,serif" font-size="14.00" fill="#000000">+ getGenerator() : Bartlett\GraphUml\Generator\GeneratorInterface</text>
</g>
<!-- Bartlett\\UmlWriter\\Generator\\GeneratorFactory&#45;&gt;Bartlett\\UmlWriter\\Generator\\AbstractGeneratorFactory -->
<g id="edge2" class="edge">
<title>Bartlett\\UmlWriter\\Generator\\GeneratorFactory&#45;&gt;Bartlett\\UmlWriter\\Generator\\AbstractGeneratorFactory</title>
<path fill="none" stroke="#000000" d="M845.5324,-71C995.957,-71 1187.0904,-71 1349.3143,-71"/>
<polygon fill="none" stroke="#000000" points="1349.4652,-74.5001 1359.4652,-71 1349.4651,-67.5001 1349.4652,-74.5001"/>
</g>
<!-- Bartlett\\UmlWriter\\Service\\ConfigurationHandler -->
<g id="node4" class="node">
<title>Bartlett\\UmlWriter\\Service\\ConfigurationHandler</title>
<polygon fill="#d3d3d3" stroke="transparent" points="718.5,-600.5 453.5,-600.5 453.5,-451.5 718.5,-451.5 718.5,-600.5"/>
<polygon fill="#eeeeee" stroke="transparent" points="462,-562 462,-596 711,-596 711,-562 462,-562"/>
<polygon fill="none" stroke="#000000" points="462,-562 462,-596 711,-596 711,-562 462,-562"/>
<text text-anchor="start" x="498.5" y="-568.8" font-family="Times,serif" font-weight="bold" font-size="14.00" fill="#000000">ConfigurationHandler</text>
<polygon fill="none" stroke="#000000" points="462,-556 462,-562 711,-562 711,-556 462,-556"/>
<polygon fill="none" stroke="#000000" points="462,-455 462,-556 711,-556 711,-455 462,-455"/>
<text text-anchor="start" x="467" y="-539.8" font-family="Times,serif" font-size="14.00" fill="#000000">+ __construct(filename)</text>
<text text-anchor="start" x="467" y="-520.8" font-family="Times,serif" font-size="14.00" fill="#000000">+ filename() : ?string</text>
<text text-anchor="start" x="467" y="-501.8" font-family="Times,serif" font-size="14.00" fill="#000000">+ toArray() : array</text>
<text text-anchor="start" x="467" y="-482.8" font-family="Times,serif" font-size="14.00" fill="#000000">+ toFlat() : array</text>
<text text-anchor="start" x="467" y="-463.8" font-family="Times,serif" font-size="14.00" fill="#000000">+ getValueByKey(key, default = )</text>
</g>
<!-- Bartlett\\UmlWriter\\Service\\ClassDiagramRenderer -->
<g id="node5" class="node">
<title>Bartlett\\UmlWriter\\Service\\ClassDiagramRenderer</title>
<polygon fill="#d3d3d3" stroke="transparent" points="1106.5,-433.5 65.5,-433.5 65.5,-322.5 1106.5,-322.5 1106.5,-433.5"/>
<polygon fill="#eeeeee" stroke="transparent" points="74,-395 74,-429 1099,-429 1099,-395 74,-395"/>
<polygon fill="none" stroke="#000000" points="74,-395 74,-429 1099,-429 1099,-395 74,-395"/>
<text text-anchor="start" x="494.5" y="-401.8" font-family="Times,serif" font-weight="bold" font-size="14.00" fill="#000000">ClassDiagramRenderer</text>
<polygon fill="none" stroke="#000000" points="74,-389 74,-395 1099,-395 1099,-389 74,-389"/>
<polygon fill="none" stroke="#000000" points="74,-326 74,-389 1099,-389 1099,-326 74,-326"/>
<text text-anchor="start" x="79" y="-372.8" font-family="Times,serif" font-size="14.00" fill="#000000">+ __invoke(finder : Symfony\Component\Finder\Finder, generator : Bartlett\GraphUml\Generator\GeneratorInterface, parameters = ) : string</text>
<text text-anchor="start" x="79" y="-353.8" font-family="Times,serif" font-size="14.00" fill="#000000">+ getMetadata() : array</text>
<text text-anchor="start" x="79" y="-334.8" font-family="Times,serif" font-size="14.00" fill="#000000">+ getGraph() : Graphp\Graph\Graph</text>
</g>
<!-- Bartlett\\UmlWriter\\Service\\ContainerService -->
<g id="node6" class="node">
<title>Bartlett\\UmlWriter\\Service\\ContainerService</title>
<polygon fill="#d3d3d3" stroke="transparent" points="682.5,-304 489.5,-304 489.5,-174 682.5,-174 682.5,-304"/>
<polygon fill="#eeeeee" stroke="transparent" points="498,-266 498,-300 675,-300 675,-266 498,-266"/>
<polygon fill="none" stroke="#000000" points="498,-266 498,-300 675,-300 675,-266 498,-266"/>
<text text-anchor="start" x="517" y="-272.8" font-family="Times,serif" font-weight="bold" font-size="14.00" fill="#000000">ContainerService</text>
<polygon fill="none" stroke="#000000" points="498,-260 498,-266 675,-266 675,-260 498,-260"/>
<polygon fill="none" stroke="#000000" points="498,-178 498,-260 675,-260 675,-178 498,-178"/>
<text text-anchor="start" x="503" y="-243.8" font-family="Times,serif" font-size="14.00" fill="#000000">+ __construct()</text>
<text text-anchor="start" x="503" y="-224.8" font-family="Times,serif" font-size="14.00" fill="#000000">+ set(id, service) : void</text>
<text text-anchor="start" x="503" y="-205.8" font-family="Times,serif" font-size="14.00" fill="#000000">+ get(id)</text>
<text text-anchor="start" x="503" y="-186.8" font-family="Times,serif" font-size="14.00" fill="#000000">+ has(id)</text>
</g>
<!-- Psr\\Container\\ContainerInterface -->
<g id="node7" class="node">
<title>Psr\\Container\\ContainerInterface</title>
<polygon fill="#d3d3d3" stroke="transparent" points="1776.5,-285 1600.5,-285 1600.5,-193 1776.5,-193 1776.5,-285"/>
<polygon fill="#eeeeee" stroke="transparent" points="1608.5,-247 1608.5,-281 1768.5,-281 1768.5,-247 1608.5,-247"/>
<polygon fill="none" stroke="#000000" points="1608.5,-247 1608.5,-281 1768.5,-281 1768.5,-247 1608.5,-247"/>
<text text-anchor="start" x="1643" y="-267.8" font-family="Times,serif" font-weight="bold" font-size="14.00" fill="#000000">«interface»</text>
<text text-anchor="start" x="1611.5" y="-253.8" font-family="Times,serif" font-weight="bold" font-size="14.00" fill="#000000">ContainerInterface</text>
<polygon fill="none" stroke="#000000" points="1608.5,-241 1608.5,-247 1768.5,-247 1768.5,-241 1608.5,-241"/>
<polygon fill="none" stroke="#000000" points="1608.5,-197 1608.5,-241 1768.5,-241 1768.5,-197 1608.5,-197"/>
<text text-anchor="start" x="1613.5" y="-224.8" font-family="Times,serif" font-size="14.00" fill="#000000">+ «abstract» get(id)</text>
<text text-anchor="start" x="1613.5" y="-205.8" font-family="Times,serif" font-size="14.00" fill="#000000">+ «abstract» has(id)</text>
</g>
<!-- Bartlett\\UmlWriter\\Service\\ContainerService&#45;&gt;Psr\\Container\\ContainerInterface -->
<g id="edge3" class="edge">
<title>Bartlett\\UmlWriter\\Service\\ContainerService&#45;&gt;Psr\\Container\\ContainerInterface</title>
<path fill="none" stroke="#000000" stroke-dasharray="5,2" d="M682.8733,-239C891.3467,-239 1380.5846,-239 1590.27,-239"/>
<polygon fill="none" stroke="#000000" points="1590.3448,-242.5001 1600.3448,-239 1590.3447,-235.5001 1590.3448,-242.5001"/>
</g>
<!-- Bartlett\\UmlWriter\\Console\\Application -->
<g id="node8" class="node">
<title>Bartlett\\UmlWriter\\Console\\Application</title>
<polygon fill="#d3d3d3" stroke="transparent" points="1072,-802.5 100,-802.5 100,-647.5 1072,-647.5 1072,-802.5"/>
<polygon fill="#eeeeee" stroke="transparent" points="108,-764 108,-798 1064,-798 1064,-764 108,-764"/>
<polygon fill="none" stroke="#000000" points="108,-764 108,-798 1064,-798 1064,-764 108,-764"/>
<text text-anchor="start" x="540" y="-770.8" font-family="Times,serif" font-weight="bold" font-size="14.00" fill="#000000">Application</text>
<polygon fill="none" stroke="#000000" points="108,-720 108,-764 1064,-764 1064,-720 108,-720"/>
<text text-anchor="start" x="113" y="-747.8" font-family="Times,serif" font-size="14.00" fill="#000000">+ «static» NAME : string = &quot;umlWriter&quot; {readOnly}</text>
<text text-anchor="start" x="113" y="-728.8" font-family="Times,serif" font-size="14.00" fill="#000000">+ «static» VERSION : string = &quot;2\.0\.0\&#45;dev&quot; {readOnly}</text>
<polygon fill="none" stroke="#000000" points="108,-714 108,-720 1064,-720 1064,-714 108,-714"/>
<polygon fill="none" stroke="#000000" points="108,-651 108,-714 1064,-714 1064,-651 108,-651"/>
<text text-anchor="start" x="113" y="-697.8" font-family="Times,serif" font-size="14.00" fill="#000000">+ __construct(container : Psr\Container\ContainerInterface, version = VERSION)</text>
<text text-anchor="start" x="113" y="-678.8" font-family="Times,serif" font-size="14.00" fill="#000000">+ getHelp()</text>
<text text-anchor="start" x="113" y="-659.8" font-family="Times,serif" font-size="14.00" fill="#000000">+ doRun(input : Symfony\Component\Console\Input\InputInterface, output : Symfony\Component\Console\Output\OutputInterface)</text>
</g>
<!-- Symfony\\Component\\Console\\Application -->
<g id="node9" class="node">
<title>Symfony\\Component\\Console\\Application</title>
<polygon fill="#d3d3d3" stroke="transparent" points="2185,-1075 1192,-1075 1192,-375 2185,-375 2185,-1075"/>
<polygon fill="#eeeeee" stroke="transparent" points="1200.5,-1037 1200.5,-1071 2177.5,-1071 2177.5,-1037 1200.5,-1037"/>
<polygon fill="none" stroke="#000000" points="1200.5,-1037 1200.5,-1071 2177.5,-1071 2177.5,-1037 1200.5,-1037"/>
<text text-anchor="start" x="1643" y="-1043.8" font-family="Times,serif" font-weight="bold" font-size="14.00" fill="#000000">Application</text>
<polygon fill="none" stroke="#000000" points="1200.5,-1031 1200.5,-1037 2177.5,-1037 2177.5,-1031 1200.5,-1031"/>
<polygon fill="none" stroke="#000000" points="1200.5,-379 1200.5,-1031 2177.5,-1031 2177.5,-379 1200.5,-379"/>
<text text-anchor="start" x="1205.5" y="-1014.8" font-family="Times,serif" font-size="14.00" fill="#000000">+ __construct(name = , version = )</text>
<text text-anchor="start" x="1205.5" y="-995.8" font-family="Times,serif" font-size="14.00" fill="#000000">+ setDispatcher(dispatcher : \«invalidClass\»)</text>
<text text-anchor="start" x="1205.5" y="-976.8" font-family="Times,serif" font-size="14.00" fill="#000000">+ setCommandLoader(commandLoader : Symfony\Component\Console\CommandLoader\CommandLoaderInterface)</text>
<text text-anchor="start" x="1205.5" y="-957.8" font-family="Times,serif" font-size="14.00" fill="#000000">+ run(input : Symfony\Component\Console\Input\InputInterface = , output : Symfony\Component\Console\Output\OutputInterface = )</text>
<text text-anchor="start" x="1205.5" y="-938.8" font-family="Times,serif" font-size="14.00" fill="#000000">+ doRun(input : Symfony\Component\Console\Input\InputInterface, output : Symfony\Component\Console\Output\OutputInterface)</text>
<text text-anchor="start" x="1205.5" y="-919.8" font-family="Times,serif" font-size="14.00" fill="#000000">+ reset()</text>
<text text-anchor="start" x="1205.5" y="-900.8" font-family="Times,serif" font-size="14.00" fill="#000000">+ setHelperSet(helperSet : Symfony\Component\Console\Helper\HelperSet)</text>
<text text-anchor="start" x="1205.5" y="-881.8" font-family="Times,serif" font-size="14.00" fill="#000000">+ getHelperSet()</text>
<text text-anchor="start" x="1205.5" y="-862.8" font-family="Times,serif" font-size="14.00" fill="#000000">+ setDefinition(definition : Symfony\Component\Console\Input\InputDefinition)</text>
<text text-anchor="start" x="1205.5" y="-843.8" font-family="Times,serif" font-size="14.00" fill="#000000">+ getDefinition()</text>
<text text-anchor="start" x="1205.5" y="-824.8" font-family="Times,serif" font-size="14.00" fill="#000000">+ getHelp()</text>
<text text-anchor="start" x="1205.5" y="-805.8" font-family="Times,serif" font-size="14.00" fill="#000000">+ areExceptionsCaught()</text>
<text text-anchor="start" x="1205.5" y="-786.8" font-family="Times,serif" font-size="14.00" fill="#000000">+ setCatchExceptions(boolean)</text>
<text text-anchor="start" x="1205.5" y="-767.8" font-family="Times,serif" font-size="14.00" fill="#000000">+ isAutoExitEnabled()</text>
<text text-anchor="start" x="1205.5" y="-748.8" font-family="Times,serif" font-size="14.00" fill="#000000">+ setAutoExit(boolean)</text>
<text text-anchor="start" x="1205.5" y="-729.8" font-family="Times,serif" font-size="14.00" fill="#000000">+ getName()</text>
<text text-anchor="start" x="1205.5" y="-710.8" font-family="Times,serif" font-size="14.00" fill="#000000">+ setName(name)</text>
<text text-anchor="start" x="1205.5" y="-691.8" font-family="Times,serif" font-size="14.00" fill="#000000">+ getVersion()</text>
<text text-anchor="start" x="1205.5" y="-672.8" font-family="Times,serif" font-size="14.00" fill="#000000">+ setVersion(version)</text>
<text text-anchor="start" x="1205.5" y="-653.8" font-family="Times,serif" font-size="14.00" fill="#000000">+ getLongVersion()</text>
<text text-anchor="start" x="1205.5" y="-634.8" font-family="Times,serif" font-size="14.00" fill="#000000">+ register(name)</text>
<text text-anchor="start" x="1205.5" y="-615.8" font-family="Times,serif" font-size="14.00" fill="#000000">+ addCommands(commands : mixed)</text>
<text text-anchor="start" x="1205.5" y="-596.8" font-family="Times,serif" font-size="14.00" fill="#000000">+ add(command : Symfony\Component\Console\Command\Command)</text>
<text text-anchor="start" x="1205.5" y="-577.8" font-family="Times,serif" font-size="14.00" fill="#000000">+ get(name)</text>
<text text-anchor="start" x="1205.5" y="-558.8" font-family="Times,serif" font-size="14.00" fill="#000000">+ has(name)</text>
<text text-anchor="start" x="1205.5" y="-539.8" font-family="Times,serif" font-size="14.00" fill="#000000">+ getNamespaces()</text>
<text text-anchor="start" x="1205.5" y="-520.8" font-family="Times,serif" font-size="14.00" fill="#000000">+ findNamespace(namespace)</text>
<text text-anchor="start" x="1205.5" y="-501.8" font-family="Times,serif" font-size="14.00" fill="#000000">+ find(name)</text>
<text text-anchor="start" x="1205.5" y="-482.8" font-family="Times,serif" font-size="14.00" fill="#000000">+ all(namespace = )</text>
<text text-anchor="start" x="1205.5" y="-463.8" font-family="Times,serif" font-size="14.00" fill="#000000">+ «static» getAbbreviations(names)</text>
<text text-anchor="start" x="1205.5" y="-444.8" font-family="Times,serif" font-size="14.00" fill="#000000">+ renderThrowable(e : Throwable, output : Symfony\Component\Console\Output\OutputInterface) : void</text>
<text text-anchor="start" x="1205.5" y="-425.8" font-family="Times,serif" font-size="14.00" fill="#000000">+ extractNamespace(name, limit = )</text>
<text text-anchor="start" x="1205.5" y="-406.8" font-family="Times,serif" font-size="14.00" fill="#000000">+ setDefaultCommand(commandName, isSingleCommand = )</text>
<text text-anchor="start" x="1205.5" y="-387.8" font-family="Times,serif" font-size="14.00" fill="#000000">+ isSingleCommand() : bool</text>
</g>
<!-- Bartlett\\UmlWriter\\Console\\Application&#45;&gt;Symfony\\Component\\Console\\Application -->
<g id="edge5" class="edge">
<title>Bartlett\\UmlWriter\\Console\\Application&#45;&gt;Symfony\\Component\\Console\\Application</title>
<path fill="none" stroke="#000000" d="M1072.3806,-725C1108.6441,-725 1145.2875,-725 1181.671,-725"/>
<polygon fill="none" stroke="#000000" points="1181.9257,-728.5001 1191.9257,-725 1181.9256,-721.5001 1181.9257,-728.5001"/>
</g>
<!-- Symfony\\Contracts\\Service\\ResetInterface -->
<g id="node10" class="node">
<title>Symfony\\Contracts\\Service\\ResetInterface</title>
<polygon fill="#d3d3d3" stroke="transparent" points="2673,-761.5 2500,-761.5 2500,-688.5 2673,-688.5 2673,-761.5"/>
<polygon fill="#eeeeee" stroke="transparent" points="2508.5,-723 2508.5,-757 2665.5,-757 2665.5,-723 2508.5,-723"/>
<polygon fill="none" stroke="#000000" points="2508.5,-723 2508.5,-757 2665.5,-757 2665.5,-723 2508.5,-723"/>
<text text-anchor="start" x="2541.5" y="-743.8" font-family="Times,serif" font-weight="bold" font-size="14.00" fill="#000000">«interface»</text>
<text text-anchor="start" x="2527.5" y="-729.8" font-family="Times,serif" font-weight="bold" font-size="14.00" fill="#000000">ResetInterface</text>
<polygon fill="none" stroke="#000000" points="2508.5,-717 2508.5,-723 2665.5,-723 2665.5,-717 2508.5,-717"/>
<polygon fill="none" stroke="#000000" points="2508.5,-692 2508.5,-717 2665.5,-717 2665.5,-692 2508.5,-692"/>
<text text-anchor="start" x="2513.5" y="-700.8" font-family="Times,serif" font-size="14.00" fill="#000000">+ «abstract» reset()</text>
</g>
<!-- Symfony\\Component\\Console\\Application&#45;&gt;Symfony\\Contracts\\Service\\ResetInterface -->
<g id="edge4" class="edge">
<title>Symfony\\Component\\Console\\Application&#45;&gt;Symfony\\Contracts\\Service\\ResetInterface</title>
<path fill="none" stroke="#000000" stroke-dasharray="5,2" d="M2185.1046,-725C2301.6898,-725 2413.9451,-725 2489.9519,-725"/>
<polygon fill="none" stroke="#000000" points="2489.9675,-728.5001 2499.9675,-725 2489.9675,-721.5001 2489.9675,-728.5001"/>
</g>
<!-- Bartlett\\UmlWriter\\Console\\Command\\ClassDiagramCommand -->
<g id="node11" class="node">
<title>Bartlett\\UmlWriter\\Console\\Command\\ClassDiagramCommand</title>
<polygon fill="#d3d3d3" stroke="transparent" points="1156,-1502 16,-1502 16,-1404 1156,-1404 1156,-1502"/>
<polygon fill="#eeeeee" stroke="transparent" points="24,-1464 24,-1498 1148,-1498 1148,-1464 24,-1464"/>
<polygon fill="none" stroke="#000000" points="24,-1464 24,-1498 1148,-1498 1148,-1464 24,-1464"/>
<text text-anchor="start" x="491" y="-1470.8" font-family="Times,serif" font-weight="bold" font-size="14.00" fill="#000000">ClassDiagramCommand</text>
<polygon fill="none" stroke="#000000" points="24,-1439 24,-1464 1148,-1464 1148,-1439 24,-1439"/>
<text text-anchor="start" x="29" y="-1447.8" font-family="Times,serif" font-size="14.00" fill="#000000">+ «static» NAME : string = &quot;diagram\:class&quot; {readOnly}</text>
<polygon fill="none" stroke="#000000" points="24,-1433 24,-1439 1148,-1439 1148,-1433 24,-1433"/>
<polygon fill="none" stroke="#000000" points="24,-1408 24,-1433 1148,-1433 1148,-1408 24,-1408"/>
<text text-anchor="start" x="29" y="-1416.8" font-family="Times,serif" font-size="14.00" fill="#000000">+ __construct(renderer : Bartlett\UmlWriter\Service\ClassDiagramRenderer, generatorFactory : Bartlett\UmlWriter\Generator\GeneratorFactoryInterface)</text>
</g>
<!-- Symfony\\Component\\Console\\Command\\Command -->
<g id="node12" class="node">
<title>Symfony\\Component\\Console\\Command\\Command</title>
<polygon fill="#d3d3d3" stroke="transparent" points="2164,-1784 1213,-1784 1213,-1122 2164,-1122 2164,-1784"/>
<polygon fill="#eeeeee" stroke="transparent" points="1221.5,-1746 1221.5,-1780 2156.5,-1780 2156.5,-1746 1221.5,-1746"/>
<polygon fill="none" stroke="#000000" points="1221.5,-1746 1221.5,-1780 2156.5,-1780 2156.5,-1746 1221.5,-1746"/>
<text text-anchor="start" x="1648.5" y="-1752.8" font-family="Times,serif" font-weight="bold" font-size="14.00" fill="#000000">Command</text>
<polygon fill="none" stroke="#000000" points="1221.5,-1740 1221.5,-1746 2156.5,-1746 2156.5,-1740 1221.5,-1740"/>
<polygon fill="none" stroke="#000000" points="1221.5,-1126 1221.5,-1740 2156.5,-1740 2156.5,-1126 1221.5,-1126"/>
<text text-anchor="start" x="1226.5" y="-1723.8" font-family="Times,serif" font-size="14.00" fill="#000000">+ «static» getDefaultName()</text>
<text text-anchor="start" x="1226.5" y="-1704.8" font-family="Times,serif" font-size="14.00" fill="#000000">+ __construct(name : mixed = )</text>
<text text-anchor="start" x="1226.5" y="-1685.8" font-family="Times,serif" font-size="14.00" fill="#000000">+ ignoreValidationErrors()</text>
<text text-anchor="start" x="1226.5" y="-1666.8" font-family="Times,serif" font-size="14.00" fill="#000000">+ setApplication(application : Symfony\Component\Console\Application = )</text>
<text text-anchor="start" x="1226.5" y="-1647.8" font-family="Times,serif" font-size="14.00" fill="#000000">+ setHelperSet(helperSet : Symfony\Component\Console\Helper\HelperSet)</text>
<text text-anchor="start" x="1226.5" y="-1628.8" font-family="Times,serif" font-size="14.00" fill="#000000">+ getHelperSet()</text>
<text text-anchor="start" x="1226.5" y="-1609.8" font-family="Times,serif" font-size="14.00" fill="#000000">+ getApplication()</text>
<text text-anchor="start" x="1226.5" y="-1590.8" font-family="Times,serif" font-size="14.00" fill="#000000">+ isEnabled()</text>
<text text-anchor="start" x="1226.5" y="-1571.8" font-family="Times,serif" font-size="14.00" fill="#000000">+ run(input : Symfony\Component\Console\Input\InputInterface, output : Symfony\Component\Console\Output\OutputInterface)</text>
<text text-anchor="start" x="1226.5" y="-1552.8" font-family="Times,serif" font-size="14.00" fill="#000000">+ setCode(code : callable)</text>
<text text-anchor="start" x="1226.5" y="-1533.8" font-family="Times,serif" font-size="14.00" fill="#000000">+ mergeApplicationDefinition(mergeArgs : bool = )</text>
<text text-anchor="start" x="1226.5" y="-1514.8" font-family="Times,serif" font-size="14.00" fill="#000000">+ setDefinition(definition : mixed)</text>
<text text-anchor="start" x="1226.5" y="-1495.8" font-family="Times,serif" font-size="14.00" fill="#000000">+ getDefinition()</text>
<text text-anchor="start" x="1226.5" y="-1476.8" font-family="Times,serif" font-size="14.00" fill="#000000">+ getNativeDefinition()</text>
<text text-anchor="start" x="1226.5" y="-1457.8" font-family="Times,serif" font-size="14.00" fill="#000000">+ addArgument(name, mode = , description = , default = )</text>
<text text-anchor="start" x="1226.5" y="-1438.8" font-family="Times,serif" font-size="14.00" fill="#000000">+ addOption(name, shortcut = , mode = , description = , default = )</text>
<text text-anchor="start" x="1226.5" y="-1419.8" font-family="Times,serif" font-size="14.00" fill="#000000">+ setName(name)</text>
<text text-anchor="start" x="1226.5" y="-1400.8" font-family="Times,serif" font-size="14.00" fill="#000000">+ setProcessTitle(title)</text>
<text text-anchor="start" x="1226.5" y="-1381.8" font-family="Times,serif" font-size="14.00" fill="#000000">+ getName()</text>
<text text-anchor="start" x="1226.5" y="-1362.8" font-family="Times,serif" font-size="14.00" fill="#000000">+ setHidden(hidden : bool)</text>
<text text-anchor="start" x="1226.5" y="-1343.8" font-family="Times,serif" font-size="14.00" fill="#000000">+ isHidden()</text>
<text text-anchor="start" x="1226.5" y="-1324.8" font-family="Times,serif" font-size="14.00" fill="#000000">+ setDescription(description)</text>
<text text-anchor="start" x="1226.5" y="-1305.8" font-family="Times,serif" font-size="14.00" fill="#000000">+ getDescription()</text>
<text text-anchor="start" x="1226.5" y="-1286.8" font-family="Times,serif" font-size="14.00" fill="#000000">+ setHelp(help)</text>
<text text-anchor="start" x="1226.5" y="-1267.8" font-family="Times,serif" font-size="14.00" fill="#000000">+ getHelp()</text>
<text text-anchor="start" x="1226.5" y="-1248.8" font-family="Times,serif" font-size="14.00" fill="#000000">+ getProcessedHelp()</text>
<text text-anchor="start" x="1226.5" y="-1229.8" font-family="Times,serif" font-size="14.00" fill="#000000">+ setAliases(aliases : mixed)</text>
<text text-anchor="start" x="1226.5" y="-1210.8" font-family="Times,serif" font-size="14.00" fill="#000000">+ getAliases()</text>
<text text-anchor="start" x="1226.5" y="-1191.8" font-family="Times,serif" font-size="14.00" fill="#000000">+ getSynopsis(short : bool = )</text>
<text text-anchor="start" x="1226.5" y="-1172.8" font-family="Times,serif" font-size="14.00" fill="#000000">+ addUsage(usage)</text>
<text text-anchor="start" x="1226.5" y="-1153.8" font-family="Times,serif" font-size="14.00" fill="#000000">+ getUsages()</text>
<text text-anchor="start" x="1226.5" y="-1134.8" font-family="Times,serif" font-size="14.00" fill="#000000">+ getHelper(name)</text>
</g>
<!-- Bartlett\\UmlWriter\\Console\\Command\\ClassDiagramCommand&#45;&gt;Symfony\\Component\\Console\\Command\\Command -->
<g id="edge6" class="edge">
<title>Bartlett\\UmlWriter\\Console\\Command\\ClassDiagramCommand&#45;&gt;Symfony\\Component\\Console\\Command\\Command</title>
<path fill="none" stroke="#000000" d="M1156.2228,-1453C1171.7473,-1453 1187.2518,-1453 1202.6868,-1453"/>
<polygon fill="none" stroke="#000000" points="1202.8194,-1456.5001 1212.8194,-1453 1202.8193,-1449.5001 1202.8194,-1456.5001"/>
</g>
<!-- Bartlett\\UmlWriter\\Config\\Loader\\YamlFileLoader -->
<g id="node13" class="node">
<title>Bartlett\\UmlWriter\\Config\\Loader\\YamlFileLoader</title>
<polygon fill="#d3d3d3" stroke="transparent" points="706.5,-1942 465.5,-1942 465.5,-1850 706.5,-1850 706.5,-1942"/>
<polygon fill="#eeeeee" stroke="transparent" points="474,-1904 474,-1938 699,-1938 699,-1904 474,-1904"/>
<polygon fill="none" stroke="#000000" points="474,-1904 474,-1938 699,-1938 699,-1904 474,-1904"/>
<text text-anchor="start" x="524.5" y="-1910.8" font-family="Times,serif" font-weight="bold" font-size="14.00" fill="#000000">YamlFileLoader</text>
<polygon fill="none" stroke="#000000" points="474,-1898 474,-1904 699,-1904 699,-1898 474,-1898"/>
<polygon fill="none" stroke="#000000" points="474,-1854 474,-1898 699,-1898 699,-1854 474,-1854"/>
<text text-anchor="start" x="479" y="-1881.8" font-family="Times,serif" font-size="14.00" fill="#000000">+ load(resource, type = )</text>
<text text-anchor="start" x="479" y="-1862.8" font-family="Times,serif" font-size="14.00" fill="#000000">+ supports(resource, type = )</text>
</g>
<!-- Symfony\\Component\\Config\\Loader\\FileLoader -->
<g id="node14" class="node">
<title>Symfony\\Component\\Config\\Loader\\FileLoader</title>
<polygon fill="#d3d3d3" stroke="transparent" points="2113.5,-1961 1263.5,-1961 1263.5,-1831 2113.5,-1831 2113.5,-1961"/>
<polygon fill="#eeeeee" stroke="transparent" points="1271.5,-1923 1271.5,-1957 2105.5,-1957 2105.5,-1923 1271.5,-1923"/>
<polygon fill="none" stroke="#000000" points="1271.5,-1923 1271.5,-1957 2105.5,-1957 2105.5,-1923 1271.5,-1923"/>
<text text-anchor="start" x="1646" y="-1943.8" font-family="Times,serif" font-weight="bold" font-size="14.00" fill="#000000">«abstract»</text>
<text text-anchor="start" x="1646" y="-1929.8" font-family="Times,serif" font-weight="bold" font-size="14.00" fill="#000000">FileLoader</text>
<polygon fill="none" stroke="#000000" points="1271.5,-1917 1271.5,-1923 2105.5,-1923 2105.5,-1917 1271.5,-1917"/>
<polygon fill="none" stroke="#000000" points="1271.5,-1835 1271.5,-1917 2105.5,-1917 2105.5,-1835 1271.5,-1835"/>
<text text-anchor="start" x="1276.5" y="-1900.8" font-family="Times,serif" font-size="14.00" fill="#000000">+ __construct(locator : Symfony\Component\Config\FileLocatorInterface)</text>
<text text-anchor="start" x="1276.5" y="-1881.8" font-family="Times,serif" font-size="14.00" fill="#000000">+ setCurrentDir(dir)</text>
<text text-anchor="start" x="1276.5" y="-1862.8" font-family="Times,serif" font-size="14.00" fill="#000000">+ getLocator()</text>
<text text-anchor="start" x="1276.5" y="-1843.8" font-family="Times,serif" font-size="14.00" fill="#000000">+ import(resource : mixed, type : mixed = , ignoreErrors : bool = , sourceResource : mixed = , exclude : mixed = )</text>
</g>
<!-- Bartlett\\UmlWriter\\Config\\Loader\\YamlFileLoader&#45;&gt;Symfony\\Component\\Config\\Loader\\FileLoader -->
<g id="edge9" class="edge">
<title>Bartlett\\UmlWriter\\Config\\Loader\\YamlFileLoader&#45;&gt;Symfony\\Component\\Config\\Loader\\FileLoader</title>
<path fill="none" stroke="#000000" d="M706.6126,-1896C838.0054,-1896 1055.8359,-1896 1252.9844,-1896"/>
<polygon fill="none" stroke="#000000" points="1253.2486,-1899.5001 1263.2486,-1896 1253.2485,-1892.5001 1253.2486,-1899.5001"/>
</g>
<!-- Symfony\\Component\\Config\\Loader\\Loader -->
<g id="node15" class="node">
<title>Symfony\\Component\\Config\\Loader\\Loader</title>
<polygon fill="#d3d3d3" stroke="transparent" points="2910.5,-1961 2262.5,-1961 2262.5,-1831 2910.5,-1831 2910.5,-1961"/>
<polygon fill="#eeeeee" stroke="transparent" points="2270.5,-1923 2270.5,-1957 2902.5,-1957 2902.5,-1923 2270.5,-1923"/>
<polygon fill="none" stroke="#000000" points="2270.5,-1923 2270.5,-1957 2902.5,-1957 2902.5,-1923 2270.5,-1923"/>
<text text-anchor="start" x="2544" y="-1943.8" font-family="Times,serif" font-weight="bold" font-size="14.00" fill="#000000">«abstract»</text>
<text text-anchor="start" x="2559" y="-1929.8" font-family="Times,serif" font-weight="bold" font-size="14.00" fill="#000000">Loader</text>
<polygon fill="none" stroke="#000000" points="2270.5,-1917 2270.5,-1923 2902.5,-1923 2902.5,-1917 2270.5,-1917"/>
<polygon fill="none" stroke="#000000" points="2270.5,-1835 2270.5,-1917 2902.5,-1917 2902.5,-1835 2270.5,-1835"/>
<text text-anchor="start" x="2275.5" y="-1900.8" font-family="Times,serif" font-size="14.00" fill="#000000">+ getResolver()</text>
<text text-anchor="start" x="2275.5" y="-1881.8" font-family="Times,serif" font-size="14.00" fill="#000000">+ setResolver(resolver : Symfony\Component\Config\Loader\LoaderResolverInterface)</text>
<text text-anchor="start" x="2275.5" y="-1862.8" font-family="Times,serif" font-size="14.00" fill="#000000">+ import(resource : mixed, type : mixed = )</text>
<text text-anchor="start" x="2275.5" y="-1843.8" font-family="Times,serif" font-size="14.00" fill="#000000">+ resolve(resource : mixed, type : mixed = )</text>
</g>
<!-- Symfony\\Component\\Config\\Loader\\FileLoader&#45;&gt;Symfony\\Component\\Config\\Loader\\Loader -->
<g id="edge8" class="edge">
<title>Symfony\\Component\\Config\\Loader\\FileLoader&#45;&gt;Symfony\\Component\\Config\\Loader\\Loader</title>
<path fill="none" stroke="#000000" d="M2113.5036,-1896C2159.9894,-1896 2206.8192,-1896 2251.9923,-1896"/>
<polygon fill="none" stroke="#000000" points="2252.2123,-1899.5001 2262.2123,-1896 2252.2123,-1892.5001 2252.2123,-1899.5001"/>
</g>
<!-- Symfony\\Component\\Config\\Loader\\LoaderInterface -->
<g id="node16" class="node">
<title>Symfony\\Component\\Config\\Loader\\LoaderInterface</title>
<polygon fill="#d3d3d3" stroke="transparent" points="3719,-1961 2988,-1961 2988,-1831 3719,-1831 3719,-1961"/>
<polygon fill="#eeeeee" stroke="transparent" points="2996.5,-1923 2996.5,-1957 3711.5,-1957 3711.5,-1923 2996.5,-1923"/>
<polygon fill="none" stroke="#000000" points="2996.5,-1923 2996.5,-1957 3711.5,-1957 3711.5,-1923 2996.5,-1923"/>
<text text-anchor="start" x="3308.5" y="-1943.8" font-family="Times,serif" font-weight="bold" font-size="14.00" fill="#000000">«interface»</text>
<text text-anchor="start" x="3289.5" y="-1929.8" font-family="Times,serif" font-weight="bold" font-size="14.00" fill="#000000">LoaderInterface</text>
<polygon fill="none" stroke="#000000" points="2996.5,-1917 2996.5,-1923 3711.5,-1923 3711.5,-1917 2996.5,-1917"/>
<polygon fill="none" stroke="#000000" points="2996.5,-1835 2996.5,-1917 3711.5,-1917 3711.5,-1835 2996.5,-1835"/>
<text text-anchor="start" x="3001.5" y="-1900.8" font-family="Times,serif" font-size="14.00" fill="#000000">+ «abstract» load(resource, type = )</text>
<text text-anchor="start" x="3001.5" y="-1881.8" font-family="Times,serif" font-size="14.00" fill="#000000">+ «abstract» supports(resource, type = )</text>
<text text-anchor="start" x="3001.5" y="-1862.8" font-family="Times,serif" font-size="14.00" fill="#000000">+ «abstract» getResolver()</text>
<text text-anchor="start" x="3001.5" y="-1843.8" font-family="Times,serif" font-size="14.00" fill="#000000">+ «abstract» setResolver(resolver : Symfony\Component\Config\Loader\LoaderResolverInterface)</text>
</g>
<!-- Symfony\\Component\\Config\\Loader\\Loader&#45;&gt;Symfony\\Component\\Config\\Loader\\LoaderInterface -->
<g id="edge7" class="edge">
<title>Symfony\\Component\\Config\\Loader\\Loader&#45;&gt;Symfony\\Component\\Config\\Loader\\LoaderInterface</title>
<path fill="none" stroke="#000000" stroke-dasharray="5,2" d="M2910.6653,-1896C2932.8247,-1896 2955.255,-1896 2977.6505,-1896"/>
<polygon fill="none" stroke="#000000" points="2977.9368,-1899.5001 2987.9367,-1896 2977.9367,-1892.5001 2977.9368,-1899.5001"/>
</g>
</g>
</svg>
