<?xml version="1.0" encoding="UTF-8" standalone="no"?>
<!DOCTYPE svg PUBLIC "-//W3C//DTD SVG 1.1//EN"
 "http://www.w3.org/Graphics/SVG/1.1/DTD/svg11.dtd">
<!-- Generated by graphviz version 2.40.1 (20161225.0304)
 -->
<!-- Title: %3 Pages: 1 -->
<svg width="3646pt" height="567pt"
 viewBox="0.00 0.00 3646.00 567.00" xmlns="http://www.w3.org/2000/svg" xmlns:xlink="http://www.w3.org/1999/xlink">
<g id="graph0" class="graph" transform="scale(1 1) rotate(0) translate(4 563)">
<title>%3</title>
<polygon fill="#ffffff" stroke="transparent" points="-4,4 -4,-563 3642,-563 3642,4 -4,4"/>
<!-- bartlett/umlwriter -->
<g id="node1" class="node">
<title>bartlett/umlwriter</title>
<path fill="#eeeeee" stroke="#000000" stroke-width="2" d="M1333.5,-559C1333.5,-559 1244.5,-559 1244.5,-559 1238.5,-559 1232.5,-553 1232.5,-547 1232.5,-547 1232.5,-535 1232.5,-535 1232.5,-529 1238.5,-523 1244.5,-523 1244.5,-523 1333.5,-523 1333.5,-523 1339.5,-523 1345.5,-529 1345.5,-535 1345.5,-535 1345.5,-547 1345.5,-547 1345.5,-553 1339.5,-559 1333.5,-559"/>
<text text-anchor="middle" x="1289" y="-537.3" font-family="Times,serif" font-size="14.00" fill="#314b5f">bartlett/umlwriter</text>
</g>
<!-- php -->
<g id="node2" class="node">
<title>php</title>
<path fill="#eeeeee" stroke="#000000" d="M1446,-36C1446,-36 1416,-36 1416,-36 1410,-36 1404,-30 1404,-24 1404,-24 1404,-12 1404,-12 1404,-6 1410,0 1416,0 1416,0 1446,0 1446,0 1452,0 1458,-6 1458,-12 1458,-12 1458,-24 1458,-24 1458,-30 1452,-36 1446,-36"/>
<text text-anchor="middle" x="1431" y="-14.3" font-family="Times,serif" font-size="14.00" fill="#314b5f">php</text>
</g>
<!-- bartlett/umlwriter&#45;&gt;php -->
<g id="edge1" class="edge">
<title>bartlett/umlwriter&#45;&gt;php</title>
<path fill="none" stroke="#1a2833" d="M1345.5906,-540.8928C1627.8346,-540.2181 2885.2214,-535.5218 3275,-505 3426.2047,-493.1598 3613,-609.6676 3613,-458 3613,-458 3613,-458 3613,-101 3613,-79.5128 3546.28,-66.948 3443,-54 3240.1991,-28.5753 1726.9214,-19.551 1468.485,-18.1884"/>
<polygon fill="#1a2833" stroke="#1a2833" points="1468.1513,-14.6867 1458.1331,-18.1344 1468.1147,-21.6866 1468.1513,-14.6867"/>
<text text-anchor="middle" x="3625.5" y="-289.5" font-family="Times,serif" font-size="10.00" fill="#767676">^7.1.3</text>
</g>
<!-- bartlett/graph&#45;plantuml&#45;generator -->
<g id="node3" class="node">
<title>bartlett/graph&#45;plantuml&#45;generator</title>
<path fill="#eeeeee" stroke="#000000" d="M1248.5,-393C1248.5,-393 1013.5,-393 1013.5,-393 1007.5,-393 1001.5,-387 1001.5,-381 1001.5,-381 1001.5,-369 1001.5,-369 1001.5,-363 1007.5,-357 1013.5,-357 1013.5,-357 1248.5,-357 1248.5,-357 1254.5,-357 1260.5,-363 1260.5,-369 1260.5,-369 1260.5,-381 1260.5,-381 1260.5,-387 1254.5,-393 1248.5,-393"/>
<text text-anchor="middle" x="1131" y="-371.3" font-family="Times,serif" font-size="14.00" fill="#314b5f">bartlett/graph&#45;plantuml&#45;generator: 1.0.0&#45;rc.2</text>
</g>
<!-- bartlett/umlwriter&#45;&gt;bartlett/graph&#45;plantuml&#45;generator -->
<g id="edge2" class="edge">
<title>bartlett/umlwriter&#45;&gt;bartlett/graph&#45;plantuml&#45;generator</title>
<path fill="none" stroke="#1a2833" d="M1271.7905,-522.9191C1243.6535,-493.3575 1187.7138,-434.5854 1155.4619,-400.7004"/>
<polygon fill="#1a2833" stroke="#1a2833" points="1157.6179,-397.8891 1148.1883,-393.0586 1152.5475,-402.7151 1157.6179,-397.8891"/>
<text text-anchor="middle" x="1245.5" y="-455.5" font-family="Times,serif" font-size="10.00" fill="#767676">1.0.0&#45;rc.2</text>
</g>
<!-- bartlett/graph&#45;uml -->
<g id="node4" class="node">
<title>bartlett/graph&#45;uml</title>
<path fill="#eeeeee" stroke="#000000" d="M933,-310C933,-310 781,-310 781,-310 775,-310 769,-304 769,-298 769,-298 769,-286 769,-286 769,-280 775,-274 781,-274 781,-274 933,-274 933,-274 939,-274 945,-280 945,-286 945,-286 945,-298 945,-298 945,-304 939,-310 933,-310"/>
<text text-anchor="middle" x="857" y="-288.3" font-family="Times,serif" font-size="14.00" fill="#314b5f">bartlett/graph&#45;uml: 1.0.0&#45;rc.2</text>
</g>
<!-- bartlett/umlwriter&#45;&gt;bartlett/graph&#45;uml -->
<g id="edge3" class="edge">
<title>bartlett/umlwriter&#45;&gt;bartlett/graph&#45;uml</title>
<path fill="none" stroke="#1a2833" d="M1232.3068,-537.8066C1143.8402,-532.3802 980.7782,-520.4305 959,-505 896.3057,-460.5793 870.7409,-367.051 861.5417,-320.1169"/>
<polygon fill="#1a2833" stroke="#1a2833" points="864.9391,-319.24 859.6801,-310.0425 858.0556,-320.512 864.9391,-319.24"/>
<text text-anchor="middle" x="913.5" y="-414" font-family="Times,serif" font-size="10.00" fill="#767676">1.0.0&#45;rc.2</text>
</g>
<!-- goaop/parser&#45;reflection -->
<g id="node5" class="node">
<title>goaop/parser&#45;reflection</title>
<path fill="#eeeeee" stroke="#000000" d="M409,-227C409,-227 255,-227 255,-227 249,-227 243,-221 243,-215 243,-215 243,-203 243,-203 243,-197 249,-191 255,-191 255,-191 409,-191 409,-191 415,-191 421,-197 421,-203 421,-203 421,-215 421,-215 421,-221 415,-227 409,-227"/>
<text text-anchor="middle" x="332" y="-205.3" font-family="Times,serif" font-size="14.00" fill="#314b5f">goaop/parser&#45;reflection: 2.1.3</text>
</g>
<!-- bartlett/umlwriter&#45;&gt;goaop/parser&#45;reflection -->
<g id="edge4" class="edge">
<title>bartlett/umlwriter&#45;&gt;goaop/parser&#45;reflection</title>
<path fill="none" stroke="#1a2833" d="M1232.4055,-540.456C1053.8885,-538.4846 510.0108,-530.4359 435,-505 400.5527,-493.319 368,-494.3739 368,-458 368,-458 368,-458 368,-292 368,-272.0426 359.1314,-251.4493 350.1978,-235.7678"/>
<polygon fill="#1a2833" stroke="#1a2833" points="353.1585,-233.8999 344.9968,-227.1443 347.1643,-237.5151 353.1585,-233.8999"/>
<text text-anchor="middle" x="377" y="-372.5" font-family="Times,serif" font-size="10.00" fill="#767676">^2.1</text>
</g>
<!-- graphp/graph -->
<g id="node6" class="node">
<title>graphp/graph</title>
<path fill="#eeeeee" stroke="#000000" d="M694.5,-119C694.5,-119 561.5,-119 561.5,-119 555.5,-119 549.5,-113 549.5,-107 549.5,-107 549.5,-95 549.5,-95 549.5,-89 555.5,-83 561.5,-83 561.5,-83 694.5,-83 694.5,-83 700.5,-83 706.5,-89 706.5,-95 706.5,-95 706.5,-107 706.5,-107 706.5,-113 700.5,-119 694.5,-119"/>
<text text-anchor="middle" x="628" y="-97.3" font-family="Times,serif" font-size="14.00" fill="#314b5f">graphp/graph: dev&#45;master</text>
</g>
<!-- bartlett/umlwriter&#45;&gt;graphp/graph -->
<g id="edge5" class="edge">
<title>bartlett/umlwriter&#45;&gt;graphp/graph</title>
<path fill="none" stroke="#1a2833" d="M1232.2528,-538.3734C1043.5521,-529.2689 449,-497.4523 449,-458 449,-458 449,-458 449,-250.5 449,-222.74 450.4639,-212.5198 468,-191 493.3958,-159.8351 532.611,-137.5313 565.8612,-122.9227"/>
<polygon fill="#1a2833" stroke="#1a2833" points="567.2342,-126.1422 575.0648,-119.0055 564.4928,-119.7014 567.2342,-126.1422"/>
<text text-anchor="middle" x="488" y="-331" font-family="Times,serif" font-size="10.00" fill="#767676">dev&#45;master as 1.0.0</text>
</g>
<!-- graphp/graphviz -->
<g id="node7" class="node">
<title>graphp/graphviz</title>
<path fill="#eeeeee" stroke="#000000" d="M751,-227C751,-227 489,-227 489,-227 483,-227 477,-221 477,-215 477,-215 477,-203 477,-203 477,-197 483,-191 489,-191 489,-191 751,-191 751,-191 757,-191 763,-197 763,-203 763,-203 763,-215 763,-215 763,-221 757,-227 751,-227"/>
<text text-anchor="middle" x="620" y="-205.3" font-family="Times,serif" font-size="14.00" fill="#314b5f">graphp/graphviz: dev&#45;subgraph_cluster_attributes</text>
</g>
<!-- bartlett/umlwriter&#45;&gt;graphp/graphviz -->
<g id="edge6" class="edge">
<title>bartlett/umlwriter&#45;&gt;graphp/graphviz</title>
<path fill="none" stroke="#1a2833" d="M1232.4405,-537.4235C1148.5146,-531.7276 995.1916,-519.7213 942,-505 766.6279,-456.464 666.4859,-471.1622 582,-310 568.5094,-284.2658 575.7406,-270.8541 589,-245 590.7196,-241.647 592.8128,-238.3442 595.0914,-235.1804"/>
<polygon fill="#1a2833" stroke="#1a2833" points="597.9556,-237.2016 601.4271,-227.1916 592.471,-232.8519 597.9556,-237.2016"/>
<text text-anchor="middle" x="723.5" y="-372.5" font-family="Times,serif" font-size="10.00" fill="#767676">dev&#45;subgraph_cluster_attributes as 1.0.0</text>
</g>
<!-- psr/container -->
<g id="node8" class="node">
<title>psr/container</title>
<path fill="#eeeeee" stroke="#000000" d="M1122,-119C1122,-119 1024,-119 1024,-119 1018,-119 1012,-113 1012,-107 1012,-107 1012,-95 1012,-95 1012,-89 1018,-83 1024,-83 1024,-83 1122,-83 1122,-83 1128,-83 1134,-89 1134,-95 1134,-95 1134,-107 1134,-107 1134,-113 1128,-119 1122,-119"/>
<text text-anchor="middle" x="1073" y="-97.3" font-family="Times,serif" font-size="14.00" fill="#314b5f">psr/container: 1.0.0</text>
</g>
<!-- bartlett/umlwriter&#45;&gt;psr/container -->
<g id="edge7" class="edge">
<title>bartlett/umlwriter&#45;&gt;psr/container</title>
<path fill="none" stroke="#1a2833" d="M1232.1406,-537.6923C1141.1622,-530.8236 973,-510.9641 973,-458 973,-458 973,-458 973,-333.5 973,-331.0556 972.5885,-330.4096 973,-328 977.2834,-302.9209 982.3717,-297.55 992,-274 1013.4179,-221.6137 1042.2754,-162.193 1059.1361,-128.3958"/>
<polygon fill="#1a2833" stroke="#1a2833" points="1062.4094,-129.6761 1063.7598,-119.1677 1056.151,-126.5404 1062.4094,-129.6761"/>
<text text-anchor="middle" x="982" y="-331" font-family="Times,serif" font-size="10.00" fill="#767676">^1.0</text>
</g>
<!-- symfony/config -->
<g id="node9" class="node">
<title>symfony/config</title>
<path fill="#eeeeee" stroke="#000000" d="M1788.5,-476C1788.5,-476 1667.5,-476 1667.5,-476 1661.5,-476 1655.5,-470 1655.5,-464 1655.5,-464 1655.5,-452 1655.5,-452 1655.5,-446 1661.5,-440 1667.5,-440 1667.5,-440 1788.5,-440 1788.5,-440 1794.5,-440 1800.5,-446 1800.5,-452 1800.5,-452 1800.5,-464 1800.5,-464 1800.5,-470 1794.5,-476 1788.5,-476"/>
<text text-anchor="middle" x="1728" y="-454.3" font-family="Times,serif" font-size="14.00" fill="#314b5f">symfony/config: v5.1.5</text>
</g>
<!-- bartlett/umlwriter&#45;&gt;symfony/config -->
<g id="edge8" class="edge">
<title>bartlett/umlwriter&#45;&gt;symfony/config</title>
<path fill="none" stroke="#1a2833" d="M1345.9415,-530.2343C1422.2286,-515.811 1558.1151,-490.1195 1645.5804,-473.5828"/>
<polygon fill="#1a2833" stroke="#1a2833" points="1646.2954,-477.0097 1655.4711,-471.7128 1644.9949,-470.1315 1646.2954,-477.0097"/>
<text text-anchor="middle" x="1553.5" y="-497" font-family="Times,serif" font-size="10.00" fill="#767676">^4.4|^5.0</text>
</g>
<!-- symfony/console -->
<g id="node10" class="node">
<title>symfony/console</title>
<path fill="#eeeeee" stroke="#000000" d="M2240,-310C2240,-310 2112,-310 2112,-310 2106,-310 2100,-304 2100,-298 2100,-298 2100,-286 2100,-286 2100,-280 2106,-274 2112,-274 2112,-274 2240,-274 2240,-274 2246,-274 2252,-280 2252,-286 2252,-286 2252,-298 2252,-298 2252,-304 2246,-310 2240,-310"/>
<text text-anchor="middle" x="2176" y="-288.3" font-family="Times,serif" font-size="14.00" fill="#314b5f">symfony/console: v5.1.5</text>
</g>
<!-- bartlett/umlwriter&#45;&gt;symfony/console -->
<g id="edge9" class="edge">
<title>bartlett/umlwriter&#45;&gt;symfony/console</title>
<path fill="none" stroke="#1a2833" d="M1345.627,-540.7982C1638.4232,-539.1804 2971.7642,-524.5893 3093,-393 3115.0908,-369.0227 3089.3549,-339.895 3059,-328 2986.2587,-299.4953 2470.2796,-293.56 2262.4365,-292.3246"/>
<polygon fill="#1a2833" stroke="#1a2833" points="2262.1972,-288.8232 2252.1773,-292.2659 2262.1571,-295.8231 2262.1972,-288.8232"/>
<text text-anchor="middle" x="3082.5" y="-414" font-family="Times,serif" font-size="10.00" fill="#767676">^4.4|^5.0</text>
</g>
<!-- symfony/finder -->
<g id="node11" class="node">
<title>symfony/finder</title>
<path fill="#eeeeee" stroke="#000000" d="M1448.5,-393C1448.5,-393 1329.5,-393 1329.5,-393 1323.5,-393 1317.5,-387 1317.5,-381 1317.5,-381 1317.5,-369 1317.5,-369 1317.5,-363 1323.5,-357 1329.5,-357 1329.5,-357 1448.5,-357 1448.5,-357 1454.5,-357 1460.5,-363 1460.5,-369 1460.5,-369 1460.5,-381 1460.5,-381 1460.5,-387 1454.5,-393 1448.5,-393"/>
<text text-anchor="middle" x="1389" y="-371.3" font-family="Times,serif" font-size="14.00" fill="#314b5f">symfony/finder: v5.1.5</text>
</g>
<!-- bartlett/umlwriter&#45;&gt;symfony/finder -->
<g id="edge10" class="edge">
<title>bartlett/umlwriter&#45;&gt;symfony/finder</title>
<path fill="none" stroke="#1a2833" d="M1299.8921,-522.9191C1317.4749,-493.7317 1352.2117,-436.0686 1372.7355,-401.9991"/>
<polygon fill="#1a2833" stroke="#1a2833" points="1375.9592,-403.4305 1378.1213,-393.0586 1369.9631,-399.8184 1375.9592,-403.4305"/>
<text text-anchor="middle" x="1367.5" y="-455.5" font-family="Times,serif" font-size="10.00" fill="#767676">^4.4|^5.0</text>
</g>
<!-- symfony/options&#45;resolver -->
<g id="node12" class="node">
<title>symfony/options&#45;resolver</title>
<path fill="#eeeeee" stroke="#000000" d="M3530,-393C3530,-393 3356,-393 3356,-393 3350,-393 3344,-387 3344,-381 3344,-381 3344,-369 3344,-369 3344,-363 3350,-357 3356,-357 3356,-357 3530,-357 3530,-357 3536,-357 3542,-363 3542,-369 3542,-369 3542,-381 3542,-381 3542,-387 3536,-393 3530,-393"/>
<text text-anchor="middle" x="3443" y="-371.3" font-family="Times,serif" font-size="14.00" fill="#314b5f">symfony/options&#45;resolver: v5.1.5</text>
</g>
<!-- bartlett/umlwriter&#45;&gt;symfony/options&#45;resolver -->
<g id="edge11" class="edge">
<title>bartlett/umlwriter&#45;&gt;symfony/options&#45;resolver</title>
<path fill="none" stroke="#1a2833" d="M1345.6513,-540.8562C1657.5687,-539.9518 3154.9685,-534.1034 3248,-505 3315.6903,-483.8242 3381.6098,-431.2112 3416.7851,-399.792"/>
<polygon fill="#1a2833" stroke="#1a2833" points="3419.1657,-402.358 3424.2259,-393.0497 3414.4654,-397.1708 3419.1657,-402.358"/>
<text text-anchor="middle" x="3382.5" y="-455.5" font-family="Times,serif" font-size="10.00" fill="#767676">^4.4|^5.0</text>
</g>
<!-- symfony/yaml -->
<g id="node13" class="node">
<title>symfony/yaml</title>
<path fill="#eeeeee" stroke="#000000" d="M2049,-393C2049,-393 1935,-393 1935,-393 1929,-393 1923,-387 1923,-381 1923,-381 1923,-369 1923,-369 1923,-363 1929,-357 1935,-357 1935,-357 2049,-357 2049,-357 2055,-357 2061,-363 2061,-369 2061,-369 2061,-381 2061,-381 2061,-387 2055,-393 2049,-393"/>
<text text-anchor="middle" x="1992" y="-371.3" font-family="Times,serif" font-size="14.00" fill="#314b5f">symfony/yaml: v5.1.5</text>
</g>
<!-- bartlett/umlwriter&#45;&gt;symfony/yaml -->
<g id="edge12" class="edge">
<title>bartlett/umlwriter&#45;&gt;symfony/yaml</title>
<path fill="none" stroke="#1a2833" d="M1345.5864,-536.4296C1461.9094,-526.6286 1724.1625,-502.3311 1810,-476 1865.8943,-458.8541 1923.832,-423.0399 1958.9056,-399.0019"/>
<polygon fill="#1a2833" stroke="#1a2833" points="1961.0971,-401.7413 1967.3148,-393.1628 1957.1046,-395.9915 1961.0971,-401.7413"/>
<text text-anchor="middle" x="1909.5" y="-455.5" font-family="Times,serif" font-size="10.00" fill="#767676">^4.4|^5.0</text>
</g>
<!-- jawira/plantuml -->
<g id="node14" class="node">
<title>jawira/plantuml</title>
<path fill="#eeeeee" stroke="#000000" d="M1397,-310C1397,-310 1269,-310 1269,-310 1263,-310 1257,-304 1257,-298 1257,-298 1257,-286 1257,-286 1257,-280 1263,-274 1269,-274 1269,-274 1397,-274 1397,-274 1403,-274 1409,-280 1409,-286 1409,-286 1409,-298 1409,-298 1409,-304 1403,-310 1397,-310"/>
<text text-anchor="middle" x="1333" y="-288.3" font-family="Times,serif" font-size="14.00" fill="#314b5f">jawira/plantuml: v1.41.0</text>
</g>
<!-- bartlett/umlwriter&#45;&gt;jawira/plantuml -->
<g id="edge13" class="edge">
<title>bartlett/umlwriter&#45;&gt;jawira/plantuml</title>
<path fill="none" stroke="#1a2833" stroke-dasharray="5,2" d="M1289.29,-522.9742C1290.1698,-489.7167 1293.7157,-416.6519 1308,-357 1311.027,-344.359 1315.9206,-330.8719 1320.5792,-319.4786"/>
<polygon fill="#1a2833" stroke="#1a2833" points="1323.883,-320.6524 1324.5598,-310.0792 1317.4372,-317.9226 1323.883,-320.6524"/>
<text text-anchor="middle" x="1309.5" y="-414" font-family="Times,serif" font-size="10.00" fill="#767676">^1.28</text>
</g>
<!-- bartlett/graph&#45;plantuml&#45;generator&#45;&gt;php -->
<g id="edge17" class="edge">
<title>bartlett/graph&#45;plantuml&#45;generator&#45;&gt;php</title>
<path fill="none" stroke="#1a2833" d="M1160.0609,-356.7358C1176.4519,-345.1237 1196.1574,-328.7654 1209,-310 1224.7564,-286.977 1229,-278.3984 1229,-250.5 1229,-250.5 1229,-250.5 1229,-101 1229,-68.846 1255.3859,-68.6666 1284,-54 1318.8256,-36.1496 1362.8858,-26.8843 1393.6474,-22.2566"/>
<polygon fill="#1a2833" stroke="#1a2833" points="1394.5228,-25.6679 1403.9366,-20.8067 1393.546,-18.7364 1394.5228,-25.6679"/>
<text text-anchor="middle" x="1241.5" y="-206.5" font-family="Times,serif" font-size="10.00" fill="#767676">^7.1.3</text>
</g>
<!-- bartlett/graph&#45;plantuml&#45;generator&#45;&gt;bartlett/graph&#45;uml -->
<g id="edge14" class="edge">
<title>bartlett/graph&#45;plantuml&#45;generator&#45;&gt;bartlett/graph&#45;uml</title>
<path fill="none" stroke="#1a2833" d="M1081.8815,-356.9942C1056.16,-347.828 1024.0503,-336.7944 995,-328 977.3228,-322.6485 958.2305,-317.3592 940.0487,-312.5501"/>
<polygon fill="#1a2833" stroke="#1a2833" points="940.9081,-309.1572 930.3474,-310.0062 939.1325,-315.9283 940.9081,-309.1572"/>
<text text-anchor="middle" x="1038" y="-331" font-family="Times,serif" font-size="10.00" fill="#767676">^1.0</text>
</g>
<!-- bartlett/graph&#45;plantuml&#45;generator&#45;&gt;graphp/graphviz -->
<g id="edge15" class="edge">
<title>bartlett/graph&#45;plantuml&#45;generator&#45;&gt;graphp/graphviz</title>
<path fill="none" stroke="#1a2833" d="M1001.4271,-368.1602C851.4649,-358.8913 621.556,-339.9709 595,-310 576.9955,-289.6802 588.7479,-258.408 601.5232,-236.0468"/>
<polygon fill="#1a2833" stroke="#1a2833" points="604.596,-237.7295 606.7867,-227.3636 598.6099,-234.1008 604.596,-237.7295"/>
<text text-anchor="middle" x="677.5" y="-289.5" font-family="Times,serif" font-size="10.00" fill="#767676">dev&#45;subgraph_cluster_attributes as 1.0.0</text>
</g>
<!-- bartlett/graph&#45;plantuml&#45;generator&#45;&gt;jawira/plantuml -->
<g id="edge18" class="edge">
<title>bartlett/graph&#45;plantuml&#45;generator&#45;&gt;jawira/plantuml</title>
<path fill="none" stroke="#1a2833" stroke-dasharray="5,2" d="M1186.2117,-356.9556C1201.7959,-351.5248 1218.6772,-345.3196 1234,-339 1244.4752,-334.6797 1246.7687,-332.8698 1257,-328 1266.195,-323.6235 1276.0213,-318.9593 1285.4523,-314.4892"/>
<polygon fill="#1a2833" stroke="#1a2833" points="1287.1749,-317.5461 1294.7135,-310.1016 1284.1778,-311.2201 1287.1749,-317.5461"/>
<text text-anchor="middle" x="1268.5" y="-331" font-family="Times,serif" font-size="10.00" fill="#767676">^1.28</text>
</g>
<!-- jawira/plantuml&#45;encoding -->
<g id="node15" class="node">
<title>jawira/plantuml&#45;encoding</title>
<path fill="#eeeeee" stroke="#000000" d="M1188.5,-310C1188.5,-310 1013.5,-310 1013.5,-310 1007.5,-310 1001.5,-304 1001.5,-298 1001.5,-298 1001.5,-286 1001.5,-286 1001.5,-280 1007.5,-274 1013.5,-274 1013.5,-274 1188.5,-274 1188.5,-274 1194.5,-274 1200.5,-280 1200.5,-286 1200.5,-286 1200.5,-298 1200.5,-298 1200.5,-304 1194.5,-310 1188.5,-310"/>
<text text-anchor="middle" x="1101" y="-288.3" font-family="Times,serif" font-size="14.00" fill="#314b5f">jawira/plantuml&#45;encoding: v1.0.7</text>
</g>
<!-- bartlett/graph&#45;plantuml&#45;generator&#45;&gt;jawira/plantuml&#45;encoding -->
<g id="edge16" class="edge">
<title>bartlett/graph&#45;plantuml&#45;generator&#45;&gt;jawira/plantuml&#45;encoding</title>
<path fill="none" stroke="#1a2833" d="M1124.4904,-356.9902C1120.5861,-346.1883 1115.5375,-332.2204 1111.1218,-320.0036"/>
<polygon fill="#1a2833" stroke="#1a2833" points="1114.2913,-318.476 1107.6004,-310.2612 1107.7082,-320.8555 1114.2913,-318.476"/>
<text text-anchor="middle" x="1127" y="-331" font-family="Times,serif" font-size="10.00" fill="#767676">^1.0</text>
</g>
<!-- bartlett/graph&#45;uml&#45;&gt;php -->
<g id="edge21" class="edge">
<title>bartlett/graph&#45;uml&#45;&gt;php</title>
<path fill="none" stroke="#1a2833" d="M886.4116,-273.9287C902.4654,-262.4883 921.2154,-246.2383 932,-227 951.8292,-191.6271 928.1173,-172.8871 947,-137 963.0999,-106.4018 973.2514,-100.6204 1003,-83 1069.0125,-43.9002 1301.9592,-25.8235 1393.585,-20.1063"/>
<polygon fill="#1a2833" stroke="#1a2833" points="1394.0161,-23.5867 1403.7846,-19.4848 1393.5903,-16.5996 1394.0161,-23.5867"/>
<text text-anchor="middle" x="959.5" y="-152.5" font-family="Times,serif" font-size="10.00" fill="#767676">^7.1.3</text>
</g>
<!-- bartlett/graph&#45;uml&#45;&gt;graphp/graph -->
<g id="edge19" class="edge">
<title>bartlett/graph&#45;uml&#45;&gt;graphp/graph</title>
<path fill="none" stroke="#1a2833" d="M844.6493,-273.9449C817.0138,-233.5898 752.3396,-139.4131 749,-137 739.1177,-129.8594 727.8166,-124.1222 716.1801,-119.5156"/>
<polygon fill="#1a2833" stroke="#1a2833" points="717.3901,-116.2315 706.7966,-116.0585 714.97,-122.7999 717.3901,-116.2315"/>
<text text-anchor="middle" x="871.5" y="-206.5" font-family="Times,serif" font-size="10.00" fill="#767676">dev&#45;master#214de45 as 1.0.0</text>
</g>
<!-- bartlett/graph&#45;uml&#45;&gt;graphp/graphviz -->
<g id="edge20" class="edge">
<title>bartlett/graph&#45;uml&#45;&gt;graphp/graphviz</title>
<path fill="none" stroke="#1a2833" d="M768.8554,-276.2066C764.1721,-275.442 759.5314,-274.7016 755,-274 725.0909,-269.3691 639.9366,-278.7713 620,-256 615.5555,-250.9236 613.9822,-244.2231 613.8889,-237.4774"/>
<polygon fill="#1a2833" stroke="#1a2833" points="617.4139,-237.3236 614.7606,-227.0664 610.4383,-236.7395 617.4139,-237.3236"/>
<text text-anchor="middle" x="702.5" y="-248" font-family="Times,serif" font-size="10.00" fill="#767676">dev&#45;subgraph_cluster_attributes as 1.0.0</text>
</g>
<!-- goaop/parser&#45;reflection&#45;&gt;php -->
<g id="edge23" class="edge">
<title>goaop/parser&#45;reflection&#45;&gt;php</title>
<path fill="none" stroke="#1a2833" d="M341.253,-190.7331C344.0916,-185.0657 347.2029,-178.7883 350,-173 369.2054,-133.2558 356.0088,-108.5554 392,-83 405.0667,-73.722 663.0185,-55.1891 679,-54 953.0483,-33.609 1284.1834,-22.4293 1393.7886,-19.0846"/>
<polygon fill="#1a2833" stroke="#1a2833" points="1394.1011,-22.5769 1403.9908,-18.7765 1393.8897,-15.5801 1394.1011,-22.5769"/>
<text text-anchor="middle" x="404.5" y="-98.5" font-family="Times,serif" font-size="10.00" fill="#767676">&gt;=7.1</text>
</g>
<!-- nikic/php&#45;parser -->
<g id="node16" class="node">
<title>nikic/php&#45;parser</title>
<path fill="#eeeeee" stroke="#000000" d="M272.5,-119C272.5,-119 149.5,-119 149.5,-119 143.5,-119 137.5,-113 137.5,-107 137.5,-107 137.5,-95 137.5,-95 137.5,-89 143.5,-83 149.5,-83 149.5,-83 272.5,-83 272.5,-83 278.5,-83 284.5,-89 284.5,-95 284.5,-95 284.5,-107 284.5,-107 284.5,-113 278.5,-119 272.5,-119"/>
<text text-anchor="middle" x="211" y="-97.3" font-family="Times,serif" font-size="14.00" fill="#314b5f">nikic/php&#45;parser: v4.6.0</text>
</g>
<!-- goaop/parser&#45;reflection&#45;&gt;nikic/php&#45;parser -->
<g id="edge22" class="edge">
<title>goaop/parser&#45;reflection&#45;&gt;nikic/php&#45;parser</title>
<path fill="none" stroke="#1a2833" d="M297.3596,-190.8419C288.6932,-185.6066 279.6845,-179.5275 272,-173 256.1345,-159.5233 240.9909,-141.6873 229.761,-127.1393"/>
<polygon fill="#1a2833" stroke="#1a2833" points="232.4439,-124.884 223.6255,-119.0115 226.857,-129.1015 232.4439,-124.884"/>
<text text-anchor="middle" x="295" y="-152.5" font-family="Times,serif" font-size="10.00" fill="#767676">^4.0 &lt;4.7.0</text>
</g>
<!-- phpunit/phpunit -->
<g id="node17" class="node">
<title>phpunit/phpunit</title>
<path fill="#eeeeee" stroke="#000000" d="M409.5,-36C409.5,-36 330.5,-36 330.5,-36 324.5,-36 318.5,-30 318.5,-24 318.5,-24 318.5,-12 318.5,-12 318.5,-6 324.5,0 330.5,0 330.5,0 409.5,0 409.5,0 415.5,0 421.5,-6 421.5,-12 421.5,-12 421.5,-24 421.5,-24 421.5,-30 415.5,-36 409.5,-36"/>
<text text-anchor="middle" x="370" y="-14.3" font-family="Times,serif" font-size="14.00" fill="#314b5f">phpunit/phpunit</text>
</g>
<!-- goaop/parser&#45;reflection&#45;&gt;phpunit/phpunit -->
<g id="edge24" class="edge">
<title>goaop/parser&#45;reflection&#45;&gt;phpunit/phpunit</title>
<path fill="none" stroke="#1a2833" stroke-dasharray="5,2" d="M332.6357,-190.8206C333.812,-166.1156 337.0866,-120.6975 346,-83 348.9758,-70.4145 353.6848,-56.9362 358.1465,-45.5346"/>
<polygon fill="#1a2833" stroke="#1a2833" points="361.4478,-46.7069 361.954,-36.1242 354.9588,-44.0814 361.4478,-46.7069"/>
<text text-anchor="middle" x="355.5" y="-98.5" font-family="Times,serif" font-size="10.00" fill="#767676">~4.0</text>
</g>
<!-- graphp/graph&#45;&gt;php -->
<g id="edge25" class="edge">
<title>graphp/graph&#45;&gt;php</title>
<path fill="none" stroke="#1a2833" d="M651.7863,-82.8875C666.9946,-72.3953 687.6275,-60.0897 708,-54 773.8652,-34.3116 1255.286,-21.9804 1393.8089,-18.8124"/>
<polygon fill="#1a2833" stroke="#1a2833" points="1394.0055,-22.3089 1403.9237,-18.5835 1393.8471,-15.3107 1394.0055,-22.3089"/>
<text text-anchor="middle" x="730" y="-57" font-family="Times,serif" font-size="10.00" fill="#767676">^7.0 || ^5.3</text>
</g>
<!-- graphp/graph&#45;&gt;phpunit/phpunit -->
<g id="edge26" class="edge">
<title>graphp/graph&#45;&gt;phpunit/phpunit</title>
<path fill="none" stroke="#1a2833" stroke-dasharray="5,2" d="M572.0178,-82.9902C530.6325,-69.6763 474.2969,-51.5529 431.6299,-37.8267"/>
<polygon fill="#1a2833" stroke="#1a2833" points="432.513,-34.4342 421.9216,-34.7035 430.3692,-41.0978 432.513,-34.4342"/>
<text text-anchor="middle" x="556.5" y="-57" font-family="Times,serif" font-size="10.00" fill="#767676">^9.3 || ^5.7 || ^4.8.35</text>
</g>
<!-- graphp/graphviz&#45;&gt;php -->
<g id="edge28" class="edge">
<title>graphp/graphviz&#45;&gt;php</title>
<path fill="none" stroke="#1a2833" d="M699.4601,-190.9267C716.161,-186.0001 733.4259,-180.0365 749,-173 837.4122,-133.0547 840.0397,-84.9135 932,-54 1017.5788,-25.2317 1293.2423,-19.4467 1393.8248,-18.2883"/>
<polygon fill="#1a2833" stroke="#1a2833" points="1393.8673,-21.7882 1403.8295,-18.1819 1393.7928,-14.7886 1393.8673,-21.7882"/>
<text text-anchor="middle" x="889.5" y="-98.5" font-family="Times,serif" font-size="10.00" fill="#767676">&gt;=5.3.0</text>
</g>
<!-- graphp/graphviz&#45;&gt;graphp/graph -->
<g id="edge27" class="edge">
<title>graphp/graphviz&#45;&gt;graphp/graph</title>
<path fill="none" stroke="#1a2833" d="M621.3571,-190.6793C622.6059,-173.821 624.4767,-148.5651 625.915,-129.147"/>
<polygon fill="#1a2833" stroke="#1a2833" points="629.4146,-129.2814 626.663,-119.0502 622.4337,-128.7643 629.4146,-129.2814"/>
<text text-anchor="middle" x="685.5" y="-152.5" font-family="Times,serif" font-size="10.00" fill="#767676">dev&#45;master#214de45 as 1.0.0</text>
</g>
<!-- graphp/graphviz&#45;&gt;phpunit/phpunit -->
<g id="edge29" class="edge">
<title>graphp/graphviz&#45;&gt;phpunit/phpunit</title>
<path fill="none" stroke="#1a2833" stroke-dasharray="5,2" d="M577.9715,-190.8889C543.472,-174.8716 494.3881,-149.365 457,-119 430.0389,-97.1034 404.7891,-66.1685 388.5101,-44.318"/>
<polygon fill="#1a2833" stroke="#1a2833" points="391.2517,-42.1378 382.5186,-36.1391 385.6047,-46.2745 391.2517,-42.1378"/>
<text text-anchor="middle" x="498.5" y="-98.5" font-family="Times,serif" font-size="10.00" fill="#767676">^6.4 || ^5.7 || ^4.8.35</text>
</g>
<!-- psr/container&#45;&gt;php -->
<g id="edge36" class="edge">
<title>psr/container&#45;&gt;php</title>
<path fill="none" stroke="#1a2833" d="M1084.3255,-82.8017C1091.7319,-72.5553 1102.3652,-60.5374 1115,-54 1162.7934,-29.2713 1320.9951,-21.3293 1393.7731,-18.9471"/>
<polygon fill="#1a2833" stroke="#1a2833" points="1393.9808,-22.4424 1403.8677,-18.6346 1393.7642,-15.4458 1393.9808,-22.4424"/>
<text text-anchor="middle" x="1131.5" y="-57" font-family="Times,serif" font-size="10.00" fill="#767676">&gt;=5.3.0</text>
</g>
<!-- symfony/config&#45;&gt;php -->
<g id="edge37" class="edge">
<title>symfony/config&#45;&gt;php</title>
<path fill="none" stroke="#1a2833" d="M1655.4459,-448.4588C1625.9514,-442.9868 1592.0465,-434.6093 1563,-422 1542.192,-412.9671 1537.1674,-408.9117 1521,-393 1474.6764,-347.4092 1476.6034,-324.7519 1436,-274 1418.4992,-252.1251 1409.5627,-250.2936 1394,-227 1357.2912,-172.0556 1341.3781,-147.2057 1357,-83 1360.4306,-68.9004 1362.1073,-64.6161 1372,-54 1378.5482,-46.973 1386.7698,-40.8207 1394.9781,-35.6831"/>
<polygon fill="#1a2833" stroke="#1a2833" points="1396.942,-38.589 1403.8,-30.5132 1393.4028,-32.5497 1396.942,-38.589"/>
<text text-anchor="middle" x="1436.5" y="-248" font-family="Times,serif" font-size="10.00" fill="#767676">&gt;=7.2.5</text>
</g>
<!-- symfony/config&#45;&gt;symfony/finder -->
<g id="edge43" class="edge">
<title>symfony/config&#45;&gt;symfony/finder</title>
<path fill="none" stroke="#1a2833" stroke-dasharray="5,2" d="M1655.4369,-454.2096C1582.3685,-449.4705 1475.2809,-439.7354 1438,-422 1427.4053,-416.9599 1417.6421,-408.7344 1409.6652,-400.5622"/>
<polygon fill="#1a2833" stroke="#1a2833" points="1412.2121,-398.1611 1402.8692,-393.1651 1407.0574,-402.897 1412.2121,-398.1611"/>
<text text-anchor="middle" x="1456.5" y="-414" font-family="Times,serif" font-size="10.00" fill="#767676">^4.4|^5.0</text>
</g>
<!-- symfony/config&#45;&gt;symfony/yaml -->
<g id="edge46" class="edge">
<title>symfony/config&#45;&gt;symfony/yaml</title>
<path fill="none" stroke="#1a2833" stroke-dasharray="5,2" d="M1785.2841,-439.9902C1826.3112,-427.0916 1881.6968,-409.6787 1924.8121,-396.1235"/>
<polygon fill="#1a2833" stroke="#1a2833" points="1925.8826,-399.4559 1934.3725,-393.1177 1923.7831,-392.7781 1925.8826,-399.4559"/>
<text text-anchor="middle" x="1893.5" y="-414" font-family="Times,serif" font-size="10.00" fill="#767676">^4.4|^5.0</text>
</g>
<!-- symfony/deprecation&#45;contracts -->
<g id="node21" class="node">
<title>symfony/deprecation&#45;contracts</title>
<path fill="#eeeeee" stroke="#000000" d="M3221.5,-310C3221.5,-310 3018.5,-310 3018.5,-310 3012.5,-310 3006.5,-304 3006.5,-298 3006.5,-298 3006.5,-286 3006.5,-286 3006.5,-280 3012.5,-274 3018.5,-274 3018.5,-274 3221.5,-274 3221.5,-274 3227.5,-274 3233.5,-280 3233.5,-286 3233.5,-286 3233.5,-298 3233.5,-298 3233.5,-304 3227.5,-310 3221.5,-310"/>
<text text-anchor="middle" x="3120" y="-288.3" font-family="Times,serif" font-size="14.00" fill="#314b5f">symfony/deprecation&#45;contracts: v2.2.0</text>
</g>
<!-- symfony/config&#45;&gt;symfony/deprecation&#45;contracts -->
<g id="edge38" class="edge">
<title>symfony/config&#45;&gt;symfony/deprecation&#45;contracts</title>
<path fill="none" stroke="#1a2833" d="M1800.5692,-440.724C1802.3941,-440.4604 1804.2065,-440.2181 1806,-440 1871.3044,-432.0594 2929.4153,-447.6362 2990,-422 3040.2443,-400.7393 3081.3489,-349.9139 3103.1193,-318.4825"/>
<polygon fill="#1a2833" stroke="#1a2833" points="3106.0364,-320.4167 3108.7384,-310.1722 3100.2376,-316.4957 3106.0364,-320.4167"/>
<text text-anchor="middle" x="3080" y="-372.5" font-family="Times,serif" font-size="10.00" fill="#767676">^2.1</text>
</g>
<!-- symfony/filesystem -->
<g id="node22" class="node">
<title>symfony/filesystem</title>
<path fill="#eeeeee" stroke="#000000" d="M3146.5,-227C3146.5,-227 3003.5,-227 3003.5,-227 2997.5,-227 2991.5,-221 2991.5,-215 2991.5,-215 2991.5,-203 2991.5,-203 2991.5,-197 2997.5,-191 3003.5,-191 3003.5,-191 3146.5,-191 3146.5,-191 3152.5,-191 3158.5,-197 3158.5,-203 3158.5,-203 3158.5,-215 3158.5,-215 3158.5,-221 3152.5,-227 3146.5,-227"/>
<text text-anchor="middle" x="3075" y="-205.3" font-family="Times,serif" font-size="14.00" fill="#314b5f">symfony/filesystem: v5.1.5</text>
</g>
<!-- symfony/config&#45;&gt;symfony/filesystem -->
<g id="edge39" class="edge">
<title>symfony/config&#45;&gt;symfony/filesystem</title>
<path fill="none" stroke="#1a2833" d="M1800.6255,-441.0784C1802.4337,-440.7093 1804.2274,-440.3492 1806,-440 1854.605,-430.4253 1867.1847,-430.4373 1916,-422 2389.3812,-340.1806 2510.2606,-319.1145 2981.0425,-228.1476"/>
<polygon fill="#1a2833" stroke="#1a2833" points="2982.0128,-231.525 2991.167,-226.191 2980.6845,-224.6521 2982.0128,-231.525"/>
<text text-anchor="middle" x="2470.5" y="-331" font-family="Times,serif" font-size="10.00" fill="#767676">^4.4|^5.0</text>
</g>
<!-- symfony/polyfill&#45;ctype -->
<g id="node23" class="node">
<title>symfony/polyfill&#45;ctype</title>
<path fill="#eeeeee" stroke="#000000" d="M1954.5,-119C1954.5,-119 1787.5,-119 1787.5,-119 1781.5,-119 1775.5,-113 1775.5,-107 1775.5,-107 1775.5,-95 1775.5,-95 1775.5,-89 1781.5,-83 1787.5,-83 1787.5,-83 1954.5,-83 1954.5,-83 1960.5,-83 1966.5,-89 1966.5,-95 1966.5,-95 1966.5,-107 1966.5,-107 1966.5,-113 1960.5,-119 1954.5,-119"/>
<text text-anchor="middle" x="1871" y="-97.3" font-family="Times,serif" font-size="14.00" fill="#314b5f">symfony/polyfill&#45;ctype: v1.18.1</text>
</g>
<!-- symfony/config&#45;&gt;symfony/polyfill&#45;ctype -->
<g id="edge40" class="edge">
<title>symfony/config&#45;&gt;symfony/polyfill&#45;ctype</title>
<path fill="none" stroke="#1a2833" d="M1730.7731,-439.714C1731.5698,-434.0458 1732.3878,-427.7728 1733,-422 1739.724,-358.5991 1724.3542,-185.2754 1766,-137 1770.3206,-131.9916 1779.8745,-127.0805 1791.5441,-122.5748"/>
<polygon fill="#1a2833" stroke="#1a2833" points="1793.0796,-125.7416 1801.2971,-119.054 1790.7027,-119.1575 1793.0796,-125.7416"/>
<text text-anchor="middle" x="1745.5" y="-289.5" font-family="Times,serif" font-size="10.00" fill="#767676">~1.8</text>
</g>
<!-- symfony/polyfill&#45;php80 -->
<g id="node24" class="node">
<title>symfony/polyfill&#45;php80</title>
<path fill="#eeeeee" stroke="#000000" d="M3442.5,-119C3442.5,-119 3271.5,-119 3271.5,-119 3265.5,-119 3259.5,-113 3259.5,-107 3259.5,-107 3259.5,-95 3259.5,-95 3259.5,-89 3265.5,-83 3271.5,-83 3271.5,-83 3442.5,-83 3442.5,-83 3448.5,-83 3454.5,-89 3454.5,-95 3454.5,-95 3454.5,-107 3454.5,-107 3454.5,-113 3448.5,-119 3442.5,-119"/>
<text text-anchor="middle" x="3357" y="-97.3" font-family="Times,serif" font-size="14.00" fill="#314b5f">symfony/polyfill&#45;php80: v1.18.1</text>
</g>
<!-- symfony/config&#45;&gt;symfony/polyfill&#45;php80 -->
<g id="edge41" class="edge">
<title>symfony/config&#45;&gt;symfony/polyfill&#45;php80</title>
<path fill="none" stroke="#1a2833" d="M1800.5691,-440.7233C1802.394,-440.4599 1804.2065,-440.2178 1806,-440 1939.1477,-423.8296 2880.8551,-444.9675 3013,-422 3072.9245,-411.5848 3272,-394.3229 3272,-333.5 3272,-333.5 3272,-333.5 3272,-209 3272,-174.8495 3298.5687,-145.127 3321.9979,-125.5558"/>
<polygon fill="#1a2833" stroke="#1a2833" points="3324.4858,-128.0476 3330.1055,-119.0659 3320.1113,-122.5827 3324.4858,-128.0476"/>
<text text-anchor="middle" x="3283.5" y="-289.5" font-family="Times,serif" font-size="10.00" fill="#767676">^1.15</text>
</g>
<!-- symfony/event&#45;dispatcher -->
<g id="node25" class="node">
<title>symfony/event&#45;dispatcher</title>
<path fill="#eeeeee" stroke="#000000" d="M1944,-227C1944,-227 1810,-227 1810,-227 1804,-227 1798,-221 1798,-215 1798,-215 1798,-203 1798,-203 1798,-197 1804,-191 1810,-191 1810,-191 1944,-191 1944,-191 1950,-191 1956,-197 1956,-203 1956,-203 1956,-215 1956,-215 1956,-221 1950,-227 1944,-227"/>
<text text-anchor="middle" x="1877" y="-205.3" font-family="Times,serif" font-size="14.00" fill="#314b5f">symfony/event&#45;dispatcher</text>
</g>
<!-- symfony/config&#45;&gt;symfony/event&#45;dispatcher -->
<g id="edge42" class="edge">
<title>symfony/config&#45;&gt;symfony/event&#45;dispatcher</title>
<path fill="none" stroke="#1a2833" stroke-dasharray="5,2" d="M1727.7979,-439.6438C1728.2343,-430.7461 1729.565,-420.053 1733,-411 1759.988,-339.8721 1818.2913,-270.7282 1851.8456,-234.6945"/>
<polygon fill="#1a2833" stroke="#1a2833" points="1854.6934,-236.7762 1859.0098,-227.1005 1849.6017,-231.9727 1854.6934,-236.7762"/>
<text text-anchor="middle" x="1795.5" y="-331" font-family="Times,serif" font-size="10.00" fill="#767676">^4.4|^5.0</text>
</g>
<!-- symfony/messenger -->
<g id="node26" class="node">
<title>symfony/messenger</title>
<path fill="#eeeeee" stroke="#000000" d="M1669,-393C1669,-393 1567,-393 1567,-393 1561,-393 1555,-387 1555,-381 1555,-381 1555,-369 1555,-369 1555,-363 1561,-357 1567,-357 1567,-357 1669,-357 1669,-357 1675,-357 1681,-363 1681,-369 1681,-369 1681,-381 1681,-381 1681,-387 1675,-393 1669,-393"/>
<text text-anchor="middle" x="1618" y="-371.3" font-family="Times,serif" font-size="14.00" fill="#314b5f">symfony/messenger</text>
</g>
<!-- symfony/config&#45;&gt;symfony/messenger -->
<g id="edge44" class="edge">
<title>symfony/config&#45;&gt;symfony/messenger</title>
<path fill="none" stroke="#1a2833" stroke-dasharray="5,2" d="M1686.3829,-439.9804C1676.6153,-434.8546 1666.5668,-428.792 1658,-422 1650.3542,-415.9383 1643.0866,-408.2421 1636.8955,-400.8411"/>
<polygon fill="#1a2833" stroke="#1a2833" points="1639.6147,-398.6373 1630.6331,-393.0176 1634.1498,-403.0117 1639.6147,-398.6373"/>
<text text-anchor="middle" x="1676.5" y="-414" font-family="Times,serif" font-size="10.00" fill="#767676">^4.4|^5.0</text>
</g>
<!-- symfony/service&#45;contracts -->
<g id="node27" class="node">
<title>symfony/service&#45;contracts</title>
<path fill="#eeeeee" stroke="#000000" d="M1593,-227C1593,-227 1415,-227 1415,-227 1409,-227 1403,-221 1403,-215 1403,-215 1403,-203 1403,-203 1403,-197 1409,-191 1415,-191 1415,-191 1593,-191 1593,-191 1599,-191 1605,-197 1605,-203 1605,-203 1605,-215 1605,-215 1605,-221 1599,-227 1593,-227"/>
<text text-anchor="middle" x="1504" y="-205.3" font-family="Times,serif" font-size="14.00" fill="#314b5f">symfony/service&#45;contracts: v2.2.0</text>
</g>
<!-- symfony/config&#45;&gt;symfony/service&#45;contracts -->
<g id="edge45" class="edge">
<title>symfony/config&#45;&gt;symfony/service&#45;contracts</title>
<path fill="none" stroke="#1a2833" stroke-dasharray="5,2" d="M1655.2227,-448.8931C1617.5389,-440.4637 1573.7348,-424.2361 1546,-393 1507.1403,-349.2345 1502.0613,-276.963 1502.5412,-237.2727"/>
<polygon fill="#1a2833" stroke="#1a2833" points="1506.0413,-237.3086 1502.7916,-227.2245 1499.0434,-237.1341 1506.0413,-237.3086"/>
<text text-anchor="middle" x="1532" y="-331" font-family="Times,serif" font-size="10.00" fill="#767676">^1.1|^2</text>
</g>
<!-- symfony/console&#45;&gt;php -->
<g id="edge47" class="edge">
<title>symfony/console&#45;&gt;php</title>
<path fill="none" stroke="#1a2833" d="M2099.9349,-278.9158C2067.821,-272.4609 2034.7107,-264.2919 2021,-256 1988.3714,-236.2669 1999.3793,-207.4952 1965,-191 1913.5776,-166.3275 1494.2873,-211.2725 1452,-173 1433.8337,-156.5584 1430.8437,-86.2787 1430.661,-46.2317"/>
<polygon fill="#1a2833" stroke="#1a2833" points="1434.1611,-46.0477 1430.672,-36.0439 1427.1611,-46.04 1434.1611,-46.0477"/>
<text text-anchor="middle" x="1468.5" y="-152.5" font-family="Times,serif" font-size="10.00" fill="#767676">&gt;=7.2.5</text>
</g>
<!-- symfony/console&#45;&gt;symfony/config -->
<g id="edge54" class="edge">
<title>symfony/console&#45;&gt;symfony/config</title>
<path fill="none" stroke="#1a2833" stroke-dasharray="5,2" d="M2099.8383,-300.409C2037.9072,-309.1445 1949.2642,-326.0303 1877,-357 1831.7716,-376.3832 1785.8124,-410.1314 1757.1317,-433.2411"/>
<polygon fill="#1a2833" stroke="#1a2833" points="1754.6928,-430.7138 1749.1606,-439.7496 1759.1201,-436.1359 1754.6928,-430.7138"/>
<text text-anchor="middle" x="1895.5" y="-372.5" font-family="Times,serif" font-size="10.00" fill="#767676">^4.4|^5.0</text>
</g>
<!-- symfony/console&#45;&gt;symfony/polyfill&#45;php80 -->
<g id="edge50" class="edge">
<title>symfony/console&#45;&gt;symfony/polyfill&#45;php80</title>
<path fill="none" stroke="#1a2833" d="M2252.1055,-288.3047C2429.6101,-279.2657 2860.5103,-254.7408 2920,-227 2941.6766,-216.8919 2938.7618,-201.9995 2960,-191 3009.5991,-165.312 3149.3086,-137.0332 3248.9379,-119.1569"/>
<polygon fill="#1a2833" stroke="#1a2833" points="3249.8255,-122.5539 3259.0557,-117.3524 3248.5965,-115.6627 3249.8255,-122.5539"/>
<text text-anchor="middle" x="2971.5" y="-206.5" font-family="Times,serif" font-size="10.00" fill="#767676">^1.15</text>
</g>
<!-- symfony/console&#45;&gt;symfony/event&#45;dispatcher -->
<g id="edge56" class="edge">
<title>symfony/console&#45;&gt;symfony/event&#45;dispatcher</title>
<path fill="none" stroke="#1a2833" stroke-dasharray="5,2" d="M2099.9198,-285.2819C2040.0626,-279.1574 1962.074,-269.0765 1933,-256 1921.2434,-250.7123 1910.0012,-242.2227 1900.7155,-233.9039"/>
<polygon fill="#1a2833" stroke="#1a2833" points="1903.0897,-231.3321 1893.4074,-227.0305 1898.2939,-236.4312 1903.0897,-231.3321"/>
<text text-anchor="middle" x="1951.5" y="-248" font-family="Times,serif" font-size="10.00" fill="#767676">^4.4|^5.0</text>
</g>
<!-- symfony/console&#45;&gt;symfony/service&#45;contracts -->
<g id="edge51" class="edge">
<title>symfony/console&#45;&gt;symfony/service&#45;contracts</title>
<path fill="none" stroke="#1a2833" d="M2099.8319,-287.3686C2017.339,-281.8735 1881.9804,-271.4628 1766,-256 1711.8962,-248.7868 1651.9451,-238.2247 1603.0595,-228.9394"/>
<polygon fill="#1a2833" stroke="#1a2833" points="1603.5981,-225.4791 1593.1189,-227.0401 1602.2843,-232.3547 1603.5981,-225.4791"/>
<text text-anchor="middle" x="1781" y="-248" font-family="Times,serif" font-size="10.00" fill="#767676">^1.1|^2</text>
</g>
<!-- symfony/polyfill&#45;mbstring -->
<g id="node28" class="node">
<title>symfony/polyfill&#45;mbstring</title>
<path fill="#eeeeee" stroke="#000000" d="M1745,-119C1745,-119 1559,-119 1559,-119 1553,-119 1547,-113 1547,-107 1547,-107 1547,-95 1547,-95 1547,-89 1553,-83 1559,-83 1559,-83 1745,-83 1745,-83 1751,-83 1757,-89 1757,-95 1757,-95 1757,-107 1757,-107 1757,-113 1751,-119 1745,-119"/>
<text text-anchor="middle" x="1652" y="-97.3" font-family="Times,serif" font-size="14.00" fill="#314b5f">symfony/polyfill&#45;mbstring: v1.18.1</text>
</g>
<!-- symfony/console&#45;&gt;symfony/polyfill&#45;mbstring -->
<g id="edge48" class="edge">
<title>symfony/console&#45;&gt;symfony/polyfill&#45;mbstring</title>
<path fill="none" stroke="#1a2833" d="M2148.893,-273.9719C2105.6516,-245.2483 2025.5331,-192.1861 2022,-191 1909.2482,-153.1474 1867.1792,-212.5172 1755,-173 1739.6547,-167.5943 1707.231,-144.0503 1682.8361,-125.3368"/>
<polygon fill="#1a2833" stroke="#1a2833" points="1684.9598,-122.5546 1674.9071,-119.2088 1680.6792,-128.0933 1684.9598,-122.5546"/>
<text text-anchor="middle" x="2084.5" y="-206.5" font-family="Times,serif" font-size="10.00" fill="#767676">~1.0</text>
</g>
<!-- symfony/polyfill&#45;php73 -->
<g id="node29" class="node">
<title>symfony/polyfill&#45;php73</title>
<path fill="#eeeeee" stroke="#000000" d="M1677.5,-173C1677.5,-173 1506.5,-173 1506.5,-173 1500.5,-173 1494.5,-167 1494.5,-161 1494.5,-161 1494.5,-149 1494.5,-149 1494.5,-143 1500.5,-137 1506.5,-137 1506.5,-137 1677.5,-137 1677.5,-137 1683.5,-137 1689.5,-143 1689.5,-149 1689.5,-149 1689.5,-161 1689.5,-161 1689.5,-167 1683.5,-173 1677.5,-173"/>
<text text-anchor="middle" x="1592" y="-151.3" font-family="Times,serif" font-size="14.00" fill="#314b5f">symfony/polyfill&#45;php73: v1.18.1</text>
</g>
<!-- symfony/console&#45;&gt;symfony/polyfill&#45;php73 -->
<g id="edge49" class="edge">
<title>symfony/console&#45;&gt;symfony/polyfill&#45;php73</title>
<path fill="none" stroke="#1a2833" d="M2099.8176,-277.8323C2072.9308,-271.707 2046.7152,-264.0905 2036,-256 2009.2942,-235.8357 2026.5118,-208.5179 1998,-191 1971.4148,-174.6658 1760.9481,-176.4479 1699.7629,-172.6935"/>
<polygon fill="#1a2833" stroke="#1a2833" points="1699.8675,-169.1905 1689.615,-171.8618 1699.2956,-176.1671 1699.8675,-169.1905"/>
<text text-anchor="middle" x="2045" y="-248" font-family="Times,serif" font-size="10.00" fill="#767676">^1.8</text>
</g>
<!-- symfony/string -->
<g id="node30" class="node">
<title>symfony/string</title>
<path fill="#eeeeee" stroke="#000000" d="M2234.5,-227C2234.5,-227 2117.5,-227 2117.5,-227 2111.5,-227 2105.5,-221 2105.5,-215 2105.5,-215 2105.5,-203 2105.5,-203 2105.5,-197 2111.5,-191 2117.5,-191 2117.5,-191 2234.5,-191 2234.5,-191 2240.5,-191 2246.5,-197 2246.5,-203 2246.5,-203 2246.5,-215 2246.5,-215 2246.5,-221 2240.5,-227 2234.5,-227"/>
<text text-anchor="middle" x="2176" y="-205.3" font-family="Times,serif" font-size="14.00" fill="#314b5f">symfony/string: v5.1.5</text>
</g>
<!-- symfony/console&#45;&gt;symfony/string -->
<g id="edge52" class="edge">
<title>symfony/console&#45;&gt;symfony/string</title>
<path fill="none" stroke="#1a2833" d="M2176,-273.9902C2176,-263.2963 2176,-249.4994 2176,-237.3706"/>
<polygon fill="#1a2833" stroke="#1a2833" points="2179.5001,-237.2612 2176,-227.2612 2172.5001,-237.2613 2179.5001,-237.2612"/>
<text text-anchor="middle" x="2185" y="-248" font-family="Times,serif" font-size="10.00" fill="#767676">^5.1</text>
</g>
<!-- psr/log -->
<g id="node31" class="node">
<title>psr/log</title>
<path fill="#eeeeee" stroke="#000000" d="M2307,-227C2307,-227 2277,-227 2277,-227 2271,-227 2265,-221 2265,-215 2265,-215 2265,-203 2265,-203 2265,-197 2271,-191 2277,-191 2277,-191 2307,-191 2307,-191 2313,-191 2319,-197 2319,-203 2319,-203 2319,-215 2319,-215 2319,-221 2313,-227 2307,-227"/>
<text text-anchor="middle" x="2292" y="-205.3" font-family="Times,serif" font-size="14.00" fill="#314b5f">psr/log</text>
</g>
<!-- symfony/console&#45;&gt;psr/log -->
<g id="edge53" class="edge">
<title>symfony/console&#45;&gt;psr/log</title>
<path fill="none" stroke="#1a2833" stroke-dasharray="5,2" d="M2201.1703,-273.9902C2217.7767,-262.1081 2239.7369,-246.3951 2257.9044,-233.396"/>
<polygon fill="#1a2833" stroke="#1a2833" points="2260.3823,-235.9267 2266.4783,-227.2612 2256.309,-230.2339 2260.3823,-235.9267"/>
<text text-anchor="middle" x="2249.5" y="-248" font-family="Times,serif" font-size="10.00" fill="#767676">~1.0</text>
</g>
<!-- symfony/dependency&#45;injection -->
<g id="node32" class="node">
<title>symfony/dependency&#45;injection</title>
<path fill="#eeeeee" stroke="#000000" d="M2510.5,-227C2510.5,-227 2349.5,-227 2349.5,-227 2343.5,-227 2337.5,-221 2337.5,-215 2337.5,-215 2337.5,-203 2337.5,-203 2337.5,-197 2343.5,-191 2349.5,-191 2349.5,-191 2510.5,-191 2510.5,-191 2516.5,-191 2522.5,-197 2522.5,-203 2522.5,-203 2522.5,-215 2522.5,-215 2522.5,-221 2516.5,-227 2510.5,-227"/>
<text text-anchor="middle" x="2430" y="-205.3" font-family="Times,serif" font-size="14.00" fill="#314b5f">symfony/dependency&#45;injection</text>
</g>
<!-- symfony/console&#45;&gt;symfony/dependency&#45;injection -->
<g id="edge55" class="edge">
<title>symfony/console&#45;&gt;symfony/dependency&#45;injection</title>
<path fill="none" stroke="#1a2833" stroke-dasharray="5,2" d="M2231.1142,-273.9902C2270.4214,-261.1458 2323.4274,-243.8249 2364.8336,-230.2945"/>
<polygon fill="#1a2833" stroke="#1a2833" points="2366.1371,-233.5508 2374.5553,-227.1177 2363.9628,-226.897 2366.1371,-233.5508"/>
<text text-anchor="middle" x="2336.5" y="-248" font-family="Times,serif" font-size="10.00" fill="#767676">^4.4|^5.0</text>
</g>
<!-- symfony/lock -->
<g id="node33" class="node">
<title>symfony/lock</title>
<path fill="#eeeeee" stroke="#000000" d="M2621,-227C2621,-227 2553,-227 2553,-227 2547,-227 2541,-221 2541,-215 2541,-215 2541,-203 2541,-203 2541,-197 2547,-191 2553,-191 2553,-191 2621,-191 2621,-191 2627,-191 2633,-197 2633,-203 2633,-203 2633,-215 2633,-215 2633,-221 2627,-227 2621,-227"/>
<text text-anchor="middle" x="2587" y="-205.3" font-family="Times,serif" font-size="14.00" fill="#314b5f">symfony/lock</text>
</g>
<!-- symfony/console&#45;&gt;symfony/lock -->
<g id="edge57" class="edge">
<title>symfony/console&#45;&gt;symfony/lock</title>
<path fill="none" stroke="#1a2833" stroke-dasharray="5,2" d="M2252.3408,-281.1322C2322.603,-270.4312 2429.7434,-252.3515 2531.1277,-227.0542"/>
<polygon fill="#1a2833" stroke="#1a2833" points="2532.0799,-230.4237 2540.9197,-224.5835 2530.3673,-223.6364 2532.0799,-230.4237"/>
<text text-anchor="middle" x="2462.5" y="-248" font-family="Times,serif" font-size="10.00" fill="#767676">^4.4|^5.0</text>
</g>
<!-- symfony/process -->
<g id="node34" class="node">
<title>symfony/process</title>
<path fill="#eeeeee" stroke="#000000" d="M2748.5,-227C2748.5,-227 2663.5,-227 2663.5,-227 2657.5,-227 2651.5,-221 2651.5,-215 2651.5,-215 2651.5,-203 2651.5,-203 2651.5,-197 2657.5,-191 2663.5,-191 2663.5,-191 2748.5,-191 2748.5,-191 2754.5,-191 2760.5,-197 2760.5,-203 2760.5,-203 2760.5,-215 2760.5,-215 2760.5,-221 2754.5,-227 2748.5,-227"/>
<text text-anchor="middle" x="2706" y="-205.3" font-family="Times,serif" font-size="14.00" fill="#314b5f">symfony/process</text>
</g>
<!-- symfony/console&#45;&gt;symfony/process -->
<g id="edge58" class="edge">
<title>symfony/console&#45;&gt;symfony/process</title>
<path fill="none" stroke="#1a2833" stroke-dasharray="5,2" d="M2252.2325,-285.6063C2343.0653,-277.0405 2499.3262,-259.3094 2641.4957,-226.998"/>
<polygon fill="#1a2833" stroke="#1a2833" points="2642.3123,-230.4017 2651.2724,-224.7476 2640.7421,-223.5801 2642.3123,-230.4017"/>
<text text-anchor="middle" x="2571.5" y="-248" font-family="Times,serif" font-size="10.00" fill="#767676">^4.4|^5.0</text>
</g>
<!-- symfony/var&#45;dumper -->
<g id="node35" class="node">
<title>symfony/var&#45;dumper</title>
<path fill="#eeeeee" stroke="#000000" d="M2899,-227C2899,-227 2791,-227 2791,-227 2785,-227 2779,-221 2779,-215 2779,-215 2779,-203 2779,-203 2779,-197 2785,-191 2791,-191 2791,-191 2899,-191 2899,-191 2905,-191 2911,-197 2911,-203 2911,-203 2911,-215 2911,-215 2911,-221 2905,-227 2899,-227"/>
<text text-anchor="middle" x="2845" y="-205.3" font-family="Times,serif" font-size="14.00" fill="#314b5f">symfony/var&#45;dumper</text>
</g>
<!-- symfony/console&#45;&gt;symfony/var&#45;dumper -->
<g id="edge59" class="edge">
<title>symfony/console&#45;&gt;symfony/var&#45;dumper</title>
<path fill="none" stroke="#1a2833" stroke-dasharray="5,2" d="M2252.0796,-287.2238C2335.9959,-281.5423 2474.9297,-270.9145 2594,-256 2669.5895,-246.5318 2690.6704,-242.9839 2768.9649,-227.1538"/>
<polygon fill="#1a2833" stroke="#1a2833" points="2769.6979,-230.5765 2778.8042,-225.1612 2768.3084,-223.7158 2769.6979,-230.5765"/>
<text text-anchor="middle" x="2691.5" y="-248" font-family="Times,serif" font-size="10.00" fill="#767676">^4.4|^5.0</text>
</g>
<!-- symfony/finder&#45;&gt;php -->
<g id="edge63" class="edge">
<title>symfony/finder&#45;&gt;php</title>
<path fill="none" stroke="#1a2833" d="M1402.5316,-356.9302C1416.6611,-335.6645 1434.6246,-299.9649 1418,-274 1404.5427,-252.9818 1334.8654,-243.3389 1316,-227 1294.3808,-208.2761 1289.1108,-200.4261 1281,-173 1272.5641,-144.4745 1286.6572,-58.9565 1291,-54 1304.4167,-38.6875 1357.0608,-28.3242 1393.8206,-22.7873"/>
<polygon fill="#1a2833" stroke="#1a2833" points="1394.3266,-26.2507 1403.7218,-21.3536 1393.3234,-19.3229 1394.3266,-26.2507"/>
<text text-anchor="middle" x="1332.5" y="-206.5" font-family="Times,serif" font-size="10.00" fill="#767676">&gt;=7.2.5</text>
</g>
<!-- symfony/options&#45;resolver&#45;&gt;php -->
<g id="edge64" class="edge">
<title>symfony/options&#45;resolver&#45;&gt;php</title>
<path fill="none" stroke="#1a2833" d="M3496.2228,-356.9443C3523.8918,-343.8413 3552,-322.921 3552,-292 3552,-292 3552,-292 3552,-101 3552,-79.9613 3486.4174,-66.4322 3394,-54 3196.5759,-27.442 1722.8629,-19.3685 1468.378,-18.1665"/>
<polygon fill="#1a2833" stroke="#1a2833" points="1468.1904,-14.6657 1458.1741,-18.1189 1468.1577,-21.6656 1468.1904,-14.6657"/>
<text text-anchor="middle" x="3568.5" y="-206.5" font-family="Times,serif" font-size="10.00" fill="#767676">&gt;=7.2.5</text>
</g>
<!-- symfony/options&#45;resolver&#45;&gt;symfony/deprecation&#45;contracts -->
<g id="edge65" class="edge">
<title>symfony/options&#45;resolver&#45;&gt;symfony/deprecation&#45;contracts</title>
<path fill="none" stroke="#1a2833" d="M3372.9138,-356.9902C3321.9977,-343.9065 3253.0065,-326.1782 3199.9426,-312.5425"/>
<polygon fill="#1a2833" stroke="#1a2833" points="3200.7842,-309.1451 3190.2277,-310.0461 3199.042,-315.9249 3200.7842,-309.1451"/>
<text text-anchor="middle" x="3309" y="-331" font-family="Times,serif" font-size="10.00" fill="#767676">^2.1</text>
</g>
<!-- symfony/options&#45;resolver&#45;&gt;symfony/polyfill&#45;php80 -->
<g id="edge66" class="edge">
<title>symfony/options&#45;resolver&#45;&gt;symfony/polyfill&#45;php80</title>
<path fill="none" stroke="#1a2833" d="M3437.2238,-356.5966C3422.4749,-309.6061 3383.3529,-184.9614 3365.7723,-128.9491"/>
<polygon fill="#1a2833" stroke="#1a2833" points="3369.0852,-127.8162 3362.7511,-119.3233 3362.4064,-129.9125 3369.0852,-127.8162"/>
<text text-anchor="middle" x="3415.5" y="-248" font-family="Times,serif" font-size="10.00" fill="#767676">^1.15</text>
</g>
<!-- symfony/yaml&#45;&gt;php -->
<g id="edge85" class="edge">
<title>symfony/yaml&#45;&gt;php</title>
<path fill="none" stroke="#1a2833" d="M1922.7988,-358.005C1846.2009,-339.1588 1733.1414,-311.2232 1731,-310 1666.5958,-273.2123 1680.8903,-223.0457 1614,-191 1577.7462,-173.6316 1462.5811,-201.2687 1434,-173 1400.8213,-140.1839 1411.2093,-80.7188 1421.3694,-45.7558"/>
<polygon fill="#1a2833" stroke="#1a2833" points="1424.7239,-46.7549 1424.3294,-36.1674 1418.0354,-44.69 1424.7239,-46.7549"/>
<text text-anchor="middle" x="1675.5" y="-206.5" font-family="Times,serif" font-size="10.00" fill="#767676">&gt;=7.2.5</text>
</g>
<!-- symfony/yaml&#45;&gt;symfony/console -->
<g id="edge88" class="edge">
<title>symfony/yaml&#45;&gt;symfony/console</title>
<path fill="none" stroke="#1a2833" stroke-dasharray="5,2" d="M2031.9253,-356.9902C2059.6789,-344.4709 2096.86,-327.699 2126.4989,-314.3293"/>
<polygon fill="#1a2833" stroke="#1a2833" points="2128.159,-317.4201 2135.8354,-310.1177 2125.2807,-311.0393 2128.159,-317.4201"/>
<text text-anchor="middle" x="2113.5" y="-331" font-family="Times,serif" font-size="10.00" fill="#767676">^4.4|^5.0</text>
</g>
<!-- symfony/yaml&#45;&gt;symfony/deprecation&#45;contracts -->
<g id="edge86" class="edge">
<title>symfony/yaml&#45;&gt;symfony/deprecation&#45;contracts</title>
<path fill="none" stroke="#1a2833" d="M2061.0448,-374.2013C2275.6495,-371.4916 2922.1842,-361.5329 3014,-339 3025.0046,-336.2993 3026.6894,-332.6997 3037,-328 3047.067,-323.4114 3057.8778,-318.6224 3068.2609,-314.0908"/>
<polygon fill="#1a2833" stroke="#1a2833" points="3069.8656,-317.2097 3077.6425,-310.0145 3067.0761,-310.7895 3069.8656,-317.2097"/>
<text text-anchor="middle" x="3046" y="-331" font-family="Times,serif" font-size="10.00" fill="#767676">^2.1</text>
</g>
<!-- symfony/yaml&#45;&gt;symfony/polyfill&#45;ctype -->
<g id="edge87" class="edge">
<title>symfony/yaml&#45;&gt;symfony/polyfill&#45;ctype</title>
<path fill="none" stroke="#1a2833" d="M1948.9288,-356.9414C1900.853,-334.2794 1825.0827,-290.5226 1789,-227 1769.2132,-192.1658 1761.7369,-170.3061 1784,-137 1786.9892,-132.5281 1790.6473,-128.6111 1794.7532,-125.1801"/>
<polygon fill="#1a2833" stroke="#1a2833" points="1797.0562,-127.8355 1803.1424,-119.1631 1792.9765,-122.1472 1797.0562,-127.8355"/>
<text text-anchor="middle" x="1817.5" y="-248" font-family="Times,serif" font-size="10.00" fill="#767676">~1.8</text>
</g>
<!-- jawira/plantuml&#45;encoding&#45;&gt;php -->
<g id="edge31" class="edge">
<title>jawira/plantuml&#45;encoding&#45;&gt;php</title>
<path fill="none" stroke="#1a2833" d="M1113.3555,-273.9141C1121.5613,-261.2385 1132.0615,-243.6511 1139,-227 1171.3024,-149.4797 1145.1294,-100.5934 1215,-54 1243.6149,-34.9181 1339.6829,-24.8261 1393.5595,-20.5485"/>
<polygon fill="#1a2833" stroke="#1a2833" points="1394.036,-24.0224 1403.7398,-19.7696 1393.5019,-17.0428 1394.036,-24.0224"/>
<text text-anchor="middle" x="1188" y="-152.5" font-family="Times,serif" font-size="10.00" fill="#767676">^5.3.2 || ^7.0</text>
</g>
<!-- ext&#45;zlib -->
<g id="node18" class="node">
<title>ext&#45;zlib</title>
<path fill="#eeeeee" stroke="#000000" d="M1118,-227C1118,-227 1084,-227 1084,-227 1078,-227 1072,-221 1072,-215 1072,-215 1072,-203 1072,-203 1072,-197 1078,-191 1084,-191 1084,-191 1118,-191 1118,-191 1124,-191 1130,-197 1130,-203 1130,-203 1130,-215 1130,-215 1130,-221 1124,-227 1118,-227"/>
<text text-anchor="middle" x="1101" y="-205.3" font-family="Times,serif" font-size="14.00" fill="#314b5f">ext&#45;zlib</text>
</g>
<!-- jawira/plantuml&#45;encoding&#45;&gt;ext&#45;zlib -->
<g id="edge30" class="edge">
<title>jawira/plantuml&#45;encoding&#45;&gt;ext&#45;zlib</title>
<path fill="none" stroke="#1a2833" d="M1101,-273.9902C1101,-263.2963 1101,-249.4994 1101,-237.3706"/>
<polygon fill="#1a2833" stroke="#1a2833" points="1104.5001,-237.2612 1101,-227.2612 1097.5001,-237.2613 1104.5001,-237.2612"/>
<text text-anchor="middle" x="1104" y="-248" font-family="Times,serif" font-size="10.00" fill="#767676">*</text>
</g>
<!-- nikic/php&#45;parser&#45;&gt;php -->
<g id="edge33" class="edge">
<title>nikic/php&#45;parser&#45;&gt;php</title>
<path fill="none" stroke="#1a2833" d="M284.7579,-83.7324C332.9257,-73.2158 397.3508,-60.5761 455,-54 641.9154,-32.6783 1238.1072,-21.2715 1393.6139,-18.6111"/>
<polygon fill="#1a2833" stroke="#1a2833" points="1393.6856,-22.1105 1403.6248,-18.4416 1393.567,-15.1115 1393.6856,-22.1105"/>
<text text-anchor="middle" x="467.5" y="-57" font-family="Times,serif" font-size="10.00" fill="#767676">&gt;=7.0</text>
</g>
<!-- nikic/php&#45;parser&#45;&gt;phpunit/phpunit -->
<g id="edge35" class="edge">
<title>nikic/php&#45;parser&#45;&gt;phpunit/phpunit</title>
<path fill="none" stroke="#1a2833" stroke-dasharray="5,2" d="M206.4226,-82.6549C205.1703,-73.1159 205.6048,-61.8436 212,-54 224.2806,-38.938 269.322,-29.6483 308.188,-24.2873"/>
<polygon fill="#1a2833" stroke="#1a2833" points="308.9722,-27.7145 318.4317,-22.9429 308.0612,-20.774 308.9722,-27.7145"/>
<text text-anchor="middle" x="247" y="-57" font-family="Times,serif" font-size="10.00" fill="#767676">^6.5 || ^7.0 || ^8.0</text>
</g>
<!-- ext&#45;tokenizer -->
<g id="node19" class="node">
<title>ext&#45;tokenizer</title>
<path fill="#eeeeee" stroke="#000000" d="M76,-36C76,-36 12,-36 12,-36 6,-36 0,-30 0,-24 0,-24 0,-12 0,-12 0,-6 6,0 12,0 12,0 76,0 76,0 82,0 88,-6 88,-12 88,-12 88,-24 88,-24 88,-30 82,-36 76,-36"/>
<text text-anchor="middle" x="44" y="-14.3" font-family="Times,serif" font-size="14.00" fill="#314b5f">ext&#45;tokenizer</text>
</g>
<!-- nikic/php&#45;parser&#45;&gt;ext&#45;tokenizer -->
<g id="edge32" class="edge">
<title>nikic/php&#45;parser&#45;&gt;ext&#45;tokenizer</title>
<path fill="none" stroke="#1a2833" d="M174.7635,-82.9902C149.7921,-70.5793 116.4119,-53.9891 89.6279,-40.6773"/>
<polygon fill="#1a2833" stroke="#1a2833" points="90.9665,-37.4342 80.4538,-36.1177 87.851,-43.7027 90.9665,-37.4342"/>
<text text-anchor="middle" x="141" y="-57" font-family="Times,serif" font-size="10.00" fill="#767676">*</text>
</g>
<!-- ircmaxell/php&#45;yacc -->
<g id="node20" class="node">
<title>ircmaxell/php&#45;yacc</title>
<path fill="#eeeeee" stroke="#000000" d="M216,-36C216,-36 118,-36 118,-36 112,-36 106,-30 106,-24 106,-24 106,-12 106,-12 106,-6 112,0 118,0 118,0 216,0 216,0 222,0 228,-6 228,-12 228,-12 228,-24 228,-24 228,-30 222,-36 216,-36"/>
<text text-anchor="middle" x="167" y="-14.3" font-family="Times,serif" font-size="14.00" fill="#314b5f">ircmaxell/php&#45;yacc</text>
</g>
<!-- nikic/php&#45;parser&#45;&gt;ircmaxell/php&#45;yacc -->
<g id="edge34" class="edge">
<title>nikic/php&#45;parser&#45;&gt;ircmaxell/php&#45;yacc</title>
<path fill="none" stroke="#1a2833" stroke-dasharray="5,2" d="M182.3094,-82.9193C176.5619,-77.8627 171.2863,-71.8463 168,-65 165.2849,-59.3437 164.1103,-52.8462 163.7958,-46.5228"/>
<polygon fill="#1a2833" stroke="#1a2833" points="167.3,-46.2786 163.9585,-36.2246 160.3009,-46.168 167.3,-46.2786"/>
<text text-anchor="middle" x="178.5" y="-57" font-family="Times,serif" font-size="10.00" fill="#767676">0.0.5</text>
</g>
<!-- symfony/deprecation&#45;contracts&#45;&gt;php -->
<g id="edge60" class="edge">
<title>symfony/deprecation&#45;contracts&#45;&gt;php</title>
<path fill="none" stroke="#1a2833" d="M3139.9372,-273.9917C3181.2318,-234.6266 3267.8565,-139.8939 3213,-83 3181.6051,-50.439 1721.6277,-23.1442 1468.2764,-18.6488"/>
<polygon fill="#1a2833" stroke="#1a2833" points="1468.1743,-15.1466 1458.114,-18.4693 1468.0506,-22.1455 1468.1743,-15.1466"/>
<text text-anchor="middle" x="3241.5" y="-152.5" font-family="Times,serif" font-size="10.00" fill="#767676">&gt;=7.1</text>
</g>
<!-- symfony/filesystem&#45;&gt;php -->
<g id="edge61" class="edge">
<title>symfony/filesystem&#45;&gt;php</title>
<path fill="none" stroke="#1a2833" d="M3158.7411,-201.8372C3261.7007,-191.0667 3427.3496,-166.6743 3464,-119 3473.7517,-106.3152 3474.16,-95.3602 3464,-83 3421.7137,-31.5565 3383.2122,-61.1073 3317,-54 3127.097,-33.6156 1717.1783,-20.488 1468.4351,-18.3186"/>
<polygon fill="#1a2833" stroke="#1a2833" points="1468.1492,-14.8161 1458.1192,-18.2291 1468.0885,-21.8158 1468.1492,-14.8161"/>
<text text-anchor="middle" x="3487.5" y="-98.5" font-family="Times,serif" font-size="10.00" fill="#767676">&gt;=7.2.5</text>
</g>
<!-- symfony/filesystem&#45;&gt;symfony/polyfill&#45;ctype -->
<g id="edge62" class="edge">
<title>symfony/filesystem&#45;&gt;symfony/polyfill&#45;ctype</title>
<path fill="none" stroke="#1a2833" d="M2991.2621,-192.5884C2986.7861,-191.9843 2982.3446,-191.4474 2978,-191 2795.1458,-172.1692 2333.1058,-198.0549 2151,-173 2111.4858,-167.5635 2013.1133,-141.126 1944.1951,-121.8592"/>
<polygon fill="#1a2833" stroke="#1a2833" points="1944.8247,-118.4008 1934.2511,-119.0719 1942.9354,-125.141 1944.8247,-118.4008"/>
<text text-anchor="middle" x="2160.5" y="-152.5" font-family="Times,serif" font-size="10.00" fill="#767676">~1.8</text>
</g>
<!-- symfony/polyfill&#45;ctype&#45;&gt;php -->
<g id="edge67" class="edge">
<title>symfony/polyfill&#45;ctype&#45;&gt;php</title>
<path fill="none" stroke="#1a2833" d="M1775.5266,-82.9902C1679.321,-64.8424 1535.7435,-37.7584 1468.4015,-25.0553"/>
<polygon fill="#1a2833" stroke="#1a2833" points="1468.7425,-21.558 1458.267,-23.1435 1467.4449,-28.4366 1468.7425,-21.558"/>
<text text-anchor="middle" x="1694.5" y="-57" font-family="Times,serif" font-size="10.00" fill="#767676">&gt;=5.3.3</text>
</g>
<!-- symfony/polyfill&#45;php80&#45;&gt;php -->
<g id="edge72" class="edge">
<title>symfony/polyfill&#45;php80&#45;&gt;php</title>
<path fill="none" stroke="#1a2833" d="M3323.6019,-82.898C3302.1176,-72.2661 3273.2206,-59.8071 3246,-54 3155.9798,-34.7956 1718.4364,-20.6589 1468.0475,-18.3363"/>
<polygon fill="#1a2833" stroke="#1a2833" points="1468.0323,-14.8361 1458.0003,-18.2436 1467.9676,-21.8358 1468.0323,-14.8361"/>
<text text-anchor="middle" x="3296.5" y="-57" font-family="Times,serif" font-size="10.00" fill="#767676">&gt;=7.0.8</text>
</g>
<!-- symfony/service&#45;contracts&#45;&gt;php -->
<g id="edge73" class="edge">
<title>symfony/service&#45;contracts&#45;&gt;php</title>
<path fill="none" stroke="#1a2833" d="M1435.0499,-190.9024C1423.712,-186.1564 1412.5585,-180.2663 1403,-173 1379.6374,-155.2399 1373.8575,-146.9782 1365,-119 1360.1708,-103.7462 1358.8207,-97.7586 1365,-83 1371.5216,-67.4238 1383.7965,-53.6902 1396.0081,-42.9079"/>
<polygon fill="#1a2833" stroke="#1a2833" points="1398.5347,-45.3577 1403.9626,-36.2589 1394.0453,-39.9869 1398.5347,-45.3577"/>
<text text-anchor="middle" x="1381.5" y="-98.5" font-family="Times,serif" font-size="10.00" fill="#767676">&gt;=7.2.5</text>
</g>
<!-- symfony/service&#45;contracts&#45;&gt;psr/container -->
<g id="edge74" class="edge">
<title>symfony/service&#45;contracts&#45;&gt;psr/container</title>
<path fill="none" stroke="#1a2833" d="M1403.7093,-190.9486C1378.2201,-185.7507 1350.9801,-179.6627 1326,-173 1277.1126,-159.9607 1266.5901,-151.1067 1218,-137 1194.1337,-130.0711 1167.8211,-123.286 1144.2365,-117.5076"/>
<polygon fill="#1a2833" stroke="#1a2833" points="1144.8546,-114.056 1134.3109,-115.0953 1143.2014,-120.858 1144.8546,-114.056"/>
<text text-anchor="middle" x="1335" y="-152.5" font-family="Times,serif" font-size="10.00" fill="#767676">^1.0</text>
</g>
<!-- symfony/polyfill&#45;mbstring&#45;&gt;php -->
<g id="edge70" class="edge">
<title>symfony/polyfill&#45;mbstring&#45;&gt;php</title>
<path fill="none" stroke="#1a2833" d="M1604.0463,-82.9902C1563.0259,-67.5844 1504.8588,-45.7388 1467.5258,-31.7179"/>
<polygon fill="#1a2833" stroke="#1a2833" points="1468.6358,-28.3961 1458.0436,-28.1567 1466.1746,-34.9491 1468.6358,-28.3961"/>
<text text-anchor="middle" x="1571.5" y="-57" font-family="Times,serif" font-size="10.00" fill="#767676">&gt;=5.3.3</text>
</g>
<!-- symfony/polyfill&#45;php73&#45;&gt;php -->
<g id="edge71" class="edge">
<title>symfony/polyfill&#45;php73&#45;&gt;php</title>
<path fill="none" stroke="#1a2833" d="M1533.9067,-136.859C1523.623,-132.0599 1513.5001,-126.1624 1505,-119 1478.8806,-96.991 1484.7342,-81.1424 1464,-54 1461.3944,-50.5891 1458.5288,-47.1194 1455.6079,-43.7475"/>
<polygon fill="#1a2833" stroke="#1a2833" points="1458.0667,-41.2467 1448.7887,-36.1311 1452.8516,-45.916 1458.0667,-41.2467"/>
<text text-anchor="middle" x="1521.5" y="-98.5" font-family="Times,serif" font-size="10.00" fill="#767676">&gt;=5.3.3</text>
</g>
<!-- symfony/string&#45;&gt;php -->
<g id="edge75" class="edge">
<title>symfony/string&#45;&gt;php</title>
<path fill="none" stroke="#1a2833" d="M2105.4288,-192.6873C2102.9221,-192.1165 2100.4398,-191.5526 2098,-191 2062.0328,-182.8537 2045.6523,-196.2174 2017,-173 1982.8494,-145.3272 2011.4905,-108.9321 1976,-83 1935.0115,-53.0507 1584.626,-27.9226 1468.3363,-20.3414"/>
<polygon fill="#1a2833" stroke="#1a2833" points="1468.3509,-16.8351 1458.146,-19.6831 1467.8996,-23.8206 1468.3509,-16.8351"/>
<text text-anchor="middle" x="2012.5" y="-98.5" font-family="Times,serif" font-size="10.00" fill="#767676">&gt;=7.2.5</text>
</g>
<!-- symfony/string&#45;&gt;symfony/polyfill&#45;ctype -->
<g id="edge76" class="edge">
<title>symfony/string&#45;&gt;symfony/polyfill&#45;ctype</title>
<path fill="none" stroke="#1a2833" d="M2105.1023,-193.6486C2100.336,-192.7208 2095.6021,-191.8288 2091,-191 2037.4912,-181.3636 2020.3233,-193.582 1970,-173 1942.9774,-161.9479 1916.4484,-142.0241 1897.6646,-125.9327"/>
<polygon fill="#1a2833" stroke="#1a2833" points="1899.9362,-123.2695 1890.1098,-119.308 1895.321,-128.5327 1899.9362,-123.2695"/>
<text text-anchor="middle" x="1979.5" y="-152.5" font-family="Times,serif" font-size="10.00" fill="#767676">~1.8</text>
</g>
<!-- symfony/string&#45;&gt;symfony/polyfill&#45;php80 -->
<g id="edge80" class="edge">
<title>symfony/string&#45;&gt;symfony/polyfill&#45;php80</title>
<path fill="none" stroke="#1a2833" d="M2246.5388,-192.3451C2249.7274,-191.8398 2252.892,-191.3867 2256,-191 2293.8326,-186.2933 2908.8067,-191.7527 2942,-173 2958.531,-163.6608 2948.6893,-146.7188 2965,-137 3012.4684,-108.716 3158.0112,-124.4287 3213,-119 3224.7528,-117.8397 3237.0296,-116.5009 3249.2444,-115.0877"/>
<polygon fill="#1a2833" stroke="#1a2833" points="3249.9542,-118.5285 3259.4774,-113.8855 3249.1373,-111.5763 3249.9542,-118.5285"/>
<text text-anchor="middle" x="2977" y="-152.5" font-family="Times,serif" font-size="10.00" fill="#767676">~1.15</text>
</g>
<!-- symfony/string&#45;&gt;symfony/polyfill&#45;mbstring -->
<g id="edge79" class="edge">
<title>symfony/string&#45;&gt;symfony/polyfill&#45;mbstring</title>
<path fill="none" stroke="#1a2833" d="M2105.1538,-193.3366C2100.3751,-192.4841 2095.6243,-191.6942 2091,-191 2002.3029,-177.6856 1978.0506,-190.0746 1890,-173 1827.5546,-160.8907 1758.1462,-138.8681 1710.478,-122.3557"/>
<polygon fill="#1a2833" stroke="#1a2833" points="1711.5397,-119.0192 1700.9449,-119.0264 1709.2317,-125.6278 1711.5397,-119.0192"/>
<text text-anchor="middle" x="1899.5" y="-152.5" font-family="Times,serif" font-size="10.00" fill="#767676">~1.0</text>
</g>
<!-- symfony/polyfill&#45;intl&#45;grapheme -->
<g id="node36" class="node">
<title>symfony/polyfill&#45;intl&#45;grapheme</title>
<path fill="#eeeeee" stroke="#000000" d="M2280,-119C2280,-119 2066,-119 2066,-119 2060,-119 2054,-113 2054,-107 2054,-107 2054,-95 2054,-95 2054,-89 2060,-83 2066,-83 2066,-83 2280,-83 2280,-83 2286,-83 2292,-89 2292,-95 2292,-95 2292,-107 2292,-107 2292,-113 2286,-119 2280,-119"/>
<text text-anchor="middle" x="2173" y="-97.3" font-family="Times,serif" font-size="14.00" fill="#314b5f">symfony/polyfill&#45;intl&#45;grapheme: v1.18.1</text>
</g>
<!-- symfony/string&#45;&gt;symfony/polyfill&#45;intl&#45;grapheme -->
<g id="edge77" class="edge">
<title>symfony/string&#45;&gt;symfony/polyfill&#45;intl&#45;grapheme</title>
<path fill="none" stroke="#1a2833" d="M2175.4911,-190.6793C2175.0228,-173.821 2174.3213,-148.5651 2173.7819,-129.147"/>
<polygon fill="#1a2833" stroke="#1a2833" points="2177.2778,-128.9491 2173.5014,-119.0502 2170.2805,-129.1435 2177.2778,-128.9491"/>
<text text-anchor="middle" x="2183.5" y="-152.5" font-family="Times,serif" font-size="10.00" fill="#767676">~1.0</text>
</g>
<!-- symfony/polyfill&#45;intl&#45;normalizer -->
<g id="node37" class="node">
<title>symfony/polyfill&#45;intl&#45;normalizer</title>
<path fill="#eeeeee" stroke="#000000" d="M2541.5,-119C2541.5,-119 2322.5,-119 2322.5,-119 2316.5,-119 2310.5,-113 2310.5,-107 2310.5,-107 2310.5,-95 2310.5,-95 2310.5,-89 2316.5,-83 2322.5,-83 2322.5,-83 2541.5,-83 2541.5,-83 2547.5,-83 2553.5,-89 2553.5,-95 2553.5,-95 2553.5,-107 2553.5,-107 2553.5,-113 2547.5,-119 2541.5,-119"/>
<text text-anchor="middle" x="2432" y="-97.3" font-family="Times,serif" font-size="14.00" fill="#314b5f">symfony/polyfill&#45;intl&#45;normalizer: v1.18.1</text>
</g>
<!-- symfony/string&#45;&gt;symfony/polyfill&#45;intl&#45;normalizer -->
<g id="edge78" class="edge">
<title>symfony/string&#45;&gt;symfony/polyfill&#45;intl&#45;normalizer</title>
<path fill="none" stroke="#1a2833" d="M2218.8486,-190.9232C2263.059,-172.272 2332.0727,-143.1568 2379.526,-123.1375"/>
<polygon fill="#1a2833" stroke="#1a2833" points="2381.1584,-126.2476 2389.0116,-119.1357 2378.4374,-119.798 2381.1584,-126.2476"/>
<text text-anchor="middle" x="2350.5" y="-152.5" font-family="Times,serif" font-size="10.00" fill="#767676">~1.0</text>
</g>
<!-- symfony/error&#45;handler -->
<g id="node38" class="node">
<title>symfony/error&#45;handler</title>
<path fill="#eeeeee" stroke="#000000" d="M3050,-119C3050,-119 2934,-119 2934,-119 2928,-119 2922,-113 2922,-107 2922,-107 2922,-95 2922,-95 2922,-89 2928,-83 2934,-83 2934,-83 3050,-83 3050,-83 3056,-83 3062,-89 3062,-95 3062,-95 3062,-107 3062,-107 3062,-113 3056,-119 3050,-119"/>
<text text-anchor="middle" x="2992" y="-97.3" font-family="Times,serif" font-size="14.00" fill="#314b5f">symfony/error&#45;handler</text>
</g>
<!-- symfony/string&#45;&gt;symfony/error&#45;handler -->
<g id="edge81" class="edge">
<title>symfony/string&#45;&gt;symfony/error&#45;handler</title>
<path fill="none" stroke="#1a2833" stroke-dasharray="5,2" d="M2246.5437,-192.3834C2249.7309,-191.8677 2252.894,-191.4019 2256,-191 2366.0435,-176.7603 2646.4371,-195.9444 2755,-173 2797.1502,-164.0917 2803.9767,-150.1562 2845,-137 2858.0357,-132.8194 2884.8148,-126.0776 2911.9892,-119.5522"/>
<polygon fill="#1a2833" stroke="#1a2833" points="2913.0804,-122.8901 2921.994,-117.163 2911.4545,-116.0815 2913.0804,-122.8901"/>
<text text-anchor="middle" x="2863.5" y="-152.5" font-family="Times,serif" font-size="10.00" fill="#767676">^4.4|^5.0</text>
</g>
<!-- symfony/http&#45;client -->
<g id="node39" class="node">
<title>symfony/http&#45;client</title>
<path fill="#eeeeee" stroke="#000000" d="M3192,-119C3192,-119 3092,-119 3092,-119 3086,-119 3080,-113 3080,-107 3080,-107 3080,-95 3080,-95 3080,-89 3086,-83 3092,-83 3092,-83 3192,-83 3192,-83 3198,-83 3204,-89 3204,-95 3204,-95 3204,-107 3204,-107 3204,-113 3198,-119 3192,-119"/>
<text text-anchor="middle" x="3142" y="-97.3" font-family="Times,serif" font-size="14.00" fill="#314b5f">symfony/http&#45;client</text>
</g>
<!-- symfony/string&#45;&gt;symfony/http&#45;client -->
<g id="edge82" class="edge">
<title>symfony/string&#45;&gt;symfony/http&#45;client</title>
<path fill="none" stroke="#1a2833" stroke-dasharray="5,2" d="M2246.5401,-192.3549C2249.7283,-191.8469 2252.8925,-191.3906 2256,-191 2290.5206,-186.6613 2851.7294,-190.1518 2882,-173 2898.5192,-163.64 2888.8646,-147.0072 2905,-137 2934.3773,-118.7801 3021.401,-124.593 3069.782,-118.7829"/>
<polygon fill="#1a2833" stroke="#1a2833" points="3070.3912,-122.231 3079.7698,-117.3022 3069.3646,-115.3066 3070.3912,-122.231"/>
<text text-anchor="middle" x="2923.5" y="-152.5" font-family="Times,serif" font-size="10.00" fill="#767676">^4.4|^5.0</text>
</g>
<!-- symfony/translation&#45;contracts -->
<g id="node40" class="node">
<title>symfony/translation&#45;contracts</title>
<path fill="#eeeeee" stroke="#000000" d="M2738.5,-119C2738.5,-119 2583.5,-119 2583.5,-119 2577.5,-119 2571.5,-113 2571.5,-107 2571.5,-107 2571.5,-95 2571.5,-95 2571.5,-89 2577.5,-83 2583.5,-83 2583.5,-83 2738.5,-83 2738.5,-83 2744.5,-83 2750.5,-89 2750.5,-95 2750.5,-95 2750.5,-107 2750.5,-107 2750.5,-113 2744.5,-119 2738.5,-119"/>
<text text-anchor="middle" x="2661" y="-97.3" font-family="Times,serif" font-size="14.00" fill="#314b5f">symfony/translation&#45;contracts</text>
</g>
<!-- symfony/string&#45;&gt;symfony/translation&#45;contracts -->
<g id="edge83" class="edge">
<title>symfony/string&#45;&gt;symfony/translation&#45;contracts</title>
<path fill="none" stroke="#1a2833" stroke-dasharray="5,2" d="M2246.6249,-192.8835C2249.7902,-192.2324 2252.9263,-191.6014 2256,-191 2303.7564,-181.6554 2316.3224,-182.7388 2364,-173 2438.8469,-157.7115 2523.4524,-136.8444 2583.1624,-121.5102"/>
<polygon fill="#1a2833" stroke="#1a2833" points="2584.0864,-124.8866 2592.8972,-119.0026 2582.3402,-118.1078 2584.0864,-124.8866"/>
<text text-anchor="middle" x="2533" y="-152.5" font-family="Times,serif" font-size="10.00" fill="#767676">^1.1|^2</text>
</g>
<!-- symfony/var&#45;exporter -->
<g id="node41" class="node">
<title>symfony/var&#45;exporter</title>
<path fill="#eeeeee" stroke="#000000" d="M2891.5,-119C2891.5,-119 2780.5,-119 2780.5,-119 2774.5,-119 2768.5,-113 2768.5,-107 2768.5,-107 2768.5,-95 2768.5,-95 2768.5,-89 2774.5,-83 2780.5,-83 2780.5,-83 2891.5,-83 2891.5,-83 2897.5,-83 2903.5,-89 2903.5,-95 2903.5,-95 2903.5,-107 2903.5,-107 2903.5,-113 2897.5,-119 2891.5,-119"/>
<text text-anchor="middle" x="2836" y="-97.3" font-family="Times,serif" font-size="14.00" fill="#314b5f">symfony/var&#45;exporter</text>
</g>
<!-- symfony/string&#45;&gt;symfony/var&#45;exporter -->
<g id="edge84" class="edge">
<title>symfony/string&#45;&gt;symfony/var&#45;exporter</title>
<path fill="none" stroke="#1a2833" stroke-dasharray="5,2" d="M2246.5567,-192.4794C2249.7404,-191.9377 2252.8991,-191.4402 2256,-191 2386.4901,-172.4746 2421.7716,-193.2837 2552,-173 2627.1859,-161.2895 2711.4796,-138.6791 2768.5625,-121.9065"/>
<polygon fill="#1a2833" stroke="#1a2833" points="2769.5937,-125.2515 2778.1893,-119.0574 2767.6071,-118.5392 2769.5937,-125.2515"/>
<text text-anchor="middle" x="2732.5" y="-152.5" font-family="Times,serif" font-size="10.00" fill="#767676">^4.4|^5.0</text>
</g>
<!-- symfony/polyfill&#45;intl&#45;grapheme&#45;&gt;php -->
<g id="edge68" class="edge">
<title>symfony/polyfill&#45;intl&#45;grapheme&#45;&gt;php</title>
<path fill="none" stroke="#1a2833" d="M2123.831,-82.9925C2093.4702,-72.6786 2053.4755,-60.5242 2017,-54 1910.9305,-35.0277 1580.3518,-22.8379 1468.4576,-19.1685"/>
<polygon fill="#1a2833" stroke="#1a2833" points="1468.4348,-15.666 1458.3267,-18.84 1468.208,-22.6623 1468.4348,-15.666"/>
<text text-anchor="middle" x="2080.5" y="-57" font-family="Times,serif" font-size="10.00" fill="#767676">&gt;=5.3.3</text>
</g>
<!-- symfony/polyfill&#45;intl&#45;normalizer&#45;&gt;php -->
<g id="edge69" class="edge">
<title>symfony/polyfill&#45;intl&#45;normalizer&#45;&gt;php</title>
<path fill="none" stroke="#1a2833" d="M2322.3325,-82.9749C2258.0148,-73.0181 2175.0859,-61.2363 2101,-54 1860.5382,-30.5131 1569.9197,-21.4532 1468.2608,-18.8601"/>
<polygon fill="#1a2833" stroke="#1a2833" points="1468.2727,-15.3594 1458.1884,-18.6087 1468.098,-22.3572 1468.2727,-15.3594"/>
<text text-anchor="middle" x="2208.5" y="-57" font-family="Times,serif" font-size="10.00" fill="#767676">&gt;=5.3.3</text>
</g>
</g>
</svg>
