<?xml version="1.0" encoding="UTF-8" standalone="no"?>
<!DOCTYPE svg PUBLIC "-//W3C//DTD SVG 1.1//EN"
 "http://www.w3.org/Graphics/SVG/1.1/DTD/svg11.dtd">
<!-- Generated by graphviz version 2.40.1 (20161225.0304)
 -->
<!-- Title: %3 Pages: 1 -->
<svg width="3237pt" height="592pt"
 viewBox="0.00 0.00 3236.50 592.00" xmlns="http://www.w3.org/2000/svg" xmlns:xlink="http://www.w3.org/1999/xlink">
<g id="graph0" class="graph" transform="scale(1 1) rotate(0) translate(4 588)">
<title>%3</title>
<polygon fill="#ffffff" stroke="transparent" points="-4,4 -4,-588 3232.5,-588 3232.5,4 -4,4"/>
<!-- bartlett/umlwriter -->
<g id="node1" class="node">
<title>bartlett/umlwriter</title>
<path fill="#eeeeee" stroke="#000000" stroke-width="2" d="M1606,-584C1606,-584 1483,-584 1483,-584 1477,-584 1471,-578 1471,-572 1471,-572 1471,-560 1471,-560 1471,-554 1477,-548 1483,-548 1483,-548 1606,-548 1606,-548 1612,-548 1618,-554 1618,-560 1618,-560 1618,-572 1618,-572 1618,-578 1612,-584 1606,-584"/>
<text text-anchor="middle" x="1544.5" y="-562.3" font-family="Times,serif" font-size="14.00" fill="#314b5f">bartlett/umlwriter</text>
</g>
<!-- php -->
<g id="node2" class="node">
<title>php</title>
<path fill="#eeeeee" stroke="#000000" d="M1616.5,-36C1616.5,-36 1586.5,-36 1586.5,-36 1580.5,-36 1574.5,-30 1574.5,-24 1574.5,-24 1574.5,-12 1574.5,-12 1574.5,-6 1580.5,0 1586.5,0 1586.5,0 1616.5,0 1616.5,0 1622.5,0 1628.5,-6 1628.5,-12 1628.5,-12 1628.5,-24 1628.5,-24 1628.5,-30 1622.5,-36 1616.5,-36"/>
<text text-anchor="middle" x="1601.5" y="-14.3" font-family="Times,serif" font-size="14.00" fill="#314b5f">php</text>
</g>
<!-- bartlett/umlwriter&#45;&gt;php -->
<g id="edge1" class="edge">
<title>bartlett/umlwriter&#45;&gt;php</title>
<path fill="none" stroke="#1a2833" d="M1618.1838,-565.1325C1895.6385,-561.7361 2868.6625,-548.6063 3006.5,-530 3092.2803,-518.4208 3195.5,-569.5583 3195.5,-483 3195.5,-483 3195.5,-483 3195.5,-101 3195.5,-64.2868 3206.8378,-75.7394 2994.5,-54 2720.5108,-25.9487 1831.9183,-19.3176 1638.773,-18.1942"/>
<polygon fill="#1a2833" stroke="#1a2833" points="1638.5927,-14.6932 1628.573,-18.1363 1638.5529,-21.6931 1638.5927,-14.6932"/>
<text text-anchor="middle" x="3212" y="-289.5" font-family="Times,serif" font-size="10.00" fill="#767676">^7.1.3</text>
</g>
<!-- bartlett/graph&#45;plantuml&#45;generator -->
<g id="node3" class="node">
<title>bartlett/graph&#45;plantuml&#45;generator</title>
<path fill="#eeeeee" stroke="#000000" d="M1464,-393C1464,-393 1149,-393 1149,-393 1143,-393 1137,-387 1137,-381 1137,-381 1137,-369 1137,-369 1137,-363 1143,-357 1149,-357 1149,-357 1464,-357 1464,-357 1470,-357 1476,-363 1476,-369 1476,-369 1476,-381 1476,-381 1476,-387 1470,-393 1464,-393"/>
<text text-anchor="middle" x="1306.5" y="-371.3" font-family="Times,serif" font-size="14.00" fill="#314b5f">bartlett/graph&#45;plantuml&#45;generator: 1.0.0&#45;rc.1</text>
</g>
<!-- bartlett/umlwriter&#45;&gt;bartlett/graph&#45;plantuml&#45;generator -->
<g id="edge2" class="edge">
<title>bartlett/umlwriter&#45;&gt;bartlett/graph&#45;plantuml&#45;generator</title>
<path fill="none" stroke="#1a2833" d="M1521.6796,-547.6861C1478.6758,-513.1747 1385.6204,-438.4958 1337.1902,-399.6295"/>
<polygon fill="#1a2833" stroke="#1a2833" points="1339.2411,-396.7877 1329.2514,-393.2584 1334.8598,-402.2471 1339.2411,-396.7877"/>
<text text-anchor="middle" x="1484.5" y="-480.5" font-family="Times,serif" font-size="10.00" fill="#767676">1.0.0&#45;rc.1</text>
</g>
<!-- bartlett/graph&#45;uml -->
<g id="node4" class="node">
<title>bartlett/graph&#45;uml</title>
<path fill="#eeeeee" stroke="#000000" d="M836,-310C836,-310 633,-310 633,-310 627,-310 621,-304 621,-298 621,-298 621,-286 621,-286 621,-280 627,-274 633,-274 633,-274 836,-274 836,-274 842,-274 848,-280 848,-286 848,-286 848,-298 848,-298 848,-304 842,-310 836,-310"/>
<text text-anchor="middle" x="734.5" y="-288.3" font-family="Times,serif" font-size="14.00" fill="#314b5f">bartlett/graph&#45;uml: 1.0.0&#45;rc.1</text>
</g>
<!-- bartlett/umlwriter&#45;&gt;bartlett/graph&#45;uml -->
<g id="edge3" class="edge">
<title>bartlett/umlwriter&#45;&gt;bartlett/graph&#45;uml</title>
<path fill="none" stroke="#1a2833" d="M1470.926,-564.0249C1299.8679,-559.1752 887.9484,-545.9099 862.5,-530 789.0089,-484.0548 813.433,-433.3963 772.5,-357 765.6802,-344.2718 757.6703,-330.425 750.7672,-318.795"/>
<polygon fill="#1a2833" stroke="#1a2833" points="753.6483,-316.7934 745.5122,-310.007 747.6405,-320.3859 753.6483,-316.7934"/>
<text text-anchor="middle" x="826.5" y="-426.5" font-family="Times,serif" font-size="10.00" fill="#767676">1.0.0&#45;rc.1</text>
</g>
<!-- goaop/parser&#45;reflection -->
<g id="node5" class="node">
<title>goaop/parser&#45;reflection</title>
<path fill="#eeeeee" stroke="#000000" d="M416,-227C416,-227 211,-227 211,-227 205,-227 199,-221 199,-215 199,-215 199,-203 199,-203 199,-197 205,-191 211,-191 211,-191 416,-191 416,-191 422,-191 428,-197 428,-203 428,-203 428,-215 428,-215 428,-221 422,-227 416,-227"/>
<text text-anchor="middle" x="313.5" y="-205.3" font-family="Times,serif" font-size="14.00" fill="#314b5f">goaop/parser&#45;reflection: 2.1.1</text>
</g>
<!-- bartlett/umlwriter&#45;&gt;goaop/parser&#45;reflection -->
<g id="edge4" class="edge">
<title>bartlett/umlwriter&#45;&gt;goaop/parser&#45;reflection</title>
<path fill="none" stroke="#1a2833" d="M1470.7904,-565.6333C1239.9927,-564.2014 540.746,-557.6087 442.5,-530 401.6882,-518.5312 359.5,-525.3926 359.5,-483 359.5,-483 359.5,-483 359.5,-292 359.5,-271.1491 348.2569,-250.6284 336.8874,-235.2077"/>
<polygon fill="#1a2833" stroke="#1a2833" points="339.543,-232.9216 330.6287,-227.1956 334.0265,-237.2308 339.543,-232.9216"/>
<text text-anchor="middle" x="371.5" y="-372.5" font-family="Times,serif" font-size="10.00" fill="#767676">^2.1</text>
</g>
<!-- graphp/graph -->
<g id="node6" class="node">
<title>graphp/graph</title>
<path fill="#eeeeee" stroke="#000000" d="M673,-119C673,-119 494,-119 494,-119 488,-119 482,-113 482,-107 482,-107 482,-95 482,-95 482,-89 488,-83 494,-83 494,-83 673,-83 673,-83 679,-83 685,-89 685,-95 685,-95 685,-107 685,-107 685,-113 679,-119 673,-119"/>
<text text-anchor="middle" x="583.5" y="-97.3" font-family="Times,serif" font-size="14.00" fill="#314b5f">graphp/graph: dev&#45;master</text>
</g>
<!-- bartlett/umlwriter&#45;&gt;graphp/graph -->
<g id="edge5" class="edge">
<title>bartlett/umlwriter&#45;&gt;graphp/graph</title>
<path fill="none" stroke="#1a2833" d="M1470.9988,-564.2458C1226.5866,-557.934 456.5,-534.0002 456.5,-483 456.5,-483 456.5,-483 456.5,-209 456.5,-169.2795 492.9974,-141.1086 526.8612,-123.5191"/>
<polygon fill="#1a2833" stroke="#1a2833" points="528.4486,-126.6387 535.8486,-119.0564 525.3353,-120.3691 528.4486,-126.6387"/>
<text text-anchor="middle" x="505" y="-331" font-family="Times,serif" font-size="10.00" fill="#767676">dev&#45;master as 1.0.0</text>
</g>
<!-- graphp/graphviz -->
<g id="node7" class="node">
<title>graphp/graphviz</title>
<path fill="#eeeeee" stroke="#000000" d="M983,-227C983,-227 630,-227 630,-227 624,-227 618,-221 618,-215 618,-215 618,-203 618,-203 618,-197 624,-191 630,-191 630,-191 983,-191 983,-191 989,-191 995,-197 995,-203 995,-203 995,-215 995,-215 995,-221 989,-227 983,-227"/>
<text text-anchor="middle" x="806.5" y="-205.3" font-family="Times,serif" font-size="14.00" fill="#314b5f">graphp/graphviz: dev&#45;subgraph_cluster_attributes</text>
</g>
<!-- bartlett/umlwriter&#45;&gt;graphp/graphviz -->
<g id="edge6" class="edge">
<title>bartlett/umlwriter&#45;&gt;graphp/graphviz</title>
<path fill="none" stroke="#1a2833" d="M1470.7413,-563.5798C1243.3686,-555.6371 568.5,-528.2509 568.5,-483 568.5,-483 568.5,-483 568.5,-292 568.5,-263.8642 628.551,-243.052 688.3246,-229.3051"/>
<polygon fill="#1a2833" stroke="#1a2833" points="689.2997,-232.6736 698.2944,-227.0749 687.7715,-225.8424 689.2997,-232.6736"/>
<text text-anchor="middle" x="668.5" y="-372.5" font-family="Times,serif" font-size="10.00" fill="#767676">dev&#45;subgraph_cluster_attributes as 1.0.0</text>
</g>
<!-- psr/container -->
<g id="node8" class="node">
<title>psr/container</title>
<path fill="#eeeeee" stroke="#000000" d="M1259.5,-119C1259.5,-119 1125.5,-119 1125.5,-119 1119.5,-119 1113.5,-113 1113.5,-107 1113.5,-107 1113.5,-95 1113.5,-95 1113.5,-89 1119.5,-83 1125.5,-83 1125.5,-83 1259.5,-83 1259.5,-83 1265.5,-83 1271.5,-89 1271.5,-95 1271.5,-95 1271.5,-107 1271.5,-107 1271.5,-113 1265.5,-119 1259.5,-119"/>
<text text-anchor="middle" x="1192.5" y="-97.3" font-family="Times,serif" font-size="14.00" fill="#314b5f">psr/container: 1.0.0</text>
</g>
<!-- bartlett/umlwriter&#45;&gt;psr/container -->
<g id="edge7" class="edge">
<title>bartlett/umlwriter&#45;&gt;psr/container</title>
<path fill="none" stroke="#1a2833" d="M1470.781,-564.4353C1297.0555,-559.7692 876.5,-542.345 876.5,-483 876.5,-483 876.5,-483 876.5,-333.5 876.5,-301.3852 892.7432,-294.4562 917.5,-274 917.5,-274 1024.5,-227 1024.5,-227 1076.5912,-196.5663 1131.534,-152.831 1163.877,-125.7062"/>
<polygon fill="#1a2833" stroke="#1a2833" points="1166.2156,-128.3124 1171.5974,-119.1862 1161.6991,-122.9644 1166.2156,-128.3124"/>
<text text-anchor="middle" x="888.5" y="-331" font-family="Times,serif" font-size="10.00" fill="#767676">^1.0</text>
</g>
<!-- symfony/config -->
<g id="node9" class="node">
<title>symfony/config</title>
<path fill="#eeeeee" stroke="#000000" d="M2084,-501C2084,-501 1929,-501 1929,-501 1923,-501 1917,-495 1917,-489 1917,-489 1917,-477 1917,-477 1917,-471 1923,-465 1929,-465 1929,-465 2084,-465 2084,-465 2090,-465 2096,-471 2096,-477 2096,-477 2096,-489 2096,-489 2096,-495 2090,-501 2084,-501"/>
<text text-anchor="middle" x="2006.5" y="-479.3" font-family="Times,serif" font-size="14.00" fill="#314b5f">symfony/config: v5.0.8</text>
</g>
<!-- bartlett/umlwriter&#45;&gt;symfony/config -->
<g id="edge8" class="edge">
<title>bartlett/umlwriter&#45;&gt;symfony/config</title>
<path fill="none" stroke="#1a2833" d="M1618.2161,-552.7566C1696.3449,-538.7205 1820.1876,-516.4717 1906.949,-500.8847"/>
<polygon fill="#1a2833" stroke="#1a2833" points="1907.5867,-504.3263 1916.8102,-499.1131 1906.3489,-497.4366 1907.5867,-504.3263"/>
<text text-anchor="middle" x="1828.5" y="-522" font-family="Times,serif" font-size="10.00" fill="#767676">^4.4|^5.0</text>
</g>
<!-- symfony/console -->
<g id="node10" class="node">
<title>symfony/console</title>
<path fill="#eeeeee" stroke="#000000" d="M2045.5,-310C2045.5,-310 1881.5,-310 1881.5,-310 1875.5,-310 1869.5,-304 1869.5,-298 1869.5,-298 1869.5,-286 1869.5,-286 1869.5,-280 1875.5,-274 1881.5,-274 1881.5,-274 2045.5,-274 2045.5,-274 2051.5,-274 2057.5,-280 2057.5,-286 2057.5,-286 2057.5,-298 2057.5,-298 2057.5,-304 2051.5,-310 2045.5,-310"/>
<text text-anchor="middle" x="1963.5" y="-288.3" font-family="Times,serif" font-size="14.00" fill="#314b5f">symfony/console: v5.0.8</text>
</g>
<!-- bartlett/umlwriter&#45;&gt;symfony/console -->
<g id="edge9" class="edge">
<title>bartlett/umlwriter&#45;&gt;symfony/console</title>
<path fill="none" stroke="#1a2833" d="M1554.5441,-547.668C1582.8149,-496.7586 1663.9015,-355.58 1708.5,-328 1733.5278,-312.5226 1800.2391,-303.4437 1859.1493,-298.2754"/>
<polygon fill="#1a2833" stroke="#1a2833" points="1859.6165,-301.7484 1869.2855,-297.4172 1859.0258,-294.7734 1859.6165,-301.7484"/>
<text text-anchor="middle" x="1662.5" y="-426.5" font-family="Times,serif" font-size="10.00" fill="#767676">^4.4|^5.0</text>
</g>
<!-- symfony/finder -->
<g id="node11" class="node">
<title>symfony/finder</title>
<path fill="#eeeeee" stroke="#000000" d="M3010,-393C3010,-393 2857,-393 2857,-393 2851,-393 2845,-387 2845,-381 2845,-381 2845,-369 2845,-369 2845,-363 2851,-357 2857,-357 2857,-357 3010,-357 3010,-357 3016,-357 3022,-363 3022,-369 3022,-369 3022,-381 3022,-381 3022,-387 3016,-393 3010,-393"/>
<text text-anchor="middle" x="2933.5" y="-371.3" font-family="Times,serif" font-size="14.00" fill="#314b5f">symfony/finder: v5.0.8</text>
</g>
<!-- bartlett/umlwriter&#45;&gt;symfony/finder -->
<g id="edge10" class="edge">
<title>bartlett/umlwriter&#45;&gt;symfony/finder</title>
<path fill="none" stroke="#1a2833" d="M1618.3888,-563.8628C1886.3178,-555.5273 2796.6012,-521.8915 2901.5,-447 2915.9292,-436.6984 2923.9502,-418.3724 2928.3532,-402.7879"/>
<polygon fill="#1a2833" stroke="#1a2833" points="2931.7573,-403.6018 2930.7552,-393.0545 2924.9612,-401.9247 2931.7573,-403.6018"/>
<text text-anchor="middle" x="2879.5" y="-480.5" font-family="Times,serif" font-size="10.00" fill="#767676">^4.4|^5.0</text>
</g>
<!-- symfony/options&#45;resolver -->
<g id="node12" class="node">
<title>symfony/options&#45;resolver</title>
<path fill="#eeeeee" stroke="#000000" d="M3168.5,-447C3168.5,-447 2942.5,-447 2942.5,-447 2936.5,-447 2930.5,-441 2930.5,-435 2930.5,-435 2930.5,-423 2930.5,-423 2930.5,-417 2936.5,-411 2942.5,-411 2942.5,-411 3168.5,-411 3168.5,-411 3174.5,-411 3180.5,-417 3180.5,-423 3180.5,-423 3180.5,-435 3180.5,-435 3180.5,-441 3174.5,-447 3168.5,-447"/>
<text text-anchor="middle" x="3055.5" y="-425.3" font-family="Times,serif" font-size="14.00" fill="#314b5f">symfony/options&#45;resolver: v5.0.8</text>
</g>
<!-- bartlett/umlwriter&#45;&gt;symfony/options&#45;resolver -->
<g id="edge11" class="edge">
<title>bartlett/umlwriter&#45;&gt;symfony/options&#45;resolver</title>
<path fill="none" stroke="#1a2833" d="M1618.0714,-565.295C1895.6787,-562.4789 2867.0647,-551.152 2929.5,-530 2971.909,-515.6325 3010.4447,-479.8798 3033.4331,-455.018"/>
<polygon fill="#1a2833" stroke="#1a2833" points="3036.2341,-457.1383 3040.3357,-447.3696 3031.0375,-452.4484 3036.2341,-457.1383"/>
<text text-anchor="middle" x="2977.5" y="-522" font-family="Times,serif" font-size="10.00" fill="#767676">^4.4|^5.0</text>
</g>
<!-- symfony/yaml -->
<g id="node13" class="node">
<title>symfony/yaml</title>
<path fill="#eeeeee" stroke="#000000" d="M1916,-393C1916,-393 1771,-393 1771,-393 1765,-393 1759,-387 1759,-381 1759,-381 1759,-369 1759,-369 1759,-363 1765,-357 1771,-357 1771,-357 1916,-357 1916,-357 1922,-357 1928,-363 1928,-369 1928,-369 1928,-381 1928,-381 1928,-387 1922,-393 1916,-393"/>
<text text-anchor="middle" x="1843.5" y="-371.3" font-family="Times,serif" font-size="14.00" fill="#314b5f">symfony/yaml: v5.0.8</text>
</g>
<!-- bartlett/umlwriter&#45;&gt;symfony/yaml -->
<g id="edge12" class="edge">
<title>bartlett/umlwriter&#45;&gt;symfony/yaml</title>
<path fill="none" stroke="#1a2833" d="M1585.1971,-547.9016C1596.4937,-542.4934 1608.6357,-536.3134 1619.5,-530 1691.1832,-488.344 1769.7365,-431.0508 1812.133,-399.073"/>
<polygon fill="#1a2833" stroke="#1a2833" points="1814.258,-401.8542 1820.1175,-393.0271 1810.0323,-396.2735 1814.258,-401.8542"/>
<text text-anchor="middle" x="1746.5" y="-480.5" font-family="Times,serif" font-size="10.00" fill="#767676">^4.4|^5.0</text>
</g>
<!-- jawira/plantuml -->
<g id="node14" class="node">
<title>jawira/plantuml</title>
<path fill="#eeeeee" stroke="#000000" d="M1628,-310C1628,-310 1461,-310 1461,-310 1455,-310 1449,-304 1449,-298 1449,-298 1449,-286 1449,-286 1449,-280 1455,-274 1461,-274 1461,-274 1628,-274 1628,-274 1634,-274 1640,-280 1640,-286 1640,-286 1640,-298 1640,-298 1640,-304 1634,-310 1628,-310"/>
<text text-anchor="middle" x="1544.5" y="-288.3" font-family="Times,serif" font-size="14.00" fill="#314b5f">jawira/plantuml: v1.36.0</text>
</g>
<!-- bartlett/umlwriter&#45;&gt;jawira/plantuml -->
<g id="edge13" class="edge">
<title>bartlett/umlwriter&#45;&gt;jawira/plantuml</title>
<path fill="none" stroke="#1a2833" stroke-dasharray="5,2" d="M1544.5,-547.5966C1544.5,-500.801 1544.5,-376.9945 1544.5,-320.6499"/>
<polygon fill="#1a2833" stroke="#1a2833" points="1548.0001,-320.3232 1544.5,-310.3233 1541.0001,-320.3233 1548.0001,-320.3232"/>
<text text-anchor="middle" x="1559.5" y="-426.5" font-family="Times,serif" font-size="10.00" fill="#767676">^1.28</text>
</g>
<!-- bartlett/graph&#45;plantuml&#45;generator&#45;&gt;php -->
<g id="edge17" class="edge">
<title>bartlett/graph&#45;plantuml&#45;generator&#45;&gt;php</title>
<path fill="none" stroke="#1a2833" d="M1349.9643,-356.8821C1369.4549,-346.2973 1390.4984,-330.8577 1401.5,-310 1418.7413,-277.3126 1398.4574,-263.9039 1396.5,-227 1392.354,-148.8346 1373.3257,-108.5111 1429.5,-54 1448.2997,-35.7569 1519.2788,-25.7894 1563.9702,-21.204"/>
<polygon fill="#1a2833" stroke="#1a2833" points="1564.5609,-24.663 1574.1714,-20.2035 1563.8775,-17.6964 1564.5609,-24.663"/>
<text text-anchor="middle" x="1413" y="-206.5" font-family="Times,serif" font-size="10.00" fill="#767676">^7.1.3</text>
</g>
<!-- bartlett/graph&#45;plantuml&#45;generator&#45;&gt;bartlett/graph&#45;uml -->
<g id="edge14" class="edge">
<title>bartlett/graph&#45;plantuml&#45;generator&#45;&gt;bartlett/graph&#45;uml</title>
<path fill="none" stroke="#1a2833" d="M1136.9573,-368.9246C1024.0816,-363.5889 886.5815,-354.2426 830.5,-339 829.7681,-338.8011 804.726,-326.5374 780.405,-314.5887"/>
<polygon fill="#1a2833" stroke="#1a2833" points="781.6898,-311.3203 771.1713,-310.0505 778.6021,-317.6026 781.6898,-311.3203"/>
<text text-anchor="middle" x="842.5" y="-331" font-family="Times,serif" font-size="10.00" fill="#767676">^1.0</text>
</g>
<!-- bartlett/graph&#45;plantuml&#45;generator&#45;&gt;graphp/graphviz -->
<g id="edge15" class="edge">
<title>bartlett/graph&#45;plantuml&#45;generator&#45;&gt;graphp/graphviz</title>
<path fill="none" stroke="#1a2833" d="M1136.956,-363.1953C1052.5888,-353.9395 962.165,-337.7834 931.5,-310 909.2856,-289.8732 934.112,-266.7649 913.5,-245 908.7746,-240.0103 898.6093,-235.053 886.3388,-230.4847"/>
<polygon fill="#1a2833" stroke="#1a2833" points="887.1953,-227.0762 876.6004,-227.073 884.8808,-233.6825 887.1953,-227.0762"/>
<text text-anchor="middle" x="1031.5" y="-289.5" font-family="Times,serif" font-size="10.00" fill="#767676">dev&#45;subgraph_cluster_attributes as 1.0.0</text>
</g>
<!-- bartlett/graph&#45;plantuml&#45;generator&#45;&gt;jawira/plantuml -->
<g id="edge18" class="edge">
<title>bartlett/graph&#45;plantuml&#45;generator&#45;&gt;jawira/plantuml</title>
<path fill="none" stroke="#1a2833" stroke-dasharray="5,2" d="M1377.1005,-356.9106C1395.906,-351.613 1416.1037,-345.4864 1434.5,-339 1455.0247,-331.7632 1477.1785,-322.5753 1496.1883,-314.2465"/>
<polygon fill="#1a2833" stroke="#1a2833" points="1497.8028,-317.3595 1505.5311,-310.1121 1494.9701,-310.9582 1497.8028,-317.3595"/>
<text text-anchor="middle" x="1477.5" y="-331" font-family="Times,serif" font-size="10.00" fill="#767676">^1.28</text>
</g>
<!-- jawira/plantuml&#45;encoding -->
<g id="node15" class="node">
<title>jawira/plantuml&#45;encoding</title>
<path fill="#eeeeee" stroke="#000000" d="M1380.5,-310C1380.5,-310 1152.5,-310 1152.5,-310 1146.5,-310 1140.5,-304 1140.5,-298 1140.5,-298 1140.5,-286 1140.5,-286 1140.5,-280 1146.5,-274 1152.5,-274 1152.5,-274 1380.5,-274 1380.5,-274 1386.5,-274 1392.5,-280 1392.5,-286 1392.5,-286 1392.5,-298 1392.5,-298 1392.5,-304 1386.5,-310 1380.5,-310"/>
<text text-anchor="middle" x="1266.5" y="-288.3" font-family="Times,serif" font-size="14.00" fill="#314b5f">jawira/plantuml&#45;encoding: v1.0.7</text>
</g>
<!-- bartlett/graph&#45;plantuml&#45;generator&#45;&gt;jawira/plantuml&#45;encoding -->
<g id="edge16" class="edge">
<title>bartlett/graph&#45;plantuml&#45;generator&#45;&gt;jawira/plantuml&#45;encoding</title>
<path fill="none" stroke="#1a2833" d="M1297.8206,-356.9902C1292.5107,-345.9722 1285.6134,-331.6604 1279.6435,-319.2727"/>
<polygon fill="#1a2833" stroke="#1a2833" points="1282.795,-317.7502 1275.3006,-310.2612 1276.4891,-320.7892 1282.795,-317.7502"/>
<text text-anchor="middle" x="1301.5" y="-331" font-family="Times,serif" font-size="10.00" fill="#767676">^1.0</text>
</g>
<!-- bartlett/graph&#45;uml&#45;&gt;php -->
<g id="edge21" class="edge">
<title>bartlett/graph&#45;uml&#45;&gt;php</title>
<path fill="none" stroke="#1a2833" d="M830.7045,-273.9446C856.4167,-268.6468 884.1114,-262.5116 909.5,-256 951.8501,-245.1382 973.6857,-258.9784 1003.5,-227 1031.5097,-196.9572 1001.2013,-170.8272 1024.5,-137 1048.8328,-101.6714 1065.2679,-100.3506 1104.5,-83 1154.2853,-60.9822 1169.8206,-63.0485 1223.5,-54 1347.2162,-33.1458 1495.9002,-23.4021 1564.0517,-19.775"/>
<polygon fill="#1a2833" stroke="#1a2833" points="1564.4766,-23.2578 1574.2819,-19.2446 1564.1141,-16.2672 1564.4766,-23.2578"/>
<text text-anchor="middle" x="1041" y="-152.5" font-family="Times,serif" font-size="10.00" fill="#767676">^7.1.3</text>
</g>
<!-- bartlett/graph&#45;uml&#45;&gt;graphp/graph -->
<g id="edge19" class="edge">
<title>bartlett/graph&#45;uml&#45;&gt;graphp/graph</title>
<path fill="none" stroke="#1a2833" d="M630.0469,-273.9965C579.5051,-262.9399 526.5334,-247.0409 511.5,-227 486.866,-194.1606 522.7581,-152.0808 552.1082,-125.8268"/>
<polygon fill="#1a2833" stroke="#1a2833" points="554.5069,-128.3796 559.772,-119.1855 549.9226,-123.0895 554.5069,-128.3796"/>
<text text-anchor="middle" x="560" y="-206.5" font-family="Times,serif" font-size="10.00" fill="#767676">dev&#45;master as 1.0.0</text>
</g>
<!-- bartlett/graph&#45;uml&#45;&gt;graphp/graphviz -->
<g id="edge20" class="edge">
<title>bartlett/graph&#45;uml&#45;&gt;graphp/graphviz</title>
<path fill="none" stroke="#1a2833" d="M715.1096,-273.5568C708.098,-264.6385 703.2729,-253.9532 709.5,-245 712.9309,-240.0671 721.1934,-235.2538 731.5278,-230.8345"/>
<polygon fill="#1a2833" stroke="#1a2833" points="733.0616,-233.9917 741.0735,-227.0592 730.4872,-227.4823 733.0616,-233.9917"/>
<text text-anchor="middle" x="809.5" y="-248" font-family="Times,serif" font-size="10.00" fill="#767676">dev&#45;subgraph_cluster_attributes as 1.0.0</text>
</g>
<!-- goaop/parser&#45;reflection&#45;&gt;php -->
<g id="edge23" class="edge">
<title>goaop/parser&#45;reflection&#45;&gt;php</title>
<path fill="none" stroke="#1a2833" d="M331.0363,-190.9644C364.255,-156.8901 433.6634,-86.1604 440.5,-83 492.6832,-58.8767 1371.4397,-26.2122 1564.2849,-19.3127"/>
<polygon fill="#1a2833" stroke="#1a2833" points="1564.6078,-22.8035 1574.4766,-18.9493 1564.3582,-15.808 1564.6078,-22.8035"/>
<text text-anchor="middle" x="456.5" y="-98.5" font-family="Times,serif" font-size="10.00" fill="#767676">&gt;=7.1</text>
</g>
<!-- nikic/php&#45;parser -->
<g id="node16" class="node">
<title>nikic/php&#45;parser</title>
<path fill="#eeeeee" stroke="#000000" d="M314.5,-119C314.5,-119 150.5,-119 150.5,-119 144.5,-119 138.5,-113 138.5,-107 138.5,-107 138.5,-95 138.5,-95 138.5,-89 144.5,-83 150.5,-83 150.5,-83 314.5,-83 314.5,-83 320.5,-83 326.5,-89 326.5,-95 326.5,-95 326.5,-107 326.5,-107 326.5,-113 320.5,-119 314.5,-119"/>
<text text-anchor="middle" x="232.5" y="-97.3" font-family="Times,serif" font-size="14.00" fill="#314b5f">nikic/php&#45;parser: v4.4.0</text>
</g>
<!-- goaop/parser&#45;reflection&#45;&gt;nikic/php&#45;parser -->
<g id="edge22" class="edge">
<title>goaop/parser&#45;reflection&#45;&gt;nikic/php&#45;parser</title>
<path fill="none" stroke="#1a2833" d="M299.7595,-190.6793C286.706,-173.2746 266.9395,-146.9193 252.2085,-127.278"/>
<polygon fill="#1a2833" stroke="#1a2833" points="254.8377,-124.9502 246.0376,-119.0502 249.2377,-129.1502 254.8377,-124.9502"/>
<text text-anchor="middle" x="297.5" y="-152.5" font-family="Times,serif" font-size="10.00" fill="#767676">^4.0</text>
</g>
<!-- phpunit/phpunit -->
<g id="node17" class="node">
<title>phpunit/phpunit</title>
<path fill="#eeeeee" stroke="#000000" d="M461.5,-36C461.5,-36 353.5,-36 353.5,-36 347.5,-36 341.5,-30 341.5,-24 341.5,-24 341.5,-12 341.5,-12 341.5,-6 347.5,0 353.5,0 353.5,0 461.5,0 461.5,0 467.5,0 473.5,-6 473.5,-12 473.5,-12 473.5,-24 473.5,-24 473.5,-30 467.5,-36 461.5,-36"/>
<text text-anchor="middle" x="407.5" y="-14.3" font-family="Times,serif" font-size="14.00" fill="#314b5f">phpunit/phpunit</text>
</g>
<!-- goaop/parser&#45;reflection&#45;&gt;phpunit/phpunit -->
<g id="edge24" class="edge">
<title>goaop/parser&#45;reflection&#45;&gt;phpunit/phpunit</title>
<path fill="none" stroke="#1a2833" stroke-dasharray="5,2" d="M319.5827,-190.6073C329.8135,-160.8142 352.0626,-100.6357 379.5,-54 381.4197,-50.7371 383.599,-47.4372 385.874,-44.228"/>
<polygon fill="#1a2833" stroke="#1a2833" points="388.8177,-46.136 392.0069,-36.0326 383.2132,-41.942 388.8177,-46.136"/>
<text text-anchor="middle" x="376.5" y="-98.5" font-family="Times,serif" font-size="10.00" fill="#767676">~4.0</text>
</g>
<!-- graphp/graph&#45;&gt;php -->
<g id="edge25" class="edge">
<title>graphp/graph&#45;&gt;php</title>
<path fill="none" stroke="#1a2833" d="M674.2347,-82.9897C728.8562,-72.8432 799.914,-60.8635 863.5,-54 1131.0269,-25.123 1455.632,-19.3986 1564.1569,-18.2729"/>
<polygon fill="#1a2833" stroke="#1a2833" points="1564.3039,-21.7717 1574.2695,-18.175 1564.2361,-14.772 1564.3039,-21.7717"/>
<text text-anchor="middle" x="893" y="-57" font-family="Times,serif" font-size="10.00" fill="#767676">^7.0 || ^5.3</text>
</g>
<!-- graphp/graph&#45;&gt;phpunit/phpunit -->
<g id="edge26" class="edge">
<title>graphp/graph&#45;&gt;phpunit/phpunit</title>
<path fill="none" stroke="#1a2833" stroke-dasharray="5,2" d="M545.3106,-82.9902C518.8786,-70.5251 483.5069,-53.8442 455.2175,-40.5031"/>
<polygon fill="#1a2833" stroke="#1a2833" points="456.456,-37.2175 445.9183,-36.1177 453.4701,-43.5488 456.456,-37.2175"/>
<text text-anchor="middle" x="561" y="-57" font-family="Times,serif" font-size="10.00" fill="#767676">^6.4 || ^5.7 || ^4.8.35</text>
</g>
<!-- graphp/graphviz&#45;&gt;php -->
<g id="edge28" class="edge">
<title>graphp/graphviz&#45;&gt;php</title>
<path fill="none" stroke="#1a2833" d="M826.6616,-190.9792C869.2994,-153.3212 968.0879,-68.5642 1009.5,-54 1061.5951,-35.6788 1442.0982,-22.7834 1564.0216,-19.0859"/>
<polygon fill="#1a2833" stroke="#1a2833" points="1564.4477,-22.5748 1574.3382,-18.7763 1564.2377,-15.5779 1564.4477,-22.5748"/>
<text text-anchor="middle" x="980" y="-98.5" font-family="Times,serif" font-size="10.00" fill="#767676">&gt;=5.3.0</text>
</g>
<!-- graphp/graphviz&#45;&gt;graphp/graph -->
<g id="edge27" class="edge">
<title>graphp/graphviz&#45;&gt;graphp/graph</title>
<path fill="none" stroke="#1a2833" d="M685.783,-190.9863C662.2166,-185.8943 641.6614,-179.8455 631.5,-173 615.3006,-162.0869 603.1748,-143.6874 595.1633,-128.2206"/>
<polygon fill="#1a2833" stroke="#1a2833" points="598.2297,-126.5231 590.707,-119.0626 591.9353,-129.586 598.2297,-126.5231"/>
<text text-anchor="middle" x="704" y="-152.5" font-family="Times,serif" font-size="10.00" fill="#767676">dev&#45;master#81eef65 as 1.0.0</text>
</g>
<!-- graphp/graphviz&#45;&gt;phpunit/phpunit -->
<g id="edge29" class="edge">
<title>graphp/graphviz&#45;&gt;phpunit/phpunit</title>
<path fill="none" stroke="#1a2833" stroke-dasharray="5,2" d="M805.6355,-190.9919C803.4683,-154.1643 796.4657,-72.1731 776.5,-54 755.3595,-34.7575 585.866,-24.8854 484.0963,-20.6449"/>
<polygon fill="#1a2833" stroke="#1a2833" points="483.9935,-17.1379 473.8593,-20.2278 483.7085,-24.1321 483.9935,-17.1379"/>
<text text-anchor="middle" x="853" y="-98.5" font-family="Times,serif" font-size="10.00" fill="#767676">^6.4 || ^5.7 || ^4.8.35</text>
</g>
<!-- psr/container&#45;&gt;php -->
<g id="edge36" class="edge">
<title>psr/container&#45;&gt;php</title>
<path fill="none" stroke="#1a2833" d="M1207.3824,-82.7147C1216.8572,-72.4374 1230.0407,-60.4176 1244.5,-54 1301.0342,-28.9079 1484.6801,-21.082 1564.213,-18.8338"/>
<polygon fill="#1a2833" stroke="#1a2833" points="1564.3727,-22.3309 1574.2751,-18.5636 1564.1847,-15.3334 1564.3727,-22.3309"/>
<text text-anchor="middle" x="1265" y="-57" font-family="Times,serif" font-size="10.00" fill="#767676">&gt;=5.3.0</text>
</g>
<!-- symfony/config&#45;&gt;php -->
<g id="edge37" class="edge">
<title>symfony/config&#45;&gt;php</title>
<path fill="none" stroke="#1a2833" d="M1916.9209,-475.4052C1861.2276,-469.5267 1795.6014,-460.1533 1770.5,-447 1741.2595,-431.6778 1739.4096,-419.3322 1719.5,-393 1682.3564,-343.8743 1697.8923,-310.7885 1648.5,-274 1580.1184,-223.0678 1517.9368,-291.7833 1462.5,-227 1436.4531,-196.5616 1440.4331,-173.2444 1457.5,-137 1479.632,-89.999 1530.4475,-55.2252 1565.3851,-35.7791"/>
<polygon fill="#1a2833" stroke="#1a2833" points="1567.209,-38.7719 1574.3392,-30.9354 1563.8783,-32.615 1567.209,-38.7719"/>
<text text-anchor="middle" x="1626" y="-248" font-family="Times,serif" font-size="10.00" fill="#767676">^7.2.5</text>
</g>
<!-- symfony/config&#45;&gt;symfony/finder -->
<g id="edge41" class="edge">
<title>symfony/config&#45;&gt;symfony/finder</title>
<path fill="none" stroke="#1a2833" stroke-dasharray="5,2" d="M2096.2392,-481.2831C2302.9133,-477.0297 2797.2341,-465.0273 2828.5,-447 2844.9484,-437.5162 2837.0763,-423.3471 2851.5,-411 2857.1841,-406.1342 2863.629,-401.8257 2870.3477,-398.0368"/>
<polygon fill="#1a2833" stroke="#1a2833" points="2872.389,-400.9194 2879.6337,-393.1886 2869.1492,-394.7142 2872.389,-400.9194"/>
<text text-anchor="middle" x="2876.5" y="-426.5" font-family="Times,serif" font-size="10.00" fill="#767676">^4.4|^5.0</text>
</g>
<!-- symfony/config&#45;&gt;symfony/yaml -->
<g id="edge44" class="edge">
<title>symfony/config&#45;&gt;symfony/yaml</title>
<path fill="none" stroke="#1a2833" stroke-dasharray="5,2" d="M1933.7616,-464.9858C1921.7167,-460.2307 1909.8097,-454.316 1899.5,-447 1882.7666,-435.1257 1868.6263,-416.827 1858.7408,-401.649"/>
<polygon fill="#1a2833" stroke="#1a2833" points="1861.6933,-399.7692 1853.4245,-393.1452 1855.7577,-403.4799 1861.6933,-399.7692"/>
<text text-anchor="middle" x="1924.5" y="-426.5" font-family="Times,serif" font-size="10.00" fill="#767676">^4.4|^5.0</text>
</g>
<!-- symfony/filesystem -->
<g id="node21" class="node">
<title>symfony/filesystem</title>
<path fill="#eeeeee" stroke="#000000" d="M2287.5,-393C2287.5,-393 2103.5,-393 2103.5,-393 2097.5,-393 2091.5,-387 2091.5,-381 2091.5,-381 2091.5,-369 2091.5,-369 2091.5,-363 2097.5,-357 2103.5,-357 2103.5,-357 2287.5,-357 2287.5,-357 2293.5,-357 2299.5,-363 2299.5,-369 2299.5,-369 2299.5,-381 2299.5,-381 2299.5,-387 2293.5,-393 2287.5,-393"/>
<text text-anchor="middle" x="2195.5" y="-371.3" font-family="Times,serif" font-size="14.00" fill="#314b5f">symfony/filesystem: v5.0.8</text>
</g>
<!-- symfony/config&#45;&gt;symfony/filesystem -->
<g id="edge38" class="edge">
<title>symfony/config&#45;&gt;symfony/filesystem</title>
<path fill="none" stroke="#1a2833" d="M2038.1344,-464.9232C2070.1607,-446.6224 2119.8173,-418.2472 2154.7681,-398.2754"/>
<polygon fill="#1a2833" stroke="#1a2833" points="2156.8165,-401.136 2163.7624,-393.1357 2153.3435,-395.0583 2156.8165,-401.136"/>
<text text-anchor="middle" x="2154.5" y="-426.5" font-family="Times,serif" font-size="10.00" fill="#767676">^4.4|^5.0</text>
</g>
<!-- symfony/polyfill&#45;ctype -->
<g id="node22" class="node">
<title>symfony/polyfill&#45;ctype</title>
<path fill="#eeeeee" stroke="#000000" d="M2300.5,-310C2300.5,-310 2088.5,-310 2088.5,-310 2082.5,-310 2076.5,-304 2076.5,-298 2076.5,-298 2076.5,-286 2076.5,-286 2076.5,-280 2082.5,-274 2088.5,-274 2088.5,-274 2300.5,-274 2300.5,-274 2306.5,-274 2312.5,-280 2312.5,-286 2312.5,-286 2312.5,-298 2312.5,-298 2312.5,-304 2306.5,-310 2300.5,-310"/>
<text text-anchor="middle" x="2194.5" y="-288.3" font-family="Times,serif" font-size="14.00" fill="#314b5f">symfony/polyfill&#45;ctype: v1.17.0</text>
</g>
<!-- symfony/config&#45;&gt;symfony/polyfill&#45;ctype -->
<g id="edge39" class="edge">
<title>symfony/config&#45;&gt;symfony/polyfill&#45;ctype</title>
<path fill="none" stroke="#1a2833" d="M2009.6908,-464.9009C2015.2485,-438.2096 2029.048,-388.1006 2058.5,-357 2076.371,-338.1287 2100.8449,-324.1167 2124.1087,-314.034"/>
<polygon fill="#1a2833" stroke="#1a2833" points="2125.7359,-317.1484 2133.6351,-310.0878 2123.0569,-310.6813 2125.7359,-317.1484"/>
<text text-anchor="middle" x="2070.5" y="-372.5" font-family="Times,serif" font-size="10.00" fill="#767676">~1.8</text>
</g>
<!-- symfony/event&#45;dispatcher -->
<g id="node23" class="node">
<title>symfony/event&#45;dispatcher</title>
<path fill="#eeeeee" stroke="#000000" d="M3032.5,-227C3032.5,-227 2854.5,-227 2854.5,-227 2848.5,-227 2842.5,-221 2842.5,-215 2842.5,-215 2842.5,-203 2842.5,-203 2842.5,-197 2848.5,-191 2854.5,-191 2854.5,-191 3032.5,-191 3032.5,-191 3038.5,-191 3044.5,-197 3044.5,-203 3044.5,-203 3044.5,-215 3044.5,-215 3044.5,-221 3038.5,-227 3032.5,-227"/>
<text text-anchor="middle" x="2943.5" y="-205.3" font-family="Times,serif" font-size="14.00" fill="#314b5f">symfony/event&#45;dispatcher</text>
</g>
<!-- symfony/config&#45;&gt;symfony/event&#45;dispatcher -->
<g id="edge40" class="edge">
<title>symfony/config&#45;&gt;symfony/event&#45;dispatcher</title>
<path fill="none" stroke="#1a2833" stroke-dasharray="5,2" d="M2096.1336,-476.8233C2165.5974,-471.2582 2264.0802,-461.6681 2349.5,-447 2552.2124,-412.1907 2617.5355,-434.8797 2799.5,-339 2849.6151,-312.5936 2896.0349,-264.7729 2921.9839,-235.0733"/>
<polygon fill="#1a2833" stroke="#1a2833" points="2924.8795,-237.0739 2928.746,-227.2098 2919.5721,-232.5098 2924.8795,-237.0739"/>
<text text-anchor="middle" x="2842.5" y="-331" font-family="Times,serif" font-size="10.00" fill="#767676">^4.4|^5.0</text>
</g>
<!-- symfony/messenger -->
<g id="node24" class="node">
<title>symfony/messenger</title>
<path fill="#eeeeee" stroke="#000000" d="M2465,-393C2465,-393 2330,-393 2330,-393 2324,-393 2318,-387 2318,-381 2318,-381 2318,-369 2318,-369 2318,-363 2324,-357 2330,-357 2330,-357 2465,-357 2465,-357 2471,-357 2477,-363 2477,-369 2477,-369 2477,-381 2477,-381 2477,-387 2471,-393 2465,-393"/>
<text text-anchor="middle" x="2397.5" y="-371.3" font-family="Times,serif" font-size="14.00" fill="#314b5f">symfony/messenger</text>
</g>
<!-- symfony/config&#45;&gt;symfony/messenger -->
<g id="edge42" class="edge">
<title>symfony/config&#45;&gt;symfony/messenger</title>
<path fill="none" stroke="#1a2833" stroke-dasharray="5,2" d="M2096.1409,-467.0088C2124.2763,-461.3917 2155.3365,-454.5706 2183.5,-447 2237.2332,-432.556 2297.1705,-411.9942 2339.9127,-396.5395"/>
<polygon fill="#1a2833" stroke="#1a2833" points="2341.3744,-399.7323 2349.5768,-393.0262 2338.9827,-393.1535 2341.3744,-399.7323"/>
<text text-anchor="middle" x="2320.5" y="-426.5" font-family="Times,serif" font-size="10.00" fill="#767676">^4.4|^5.0</text>
</g>
<!-- symfony/service&#45;contracts -->
<g id="node25" class="node">
<title>symfony/service&#45;contracts</title>
<path fill="#eeeeee" stroke="#000000" d="M1719,-227C1719,-227 1484,-227 1484,-227 1478,-227 1472,-221 1472,-215 1472,-215 1472,-203 1472,-203 1472,-197 1478,-191 1484,-191 1484,-191 1719,-191 1719,-191 1725,-191 1731,-197 1731,-203 1731,-203 1731,-215 1731,-215 1731,-221 1725,-227 1719,-227"/>
<text text-anchor="middle" x="1601.5" y="-205.3" font-family="Times,serif" font-size="14.00" fill="#314b5f">symfony/service&#45;contracts: v2.0.1</text>
</g>
<!-- symfony/config&#45;&gt;symfony/service&#45;contracts -->
<g id="edge43" class="edge">
<title>symfony/config&#45;&gt;symfony/service&#45;contracts</title>
<path fill="none" stroke="#1a2833" stroke-dasharray="5,2" d="M1916.7167,-470.2438C1862.4897,-458.39 1795.2512,-435.7843 1749.5,-393 1705.1684,-351.5432 1721.7713,-320.2787 1682.5,-274 1669.5069,-258.6884 1652.4879,-244.3968 1637.4054,-233.1357"/>
<polygon fill="#1a2833" stroke="#1a2833" points="1639.4068,-230.2635 1629.2633,-227.2041 1635.285,-235.9213 1639.4068,-230.2635"/>
<text text-anchor="middle" x="1736" y="-331" font-family="Times,serif" font-size="10.00" fill="#767676">^1.1|^2</text>
</g>
<!-- symfony/console&#45;&gt;php -->
<g id="edge45" class="edge">
<title>symfony/console&#45;&gt;php</title>
<path fill="none" stroke="#1a2833" d="M1900.3103,-273.896C1888.8172,-269.0841 1877.3603,-263.1725 1867.5,-256 1829.3868,-228.2761 1820.6813,-216.0501 1801.5,-173 1779.673,-124.0119 1818.8325,-92.5037 1781.5,-54 1762.1648,-34.0582 1685.703,-24.5824 1638.8771,-20.5657"/>
<polygon fill="#1a2833" stroke="#1a2833" points="1639.0497,-17.0683 1628.7989,-19.7459 1638.4821,-24.0452 1639.0497,-17.0683"/>
<text text-anchor="middle" x="1818" y="-152.5" font-family="Times,serif" font-size="10.00" fill="#767676">^7.2.5</text>
</g>
<!-- symfony/console&#45;&gt;symfony/config -->
<g id="edge50" class="edge">
<title>symfony/console&#45;&gt;symfony/config</title>
<path fill="none" stroke="#1a2833" stroke-dasharray="5,2" d="M1965.0463,-310.0504C1967.0091,-330.39 1970.9516,-364.353 1977.5,-393 1982.3622,-414.2707 1989.9929,-437.7148 1996.2066,-455.3417"/>
<polygon fill="#1a2833" stroke="#1a2833" points="1992.9965,-456.7585 1999.6698,-464.9876 1999.5847,-454.3931 1992.9965,-456.7585"/>
<text text-anchor="middle" x="2002.5" y="-372.5" font-family="Times,serif" font-size="10.00" fill="#767676">^4.4|^5.0</text>
</g>
<!-- symfony/console&#45;&gt;symfony/event&#45;dispatcher -->
<g id="edge52" class="edge">
<title>symfony/console&#45;&gt;symfony/event&#45;dispatcher</title>
<path fill="none" stroke="#1a2833" stroke-dasharray="5,2" d="M2057.5261,-275.1657C2060.8879,-274.7425 2064.2205,-274.3514 2067.5,-274 2256.365,-253.7609 2304.9471,-268.2183 2494.5,-256 2643.1944,-246.4154 2680.5853,-244.9759 2828.5,-227 2829.7695,-226.8457 2831.0464,-226.6881 2832.3298,-226.5273"/>
<polygon fill="#1a2833" stroke="#1a2833" points="2832.8072,-229.9948 2842.2742,-225.2382 2831.9073,-223.0529 2832.8072,-229.9948"/>
<text text-anchor="middle" x="2681.5" y="-248" font-family="Times,serif" font-size="10.00" fill="#767676">^4.4|^5.0</text>
</g>
<!-- symfony/console&#45;&gt;symfony/service&#45;contracts -->
<g id="edge48" class="edge">
<title>symfony/console&#45;&gt;symfony/service&#45;contracts</title>
<path fill="none" stroke="#1a2833" d="M1869.4021,-274.2014C1841.6669,-268.6799 1811.3033,-262.3652 1783.5,-256 1763.5163,-251.425 1719.3099,-240.0199 1679.4704,-229.5908"/>
<polygon fill="#1a2833" stroke="#1a2833" points="1680.2816,-226.1852 1669.7209,-227.0354 1678.5067,-232.9565 1680.2816,-226.1852"/>
<text text-anchor="middle" x="1804" y="-248" font-family="Times,serif" font-size="10.00" fill="#767676">^1.1|^2</text>
</g>
<!-- symfony/polyfill&#45;mbstring -->
<g id="node26" class="node">
<title>symfony/polyfill&#45;mbstring</title>
<path fill="#eeeeee" stroke="#000000" d="M2093.5,-173C2093.5,-173 1855.5,-173 1855.5,-173 1849.5,-173 1843.5,-167 1843.5,-161 1843.5,-161 1843.5,-149 1843.5,-149 1843.5,-143 1849.5,-137 1855.5,-137 1855.5,-137 2093.5,-137 2093.5,-137 2099.5,-137 2105.5,-143 2105.5,-149 2105.5,-149 2105.5,-161 2105.5,-161 2105.5,-167 2099.5,-173 2093.5,-173"/>
<text text-anchor="middle" x="1974.5" y="-151.3" font-family="Times,serif" font-size="14.00" fill="#314b5f">symfony/polyfill&#45;mbstring: v1.17.0</text>
</g>
<!-- symfony/console&#45;&gt;symfony/polyfill&#45;mbstring -->
<g id="edge46" class="edge">
<title>symfony/console&#45;&gt;symfony/polyfill&#45;mbstring</title>
<path fill="none" stroke="#1a2833" d="M1891.7007,-273.7715C1884.1706,-269.1299 1877.4669,-263.3064 1872.5,-256 1869.7515,-251.9569 1871.7169,-249.8258 1872.5,-245 1876.5523,-220.0284 1873.3703,-209.6165 1890.5,-191 1894.8711,-186.2495 1899.9747,-182.0996 1905.4674,-178.4795"/>
<polygon fill="#1a2833" stroke="#1a2833" points="1907.5428,-181.3185 1914.3699,-173.2166 1903.9805,-175.2927 1907.5428,-181.3185"/>
<text text-anchor="middle" x="1884.5" y="-248" font-family="Times,serif" font-size="10.00" fill="#767676">~1.0</text>
</g>
<!-- symfony/polyfill&#45;php73 -->
<g id="node27" class="node">
<title>symfony/polyfill&#45;php73</title>
<path fill="#eeeeee" stroke="#000000" d="M2340.5,-173C2340.5,-173 2122.5,-173 2122.5,-173 2116.5,-173 2110.5,-167 2110.5,-161 2110.5,-161 2110.5,-149 2110.5,-149 2110.5,-143 2116.5,-137 2122.5,-137 2122.5,-137 2340.5,-137 2340.5,-137 2346.5,-137 2352.5,-143 2352.5,-149 2352.5,-149 2352.5,-161 2352.5,-161 2352.5,-167 2346.5,-173 2340.5,-173"/>
<text text-anchor="middle" x="2231.5" y="-151.3" font-family="Times,serif" font-size="14.00" fill="#314b5f">symfony/polyfill&#45;php73: v1.17.0</text>
</g>
<!-- symfony/console&#45;&gt;symfony/polyfill&#45;php73 -->
<g id="edge47" class="edge">
<title>symfony/console&#45;&gt;symfony/polyfill&#45;php73</title>
<path fill="none" stroke="#1a2833" d="M1946.0355,-273.8927C1926.964,-251.9318 1901.8405,-214.8945 1923.5,-191 1935.9087,-177.3109 2058.9372,-175.6692 2100.2842,-173.3074"/>
<polygon fill="#1a2833" stroke="#1a2833" points="2100.7405,-176.7826 2110.4392,-172.5183 2100.198,-169.8037 2100.7405,-176.7826"/>
<text text-anchor="middle" x="1943.5" y="-248" font-family="Times,serif" font-size="10.00" fill="#767676">^1.8</text>
</g>
<!-- psr/log -->
<g id="node28" class="node">
<title>psr/log</title>
<path fill="#eeeeee" stroke="#000000" d="M1986.5,-227C1986.5,-227 1944.5,-227 1944.5,-227 1938.5,-227 1932.5,-221 1932.5,-215 1932.5,-215 1932.5,-203 1932.5,-203 1932.5,-197 1938.5,-191 1944.5,-191 1944.5,-191 1986.5,-191 1986.5,-191 1992.5,-191 1998.5,-197 1998.5,-203 1998.5,-203 1998.5,-215 1998.5,-215 1998.5,-221 1992.5,-227 1986.5,-227"/>
<text text-anchor="middle" x="1965.5" y="-205.3" font-family="Times,serif" font-size="14.00" fill="#314b5f">psr/log</text>
</g>
<!-- symfony/console&#45;&gt;psr/log -->
<g id="edge49" class="edge">
<title>symfony/console&#45;&gt;psr/log</title>
<path fill="none" stroke="#1a2833" stroke-dasharray="5,2" d="M1963.934,-273.9902C1964.1917,-263.2963 1964.5241,-249.4994 1964.8164,-237.3706"/>
<polygon fill="#1a2833" stroke="#1a2833" points="1968.318,-237.3427 1965.06,-227.2612 1961.32,-237.174 1968.318,-237.3427"/>
<text text-anchor="middle" x="1977.5" y="-248" font-family="Times,serif" font-size="10.00" fill="#767676">~1.0</text>
</g>
<!-- symfony/dependency&#45;injection -->
<g id="node29" class="node">
<title>symfony/dependency&#45;injection</title>
<path fill="#eeeeee" stroke="#000000" d="M2238.5,-227C2238.5,-227 2028.5,-227 2028.5,-227 2022.5,-227 2016.5,-221 2016.5,-215 2016.5,-215 2016.5,-203 2016.5,-203 2016.5,-197 2022.5,-191 2028.5,-191 2028.5,-191 2238.5,-191 2238.5,-191 2244.5,-191 2250.5,-197 2250.5,-203 2250.5,-203 2250.5,-215 2250.5,-215 2250.5,-221 2244.5,-227 2238.5,-227"/>
<text text-anchor="middle" x="2133.5" y="-205.3" font-family="Times,serif" font-size="14.00" fill="#314b5f">symfony/dependency&#45;injection</text>
</g>
<!-- symfony/console&#45;&gt;symfony/dependency&#45;injection -->
<g id="edge51" class="edge">
<title>symfony/console&#45;&gt;symfony/dependency&#45;injection</title>
<path fill="none" stroke="#1a2833" stroke-dasharray="5,2" d="M2000.3875,-273.9902C2025.8074,-261.5793 2059.7873,-244.9891 2087.0524,-231.6773"/>
<polygon fill="#1a2833" stroke="#1a2833" points="2088.9408,-234.6503 2096.3914,-227.1177 2085.8696,-228.36 2088.9408,-234.6503"/>
<text text-anchor="middle" x="2084.5" y="-248" font-family="Times,serif" font-size="10.00" fill="#767676">^4.4|^5.0</text>
</g>
<!-- symfony/lock -->
<g id="node30" class="node">
<title>symfony/lock</title>
<path fill="#eeeeee" stroke="#000000" d="M2368,-227C2368,-227 2281,-227 2281,-227 2275,-227 2269,-221 2269,-215 2269,-215 2269,-203 2269,-203 2269,-197 2275,-191 2281,-191 2281,-191 2368,-191 2368,-191 2374,-191 2380,-197 2380,-203 2380,-203 2380,-215 2380,-215 2380,-221 2374,-227 2368,-227"/>
<text text-anchor="middle" x="2324.5" y="-205.3" font-family="Times,serif" font-size="14.00" fill="#314b5f">symfony/lock</text>
</g>
<!-- symfony/console&#45;&gt;symfony/lock -->
<g id="edge53" class="edge">
<title>symfony/console&#45;&gt;symfony/lock</title>
<path fill="none" stroke="#1a2833" stroke-dasharray="5,2" d="M2051.5385,-273.9676C2108.1403,-262.0684 2183.4472,-245.6706 2259.1665,-227.0195"/>
<polygon fill="#1a2833" stroke="#1a2833" points="2260.0169,-230.4148 2268.8828,-224.6142 2258.3347,-223.6199 2260.0169,-230.4148"/>
<text text-anchor="middle" x="2204.5" y="-248" font-family="Times,serif" font-size="10.00" fill="#767676">^4.4|^5.0</text>
</g>
<!-- symfony/process -->
<g id="node31" class="node">
<title>symfony/process</title>
<path fill="#eeeeee" stroke="#000000" d="M2523,-227C2523,-227 2410,-227 2410,-227 2404,-227 2398,-221 2398,-215 2398,-215 2398,-203 2398,-203 2398,-197 2404,-191 2410,-191 2410,-191 2523,-191 2523,-191 2529,-191 2535,-197 2535,-203 2535,-203 2535,-215 2535,-215 2535,-221 2529,-227 2523,-227"/>
<text text-anchor="middle" x="2466.5" y="-205.3" font-family="Times,serif" font-size="14.00" fill="#314b5f">symfony/process</text>
</g>
<!-- symfony/console&#45;&gt;symfony/process -->
<g id="edge54" class="edge">
<title>symfony/console&#45;&gt;symfony/process</title>
<path fill="none" stroke="#1a2833" stroke-dasharray="5,2" d="M2057.5607,-275.4453C2060.9128,-274.9429 2064.2338,-274.4593 2067.5,-274 2140.9873,-263.6669 2160.0845,-266.8319 2233.5,-256 2299.7191,-246.2299 2318.2574,-241.738 2387.512,-227.18"/>
<polygon fill="#1a2833" stroke="#1a2833" points="2388.5625,-230.5359 2397.6309,-225.0574 2387.1254,-223.685 2388.5625,-230.5359"/>
<text text-anchor="middle" x="2326.5" y="-248" font-family="Times,serif" font-size="10.00" fill="#767676">^4.4|^5.0</text>
</g>
<!-- symfony/var&#45;dumper -->
<g id="node32" class="node">
<title>symfony/var&#45;dumper</title>
<path fill="#eeeeee" stroke="#000000" d="M2705.5,-227C2705.5,-227 2565.5,-227 2565.5,-227 2559.5,-227 2553.5,-221 2553.5,-215 2553.5,-215 2553.5,-203 2553.5,-203 2553.5,-197 2559.5,-191 2565.5,-191 2565.5,-191 2705.5,-191 2705.5,-191 2711.5,-191 2717.5,-197 2717.5,-203 2717.5,-203 2717.5,-215 2717.5,-215 2717.5,-221 2711.5,-227 2705.5,-227"/>
<text text-anchor="middle" x="2635.5" y="-205.3" font-family="Times,serif" font-size="14.00" fill="#314b5f">symfony/var&#45;dumper</text>
</g>
<!-- symfony/console&#45;&gt;symfony/var&#45;dumper -->
<g id="edge55" class="edge">
<title>symfony/console&#45;&gt;symfony/var&#45;dumper</title>
<path fill="none" stroke="#1a2833" stroke-dasharray="5,2" d="M2057.5358,-275.2519C2060.8949,-274.8043 2064.2242,-274.3847 2067.5,-274 2194.8745,-259.0419 2227.9938,-269.7901 2355.5,-256 2436.4345,-247.2467 2458.599,-241.966 2543.2045,-227.0288"/>
<polygon fill="#1a2833" stroke="#1a2833" points="2544.0292,-230.4375 2553.2716,-225.258 2542.8165,-223.5434 2544.0292,-230.4375"/>
<text text-anchor="middle" x="2465.5" y="-248" font-family="Times,serif" font-size="10.00" fill="#767676">^4.4|^5.0</text>
</g>
<!-- symfony/finder&#45;&gt;php -->
<g id="edge58" class="edge">
<title>symfony/finder&#45;&gt;php</title>
<path fill="none" stroke="#1a2833" d="M3020.7095,-356.9172C3052.3633,-344.8147 3080.5,-324.8248 3080.5,-292 3080.5,-292 3080.5,-292 3080.5,-101 3080.5,-26.5166 1868.9815,-18.869 1638.9564,-18.0882"/>
<polygon fill="#1a2833" stroke="#1a2833" points="1638.7645,-14.5877 1628.7534,-18.056 1638.7423,-21.5877 1638.7645,-14.5877"/>
<text text-anchor="middle" x="3097" y="-206.5" font-family="Times,serif" font-size="10.00" fill="#767676">^7.2.5</text>
</g>
<!-- symfony/options&#45;resolver&#45;&gt;php -->
<g id="edge59" class="edge">
<title>symfony/options&#45;resolver&#45;&gt;php</title>
<path fill="none" stroke="#1a2833" d="M3087.0349,-410.9848C3111.5793,-394.3629 3141.5,-367.1907 3141.5,-333.5 3141.5,-333.5 3141.5,-333.5 3141.5,-101 3141.5,-68.0367 3135.7805,-74.7897 2924.5,-54 2664.9972,-28.4652 1825.6927,-19.9106 1638.6713,-18.2988"/>
<polygon fill="#1a2833" stroke="#1a2833" points="1638.5554,-14.7977 1628.5261,-18.2127 1638.496,-21.7975 1638.5554,-14.7977"/>
<text text-anchor="middle" x="3158" y="-248" font-family="Times,serif" font-size="10.00" fill="#767676">^7.2.5</text>
</g>
<!-- symfony/yaml&#45;&gt;php -->
<g id="edge65" class="edge">
<title>symfony/yaml&#45;&gt;php</title>
<path fill="none" stroke="#1a2833" d="M1829.3092,-356.8892C1812.0672,-334.2633 1782.8847,-293.8995 1763.5,-256 1749.4768,-228.5829 1754.6279,-217.8233 1739.5,-191 1707.3118,-133.9272 1656.7638,-76.1171 1626.6044,-43.8821"/>
<polygon fill="#1a2833" stroke="#1a2833" points="1628.8105,-41.1206 1619.3996,-36.2538 1623.7215,-45.9271 1628.8105,-41.1206"/>
<text text-anchor="middle" x="1770" y="-206.5" font-family="Times,serif" font-size="10.00" fill="#767676">^7.2.5</text>
</g>
<!-- symfony/yaml&#45;&gt;symfony/console -->
<g id="edge67" class="edge">
<title>symfony/yaml&#45;&gt;symfony/console</title>
<path fill="none" stroke="#1a2833" stroke-dasharray="5,2" d="M1840.9718,-356.6751C1840.6744,-347.1419 1842.0491,-335.8689 1848.5,-328 1852.8334,-322.7141 1862.4471,-317.7811 1874.3632,-313.3653"/>
<polygon fill="#1a2833" stroke="#1a2833" points="1875.5581,-316.6557 1883.875,-310.0921 1873.2803,-310.0366 1875.5581,-316.6557"/>
<text text-anchor="middle" x="1873.5" y="-331" font-family="Times,serif" font-size="10.00" fill="#767676">^4.4|^5.0</text>
</g>
<!-- symfony/yaml&#45;&gt;symfony/polyfill&#45;ctype -->
<g id="edge66" class="edge">
<title>symfony/yaml&#45;&gt;symfony/polyfill&#45;ctype</title>
<path fill="none" stroke="#1a2833" d="M1903.4638,-356.9903C1935.3868,-347.7159 1975.4059,-336.5851 2011.5,-328 2035.3103,-322.3366 2061.0136,-316.8792 2085.4164,-311.9998"/>
<polygon fill="#1a2833" stroke="#1a2833" points="2086.2919,-315.3945 2095.4205,-310.0169 2084.9308,-308.528 2086.2919,-315.3945"/>
<text text-anchor="middle" x="2023.5" y="-331" font-family="Times,serif" font-size="10.00" fill="#767676">~1.8</text>
</g>
<!-- jawira/plantuml&#45;encoding&#45;&gt;php -->
<g id="edge31" class="edge">
<title>jawira/plantuml&#45;encoding&#45;&gt;php</title>
<path fill="none" stroke="#1a2833" d="M1270.238,-273.8837C1278.4342,-234.3162 1297.497,-143.1982 1300.5,-137 1321.2926,-94.0833 1327.088,-77.6479 1368.5,-54 1401.2088,-35.322 1507.3142,-24.8934 1564.3771,-20.5067"/>
<polygon fill="#1a2833" stroke="#1a2833" points="1564.7204,-23.9909 1574.4325,-19.7572 1564.2,-17.0102 1564.7204,-23.9909"/>
<text text-anchor="middle" x="1334.5" y="-152.5" font-family="Times,serif" font-size="10.00" fill="#767676">^5.3.2 || ^7.0</text>
</g>
<!-- ext&#45;zlib -->
<g id="node18" class="node">
<title>ext&#45;zlib</title>
<path fill="#eeeeee" stroke="#000000" d="M1259,-227C1259,-227 1214,-227 1214,-227 1208,-227 1202,-221 1202,-215 1202,-215 1202,-203 1202,-203 1202,-197 1208,-191 1214,-191 1214,-191 1259,-191 1259,-191 1265,-191 1271,-197 1271,-203 1271,-203 1271,-215 1271,-215 1271,-221 1265,-227 1259,-227"/>
<text text-anchor="middle" x="1236.5" y="-205.3" font-family="Times,serif" font-size="14.00" fill="#314b5f">ext&#45;zlib</text>
</g>
<!-- jawira/plantuml&#45;encoding&#45;&gt;ext&#45;zlib -->
<g id="edge30" class="edge">
<title>jawira/plantuml&#45;encoding&#45;&gt;ext&#45;zlib</title>
<path fill="none" stroke="#1a2833" d="M1259.9904,-273.9902C1256.0861,-263.1883 1251.0375,-249.2204 1246.6218,-237.0036"/>
<polygon fill="#1a2833" stroke="#1a2833" points="1249.7913,-235.476 1243.1004,-227.2612 1243.2082,-237.8555 1249.7913,-235.476"/>
<text text-anchor="middle" x="1256.5" y="-248" font-family="Times,serif" font-size="10.00" fill="#767676">*</text>
</g>
<!-- nikic/php&#45;parser&#45;&gt;php -->
<g id="edge33" class="edge">
<title>nikic/php&#45;parser&#45;&gt;php</title>
<path fill="none" stroke="#1a2833" d="M300.3692,-82.9692C342.8822,-72.5077 398.9976,-60.2058 449.5,-54 672.7242,-26.5701 1392.1819,-19.5544 1564.2694,-18.2516"/>
<polygon fill="#1a2833" stroke="#1a2833" points="1564.3752,-21.751 1574.349,-18.1772 1564.3234,-14.7512 1564.3752,-21.751"/>
<text text-anchor="middle" x="465.5" y="-57" font-family="Times,serif" font-size="10.00" fill="#767676">&gt;=7.0</text>
</g>
<!-- nikic/php&#45;parser&#45;&gt;phpunit/phpunit -->
<g id="edge35" class="edge">
<title>nikic/php&#45;parser&#45;&gt;phpunit/phpunit</title>
<path fill="none" stroke="#1a2833" stroke-dasharray="5,2" d="M236.7859,-82.9522C240.0479,-73.0196 245.5479,-61.2696 254.5,-54 266.7862,-44.0229 299.3524,-35.696 331.2971,-29.5722"/>
<polygon fill="#1a2833" stroke="#1a2833" points="331.973,-33.0067 341.1679,-27.7431 330.6976,-26.1238 331.973,-33.0067"/>
<text text-anchor="middle" x="301.5" y="-57" font-family="Times,serif" font-size="10.00" fill="#767676">^6.5 || ^7.0 || ^8.0</text>
</g>
<!-- ext&#45;tokenizer -->
<g id="node19" class="node">
<title>ext&#45;tokenizer</title>
<path fill="#eeeeee" stroke="#000000" d="M99,-36C99,-36 12,-36 12,-36 6,-36 0,-30 0,-24 0,-24 0,-12 0,-12 0,-6 6,0 12,0 12,0 99,0 99,0 105,0 111,-6 111,-12 111,-12 111,-24 111,-24 111,-30 105,-36 99,-36"/>
<text text-anchor="middle" x="55.5" y="-14.3" font-family="Times,serif" font-size="14.00" fill="#314b5f">ext&#45;tokenizer</text>
</g>
<!-- nikic/php&#45;parser&#45;&gt;ext&#45;tokenizer -->
<g id="edge32" class="edge">
<title>nikic/php&#45;parser&#45;&gt;ext&#45;tokenizer</title>
<path fill="none" stroke="#1a2833" d="M194.0936,-82.9902C167.5114,-70.5251 131.9388,-53.8442 103.4886,-40.5031"/>
<polygon fill="#1a2833" stroke="#1a2833" points="104.6766,-37.1946 94.1366,-36.1177 101.7046,-43.5323 104.6766,-37.1946"/>
<text text-anchor="middle" x="158.5" y="-57" font-family="Times,serif" font-size="10.00" fill="#767676">*</text>
</g>
<!-- ircmaxell/php&#45;yacc -->
<g id="node20" class="node">
<title>ircmaxell/php&#45;yacc</title>
<path fill="#eeeeee" stroke="#000000" d="M269.5,-36C269.5,-36 141.5,-36 141.5,-36 135.5,-36 129.5,-30 129.5,-24 129.5,-24 129.5,-12 129.5,-12 129.5,-6 135.5,0 141.5,0 141.5,0 269.5,0 269.5,0 275.5,0 281.5,-6 281.5,-12 281.5,-12 281.5,-24 281.5,-24 281.5,-30 275.5,-36 269.5,-36"/>
<text text-anchor="middle" x="205.5" y="-14.3" font-family="Times,serif" font-size="14.00" fill="#314b5f">ircmaxell/php&#45;yacc</text>
</g>
<!-- nikic/php&#45;parser&#45;&gt;ircmaxell/php&#45;yacc -->
<g id="edge34" class="edge">
<title>nikic/php&#45;parser&#45;&gt;ircmaxell/php&#45;yacc</title>
<path fill="none" stroke="#1a2833" stroke-dasharray="5,2" d="M216.1185,-82.7753C212.2324,-77.4121 208.6069,-71.2866 206.5,-65 204.5395,-59.1502 203.6496,-52.6569 203.369,-46.4103"/>
<polygon fill="#1a2833" stroke="#1a2833" points="206.8691,-46.2953 203.3906,-36.2878 199.8692,-46.2803 206.8691,-46.2953"/>
<text text-anchor="middle" x="219" y="-57" font-family="Times,serif" font-size="10.00" fill="#767676">0.0.5</text>
</g>
<!-- symfony/filesystem&#45;&gt;php -->
<g id="edge56" class="edge">
<title>symfony/filesystem&#45;&gt;php</title>
<path fill="none" stroke="#1a2833" d="M2299.6108,-356.9974C2428.4293,-333.6825 2639.4558,-291.7883 2710.5,-256 2759.4122,-231.3606 2778.9416,-177.8841 2742.5,-137 2667.2639,-52.592 1827.6501,-24.2951 1638.985,-18.9806"/>
<polygon fill="#1a2833" stroke="#1a2833" points="1638.837,-15.4753 1628.7438,-18.6969 1638.643,-22.4726 1638.837,-15.4753"/>
<text text-anchor="middle" x="2778" y="-206.5" font-family="Times,serif" font-size="10.00" fill="#767676">^7.2.5</text>
</g>
<!-- symfony/filesystem&#45;&gt;symfony/polyfill&#45;ctype -->
<g id="edge57" class="edge">
<title>symfony/filesystem&#45;&gt;symfony/polyfill&#45;ctype</title>
<path fill="none" stroke="#1a2833" d="M2195.283,-356.9902C2195.1542,-346.2963 2194.9879,-332.4994 2194.8418,-320.3706"/>
<polygon fill="#1a2833" stroke="#1a2833" points="2198.3403,-320.2183 2194.72,-310.2612 2191.3408,-320.3027 2198.3403,-320.2183"/>
<text text-anchor="middle" x="2207.5" y="-331" font-family="Times,serif" font-size="10.00" fill="#767676">~1.8</text>
</g>
<!-- symfony/polyfill&#45;ctype&#45;&gt;php -->
<g id="edge60" class="edge">
<title>symfony/polyfill&#45;ctype&#45;&gt;php</title>
<path fill="none" stroke="#1a2833" d="M2312.8032,-285.7423C2461.1885,-276.6595 2699.5783,-257.4965 2726.5,-227 2737.0888,-215.0051 2736.7084,-203.3202 2726.5,-191 2654.9599,-104.6602 1825.9625,-35.4302 1638.8616,-20.8388"/>
<polygon fill="#1a2833" stroke="#1a2833" points="1638.9418,-17.3346 1628.7012,-20.0511 1638.4007,-24.3137 1638.9418,-17.3346"/>
<text text-anchor="middle" x="2718" y="-152.5" font-family="Times,serif" font-size="10.00" fill="#767676">&gt;=5.3.3</text>
</g>
<!-- symfony/service&#45;contracts&#45;&gt;php -->
<g id="edge63" class="edge">
<title>symfony/service&#45;contracts&#45;&gt;php</title>
<path fill="none" stroke="#1a2833" d="M1601.5,-190.6861C1601.5,-157.2443 1601.5,-86.086 1601.5,-46.3441"/>
<polygon fill="#1a2833" stroke="#1a2833" points="1605.0001,-46.2584 1601.5,-36.2584 1598.0001,-46.2585 1605.0001,-46.2584"/>
<text text-anchor="middle" x="1618" y="-98.5" font-family="Times,serif" font-size="10.00" fill="#767676">^7.2.5</text>
</g>
<!-- symfony/service&#45;contracts&#45;&gt;psr/container -->
<g id="edge64" class="edge">
<title>symfony/service&#45;contracts&#45;&gt;psr/container</title>
<path fill="none" stroke="#1a2833" d="M1549.4239,-190.9789C1503.0973,-175.3611 1433.3098,-152.8435 1371.5,-137 1342.5219,-129.5721 1310.5831,-122.7284 1281.8046,-117.0475"/>
<polygon fill="#1a2833" stroke="#1a2833" points="1282.2526,-113.569 1271.7672,-115.0876 1280.911,-120.4392 1282.2526,-113.569"/>
<text text-anchor="middle" x="1503.5" y="-152.5" font-family="Times,serif" font-size="10.00" fill="#767676">^1.0</text>
</g>
<!-- symfony/polyfill&#45;mbstring&#45;&gt;php -->
<g id="edge61" class="edge">
<title>symfony/polyfill&#45;mbstring&#45;&gt;php</title>
<path fill="none" stroke="#1a2833" d="M1953.0129,-136.7805C1924.4779,-113.6256 1871.5924,-74.2398 1819.5,-54 1758.9233,-30.4638 1683.0483,-22.3129 1638.6539,-19.4916"/>
<polygon fill="#1a2833" stroke="#1a2833" points="1638.7933,-15.9939 1628.6079,-18.9107 1638.3891,-22.9823 1638.7933,-15.9939"/>
<text text-anchor="middle" x="1949" y="-98.5" font-family="Times,serif" font-size="10.00" fill="#767676">&gt;=5.3.3</text>
</g>
<!-- symfony/polyfill&#45;php73&#45;&gt;php -->
<g id="edge62" class="edge">
<title>symfony/polyfill&#45;php73&#45;&gt;php</title>
<path fill="none" stroke="#1a2833" d="M2173.2329,-136.972C2098.1646,-114.3913 1963.3,-76.0015 1845.5,-54 1772.5611,-40.3772 1686.5685,-28.7021 1638.6139,-22.5797"/>
<polygon fill="#1a2833" stroke="#1a2833" points="1639.053,-19.1074 1628.6924,-21.3231 1638.1733,-26.0519 1639.053,-19.1074"/>
<text text-anchor="middle" x="2131" y="-98.5" font-family="Times,serif" font-size="10.00" fill="#767676">&gt;=5.3.3</text>
</g>
</g>
</svg>
