<?xml version="1.0" encoding="UTF-8" standalone="no"?>
<!DOCTYPE svg PUBLIC "-//W3C//DTD SVG 1.1//EN"
 "http://www.w3.org/Graphics/SVG/1.1/DTD/svg11.dtd">
<!-- Generated by graphviz version 2.40.1 (20161225.0304)
 -->
<!-- Title: %3 Pages: 1 -->
<svg width="3239pt" height="592pt"
 viewBox="0.00 0.00 3238.50 592.00" xmlns="http://www.w3.org/2000/svg" xmlns:xlink="http://www.w3.org/1999/xlink">
<g id="graph0" class="graph" transform="scale(1 1) rotate(0) translate(4 588)">
<title>%3</title>
<polygon fill="#ffffff" stroke="transparent" points="-4,4 -4,-588 3234.5,-588 3234.5,4 -4,4"/>
<!-- bartlett/umlwriter -->
<g id="node1" class="node">
<title>bartlett/umlwriter</title>
<path fill="#eeeeee" stroke="#000000" stroke-width="2" d="M1606,-584C1606,-584 1483,-584 1483,-584 1477,-584 1471,-578 1471,-572 1471,-572 1471,-560 1471,-560 1471,-554 1477,-548 1483,-548 1483,-548 1606,-548 1606,-548 1612,-548 1618,-554 1618,-560 1618,-560 1618,-572 1618,-572 1618,-578 1612,-584 1606,-584"/>
<text text-anchor="middle" x="1544.5" y="-562.3" font-family="Times,serif" font-size="14.00" fill="#314b5f">bartlett/umlwriter</text>
</g>
<!-- php -->
<g id="node2" class="node">
<title>php</title>
<path fill="#eeeeee" stroke="#000000" d="M1618.5,-36C1618.5,-36 1588.5,-36 1588.5,-36 1582.5,-36 1576.5,-30 1576.5,-24 1576.5,-24 1576.5,-12 1576.5,-12 1576.5,-6 1582.5,0 1588.5,0 1588.5,0 1618.5,0 1618.5,0 1624.5,0 1630.5,-6 1630.5,-12 1630.5,-12 1630.5,-24 1630.5,-24 1630.5,-30 1624.5,-36 1618.5,-36"/>
<text text-anchor="middle" x="1603.5" y="-14.3" font-family="Times,serif" font-size="14.00" fill="#314b5f">php</text>
</g>
<!-- bartlett/umlwriter&#45;&gt;php -->
<g id="edge1" class="edge">
<title>bartlett/umlwriter&#45;&gt;php</title>
<path fill="none" stroke="#1a2833" d="M1618.2846,-565.1339C1896.1188,-561.7427 2870.4738,-548.6294 3008.5,-530 3094.2805,-518.4222 3197.5,-569.5583 3197.5,-483 3197.5,-483 3197.5,-483 3197.5,-101 3197.5,-64.2868 3208.8378,-75.7394 2996.5,-54 2722.5108,-25.9487 1833.9183,-19.3176 1640.773,-18.1942"/>
<polygon fill="#1a2833" stroke="#1a2833" points="1640.5927,-14.6932 1630.573,-18.1363 1640.5529,-21.6931 1640.5927,-14.6932"/>
<text text-anchor="middle" x="3214" y="-289.5" font-family="Times,serif" font-size="10.00" fill="#767676">^7.1.3</text>
</g>
<!-- bartlett/graph&#45;plantuml&#45;generator -->
<g id="node3" class="node">
<title>bartlett/graph&#45;plantuml&#45;generator</title>
<path fill="#eeeeee" stroke="#000000" d="M1468.5,-393C1468.5,-393 1136.5,-393 1136.5,-393 1130.5,-393 1124.5,-387 1124.5,-381 1124.5,-381 1124.5,-369 1124.5,-369 1124.5,-363 1130.5,-357 1136.5,-357 1136.5,-357 1468.5,-357 1468.5,-357 1474.5,-357 1480.5,-363 1480.5,-369 1480.5,-369 1480.5,-381 1480.5,-381 1480.5,-387 1474.5,-393 1468.5,-393"/>
<text text-anchor="middle" x="1302.5" y="-371.3" font-family="Times,serif" font-size="14.00" fill="#314b5f">bartlett/graph&#45;plantuml&#45;generator: 1.0.0&#45;beta.1</text>
</g>
<!-- bartlett/umlwriter&#45;&gt;bartlett/graph&#45;plantuml&#45;generator -->
<g id="edge2" class="edge">
<title>bartlett/umlwriter&#45;&gt;bartlett/graph&#45;plantuml&#45;generator</title>
<path fill="none" stroke="#1a2833" d="M1521.296,-547.6861C1477.5696,-513.1747 1382.9501,-438.4958 1333.706,-399.6295"/>
<polygon fill="#1a2833" stroke="#1a2833" points="1335.6518,-396.7065 1325.6337,-393.2584 1331.315,-402.2013 1335.6518,-396.7065"/>
<text text-anchor="middle" x="1488.5" y="-480.5" font-family="Times,serif" font-size="10.00" fill="#767676">1.0.0&#45;beta.1</text>
</g>
<!-- bartlett/graph&#45;uml -->
<g id="node4" class="node">
<title>bartlett/graph&#45;uml</title>
<path fill="#eeeeee" stroke="#000000" d="M836.5,-310C836.5,-310 616.5,-310 616.5,-310 610.5,-310 604.5,-304 604.5,-298 604.5,-298 604.5,-286 604.5,-286 604.5,-280 610.5,-274 616.5,-274 616.5,-274 836.5,-274 836.5,-274 842.5,-274 848.5,-280 848.5,-286 848.5,-286 848.5,-298 848.5,-298 848.5,-304 842.5,-310 836.5,-310"/>
<text text-anchor="middle" x="726.5" y="-288.3" font-family="Times,serif" font-size="14.00" fill="#314b5f">bartlett/graph&#45;uml: 1.0.0&#45;beta.2</text>
</g>
<!-- bartlett/umlwriter&#45;&gt;bartlett/graph&#45;uml -->
<g id="edge3" class="edge">
<title>bartlett/umlwriter&#45;&gt;bartlett/graph&#45;uml</title>
<path fill="none" stroke="#1a2833" d="M1470.713,-563.8393C1299.6909,-558.5969 888.7236,-544.5587 862.5,-530 786.7235,-487.9307 812.4263,-433.9272 772.5,-357 765.5473,-343.6041 756.159,-329.8126 747.6768,-318.3991"/>
<polygon fill="#1a2833" stroke="#1a2833" points="750.2636,-316.0188 741.4224,-310.1807 744.6932,-320.258 750.2636,-316.0188"/>
<text text-anchor="middle" x="830.5" y="-426.5" font-family="Times,serif" font-size="10.00" fill="#767676">1.0.0&#45;beta.2</text>
</g>
<!-- goaop/parser&#45;reflection -->
<g id="node5" class="node">
<title>goaop/parser&#45;reflection</title>
<path fill="#eeeeee" stroke="#000000" d="M416,-227C416,-227 211,-227 211,-227 205,-227 199,-221 199,-215 199,-215 199,-203 199,-203 199,-197 205,-191 211,-191 211,-191 416,-191 416,-191 422,-191 428,-197 428,-203 428,-203 428,-215 428,-215 428,-221 422,-227 416,-227"/>
<text text-anchor="middle" x="313.5" y="-205.3" font-family="Times,serif" font-size="14.00" fill="#314b5f">goaop/parser&#45;reflection: 2.1.1</text>
</g>
<!-- bartlett/umlwriter&#45;&gt;goaop/parser&#45;reflection -->
<g id="edge4" class="edge">
<title>bartlett/umlwriter&#45;&gt;goaop/parser&#45;reflection</title>
<path fill="none" stroke="#1a2833" d="M1470.7904,-565.6333C1239.9927,-564.2014 540.746,-557.6087 442.5,-530 401.6882,-518.5312 359.5,-525.3926 359.5,-483 359.5,-483 359.5,-483 359.5,-292 359.5,-271.1491 348.2569,-250.6284 336.8874,-235.2077"/>
<polygon fill="#1a2833" stroke="#1a2833" points="339.543,-232.9216 330.6287,-227.1956 334.0265,-237.2308 339.543,-232.9216"/>
<text text-anchor="middle" x="371.5" y="-372.5" font-family="Times,serif" font-size="10.00" fill="#767676">^2.1</text>
</g>
<!-- graphp/graph -->
<g id="node6" class="node">
<title>graphp/graph</title>
<path fill="#eeeeee" stroke="#000000" d="M673,-119C673,-119 494,-119 494,-119 488,-119 482,-113 482,-107 482,-107 482,-95 482,-95 482,-89 488,-83 494,-83 494,-83 673,-83 673,-83 679,-83 685,-89 685,-95 685,-95 685,-107 685,-107 685,-113 679,-119 673,-119"/>
<text text-anchor="middle" x="583.5" y="-97.3" font-family="Times,serif" font-size="14.00" fill="#314b5f">graphp/graph: dev&#45;master</text>
</g>
<!-- bartlett/umlwriter&#45;&gt;graphp/graph -->
<g id="edge5" class="edge">
<title>bartlett/umlwriter&#45;&gt;graphp/graph</title>
<path fill="none" stroke="#1a2833" d="M1470.9988,-564.2458C1226.5866,-557.934 456.5,-534.0002 456.5,-483 456.5,-483 456.5,-483 456.5,-209 456.5,-169.2795 492.9974,-141.1086 526.8612,-123.5191"/>
<polygon fill="#1a2833" stroke="#1a2833" points="528.4486,-126.6387 535.8486,-119.0564 525.3353,-120.3691 528.4486,-126.6387"/>
<text text-anchor="middle" x="505" y="-331" font-family="Times,serif" font-size="10.00" fill="#767676">dev&#45;master as 1.0.0</text>
</g>
<!-- graphp/graphviz -->
<g id="node7" class="node">
<title>graphp/graphviz</title>
<path fill="#eeeeee" stroke="#000000" d="M983,-227C983,-227 630,-227 630,-227 624,-227 618,-221 618,-215 618,-215 618,-203 618,-203 618,-197 624,-191 630,-191 630,-191 983,-191 983,-191 989,-191 995,-197 995,-203 995,-203 995,-215 995,-215 995,-221 989,-227 983,-227"/>
<text text-anchor="middle" x="806.5" y="-205.3" font-family="Times,serif" font-size="14.00" fill="#314b5f">graphp/graphviz: dev&#45;subgraph_cluster_attributes</text>
</g>
<!-- bartlett/umlwriter&#45;&gt;graphp/graphviz -->
<g id="edge6" class="edge">
<title>bartlett/umlwriter&#45;&gt;graphp/graphviz</title>
<path fill="none" stroke="#1a2833" d="M1470.7413,-563.5798C1243.3686,-555.6371 568.5,-528.2509 568.5,-483 568.5,-483 568.5,-483 568.5,-292 568.5,-263.8642 628.551,-243.052 688.3246,-229.3051"/>
<polygon fill="#1a2833" stroke="#1a2833" points="689.2997,-232.6736 698.2944,-227.0749 687.7715,-225.8424 689.2997,-232.6736"/>
<text text-anchor="middle" x="668.5" y="-372.5" font-family="Times,serif" font-size="10.00" fill="#767676">dev&#45;subgraph_cluster_attributes as 1.0.0</text>
</g>
<!-- psr/container -->
<g id="node8" class="node">
<title>psr/container</title>
<path fill="#eeeeee" stroke="#000000" d="M1261.5,-119C1261.5,-119 1127.5,-119 1127.5,-119 1121.5,-119 1115.5,-113 1115.5,-107 1115.5,-107 1115.5,-95 1115.5,-95 1115.5,-89 1121.5,-83 1127.5,-83 1127.5,-83 1261.5,-83 1261.5,-83 1267.5,-83 1273.5,-89 1273.5,-95 1273.5,-95 1273.5,-107 1273.5,-107 1273.5,-113 1267.5,-119 1261.5,-119"/>
<text text-anchor="middle" x="1194.5" y="-97.3" font-family="Times,serif" font-size="14.00" fill="#314b5f">psr/container: 1.0.0</text>
</g>
<!-- bartlett/umlwriter&#45;&gt;psr/container -->
<g id="edge7" class="edge">
<title>bartlett/umlwriter&#45;&gt;psr/container</title>
<path fill="none" stroke="#1a2833" d="M1470.781,-564.4353C1297.0555,-559.7692 876.5,-542.345 876.5,-483 876.5,-483 876.5,-483 876.5,-333.5 876.5,-301.6353 892.02,-294.3982 916.5,-274 919.0135,-271.9056 1021.6675,-228.6374 1024.5,-227 1077.1295,-196.5758 1132.7504,-152.8378 1165.5056,-125.7098"/>
<polygon fill="#1a2833" stroke="#1a2833" points="1167.8865,-128.2816 1173.3248,-119.189 1163.4032,-122.9057 1167.8865,-128.2816"/>
<text text-anchor="middle" x="888.5" y="-331" font-family="Times,serif" font-size="10.00" fill="#767676">^1.0</text>
</g>
<!-- symfony/config -->
<g id="node9" class="node">
<title>symfony/config</title>
<path fill="#eeeeee" stroke="#000000" d="M2086,-501C2086,-501 1931,-501 1931,-501 1925,-501 1919,-495 1919,-489 1919,-489 1919,-477 1919,-477 1919,-471 1925,-465 1931,-465 1931,-465 2086,-465 2086,-465 2092,-465 2098,-471 2098,-477 2098,-477 2098,-489 2098,-489 2098,-495 2092,-501 2086,-501"/>
<text text-anchor="middle" x="2008.5" y="-479.3" font-family="Times,serif" font-size="14.00" fill="#314b5f">symfony/config: v5.0.8</text>
</g>
<!-- bartlett/umlwriter&#45;&gt;symfony/config -->
<g id="edge8" class="edge">
<title>bartlett/umlwriter&#45;&gt;symfony/config</title>
<path fill="none" stroke="#1a2833" d="M1618.0222,-552.8484C1696.5138,-538.8079 1821.3644,-516.4747 1908.7001,-500.8521"/>
<polygon fill="#1a2833" stroke="#1a2833" points="1909.3983,-504.2829 1918.6258,-499.0766 1908.1657,-497.3923 1909.3983,-504.2829"/>
<text text-anchor="middle" x="1829.5" y="-522" font-family="Times,serif" font-size="10.00" fill="#767676">^4.4|^5.0</text>
</g>
<!-- symfony/console -->
<g id="node10" class="node">
<title>symfony/console</title>
<path fill="#eeeeee" stroke="#000000" d="M2047.5,-310C2047.5,-310 1883.5,-310 1883.5,-310 1877.5,-310 1871.5,-304 1871.5,-298 1871.5,-298 1871.5,-286 1871.5,-286 1871.5,-280 1877.5,-274 1883.5,-274 1883.5,-274 2047.5,-274 2047.5,-274 2053.5,-274 2059.5,-280 2059.5,-286 2059.5,-286 2059.5,-298 2059.5,-298 2059.5,-304 2053.5,-310 2047.5,-310"/>
<text text-anchor="middle" x="1965.5" y="-288.3" font-family="Times,serif" font-size="14.00" fill="#314b5f">symfony/console: v5.0.8</text>
</g>
<!-- bartlett/umlwriter&#45;&gt;symfony/console -->
<g id="edge9" class="edge">
<title>bartlett/umlwriter&#45;&gt;symfony/console</title>
<path fill="none" stroke="#1a2833" d="M1554.6193,-547.6658C1583.099,-496.7507 1664.7671,-355.5586 1709.5,-328 1734.6954,-312.4778 1801.8631,-303.3947 1861.0757,-298.2356"/>
<polygon fill="#1a2833" stroke="#1a2833" points="1861.5912,-301.7047 1871.2628,-297.3791 1861.0047,-294.7293 1861.5912,-301.7047"/>
<text text-anchor="middle" x="1663.5" y="-426.5" font-family="Times,serif" font-size="10.00" fill="#767676">^4.4|^5.0</text>
</g>
<!-- symfony/finder -->
<g id="node11" class="node">
<title>symfony/finder</title>
<path fill="#eeeeee" stroke="#000000" d="M3012,-393C3012,-393 2859,-393 2859,-393 2853,-393 2847,-387 2847,-381 2847,-381 2847,-369 2847,-369 2847,-363 2853,-357 2859,-357 2859,-357 3012,-357 3012,-357 3018,-357 3024,-363 3024,-369 3024,-369 3024,-381 3024,-381 3024,-387 3018,-393 3012,-393"/>
<text text-anchor="middle" x="2935.5" y="-371.3" font-family="Times,serif" font-size="14.00" fill="#314b5f">symfony/finder: v5.0.8</text>
</g>
<!-- bartlett/umlwriter&#45;&gt;symfony/finder -->
<g id="edge10" class="edge">
<title>bartlett/umlwriter&#45;&gt;symfony/finder</title>
<path fill="none" stroke="#1a2833" d="M1618.0365,-563.8839C1885.7748,-555.5963 2798.3827,-522.0373 2903.5,-447 2917.9299,-436.6993 2925.9509,-418.3734 2930.3537,-402.7886"/>
<polygon fill="#1a2833" stroke="#1a2833" points="2933.7579,-403.6023 2932.7555,-393.055 2926.9617,-401.9253 2933.7579,-403.6023"/>
<text text-anchor="middle" x="2881.5" y="-480.5" font-family="Times,serif" font-size="10.00" fill="#767676">^4.4|^5.0</text>
</g>
<!-- symfony/options&#45;resolver -->
<g id="node12" class="node">
<title>symfony/options&#45;resolver</title>
<path fill="#eeeeee" stroke="#000000" d="M3170.5,-447C3170.5,-447 2944.5,-447 2944.5,-447 2938.5,-447 2932.5,-441 2932.5,-435 2932.5,-435 2932.5,-423 2932.5,-423 2932.5,-417 2938.5,-411 2944.5,-411 2944.5,-411 3170.5,-411 3170.5,-411 3176.5,-411 3182.5,-417 3182.5,-423 3182.5,-423 3182.5,-435 3182.5,-435 3182.5,-441 3176.5,-447 3170.5,-447"/>
<text text-anchor="middle" x="3057.5" y="-425.3" font-family="Times,serif" font-size="14.00" fill="#314b5f">symfony/options&#45;resolver: v5.0.8</text>
</g>
<!-- bartlett/umlwriter&#45;&gt;symfony/options&#45;resolver -->
<g id="edge11" class="edge">
<title>bartlett/umlwriter&#45;&gt;symfony/options&#45;resolver</title>
<path fill="none" stroke="#1a2833" d="M1618.1776,-565.2969C1896.1857,-562.4873 2868.9742,-551.1814 2931.5,-530 2973.9093,-515.6333 3012.4449,-479.8804 3035.4332,-455.0183"/>
<polygon fill="#1a2833" stroke="#1a2833" points="3038.2343,-457.1386 3042.3358,-447.3698 3033.0376,-452.4487 3038.2343,-457.1386"/>
<text text-anchor="middle" x="2979.5" y="-522" font-family="Times,serif" font-size="10.00" fill="#767676">^4.4|^5.0</text>
</g>
<!-- symfony/yaml -->
<g id="node13" class="node">
<title>symfony/yaml</title>
<path fill="#eeeeee" stroke="#000000" d="M1918,-393C1918,-393 1773,-393 1773,-393 1767,-393 1761,-387 1761,-381 1761,-381 1761,-369 1761,-369 1761,-363 1767,-357 1773,-357 1773,-357 1918,-357 1918,-357 1924,-357 1930,-363 1930,-369 1930,-369 1930,-381 1930,-381 1930,-387 1924,-393 1918,-393"/>
<text text-anchor="middle" x="1845.5" y="-371.3" font-family="Times,serif" font-size="14.00" fill="#314b5f">symfony/yaml: v5.0.8</text>
</g>
<!-- bartlett/umlwriter&#45;&gt;symfony/yaml -->
<g id="edge12" class="edge">
<title>bartlett/umlwriter&#45;&gt;symfony/yaml</title>
<path fill="none" stroke="#1a2833" d="M1584.231,-547.9918C1595.4847,-542.538 1607.6267,-536.3117 1618.5,-530 1690.6603,-488.1126 1770.1399,-431.1397 1813.2805,-399.2267"/>
<polygon fill="#1a2833" stroke="#1a2833" points="1815.4685,-401.9614 1821.4112,-393.1901 1811.2957,-396.3411 1815.4685,-401.9614"/>
<text text-anchor="middle" x="1743.5" y="-480.5" font-family="Times,serif" font-size="10.00" fill="#767676">^4.4|^5.0</text>
</g>
<!-- jawira/plantuml -->
<g id="node14" class="node">
<title>jawira/plantuml</title>
<path fill="#eeeeee" stroke="#000000" d="M1628,-310C1628,-310 1461,-310 1461,-310 1455,-310 1449,-304 1449,-298 1449,-298 1449,-286 1449,-286 1449,-280 1455,-274 1461,-274 1461,-274 1628,-274 1628,-274 1634,-274 1640,-280 1640,-286 1640,-286 1640,-298 1640,-298 1640,-304 1634,-310 1628,-310"/>
<text text-anchor="middle" x="1544.5" y="-288.3" font-family="Times,serif" font-size="14.00" fill="#314b5f">jawira/plantuml: v1.35.0</text>
</g>
<!-- bartlett/umlwriter&#45;&gt;jawira/plantuml -->
<g id="edge13" class="edge">
<title>bartlett/umlwriter&#45;&gt;jawira/plantuml</title>
<path fill="none" stroke="#1a2833" stroke-dasharray="5,2" d="M1544.5,-547.5966C1544.5,-500.801 1544.5,-376.9945 1544.5,-320.6499"/>
<polygon fill="#1a2833" stroke="#1a2833" points="1548.0001,-320.3232 1544.5,-310.3233 1541.0001,-320.3233 1548.0001,-320.3232"/>
<text text-anchor="middle" x="1559.5" y="-426.5" font-family="Times,serif" font-size="10.00" fill="#767676">^1.28</text>
</g>
<!-- bartlett/graph&#45;plantuml&#45;generator&#45;&gt;php -->
<g id="edge17" class="edge">
<title>bartlett/graph&#45;plantuml&#45;generator&#45;&gt;php</title>
<path fill="none" stroke="#1a2833" d="M1348.5183,-356.9099C1368.5985,-346.4345 1390.1232,-331.0794 1401.5,-310 1405.3883,-302.7956 1398.5675,-229.1178 1398.5,-227 1396.0057,-148.7645 1375.3257,-108.5111 1431.5,-54 1450.2997,-35.7569 1521.2788,-25.7894 1565.9702,-21.204"/>
<polygon fill="#1a2833" stroke="#1a2833" points="1566.5609,-24.663 1576.1714,-20.2035 1565.8775,-17.6964 1566.5609,-24.663"/>
<text text-anchor="middle" x="1415" y="-206.5" font-family="Times,serif" font-size="10.00" fill="#767676">^7.1.3</text>
</g>
<!-- bartlett/graph&#45;plantuml&#45;generator&#45;&gt;bartlett/graph&#45;uml -->
<g id="edge14" class="edge">
<title>bartlett/graph&#45;plantuml&#45;generator&#45;&gt;bartlett/graph&#45;uml</title>
<path fill="none" stroke="#1a2833" d="M1124.488,-368.2104C1014.5651,-362.7024 884.5394,-353.4402 830.5,-339 819.5529,-336.0748 817.7894,-332.7459 807.5,-328 797.6571,-323.46 787.0985,-318.6929 776.9632,-314.1675"/>
<polygon fill="#1a2833" stroke="#1a2833" points="778.3662,-310.9609 767.807,-310.0928 775.5201,-317.3563 778.3662,-310.9609"/>
<text text-anchor="middle" x="842.5" y="-331" font-family="Times,serif" font-size="10.00" fill="#767676">^1.0</text>
</g>
<!-- bartlett/graph&#45;plantuml&#45;generator&#45;&gt;graphp/graphviz -->
<g id="edge15" class="edge">
<title>bartlett/graph&#45;plantuml&#45;generator&#45;&gt;graphp/graphviz</title>
<path fill="none" stroke="#1a2833" d="M1124.3458,-361.0232C1044.3137,-351.3552 961.219,-335.4896 931.5,-310 908.3499,-290.1444 930.959,-266.6722 909.5,-245 904.5748,-240.0259 898.9254,-235.7377 892.8634,-232.041"/>
<polygon fill="#1a2833" stroke="#1a2833" points="894.1753,-228.7691 883.723,-227.0372 890.8139,-234.9093 894.1753,-228.7691"/>
<text text-anchor="middle" x="1031.5" y="-289.5" font-family="Times,serif" font-size="10.00" fill="#767676">dev&#45;subgraph_cluster_attributes as 1.0.0</text>
</g>
<!-- bartlett/graph&#45;plantuml&#45;generator&#45;&gt;jawira/plantuml -->
<g id="edge18" class="edge">
<title>bartlett/graph&#45;plantuml&#45;generator&#45;&gt;jawira/plantuml</title>
<path fill="none" stroke="#1a2833" stroke-dasharray="5,2" d="M1375.6717,-356.9687C1394.9668,-351.6915 1415.6563,-345.5604 1434.5,-339 1455.1371,-331.8153 1477.3931,-322.5965 1496.4507,-314.2295"/>
<polygon fill="#1a2833" stroke="#1a2833" points="1498.0917,-317.3305 1505.8129,-310.0756 1495.2527,-310.932 1498.0917,-317.3305"/>
<text text-anchor="middle" x="1477.5" y="-331" font-family="Times,serif" font-size="10.00" fill="#767676">^1.28</text>
</g>
<!-- jawira/plantuml&#45;encoding -->
<g id="node15" class="node">
<title>jawira/plantuml&#45;encoding</title>
<path fill="#eeeeee" stroke="#000000" d="M1380.5,-310C1380.5,-310 1152.5,-310 1152.5,-310 1146.5,-310 1140.5,-304 1140.5,-298 1140.5,-298 1140.5,-286 1140.5,-286 1140.5,-280 1146.5,-274 1152.5,-274 1152.5,-274 1380.5,-274 1380.5,-274 1386.5,-274 1392.5,-280 1392.5,-286 1392.5,-286 1392.5,-298 1392.5,-298 1392.5,-304 1386.5,-310 1380.5,-310"/>
<text text-anchor="middle" x="1266.5" y="-288.3" font-family="Times,serif" font-size="14.00" fill="#314b5f">jawira/plantuml&#45;encoding: v1.0.7</text>
</g>
<!-- bartlett/graph&#45;plantuml&#45;generator&#45;&gt;jawira/plantuml&#45;encoding -->
<g id="edge16" class="edge">
<title>bartlett/graph&#45;plantuml&#45;generator&#45;&gt;jawira/plantuml&#45;encoding</title>
<path fill="none" stroke="#1a2833" d="M1294.6885,-356.9902C1289.9565,-346.0802 1283.8237,-331.9407 1278.4874,-319.6376"/>
<polygon fill="#1a2833" stroke="#1a2833" points="1281.6107,-318.0427 1274.4205,-310.2612 1275.1888,-320.8282 1281.6107,-318.0427"/>
<text text-anchor="middle" x="1299.5" y="-331" font-family="Times,serif" font-size="10.00" fill="#767676">^1.0</text>
</g>
<!-- bartlett/graph&#45;uml&#45;&gt;php -->
<g id="edge21" class="edge">
<title>bartlett/graph&#45;uml&#45;&gt;php</title>
<path fill="none" stroke="#1a2833" d="M824.3978,-273.952C850.8292,-268.6329 879.3483,-262.4854 905.5,-256 949.5871,-245.0667 972.3341,-260.0438 1003.5,-227 1031.6825,-197.1193 1001.0089,-170.6939 1024.5,-137 1049.4567,-101.2039 1066.4916,-100.422 1106.5,-83 1156.41,-61.2663 1171.8206,-63.0485 1225.5,-54 1349.2162,-33.1458 1497.9002,-23.4021 1566.0517,-19.775"/>
<polygon fill="#1a2833" stroke="#1a2833" points="1566.4766,-23.2578 1576.2819,-19.2446 1566.1141,-16.2672 1566.4766,-23.2578"/>
<text text-anchor="middle" x="1041" y="-152.5" font-family="Times,serif" font-size="10.00" fill="#767676">^7.1.3</text>
</g>
<!-- bartlett/graph&#45;uml&#45;&gt;graphp/graph -->
<g id="edge19" class="edge">
<title>bartlett/graph&#45;uml&#45;&gt;graphp/graph</title>
<path fill="none" stroke="#1a2833" d="M627.8093,-273.9983C578.4559,-262.7798 526.1437,-246.7254 511.5,-227 487.03,-194.0383 522.8773,-151.9918 552.1732,-125.7783"/>
<polygon fill="#1a2833" stroke="#1a2833" points="554.5585,-128.3427 559.8223,-119.1479 549.9735,-123.0532 554.5585,-128.3427"/>
<text text-anchor="middle" x="560" y="-206.5" font-family="Times,serif" font-size="10.00" fill="#767676">dev&#45;master as 1.0.0</text>
</g>
<!-- bartlett/graph&#45;uml&#45;&gt;graphp/graphviz -->
<g id="edge20" class="edge">
<title>bartlett/graph&#45;uml&#45;&gt;graphp/graphviz</title>
<path fill="none" stroke="#1a2833" d="M709.7839,-273.7205C703.5473,-264.6395 699.3194,-253.7645 705.5,-245 709.0621,-239.9488 717.5722,-235.0958 728.2237,-230.678"/>
<polygon fill="#1a2833" stroke="#1a2833" points="729.531,-233.9253 737.613,-227.0747 727.0229,-227.39 729.531,-233.9253"/>
<text text-anchor="middle" x="805.5" y="-248" font-family="Times,serif" font-size="10.00" fill="#767676">dev&#45;subgraph_cluster_attributes as 1.0.0</text>
</g>
<!-- goaop/parser&#45;reflection&#45;&gt;php -->
<g id="edge23" class="edge">
<title>goaop/parser&#45;reflection&#45;&gt;php</title>
<path fill="none" stroke="#1a2833" d="M331.0354,-190.9625C364.2526,-156.885 433.6585,-86.1499 440.5,-83 492.8101,-58.9159 1373.0516,-26.2208 1566.2221,-19.3141"/>
<polygon fill="#1a2833" stroke="#1a2833" points="1566.5621,-22.8043 1576.4311,-18.9503 1566.3127,-15.8088 1566.5621,-22.8043"/>
<text text-anchor="middle" x="456.5" y="-98.5" font-family="Times,serif" font-size="10.00" fill="#767676">&gt;=7.1</text>
</g>
<!-- nikic/php&#45;parser -->
<g id="node16" class="node">
<title>nikic/php&#45;parser</title>
<path fill="#eeeeee" stroke="#000000" d="M314.5,-119C314.5,-119 150.5,-119 150.5,-119 144.5,-119 138.5,-113 138.5,-107 138.5,-107 138.5,-95 138.5,-95 138.5,-89 144.5,-83 150.5,-83 150.5,-83 314.5,-83 314.5,-83 320.5,-83 326.5,-89 326.5,-95 326.5,-95 326.5,-107 326.5,-107 326.5,-113 320.5,-119 314.5,-119"/>
<text text-anchor="middle" x="232.5" y="-97.3" font-family="Times,serif" font-size="14.00" fill="#314b5f">nikic/php&#45;parser: v4.4.0</text>
</g>
<!-- goaop/parser&#45;reflection&#45;&gt;nikic/php&#45;parser -->
<g id="edge22" class="edge">
<title>goaop/parser&#45;reflection&#45;&gt;nikic/php&#45;parser</title>
<path fill="none" stroke="#1a2833" d="M299.7595,-190.6793C286.706,-173.2746 266.9395,-146.9193 252.2085,-127.278"/>
<polygon fill="#1a2833" stroke="#1a2833" points="254.8377,-124.9502 246.0376,-119.0502 249.2377,-129.1502 254.8377,-124.9502"/>
<text text-anchor="middle" x="297.5" y="-152.5" font-family="Times,serif" font-size="10.00" fill="#767676">^4.0</text>
</g>
<!-- phpunit/phpunit -->
<g id="node17" class="node">
<title>phpunit/phpunit</title>
<path fill="#eeeeee" stroke="#000000" d="M461.5,-36C461.5,-36 353.5,-36 353.5,-36 347.5,-36 341.5,-30 341.5,-24 341.5,-24 341.5,-12 341.5,-12 341.5,-6 347.5,0 353.5,0 353.5,0 461.5,0 461.5,0 467.5,0 473.5,-6 473.5,-12 473.5,-12 473.5,-24 473.5,-24 473.5,-30 467.5,-36 461.5,-36"/>
<text text-anchor="middle" x="407.5" y="-14.3" font-family="Times,serif" font-size="14.00" fill="#314b5f">phpunit/phpunit</text>
</g>
<!-- goaop/parser&#45;reflection&#45;&gt;phpunit/phpunit -->
<g id="edge24" class="edge">
<title>goaop/parser&#45;reflection&#45;&gt;phpunit/phpunit</title>
<path fill="none" stroke="#1a2833" stroke-dasharray="5,2" d="M319.5827,-190.6073C329.8135,-160.8142 352.0626,-100.6357 379.5,-54 381.4197,-50.7371 383.599,-47.4372 385.874,-44.228"/>
<polygon fill="#1a2833" stroke="#1a2833" points="388.8177,-46.136 392.0069,-36.0326 383.2132,-41.942 388.8177,-46.136"/>
<text text-anchor="middle" x="376.5" y="-98.5" font-family="Times,serif" font-size="10.00" fill="#767676">~4.0</text>
</g>
<!-- graphp/graph&#45;&gt;php -->
<g id="edge25" class="edge">
<title>graphp/graph&#45;&gt;php</title>
<path fill="none" stroke="#1a2833" d="M680.4677,-82.9635C738.3343,-72.8736 813.3862,-60.961 880.5,-54 1141.8493,-26.8931 1458.537,-20.0507 1565.865,-18.453"/>
<polygon fill="#1a2833" stroke="#1a2833" points="1566.2223,-21.9484 1576.1715,-18.3064 1566.1227,-14.9491 1566.2223,-21.9484"/>
<text text-anchor="middle" x="910" y="-57" font-family="Times,serif" font-size="10.00" fill="#767676">^7.0 || ^5.3</text>
</g>
<!-- graphp/graph&#45;&gt;phpunit/phpunit -->
<g id="edge26" class="edge">
<title>graphp/graph&#45;&gt;phpunit/phpunit</title>
<path fill="none" stroke="#1a2833" stroke-dasharray="5,2" d="M545.3106,-82.9902C518.8786,-70.5251 483.5069,-53.8442 455.2175,-40.5031"/>
<polygon fill="#1a2833" stroke="#1a2833" points="456.456,-37.2175 445.9183,-36.1177 453.4701,-43.5488 456.456,-37.2175"/>
<text text-anchor="middle" x="561" y="-57" font-family="Times,serif" font-size="10.00" fill="#767676">^6.4 || ^5.7 || ^4.8.35</text>
</g>
<!-- graphp/graphviz&#45;&gt;php -->
<g id="edge28" class="edge">
<title>graphp/graphviz&#45;&gt;php</title>
<path fill="none" stroke="#1a2833" d="M829.6314,-190.8C867.6369,-160.9324 941.7454,-102.8507 968.5,-83 986.4248,-69.7006 988.4436,-61.4029 1009.5,-54 1061.7724,-35.6224 1443.5601,-22.7651 1565.8951,-19.0815"/>
<polygon fill="#1a2833" stroke="#1a2833" points="1566.3552,-22.5694 1576.2465,-18.7731 1566.1467,-15.5725 1566.3552,-22.5694"/>
<text text-anchor="middle" x="989" y="-98.5" font-family="Times,serif" font-size="10.00" fill="#767676">&gt;=5.3.0</text>
</g>
<!-- graphp/graphviz&#45;&gt;graphp/graph -->
<g id="edge27" class="edge">
<title>graphp/graphviz&#45;&gt;graphp/graph</title>
<path fill="none" stroke="#1a2833" d="M685.783,-190.9863C662.2166,-185.8943 641.6614,-179.8455 631.5,-173 615.3006,-162.0869 603.1748,-143.6874 595.1633,-128.2206"/>
<polygon fill="#1a2833" stroke="#1a2833" points="598.2297,-126.5231 590.707,-119.0626 591.9353,-129.586 598.2297,-126.5231"/>
<text text-anchor="middle" x="704" y="-152.5" font-family="Times,serif" font-size="10.00" fill="#767676">dev&#45;master#81eef65 as 1.0.0</text>
</g>
<!-- graphp/graphviz&#45;&gt;phpunit/phpunit -->
<g id="edge29" class="edge">
<title>graphp/graphviz&#45;&gt;phpunit/phpunit</title>
<path fill="none" stroke="#1a2833" stroke-dasharray="5,2" d="M809.1677,-190.912C812.8597,-158.1766 815.2152,-89.2393 776.5,-54 755.3595,-34.7575 585.866,-24.8854 484.0963,-20.6449"/>
<polygon fill="#1a2833" stroke="#1a2833" points="483.9935,-17.1379 473.8593,-20.2278 483.7085,-24.1321 483.9935,-17.1379"/>
<text text-anchor="middle" x="863" y="-98.5" font-family="Times,serif" font-size="10.00" fill="#767676">^6.4 || ^5.7 || ^4.8.35</text>
</g>
<!-- psr/container&#45;&gt;php -->
<g id="edge36" class="edge">
<title>psr/container&#45;&gt;php</title>
<path fill="none" stroke="#1a2833" d="M1209.3824,-82.7147C1218.8572,-72.4374 1232.0407,-60.4176 1246.5,-54 1303.0342,-28.9079 1486.6801,-21.082 1566.213,-18.8338"/>
<polygon fill="#1a2833" stroke="#1a2833" points="1566.3727,-22.3309 1576.2751,-18.5636 1566.1847,-15.3334 1566.3727,-22.3309"/>
<text text-anchor="middle" x="1267" y="-57" font-family="Times,serif" font-size="10.00" fill="#767676">&gt;=5.3.0</text>
</g>
<!-- symfony/config&#45;&gt;php -->
<g id="edge37" class="edge">
<title>symfony/config&#45;&gt;php</title>
<path fill="none" stroke="#1a2833" d="M1918.9622,-475.3258C1863.2867,-469.4131 1797.6649,-460.0314 1772.5,-447 1742.9132,-431.6787 1740.8049,-419.4166 1720.5,-393 1682.8282,-343.9891 1698.1421,-310.8361 1648.5,-274 1580.7189,-223.7042 1519.2939,-291.1995 1464.5,-227 1438.4924,-196.528 1442.4331,-173.2444 1459.5,-137 1481.632,-89.999 1532.4475,-55.2252 1567.3851,-35.7791"/>
<polygon fill="#1a2833" stroke="#1a2833" points="1569.209,-38.7719 1576.3392,-30.9354 1565.8783,-32.615 1569.209,-38.7719"/>
<text text-anchor="middle" x="1626" y="-248" font-family="Times,serif" font-size="10.00" fill="#767676">^7.2.5</text>
</g>
<!-- symfony/config&#45;&gt;symfony/finder -->
<g id="edge41" class="edge">
<title>symfony/config&#45;&gt;symfony/finder</title>
<path fill="none" stroke="#1a2833" stroke-dasharray="5,2" d="M2098.2392,-481.2831C2304.9133,-477.0297 2799.2341,-465.0273 2830.5,-447 2846.9484,-437.5162 2839.0763,-423.3471 2853.5,-411 2859.1841,-406.1342 2865.629,-401.8257 2872.3477,-398.0368"/>
<polygon fill="#1a2833" stroke="#1a2833" points="2874.389,-400.9194 2881.6337,-393.1886 2871.1492,-394.7142 2874.389,-400.9194"/>
<text text-anchor="middle" x="2878.5" y="-426.5" font-family="Times,serif" font-size="10.00" fill="#767676">^4.4|^5.0</text>
</g>
<!-- symfony/config&#45;&gt;symfony/yaml -->
<g id="edge44" class="edge">
<title>symfony/config&#45;&gt;symfony/yaml</title>
<path fill="none" stroke="#1a2833" stroke-dasharray="5,2" d="M1935.7616,-464.9858C1923.7167,-460.2307 1911.8097,-454.316 1901.5,-447 1884.7666,-435.1257 1870.6263,-416.827 1860.7408,-401.649"/>
<polygon fill="#1a2833" stroke="#1a2833" points="1863.6933,-399.7692 1855.4245,-393.1452 1857.7577,-403.4799 1863.6933,-399.7692"/>
<text text-anchor="middle" x="1926.5" y="-426.5" font-family="Times,serif" font-size="10.00" fill="#767676">^4.4|^5.0</text>
</g>
<!-- symfony/filesystem -->
<g id="node21" class="node">
<title>symfony/filesystem</title>
<path fill="#eeeeee" stroke="#000000" d="M2289.5,-393C2289.5,-393 2105.5,-393 2105.5,-393 2099.5,-393 2093.5,-387 2093.5,-381 2093.5,-381 2093.5,-369 2093.5,-369 2093.5,-363 2099.5,-357 2105.5,-357 2105.5,-357 2289.5,-357 2289.5,-357 2295.5,-357 2301.5,-363 2301.5,-369 2301.5,-369 2301.5,-381 2301.5,-381 2301.5,-387 2295.5,-393 2289.5,-393"/>
<text text-anchor="middle" x="2197.5" y="-371.3" font-family="Times,serif" font-size="14.00" fill="#314b5f">symfony/filesystem: v5.0.8</text>
</g>
<!-- symfony/config&#45;&gt;symfony/filesystem -->
<g id="edge38" class="edge">
<title>symfony/config&#45;&gt;symfony/filesystem</title>
<path fill="none" stroke="#1a2833" d="M2040.1344,-464.9232C2072.1607,-446.6224 2121.8173,-418.2472 2156.7681,-398.2754"/>
<polygon fill="#1a2833" stroke="#1a2833" points="2158.8165,-401.136 2165.7624,-393.1357 2155.3435,-395.0583 2158.8165,-401.136"/>
<text text-anchor="middle" x="2156.5" y="-426.5" font-family="Times,serif" font-size="10.00" fill="#767676">^4.4|^5.0</text>
</g>
<!-- symfony/polyfill&#45;ctype -->
<g id="node22" class="node">
<title>symfony/polyfill&#45;ctype</title>
<path fill="#eeeeee" stroke="#000000" d="M2302.5,-310C2302.5,-310 2090.5,-310 2090.5,-310 2084.5,-310 2078.5,-304 2078.5,-298 2078.5,-298 2078.5,-286 2078.5,-286 2078.5,-280 2084.5,-274 2090.5,-274 2090.5,-274 2302.5,-274 2302.5,-274 2308.5,-274 2314.5,-280 2314.5,-286 2314.5,-286 2314.5,-298 2314.5,-298 2314.5,-304 2308.5,-310 2302.5,-310"/>
<text text-anchor="middle" x="2196.5" y="-288.3" font-family="Times,serif" font-size="14.00" fill="#314b5f">symfony/polyfill&#45;ctype: v1.17.0</text>
</g>
<!-- symfony/config&#45;&gt;symfony/polyfill&#45;ctype -->
<g id="edge39" class="edge">
<title>symfony/config&#45;&gt;symfony/polyfill&#45;ctype</title>
<path fill="none" stroke="#1a2833" d="M2011.6908,-464.9009C2017.2485,-438.2096 2031.048,-388.1006 2060.5,-357 2078.371,-338.1287 2102.8449,-324.1167 2126.1087,-314.034"/>
<polygon fill="#1a2833" stroke="#1a2833" points="2127.7359,-317.1484 2135.6351,-310.0878 2125.0569,-310.6813 2127.7359,-317.1484"/>
<text text-anchor="middle" x="2072.5" y="-372.5" font-family="Times,serif" font-size="10.00" fill="#767676">~1.8</text>
</g>
<!-- symfony/event&#45;dispatcher -->
<g id="node23" class="node">
<title>symfony/event&#45;dispatcher</title>
<path fill="#eeeeee" stroke="#000000" d="M3034.5,-227C3034.5,-227 2856.5,-227 2856.5,-227 2850.5,-227 2844.5,-221 2844.5,-215 2844.5,-215 2844.5,-203 2844.5,-203 2844.5,-197 2850.5,-191 2856.5,-191 2856.5,-191 3034.5,-191 3034.5,-191 3040.5,-191 3046.5,-197 3046.5,-203 3046.5,-203 3046.5,-215 3046.5,-215 3046.5,-221 3040.5,-227 3034.5,-227"/>
<text text-anchor="middle" x="2945.5" y="-205.3" font-family="Times,serif" font-size="14.00" fill="#314b5f">symfony/event&#45;dispatcher</text>
</g>
<!-- symfony/config&#45;&gt;symfony/event&#45;dispatcher -->
<g id="edge40" class="edge">
<title>symfony/config&#45;&gt;symfony/event&#45;dispatcher</title>
<path fill="none" stroke="#1a2833" stroke-dasharray="5,2" d="M2098.1336,-476.8233C2167.5974,-471.2582 2266.0802,-461.6681 2351.5,-447 2554.2124,-412.1907 2619.5355,-434.8797 2801.5,-339 2851.6151,-312.5936 2898.0349,-264.7729 2923.9839,-235.0733"/>
<polygon fill="#1a2833" stroke="#1a2833" points="2926.8795,-237.0739 2930.746,-227.2098 2921.5721,-232.5098 2926.8795,-237.0739"/>
<text text-anchor="middle" x="2844.5" y="-331" font-family="Times,serif" font-size="10.00" fill="#767676">^4.4|^5.0</text>
</g>
<!-- symfony/messenger -->
<g id="node24" class="node">
<title>symfony/messenger</title>
<path fill="#eeeeee" stroke="#000000" d="M2467,-393C2467,-393 2332,-393 2332,-393 2326,-393 2320,-387 2320,-381 2320,-381 2320,-369 2320,-369 2320,-363 2326,-357 2332,-357 2332,-357 2467,-357 2467,-357 2473,-357 2479,-363 2479,-369 2479,-369 2479,-381 2479,-381 2479,-387 2473,-393 2467,-393"/>
<text text-anchor="middle" x="2399.5" y="-371.3" font-family="Times,serif" font-size="14.00" fill="#314b5f">symfony/messenger</text>
</g>
<!-- symfony/config&#45;&gt;symfony/messenger -->
<g id="edge42" class="edge">
<title>symfony/config&#45;&gt;symfony/messenger</title>
<path fill="none" stroke="#1a2833" stroke-dasharray="5,2" d="M2098.1409,-467.0088C2126.2763,-461.3917 2157.3365,-454.5706 2185.5,-447 2239.2332,-432.556 2299.1705,-411.9942 2341.9127,-396.5395"/>
<polygon fill="#1a2833" stroke="#1a2833" points="2343.3744,-399.7323 2351.5768,-393.0262 2340.9827,-393.1535 2343.3744,-399.7323"/>
<text text-anchor="middle" x="2322.5" y="-426.5" font-family="Times,serif" font-size="10.00" fill="#767676">^4.4|^5.0</text>
</g>
<!-- symfony/service&#45;contracts -->
<g id="node25" class="node">
<title>symfony/service&#45;contracts</title>
<path fill="#eeeeee" stroke="#000000" d="M1721,-227C1721,-227 1486,-227 1486,-227 1480,-227 1474,-221 1474,-215 1474,-215 1474,-203 1474,-203 1474,-197 1480,-191 1486,-191 1486,-191 1721,-191 1721,-191 1727,-191 1733,-197 1733,-203 1733,-203 1733,-215 1733,-215 1733,-221 1727,-227 1721,-227"/>
<text text-anchor="middle" x="1603.5" y="-205.3" font-family="Times,serif" font-size="14.00" fill="#314b5f">symfony/service&#45;contracts: v2.0.1</text>
</g>
<!-- symfony/config&#45;&gt;symfony/service&#45;contracts -->
<g id="edge43" class="edge">
<title>symfony/config&#45;&gt;symfony/service&#45;contracts</title>
<path fill="none" stroke="#1a2833" stroke-dasharray="5,2" d="M1918.9053,-470.0408C1864.7503,-458.1095 1797.5213,-435.4936 1751.5,-393 1706.5827,-351.5257 1722.0667,-320.6064 1682.5,-274 1669.7203,-258.9465 1653.1405,-244.7085 1638.4718,-233.417"/>
<polygon fill="#1a2833" stroke="#1a2833" points="1640.1961,-230.3347 1630.0991,-227.1253 1635.9909,-235.9308 1640.1961,-230.3347"/>
<text text-anchor="middle" x="1737" y="-331" font-family="Times,serif" font-size="10.00" fill="#767676">^1.1|^2</text>
</g>
<!-- symfony/console&#45;&gt;php -->
<g id="edge45" class="edge">
<title>symfony/console&#45;&gt;php</title>
<path fill="none" stroke="#1a2833" d="M1902.3103,-273.896C1890.8172,-269.0841 1879.3603,-263.1725 1869.5,-256 1831.3868,-228.2761 1822.6813,-216.0501 1803.5,-173 1781.673,-124.0119 1820.8325,-92.5037 1783.5,-54 1764.1648,-34.0582 1687.703,-24.5824 1640.8771,-20.5657"/>
<polygon fill="#1a2833" stroke="#1a2833" points="1641.0497,-17.0683 1630.7989,-19.7459 1640.4821,-24.0452 1641.0497,-17.0683"/>
<text text-anchor="middle" x="1820" y="-152.5" font-family="Times,serif" font-size="10.00" fill="#767676">^7.2.5</text>
</g>
<!-- symfony/console&#45;&gt;symfony/config -->
<g id="edge50" class="edge">
<title>symfony/console&#45;&gt;symfony/config</title>
<path fill="none" stroke="#1a2833" stroke-dasharray="5,2" d="M1967.0463,-310.0504C1969.0091,-330.39 1972.9516,-364.353 1979.5,-393 1984.3622,-414.2707 1991.9929,-437.7148 1998.2066,-455.3417"/>
<polygon fill="#1a2833" stroke="#1a2833" points="1994.9965,-456.7585 2001.6698,-464.9876 2001.5847,-454.3931 1994.9965,-456.7585"/>
<text text-anchor="middle" x="2004.5" y="-372.5" font-family="Times,serif" font-size="10.00" fill="#767676">^4.4|^5.0</text>
</g>
<!-- symfony/console&#45;&gt;symfony/event&#45;dispatcher -->
<g id="edge52" class="edge">
<title>symfony/console&#45;&gt;symfony/event&#45;dispatcher</title>
<path fill="none" stroke="#1a2833" stroke-dasharray="5,2" d="M2059.5261,-275.1657C2062.8879,-274.7425 2066.2205,-274.3514 2069.5,-274 2258.365,-253.7609 2306.9471,-268.2183 2496.5,-256 2645.1944,-246.4154 2682.5853,-244.9759 2830.5,-227 2831.7695,-226.8457 2833.0464,-226.6881 2834.3298,-226.5273"/>
<polygon fill="#1a2833" stroke="#1a2833" points="2834.8072,-229.9948 2844.2742,-225.2382 2833.9073,-223.0529 2834.8072,-229.9948"/>
<text text-anchor="middle" x="2683.5" y="-248" font-family="Times,serif" font-size="10.00" fill="#767676">^4.4|^5.0</text>
</g>
<!-- symfony/console&#45;&gt;symfony/service&#45;contracts -->
<g id="edge48" class="edge">
<title>symfony/console&#45;&gt;symfony/service&#45;contracts</title>
<path fill="none" stroke="#1a2833" d="M1871.4021,-274.2014C1843.6669,-268.6799 1813.3033,-262.3652 1785.5,-256 1765.5163,-251.425 1721.3099,-240.0199 1681.4704,-229.5908"/>
<polygon fill="#1a2833" stroke="#1a2833" points="1682.2816,-226.1852 1671.7209,-227.0354 1680.5067,-232.9565 1682.2816,-226.1852"/>
<text text-anchor="middle" x="1806" y="-248" font-family="Times,serif" font-size="10.00" fill="#767676">^1.1|^2</text>
</g>
<!-- symfony/polyfill&#45;mbstring -->
<g id="node26" class="node">
<title>symfony/polyfill&#45;mbstring</title>
<path fill="#eeeeee" stroke="#000000" d="M2095.5,-173C2095.5,-173 1857.5,-173 1857.5,-173 1851.5,-173 1845.5,-167 1845.5,-161 1845.5,-161 1845.5,-149 1845.5,-149 1845.5,-143 1851.5,-137 1857.5,-137 1857.5,-137 2095.5,-137 2095.5,-137 2101.5,-137 2107.5,-143 2107.5,-149 2107.5,-149 2107.5,-161 2107.5,-161 2107.5,-167 2101.5,-173 2095.5,-173"/>
<text text-anchor="middle" x="1976.5" y="-151.3" font-family="Times,serif" font-size="14.00" fill="#314b5f">symfony/polyfill&#45;mbstring: v1.17.0</text>
</g>
<!-- symfony/console&#45;&gt;symfony/polyfill&#45;mbstring -->
<g id="edge46" class="edge">
<title>symfony/console&#45;&gt;symfony/polyfill&#45;mbstring</title>
<path fill="none" stroke="#1a2833" d="M1893.7007,-273.7715C1886.1706,-269.1299 1879.4669,-263.3064 1874.5,-256 1871.7515,-251.9569 1873.7169,-249.8258 1874.5,-245 1878.5523,-220.0284 1875.3703,-209.6165 1892.5,-191 1896.8711,-186.2495 1901.9747,-182.0996 1907.4674,-178.4795"/>
<polygon fill="#1a2833" stroke="#1a2833" points="1909.5428,-181.3185 1916.3699,-173.2166 1905.9805,-175.2927 1909.5428,-181.3185"/>
<text text-anchor="middle" x="1886.5" y="-248" font-family="Times,serif" font-size="10.00" fill="#767676">~1.0</text>
</g>
<!-- symfony/polyfill&#45;php73 -->
<g id="node27" class="node">
<title>symfony/polyfill&#45;php73</title>
<path fill="#eeeeee" stroke="#000000" d="M2342.5,-173C2342.5,-173 2124.5,-173 2124.5,-173 2118.5,-173 2112.5,-167 2112.5,-161 2112.5,-161 2112.5,-149 2112.5,-149 2112.5,-143 2118.5,-137 2124.5,-137 2124.5,-137 2342.5,-137 2342.5,-137 2348.5,-137 2354.5,-143 2354.5,-149 2354.5,-149 2354.5,-161 2354.5,-161 2354.5,-167 2348.5,-173 2342.5,-173"/>
<text text-anchor="middle" x="2233.5" y="-151.3" font-family="Times,serif" font-size="14.00" fill="#314b5f">symfony/polyfill&#45;php73: v1.17.0</text>
</g>
<!-- symfony/console&#45;&gt;symfony/polyfill&#45;php73 -->
<g id="edge47" class="edge">
<title>symfony/console&#45;&gt;symfony/polyfill&#45;php73</title>
<path fill="none" stroke="#1a2833" d="M1948.0355,-273.8927C1928.964,-251.9318 1903.8405,-214.8945 1925.5,-191 1937.9087,-177.3109 2060.9372,-175.6692 2102.2842,-173.3074"/>
<polygon fill="#1a2833" stroke="#1a2833" points="2102.7405,-176.7826 2112.4392,-172.5183 2102.198,-169.8037 2102.7405,-176.7826"/>
<text text-anchor="middle" x="1945.5" y="-248" font-family="Times,serif" font-size="10.00" fill="#767676">^1.8</text>
</g>
<!-- psr/log -->
<g id="node28" class="node">
<title>psr/log</title>
<path fill="#eeeeee" stroke="#000000" d="M1988.5,-227C1988.5,-227 1946.5,-227 1946.5,-227 1940.5,-227 1934.5,-221 1934.5,-215 1934.5,-215 1934.5,-203 1934.5,-203 1934.5,-197 1940.5,-191 1946.5,-191 1946.5,-191 1988.5,-191 1988.5,-191 1994.5,-191 2000.5,-197 2000.5,-203 2000.5,-203 2000.5,-215 2000.5,-215 2000.5,-221 1994.5,-227 1988.5,-227"/>
<text text-anchor="middle" x="1967.5" y="-205.3" font-family="Times,serif" font-size="14.00" fill="#314b5f">psr/log</text>
</g>
<!-- symfony/console&#45;&gt;psr/log -->
<g id="edge49" class="edge">
<title>symfony/console&#45;&gt;psr/log</title>
<path fill="none" stroke="#1a2833" stroke-dasharray="5,2" d="M1965.934,-273.9902C1966.1917,-263.2963 1966.5241,-249.4994 1966.8164,-237.3706"/>
<polygon fill="#1a2833" stroke="#1a2833" points="1970.318,-237.3427 1967.06,-227.2612 1963.32,-237.174 1970.318,-237.3427"/>
<text text-anchor="middle" x="1979.5" y="-248" font-family="Times,serif" font-size="10.00" fill="#767676">~1.0</text>
</g>
<!-- symfony/dependency&#45;injection -->
<g id="node29" class="node">
<title>symfony/dependency&#45;injection</title>
<path fill="#eeeeee" stroke="#000000" d="M2240.5,-227C2240.5,-227 2030.5,-227 2030.5,-227 2024.5,-227 2018.5,-221 2018.5,-215 2018.5,-215 2018.5,-203 2018.5,-203 2018.5,-197 2024.5,-191 2030.5,-191 2030.5,-191 2240.5,-191 2240.5,-191 2246.5,-191 2252.5,-197 2252.5,-203 2252.5,-203 2252.5,-215 2252.5,-215 2252.5,-221 2246.5,-227 2240.5,-227"/>
<text text-anchor="middle" x="2135.5" y="-205.3" font-family="Times,serif" font-size="14.00" fill="#314b5f">symfony/dependency&#45;injection</text>
</g>
<!-- symfony/console&#45;&gt;symfony/dependency&#45;injection -->
<g id="edge51" class="edge">
<title>symfony/console&#45;&gt;symfony/dependency&#45;injection</title>
<path fill="none" stroke="#1a2833" stroke-dasharray="5,2" d="M2002.3875,-273.9902C2027.8074,-261.5793 2061.7873,-244.9891 2089.0524,-231.6773"/>
<polygon fill="#1a2833" stroke="#1a2833" points="2090.9408,-234.6503 2098.3914,-227.1177 2087.8696,-228.36 2090.9408,-234.6503"/>
<text text-anchor="middle" x="2086.5" y="-248" font-family="Times,serif" font-size="10.00" fill="#767676">^4.4|^5.0</text>
</g>
<!-- symfony/lock -->
<g id="node30" class="node">
<title>symfony/lock</title>
<path fill="#eeeeee" stroke="#000000" d="M2370,-227C2370,-227 2283,-227 2283,-227 2277,-227 2271,-221 2271,-215 2271,-215 2271,-203 2271,-203 2271,-197 2277,-191 2283,-191 2283,-191 2370,-191 2370,-191 2376,-191 2382,-197 2382,-203 2382,-203 2382,-215 2382,-215 2382,-221 2376,-227 2370,-227"/>
<text text-anchor="middle" x="2326.5" y="-205.3" font-family="Times,serif" font-size="14.00" fill="#314b5f">symfony/lock</text>
</g>
<!-- symfony/console&#45;&gt;symfony/lock -->
<g id="edge53" class="edge">
<title>symfony/console&#45;&gt;symfony/lock</title>
<path fill="none" stroke="#1a2833" stroke-dasharray="5,2" d="M2053.5385,-273.9676C2110.1403,-262.0684 2185.4472,-245.6706 2261.1665,-227.0195"/>
<polygon fill="#1a2833" stroke="#1a2833" points="2262.0169,-230.4148 2270.8828,-224.6142 2260.3347,-223.6199 2262.0169,-230.4148"/>
<text text-anchor="middle" x="2206.5" y="-248" font-family="Times,serif" font-size="10.00" fill="#767676">^4.4|^5.0</text>
</g>
<!-- symfony/process -->
<g id="node31" class="node">
<title>symfony/process</title>
<path fill="#eeeeee" stroke="#000000" d="M2525,-227C2525,-227 2412,-227 2412,-227 2406,-227 2400,-221 2400,-215 2400,-215 2400,-203 2400,-203 2400,-197 2406,-191 2412,-191 2412,-191 2525,-191 2525,-191 2531,-191 2537,-197 2537,-203 2537,-203 2537,-215 2537,-215 2537,-221 2531,-227 2525,-227"/>
<text text-anchor="middle" x="2468.5" y="-205.3" font-family="Times,serif" font-size="14.00" fill="#314b5f">symfony/process</text>
</g>
<!-- symfony/console&#45;&gt;symfony/process -->
<g id="edge54" class="edge">
<title>symfony/console&#45;&gt;symfony/process</title>
<path fill="none" stroke="#1a2833" stroke-dasharray="5,2" d="M2059.5607,-275.4453C2062.9128,-274.9429 2066.2338,-274.4593 2069.5,-274 2142.9873,-263.6669 2162.0845,-266.8319 2235.5,-256 2301.7191,-246.2299 2320.2574,-241.738 2389.512,-227.18"/>
<polygon fill="#1a2833" stroke="#1a2833" points="2390.5625,-230.5359 2399.6309,-225.0574 2389.1254,-223.685 2390.5625,-230.5359"/>
<text text-anchor="middle" x="2328.5" y="-248" font-family="Times,serif" font-size="10.00" fill="#767676">^4.4|^5.0</text>
</g>
<!-- symfony/var&#45;dumper -->
<g id="node32" class="node">
<title>symfony/var&#45;dumper</title>
<path fill="#eeeeee" stroke="#000000" d="M2707.5,-227C2707.5,-227 2567.5,-227 2567.5,-227 2561.5,-227 2555.5,-221 2555.5,-215 2555.5,-215 2555.5,-203 2555.5,-203 2555.5,-197 2561.5,-191 2567.5,-191 2567.5,-191 2707.5,-191 2707.5,-191 2713.5,-191 2719.5,-197 2719.5,-203 2719.5,-203 2719.5,-215 2719.5,-215 2719.5,-221 2713.5,-227 2707.5,-227"/>
<text text-anchor="middle" x="2637.5" y="-205.3" font-family="Times,serif" font-size="14.00" fill="#314b5f">symfony/var&#45;dumper</text>
</g>
<!-- symfony/console&#45;&gt;symfony/var&#45;dumper -->
<g id="edge55" class="edge">
<title>symfony/console&#45;&gt;symfony/var&#45;dumper</title>
<path fill="none" stroke="#1a2833" stroke-dasharray="5,2" d="M2059.5358,-275.2519C2062.8949,-274.8043 2066.2242,-274.3847 2069.5,-274 2196.8745,-259.0419 2229.9938,-269.7901 2357.5,-256 2438.4345,-247.2467 2460.599,-241.966 2545.2045,-227.0288"/>
<polygon fill="#1a2833" stroke="#1a2833" points="2546.0292,-230.4375 2555.2716,-225.258 2544.8165,-223.5434 2546.0292,-230.4375"/>
<text text-anchor="middle" x="2467.5" y="-248" font-family="Times,serif" font-size="10.00" fill="#767676">^4.4|^5.0</text>
</g>
<!-- symfony/finder&#45;&gt;php -->
<g id="edge58" class="edge">
<title>symfony/finder&#45;&gt;php</title>
<path fill="none" stroke="#1a2833" d="M3022.7095,-356.9172C3054.3633,-344.8147 3082.5,-324.8248 3082.5,-292 3082.5,-292 3082.5,-292 3082.5,-101 3082.5,-26.5166 1870.9815,-18.869 1640.9564,-18.0882"/>
<polygon fill="#1a2833" stroke="#1a2833" points="1640.7645,-14.5877 1630.7534,-18.056 1640.7423,-21.5877 1640.7645,-14.5877"/>
<text text-anchor="middle" x="3099" y="-206.5" font-family="Times,serif" font-size="10.00" fill="#767676">^7.2.5</text>
</g>
<!-- symfony/options&#45;resolver&#45;&gt;php -->
<g id="edge59" class="edge">
<title>symfony/options&#45;resolver&#45;&gt;php</title>
<path fill="none" stroke="#1a2833" d="M3089.0349,-410.9848C3113.5793,-394.3629 3143.5,-367.1907 3143.5,-333.5 3143.5,-333.5 3143.5,-333.5 3143.5,-101 3143.5,-68.0367 3137.7805,-74.7897 2926.5,-54 2666.9972,-28.4652 1827.6927,-19.9106 1640.6713,-18.2988"/>
<polygon fill="#1a2833" stroke="#1a2833" points="1640.5554,-14.7977 1630.5261,-18.2127 1640.496,-21.7975 1640.5554,-14.7977"/>
<text text-anchor="middle" x="3160" y="-248" font-family="Times,serif" font-size="10.00" fill="#767676">^7.2.5</text>
</g>
<!-- symfony/yaml&#45;&gt;php -->
<g id="edge65" class="edge">
<title>symfony/yaml&#45;&gt;php</title>
<path fill="none" stroke="#1a2833" d="M1831.3092,-356.8892C1814.0672,-334.2633 1784.8847,-293.8995 1765.5,-256 1751.4768,-228.5829 1756.6279,-217.8233 1741.5,-191 1709.3118,-133.9272 1658.7638,-76.1171 1628.6044,-43.8821"/>
<polygon fill="#1a2833" stroke="#1a2833" points="1630.8105,-41.1206 1621.3996,-36.2538 1625.7215,-45.9271 1630.8105,-41.1206"/>
<text text-anchor="middle" x="1772" y="-206.5" font-family="Times,serif" font-size="10.00" fill="#767676">^7.2.5</text>
</g>
<!-- symfony/yaml&#45;&gt;symfony/console -->
<g id="edge67" class="edge">
<title>symfony/yaml&#45;&gt;symfony/console</title>
<path fill="none" stroke="#1a2833" stroke-dasharray="5,2" d="M1842.9718,-356.6751C1842.6744,-347.1419 1844.0491,-335.8689 1850.5,-328 1854.8334,-322.7141 1864.4471,-317.7811 1876.3632,-313.3653"/>
<polygon fill="#1a2833" stroke="#1a2833" points="1877.5581,-316.6557 1885.875,-310.0921 1875.2803,-310.0366 1877.5581,-316.6557"/>
<text text-anchor="middle" x="1875.5" y="-331" font-family="Times,serif" font-size="10.00" fill="#767676">^4.4|^5.0</text>
</g>
<!-- symfony/yaml&#45;&gt;symfony/polyfill&#45;ctype -->
<g id="edge66" class="edge">
<title>symfony/yaml&#45;&gt;symfony/polyfill&#45;ctype</title>
<path fill="none" stroke="#1a2833" d="M1905.4638,-356.9903C1937.3868,-347.7159 1977.4059,-336.5851 2013.5,-328 2037.3103,-322.3366 2063.0136,-316.8792 2087.4164,-311.9998"/>
<polygon fill="#1a2833" stroke="#1a2833" points="2088.2919,-315.3945 2097.4205,-310.0169 2086.9308,-308.528 2088.2919,-315.3945"/>
<text text-anchor="middle" x="2025.5" y="-331" font-family="Times,serif" font-size="10.00" fill="#767676">~1.8</text>
</g>
<!-- jawira/plantuml&#45;encoding&#45;&gt;php -->
<g id="edge31" class="edge">
<title>jawira/plantuml&#45;encoding&#45;&gt;php</title>
<path fill="none" stroke="#1a2833" d="M1270.718,-273.7186C1280.1425,-232.8874 1302.1169,-137.7785 1302.5,-137 1323.5556,-94.2118 1329.088,-77.6479 1370.5,-54 1403.2088,-35.322 1509.3142,-24.8934 1566.3771,-20.5067"/>
<polygon fill="#1a2833" stroke="#1a2833" points="1566.7204,-23.9909 1576.4325,-19.7572 1566.2,-17.0102 1566.7204,-23.9909"/>
<text text-anchor="middle" x="1336.5" y="-152.5" font-family="Times,serif" font-size="10.00" fill="#767676">^5.3.2 || ^7.0</text>
</g>
<!-- ext&#45;zlib -->
<g id="node18" class="node">
<title>ext&#45;zlib</title>
<path fill="#eeeeee" stroke="#000000" d="M1261,-227C1261,-227 1216,-227 1216,-227 1210,-227 1204,-221 1204,-215 1204,-215 1204,-203 1204,-203 1204,-197 1210,-191 1216,-191 1216,-191 1261,-191 1261,-191 1267,-191 1273,-197 1273,-203 1273,-203 1273,-215 1273,-215 1273,-221 1267,-227 1261,-227"/>
<text text-anchor="middle" x="1238.5" y="-205.3" font-family="Times,serif" font-size="14.00" fill="#314b5f">ext&#45;zlib</text>
</g>
<!-- jawira/plantuml&#45;encoding&#45;&gt;ext&#45;zlib -->
<g id="edge30" class="edge">
<title>jawira/plantuml&#45;encoding&#45;&gt;ext&#45;zlib</title>
<path fill="none" stroke="#1a2833" d="M1260.4244,-273.9902C1256.7804,-263.1883 1252.0683,-249.2204 1247.947,-237.0036"/>
<polygon fill="#1a2833" stroke="#1a2833" points="1251.1734,-235.6178 1244.6604,-227.2612 1244.5406,-237.8554 1251.1734,-235.6178"/>
<text text-anchor="middle" x="1257.5" y="-248" font-family="Times,serif" font-size="10.00" fill="#767676">*</text>
</g>
<!-- nikic/php&#45;parser&#45;&gt;php -->
<g id="edge33" class="edge">
<title>nikic/php&#45;parser&#45;&gt;php</title>
<path fill="none" stroke="#1a2833" d="M300.3691,-82.9682C342.8821,-72.5064 398.9975,-60.2044 449.5,-54 673.1121,-26.5286 1393.8185,-19.5443 1566.2048,-18.2498"/>
<polygon fill="#1a2833" stroke="#1a2833" points="1566.3279,-21.7491 1576.3019,-18.1758 1566.2765,-14.7493 1566.3279,-21.7491"/>
<text text-anchor="middle" x="465.5" y="-57" font-family="Times,serif" font-size="10.00" fill="#767676">&gt;=7.0</text>
</g>
<!-- nikic/php&#45;parser&#45;&gt;phpunit/phpunit -->
<g id="edge35" class="edge">
<title>nikic/php&#45;parser&#45;&gt;phpunit/phpunit</title>
<path fill="none" stroke="#1a2833" stroke-dasharray="5,2" d="M236.7859,-82.9522C240.0479,-73.0196 245.5479,-61.2696 254.5,-54 266.7862,-44.0229 299.3524,-35.696 331.2971,-29.5722"/>
<polygon fill="#1a2833" stroke="#1a2833" points="331.973,-33.0067 341.1679,-27.7431 330.6976,-26.1238 331.973,-33.0067"/>
<text text-anchor="middle" x="301.5" y="-57" font-family="Times,serif" font-size="10.00" fill="#767676">^6.5 || ^7.0 || ^8.0</text>
</g>
<!-- ext&#45;tokenizer -->
<g id="node19" class="node">
<title>ext&#45;tokenizer</title>
<path fill="#eeeeee" stroke="#000000" d="M99,-36C99,-36 12,-36 12,-36 6,-36 0,-30 0,-24 0,-24 0,-12 0,-12 0,-6 6,0 12,0 12,0 99,0 99,0 105,0 111,-6 111,-12 111,-12 111,-24 111,-24 111,-30 105,-36 99,-36"/>
<text text-anchor="middle" x="55.5" y="-14.3" font-family="Times,serif" font-size="14.00" fill="#314b5f">ext&#45;tokenizer</text>
</g>
<!-- nikic/php&#45;parser&#45;&gt;ext&#45;tokenizer -->
<g id="edge32" class="edge">
<title>nikic/php&#45;parser&#45;&gt;ext&#45;tokenizer</title>
<path fill="none" stroke="#1a2833" d="M194.0936,-82.9902C167.5114,-70.5251 131.9388,-53.8442 103.4886,-40.5031"/>
<polygon fill="#1a2833" stroke="#1a2833" points="104.6766,-37.1946 94.1366,-36.1177 101.7046,-43.5323 104.6766,-37.1946"/>
<text text-anchor="middle" x="158.5" y="-57" font-family="Times,serif" font-size="10.00" fill="#767676">*</text>
</g>
<!-- ircmaxell/php&#45;yacc -->
<g id="node20" class="node">
<title>ircmaxell/php&#45;yacc</title>
<path fill="#eeeeee" stroke="#000000" d="M269.5,-36C269.5,-36 141.5,-36 141.5,-36 135.5,-36 129.5,-30 129.5,-24 129.5,-24 129.5,-12 129.5,-12 129.5,-6 135.5,0 141.5,0 141.5,0 269.5,0 269.5,0 275.5,0 281.5,-6 281.5,-12 281.5,-12 281.5,-24 281.5,-24 281.5,-30 275.5,-36 269.5,-36"/>
<text text-anchor="middle" x="205.5" y="-14.3" font-family="Times,serif" font-size="14.00" fill="#314b5f">ircmaxell/php&#45;yacc</text>
</g>
<!-- nikic/php&#45;parser&#45;&gt;ircmaxell/php&#45;yacc -->
<g id="edge34" class="edge">
<title>nikic/php&#45;parser&#45;&gt;ircmaxell/php&#45;yacc</title>
<path fill="none" stroke="#1a2833" stroke-dasharray="5,2" d="M216.1185,-82.7753C212.2324,-77.4121 208.6069,-71.2866 206.5,-65 204.5395,-59.1502 203.6496,-52.6569 203.369,-46.4103"/>
<polygon fill="#1a2833" stroke="#1a2833" points="206.8691,-46.2953 203.3906,-36.2878 199.8692,-46.2803 206.8691,-46.2953"/>
<text text-anchor="middle" x="219" y="-57" font-family="Times,serif" font-size="10.00" fill="#767676">0.0.5</text>
</g>
<!-- symfony/filesystem&#45;&gt;php -->
<g id="edge56" class="edge">
<title>symfony/filesystem&#45;&gt;php</title>
<path fill="none" stroke="#1a2833" d="M2301.6108,-356.9974C2430.4293,-333.6825 2641.4558,-291.7883 2712.5,-256 2761.4122,-231.3606 2780.9416,-177.8841 2744.5,-137 2669.2639,-52.592 1829.6501,-24.2951 1640.985,-18.9806"/>
<polygon fill="#1a2833" stroke="#1a2833" points="1640.837,-15.4753 1630.7438,-18.6969 1640.643,-22.4726 1640.837,-15.4753"/>
<text text-anchor="middle" x="2780" y="-206.5" font-family="Times,serif" font-size="10.00" fill="#767676">^7.2.5</text>
</g>
<!-- symfony/filesystem&#45;&gt;symfony/polyfill&#45;ctype -->
<g id="edge57" class="edge">
<title>symfony/filesystem&#45;&gt;symfony/polyfill&#45;ctype</title>
<path fill="none" stroke="#1a2833" d="M2197.283,-356.9902C2197.1542,-346.2963 2196.9879,-332.4994 2196.8418,-320.3706"/>
<polygon fill="#1a2833" stroke="#1a2833" points="2200.3403,-320.2183 2196.72,-310.2612 2193.3408,-320.3027 2200.3403,-320.2183"/>
<text text-anchor="middle" x="2209.5" y="-331" font-family="Times,serif" font-size="10.00" fill="#767676">~1.8</text>
</g>
<!-- symfony/polyfill&#45;ctype&#45;&gt;php -->
<g id="edge60" class="edge">
<title>symfony/polyfill&#45;ctype&#45;&gt;php</title>
<path fill="none" stroke="#1a2833" d="M2314.8032,-285.7423C2463.1885,-276.6595 2701.5783,-257.4965 2728.5,-227 2739.0888,-215.0051 2738.7084,-203.3202 2728.5,-191 2656.9599,-104.6602 1827.9625,-35.4302 1640.8616,-20.8388"/>
<polygon fill="#1a2833" stroke="#1a2833" points="1640.9418,-17.3346 1630.7012,-20.0511 1640.4007,-24.3137 1640.9418,-17.3346"/>
<text text-anchor="middle" x="2720" y="-152.5" font-family="Times,serif" font-size="10.00" fill="#767676">&gt;=5.3.3</text>
</g>
<!-- symfony/service&#45;contracts&#45;&gt;php -->
<g id="edge63" class="edge">
<title>symfony/service&#45;contracts&#45;&gt;php</title>
<path fill="none" stroke="#1a2833" d="M1603.5,-190.6861C1603.5,-157.2443 1603.5,-86.086 1603.5,-46.3441"/>
<polygon fill="#1a2833" stroke="#1a2833" points="1607.0001,-46.2584 1603.5,-36.2584 1600.0001,-46.2585 1607.0001,-46.2584"/>
<text text-anchor="middle" x="1620" y="-98.5" font-family="Times,serif" font-size="10.00" fill="#767676">^7.2.5</text>
</g>
<!-- symfony/service&#45;contracts&#45;&gt;psr/container -->
<g id="edge64" class="edge">
<title>symfony/service&#45;contracts&#45;&gt;psr/container</title>
<path fill="none" stroke="#1a2833" d="M1551.4239,-190.9789C1505.0973,-175.3611 1435.3098,-152.8435 1373.5,-137 1344.5219,-129.5721 1312.5831,-122.7284 1283.8046,-117.0475"/>
<polygon fill="#1a2833" stroke="#1a2833" points="1284.2526,-113.569 1273.7672,-115.0876 1282.911,-120.4392 1284.2526,-113.569"/>
<text text-anchor="middle" x="1505.5" y="-152.5" font-family="Times,serif" font-size="10.00" fill="#767676">^1.0</text>
</g>
<!-- symfony/polyfill&#45;mbstring&#45;&gt;php -->
<g id="edge61" class="edge">
<title>symfony/polyfill&#45;mbstring&#45;&gt;php</title>
<path fill="none" stroke="#1a2833" d="M1955.0129,-136.7805C1926.4779,-113.6256 1873.5924,-74.2398 1821.5,-54 1760.9233,-30.4638 1685.0483,-22.3129 1640.6539,-19.4916"/>
<polygon fill="#1a2833" stroke="#1a2833" points="1640.7933,-15.9939 1630.6079,-18.9107 1640.3891,-22.9823 1640.7933,-15.9939"/>
<text text-anchor="middle" x="1951" y="-98.5" font-family="Times,serif" font-size="10.00" fill="#767676">&gt;=5.3.3</text>
</g>
<!-- symfony/polyfill&#45;php73&#45;&gt;php -->
<g id="edge62" class="edge">
<title>symfony/polyfill&#45;php73&#45;&gt;php</title>
<path fill="none" stroke="#1a2833" d="M2175.2329,-136.972C2100.1646,-114.3913 1965.3,-76.0015 1847.5,-54 1774.5611,-40.3772 1688.5685,-28.7021 1640.6139,-22.5797"/>
<polygon fill="#1a2833" stroke="#1a2833" points="1641.053,-19.1074 1630.6924,-21.3231 1640.1733,-26.0519 1641.053,-19.1074"/>
<text text-anchor="middle" x="2133" y="-98.5" font-family="Times,serif" font-size="10.00" fill="#767676">&gt;=5.3.3</text>
</g>
</g>
</svg>
